<svg xmlns="http://www.w3.org/2000/svg" viewBox="0 0 254.88 71.83"><defs><style>.cls-1{fill:none;stroke:#586e57;stroke-miterlimit:10;}.cls-2{fill:#586e57;}</style></defs><g id="レイヤー_2" data-name="レイヤー 2"><g id="レイヤー_1-2" data-name="レイヤー 1"><path class="cls-1" d="M25.83,4.61a6.57,6.57,0,0,0-1.35-.14,7,7,0,0,0-7,6.73H12.39v4.88A21.93,21.93,0,0,0,.5,36c0,9,5,16.68,12.19,20v4.66h5.09a7,7,0,0,0,7,6.72,6.72,6.72,0,0,0,1.35-.13v4.11H229.05V67.22a6.72,6.72,0,0,0,1.35.13,7,7,0,0,0,7-6.72h5.08V55.75a21.93,21.93,0,0,0,11.89-19.88c0-9-5-16.69-12.19-20V11.2h-5.08a7,7,0,0,0-7-6.73,6.72,6.72,0,0,0-1.35.14V.5H25.83Z"/><path class="cls-1" d="M25.83,4.61a6.57,6.57,0,0,0-1.35-.14,7,7,0,0,0-7,6.73H12.39v4.88A21.93,21.93,0,0,0,.5,36c0,9,5,16.68,12.19,20v4.66h5.09a7,7,0,0,0,7,6.72,6.72,6.72,0,0,0,1.35-.13v4.11H229.05V67.22a6.72,6.72,0,0,0,1.35.13,7,7,0,0,0,7-6.72h5.08V55.75a21.93,21.93,0,0,0,11.89-19.88c0-9-5-16.69-12.19-20V11.2h-5.08a7,7,0,0,0-7-6.73,6.72,6.72,0,0,0-1.35.14V.5H25.83Z"/><path class="cls-1" d="M250.62,35.87c0,6.85-3.54,13.29-9,16.4l-2.87,1.64v3.31h-4l-1.18,4.19a3.4,3.4,0,0,1-2.79,2.52l-5.42.58v3.41H29.89V64.51l-5.42-.58a3.4,3.4,0,0,1-2.79-2.53L20.5,57.22H16.45V54.1l-3-1.62C7.89,49.41,4.26,42.92,4.26,36s3.54-13.29,9-16.4l2.88-1.64V14.61h4l1.19-4.19A3.36,3.36,0,0,1,24.17,7.9l5.43-.58V3.91H225V7.32l5.43.58a3.39,3.39,0,0,1,2.78,2.52l1.18,4.19h4.05v3.12l3,1.62C247,22.42,250.62,28.91,250.62,35.87Z"/><path class="cls-1" d="M35.36,62.21V59.35l-8.82-.94-2-6.9H21.92v-.86L16,47.42A13,13,0,0,1,9.73,36,13.1,13.1,0,0,1,15.9,24.57l5.73-3.26v-1h2.66l1.95-6.9,8.83-.94V9.62H219.52v2.86l8.82.94,2,6.9H233v.86l5.89,3.23c3.83,2.09,6.3,6.59,6.3,11.46A13.11,13.11,0,0,1,239,47.26l-5.73,3.26v1h-2.67l-2,6.9-8.82.94v2.86Z"/><path class="cls-2" d="M229.4,34a3.07,3.07,0,0,0-2-1.45,17.14,17.14,0,0,0-5.32-.74,15.5,15.5,0,0,0,2.14-.95,3,3,0,0,0,1.66-1.78,2.43,2.43,0,0,0-.15-1.33,3.94,3.94,0,0,0-3.05-2.39,4.2,4.2,0,0,0,.07-3,2.22,2.22,0,0,0-2.59-1.28,3,3,0,0,0-.8-3.17,3.35,3.35,0,0,0-3.37-.59,6.33,6.33,0,0,0-2.27,1.91,14.71,14.71,0,0,0-2.8,4.1,15.69,15.69,0,0,0-2.66-3.8A6.33,6.33,0,0,0,206,17.62a3.37,3.37,0,0,0-3.37.58,3,3,0,0,0-.81,3.17,2.22,2.22,0,0,0-2.59,1.28,4.2,4.2,0,0,0,.07,3A3.91,3.91,0,0,0,196.26,28a2.27,2.27,0,0,0-.15,1.33,3,3,0,0,0,1.65,1.79,15.25,15.25,0,0,0,1.39.65,18,18,0,0,0-4.25.73,3.09,3.09,0,0,0-2,1.44,2.33,2.33,0,0,0-.14,1.33,3.86,3.86,0,0,0,2.5,2.92,4.22,4.22,0,0,0-.69,2.92,2.18,2.18,0,0,0,2.28,1.74,2.93,2.93,0,0,0,.13,3.26,3.28,3.28,0,0,0,3.18,1.2,6.44,6.44,0,0,0,2.62-1.44c.64-.5,1.29-1,1.88-1.55a19.18,19.18,0,0,0-1.35,3.59A5.89,5.89,0,0,0,203,50.8a3.13,3.13,0,0,0,2.43,2.3,3.31,3.31,0,0,0,3.19-1.18,2.22,2.22,0,0,0,2.58,1.29,4.59,4.59,0,0,0,2.55-1.77,4.1,4.1,0,0,0,3.81,1,2.56,2.56,0,0,0,1.23-.64,2.87,2.87,0,0,0,.59-2.31,15.35,15.35,0,0,0-1.32-4.77c.47.41,1,.8,1.45,1.18a6.46,6.46,0,0,0,2.62,1.45,3.33,3.33,0,0,0,3.19-1.2,2.93,2.93,0,0,0,.13-3.26,2.18,2.18,0,0,0,2.28-1.73,4.22,4.22,0,0,0-.68-2.93,3.88,3.88,0,0,0,2.5-2.92A2.29,2.29,0,0,0,229.4,34Zm-7.31,1.26a2.18,2.18,0,0,1-1.42,1.66,2.45,2.45,0,0,1,.39,1.67,1.24,1.24,0,0,1-1.3,1,1.68,1.68,0,0,1-.08,1.86,1.88,1.88,0,0,1-1.82.69,3.67,3.67,0,0,1-1.49-.83c-.28-.22-.56-.44-.83-.67a8.9,8.9,0,0,1,.76,2.72,1.67,1.67,0,0,1-.34,1.32,1.63,1.63,0,0,1-.7.37,2.37,2.37,0,0,1-2.18-.58,2.66,2.66,0,0,1-1.45,1,1.28,1.28,0,0,1-1.48-.74,1.86,1.86,0,0,1-1.82.67A1.77,1.77,0,0,1,207,44.09a3.27,3.27,0,0,1,.19-1.63,11.22,11.22,0,0,1,.77-2.05c-.34.31-.71.6-1.07.89a3.62,3.62,0,0,1-1.5.82,1.87,1.87,0,0,1-1.81-.69,1.68,1.68,0,0,1-.08-1.86,1.23,1.23,0,0,1-1.29-1,2.35,2.35,0,0,1,.39-1.67,2.19,2.19,0,0,1-1.43-1.66,1.32,1.32,0,0,1,.08-.76,1.72,1.72,0,0,1,1.13-.82,9.81,9.81,0,0,1,2.43-.42,8.61,8.61,0,0,1-.8-.37,1.74,1.74,0,0,1-.94-1,1.41,1.41,0,0,1,.08-.76,2.28,2.28,0,0,1,1.75-1.36,2.35,2.35,0,0,1,0-1.71,1.27,1.27,0,0,1,1.48-.73,1.69,1.69,0,0,1,.46-1.81,1.91,1.91,0,0,1,1.92-.33A3.4,3.4,0,0,1,210,26.25a8.76,8.76,0,0,1,1.52,2.17,8.61,8.61,0,0,1,1.6-2.34,3.51,3.51,0,0,1,1.3-1.09,1.91,1.91,0,0,1,1.92.33,1.7,1.7,0,0,1,.46,1.81,1.26,1.26,0,0,1,1.47.73,2.35,2.35,0,0,1,0,1.71,2.24,2.24,0,0,1,1.74,1.37,1.32,1.32,0,0,1,.09.76,1.75,1.75,0,0,1-.94,1,8.38,8.38,0,0,1-1.23.54,10,10,0,0,1,3,.43,1.76,1.76,0,0,1,1.13.82A1.24,1.24,0,0,1,222.09,35.26Z"/><path class="cls-2" d="M216.51,32.86a.49.49,0,0,0-.42.54l-2.05.69a2.58,2.58,0,0,0-.93-1.79l1.06-1.74a.44.44,0,0,0,.49-.12.51.51,0,0,0,0-.71.44.44,0,0,0-.65,0,.53.53,0,0,0,0,.7l-1.06,1.74a2.25,2.25,0,0,0-1.22-.37l-.3,0-.56-1.91a.5.5,0,0,0,.23-.49.48.48,0,0,0-.5-.45.51.51,0,0,0-.42.56.47.47,0,0,0,.5.44l.54,1.89a2.39,2.39,0,0,0-1.57,1.33l-1.59-1.13a.54.54,0,0,0-.11-.54.44.44,0,0,0-.65,0,.53.53,0,0,0,0,.71.42.42,0,0,0,.64,0l1.62,1.16a2.78,2.78,0,0,0-.16.92,2.71,2.71,0,0,0,.15.91l-2.07.45a.46.46,0,0,0-.42-.29.5.5,0,1,0,.46.51l2.12-.47a2.48,2.48,0,0,0,.84,1l-1.08,2.22a.44.44,0,0,0-.48.17.54.54,0,0,0,.07.71.44.44,0,0,0,.65-.08.52.52,0,0,0-.06-.69l1.07-2.22a2.21,2.21,0,0,0,1.08.29,2.26,2.26,0,0,0,1.84-1l-.09.19,2.07,1.18a.54.54,0,0,0,.16.52.44.44,0,0,0,.65-.08.52.52,0,0,0-.07-.7.43.43,0,0,0-.64.06l-2.08-1.18a2.59,2.59,0,0,0,.49-1.54h0l2.11-.71a.43.43,0,0,0,.44.24.49.49,0,0,0,.42-.55A.48.48,0,0,0,216.51,32.86Z"/><path class="cls-2" d="M213,39.27l-.47-2.49-.19,0,.46,2.49a.51.51,0,0,0-.27.46.47.47,0,1,0,.93,0A.49.49,0,0,0,213,39.27Z"/><path class="cls-2" d="M63,34a3.07,3.07,0,0,0-2-1.45,17.07,17.07,0,0,0-5.31-.74,16.66,16.66,0,0,0,2.14-.95,3,3,0,0,0,1.65-1.78,2.26,2.26,0,0,0-.15-1.33,3.94,3.94,0,0,0-3.05-2.39,4.15,4.15,0,0,0,.07-3,2.22,2.22,0,0,0-2.59-1.28,2.94,2.94,0,0,0-.8-3.17,3.35,3.35,0,0,0-3.37-.59,6.33,6.33,0,0,0-2.27,1.91,14.71,14.71,0,0,0-2.8,4.1,15.42,15.42,0,0,0-2.66-3.8,6.33,6.33,0,0,0-2.27-1.91,3.37,3.37,0,0,0-3.37.58,2.94,2.94,0,0,0-.8,3.17,2.22,2.22,0,0,0-2.59,1.28,4.2,4.2,0,0,0,.06,3,3.92,3.92,0,0,0-3,2.38,2.27,2.27,0,0,0-.15,1.33,3,3,0,0,0,1.65,1.79c.41.22.89.44,1.39.65a18,18,0,0,0-4.24.73,3.09,3.09,0,0,0-2,1.44,2.24,2.24,0,0,0-.13,1.33,3.85,3.85,0,0,0,2.49,2.92,4.16,4.16,0,0,0-.68,2.92,2.17,2.17,0,0,0,2.27,1.74,2.93,2.93,0,0,0,.13,3.26,3.28,3.28,0,0,0,3.18,1.2,6.37,6.37,0,0,0,2.62-1.44c.64-.5,1.29-1,1.89-1.55A18.51,18.51,0,0,0,37,47.94a5.78,5.78,0,0,0-.35,2.86,3.14,3.14,0,0,0,2.43,2.3,3.3,3.3,0,0,0,3.19-1.18,2.23,2.23,0,0,0,2.59,1.29,4.62,4.62,0,0,0,2.55-1.77,4.09,4.09,0,0,0,3.8,1,2.52,2.52,0,0,0,1.23-.64A2.87,2.87,0,0,0,53,49.5a15.67,15.67,0,0,0-1.33-4.77c.47.41,1,.8,1.46,1.18a6.46,6.46,0,0,0,2.62,1.45,3.33,3.33,0,0,0,3.18-1.2,2.93,2.93,0,0,0,.13-3.26,2.18,2.18,0,0,0,2.28-1.73,4.22,4.22,0,0,0-.68-2.93,3.86,3.86,0,0,0,2.5-2.92A2.38,2.38,0,0,0,63,34Zm-7.31,1.26a2.19,2.19,0,0,1-1.43,1.66,2.45,2.45,0,0,1,.39,1.67,1.23,1.23,0,0,1-1.3,1,1.68,1.68,0,0,1-.08,1.86,1.86,1.86,0,0,1-1.81.69A3.7,3.7,0,0,1,50,41.3c-.28-.22-.56-.44-.83-.67a8.9,8.9,0,0,1,.76,2.72,1.67,1.67,0,0,1-.34,1.32,1.63,1.63,0,0,1-.7.37,2.34,2.34,0,0,1-2.17-.58,2.72,2.72,0,0,1-1.46,1,1.27,1.27,0,0,1-1.47-.74A1.87,1.87,0,0,1,42,45.4a1.76,1.76,0,0,1-1.39-1.31,3.27,3.27,0,0,1,.2-1.63,9.93,9.93,0,0,1,.77-2.05c-.35.31-.71.6-1.08.89a3.65,3.65,0,0,1-1.49.82,1.88,1.88,0,0,1-1.82-.69,1.66,1.66,0,0,1-.07-1.86,1.24,1.24,0,0,1-1.3-1,2.4,2.4,0,0,1,.39-1.67,2.18,2.18,0,0,1-1.42-1.66,1.23,1.23,0,0,1,.07-.76A1.74,1.74,0,0,1,36,33.67a9.73,9.73,0,0,1,2.42-.42,8.61,8.61,0,0,1-.8-.37,1.77,1.77,0,0,1-.94-1,1.33,1.33,0,0,1,.09-.76,2.25,2.25,0,0,1,1.74-1.36,2.35,2.35,0,0,1,0-1.71,1.27,1.27,0,0,1,1.48-.73,1.69,1.69,0,0,1,.46-1.81,1.91,1.91,0,0,1,1.92-.33,3.51,3.51,0,0,1,1.3,1.09,9,9,0,0,1,1.52,2.17,8.36,8.36,0,0,1,1.59-2.34A3.51,3.51,0,0,1,48,25a1.91,1.91,0,0,1,1.92.33,1.7,1.7,0,0,1,.46,1.81,1.27,1.27,0,0,1,1.48.73,2.46,2.46,0,0,1,0,1.71,2.24,2.24,0,0,1,1.74,1.37,1.32,1.32,0,0,1,.08.76,1.72,1.72,0,0,1-.94,1,8.73,8.73,0,0,1-1.22.54,9.89,9.89,0,0,1,3,.43,1.76,1.76,0,0,1,1.13.82A1.32,1.32,0,0,1,55.73,35.26Z"/><path class="cls-2" d="M50.14,32.86a.48.48,0,0,0-.41.54l-2.06.69a2.54,2.54,0,0,0-.93-1.79l1.06-1.74a.46.46,0,0,0,.5-.12.53.53,0,0,0,0-.71.45.45,0,0,0-.66,0,.52.52,0,0,0,0,.7l-1.07,1.74a2.22,2.22,0,0,0-1.22-.37l-.3,0-.55-1.91a.52.52,0,0,0,.23-.49.49.49,0,0,0-.51-.45.51.51,0,0,0-.42.56.47.47,0,0,0,.5.44l.55,1.89a2.39,2.39,0,0,0-1.58,1.33l-1.59-1.13a.54.54,0,0,0-.11-.54.44.44,0,0,0-.65,0,.53.53,0,0,0,0,.71.43.43,0,0,0,.65,0l1.61,1.16a2.78,2.78,0,0,0-.16.92,2.72,2.72,0,0,0,.16.91l-2.08.45a.46.46,0,0,0-.42-.29.5.5,0,1,0,.46.51l2.12-.47a2.48,2.48,0,0,0,.84,1L43,38.67a.44.44,0,0,0-.48.17.54.54,0,0,0,.07.71.44.44,0,0,0,.65-.08.52.52,0,0,0-.06-.69l1.07-2.22a2.2,2.2,0,0,0,2.92-.69l-.09.19,2.08,1.18a.51.51,0,0,0,.15.52.44.44,0,0,0,.65-.08.53.53,0,0,0-.06-.7.44.44,0,0,0-.65.06L47.2,35.86a2.66,2.66,0,0,0,.48-1.54h0l2.11-.71a.44.44,0,0,0,.45.24.48.48,0,0,0,.41-.55A.47.47,0,0,0,50.14,32.86Z"/><path class="cls-2" d="M46.61,39.27l-.46-2.49-.2,0,.46,2.49a.51.51,0,0,0-.27.46.47.47,0,1,0,.47-.5Z"/></g></g></svg>