<svg xmlns="http://www.w3.org/2000/svg" viewBox="0 0 173.3 298.18"><defs><style>.cls-1,.cls-2,.cls-3,.cls-5{fill:none;stroke-miterlimit:10;}.cls-1{stroke:#231815;}.cls-1,.cls-3{stroke-width:1.18px;}.cls-2,.cls-3,.cls-5{stroke:#fff;}.cls-2{stroke-width:3px;}.cls-4{fill:#fff;}</style></defs><g id="レイヤー_2" data-name="レイヤー 2"><g id="レイヤー_1-2" data-name="レイヤー 1"><path class="cls-1" d="M169.09,88.26H151.38V68.91a2.21,2.21,0,0,0-2.18-2.18H127.67l-1.94-3c-7.89-12.25-23-19.86-39.35-19.86S54.94,51.49,47,63.74l-1.92,3H23.57a2.21,2.21,0,0,0-2.18,2.18V88.26H3.68A2.21,2.21,0,0,0,1.5,90.44V294.51a2.2,2.2,0,0,0,2.18,2.17H169.09a2.2,2.2,0,0,0,2.18-2.17V90.44A2.21,2.21,0,0,0,169.09,88.26Z"/><path class="cls-2" d="M171.27,294.51a2.2,2.2,0,0,1-2.18,2.17H3.68a2.2,2.2,0,0,1-2.18-2.17V90.44a2.21,2.21,0,0,1,2.18-2.18H21.39V68.91a2.21,2.21,0,0,1,2.18-2.18H45.11l1.92-3c7.91-12.25,23-19.86,39.35-19.86s31.46,7.61,39.35,19.86l1.94,3H149.2a2.21,2.21,0,0,1,2.18,2.18V88.26h17.71a2.21,2.21,0,0,1,2.18,2.18Z"/><path class="cls-3" d="M86.38,53.5c13.15,0,25.13,5.91,31.28,15.44l3.86,6,.91,1.41h19.34V97.87h19.89V287.08H11.12V97.87H31V76.34H50.34l.92-1.41,3.86-6C61.27,59.41,73.24,53.5,86.38,53.5"/><path class="cls-4" d="M86.39,0C84.12,0,80.12,4.42,82,9.6c3.24,9.07,3.26,20.55,4.43,20.55S87.58,18.67,90.81,9.6C92.66,4.42,88.66,0,86.39,0Z"/><path class="cls-4" d="M77.12,14.27c-7.51-5.34-17.56.89-13.18,4.29,3.64,2.82,6.48-1.21,11.81.29,5,1.42,7.47,7,7.47,7S84,19.14,77.12,14.27Z"/><path class="cls-4" d="M95.65,14.27c7.51-5.34,17.57.89,13.19,4.29-3.64,2.82-6.48-1.21-11.81.29-5,1.42-7.47,7-7.47,7S88.8,19.14,95.65,14.27Z"/><path class="cls-4" d="M33.25,32.62c.94-5,7-6.7,8.9-6.57,2.83.18,5.77,2.11,5.89,4.42a5.1,5.1,0,0,1-1.74,4.15l-.1.07a2.21,2.21,0,0,1-1.86.9,2.27,2.27,0,1,1,.21-4.53,2.46,2.46,0,0,1,.29.07,2.65,2.65,0,0,0-.14-1.27,2.6,2.6,0,0,0-2.39-1.35c-2.17-.14-4.58,2.48-4.48,4.87C38,37,43.48,46.05,57.18,32.72c2.57-2.49,8.55-7.75,14.25-7.48,9.42.45,11.4,8.56,10.86,11.45-.81,4.2-5.11,6.58-8.82,6.34-2.55-.17-4.55-1-5.2-2.68a3.81,3.81,0,0,1,3.59-5.26h.26a1.75,1.75,0,0,1,.71.23,2.25,2.25,0,0,1-.9,4.36,2.11,2.11,0,0,1-1-.29c1.16,3.69,7.67,1.94,8.06-2.22.56-5.94-5.92-7.85-7.57-8-11.91-1.36-18,12.42-26.61,13.19,0,0-5.92.79-9.22-2.4A8.3,8.3,0,0,1,33.25,32.62Z"/><path class="cls-4" d="M61.86,39.06c2.08,4.3-1,8.47-2.34,9.28-2,1.21-4.94,1.14-6.27-.59a5.17,5.17,0,0,1-1.08-4,.3.3,0,0,0,0-.1,1.77,1.77,0,0,1,.75-1.57,2.15,2.15,0,0,1,2.3,3.58,1,1,0,0,1-.23.08,2.92,2.92,0,0,0,.77.91,2,2,0,0,0,2.31-.1c1.51-.92,1.69-4.08.34-5.87C56.42,38,48.82,34.71,47,51.48c-.36,3.14-2.43,8.92-6.34,11.43-6.46,4.14-12.14-1.16-13.34-3.64a7.14,7.14,0,0,1,2.41-9.07c1.78-1.08,3.57-1.36,4.89-.42s2.77,4,.45,5.76l-.17.12a1,1,0,0,1-.59.16,2.08,2.08,0,0,1-2.16-1,2,2,0,0,1,.4-2.79,1.72,1.72,0,0,1,.79-.23c-2.75-2.28-6.11,2.15-4.13,5.55,2.84,4.83,8.14,3.21,9.33,2.56C47.09,55.3,43.72,41.79,49,37.11c0,0,3.49-3.41,7.38-2.54A8.58,8.58,0,0,1,61.86,39.06Z"/><path class="cls-4" d="M5.18,71.07a6.07,6.07,0,0,1-3.53-9.56,7.64,7.64,0,0,1,5.91-3.4c3.11-.2,7.9.31,10.22-1.92-1.09,0-2.88.45-4.6-.41C9.56,54,7.12,48.78,7,48.55a1.2,1.2,0,0,1,.13-1.16,1.16,1.16,0,0,1,1.05-.48A28.33,28.33,0,0,1,16,48.66a7.75,7.75,0,0,1,4.28,4.57,13.79,13.79,0,0,0,2-1.1,4.22,4.22,0,0,0,1.43-1.6c-3-.88-7.71-2.73-10.18-6.14C10.6,40.31,11,34,11,33.71a1.34,1.34,0,0,1,.5-.89,1.19,1.19,0,0,1,1-.16c.3.09,7.46,2.3,10.06,5.64,2.36,3,3.16,7,3.54,10.4.47.12,1.93.54,1.94.54,3.09.49,6.68.32,6.56,1s-4,1.35-8.12,1a2.54,2.54,0,0,1-.46-.1A6.25,6.25,0,0,1,23.71,54a13.43,13.43,0,0,1-3.3,1.69,3.33,3.33,0,0,1-.16.51C18.9,59.65,7.82,60.46,7.71,60.47A5.32,5.32,0,0,0,3.6,62.83a3.94,3.94,0,0,0-.67,3.3A3.91,3.91,0,0,0,5.6,68.74a2.9,2.9,0,0,0,2.17-.63c.48-.58-.68-2-.83-2a1.18,1.18,0,0,1-.65-1.53,1.2,1.2,0,0,1,1.55-.66,3.7,3.7,0,0,1,2.1,2.31,3.93,3.93,0,0,1-1.06,3.5,4,4,0,0,1-.76.72A3.71,3.71,0,0,1,5.18,71.07Zm8.5-17c1.15.48,3.48.27,4.87,0a6.65,6.65,0,0,0-3.11-3.78c-1.44-.65-3.28-.15-4.76-.38C11.6,51.53,12.11,53.45,13.68,54.11Zm1.93-10.45c1.88,2.59,5.69,3.86,8.36,4.72-.38-2.82-1-6.13-2.84-8.45-1.41-1.82-4.71-2.69-7.07-3.57C14.14,38.31,14,41.39,15.61,43.66Z"/><path class="cls-4" d="M140.2,32.62c-.94-5-7-6.7-8.9-6.57-2.83.18-5.78,2.11-5.89,4.42a5.07,5.07,0,0,0,1.74,4.15l.09.07a2.23,2.23,0,0,0,1.87.9,2.27,2.27,0,0,0-.22-4.53,2.29,2.29,0,0,0-.28.07,2.64,2.64,0,0,1,.13-1.27,2.61,2.61,0,0,1,2.4-1.35c2.16-.14,4.57,2.48,4.48,4.87-.14,3.57-5.66,12.67-19.35-.66C113.7,30.23,107.71,25,102,25.24c-9.42.45-11.4,8.56-10.86,11.45.81,4.2,5.1,6.58,8.82,6.34,2.54-.17,4.54-1,5.2-2.68a3.82,3.82,0,0,0-3.6-5.26h-.26a1.7,1.7,0,0,0-.7.23,2.26,2.26,0,0,0-1.48,2.2,2.28,2.28,0,0,0,2.37,2.16,2.11,2.11,0,0,0,1-.29c-1.16,3.69-7.66,1.94-8.06-2.22-.55-5.94,5.93-7.85,7.58-8,11.91-1.36,18,12.42,26.61,13.19,0,0,5.91.79,9.21-2.4A8.29,8.29,0,0,0,140.2,32.62Z"/><path class="cls-4" d="M111.59,39.06c-2.08,4.3,1,8.47,2.33,9.28,2,1.21,5,1.14,6.28-.59a5.19,5.19,0,0,0,1.07-4,.44.44,0,0,0,0-.1,1.74,1.74,0,0,0-.74-1.57,2.15,2.15,0,0,0-2.31,3.58,1.13,1.13,0,0,0,.24.08,3,3,0,0,1-.78.91,2,2,0,0,1-2.31-.1c-1.51-.92-1.69-4.08-.34-5.87,2-2.69,9.61-5.95,11.48,10.82.35,3.14,2.42,8.92,6.34,11.43,6.46,4.14,12.13-1.16,13.33-3.64a7.12,7.12,0,0,0-2.41-9.07c-1.77-1.08-3.56-1.36-4.88-.42s-2.78,4-.46,5.76l.18.12a1,1,0,0,0,.58.16,2.08,2.08,0,0,0,2.16-1,2,2,0,0,0-.4-2.79,1.72,1.72,0,0,0-.78-.23c2.74-2.28,6.1,2.15,4.12,5.55-2.83,4.83-8.14,3.21-9.33,2.56-8.59-4.62-5.22-18.13-10.47-22.81,0,0-3.48-3.41-7.38-2.54A8.58,8.58,0,0,0,111.59,39.06Z"/><path class="cls-4" d="M165.61,70.42a4.64,4.64,0,0,1-1.82-4.22,3.7,3.7,0,0,1,2.1-2.31,1.2,1.2,0,0,1,1.55.66,1.18,1.18,0,0,1-.65,1.53c-.15.07-1.31,1.45-.84,2a2.93,2.93,0,0,0,2.18.63,3.71,3.71,0,0,0,2-5.91A5.32,5.32,0,0,0,166,60.47c-.11,0-11.19-.82-12.54-4.23a3.33,3.33,0,0,1-.16-.51A13.25,13.25,0,0,1,150,54a6.25,6.25,0,0,1-2.35-2.93,3,3,0,0,1-.46.1c-4.16.35-8-.35-8.12-1s3.47-.48,6.56-1c0,0,1.47-.42,1.94-.54.38-3.36,1.18-7.36,3.54-10.4,2.6-3.34,9.76-5.55,10.06-5.64a1.19,1.19,0,0,1,1,.16,1.34,1.34,0,0,1,.5.89c0,.27.42,6.6-2.54,10.68C157.7,47.8,153,49.65,150,50.53a4.22,4.22,0,0,0,1.43,1.6,13.79,13.79,0,0,0,2,1.1,7.75,7.75,0,0,1,4.28-4.57,28.33,28.33,0,0,1,7.82-1.75,1.16,1.16,0,0,1,1,.48,1.2,1.2,0,0,1,.13,1.16c-.09.23-2.53,5.43-6.16,7.23-1.71.86-3.51.39-4.59.41,2.32,2.23,7.11,1.72,10.22,1.92a7.64,7.64,0,0,1,5.91,3.4,6.07,6.07,0,0,1-3.53,9.56A3.71,3.71,0,0,1,165.61,70.42ZM163.05,50c-1.48.23-3.33-.27-4.77.38a6.67,6.67,0,0,0-3.1,3.78c1.39.24,3.72.45,4.87,0C161.62,53.45,162.13,51.53,163.05,50Zm-3.38-13.62c-2.36.88-5.66,1.75-7.07,3.57-1.8,2.32-2.46,5.63-2.84,8.45,2.67-.86,6.48-2.13,8.36-4.72C159.77,41.39,159.59,38.31,159.67,36.36Z"/><path class="cls-4" d="M91.46,96.16a11.79,11.79,0,0,0,1.59-2.24,5.08,5.08,0,0,0,.84-2.21q0-.78-.6-.78a19.07,19.07,0,0,0-2.75.65c-1.55.44-3.2.94-5,1.52q-.11,4.14-.11,6.8a12.53,12.53,0,0,0,.26,2.91,2.29,2.29,0,0,0,1.2,1.52,6.47,6.47,0,0,0,2.91.5,19.51,19.51,0,0,0,4-.63,12.13,12.13,0,0,1,2.28-.41,3.72,3.72,0,0,1,1.81.43,1.24,1.24,0,0,1,.81,1.06q0,1-2.13,1.38a32.91,32.91,0,0,1-6,.56,9.74,9.74,0,0,1-4.58-.84A4.07,4.07,0,0,1,84,104a15.56,15.56,0,0,1-.48-4.37c0-1.17,0-3.1.07-5.79a42,42,0,0,0-4.26,1.68,9.27,9.27,0,0,0-1.35.78l-.46.27a5.81,5.81,0,0,1-.56.28,1.39,1.39,0,0,1-.47.09A4.44,4.44,0,0,1,75,96.5a7.5,7.5,0,0,1-1.76-1c-.51-.4-.77-.77-.77-1.12a.23.23,0,0,1,.26-.26,5.21,5.21,0,0,1,.86.22,5.23,5.23,0,0,0,1.57.22q1.83,0,8.45-2.16V91.23c0-2.64,0-4.13-.07-4.45a7.23,7.23,0,0,0-.25-1.21,1.67,1.67,0,0,0-.58-.77,1.48,1.48,0,0,0-.52-.36,1.72,1.72,0,0,1-.37-.16.26.26,0,0,1-.12-.23c0-.27.22-.5.66-.67a3.3,3.3,0,0,1,1.29-.26,3.62,3.62,0,0,1,2,.74c.72.5,1.08,1,1.08,1.46a3.45,3.45,0,0,1-.3,1A8.53,8.53,0,0,0,86,87.75c-.1.58-.2,1.91-.3,4,.54-.17,1.07-.32,1.57-.45s.94-.25,1.34-.37a34.33,34.33,0,0,0,4.08-1.2q.25-.11.69-.33a4.17,4.17,0,0,1,.73-.32,1.87,1.87,0,0,1,.56-.09,4.78,4.78,0,0,1,1.42.57,11.57,11.57,0,0,1,2,1.33A2,2,0,0,1,99,92.27a.47.47,0,0,1-.22.42,4.06,4.06,0,0,1-.82.33l-.79.3c-.32.15-.73.37-1.23.67q-1.45.95-4.19,2.47a2.83,2.83,0,0,1-.6.3c-.05,0-.07,0-.07-.08S91.19,96.44,91.46,96.16Z"/><path class="cls-4" d="M92.18,115.82a1.47,1.47,0,0,1,.44.92.44.44,0,0,1-.08.31,1.34,1.34,0,0,1-.31.21l-.26.18a1.62,1.62,0,0,0-.42.41A44.74,44.74,0,0,1,87.49,123a14,14,0,0,1,1.33.65.92.92,0,0,1,.49.84,3.5,3.5,0,0,1-.16.88,10.23,10.23,0,0,0-.23,1.49l0,4.28q0,4.8.16,6.2a10.31,10.31,0,0,1,.1,1.39c0,1.08-.33,1.62-1,1.62a1.27,1.27,0,0,1-1.12-.52,2.5,2.5,0,0,1-.38-1.49c0-1.12,0-2.24.1-3.34,0-1.38.07-2.41.07-3.08l0-5.32a3.84,3.84,0,0,0-.52-2.3,38.15,38.15,0,0,1-10.44,7.65,1.51,1.51,0,0,1-.61.2c-.18,0-.26-.05-.26-.13s.21-.37.64-.65a59.66,59.66,0,0,0,7.27-6.15,38.53,38.53,0,0,0,4.75-5.58c1.09-1.63,1.64-2.76,1.64-3.39a1.42,1.42,0,0,0-.33-1,2.52,2.52,0,0,0-.29-.26c-.11-.09-.16-.15-.16-.19s.16-.26.49-.26a4.78,4.78,0,0,1,2.23.55A3,3,0,0,1,92.18,115.82Z"/><path class="cls-4" d="M96.81,148A11.19,11.19,0,0,1,99,149c.64.4,1,.82,1,1.27a.92.92,0,0,1-.24.65,4.75,4.75,0,0,1-.67.57,2.17,2.17,0,0,0-.79.87,39.83,39.83,0,0,0-1.08,4c-.44,1.88-.85,3.8-1.25,5.74,1.63.16,2.45.67,2.45,1.54,0,.26-.19.49-.57.67a3.57,3.57,0,0,1-1.56.28l-1.15-.08-1.75-.1c-.81,0-1.48-.06-2-.06A39.31,39.31,0,0,0,79.8,166a2.09,2.09,0,0,1-.55.08,3,3,0,0,1-1.54-.47,5.07,5.07,0,0,1-1.32-1.15,2.12,2.12,0,0,1-.53-1.26c0-.45.12-.67.35-.67a.92.92,0,0,1,.36.12,5.87,5.87,0,0,0,1.28.57,6.57,6.57,0,0,0,1.76.18,31.1,31.1,0,0,0,3.78-.4l3.48-.43c2-.24,4.38-.38,7-.44.26-1.36.51-3,.73-5a44.08,44.08,0,0,0,.34-4.75,3.27,3.27,0,0,0-.16-1.25c-.11-.19-.37-.29-.79-.29-.69,0-2,.18-3.81.37s-3.79.43-5.8.69a27.77,27.77,0,0,0-4.08.75,8.7,8.7,0,0,1-2.41.52,2.36,2.36,0,0,1-1.52-.5,4.88,4.88,0,0,1-1.2-1.75,1.23,1.23,0,0,1-.16-.55c0-.21.13-.32.39-.32a2,2,0,0,1,.6.12,7.06,7.06,0,0,0,1.77.27c1.32,0,3.91-.15,7.79-.47a41.83,41.83,0,0,0,7-.91,5.54,5.54,0,0,0,1.36-.67,5.78,5.78,0,0,1,.57-.39,1.36,1.36,0,0,1,.75-.4A6.25,6.25,0,0,1,96.81,148Z"/><path class="cls-4" d="M96.85,188.35l.29-.41a3.91,3.91,0,0,1,.35-.43.41.41,0,0,1,.28-.15,3.83,3.83,0,0,1,1.34.88,5.35,5.35,0,0,1,1.3,1.33.43.43,0,0,1,0,.17.44.44,0,0,1-.24.38,1.17,1.17,0,0,1-.61.15H84c-.44,1-.79,1.83-1.06,2.34h9.47l.66-.59.41-.38a.79.79,0,0,1,.48-.25c.18,0,.52.24,1,.71a4,4,0,0,1,1,1.17.23.23,0,0,1-.1.33,1.14,1.14,0,0,1-.49.18,4.91,4.91,0,0,1-.73.05,19.52,19.52,0,0,1-4.85,3.89,45.1,45.1,0,0,0,11,1.69.28.28,0,0,1,.2.06.19.19,0,0,1,.07.14.42.42,0,0,1-.23.23,2.09,2.09,0,0,0-1.39,1.68c-.07.18-.18.25-.33.23a50.2,50.2,0,0,1-6.4-1.14,23.05,23.05,0,0,1-5-1.83,38,38,0,0,1-10.8,2.87h-.06c-.11,0-.19-.06-.23-.2l0-.06,0-.13c0-.09.08-.16.23-.2a38,38,0,0,0,9.44-3.17,14.12,14.12,0,0,1-4.06-4,19,19,0,0,1-9.83,7.72c-.18.06-.3,0-.36-.1a.12.12,0,0,1,0-.1c0-.09.06-.16.17-.23a18.57,18.57,0,0,0,9.63-10.92H77.94a34.12,34.12,0,0,0-4.72.43h-.1a.27.27,0,0,1-.23-.17l-.59-1.15a.18.18,0,0,1,0-.14c0-.11.08-.16.23-.16,1.21.11,2.55.19,4,.23H82a14,14,0,0,0,.53-3c0-.18.13-.25.33-.23,1.85.46,2.77.81,2.77,1q0,.14-.3.27l-.59.26c-.11.46-.26,1-.46,1.62H96.15ZM86,180.86l.37-.43a.67.67,0,0,1,.46-.29,2.67,2.67,0,0,1,1.14.66,4.08,4.08,0,0,1,1,1,.43.43,0,0,1,0,.17.45.45,0,0,1-.23.38,1,1,0,0,1-.56.15H80a22.91,22.91,0,0,1-2.15,2.63l6.77-.46A10.39,10.39,0,0,0,83,183.4c-.18-.11-.21-.22-.1-.33a.37.37,0,0,1,.36-.13,7.41,7.41,0,0,1,3.45,1.32,2.51,2.51,0,0,1,1.14,1.85,1.1,1.1,0,0,1-.23.73.83.83,0,0,1-.63.26,1.23,1.23,0,0,1-.43-.1.26.26,0,0,1-.23-.23,5.33,5.33,0,0,0-1-1.35q-4.33.86-10,1.74a2.21,2.21,0,0,1-.46.6.15.15,0,0,1-.1,0,.25.25,0,0,1-.26-.16l-1.16-1.92,0-.13a.18.18,0,0,1,.2-.2l3.13-.13q.43-1,1-2.7H75.89a13.11,13.11,0,0,0-2.87.39c-.18,0-.29,0-.33-.13l-.59-1.12,0-.13c0-.16.09-.21.27-.17a23.89,23.89,0,0,0,2.51.2h1.32v-2.77a46.49,46.49,0,0,0-.37-6.41v-.06c0-.18.09-.23.27-.17l2.44,1.06h5.94l.56-.76.35-.45c.16-.2.31-.31.44-.31a2.63,2.63,0,0,1,1.14.69,3.91,3.91,0,0,1,1,1.13.92.92,0,0,1,0,.33.75.75,0,0,1-.73.36H78.1V176h5.71l.46-.6a3.69,3.69,0,0,0,.32-.36.58.58,0,0,1,.41-.26,2.11,2.11,0,0,1,1,.56,2.78,2.78,0,0,1,.88,1l0,.14c0,.37-.26.56-.79.56h-8v1.78h5.84l.47-.59c.06-.07.17-.19.31-.37a.58.58,0,0,1,.41-.26,2.18,2.18,0,0,1,1,.54A2.82,2.82,0,0,1,87,179a.62.62,0,0,1,0,.33.74.74,0,0,1-.73.37H78.1v1.88h7.36ZM82.89,193.6A13.9,13.9,0,0,0,87.81,197,16.52,16.52,0,0,0,92,193.6Zm15.44-13.07,1.22,1c.73.35,1.09.62,1.09.79s-.13.16-.39.2l-.56,0a25.59,25.59,0,0,1-10.83,4.29h-.1c-.09,0-.16-.06-.23-.17l-.06-.13s0-.07,0-.13.07-.18.2-.2a33.36,33.36,0,0,0,4.26-1.65,19.65,19.65,0,0,0,2.8-1.83A13.72,13.72,0,0,0,98,180.56.21.21,0,0,1,98.33,180.53Zm-1.15-9.24,1.09,1.09c.66.38,1,.65,1,.83s-.12.16-.37.16l-.56,0a34.81,34.81,0,0,1-4.4,1.93,48.67,48.67,0,0,1-4.94,1.5.19.19,0,0,1-.13,0,.23.23,0,0,1-.23-.16l-.1-.13a.34.34,0,0,1,0-.22c0-.08.06-.12.15-.15,1.32-.55,2.24-.94,2.77-1.19a27.24,27.24,0,0,0,3-1.73,16.08,16.08,0,0,0,2.42-1.93A.25.25,0,0,1,97.18,171.29Zm.31,4.51a.3.3,0,0,1,.18.08l1.09,1.05c.66.36,1,.62,1,.8s-.12.2-.36.2h-.56a23.84,23.84,0,0,1-4.23,1.88,40.93,40.93,0,0,1-4.91,1.35h-.1a.27.27,0,0,1-.23-.17l-.1-.16,0-.13a.23.23,0,0,1,.17-.23c.72-.25,1.55-.57,2.47-1a22.17,22.17,0,0,0,3-1.67,14.56,14.56,0,0,0,2.46-2A.16.16,0,0,1,97.49,175.8Z"/><path class="cls-4" d="M73.47,222.91a.16.16,0,0,1,.21,0l1.49.52c.79.14,1.18.3,1.18.5s-.12.22-.36.33l-.56.26a28.35,28.35,0,0,1-1.49,4.08A18.6,18.6,0,0,1,72,231.94a.24.24,0,0,1-.36.06l-.1,0a.25.25,0,0,1-.13-.36c.15-.31.4-.94.76-1.88a23.82,23.82,0,0,0,.82-3.35,21.69,21.69,0,0,0,.36-3.25A.29.29,0,0,1,73.47,222.91Zm8.13-4.44a18.54,18.54,0,0,0-1.55-2.8c-.11-.15-.09-.26.07-.33a.39.39,0,0,1,.39,0,9.15,9.15,0,0,1,2.86,2.52,4.46,4.46,0,0,1,.9,2.4,1.67,1.67,0,0,1-.28,1,.8.8,0,0,1-.67.39,1.41,1.41,0,0,1-.7-.26.84.84,0,0,1-.16-.33,19.91,19.91,0,0,0-.56-2l-2.81.63v6.4q.07,4.13.27,7.56a.49.49,0,0,1-.13.33,2.48,2.48,0,0,1-1.82.69.6.6,0,0,1-.41-.21.64.64,0,0,1-.22-.45c.09-1.3.17-2.56.23-3.78s.11-2.82.14-4.8v-5.31l-3.67.72a1,1,0,0,1-.53.6.12.12,0,0,1-.09,0,.25.25,0,0,1-.24-.16l-.75-1.92,0-.13c0-.11.08-.17.23-.17l2.71-.13q1.52-2.37,2.74-4.49c.53-.94,1-1.94,1.52-3a24.26,24.26,0,0,0,1.12-2.84c.07-.19.19-.24.36-.13,1.76.86,2.64,1.43,2.64,1.72,0,.06-.12.14-.36.23l-.63.13c-.86,1.28-1.87,2.67-3,4.19s-2.31,2.89-3.44,4.13Zm-6.83-7.95a32.13,32.13,0,0,0,1.44-3.1,20.64,20.64,0,0,0,1-3c0-.2.14-.24.36-.13,1.74.9,2.61,1.49,2.61,1.78,0,.09-.1.15-.3.2l-.56.13a54,54,0,0,1-4,4.95,4.09,4.09,0,0,1,1,1.17,2.26,2.26,0,0,1,.35,1.14,1.17,1.17,0,0,1-.26.79.85.85,0,0,1-.66.3,1.16,1.16,0,0,1-.63-.17.43.43,0,0,1-.2-.26,7.13,7.13,0,0,0-1.14-2.08,12.53,12.53,0,0,0-1.79-2c-.14-.13-.15-.25,0-.36a.45.45,0,0,1,.43-.07,9.31,9.31,0,0,1,2.21,1Zm5.84,12.66a.31.31,0,0,1,.13-.15.31.31,0,0,1,.37,0,9.59,9.59,0,0,1,2.45,2.66,5,5,0,0,1,.78,2.46,2.11,2.11,0,0,1-.3,1.18.87.87,0,0,1-.76.47,1.22,1.22,0,0,1-.72-.3.44.44,0,0,1-.13-.33,10,10,0,0,0-.57-2.87,21,21,0,0,0-1.22-3A.21.21,0,0,1,80.61,223.18Zm17.26-14c.09-.11.18-.24.28-.39a2.22,2.22,0,0,1,.31-.4.45.45,0,0,1,.3-.16c.18,0,.61.28,1.3.86a5.21,5.21,0,0,1,1.28,1.32.91.91,0,0,1,0,.33.8.8,0,0,1-.76.36H93.12V217h3.46l.66-1c.09-.11.18-.24.28-.39a2.24,2.24,0,0,1,.32-.4.45.45,0,0,1,.29-.16,3.57,3.57,0,0,1,1.29.84,5.24,5.24,0,0,1,1.26,1.3.54.54,0,0,1,0,.33.78.78,0,0,1-.76.36H90.11a37.38,37.38,0,0,0-4.71.43h-.1a.26.26,0,0,1-.23-.16l-.6-1.12a.24.24,0,0,1,0-.14c0-.11.09-.16.26-.16,1.19.11,2.52.19,4,.23H91v-5.84H88.7a25.13,25.13,0,0,0-4,.43h-.1a.3.3,0,0,1-.23-.17l-.59-1.15a.21.21,0,0,1,0-.13c0-.11.07-.17.23-.17,1.21.11,2.55.19,4,.23h3a41,41,0,0,0-.3-5.28v-.06c0-.18.1-.24.3-.17a15.79,15.79,0,0,1,2.23.76c.4.2.61.37.61.53s-.09.16-.27.29l-.49.33v3.6h4.09Zm-10,24.66c0,.13-.16.27-.46.42a2.6,2.6,0,0,1-1.19.24.46.46,0,0,1-.38-.2.75.75,0,0,1-.15-.46c.11-1,.19-2.31.23-4v-2.31a46.71,46.71,0,0,0-.36-6.41v-.06c0-.16.09-.2.26-.14l2.44,1.06h8.49l.46-.63a2.24,2.24,0,0,0,.23-.29,1,1,0,0,1,.23-.28.32.32,0,0,1,.23-.09,2.66,2.66,0,0,1,1.11.61,3.41,3.41,0,0,1,1,1q.1.13-.06.3a1.9,1.9,0,0,1-1.09.43v3.5q.09,4.35.23,6.56a.49.49,0,0,1-.13.34,2.12,2.12,0,0,1-.75.49,2.79,2.79,0,0,1-1.07.2.35.35,0,0,1-.28-.15.69.69,0,0,1-.15-.35l0-.33.09-.49v-.66h-9Zm0-10.86v8.25h9V223Z"/><path class="cls-4" d="M97,241.24l.33-.44a5.29,5.29,0,0,1,.38-.47.41.41,0,0,1,.28-.15c.2,0,.67.32,1.4.95a5.26,5.26,0,0,1,1.34,1.43.92.92,0,0,1,0,.33.78.78,0,0,1-.76.36H77.31v7.07A57.61,57.61,0,0,1,77,256.6a23.87,23.87,0,0,1-1.4,5.75,15,15,0,0,1-3.27,5.13.21.21,0,0,1-.36,0l0,0c-.13-.14-.15-.26-.06-.37a20.09,20.09,0,0,0,2.75-7.42,57.81,57.81,0,0,0,.68-9.34v-4.59a35.91,35.91,0,0,0-.23-4.35v-.07c0-.09,0-.14.06-.16s.11,0,.2,0l2.38,1h8.41a38.24,38.24,0,0,0-.26-4.58c0-.22.11-.3.33-.23a18.15,18.15,0,0,1,2.21.74q.63.28.63.51t-.3.36l-.56.37v2.83h8.12ZM95.73,255.6l.23-.33a1.36,1.36,0,0,1,.23-.3.29.29,0,0,1,.23-.1c.17,0,.52.23,1,.69a5.13,5.13,0,0,1,1,1.12.24.24,0,0,1-.06.33,2.74,2.74,0,0,1-1,.43v3.17q.1,4,.24,5.94a.45.45,0,0,1-.14.33,2.64,2.64,0,0,1-1.84.7c-.22,0-.36-.17-.4-.5a1.55,1.55,0,0,1,0-.33,1.32,1.32,0,0,0,0-.23c0-.09,0-.2,0-.33v-.73H81.93v1.59c0,.13-.17.27-.51.43a2.87,2.87,0,0,1-1.17.23.46.46,0,0,1-.38-.2.75.75,0,0,1-.15-.46c.09-.93.15-2.08.2-3.47V261.5a45.91,45.91,0,0,0-.33-6v-.07c0-.17.09-.23.26-.16l2.41,1h4.92v-5.38a49.58,49.58,0,0,0-.37-6.43v-.07c0-.17.1-.23.3-.16a18.58,18.58,0,0,1,2.31.76c.44.19.66.37.66.52s-.1.22-.3.33l-.56.37v3.3h6.84l.69-1,.33-.43a3.68,3.68,0,0,1,.33-.41.43.43,0,0,1,.29-.19c.18,0,.62.31,1.32.91a5.2,5.2,0,0,1,1.29,1.4.61.61,0,0,1,0,.33.85.85,0,0,1-.79.33H89.22v5.81h6Zm-.37,8.87v-7.19H81.93v7.19Z"/><line class="cls-5" x1="57.75" y1="94.61" x2="57.75" y2="269.54"/><line class="cls-5" x1="115.69" y1="94.61" x2="115.69" y2="269.54"/><path class="cls-4" d="M37,259.14a15.78,15.78,0,0,1-.32-2.2c0-5.25,0-10.49-.09-15.74-.06-10.49-.2-21-.21-31.47,0-18.74,0-37.48,0-56.22,0-1-.16-1.95-.21-2.92s-1.05-1.31-1.62-1.93c-.06-.07-.49.06-.58.2a4,4,0,0,0-.58,1.28,39,39,0,0,0-.58,8.35c.09,14.24.11,28.49.29,42.73.23,18.51.58,37,.88,55.53,0,.37.1.74.08,1.11a2,2,0,0,1-.25.64c-.25-.14-.6-.21-.74-.43a1.68,1.68,0,0,1-.08-.85c-.13-8.63-.24-17.27-.38-25.9q-.37-22.69-.76-45.38l-.54-31.13a13.55,13.55,0,0,1,1.39-7.08c.36-.63-.1-.7-.57-.76a11.1,11.1,0,0,1-7.44-4.15,10.5,10.5,0,0,1-1.76-10.68,13.32,13.32,0,0,1,6.56-7.25,15.17,15.17,0,0,1,3.14-1.3,1.34,1.34,0,0,0,1.13-1.5c0-1.08.18-2.16.22-3.24a2,2,0,0,0-.3-.92,29.54,29.54,0,0,1-1.78-3.13A2.94,2.94,0,0,1,36,111a3.13,3.13,0,0,1,1.59,3.31,17.54,17.54,0,0,1-1.23,3.05,3.32,3.32,0,0,0-.38,1.37c.06,1.16.3,2.31.38,3.47a.94.94,0,0,0,.94,1A11.76,11.76,0,0,1,44,126.52a11,11,0,0,1,2.33,11.79,13.91,13.91,0,0,1-8.91,8.24c-1.1.38-1,.33-.46,1.38a6.8,6.8,0,0,1,.89,2.68c.1,2.59,0,5.19,0,7.78-.11,10.15-.26,20.29-.32,30.44q-.12,17.67-.09,35.34c0,11,.18,21.94.27,32.91a2.21,2.21,0,0,0,.07.78C38,258.49,37.71,258.79,37,259.14Zm-4-129.8a14.11,14.11,0,0,1,.83,1.85c.15.49.31.65.85.65a16,16,0,0,1,2.15.34,2.23,2.23,0,0,0,.44,0,3.79,3.79,0,0,1,2.15-3.5,5.39,5.39,0,0,1,4.31-.26,2.65,2.65,0,0,0-.26-.54,11.61,11.61,0,0,0-4-2.76,10.3,10.3,0,0,0-8.32.26.78.78,0,0,0-.44,1.19A3,3,0,0,0,34.86,128a1.74,1.74,0,0,0,.59-.84s-.32-.42-.47-.39a2.72,2.72,0,0,0-1,.39c-.17.1-.23.36-.34.55l-.32-.06a3.26,3.26,0,0,1,.06-1.09,1.69,1.69,0,0,1,1.85-.93,1.29,1.29,0,0,1,1.23,1,1.52,1.52,0,0,1-.79,1.83A22.54,22.54,0,0,1,33,129.34Zm8.27,9.81L41,139a.63.63,0,0,1,0-.22c.06-.56-.24-.78-.75-.77s-.8.32-.8.86a1.27,1.27,0,0,0,.9,1.26,3.78,3.78,0,0,0,4.53-1.48,8.28,8.28,0,0,0,.37-7.69c0-.07-.16-.1-.3-.2-.39,2.84-1.68,5-4.16,6.07a10.7,10.7,0,0,1,.95,1.56C41.8,138.56,41.44,138.9,41.28,139.15ZM31,128.46a18.1,18.1,0,0,1-1.09-1.73c-.25-.51-.53-.51-.94-.26A10.4,10.4,0,0,0,24,132.91c-.13.51,0,.76.55.86a2.35,2.35,0,0,1,1.94,1.86,8.68,8.68,0,0,0,.78,2c.15.27.63.36,1,.53a2.64,2.64,0,0,0-.71-3.79,3.27,3.27,0,0,1-.54-3.63,3.38,3.38,0,0,1,3.15-2.16C30.39,128.55,30.61,128.51,31,128.46Zm6.59,7.29a4.69,4.69,0,0,0,6-3.94,2,2,0,0,0-1.18-2.2c-1.24-.53-2.45-.45-3.09.35a3.22,3.22,0,0,0-.58,1.57c-.07.66.41,1,1.06,1a7.92,7.92,0,0,0,1.27-.25l.15.14a4.79,4.79,0,0,1-.74.87,2.5,2.5,0,0,1-3,0Zm-4.28,9.73c3.06.77,9.26-1.87,9.79-4.52-1.82.52-3.54.48-4.92-1-.15.18-.2.22-.21.26-.25,1.53-.92,2.69-2.6,3a.34.34,0,0,0-.22.2A2.77,2.77,0,0,1,33.29,145.48ZM39.1,137a9.79,9.79,0,0,0-3.17-.14,21,21,0,0,1-4.36.71,9.4,9.4,0,0,0-2.25.69.6.6,0,0,0-.27.51c0,.13.3.27.48.31a6.26,6.26,0,0,0,4-.47c1-.45,2-1.12,3-.55,1.36.79,2,.23,2.52-.91A.42.42,0,0,0,39.1,137Zm-9.88,7.56c-.18-.85-.37-1.54-.47-2.25-.06-.44.09-.91,0-1.34a8,8,0,0,0-.44-1.33,5.29,5.29,0,0,0-1.12.7c-.4.41-.61,1-1,1.37s-.46.82,0,1.14c.78.57,1.6,1.09,2.43,1.59A1.65,1.65,0,0,0,29.22,144.55Z"/><path class="cls-4" d="M133.44,111.18a17.43,17.43,0,0,1,.32,2.2c.05,5.25.05,10.5.08,15.74.07,10.49.2,21,.22,31.47,0,18.74,0,37.48,0,56.22,0,1,.17,1.95.22,2.93s1,1.3,1.61,1.92c.06.07.5-.06.59-.2a4.21,4.21,0,0,0,.58-1.28,38.9,38.9,0,0,0,.57-8.35c-.08-14.24-.11-28.48-.28-42.73-.23-18.51-.58-37-.88-55.53,0-.37-.1-.74-.08-1.1a2.45,2.45,0,0,1,.24-.65c.26.14.61.22.75.43a1.93,1.93,0,0,1,.08.85c.13,8.64.24,17.27.38,25.91q.38,22.68.76,45.37.27,15.57.54,31.14a13.42,13.42,0,0,1-1.4,7.07c-.35.63.11.7.58.76a11.1,11.1,0,0,1,7.44,4.15,10.52,10.52,0,0,1,1.76,10.68,13.33,13.33,0,0,1-6.56,7.25,15.08,15.08,0,0,1-3.14,1.3,1.34,1.34,0,0,0-1.13,1.5c0,1.08-.18,2.16-.22,3.25a1.85,1.85,0,0,0,.3.91,29.54,29.54,0,0,1,1.78,3.13,2.94,2.94,0,0,1-.91,3.52,2.9,2.9,0,0,1-3.14.27,3.14,3.14,0,0,1-1.6-3.3A18.52,18.52,0,0,1,134.1,253a3.66,3.66,0,0,0,.38-1.37c-.06-1.16-.3-2.31-.38-3.47a.94.94,0,0,0-.94-1,11.81,11.81,0,0,1-6.73-3.3A11,11,0,0,1,124.1,232a13.87,13.87,0,0,1,8.9-8.24c1.1-.39,1-.34.47-1.39a6.49,6.49,0,0,1-.89-2.68c-.1-2.59,0-5.18,0-7.78.11-10.14.26-20.29.32-30.44q.12-17.67.09-35.34c0-11-.18-21.94-.28-32.9a2.05,2.05,0,0,0-.06-.79C132.39,111.83,132.7,111.54,133.44,111.18Zm4,129.8a14.56,14.56,0,0,1-.83-1.84c-.15-.5-.31-.65-.85-.66a16,16,0,0,1-2.15-.34,1.79,1.79,0,0,0-.45,0,3.77,3.77,0,0,1-2.15,3.5,5.4,5.4,0,0,1-4.3.25,2.65,2.65,0,0,0,.26.54,11.51,11.51,0,0,0,4,2.76,10.28,10.28,0,0,0,8.31-.25.79.79,0,0,0,.45-1.2,3.06,3.06,0,0,0-4.16-1.43,1.82,1.82,0,0,0-.6.84c0,.06.33.42.47.4a2.9,2.9,0,0,0,1-.4c.16-.1.23-.36.34-.55l.32.06a3.89,3.89,0,0,1-.06,1.09,1.71,1.71,0,0,1-1.86.93,1.27,1.27,0,0,1-1.22-1,1.48,1.48,0,0,1,.78-1.82A25.53,25.53,0,0,1,137.4,241Zm-8.27-9.81.23.13c0,.08.07.15.06.23-.06.56.24.77.75.77s.8-.33.8-.87a1.27,1.27,0,0,0-.9-1.26,3.79,3.79,0,0,0-4.54,1.49,8.25,8.25,0,0,0-.36,7.68c0,.07.16.11.3.2.39-2.84,1.68-5,4.15-6.07a10.52,10.52,0,0,1-.94-1.55C128.61,231.76,129,231.42,129.13,231.17Zm10.3,10.69a18.1,18.1,0,0,1,1.09,1.73c.25.51.53.52.94.26a10.44,10.44,0,0,0,4.93-6.43c.13-.52,0-.77-.55-.87a2.34,2.34,0,0,1-1.94-1.86,8.68,8.68,0,0,0-.78-2c-.16-.27-.64-.36-1-.53a3.66,3.66,0,0,0-.42.87,3.59,3.59,0,0,0,1.13,2.92,3.27,3.27,0,0,1,.53,3.63,3.34,3.34,0,0,1-3.14,2.16C140,241.77,139.79,241.82,139.43,241.86Zm-6.59-7.29a4.7,4.7,0,0,0-6,3.94,2,2,0,0,0,1.18,2.2c1.24.53,2.45.46,3.08-.35a3.23,3.23,0,0,0,.59-1.57c.07-.66-.41-1-1.06-1a8,8,0,0,0-1.27.26l-.16-.15a5.75,5.75,0,0,1,.74-.87,2.52,2.52,0,0,1,3,0Zm4.28-9.73c-3.06-.77-9.26,1.87-9.79,4.52,1.82-.52,3.54-.47,4.92,1,.14-.19.2-.22.2-.27.26-1.52.93-2.68,2.6-3a.32.32,0,0,0,.23-.19A2.75,2.75,0,0,1,137.12,224.84Zm-5.81,8.49a9.78,9.78,0,0,0,3.17.14,22.4,22.4,0,0,1,4.36-.71,8.78,8.78,0,0,0,2.24-.69.57.57,0,0,0,.27-.51c0-.13-.29-.27-.47-.31a6.3,6.3,0,0,0-4,.47c-.95.45-2,1.12-3,.55-1.37-.78-2-.23-2.52.91A.42.42,0,0,0,131.31,233.33Zm9.87-7.56c.19.85.38,1.55.47,2.26.06.43-.09.9,0,1.34a8.68,8.68,0,0,0,.45,1.33,5.33,5.33,0,0,0,1.12-.71c.4-.41.61-1,1-1.37s.45-.81,0-1.14c-.78-.57-1.61-1.09-2.44-1.59A1.83,1.83,0,0,0,141.18,225.77Z"/></g></g></svg>