<svg width="120" height="120" viewBox="0 0 120 120" fill="none" xmlns="http://www.w3.org/2000/svg">
<path d="M118.477 25.3594C118.5 25.3125 118.547 25.2891 118.57 25.2422C115.102 26.7891 111.422 27.8906 107.602 28.5937C106.664 28.7344 105.727 28.875 104.766 28.9687C108.68 26.5781 111.844 23.1094 113.883 18.9844C114.422 17.9297 114.938 16.8516 115.336 15.7031C115.313 15.7266 115.289 15.7266 115.242 15.75C115.242 15.7031 115.266 15.6797 115.289 15.6328C110.602 18.3984 105.422 20.4141 99.9141 21.5156C95.4844 16.8047 89.2031 13.875 82.2422 13.875C68.8594 13.875 58.0078 24.7266 58.0078 38.1094C58.0078 39.8438 58.2188 41.5078 58.5469 43.1484C58.5703 43.3125 58.5938 43.4766 58.6172 43.6406C41.0156 42.75 25.1719 35.2734 13.4766 23.6016C11.8359 21.9375 10.2422 20.2031 8.76563 18.3516V18.375C8.74219 18.3516 8.71875 18.3281 8.71875 18.3047C6.63281 21.8906 5.4375 26.0391 5.4375 30.4922C5.4375 37.3828 8.34375 43.5703 12.9609 48C13.9219 48.9609 14.9531 49.8516 16.1016 50.6484C12.1641 50.5078 8.48437 49.4297 5.25 47.625C5.25 47.7188 5.25 47.8359 5.25 47.9297C5.25 57.6797 11.0625 66.0469 19.3828 69.8672C21.0234 70.6406 22.7344 71.2969 24.5625 71.6953C22.5703 72.2344 20.4844 72.5156 18.3047 72.5156C17.0391 72.5156 15.8203 72.3984 14.6016 72.2109C14.3437 72.1641 14.0625 72.1406 13.8047 72.0703C13.8047 72.0938 13.8047 72.0938 13.8281 72.0938C13.8047 72.0938 13.7812 72.0938 13.7344 72.0938C16.4297 80.5313 23.625 86.9297 32.4844 88.5469C33.7266 88.7812 34.9922 88.9219 36.2813 88.9687C28.0078 95.4375 17.5781 99.2812 6.25781 99.2812C4.61719 99.2812 3.02344 99.1641 1.42969 99C1.125 98.9531 0.820312 98.9297 0.515625 98.8828C0.5625 98.9062 0.609375 98.9297 0.632813 98.9531C0.585938 98.9531 0.515625 98.9531 0.46875 98.9531C11.1797 105.82 23.9297 109.828 37.5937 109.828C59.3906 109.828 76.3594 100.969 88.0078 88.1953C88.1016 88.0781 88.2187 87.9844 88.3125 87.8672C89.5781 86.4844 90.75 85.0312 91.875 83.5547C92.1563 83.2031 92.4141 82.8516 92.6719 82.5C93.6328 81.1875 94.5234 79.875 95.3906 78.5156C95.7422 77.9766 96.0703 77.4375 96.3984 76.875C97.1719 75.5859 97.875 74.2969 98.5547 72.9609C98.8594 72.3516 99.1875 71.7656 99.4687 71.1328C100.148 69.7266 100.758 68.2969 101.344 66.8438C101.531 66.3516 101.742 65.8828 101.93 65.3906C102.586 63.6328 103.172 61.875 103.687 60.0937C103.734 59.9531 103.781 59.8125 103.805 59.6719C105.586 53.4375 106.5 47.0625 106.5 40.8984C106.5 39.8438 106.477 38.8125 106.43 37.7578C110.18 35.0391 113.531 31.7812 116.367 28.125C117.117 27.1875 117.844 26.25 118.547 25.2656C118.547 25.3359 118.523 25.3594 118.477 25.3594Z" fill="#3D4035"/>
</svg>
