<svg width="120" height="120" viewBox="0 0 120 120" fill="none" xmlns="http://www.w3.org/2000/svg">
<path d="M85.0838 0H34.9163C16.1867 0 1.00342 15.1833 1.00342 33.9129V86.0871C1.00342 104.817 16.1867 120 34.9163 120H85.0836C103.813 120 118.996 104.817 118.996 86.0871V33.9129C118.997 15.1833 103.813 0 85.0838 0ZM13.0435 33.9129C13.0435 21.8517 22.8551 12.0401 34.9163 12.0401H85.0836C97.1447 12.0401 106.956 21.8517 106.956 33.9129V86.0871C106.956 98.1483 97.1447 107.96 85.0836 107.96H34.9163C22.8551 107.96 13.0435 98.1483 13.0435 86.0871V33.9129Z" fill="#3D4035"/>
<path d="M60.0002 90.9028C77.04 90.9028 90.903 77.04 90.903 60.0002C90.903 42.9604 77.04 29.0967 60.0002 29.0967C42.9607 29.0967 29.0977 42.9604 29.0977 60.0002C29.0977 77.04 42.9605 90.9028 60.0002 90.9028ZM60.0002 38.7288C71.7291 38.7288 81.2707 48.2711 81.2707 60.0002C81.2707 71.7293 71.7291 81.2716 60.0002 81.2716C48.2716 81.2716 38.7298 71.7293 38.7298 60.0002C38.7298 48.2711 48.2714 38.7288 60.0002 38.7288Z" fill="#3D4035"/>
<path d="M91.8065 35.1179C95.6301 35.1179 98.7297 32.018 98.7297 28.1942C98.7297 24.3703 95.6301 21.2705 91.8065 21.2705C87.9829 21.2705 84.8833 24.3703 84.8833 28.1942C84.8833 32.018 87.9829 35.1179 91.8065 35.1179Z" fill="#3D4035"/>
</svg>
