<svg xmlns="http://www.w3.org/2000/svg" viewBox="0 0 200 155.74"><defs><style>.cls-1{fill:#fff;}</style></defs><g id="レイヤー_2" data-name="レイヤー 2"><g id="レイヤー_1-2" data-name="レイヤー 1"><path class="cls-1" d="M56.52,37.59c2.3-.76,4.22-1.93,6.09-1.85,1.6.07,3.87,1.19,4.55,2.51,1.13,2.21.2,4.56-2.11,6a10.49,10.49,0,0,1-16.16-7.72C47.38,23.28,59.54,12.48,73,15.12c1.07.21,2.14.47,3.49.76.78-1.74,1.39-3.45,2.28-5C82.87,3.74,89.42.43,97.33.05c11.14-.52,20.39,2.65,24.78,14.27.27.7,2.67,1.08,3.92.84A20.81,20.81,0,0,1,150.29,30c2.48,9.44-2.74,16.33-11.81,15.52a10.65,10.65,0,0,1-2.85-.66,5.44,5.44,0,0,1-3.47-6.79c1.1-3.2,3.83-2.67,6.18-2.27,1.47.26,2.82,1.28,4.53,2.1,1.59-4.19,1.34-8.22-1.58-11.38-6.82-7.39-15-6.36-23.28-2.75-2.8-10.85-7.8-15.14-17.59-15.3-11-.17-16,3.75-19.28,15.18-8.87-3.55-17.47-4.65-24.2,4.05A8.8,8.8,0,0,0,56.52,37.59Z"/><path class="cls-1" d="M76.66,139.86c-3,.21-5.71.56-8.39.54A19.2,19.2,0,0,1,49,118.49a10.53,10.53,0,0,1,16.44-7.16c2,1.39,2.76,5.11,1.51,7-1.09,1.62-5.67,2.11-7.88.78a17.75,17.75,0,0,1-2-1.61c-2.67,3.07-2.24,8.13.91,11.62,4.75,5.24,12.79,6.8,20.06,3.88l3.88-1.59c-.14,5.1,1.36,9.14,5.46,12A21,21,0,0,0,100.62,147c10.48-.47,15.67-5.24,17.06-15.46,8.37,3.66,16.66,4.9,23.58-2.62,2.94-3.2,3.2-7.23,1.7-11.23a41.23,41.23,0,0,1-6,2c-1.93.34-4.53.27-4.63-2.28-.08-2,.58-5,2-6,3.24-2.38,7.26-2,10.87-.33a9,9,0,0,1,5.43,8.15c.73,13.42-10.09,23.06-23.93,21-3.08-.45-4.34.06-5.63,3.1-3.54,8.37-10.77,12-19.38,12.41C89.94,156.3,80.83,152,76.66,139.86Z"/><path class="cls-1" d="M24.44,92c2.82,15,11.32,20.92,21.18,13.7,0-.23.07-.57,0-.65-2.42-1.79-3.1-4.35-1.91-6.82.55-1.14,2.68-2,4.17-2.11a5.84,5.84,0,0,1,6.4,4.48,10.59,10.59,0,0,1-1.1,7.51c-4,5.87-13.3,8.16-21.07,5.91A17.88,17.88,0,0,1,19.21,98.54c-.2-2.06-.68-3-2.85-3.35C5.64,93.49-.33,86.6,0,76.53c.3-8.84,7.43-15.68,17.43-16.72.36,0,.71-.15,1.34-.28.57-5.08,1.78-10,5.76-13.76,7.57-7.21,21.27-6.85,28.29.89,4,4.35,2.38,11.08-3.12,12.34-1.76.4-4.83,0-5.55-1.17-.92-1.48-.2-4.07.07-6.15.09-.68,1-1.26,1.54-1.89-5.29-4.39-13-3.82-17,1.77a24.75,24.75,0,0,0-3.93,10c-.47,2.77-.86,3.82-4,4.13A20.27,20.27,0,0,0,11.73,69a10.62,10.62,0,0,0-.11,17.79C15.21,89.21,19.76,90.18,24.44,92Z"/><path class="cls-1" d="M153.86,105.42c6.13,4.64,13.85,3.78,17.77-2.1,1.72-2.57,3.43-5.78,3.45-8.71,0-4.26,2-4.64,5.31-5,8.62-.84,13.93-7.52,12.22-15-1.12-4.94-6.8-9.24-12.7-9.58-1.33-.08-2.66,0-4.23,0-.63-7.56-1.92-14.6-10-17.44-4-1.42-7.88-.66-11.59,1.88a10,10,0,0,0,.95,1.35c2.21,2.17,2.86,4.64,1,7.23-1.4,1.93-5.27,1.83-7.8.07a7.39,7.39,0,0,1-1.42-10.71c4.63-5.94,13.1-8.3,21.43-6a17.47,17.47,0,0,1,12.49,15.32c.21,2.33,1,3.29,3.26,3.36,8.25.22,16.3,8.33,16,18-.24,9-6.39,15.82-16.36,17.32-1.94.29-2.69.91-2.89,2.9-.79,7.52-4.66,13-11.9,15.34-7.62,2.48-14.83,1.44-20.94-4.24-2.47-2.3-3.83-5.35-2.31-8.27a11.88,11.88,0,0,1,5.85-4.87c1.25-.52,4.29.64,4.86,1.84.7,1.49-.22,3.82-.66,5.73C155.5,104.41,154.6,104.79,153.86,105.42Z"/><path class="cls-1" d="M74.49,66c0,1.06.34,1.4,1.4,1.4a9.23,9.23,0,0,0,3-.51,2.14,2.14,0,0,1,.49-.08,7.16,7.16,0,0,1,1.55.37,1.25,1.25,0,0,1,.89,1c0,.59-.49,1-1.43,1.25a13.54,13.54,0,0,1-3.33.45,6.37,6.37,0,0,1-4.16-1.19c-.64-.61-.72-1.06-.72-4.65,0-.55,0-2.64,0-3.11a27.38,27.38,0,0,0-3.77,1.68.86.86,0,0,1-.42.12,2,2,0,0,1-1.25-.89A3.26,3.26,0,0,1,66,60c0-.08,0-.1.1-.1s.07,0,.3.1a2.29,2.29,0,0,0,.83.19,42.28,42.28,0,0,0,5-.83c0-3,0-3.9-.07-4.29a1.1,1.1,0,0,0-.72-1c-.2-.08-.24-.1-.24-.17s.27-.37.61-.6a2.36,2.36,0,0,1,1-.46,3.12,3.12,0,0,1,1.65.81c1.06.84,1.43,1.28,1.43,1.75a.57.57,0,0,1-.3.49c-.15.08-.37.17-.52.27-.07.37-.1.72-.14,1.16s-.1,1.18-.13,1.48c2-.52,3.06-.84,3.28-.91A2.75,2.75,0,0,0,79.64,57c.37-.42.56-.54.81-.54s.89.34,1.92,1.23C83.65,58.85,84,59.3,84,59.81s-.3.79-1,.89a4.29,4.29,0,0,0-1.9.52c-.66.34-1.72.91-3.59,2-1,.6-1.51.87-1.75,1a.74.74,0,0,1-.3.12.12.12,0,0,1-.12-.12c0-.07.05-.15.2-.3a24.08,24.08,0,0,0,2.83-3.22,4.06,4.06,0,0,0,.81-1.41.22.22,0,0,0-.22-.22,38.59,38.59,0,0,0-4.26,1.08C74.61,61.76,74.49,65.26,74.49,66Z"/><path class="cls-1" d="M99.71,64.68a29.33,29.33,0,0,0,.12,3.06c0,.6,0,1.16,0,1.59a2.75,2.75,0,0,1-.21,1.44,1.18,1.18,0,0,1-1,.65c-.56,0-1-.44-1.37-1.21a7.43,7.43,0,0,1-.46-1.94,1.51,1.51,0,0,1,.09-.53,5.12,5.12,0,0,0,.23-.7,61.62,61.62,0,0,0,.4-7.35l-.63.6a16.72,16.72,0,0,1-5.71,3.58,6.87,6.87,0,0,1-1.41.38c-.07,0-.12,0-.12-.1s.07-.11.42-.28a7.15,7.15,0,0,0,1.29-.8l1.11-.88a24.3,24.3,0,0,0,4.77-6A11.15,11.15,0,0,0,98,54.6a.84.84,0,0,0,.07-.3.46.46,0,0,0-.18-.3,1.37,1.37,0,0,0-.4-.24c-.16,0-.18-.09-.18-.13s.18-.23.44-.35a4.31,4.31,0,0,1,1.55-.46c.46,0,.83.18,1.55.76.92.76,1.2,1.09,1.2,1.43a.8.8,0,0,1-.53.65c-.47.23-.58.4-1.16,1-.37.4-1.3,1.44-1.62,1.78.09.12.09.12.42.37a1.62,1.62,0,0,1,.6,1.18,4.11,4.11,0,0,1,0,.44c0,.4,0,.49,0,.77Z"/><path class="cls-1" d="M127.3,64.65a5.68,5.68,0,0,0,.68.52.92.92,0,0,1,.39.71,1,1,0,0,1-.89,1,1.55,1.55,0,0,1-.26,0,27.14,27.14,0,0,0-4.16-.29,19.49,19.49,0,0,0-6.23,1,1.61,1.61,0,0,1-.79.24,3.24,3.24,0,0,1-2.49-2.36c0-.31.08-.52.21-.52A.38.38,0,0,1,114,65a3.84,3.84,0,0,0,1.49.31c.66,0,1.28-.08,3.51-.31l4.06-.42c.65-.06,1.25-.11,1.8-.19.37-3.71.47-5,.47-5.78s-.13-.87-.52-.87l-.65.06c-1,.07-4.17.49-5.84.81a18.48,18.48,0,0,0-2.78.65,1.72,1.72,0,0,1-.6.16,3.79,3.79,0,0,1-1.88-1.28,1.57,1.57,0,0,1-.4-.95c0-.55.19-1,.37-1s.08,0,.13.1a1.48,1.48,0,0,0,.55.34,4.43,4.43,0,0,0,1.62.24,62.53,62.53,0,0,0,6.5-.53,11.93,11.93,0,0,0,2.06-.28,2.47,2.47,0,0,0,1.21-.58,1.84,1.84,0,0,1,1.05-.47,4.75,4.75,0,0,1,2.17,1.12c.89.66,1.65,1.44,1.65,1.84a.81.81,0,0,1-.29.57,1.77,1.77,0,0,1-.44.29,1.17,1.17,0,0,0-.37.24C128.5,60.41,127.59,63.63,127.3,64.65Z"/><path class="cls-1" d="M74.54,84.58a1.71,1.71,0,0,0,.19-.21c.2-.22.37-.41.56-.65s.43-.4.58-.4c.45,0,1.69,1,1.69,1.39,0,.19-.26.34-.6.34H71.41c.13.07.18.11.18.19s-.11.22-.56.3l-.75,1.14L72,86.61c.49,0,.94,0,1.43-.08a6.63,6.63,0,0,0-.72-1c-.15-.17-.18-.22-.18-.26s.07-.08.13-.08,1.12.23,1.67.38c1.55.45,2.21,1,2.21,1.74,0,.62-.58,1-1.44,1-.66,0-1-.2-1.17-.6s-.24-.67-.28-.78a27.13,27.13,0,0,1-5.2,1.87A1.67,1.67,0,0,0,68,89a1.57,1.57,0,0,1-.6.19c-.24,0-.37-.19-.79-1A4.37,4.37,0,0,1,66,86.76s0-.06.17-.06l.54,0,1.39,0a12,12,0,0,0,.38-1.67c-.85,0-1.73,0-2.59.09-.34-.39-.36-.43-.36-.47s.06-.15.17-.15l1.78,0H68v-2.1c0-2.14,0-2.85,0-3.27,0-.11,0-.15.08-.15a7.1,7.1,0,0,1,.86.12c1,.22,1.63.43,1.8.73h3.06c.66-.88,1.09-1.33,1.33-1.33.53,0,1.9,1,1.9,1.4a.49.49,0,0,1-.53.42H70.69c-.24.18-.26.26-.26,1.14h2.72l.36-.49c.24-.32.35-.43.52-.43.38,0,1.3.81,1.3,1.15,0,.13-.15.24-.38.24H70.43V83.1h2.72l.49-.64c.15-.19.26-.28.41-.28.34,0,1.26.79,1.26,1.09s-.15.3-.41.3H70.43v1Zm-2.36,5.69a11.73,11.73,0,0,0,.5-1.73c.08-.41.08-.43.23-.43a17.08,17.08,0,0,1,2.49.6,15.46,15.46,0,0,0,3.87-1.65,19.62,19.62,0,0,0,3.62-2.63c1.65.66,2.72,1.43,2.72,1.93,0,.34-.24.47-1.11.57-.26.11-.45.2-.58.24a27.58,27.58,0,0,1-8,1.76c.24.1.34.23.34.4a.32.32,0,0,1-.23.3l-.21.09-.2.08-.25.47h5.93l.32-.4.49-.6c.41-.54.68-.77.92-.77a3.83,3.83,0,0,1,1.5.81c.6.45.92.81.92,1.09s-.21.35-.47.35H75.08c-.54.85-.54.85-.75,1.15h3c.79-.88.79-.88,1-.88a2.86,2.86,0,0,1,1.26.56c1,.71,1.29.94,1.29,1.24s-.22.45-.86.62a12.45,12.45,0,0,1-1.65,1.67,28.55,28.55,0,0,0,6,.5H85c.26,0,.3,0,.3.08s0,.09-.21.22A6.35,6.35,0,0,0,83.21,98c-.21.5-.32.56-.9.56a9.65,9.65,0,0,1-6.06-1.88,14.41,14.41,0,0,1-7.32,1.73,17.81,17.81,0,0,1-2.72-.21c-.21,0-.23-.07-.23-.13S66,98,66.13,98h.12A15.11,15.11,0,0,0,70,97.49a10.6,10.6,0,0,0,5-2.63,6.45,6.45,0,0,1-.92-2.49H74a12.63,12.63,0,0,1-5.1,4.28,13,13,0,0,1-2.82.93c-.07,0-.11,0-.11-.09s0-.11.19-.17A10.77,10.77,0,0,0,69.34,95,13.84,13.84,0,0,0,72,90.75H67.71c-.51,0-1,0-1.54,0-.34-.37-.37-.41-.37-.45s.07-.15.18-.15c.4,0,1,.08,1.22.08Zm2.27,2.1.18.32a3.58,3.58,0,0,0,1.3,1.37,7,7,0,0,0,1.24-1.69ZM82.36,81a32.36,32.36,0,0,1-5.87,1.54l-.37,0-.27,0c-.13,0-.2,0-.2-.06s0-.11.13-.15a14.63,14.63,0,0,0,4.71-3.88c1.91.75,3,1.44,3,1.93S83.21,81,82.36,81Zm1.3,2.78a24.27,24.27,0,0,1-6.94,2.12l-.42,0L76,86c-.13,0-.18,0-.18-.08s0-.07.11-.11a10.23,10.23,0,0,0,2.53-1.24,19.54,19.54,0,0,0,3.79-3.26,16.62,16.62,0,0,1,1.88,1.12c.45.34.64.58.64.83S84.47,83.81,83.66,83.81Z"/><path class="cls-1" d="M91.24,91.75a8.43,8.43,0,0,1-1.63,4.67,6.24,6.24,0,0,1-.94.92.51.51,0,0,1-.24.13.09.09,0,0,1-.08-.09.33.33,0,0,1,.06-.15,4.48,4.48,0,0,0,.51-1.62,16.85,16.85,0,0,0,.2-2.85c0-.41,0-.56-.05-2.34.28.07.28.07,1.25.26s1.3.41,1.3.62S91.54,91.56,91.24,91.75Zm-1.27-2a2.12,2.12,0,0,1-.87.34c-.24,0-.35-.13-.41-.49a19.25,19.25,0,0,1-.32-2.06l3.27.2A28.33,28.33,0,0,0,94.3,82.1a8.91,8.91,0,0,1,2.25,1.37,1,1,0,0,1,.45.68c0,.28-.26.43-.88.49-1,1-1.56,1.55-3.3,3.13l2.16.06a3.79,3.79,0,0,0-.55-1c-.11-.11-.11-.11-.11-.15s0-.07.11-.07a4.58,4.58,0,0,1,1.39.37c1.18.53,1.78,1.22,1.78,2a1.38,1.38,0,0,1-1.35,1.46.92.92,0,0,1-1-.8c0-.21-.06-.6-.13-1.17l-1,.23c0,2.21,0,2.21.12,7.88v.75a.69.69,0,0,1-.34.71,3.33,3.33,0,0,1-1.45.34c-.6,0-.73-.13-.73-.73,0-.08,0-1.48.17-5.07,0-.07,0-1.2,0-3.39l-1.18.33Zm4.48-9a23.34,23.34,0,0,1-2.68,2.74A1.79,1.79,0,0,1,92.61,85a1.46,1.46,0,0,1-1.5,1.48c-.71,0-.9-.23-1.14-1.28a4.79,4.79,0,0,0-1.15-2.46s-.07-.07-.07-.11a.11.11,0,0,1,.11-.09,12.39,12.39,0,0,1,1.93.43,36.57,36.57,0,0,0,1.09-4.3,13.31,13.31,0,0,1,2.65.85c.47.24.71.48.71.69S95,80.62,94.45,80.77ZM96.12,95.5a.89.89,0,0,1-.9-.49,1.88,1.88,0,0,1-.09-.71,5.17,5.17,0,0,0-.6-3c0-.06,0-.06,0-.11s0,0,.09,0a4.51,4.51,0,0,1,1.71.81A2.47,2.47,0,0,1,97.53,94,1.4,1.4,0,0,1,96.12,95.5ZM104.64,83c.17-.25.47-.72.88-1.39.25-.43.51-.62.77-.62s.77.32,1.43,1.09a2.05,2.05,0,0,1,.62,1c0,.24-.23.41-.53.41H103.1v3.85h1.37c.21-.3.41-.58.85-1.24.26-.38.54-.6.78-.6a3.12,3.12,0,0,1,1.92,2c0,.24-.21.41-.53.41H99.16c-.56,0-1.12,0-1.67,0-.32-.41-.34-.45-.34-.49s.06-.15.17-.15l1.35,0h1.69V83.51H98.54c-.54,0-1.12,0-1.65.06-.34-.47-.36-.51-.36-.55s.06-.15.17-.15c.47,0,1,.08,1.34.08h2.3c0-1.41,0-2.82-.07-4.24,0-.1,0-.13.11-.13A10.93,10.93,0,0,1,103,79c.56.15.81.34.81.62s-.17.36-.64.62l0,2.78Zm-.9,7.6.54-.83c.21-.32.4-.49.57-.49a4.82,4.82,0,0,1,1.55.77c.74.49,1,.81,1,1.15s-.17.41-.7.71c0,.54.06,2.12.17,4.54,0,.45,0,.53,0,.58a1,1,0,0,1-.3.79,3.17,3.17,0,0,1-1.82.47c-.62,0-.83-.21-.83-.83v-.54h-3.52v.24a.92.92,0,0,1-.72,1,4.71,4.71,0,0,1-.95.17c-.62,0-.89-.17-.89-.56,0-.83.06-1.64.08-2.48,0-.66,0-1.16,0-1.73,0-1.2,0-2.53,0-3.11v-.3c0-.25,0-.3.17-.3a6,6,0,0,1,2.49.79Zm.24,4.18c0-1.09,0-2.93,0-3.3s-.1-.4-.42-.4l-2.72,0c-.3,0-.41.23-.41.87,0,1.48,0,3.32,0,4.44H104Z"/><path class="cls-1" d="M125.9,81.73c.19-.28.55-.73,1.22-1.56.32-.41.43-.47.64-.47a4,4,0,0,1,1.78,1.11c.57.52.79.79.79,1s-.19.43-.56.43H116c-.49.19-.53.25-.53,1.2v1.67c0,5.11-.22,7-1.07,8.9a10.75,10.75,0,0,1-3,3.73,1.13,1.13,0,0,1-.51.3.1.1,0,0,1-.11-.11c0-.06,0-.08.26-.38a7.11,7.11,0,0,0,1.37-3.15,17,17,0,0,0,.28-4c0-1.94,0-4.6-.09-7,0-.88,0-2.06-.08-2.72,0-.11.06-.17.21-.17a14.18,14.18,0,0,1,2.21.51,2.13,2.13,0,0,1,1.09.64h3.68c0-1.63,0-2,0-2.89,0-.13,0-.15.17-.15a15.92,15.92,0,0,1,2.2.22c1.07.17,1.46.34,1.46.7s-.15.39-.62.6l0,1.52Zm.73,5.12.87-1.26c.3-.45.5-.6.71-.6s.68.25,1.39.85.88.86.88,1.14-.22.36-.69.36h-6.31l0,3.88h1.91c.55-.9.85-1.22,1.09-1.22s.73.19,1.71.81,1,.73,1,1-.09.34-.62.77V93c0,.63.06,2,.13,3.15,0,.36,0,.79,0,1a.82.82,0,0,1-.58.84,4.34,4.34,0,0,1-1.65.34c-.73,0-1-.17-1-.64v-.58H119c0,.62-.13.82-.6,1a3.66,3.66,0,0,1-1.33.26c-.66,0-.94-.19-.94-.67,0-.1,0-1.86.09-3,0-.84,0-2,0-2.91,0-.54,0-1,0-1.39v-.09c0-.13,0-.17.17-.17a12,12,0,0,1,2.34.56c.34.12.49.23.59.47h1.29c0-1.14,0-1.46,0-2.44,0-1.78,0-5-.06-5.76v-.09c0-.19,0-.21.19-.21a14.37,14.37,0,0,1,2.44.3c.79.19,1,.36,1,.66s-.24.47-.77.66v2.51Zm-1.08,6.23c0-1.26,0-1.39-.34-1.39h-5.89c-.17,0-.27.15-.32.34a5,5,0,0,0,0,.66l0,3.86h6.57Z"/></g></g></svg>