<svg width="546" height="802" viewBox="0 0 546 802" fill="none" xmlns="http://www.w3.org/2000/svg">
<path d="M546 799.367L546 2.63301C546 1.93469 545.723 1.26497 545.229 0.77119C544.736 0.277405 544.066 -8.45245e-08 543.368 -1.15033e-07L2.6317 -2.37514e-05C1.93374 -2.37819e-05 1.26435 0.277381 0.770821 0.771166C0.27729 1.26495 3.61153e-05 1.93467 3.60848e-05 2.63298L1.25944e-06 799.344C1.22892e-06 800.043 0.277255 800.712 0.770786 801.206C1.26432 801.7 1.9337 801.977 2.63166 801.977L543.368 801.977C544.062 801.977 544.728 801.703 545.221 801.214C545.714 800.725 545.994 800.061 546 799.367V799.367ZM5.26329 796.711L5.26332 5.26599L540.737 5.26601L540.737 796.711L5.26329 796.711Z" fill="#F0B253"/>
<path d="M485.585 30.6426C484.294 32.2302 483.66 34.2533 483.816 36.2945C483.584 39.973 484.117 43.6596 485.381 47.1216C485.948 48.5289 486.697 49.8681 487.196 51.2981C487.857 53.2146 488.051 55.2611 487.763 57.2678C487.037 57.9487 487.491 57.2678 486.697 57.9487C487.355 57.6537 485.064 60.4002 485.767 60.2186C485.608 60.9222 488.353 58.6297 488.036 59.2879C488.625 58.4935 488.036 58.9475 488.716 58.2211C490.722 57.9332 492.767 58.1278 494.683 58.7886C496.112 59.2879 497.45 60.037 498.857 60.5817C502.318 61.8773 506.013 62.4265 509.701 62.1933C511.74 62.3397 513.759 61.707 515.35 60.4229C515.922 59.7598 516.355 58.9876 516.621 58.153C516.782 57.6969 516.896 57.2253 516.961 56.7457C516.985 56.0589 516.856 55.3754 516.586 54.7437C516.315 54.1121 515.909 53.5479 515.396 53.0913C514.368 52.1725 513.052 51.6424 511.675 51.5932C510.885 51.5224 510.093 51.6968 509.406 52.0926C506.979 53.7041 510.11 56.8138 510.904 54.6121C511.131 53.9765 510.904 53.1821 511.834 53.0686C512.764 52.9551 514.103 54.09 514.352 55.0433C514.514 55.7431 514.442 56.4764 514.148 57.1316C513.765 57.9101 513.147 58.5483 512.382 58.9557C511.616 59.3631 510.742 59.5191 509.883 59.4014C509.486 59.3763 509.101 59.2585 508.758 59.0575C508.416 58.8564 508.125 58.5777 507.909 58.2438C507.546 57.5856 507.614 56.7003 507.07 56.1783C506.821 55.9797 506.524 55.85 506.21 55.8022C505.895 55.7544 505.574 55.7901 505.277 55.9059C504.704 56.1539 504.112 56.3588 503.508 56.5187C502.82 56.5549 502.137 56.3782 501.552 56.0127C500.968 55.6473 500.51 55.1107 500.241 54.4759C499.999 53.8278 499.892 53.1369 499.927 52.4459C499.962 51.7549 500.138 51.0784 500.445 50.4583C500.672 49.9589 500.944 49.4823 501.148 48.9829C501.512 47.8227 501.582 46.5905 501.353 45.3966L501.353 45.2604C501.384 45.1645 501.384 45.0612 501.353 44.9653V44.9653C501.353 44.9653 501.171 44.9653 501.08 44.9653C501.036 44.9759 500.989 44.9759 500.944 44.9653C499.748 44.7542 498.519 44.832 497.36 45.1923C496.838 45.3966 496.384 45.6689 495.885 45.8959C495.198 46.1988 494.451 46.3419 493.7 46.3144C492.95 46.2869 492.215 46.0895 491.552 45.737C490.895 45.4813 490.338 45.0212 489.962 44.4245C489.586 43.8279 489.412 43.1263 489.465 42.4231C489.625 41.8185 489.829 41.2267 490.077 40.6526C490.193 40.3522 490.228 40.027 490.181 39.7087C490.133 39.3905 490.003 39.09 489.805 38.8367C489.283 38.3147 488.399 38.3828 487.741 38.0196C487.407 37.8039 487.128 37.5128 486.927 37.1699C486.726 36.8269 486.609 36.4416 486.584 36.0448C486.469 35.1857 486.627 34.3123 487.034 33.5471C487.44 32.7818 488.076 32.1631 488.852 31.7776C489.509 31.4623 490.257 31.3899 490.962 31.5733C491.915 31.8457 493.095 33.0033 492.936 34.0928C492.777 35.1823 492.028 34.7964 491.393 35.0234C489.124 35.8179 492.301 38.9502 493.911 36.4988C494.313 35.8137 494.487 35.0193 494.41 34.229C494.352 32.8532 493.823 31.5392 492.913 30.5065C492.449 30.0148 491.885 29.6286 491.259 29.374C490.632 29.1195 489.959 29.0025 489.283 29.0311C488.763 29.0744 488.252 29.1889 487.763 29.3715C486.961 29.6487 486.221 30.0805 485.585 30.6426V30.6426ZM496.77 49.2326C496.498 50.5491 495.999 52.0018 494.751 52.3876C494.342 52.483 493.922 52.5212 493.503 52.5011C493.483 52.0817 493.521 51.6616 493.616 51.2527C494.002 49.9362 495.454 49.505 496.77 49.2326V49.2326Z" fill="#F0B253"/>
<path d="M484.746 8.12594C484.645 8.87791 484.703 9.64282 484.918 10.3704C485.134 11.0981 485.5 11.772 485.994 12.3478C489.103 17.1829 492.625 21.7396 496.52 25.9668C498.585 27.8156 500.146 30.1587 501.058 32.7763C501.25 33.8545 501.318 34.9511 501.262 36.0449L501.103 44.761C504.007 44.761 506.911 44.6476 509.815 44.6022C510.9 44.5337 511.99 44.6023 513.059 44.8064C515.722 45.6891 518.108 47.2543 519.978 49.3461C524.204 53.2432 528.758 56.767 533.59 59.8781C534.158 60.3997 534.829 60.7948 535.561 61.0374C536.292 61.28 537.066 61.3645 537.833 61.2854C538.297 61.1235 538.712 60.8473 539.041 60.4823C539.37 60.1174 539.602 59.6754 539.716 59.1972C539.935 58.1998 539.832 57.1584 539.421 56.2237C539.021 55.1713 538.382 54.226 537.556 53.462C536.729 52.698 535.737 52.136 534.657 51.8202L537.152 50.4129C537.395 50.2999 537.611 50.1375 537.787 49.9363C537.909 49.6692 537.956 49.3744 537.924 49.0829C537.892 48.7913 537.782 48.5138 537.606 48.2793C535.655 44.8745 530.687 44.6249 528.055 41.7195C530.357 42.081 532.715 41.7901 534.861 40.8796C535.275 40.6713 535.626 40.3583 535.882 39.9717C536.054 39.6109 536.128 39.211 536.096 38.8124C536.064 38.4138 535.928 38.0307 535.7 37.7019C535.262 37.0555 534.727 36.4812 534.112 35.9995C535.091 35.5138 535.961 34.8352 536.671 34.0043C537.38 33.1734 537.914 32.2076 538.241 31.1648C538.89 28.9961 538.671 26.6598 537.629 24.6503C537.047 23.4306 536.144 22.3928 535.017 21.6488C533.89 20.9048 532.581 20.4828 531.231 20.4284C530.585 20.4332 529.946 20.5701 529.354 20.8309C528.763 21.0917 528.23 21.4708 527.791 21.9448C527.351 22.4189 527.013 22.978 526.797 23.5877C526.581 24.1974 526.492 24.8448 526.535 25.4902C526.699 26.5271 527.155 27.4957 527.851 28.2821C528.599 29.2127 529.893 29.9617 530.891 29.417C531.206 29.2273 531.442 28.9294 531.555 28.5788C531.668 28.2281 531.649 27.8485 531.503 27.5103C531.398 27.174 531.175 26.8872 530.874 26.7035C530.574 26.5198 530.217 26.4516 529.87 26.5116C529.87 26.5116 529.348 25.127 529.87 24.6957C530.158 24.5068 530.486 24.3861 530.828 24.3429C531.17 24.2996 531.517 24.3349 531.844 24.446C532.858 24.74 533.752 25.3495 534.396 26.1861C535.041 27.0228 535.402 28.0432 535.428 29.0992C535.389 30.1183 534.993 31.0912 534.308 31.8467C533.624 32.6023 532.695 33.0922 531.685 33.2303C530.377 33.2785 529.073 33.0623 527.851 32.5947C523.936 31.1277 519.649 30.9841 515.645 32.1862C514.958 32.3831 514.334 32.7571 513.836 33.271C513.339 33.7849 512.984 34.4205 512.809 35.1143C514.216 35.3866 515.849 35.886 516.303 37.2479C516.402 37.8293 516.364 38.426 516.19 38.9897C516.017 39.5535 515.714 40.0687 515.305 40.4938C515.142 40.7848 514.898 41.0215 514.602 41.1747C514.282 41.2554 513.946 41.2554 513.626 41.1747C510.972 40.9704 508.34 40.63 505.709 40.1987C505.277 37.5657 504.937 34.9327 504.733 32.277C504.653 31.9489 504.653 31.6064 504.733 31.2782C504.894 30.9934 505.129 30.7579 505.414 30.5973C505.838 30.1884 506.353 29.885 506.917 29.7115C507.48 29.538 508.077 29.4994 508.658 29.5986C510.019 30.0525 510.495 31.6868 510.79 33.0714C511.481 32.9033 512.114 32.5538 512.625 32.059C513.135 31.5642 513.504 30.9421 513.694 30.2568C514.899 26.2959 514.788 22.0508 513.377 18.1586C512.902 16.9371 512.678 15.6325 512.719 14.3226C512.862 13.3102 513.356 12.3804 514.115 11.6958C514.874 11.0111 515.849 10.6152 516.87 10.5774C517.928 10.5961 518.951 10.9549 519.789 11.6009C520.626 12.2468 521.234 13.1454 521.521 14.1637C521.629 14.4919 521.66 14.8404 521.613 15.1826C521.566 15.5248 521.441 15.8517 521.249 16.1385C520.841 16.6605 519.457 16.1385 519.457 16.1385C519.516 15.7883 519.444 15.4287 519.256 15.1275C519.068 14.8264 518.776 14.6047 518.436 14.5042C518.097 14.3629 517.719 14.3471 517.37 14.4594C517.021 14.5717 516.723 14.8049 516.53 15.117C516.008 16.1158 516.757 17.3869 517.664 18.1586C518.443 18.8343 519.393 19.2819 520.409 19.4524C521.064 19.5054 521.723 19.423 522.344 19.2105C522.965 18.9979 523.536 18.6597 524.022 18.2169C524.507 17.774 524.896 17.236 525.164 16.6364C525.433 16.0367 525.575 15.3882 525.582 14.7312C525.519 13.3713 525.084 12.055 524.324 10.926C523.564 9.79711 522.508 8.8991 521.272 8.33023C519.263 7.28771 516.928 7.06792 514.761 7.71738C513.714 8.03585 512.745 8.56718 511.913 9.27806C511.082 9.98894 510.406 10.864 509.928 11.8485C509.445 11.2275 508.862 10.6907 508.204 10.2596C507.875 10.0321 507.493 9.89546 507.094 9.86357C506.696 9.83169 506.296 9.90566 505.935 10.078C505.549 10.3239 505.236 10.6687 505.028 11.0767C504.113 13.2223 503.822 15.5826 504.189 17.8862C501.285 15.2532 501.012 10.2823 497.632 8.33023C497.408 8.17792 497.15 8.08366 496.881 8.05593C496.612 8.02819 496.34 8.06785 496.089 8.17134C495.875 8.34066 495.704 8.55849 495.59 8.8069L494.161 11.3491C493.846 10.2784 493.293 9.29309 492.542 8.46743C491.792 7.64177 490.863 6.99726 489.828 6.58246C488.888 6.19052 487.851 6.09548 486.856 6.31008C486.384 6.41929 485.945 6.6416 485.577 6.95789C485.21 7.27419 484.925 7.67501 484.746 8.12594V8.12594ZM518.05 43.7623C519.288 43.9527 520.541 44.0287 521.793 43.9893C523.087 44.1255 524.357 44.3298 525.627 44.5114C527.734 44.7197 529.766 45.4026 531.571 46.5088L530.21 47.4849C530.131 47.5493 530.062 47.6259 530.006 47.7118C529.963 47.829 529.963 47.9579 530.006 48.075C530.539 49.0057 531.204 49.8543 531.98 50.5945C532.755 51.3466 533.204 52.3741 533.227 53.4545C532.179 52.8369 531.224 52.0726 530.392 51.1847C526.91 47.7848 522.684 45.2434 518.05 43.7623V43.7623ZM518.277 34.91C520.977 35.0916 523.586 34.5695 526.331 34.91C527.215 34.91 529.076 35.0689 529.756 35.7498C530.437 36.4308 529.552 37.2706 528.554 37.1117C527.556 36.9528 527.125 36.8393 526.285 36.6804C523.67 35.8661 520.991 35.2738 518.277 34.91V34.91ZM509.701 20.1107L509.27 17.9543C509.112 16.9556 509.656 15.6845 510.632 16.7286C511.607 17.7727 511.358 19.2935 511.471 20.1788C511.834 22.9253 511.335 25.5356 511.471 28.2367C511.105 25.484 510.513 22.7661 509.701 20.1107V20.1107ZM492.981 13.3012C493.514 13.3058 494.04 13.4189 494.528 13.6336C495.015 13.8482 495.454 14.1598 495.817 14.5496C496.576 15.289 497.43 15.9227 498.358 16.4335C498.477 16.4676 498.602 16.4676 498.721 16.4335C498.813 16.3757 498.89 16.2982 498.948 16.2066L499.901 14.8673C501.068 16.6761 501.784 18.739 501.988 20.8824C502.192 22.1535 502.396 23.4246 502.532 24.7184C502.493 25.9712 502.569 27.2248 502.759 28.4636C501.3 23.8179 498.793 19.5699 495.431 16.0477C494.512 15.2211 493.717 14.2654 493.072 13.2104L492.981 13.3012Z" fill="#F0B253"/>
<path d="M487.831 772.265C488.32 772.448 488.831 772.563 489.351 772.606C490.036 772.629 490.717 772.503 491.347 772.237C491.978 771.97 492.543 771.569 493.004 771.062C493.914 770.03 494.443 768.716 494.501 767.34C494.578 766.55 494.403 765.755 494.002 765.07C492.391 762.619 489.283 765.751 491.484 766.545C492.119 766.772 492.913 766.545 493.027 767.476C493.14 768.407 492.006 769.746 491.053 769.996C490.347 770.179 489.6 770.107 488.943 769.791C488.167 769.406 487.531 768.787 487.124 768.022C486.718 767.257 486.56 766.383 486.674 765.524C486.699 765.127 486.817 764.742 487.018 764.399C487.219 764.056 487.498 763.765 487.831 763.549C488.489 763.186 489.374 763.254 489.896 762.732C490.094 762.479 490.224 762.178 490.271 761.86C490.319 761.542 490.283 761.217 490.168 760.916C489.92 760.342 489.715 759.75 489.555 759.146C489.501 758.457 489.664 757.768 490.023 757.178C490.381 756.587 490.916 756.124 491.552 755.855C492.197 755.603 492.887 755.49 493.579 755.521C494.27 755.552 494.948 755.728 495.567 756.036C496.067 756.263 496.52 756.536 497.042 756.74C498.2 757.111 499.431 757.189 500.627 756.967C500.671 756.956 500.718 756.956 500.763 756.967C500.763 756.967 500.967 756.967 501.035 756.967C501.103 756.967 501.035 756.967 501.035 756.967C501.066 756.871 501.066 756.768 501.035 756.672L501.035 756.535C501.264 755.342 501.194 754.109 500.831 752.949C500.627 752.45 500.354 751.973 500.127 751.474C499.821 750.854 499.644 750.177 499.609 749.486C499.574 748.795 499.681 748.104 499.923 747.456C500.189 746.801 500.654 746.247 501.253 745.872C501.852 745.497 502.553 745.321 503.258 745.368C503.862 745.528 504.454 745.733 505.028 745.981C505.324 746.097 505.646 746.132 505.96 746.085C506.275 746.037 506.571 745.907 506.82 745.708C507.365 745.186 507.296 744.301 507.659 743.643C507.879 743.313 508.171 743.037 508.513 742.836C508.855 742.635 509.238 742.515 509.633 742.485C510.516 742.268 511.446 742.348 512.279 742.713C513.111 743.078 513.8 743.708 514.239 744.505C514.533 745.161 514.604 745.894 514.443 746.594C514.171 747.547 513.013 748.727 511.925 748.568C510.836 748.41 511.221 747.66 510.994 747.025C510.2 744.755 507.07 747.933 509.497 749.544C510.184 749.94 510.976 750.115 511.766 750.044C513.143 749.995 514.459 749.465 515.486 748.546C515.998 748.093 516.403 747.532 516.674 746.904C516.944 746.277 517.073 745.597 517.052 744.914C516.998 744.388 516.883 743.87 516.711 743.37C516.445 742.536 516.013 741.764 515.441 741.101C513.85 739.816 511.831 739.184 509.792 739.33C506.113 739.093 502.426 739.634 498.97 740.919C497.564 741.464 496.225 742.213 494.796 742.712C492.88 743.369 490.837 743.571 488.83 743.302C488.149 742.553 488.83 743.007 488.149 742.213C488.444 742.871 485.699 740.579 485.88 741.282C485.177 741.123 487.468 743.87 486.81 743.552C487.604 744.142 487.151 743.552 487.877 744.233C488.164 746.24 487.97 748.286 487.31 750.203C486.81 751.633 486.062 752.972 485.495 754.379C484.231 757.841 483.698 761.528 483.929 765.206C483.774 767.247 484.407 769.271 485.699 770.858C486.309 771.464 487.034 771.942 487.831 772.265V772.265ZM493.616 750.384C493.521 749.975 493.483 749.555 493.503 749.136C493.917 749.078 494.337 749.078 494.751 749.136C495.999 749.522 496.498 750.974 496.77 752.291C495.454 752.132 494.002 751.655 493.616 750.384V750.384Z" fill="#F0B253"/>
<path d="M486.856 795.395C487.851 795.609 488.888 795.514 489.828 795.122C490.863 794.707 491.791 794.063 492.542 793.237C493.293 792.412 493.846 791.426 494.161 790.356L495.568 792.83C495.681 793.078 495.852 793.296 496.067 793.465C496.334 793.587 496.628 793.634 496.92 793.602C497.211 793.57 497.488 793.46 497.723 793.284C501.103 791.332 501.375 786.361 504.279 783.728C503.913 786.031 504.204 788.392 505.119 790.537C505.327 790.945 505.64 791.29 506.026 791.536C506.387 791.708 506.786 791.782 507.185 791.75C507.583 791.719 507.966 791.582 508.295 791.354C508.953 790.923 509.536 790.386 510.019 789.765C510.497 790.75 511.172 791.625 512.004 792.336C512.835 793.047 513.805 793.578 514.851 793.897C517.019 794.546 519.354 794.326 521.362 793.284C522.578 792.704 523.613 791.804 524.357 790.68C525.1 789.557 525.524 788.252 525.582 786.905C525.571 786.259 525.429 785.621 525.165 785.03C524.901 784.44 524.52 783.909 524.045 783.47C523.57 783.031 523.011 782.692 522.402 782.475C521.792 782.258 521.146 782.167 520.5 782.207C519.484 782.377 518.534 782.825 517.755 783.501C516.848 784.25 516.099 785.544 516.621 786.542C516.814 786.854 517.112 787.088 517.461 787.2C517.81 787.312 518.188 787.296 518.526 787.155C518.867 787.055 519.159 786.833 519.347 786.532C519.535 786.231 519.606 785.871 519.547 785.521C519.547 785.521 520.931 784.999 521.34 785.521C521.532 785.808 521.657 786.135 521.704 786.477C521.751 786.819 521.72 787.167 521.612 787.496C521.324 788.514 520.717 789.413 519.879 790.059C519.042 790.704 518.018 791.063 516.961 791.082C515.94 791.044 514.965 790.648 514.206 789.964C513.447 789.279 512.952 788.349 512.809 787.337C512.769 786.027 512.993 784.722 513.467 783.501C514.926 779.582 515.062 775.292 513.853 771.289C513.663 770.604 513.294 769.982 512.783 769.487C512.273 768.992 511.64 768.643 510.949 768.474C510.654 769.859 510.178 771.493 508.817 771.947C508.235 772.046 507.639 772.008 507.076 771.834C506.512 771.661 505.997 771.357 505.572 770.949C505.288 770.788 505.052 770.552 504.892 770.268C504.812 769.939 504.812 769.597 504.892 769.269C505.096 766.613 505.436 763.98 505.867 761.347C508.499 760.916 511.131 760.575 513.785 760.371C514.105 760.29 514.44 760.29 514.76 760.371C515.057 760.524 515.301 760.761 515.464 761.052C515.872 761.477 516.176 761.992 516.349 762.556C516.522 763.12 516.561 763.716 516.462 764.298C516.008 765.66 514.375 766.159 512.968 766.432C513.109 767.125 513.428 767.77 513.894 768.303C514.359 768.837 514.955 769.24 515.623 769.473C519.636 770.673 523.932 770.522 527.851 769.042C529.073 768.574 530.377 768.358 531.685 768.406C532.695 768.544 533.624 769.034 534.308 769.79C534.993 770.545 535.389 771.518 535.428 772.537C535.379 773.574 535.007 774.569 534.364 775.383C533.721 776.197 532.84 776.789 531.844 777.077C531.517 777.188 531.17 777.224 530.828 777.18C530.486 777.137 530.158 777.016 529.87 776.827C529.348 776.396 529.87 775.012 529.87 775.012C530.217 775.072 530.574 775.003 530.874 774.82C531.175 774.636 531.398 774.349 531.503 774.013C531.649 773.675 531.668 773.295 531.555 772.944C531.442 772.594 531.206 772.296 530.891 772.106C529.892 771.561 528.622 772.31 527.851 773.241C527.171 774.018 526.723 774.969 526.558 775.988C526.514 776.633 526.603 777.28 526.819 777.89C527.035 778.5 527.373 779.059 527.813 779.533C528.253 780.007 528.785 780.386 529.377 780.647C529.969 780.908 530.607 781.045 531.254 781.049C532.603 780.995 533.912 780.573 535.04 779.829C536.167 779.085 537.07 778.047 537.651 776.827C538.693 774.818 538.913 772.482 538.264 770.313C537.937 769.27 537.403 768.304 536.693 767.473C535.984 766.643 535.113 765.964 534.135 765.478C534.749 764.997 535.285 764.422 535.723 763.776C535.95 763.447 536.087 763.064 536.119 762.665C536.151 762.267 536.077 761.867 535.904 761.506C535.649 761.119 535.297 760.806 534.884 760.598C532.735 759.699 530.38 759.409 528.078 759.758C530.709 756.853 535.678 756.603 537.629 753.198C537.805 752.964 537.914 752.686 537.946 752.395C537.978 752.103 537.931 751.809 537.81 751.541C537.636 751.332 537.42 751.162 537.175 751.042L534.657 749.816C535.726 749.505 536.709 748.952 537.531 748.2C538.353 747.448 538.992 746.518 539.398 745.481C539.809 744.546 539.913 743.505 539.693 742.508C539.576 742.031 539.343 741.591 539.014 741.227C538.685 740.862 538.272 740.585 537.81 740.419C537.06 740.319 536.298 740.376 535.571 740.587C534.845 740.798 534.17 741.159 533.59 741.645C528.763 744.763 524.209 748.287 519.978 752.177C518.108 754.269 515.722 755.834 513.059 756.717C511.99 756.921 510.9 756.989 509.815 756.921C506.911 756.921 504.007 756.921 501.103 756.762L501.262 765.478C501.318 766.572 501.25 767.669 501.058 768.747C500.146 771.364 498.585 773.708 496.52 775.556C492.625 779.784 489.103 784.34 485.994 789.175C485.5 789.751 485.134 790.425 484.918 791.153C484.703 791.88 484.645 792.645 484.746 793.397C484.899 793.882 485.174 794.32 485.543 794.669C485.912 795.018 486.364 795.268 486.856 795.395V795.395ZM530.46 750.543C531.292 749.655 532.247 748.891 533.295 748.273C533.272 749.353 532.823 750.381 532.048 751.133C531.293 751.855 530.644 752.681 530.119 753.584C530.076 753.701 530.076 753.83 530.119 753.947C530.175 754.033 530.244 754.11 530.324 754.174L531.685 755.151C529.83 756.272 527.741 756.948 525.582 757.125C524.312 757.307 523.041 757.511 521.748 757.647C520.496 757.608 519.243 757.684 518.005 757.874C522.671 756.436 526.936 753.925 530.46 750.543V750.543ZM526.399 764.933C527.125 764.752 527.828 764.616 528.667 764.479C529.507 764.343 530.936 764.888 529.87 765.841C528.804 766.795 527.329 766.568 526.444 766.681C523.699 767.067 521.09 766.545 518.39 766.681C521.102 766.315 523.78 765.73 526.399 764.933V764.933ZM511.607 773.4C511.426 776.101 511.925 778.711 511.607 781.458C511.494 782.343 511.448 784.204 510.768 784.908C510.087 785.612 509.248 784.681 509.406 783.682L509.837 781.526C510.649 778.871 511.241 776.153 511.607 773.4ZM495.431 785.589C498.793 782.067 501.3 777.819 502.759 773.173C502.569 774.412 502.493 775.665 502.532 776.918C502.396 778.212 502.192 779.483 501.988 780.754C501.801 782.866 501.117 784.904 499.991 786.701L499.039 785.362C498.981 785.27 498.903 785.193 498.812 785.135C498.693 785.101 498.567 785.101 498.449 785.135C497.515 785.674 496.661 786.338 495.908 787.11C495.545 787.499 495.106 787.811 494.618 788.026C494.131 788.24 493.605 788.354 493.072 788.358C493.722 787.327 494.517 786.395 495.431 785.589V785.589Z" fill="#F0B253"/>
<path d="M60.5054 770.994C61.8077 769.412 62.4425 767.385 62.2749 765.342C62.5065 761.664 61.9735 757.977 60.7095 754.515C60.1424 753.108 59.3937 751.769 58.9173 750.339C58.2492 748.424 58.047 746.378 58.3274 744.369C59.0534 743.688 58.5997 744.369 59.4164 743.688C58.7358 743.983 61.0498 741.237 60.3239 741.418C60.5054 740.715 57.7376 743.007 58.0552 742.349C57.4653 743.143 58.0552 742.689 57.3973 743.416C55.3842 743.705 53.3312 743.51 51.408 742.848C49.9788 742.349 48.6403 741.6 47.2564 741.055C43.8 739.774 40.1134 739.233 36.4348 739.466C34.3955 739.318 32.3759 739.951 30.7858 741.237C29.8919 742.319 29.3252 743.634 29.1524 745.027C29.1368 745.71 29.2686 746.388 29.5388 747.014C29.8089 747.641 30.2111 748.202 30.7178 748.659C31.75 749.57 33.0634 750.099 34.4384 750.157C35.2279 750.228 36.0201 750.054 36.7071 749.658C39.1345 748.046 36.0038 744.937 35.2324 747.138C34.9829 747.774 35.2324 748.568 34.2796 748.682C33.3268 748.795 32.0109 747.66 31.7614 746.707C31.5999 746.007 31.6716 745.274 31.9655 744.619C32.3522 743.839 32.9742 743.2 33.7436 742.792C34.5131 742.385 35.391 742.23 36.2533 742.349C36.6473 742.372 37.0299 742.489 37.3693 742.691C37.7088 742.892 37.9951 743.172 38.2044 743.507C38.5674 744.165 38.4993 745.05 39.0438 745.572C39.2924 745.771 39.5889 745.901 39.9035 745.948C40.2181 745.996 40.5397 745.96 40.836 745.845C41.4111 745.6 42.0024 745.395 42.6056 745.232C43.3104 745.185 44.012 745.361 44.6108 745.736C45.2095 746.111 45.6748 746.665 45.9405 747.32C46.1828 747.968 46.2896 748.659 46.2545 749.35C46.2194 750.041 46.043 750.717 45.7364 751.338C45.5322 751.837 45.2372 752.314 45.0558 752.813C44.6732 753.969 44.5951 755.204 44.8289 756.399L44.8289 756.535C44.808 756.633 44.808 756.733 44.8289 756.831V756.831C44.9186 756.85 45.0115 756.85 45.1011 756.831C45.1459 756.82 45.1925 756.82 45.2373 756.831C46.433 757.043 47.6622 756.965 48.8217 756.604C49.3435 756.399 49.8199 756.127 50.2964 755.9C50.92 755.591 51.6011 755.415 52.2964 755.384C52.9916 755.353 53.6857 755.467 54.3346 755.718C54.9893 755.977 55.5446 756.438 55.9199 757.034C56.2952 757.63 56.471 758.33 56.4218 759.032C56.2516 759.634 56.0471 760.225 55.8092 760.803C55.6938 761.103 55.6582 761.428 55.7059 761.747C55.7537 762.065 55.8831 762.365 56.0815 762.619C56.6033 763.141 57.4653 763.073 58.1233 763.436C58.4564 763.654 58.7357 763.945 58.9401 764.287C59.1444 764.63 59.2685 765.014 59.303 765.411C59.4171 766.27 59.2597 767.143 58.8529 767.908C58.4461 768.674 57.8102 769.292 57.0343 769.678C56.3772 769.993 55.6298 770.065 54.9244 769.882C54.3752 769.718 53.8904 769.388 53.5368 768.937C53.1833 768.485 52.9785 767.935 52.9507 767.363C53.0868 766.523 53.8582 766.659 54.5161 766.432C56.7848 765.638 53.5859 762.505 51.9979 764.957C51.5741 765.633 51.3977 766.435 51.4988 767.226C51.5363 768.607 52.0676 769.927 52.9961 770.949C53.4521 771.455 54.0133 771.856 54.6403 772.123C55.2673 772.389 55.945 772.515 56.6259 772.492C57.1528 772.447 57.6715 772.332 58.1686 772.152C59.0208 771.936 59.8174 771.542 60.5054 770.994V770.994ZM49.3209 752.404C49.6158 751.088 50.0922 749.635 51.3626 749.249C51.769 749.192 52.1813 749.192 52.5877 749.249C52.6452 749.663 52.6452 750.084 52.5877 750.498C52.1567 751.655 50.7047 752.132 49.3889 752.404L49.3209 752.404Z" fill="#F0B253"/>
<path d="M61.4128 793.511C61.5142 792.759 61.4554 791.994 61.2404 791.266C61.0253 790.539 60.6589 789.865 60.1651 789.289C57.056 784.46 53.5421 779.903 49.6611 775.67C47.5914 773.826 46.0291 771.481 45.1238 768.86C44.9434 767.781 44.875 766.686 44.9196 765.592L45.0784 756.876C42.1745 756.876 39.2707 756.876 36.3668 757.035C35.2811 757.103 34.1911 757.034 33.1226 756.83C30.4966 755.938 28.1501 754.372 26.3166 752.291C22.085 748.401 17.5314 744.878 12.7046 741.759C12.1298 741.272 11.4592 740.911 10.7362 740.7C10.0132 740.488 9.25394 740.432 8.50758 740.533C8.0416 740.691 7.62391 740.966 7.29429 741.332C6.96466 741.697 6.73409 742.141 6.62458 742.621C6.40863 743.617 6.50365 744.655 6.89681 745.595C7.3062 746.63 7.94593 747.559 8.76748 748.31C9.58904 749.061 10.5708 749.615 11.6383 749.93L9.16548 751.337C8.92402 751.452 8.71388 751.623 8.55296 751.837C8.42686 752.103 8.37705 752.398 8.40909 752.691C8.44114 752.983 8.55375 753.261 8.73442 753.494C10.6855 756.898 15.5404 757.148 18.2855 760.053C15.9828 759.706 13.629 759.997 11.4795 760.893C11.0677 761.095 10.7216 761.41 10.4813 761.801C10.309 762.162 10.2351 762.562 10.267 762.961C10.2989 763.359 10.4354 763.742 10.6628 764.071C11.0943 764.723 11.631 765.298 12.2509 765.773C11.2666 766.254 10.3908 766.931 9.67691 767.763C8.96306 768.594 8.42622 769.562 8.0992 770.608C7.45008 772.777 7.66977 775.113 8.71175 777.123C9.29682 778.344 10.2039 779.383 11.3352 780.127C12.4665 780.871 13.7793 781.292 15.1321 781.345C15.7766 781.337 16.4128 781.197 17.0018 780.935C17.5908 780.673 18.1202 780.294 18.5576 779.82C18.995 779.346 19.3312 778.788 19.5458 778.18C19.7604 777.572 19.8487 776.926 19.8055 776.283C19.6486 775.266 19.2083 774.314 18.5351 773.536C17.7637 772.606 16.4933 771.857 15.4951 772.401C15.1758 772.588 14.9366 772.885 14.8235 773.237C14.7105 773.589 14.7315 773.971 14.8825 774.308C14.9783 774.645 15.1966 774.935 15.4946 775.12C15.7925 775.304 16.1487 775.371 16.4933 775.307C16.4933 775.307 17.0151 776.691 16.4933 777.123C16.2049 777.312 15.8772 777.432 15.5352 777.475C15.1932 777.519 14.8459 777.483 14.5195 777.372C13.524 777.087 12.644 776.494 12.0045 775.679C11.365 774.864 10.9987 773.868 10.9577 772.833C10.9919 771.812 11.3869 770.837 12.0723 770.08C12.7578 769.324 13.6893 768.835 14.701 768.702C16.0085 768.657 17.3118 768.873 18.5351 769.337C22.4417 770.804 26.7217 770.948 30.7178 769.746C31.3921 769.484 31.9848 769.047 32.4353 768.481C32.8857 767.915 33.1777 767.239 33.2814 766.523C31.8975 766.25 30.2414 765.751 29.7877 764.389C29.6885 763.807 29.7272 763.211 29.9005 762.647C30.0739 762.083 30.3771 761.568 30.7858 761.143C30.9609 760.862 31.2025 760.628 31.4892 760.462C31.817 760.381 32.1595 760.381 32.4873 760.462C35.119 760.666 37.7733 761.007 40.405 761.438C40.836 764.071 41.1536 766.704 41.3578 769.36C41.459 769.685 41.459 770.033 41.3578 770.359C41.1973 770.643 40.9619 770.879 40.6772 771.039C40.2534 771.45 39.7385 771.754 39.1748 771.928C38.611 772.101 38.0142 772.139 37.433 772.038C36.0945 771.584 35.5954 769.95 35.3232 768.565C34.6284 768.73 33.9904 769.078 33.4757 769.573C32.961 770.068 32.5884 770.692 32.3966 771.38C31.1952 775.386 31.3386 779.675 32.8049 783.592C33.2613 784.818 33.477 786.12 33.4402 787.428C33.3022 788.438 32.8125 789.368 32.0574 790.053C31.3022 790.738 30.3298 791.134 29.3112 791.173C28.2538 791.154 27.2306 790.795 26.3929 790.149C25.5553 789.503 24.9478 788.605 24.6605 787.587C24.5494 787.26 24.5141 786.912 24.5574 786.57C24.6006 786.228 24.7212 785.9 24.91 785.612C25.3411 785.09 26.7023 785.612 26.7023 785.612C26.6434 785.962 26.7147 786.322 26.9028 786.623C27.0909 786.924 27.3828 787.146 27.7232 787.246C28.0618 787.387 28.4396 787.403 28.7888 787.291C29.1381 787.179 29.4359 786.945 29.6288 786.633C30.1733 785.634 29.402 784.363 28.4945 783.592C27.7158 782.916 26.7659 782.468 25.7494 782.298C25.104 782.258 24.4572 782.349 23.848 782.566C23.2388 782.783 22.6799 783.122 22.205 783.561C21.7301 784 21.349 784.531 21.0848 785.121C20.8206 785.712 20.6786 786.35 20.6676 786.996C20.7269 788.345 21.1506 789.653 21.8936 790.78C22.6367 791.907 23.6713 792.812 24.8873 793.397C26.9035 794.441 29.2461 794.661 31.4211 794.01C32.4607 793.69 33.4238 793.161 34.251 792.454C35.0782 791.748 35.7519 790.879 36.2307 789.902C36.7141 790.523 37.2966 791.06 37.9548 791.491C38.2835 791.718 38.6664 791.855 39.0648 791.887C39.4631 791.919 39.8629 791.845 40.2235 791.672C40.6097 791.426 40.923 791.082 41.131 790.674C42.0428 788.527 42.3412 786.17 41.993 783.864C44.8969 786.497 45.1465 791.468 48.5268 793.42C48.7612 793.596 49.0386 793.706 49.33 793.738C49.6214 793.77 49.916 793.723 50.1829 793.602C50.3972 793.432 50.5683 793.214 50.682 792.966C51.1585 792.149 51.6349 791.332 52.0886 790.492C52.4109 791.559 52.9671 792.541 53.7167 793.365C54.4664 794.19 55.3905 794.837 56.4217 795.259C57.3614 795.65 58.3985 795.746 59.3937 795.531C59.8737 795.393 60.3107 795.135 60.6639 794.782C61.0171 794.428 61.2747 793.991 61.4128 793.511V793.511ZM28.1315 757.874C26.8857 757.684 25.6252 757.608 24.3656 757.647C23.0951 757.511 21.8246 757.307 20.5315 757.125C18.4256 756.914 16.3941 756.231 14.5876 755.128L15.9488 754.152C16.0399 754.101 16.1116 754.021 16.153 753.925C16.1794 753.868 16.1931 753.806 16.1931 753.743C16.1931 753.681 16.1794 753.619 16.153 753.562C15.6199 752.631 14.9551 751.782 14.1792 751.042C13.4036 750.29 12.9552 749.263 12.9315 748.182C13.9832 748.805 14.945 749.569 15.79 750.452C19.2643 753.861 23.4922 756.404 28.1315 757.874V757.874ZM27.882 766.727C25.1822 766.545 22.5733 767.067 19.8282 766.727C18.9434 766.727 17.1058 766.591 16.4025 765.887C15.6992 765.183 16.6294 764.366 17.6049 764.525C18.5804 764.684 19.0568 764.797 19.7601 764.979C22.4154 765.782 25.1317 766.366 27.882 766.727V766.727ZM36.3668 781.526C36.5256 782.252 36.6844 782.979 36.7978 783.682C36.9113 784.386 36.4122 785.952 35.4593 784.908C34.5065 783.864 34.7333 782.343 34.5972 781.458C34.2342 778.711 34.7333 776.101 34.5972 773.4C34.9518 776.155 35.5439 778.874 36.3668 781.526V781.526ZM53.0868 788.336C52.555 788.326 52.0305 788.21 51.5437 787.996C51.0569 787.782 50.6175 787.473 50.251 787.087C49.5016 786.321 48.655 785.658 47.7328 785.112C47.614 785.08 47.4886 785.08 47.3698 785.112C47.267 785.163 47.1806 785.242 47.1202 785.339L46.1674 786.679C45.0422 784.882 44.3582 782.844 44.171 780.732C43.9895 779.461 43.7626 778.189 43.6492 776.896C43.6811 775.642 43.5975 774.388 43.3996 773.15C44.8612 777.8 47.3768 782.049 50.7501 785.566C51.6645 786.4 52.4518 787.364 53.0868 788.426L53.0868 788.336Z" fill="#F0B253"/>
<path d="M58.2367 29.3719C57.7396 29.1916 57.2209 29.0771 56.6941 29.0315C56.0131 29.0085 55.3354 29.1347 54.7084 29.4013C54.0814 29.668 53.5202 30.0685 53.0642 30.575C52.1357 31.5964 51.6043 32.9173 51.5669 34.2975C51.4658 35.0891 51.6422 35.8912 52.066 36.5673C53.654 39.0187 56.7621 35.8864 54.5842 35.0919C53.9263 34.8649 53.1549 35.0919 53.0188 34.1613C53.0466 33.5886 53.2514 33.0386 53.6049 32.5873C53.9585 32.136 54.4433 31.8056 54.9926 31.6418C55.6979 31.4584 56.4453 31.5308 57.1024 31.8461C57.8783 32.2316 58.5141 32.8504 58.921 33.6156C59.3278 34.3808 59.4852 35.2542 59.3711 36.1133C59.3366 36.5104 59.2125 36.8944 59.0082 37.2365C58.8038 37.5785 58.5245 37.8697 58.1913 38.0881C57.5334 38.4513 56.6714 38.3832 56.1496 38.9052C55.9512 39.1585 55.8218 39.459 55.7741 39.7772C55.7264 40.0955 55.7619 40.4207 55.8773 40.7211C56.1152 41.299 56.3197 41.8902 56.4898 42.4916C56.5391 43.1942 56.3633 43.8942 55.988 44.4901C55.6127 45.086 55.0574 45.5468 54.4027 45.8055C53.7538 46.0573 53.0597 46.1712 52.3645 46.14C51.6692 46.1087 50.9881 45.933 50.3645 45.624C49.888 45.397 49.4116 45.1246 48.8898 44.9203C47.7303 44.5592 46.5011 44.4814 45.3054 44.6933C45.2606 44.7039 45.214 44.7039 45.1692 44.6933C45.0796 44.6736 44.9867 44.6736 44.897 44.6933C44.897 44.6933 44.897 44.6933 44.897 44.6933C44.8761 44.7906 44.8761 44.8911 44.897 44.9884L44.897 45.397C44.6632 46.592 44.7413 47.8273 45.1239 48.9833C45.3053 49.4827 45.6003 49.9593 45.8045 50.4587C46.1111 51.0788 46.2875 51.7553 46.3226 52.4463C46.3577 53.1373 46.2509 53.8282 46.0086 54.4763C45.7429 55.1311 45.2776 55.6854 44.6789 56.0603C44.0801 56.4352 43.3785 56.6117 42.6737 56.5645C42.0705 56.4011 41.4792 56.1964 40.9041 55.9517C40.6078 55.8359 40.2862 55.8002 39.9716 55.848C39.657 55.8958 39.3606 56.0255 39.1119 56.2241C38.5674 56.7461 38.6355 57.6314 38.2725 58.2896C38.0632 58.6243 37.7769 58.9041 37.4374 59.1055C37.098 59.3068 36.7154 59.424 36.3214 59.4472C35.4591 59.5664 34.5812 59.4114 33.8117 59.0041C33.0423 58.5967 32.4203 57.9577 32.0337 57.1774C31.7397 56.5222 31.668 55.7889 31.8295 55.0892C32.1017 54.1358 33.2814 52.9555 34.3477 53.1144C35.414 53.2733 35.051 54.0223 35.3005 54.6579C36.0719 56.9277 39.2026 53.75 36.7752 52.1384C36.0882 51.7426 35.296 51.5682 34.5065 51.639C33.1315 51.6976 31.8181 52.2264 30.7859 53.1371C30.2792 53.5941 29.877 54.1552 29.6069 54.782C29.3367 55.4087 29.205 56.0864 29.2205 56.7688C29.3934 58.1621 29.96 59.4772 30.8539 60.5595C32.444 61.8457 34.4636 62.4786 36.5029 62.3299C40.1815 62.5637 43.8681 62.0224 47.3245 60.741C48.7083 60.1963 50.0469 59.4472 51.4761 58.9479C53.3993 58.286 55.4522 58.0915 57.4654 58.3804C58.146 59.1068 57.4654 58.6528 58.1233 59.4472C57.8284 58.789 60.5961 61.0815 60.392 60.3779C61.1179 60.5368 58.8039 57.7903 59.4845 58.108C58.6678 57.5179 59.1215 58.108 58.3956 57.4271C58.1151 55.4186 58.3173 53.3721 58.9854 51.4574C59.4618 50.0274 60.2105 48.6882 60.7776 47.2809C62.0416 43.8189 62.5746 40.1323 62.343 36.4538C62.5105 34.4113 61.8758 32.3838 60.5735 30.8019C59.911 30.1568 59.1125 29.6681 58.2367 29.3719V29.3719ZM52.429 51.2531C52.4864 51.6673 52.4864 52.0874 52.429 52.5015C52.0173 52.5213 51.6049 52.4831 51.2039 52.3881C49.9334 52.0022 49.457 50.5495 49.1621 49.233C50.7048 49.5054 52.1567 49.9366 52.5424 51.2531L52.429 51.2531Z" fill="#F0B253"/>
<path d="M59.3031 6.24148C58.3078 6.02688 57.2708 6.12192 56.3311 6.51386C55.2925 6.94276 54.3637 7.60004 53.6136 8.43698C52.8635 9.27392 52.3113 10.2691 51.9979 11.3486C51.5442 10.5088 51.0678 9.69162 50.5914 8.87448C50.4777 8.62608 50.3066 8.40825 50.0923 8.23893C49.8253 8.11773 49.5307 8.07064 49.2393 8.10259C48.9479 8.13454 48.6705 8.24435 48.4361 8.42052C45.0558 10.3726 44.8063 15.3435 41.9024 17.9765C42.2505 15.6706 41.9521 13.3133 41.0403 11.167C40.8323 10.759 40.519 10.4142 40.1328 10.1683C39.7722 9.99594 39.3725 9.92197 38.9741 9.95386C38.5757 9.98574 38.1928 10.1224 37.8641 10.3499C37.2059 10.7809 36.6233 11.3178 36.1399 11.9388C35.6637 10.9574 34.991 10.0844 34.1637 9.37376C33.3364 8.66315 32.372 8.1301 31.3304 7.80766C29.1554 7.15689 26.8128 7.37662 24.7966 8.42051C23.5806 9.0061 22.546 9.91059 21.8029 11.0377C21.0599 12.1649 20.6361 13.4725 20.5769 14.8214C20.5879 15.4683 20.7298 16.1063 20.994 16.6968C21.2583 17.2873 21.6394 17.8181 22.1143 18.2572C22.5892 18.6963 23.1481 19.0346 23.7573 19.2516C24.3665 19.4687 25.0133 19.56 25.6587 19.52C26.7146 19.3462 27.6986 18.8737 28.4945 18.1581C29.402 17.4091 30.1733 16.1152 29.6289 15.1165C29.4359 14.8044 29.1381 14.5712 28.7888 14.4589C28.4396 14.3466 28.0618 14.3624 27.7232 14.5037C27.3828 14.6042 27.091 14.8259 26.9029 15.127C26.7148 15.4282 26.6434 15.7878 26.7023 16.1379C26.7023 16.1379 25.3411 16.66 24.91 16.1379C24.7212 15.8494 24.6006 15.5216 24.5574 15.1794C24.5141 14.8372 24.5494 14.4897 24.6605 14.1632C24.9478 13.1449 25.5553 12.2463 26.393 11.6004C27.2306 10.9544 28.2539 10.5956 29.3113 10.5769C30.3298 10.6155 31.3022 11.0122 32.0574 11.6972C32.8126 12.3822 33.3022 13.3116 33.4402 14.3221C33.4771 15.6297 33.2614 16.9322 32.805 18.1581C31.3386 22.0746 31.1952 26.364 32.3966 30.3698C32.5884 31.0579 32.961 31.6819 33.4758 32.177C33.9905 32.672 34.6284 33.0199 35.3232 33.1844C35.5955 31.7998 36.0946 30.1655 37.4331 29.7115C38.0143 29.6105 38.611 29.6483 39.1748 29.8219C39.7386 29.9954 40.2534 30.2998 40.6773 30.7103C40.962 30.8709 41.1973 31.1064 41.3579 31.3912C41.4591 31.7164 41.4591 32.0647 41.3579 32.39C41.1537 35.0457 40.8361 37.6787 40.405 40.3117C37.7734 40.7429 35.119 41.0834 32.4874 41.2877C32.1595 41.3685 31.817 41.3685 31.4892 41.2877C31.2025 41.1219 30.9609 40.888 30.7859 40.6067C30.3772 40.1816 30.074 39.6665 29.9006 39.1027C29.7272 38.5389 29.6885 37.9423 29.7877 37.3609C30.2414 35.999 31.8975 35.4996 33.2814 35.2272C33.1064 34.5335 32.7523 33.8978 32.2546 33.384C31.757 32.8701 31.1332 32.496 30.4456 32.2992C26.4495 31.0972 22.1695 31.2407 18.2628 32.7077C17.0396 33.1717 15.7363 33.3878 14.4288 33.3433C13.417 33.2095 12.4855 32.7209 11.8001 31.9644C11.1146 31.208 10.7196 30.2327 10.6855 29.2122C10.7027 28.1572 11.0581 27.1356 11.6994 26.2979C12.3406 25.4602 13.2338 24.8506 14.2473 24.559C14.5736 24.4479 14.921 24.4126 15.263 24.4559C15.605 24.4991 15.9326 24.6198 16.221 24.8087C16.7428 25.24 16.221 26.6246 16.221 26.6246C15.8764 26.5603 15.5203 26.6271 15.2223 26.8118C14.9244 26.9966 14.7061 27.286 14.6103 27.6233C14.4592 27.9607 14.4382 28.3421 14.5513 28.6941C14.6644 29.0461 14.9035 29.3438 15.2228 29.53C16.221 30.0747 17.4915 29.3257 18.2628 28.395C18.9361 27.6173 19.3764 26.6654 19.5333 25.6485C19.599 24.9999 19.5304 24.3446 19.3318 23.7236C19.1331 23.1027 18.8086 22.5294 18.3785 22.0395C17.9485 21.5496 17.4222 21.1537 16.8324 20.8764C16.2426 20.5991 15.602 20.4464 14.9506 20.4279C13.5978 20.4807 12.285 20.9018 11.1537 21.6457C10.0224 22.3897 9.11531 23.4283 8.53024 24.6498C7.48825 26.6593 7.2686 28.9956 7.91772 31.1642C8.24474 32.2102 8.78158 33.1785 9.49543 34.0098C10.2093 34.8411 11.0851 35.518 12.0694 35.999C11.4495 36.4746 10.9128 37.0499 10.4813 37.7014C10.2539 38.0302 10.1174 38.4133 10.0855 38.8119C10.0536 39.2104 10.1275 39.6104 10.2998 39.9712C10.5401 40.3621 10.8862 40.6769 11.298 40.8791C13.4447 41.786 15.8014 42.0768 18.104 41.719C15.4497 44.6243 10.504 44.874 8.55294 48.2788C8.3649 48.5066 8.24404 48.7823 8.20397 49.075C8.16389 49.3677 8.20617 49.6658 8.32606 49.9358C8.48698 50.1492 8.69716 50.3205 8.93861 50.4351L11.4115 51.8424C10.344 52.1574 9.36217 52.7114 8.54062 53.4626C7.71907 54.2138 7.07933 55.1423 6.66994 56.1778C6.27678 57.1176 6.18172 58.1556 6.39768 59.1513C6.50423 59.6447 6.73845 60.1015 7.07687 60.476C7.41529 60.8504 7.84605 61.1294 8.32606 61.2849C9.07242 61.3861 9.8317 61.3293 10.5547 61.1182C11.2777 60.907 11.9484 60.5462 12.5231 60.0592C17.3499 56.9399 21.9036 53.4166 26.1351 49.5272C27.9687 47.4453 30.3152 45.8802 32.9411 44.9875C34.0097 44.7834 35.0996 44.7148 36.1853 44.7832C39.0892 44.7832 41.9931 44.7832 44.897 44.9421L44.7382 36.226C44.6936 35.1323 44.762 34.037 44.9424 32.9574C45.8477 30.3366 47.4099 27.992 49.4797 26.1479C53.3606 21.9144 56.8746 17.3583 59.9837 12.5289C60.4775 11.953 60.8439 11.2792 61.059 10.5515C61.274 9.8239 61.3328 9.05899 61.2314 8.30703C61.1084 7.82879 60.8674 7.38909 60.5305 7.02822C60.1936 6.66734 59.7716 6.39683 59.3031 6.24148V6.24148ZM15.7219 51.0934C14.8769 51.9768 13.9152 52.7405 12.8634 53.3632C12.8872 52.2828 13.3355 51.2553 14.1112 50.5032C14.8871 49.763 15.5519 48.9144 16.0849 47.9837C16.1113 47.9268 16.125 47.8648 16.125 47.8021C16.125 47.7394 16.1113 47.6774 16.0849 47.6205C16.0436 47.5245 15.9718 47.4448 15.8807 47.3935L14.5195 46.4175C16.326 45.3141 18.3575 44.6315 20.4635 44.4201C21.7566 44.2385 23.027 44.0342 24.2975 43.898C25.5571 43.937 26.8176 43.861 28.0635 43.671C23.4242 45.1413 19.1962 47.6841 15.7219 51.0934V51.0934ZM19.6694 36.7253C18.9661 36.8842 18.2402 37.0204 17.5142 37.1566C16.7882 37.2928 15.2455 36.748 16.3118 35.7947C17.3781 34.8414 18.8527 35.0684 19.7375 34.9549C22.4826 34.569 25.0915 35.0911 27.7912 34.9549C25.0385 35.3124 22.3213 35.9047 19.6694 36.7253V36.7253ZM34.4838 28.2362C34.6426 25.5351 34.1435 22.9247 34.4838 20.1783C34.6199 19.293 34.6426 17.4318 35.3459 16.7281C36.0492 16.0245 36.8432 16.9551 36.6844 17.9538C36.5256 18.9525 36.4122 19.3838 36.2534 20.1102C35.4612 22.7655 34.8995 25.4842 34.5746 28.2362L34.4838 28.2362ZM50.7502 16.0472C47.3769 19.5641 44.8613 23.8133 43.3997 28.4631C43.5976 27.225 43.6811 25.9713 43.6493 24.7179C43.7627 23.4241 43.9896 22.153 44.171 20.8819C44.3582 18.7697 45.0423 16.7319 46.1674 14.9349L47.1203 16.2741C47.1806 16.3717 47.2671 16.4503 47.3699 16.5011C47.4886 16.534 47.6141 16.534 47.7328 16.5011C48.6551 15.9561 49.5017 15.2921 50.2511 14.5264C50.6176 14.1407 51.057 13.8318 51.5438 13.6175C52.0306 13.4032 52.5551 13.2878 53.0869 13.278C52.4447 14.3083 51.6577 15.2409 50.7502 16.0472V16.0472Z" fill="#F0B253"/>
<path d="M16.5839 722.646L16.584 79.4439C16.5839 79.1829 16.686 78.9323 16.8683 78.7456C17.0506 78.559 17.2987 78.4511 17.5595 78.4452C33.6868 78.4332 49.1491 72.0133 60.5465 60.5973C71.9439 49.1814 78.3431 33.7039 78.3371 17.5683C78.337 17.3073 78.4391 17.0566 78.6214 16.87C78.8037 16.6833 79.0518 16.5755 79.3126 16.5696L466.597 16.5696C466.861 16.5696 467.115 16.6748 467.302 16.8621C467.49 17.0494 467.595 17.3034 467.595 17.5683C467.613 33.7 474.032 49.1644 485.442 60.5627C496.851 71.9611 512.317 78.3605 528.44 78.3544C528.58 78.3539 528.717 78.3824 528.845 78.4381C528.972 78.4939 529.086 78.5757 529.18 78.6783C529.274 78.7809 529.346 78.902 529.39 79.0338C529.435 79.1657 529.451 79.3054 529.439 79.444L529.439 722.647C529.439 722.911 529.333 723.165 529.146 723.353C528.959 723.54 528.705 723.645 528.44 723.645C512.329 723.663 496.883 730.076 485.492 741.477C474.102 752.878 467.698 768.334 467.686 784.454C467.674 784.585 467.637 784.713 467.576 784.83C467.515 784.947 467.431 785.051 467.33 785.135C467.229 785.219 467.112 785.283 466.986 785.322C466.86 785.361 466.728 785.374 466.597 785.362L79.3125 785.362C79.0538 785.362 78.8057 785.259 78.6228 785.076C78.4398 784.893 78.337 784.645 78.337 784.386C78.319 768.264 71.9099 752.807 60.5158 741.408C49.1217 730.008 33.6732 723.595 17.5595 723.577C17.3101 723.572 17.0715 723.474 16.891 723.301C16.7104 723.129 16.6009 722.896 16.5839 722.646V722.646ZM18.5577 80.2838L18.5577 721.67C34.846 721.951 50.3886 728.551 61.9058 740.078C73.423 751.606 80.014 767.158 80.2881 783.455L465.712 783.455C465.986 767.155 472.58 751.598 484.102 740.07C495.624 728.542 511.173 721.945 527.465 721.67L527.465 80.3292C511.173 80.0548 495.624 73.4572 484.102 61.9293C472.58 50.4013 465.986 34.845 465.712 18.5443L80.2881 18.5443C80.0197 34.8429 73.4305 50.3992 61.9121 61.9277C50.3937 73.4563 34.8478 80.0546 18.5577 80.3292L18.5577 80.2838Z" fill="#F0B253"/>
</svg>
