<svg width="546" height="802" viewBox="0 0 546 802" fill="none" xmlns="http://www.w3.org/2000/svg">
<path d="M546 799.367L546 2.63301C546 1.93469 545.723 1.26497 545.229 0.77119C544.736 0.277405 544.066 -8.45245e-08 543.368 -1.15033e-07L2.63171 -2.37514e-05C1.93372 -2.37819e-05 1.26434 0.277381 0.770813 0.771166C0.277283 1.26495 6.09506e-05 1.93467 6.09201e-05 2.63298L2.60947e-05 799.344C2.60642e-05 800.043 0.277248 800.712 0.770778 801.206C1.26431 801.7 1.93368 801.977 2.63168 801.977L543.368 801.977C544.062 801.977 544.728 801.703 545.221 801.214C545.714 800.725 545.994 800.061 546 799.367V799.367ZM5.26327 796.711L5.26331 5.26599L540.737 5.26601L540.737 796.711L5.26327 796.711Z" fill="#ACCECC"/>
<path d="M485.585 30.6431C484.294 32.2307 483.66 34.2538 483.816 36.295C483.584 39.9735 484.117 43.6601 485.381 47.1221C485.948 48.5294 486.697 49.8686 487.196 51.2986C487.857 53.2151 488.051 55.2616 487.763 57.2683C487.037 57.9492 487.491 57.2683 486.697 57.9492C487.355 57.6541 485.064 60.4006 485.767 60.2191C485.608 60.9227 488.353 58.6302 488.036 59.2884C488.625 58.494 488.036 58.9479 488.716 58.2216C490.722 57.9337 492.767 58.1282 494.683 58.7891C496.112 59.2884 497.45 60.0375 498.857 60.5822C502.318 61.8778 506.013 62.427 509.701 62.1938C511.74 62.3402 513.759 61.7075 515.35 60.4233C515.922 59.7602 516.355 58.9881 516.621 58.1535C516.782 57.6974 516.896 57.2258 516.961 56.7462C516.985 56.0594 516.856 55.3759 516.586 54.7442C516.315 54.1126 515.909 53.5484 515.396 53.0918C514.368 52.1729 513.052 51.6429 511.675 51.5937C510.885 51.5229 510.093 51.6973 509.406 52.0931C506.979 53.7046 510.11 56.8143 510.904 54.6126C511.131 53.977 510.904 53.1826 511.834 53.0691C512.764 52.9556 514.102 54.0905 514.352 55.0438C514.514 55.7436 514.442 56.4769 514.148 57.1321C513.765 57.9106 513.147 58.5488 512.382 58.9562C511.616 59.3636 510.742 59.5196 509.883 59.4019C509.486 59.3768 509.101 59.259 508.758 59.0579C508.416 58.8569 508.125 58.5782 507.909 58.2443C507.546 57.586 507.614 56.7008 507.07 56.1788C506.821 55.9802 506.524 55.8505 506.21 55.8026C505.895 55.7548 505.574 55.7906 505.277 55.9064C504.704 56.1544 504.112 56.3592 503.508 56.5192C502.82 56.5553 502.137 56.3787 501.552 56.0132C500.968 55.6477 500.51 55.1112 500.241 54.4764C499.999 53.8283 499.892 53.1374 499.927 52.4464C499.962 51.7554 500.138 51.0789 500.445 50.4588C500.672 49.9594 500.944 49.4827 501.148 48.9834C501.512 47.8232 501.582 46.591 501.353 45.397L501.353 45.2609C501.384 45.165 501.384 45.0617 501.353 44.9658C501.353 44.9658 501.171 44.9658 501.08 44.9658C501.036 44.9764 500.989 44.9764 500.944 44.9658C499.748 44.7547 498.519 44.8325 497.36 45.1928C496.838 45.397 496.384 45.6694 495.885 45.8964C495.198 46.1993 494.451 46.3424 493.7 46.3149C492.95 46.2873 492.215 46.09 491.552 45.7375C490.895 45.4817 490.338 45.0216 489.962 44.425C489.586 43.8284 489.412 43.1268 489.465 42.4236C489.625 41.819 489.829 41.2272 490.077 40.6531C490.193 40.3527 490.228 40.0275 490.181 39.7092C490.133 39.391 490.003 39.0905 489.805 38.8372C489.283 38.3152 488.398 38.3833 487.741 38.0201C487.407 37.8044 487.128 37.5133 486.927 37.1704C486.726 36.8274 486.609 36.4421 486.584 36.0453C486.469 35.1861 486.627 34.3128 487.034 33.5476C487.44 32.7823 488.076 32.1636 488.852 31.778C489.509 31.4628 490.257 31.3904 490.962 31.5738C491.915 31.8461 493.095 33.0038 492.936 34.0933C492.777 35.1828 492.028 34.7969 491.393 35.0239C489.124 35.8184 492.301 38.9507 493.911 36.4993C494.313 35.8142 494.487 35.0198 494.41 34.2295C494.352 32.8537 493.823 31.5397 492.913 30.5069C492.449 30.0152 491.885 29.6291 491.258 29.3745C490.632 29.12 489.959 29.003 489.283 29.0315C488.763 29.0748 488.252 29.1894 487.763 29.372C486.961 29.6492 486.221 30.081 485.585 30.6431ZM496.77 49.2331C496.498 50.5496 495.999 52.0023 494.751 52.3881C494.342 52.4835 493.922 52.5217 493.503 52.5016C493.483 52.0822 493.521 51.6621 493.616 51.2532C494.002 49.9367 495.454 49.5054 496.77 49.2331Z" fill="#ACCECC"/>
<path d="M484.746 8.12619C484.645 8.87815 484.703 9.64306 484.918 10.3707C485.133 11.0983 485.5 11.7722 485.994 12.3481C489.103 17.1832 492.625 21.7398 496.52 25.9671C498.585 27.8158 500.146 30.1589 501.058 32.7766C501.25 33.8548 501.318 34.9514 501.262 36.0451L501.103 44.7613C504.007 44.7613 506.911 44.6478 509.815 44.6024C510.9 44.5339 511.99 44.6026 513.059 44.8067C515.722 45.6893 518.108 47.2545 519.978 49.3464C524.203 53.2434 528.758 56.7673 533.59 59.8784C534.158 60.3999 534.829 60.795 535.561 61.0376C536.292 61.2802 537.066 61.3648 537.833 61.2857C538.297 61.1237 538.712 60.8475 539.041 60.4826C539.37 60.1176 539.602 59.6757 539.716 59.1974C539.935 58.2001 539.832 57.1587 539.421 56.224C539.021 55.1716 538.382 54.2263 537.556 53.4622C536.729 52.6982 535.737 52.1363 534.657 51.8205L537.152 50.4132C537.395 50.3001 537.611 50.1378 537.787 49.9365C537.909 49.6694 537.956 49.3747 537.924 49.0831C537.892 48.7916 537.782 48.514 537.606 48.2795C535.655 44.8748 530.686 44.6251 528.055 41.7197C530.357 42.0812 532.715 41.7903 534.861 40.8799C535.274 40.6715 535.626 40.3585 535.882 39.972C536.054 39.6111 536.128 39.2112 536.096 38.8126C536.064 38.414 535.928 38.0309 535.7 37.7021C535.262 37.0558 534.727 36.4814 534.112 35.9997C535.091 35.5141 535.961 34.8354 536.671 34.0045C537.38 33.1737 537.914 32.2078 538.241 31.165C538.89 28.9963 538.671 26.6601 537.629 24.6506C537.047 23.4309 536.144 22.393 535.017 21.649C533.889 20.905 532.58 20.4831 531.231 20.4287C530.584 20.4334 529.946 20.5704 529.354 20.8312C528.763 21.0919 528.23 21.471 527.791 21.9451C527.351 22.4192 527.012 22.9782 526.797 23.5879C526.581 24.1976 526.492 24.845 526.535 25.4904C526.699 26.5274 527.155 27.4959 527.851 28.2823C528.599 29.2129 529.892 29.962 530.891 29.4172C531.206 29.2275 531.442 28.9297 531.555 28.579C531.668 28.2284 531.649 27.8487 531.503 27.5106C531.398 27.1742 531.175 26.8875 530.874 26.7037C530.574 26.52 530.217 26.4518 529.87 26.5118C529.87 26.5118 529.348 25.1272 529.87 24.696C530.158 24.5071 530.486 24.3864 530.828 24.3431C531.17 24.2999 531.517 24.3351 531.844 24.4463C532.858 24.7402 533.752 25.3497 534.396 26.1864C535.041 27.0231 535.402 28.0434 535.428 29.0994C535.389 30.1186 534.993 31.0914 534.308 31.847C533.624 32.6026 532.695 33.0925 531.685 33.2305C530.377 33.2787 529.073 33.0626 527.851 32.595C523.936 31.1279 519.649 30.9844 515.645 32.1864C514.958 32.3833 514.334 32.7574 513.836 33.2712C513.339 33.7851 512.984 34.4207 512.809 35.1145C514.216 35.3869 515.849 35.8862 516.303 37.2481C516.402 37.8296 516.364 38.4262 516.19 38.99C516.017 39.5537 515.714 40.0689 515.305 40.494C515.142 40.785 514.898 41.0218 514.602 41.175C514.281 41.2557 513.946 41.2557 513.626 41.175C510.972 40.9707 508.34 40.6302 505.708 40.1989C505.277 37.5659 504.937 34.9329 504.733 32.2772C504.653 31.9491 504.653 31.6066 504.733 31.2785C504.894 30.9937 505.129 30.7582 505.414 30.5975C505.838 30.1886 506.353 29.8852 506.917 29.7118C507.48 29.5383 508.077 29.4996 508.658 29.5988C510.019 30.0528 510.495 31.6871 510.79 33.0717C511.481 32.9036 512.114 32.5541 512.625 32.0593C513.135 31.5645 513.504 30.9423 513.694 30.2571C514.899 26.2962 514.788 22.051 513.377 18.1589C512.902 16.9373 512.678 15.6327 512.719 14.3228C512.862 13.3105 513.356 12.3807 514.115 11.696C514.874 11.0114 515.849 10.6155 516.87 10.5776C517.928 10.5963 518.951 10.9552 519.789 11.6011C520.626 12.247 521.234 13.1457 521.521 14.1639C521.629 14.4921 521.66 14.8406 521.613 15.1828C521.566 15.525 521.441 15.852 521.249 16.1387C520.84 16.6608 519.457 16.1387 519.457 16.1387C519.515 15.7885 519.444 15.4289 519.256 15.1278C519.068 14.8267 518.776 14.6049 518.436 14.5044C518.097 14.3632 517.719 14.3473 517.37 14.4596C517.021 14.5719 516.723 14.8051 516.53 15.1173C516.008 16.116 516.757 17.3871 517.664 18.1589C518.443 18.8345 519.393 19.2822 520.409 19.4527C521.064 19.5056 521.723 19.4233 522.344 19.2107C522.965 18.9982 523.536 18.6599 524.022 18.2171C524.507 17.7743 524.896 17.2363 525.164 16.6366C525.433 16.037 525.575 15.3884 525.582 14.7314C525.519 13.3716 525.084 12.0552 524.324 10.9263C523.564 9.79736 522.508 8.89934 521.272 8.33048C519.263 7.28796 516.928 7.06817 514.76 7.71762C513.714 8.0361 512.745 8.56743 511.913 9.27831C511.082 9.98919 510.406 10.8643 509.928 11.8487C509.445 11.2277 508.862 10.6909 508.204 10.2598C507.875 10.0323 507.492 9.8957 507.094 9.86382C506.696 9.83193 506.296 9.9059 505.935 10.0782C505.549 10.3241 505.236 10.669 505.028 11.077C504.113 13.2225 503.822 15.5828 504.188 17.8865C501.285 15.2535 501.012 10.2825 497.632 8.33047C497.408 8.17817 497.15 8.08391 496.881 8.05617C496.611 8.02844 496.34 8.0681 496.089 8.17159C495.875 8.3409 495.704 8.55873 495.59 8.80714L494.161 11.3494C493.846 10.2786 493.293 9.29333 492.542 8.46767C491.791 7.64201 490.863 6.99751 489.828 6.5827C488.888 6.19077 487.851 6.09572 486.856 6.31032C486.384 6.41954 485.945 6.64184 485.577 6.95813C485.21 7.27443 484.925 7.67526 484.746 8.12619ZM518.05 43.7626C519.288 43.953 520.541 44.0289 521.793 43.9896C523.086 44.1257 524.357 44.33 525.627 44.5116C527.734 44.7199 529.766 45.4028 531.571 46.5091L530.21 47.4851C530.131 47.5496 530.062 47.6262 530.006 47.7121C529.962 47.8292 529.962 47.9581 530.006 48.0753C530.539 49.0059 531.204 49.8545 531.98 50.5948C532.755 51.3468 533.204 52.3743 533.227 53.4548C532.179 52.8371 531.224 52.0728 530.392 51.1849C526.91 47.785 522.684 45.2437 518.05 43.7626ZM518.277 34.9102C520.977 35.0918 523.586 34.5697 526.331 34.9102C527.215 34.9102 529.076 35.0691 529.756 35.7501C530.437 36.431 529.552 37.2708 528.554 37.112C527.556 36.9531 527.125 36.8396 526.285 36.6807C523.67 35.8663 520.991 35.2741 518.277 34.9102ZM509.701 20.1109L509.27 17.9546C509.111 16.9558 509.656 15.6847 510.631 16.7289C511.607 17.773 511.357 19.2938 511.471 20.179C511.834 22.9255 511.335 25.5358 511.471 28.2369C511.105 25.4842 510.513 22.7663 509.701 20.1109ZM492.981 13.3014C493.514 13.3061 494.04 13.4192 494.528 13.6338C495.015 13.8484 495.454 14.1601 495.817 14.5498C496.576 15.2893 497.43 15.923 498.358 16.4338C498.477 16.4678 498.602 16.4678 498.721 16.4338C498.813 16.376 498.89 16.2984 498.948 16.2068L499.901 14.8676C501.068 16.6764 501.784 18.7393 501.988 20.8827C502.192 22.1538 502.396 23.4249 502.532 24.7187C502.493 25.9714 502.569 27.2251 502.759 28.4639C501.3 23.8181 498.793 19.5701 495.431 16.0479C494.512 15.2214 493.717 14.2656 493.072 13.2106L492.981 13.3014Z" fill="#ACCECC"/>
<path d="M487.831 772.266C488.32 772.449 488.831 772.563 489.351 772.606C490.036 772.63 490.717 772.504 491.347 772.237C491.978 771.971 492.543 771.57 493.004 771.063C493.914 770.03 494.443 768.716 494.501 767.34C494.578 766.55 494.403 765.756 494.002 765.071C492.391 762.619 489.283 765.751 491.484 766.546C492.119 766.773 492.913 766.546 493.027 767.477C493.14 768.407 492.006 769.746 491.053 769.996C490.347 770.179 489.6 770.107 488.943 769.792C488.167 769.406 487.531 768.787 487.124 768.022C486.718 767.257 486.56 766.384 486.674 765.525C486.699 765.128 486.817 764.742 487.018 764.399C487.219 764.057 487.498 763.766 487.831 763.55C488.489 763.187 489.374 763.255 489.896 762.733C490.094 762.479 490.224 762.179 490.271 761.861C490.319 761.542 490.283 761.217 490.168 760.917C489.92 760.343 489.715 759.751 489.555 759.146C489.501 758.457 489.664 757.769 490.023 757.178C490.381 756.587 490.916 756.125 491.552 755.855C492.197 755.604 492.887 755.49 493.579 755.521C494.27 755.553 494.948 755.728 495.567 756.037C496.067 756.264 496.52 756.536 497.042 756.74C498.2 757.111 499.431 757.189 500.627 756.967C500.671 756.957 500.718 756.957 500.763 756.967C500.763 756.967 500.967 756.967 501.035 756.967C501.103 756.967 501.035 756.967 501.035 756.967C501.066 756.871 501.066 756.768 501.035 756.672L501.035 756.536C501.264 755.342 501.194 754.11 500.831 752.95C500.627 752.45 500.354 751.974 500.127 751.474C499.821 750.854 499.644 750.178 499.609 749.487C499.574 748.796 499.681 748.105 499.923 747.457C500.189 746.802 500.654 746.248 501.253 745.873C501.852 745.498 502.553 745.321 503.258 745.368C503.862 745.528 504.454 745.733 505.028 745.981C505.324 746.097 505.646 746.133 505.96 746.085C506.275 746.037 506.571 745.907 506.82 745.709C507.365 745.187 507.296 744.302 507.659 743.643C507.879 743.313 508.171 743.037 508.513 742.837C508.855 742.636 509.238 742.516 509.633 742.486C510.516 742.268 511.446 742.348 512.279 742.713C513.111 743.079 513.8 743.709 514.239 744.506C514.533 745.161 514.604 745.894 514.443 746.594C514.171 747.547 513.013 748.728 511.925 748.569C510.836 748.41 511.221 747.661 510.994 747.025C510.2 744.756 507.07 747.933 509.497 749.545C510.184 749.941 510.976 750.115 511.766 750.044C513.143 749.995 514.459 749.465 515.486 748.546C515.998 748.093 516.403 747.533 516.674 746.905C516.944 746.277 517.073 745.598 517.052 744.914C516.998 744.389 516.883 743.871 516.711 743.371C516.445 742.536 516.013 741.764 515.441 741.101C513.85 739.817 511.831 739.184 509.792 739.331C506.113 739.093 502.426 739.635 498.97 740.92C497.564 741.464 496.225 742.213 494.796 742.713C492.88 743.369 490.837 743.572 488.83 743.303C488.149 742.554 488.83 743.008 488.149 742.213C488.444 742.872 485.699 740.579 485.88 741.283C485.177 741.124 487.468 743.87 486.81 743.553C487.604 744.143 487.151 743.553 487.877 744.234C488.164 746.24 487.97 748.287 487.31 750.203C486.81 751.633 486.062 752.972 485.495 754.38C484.231 757.842 483.698 761.528 483.929 765.207C483.774 767.248 484.407 769.271 485.699 770.859C486.309 771.464 487.034 771.943 487.831 772.266ZM493.616 750.385C493.521 749.976 493.483 749.556 493.503 749.136C493.917 749.079 494.337 749.079 494.751 749.136C495.999 749.522 496.498 750.975 496.77 752.291C495.454 752.133 494.002 751.656 493.616 750.385Z" fill="#ACCECC"/>
<path d="M486.856 795.394C487.851 795.609 488.888 795.514 489.828 795.122C490.863 794.707 491.791 794.063 492.542 793.237C493.293 792.411 493.846 791.426 494.161 790.355L495.568 792.83C495.681 793.078 495.852 793.296 496.067 793.465C496.334 793.586 496.628 793.633 496.92 793.601C497.211 793.569 497.488 793.46 497.723 793.283C501.103 791.331 501.375 786.36 504.279 783.727C503.913 786.031 504.204 788.391 505.119 790.537C505.327 790.945 505.64 791.29 506.026 791.536C506.387 791.708 506.786 791.782 507.185 791.75C507.583 791.718 507.966 791.582 508.295 791.354C508.953 790.923 509.536 790.386 510.019 789.765C510.497 790.75 511.172 791.625 512.004 792.336C512.835 793.047 513.805 793.578 514.851 793.896C517.019 794.546 519.354 794.326 521.362 793.283C522.578 792.704 523.613 791.804 524.357 790.68C525.1 789.556 525.524 788.251 525.582 786.905C525.571 786.258 525.429 785.62 525.165 785.03C524.901 784.439 524.52 783.909 524.045 783.469C523.57 783.03 523.011 782.692 522.402 782.475C521.792 782.258 521.146 782.167 520.5 782.207C519.484 782.377 518.534 782.825 517.755 783.5C516.848 784.25 516.099 785.543 516.621 786.542C516.814 786.854 517.112 787.087 517.461 787.2C517.81 787.312 518.188 787.296 518.526 787.155C518.867 787.054 519.159 786.833 519.347 786.532C519.535 786.23 519.606 785.871 519.547 785.521C519.547 785.521 520.931 784.999 521.34 785.521C521.532 785.807 521.657 786.134 521.704 786.477C521.751 786.819 521.72 787.167 521.612 787.495C521.324 788.514 520.717 789.412 519.879 790.058C519.042 790.704 518.018 791.063 516.961 791.082C515.94 791.044 514.964 790.648 514.206 789.963C513.447 789.279 512.952 788.349 512.809 787.337C512.769 786.027 512.993 784.722 513.467 783.5C514.926 779.581 515.062 775.292 513.853 771.289C513.663 770.603 513.294 769.981 512.783 769.487C512.273 768.992 511.64 768.642 510.949 768.474C510.654 769.859 510.178 771.493 508.817 771.947C508.235 772.046 507.639 772.008 507.076 771.834C506.512 771.661 505.997 771.357 505.572 770.948C505.288 770.788 505.052 770.552 504.892 770.267C504.812 769.939 504.812 769.597 504.892 769.269C505.096 766.613 505.436 763.98 505.867 761.347C508.499 760.916 511.131 760.575 513.785 760.371C514.105 760.29 514.44 760.29 514.76 760.371C515.056 760.524 515.301 760.761 515.464 761.052C515.872 761.477 516.176 761.992 516.349 762.556C516.522 763.12 516.561 763.716 516.462 764.298C516.008 765.66 514.375 766.159 512.968 766.431C513.109 767.125 513.428 767.77 513.894 768.303C514.359 768.836 514.955 769.239 515.623 769.473C519.636 770.673 523.932 770.521 527.851 769.042C529.073 768.574 530.377 768.358 531.685 768.406C532.695 768.544 533.624 769.034 534.308 769.79C534.993 770.545 535.389 771.518 535.428 772.537C535.379 773.574 535.007 774.568 534.364 775.383C533.721 776.197 532.84 776.789 531.844 777.077C531.517 777.188 531.17 777.223 530.828 777.18C530.486 777.137 530.158 777.016 529.87 776.827C529.348 776.396 529.87 775.011 529.87 775.011C530.217 775.071 530.574 775.003 530.874 774.819C531.175 774.636 531.398 774.349 531.503 774.013C531.649 773.674 531.668 773.295 531.555 772.944C531.442 772.593 531.206 772.296 530.891 772.106C529.892 771.561 528.622 772.31 527.851 773.241C527.171 774.017 526.723 774.969 526.558 775.987C526.514 776.633 526.603 777.28 526.819 777.89C527.035 778.5 527.373 779.059 527.813 779.533C528.253 780.007 528.785 780.386 529.377 780.647C529.968 780.907 530.607 781.044 531.254 781.049C532.603 780.995 533.912 780.573 535.04 779.829C536.167 779.085 537.07 778.047 537.651 776.827C538.693 774.818 538.913 772.481 538.264 770.313C537.937 769.27 537.403 768.304 536.693 767.473C535.984 766.642 535.113 765.964 534.135 765.478C534.749 764.996 535.285 764.422 535.723 763.776C535.95 763.447 536.087 763.064 536.119 762.665C536.151 762.267 536.077 761.867 535.904 761.506C535.649 761.119 535.297 760.806 534.884 760.598C532.735 759.699 530.38 759.408 528.078 759.758C530.709 756.853 535.678 756.603 537.629 753.198C537.805 752.964 537.914 752.686 537.946 752.395C537.978 752.103 537.931 751.808 537.81 751.541C537.636 751.332 537.419 751.162 537.175 751.042L534.657 749.816C535.726 749.504 536.709 748.951 537.531 748.2C538.353 747.448 538.992 746.518 539.398 745.481C539.809 744.546 539.913 743.505 539.693 742.507C539.576 742.031 539.343 741.591 539.014 741.226C538.685 740.862 538.272 740.585 537.81 740.419C537.06 740.319 536.298 740.376 535.571 740.587C534.845 740.798 534.17 741.158 533.59 741.645C528.763 744.763 524.209 748.287 519.978 752.177C518.108 754.269 515.722 755.834 513.059 756.716C511.99 756.921 510.9 756.989 509.815 756.921C506.911 756.921 504.007 756.921 501.103 756.762L501.262 765.478C501.318 766.572 501.25 767.668 501.058 768.747C500.146 771.364 498.585 773.707 496.52 775.556C492.625 779.783 489.103 784.34 485.994 789.175C485.5 789.751 485.133 790.425 484.918 791.152C484.703 791.88 484.645 792.645 484.746 793.397C484.899 793.882 485.174 794.319 485.543 794.669C485.912 795.018 486.364 795.268 486.856 795.394ZM530.46 750.542C531.292 749.655 532.247 748.89 533.295 748.273C533.272 749.353 532.823 750.381 532.048 751.133C531.293 751.855 530.644 752.68 530.119 753.584C530.076 753.701 530.076 753.83 530.119 753.947C530.175 754.033 530.244 754.11 530.323 754.174L531.685 755.15C529.83 756.271 527.741 756.947 525.582 757.125C524.312 757.307 523.041 757.511 521.748 757.647C520.496 757.608 519.243 757.684 518.005 757.874C522.671 756.435 526.936 753.925 530.46 750.542ZM526.399 764.933C527.125 764.752 527.828 764.615 528.667 764.479C529.507 764.343 530.936 764.888 529.87 765.841C528.803 766.794 527.329 766.568 526.444 766.681C523.699 767.067 521.09 766.545 518.39 766.681C521.102 766.314 523.78 765.73 526.399 764.933ZM511.607 773.4C511.426 776.101 511.925 778.711 511.607 781.458C511.494 782.343 511.448 784.204 510.768 784.908C510.087 785.611 509.248 784.681 509.406 783.682L509.837 781.526C510.649 778.87 511.241 776.152 511.607 773.4ZM495.431 785.589C498.793 782.067 501.3 777.819 502.759 773.173C502.569 774.412 502.493 775.665 502.532 776.918C502.396 778.212 502.192 779.483 501.988 780.754C501.801 782.866 501.117 784.904 499.991 786.701L499.039 785.362C498.981 785.27 498.903 785.193 498.812 785.135C498.693 785.101 498.567 785.101 498.449 785.135C497.515 785.674 496.66 786.338 495.908 787.11C495.545 787.499 495.106 787.811 494.618 788.026C494.131 788.24 493.605 788.353 493.072 788.358C493.722 787.327 494.517 786.394 495.431 785.589Z" fill="#ACCECC"/>
<path d="M60.5054 770.994C61.8077 769.412 62.4425 767.385 62.2749 765.342C62.5065 761.664 61.9735 757.977 60.7095 754.515C60.1424 753.108 59.3937 751.769 58.9173 750.339C58.2492 748.424 58.047 746.377 58.3274 744.369C59.0534 743.688 58.5997 744.369 59.4164 743.688C58.7358 743.983 61.0498 741.237 60.3239 741.418C60.5054 740.715 57.7376 743.007 58.0552 742.349C57.4653 743.143 58.0552 742.689 57.3973 743.416C55.3842 743.704 53.3312 743.51 51.408 742.848C49.9788 742.349 48.6403 741.6 47.2564 741.055C43.8 739.774 40.1134 739.232 36.4348 739.466C34.3955 739.317 32.3759 739.95 30.7858 741.237C29.8919 742.319 29.3252 743.634 29.1524 745.027C29.1368 745.71 29.2686 746.387 29.5388 747.014C29.8089 747.641 30.2111 748.202 30.7178 748.659C31.75 749.57 33.0634 750.098 34.4384 750.157C35.2279 750.228 36.0201 750.053 36.707 749.658C39.1345 748.046 36.0038 744.936 35.2324 747.138C34.9829 747.774 35.2324 748.568 34.2796 748.682C33.3268 748.795 32.0109 747.66 31.7614 746.707C31.5999 746.007 31.6716 745.274 31.9655 744.619C32.3522 743.838 32.9742 743.199 33.7436 742.792C34.5131 742.385 35.391 742.23 36.2533 742.349C36.6473 742.372 37.0299 742.489 37.3693 742.691C37.7088 742.892 37.9951 743.172 38.2044 743.506C38.5674 744.165 38.4993 745.05 39.0438 745.572C39.2924 745.771 39.5889 745.9 39.9035 745.948C40.2181 745.996 40.5396 745.96 40.836 745.844C41.4111 745.6 42.0024 745.395 42.6056 745.231C43.3104 745.184 44.012 745.361 44.6108 745.736C45.2095 746.111 45.6748 746.665 45.9405 747.32C46.1828 747.968 46.2896 748.659 46.2545 749.35C46.2194 750.041 46.043 750.717 45.7364 751.337C45.5322 751.837 45.2372 752.313 45.0558 752.813C44.6732 753.969 44.5951 755.204 44.8289 756.399L44.8289 756.535C44.808 756.632 44.808 756.733 44.8289 756.83C44.9186 756.85 45.0115 756.85 45.1011 756.83C45.1459 756.82 45.1925 756.82 45.2373 756.83C46.433 757.042 47.6622 756.964 48.8217 756.603C49.3435 756.399 49.8199 756.127 50.2964 755.9C50.92 755.591 51.6011 755.415 52.2964 755.384C52.9916 755.352 53.6857 755.466 54.3346 755.718C54.9893 755.977 55.5446 756.438 55.9199 757.034C56.2952 757.629 56.471 758.329 56.4218 759.032C56.2516 759.633 56.0471 760.225 55.8092 760.803C55.6938 761.103 55.6582 761.428 55.7059 761.746C55.7537 762.065 55.8831 762.365 56.0815 762.618C56.6033 763.14 57.4653 763.072 58.1233 763.436C58.4564 763.654 58.7357 763.945 58.9401 764.287C59.1444 764.629 59.2685 765.013 59.303 765.41C59.4171 766.269 59.2597 767.143 58.8529 767.908C58.4461 768.673 57.8102 769.292 57.0343 769.678C56.3772 769.993 55.6298 770.065 54.9244 769.882C54.3752 769.718 53.8904 769.388 53.5368 768.936C53.1833 768.485 52.9785 767.935 52.9507 767.362C53.0868 766.523 53.8582 766.659 54.5161 766.432C56.7848 765.637 53.5859 762.505 51.9979 764.956C51.5741 765.632 51.3977 766.435 51.4988 767.226C51.5363 768.606 52.0676 769.927 52.9961 770.949C53.4521 771.455 54.0133 771.856 54.6403 772.122C55.2673 772.389 55.945 772.515 56.6259 772.492C57.1528 772.447 57.6715 772.332 58.1686 772.152C59.0208 771.936 59.8174 771.542 60.5054 770.994ZM49.3209 752.404C49.6158 751.088 50.0922 749.635 51.3626 749.249C51.769 749.192 52.1813 749.192 52.5877 749.249C52.6452 749.663 52.6452 750.083 52.5877 750.498C52.1567 751.655 50.7047 752.132 49.3889 752.404L49.3209 752.404Z" fill="#ACCECC"/>
<path d="M61.4128 793.511C61.5142 792.759 61.4554 791.994 61.2404 791.267C61.0253 790.539 60.6589 789.865 60.1651 789.289C57.056 784.46 53.5421 779.904 49.6611 775.67C47.5914 773.826 46.0291 771.482 45.1238 768.861C44.9434 767.781 44.875 766.686 44.9196 765.592L45.0784 756.876C42.1745 756.876 39.2707 756.876 36.3668 757.035C35.2811 757.103 34.1911 757.035 33.1226 756.831C30.4966 755.938 28.1501 754.373 26.3166 752.291C22.085 748.401 17.5314 744.878 12.7046 741.759C12.1298 741.272 11.4592 740.911 10.7362 740.7C10.0132 740.489 9.25394 740.432 8.50758 740.533C8.0416 740.691 7.62391 740.966 7.29428 741.332C6.96466 741.697 6.73409 742.141 6.62458 742.621C6.40863 743.617 6.50365 744.655 6.89681 745.595C7.3062 746.63 7.94593 747.559 8.76748 748.31C9.58903 749.061 10.5708 749.615 11.6383 749.93L9.16548 751.338C8.92402 751.452 8.71388 751.623 8.55296 751.837C8.42686 752.103 8.37705 752.399 8.4091 752.691C8.44114 752.984 8.55375 753.262 8.73442 753.494C10.6855 756.899 15.5404 757.148 18.2855 760.054C15.9828 759.707 13.629 759.997 11.4795 760.894C11.0677 761.096 10.7216 761.411 10.4813 761.801C10.3091 762.162 10.2351 762.562 10.267 762.961C10.2989 763.359 10.4354 763.742 10.6628 764.071C11.0943 764.723 11.631 765.298 12.2509 765.774C11.2666 766.255 10.3908 766.932 9.67691 767.763C8.96306 768.594 8.42621 769.562 8.0992 770.608C7.45008 772.777 7.66977 775.113 8.71175 777.123C9.29682 778.344 10.2039 779.383 11.3352 780.127C12.4665 780.871 13.7793 781.292 15.1321 781.345C15.7766 781.337 16.4128 781.198 17.0018 780.936C17.5908 780.673 18.1202 780.294 18.5576 779.82C18.995 779.346 19.3312 778.788 19.5458 778.18C19.7604 777.572 19.8487 776.927 19.8055 776.283C19.6486 775.266 19.2083 774.314 18.5351 773.537C17.7637 772.606 16.4933 771.857 15.4951 772.402C15.1758 772.588 14.9366 772.886 14.8235 773.237C14.7105 773.589 14.7315 773.971 14.8825 774.308C14.9783 774.646 15.1966 774.935 15.4946 775.12C15.7925 775.305 16.1487 775.371 16.4933 775.307C16.4933 775.307 17.0151 776.692 16.4933 777.123C16.2049 777.312 15.8772 777.432 15.5352 777.476C15.1932 777.519 14.8459 777.484 14.5195 777.373C13.524 777.087 12.644 776.494 12.0045 775.679C11.365 774.864 10.9987 773.868 10.9577 772.833C10.9919 771.812 11.3869 770.837 12.0723 770.081C12.7578 769.324 13.6893 768.836 14.701 768.702C16.0085 768.657 17.3118 768.873 18.5351 769.337C22.4417 770.804 26.7217 770.948 30.7178 769.746C31.3921 769.484 31.9848 769.048 32.4353 768.481C32.8857 767.915 33.1777 767.239 33.2814 766.523C31.8975 766.25 30.2414 765.751 29.7877 764.389C29.6885 763.808 29.7272 763.211 29.9005 762.647C30.0739 762.083 30.3771 761.568 30.7858 761.143C30.9609 760.862 31.2025 760.628 31.4892 760.462C31.817 760.381 32.1595 760.381 32.4873 760.462C35.119 760.667 37.7733 761.007 40.405 761.438C40.836 764.071 41.1536 766.704 41.3578 769.36C41.459 769.685 41.459 770.034 41.3578 770.359C41.1973 770.644 40.9619 770.879 40.6772 771.04C40.2534 771.45 39.7385 771.755 39.1748 771.928C38.611 772.102 38.0142 772.139 37.433 772.038C36.0945 771.584 35.5954 769.95 35.3232 768.566C34.6284 768.73 33.9904 769.078 33.4757 769.573C32.961 770.068 32.5884 770.692 32.3966 771.38C31.1952 775.386 31.3386 779.675 32.8049 783.592C33.2613 784.818 33.4771 786.12 33.4402 787.428C33.3022 788.438 32.8125 789.368 32.0574 790.053C31.3022 790.738 30.3298 791.134 29.3112 791.173C28.2538 791.154 27.2306 790.796 26.3929 790.15C25.5553 789.504 24.9478 788.605 24.6605 787.587C24.5494 787.26 24.5141 786.913 24.5574 786.571C24.6006 786.228 24.7212 785.901 24.91 785.612C25.3411 785.09 26.7023 785.612 26.7023 785.612C26.6434 785.962 26.7147 786.322 26.9028 786.623C27.0909 786.924 27.3828 787.146 27.7232 787.246C28.0618 787.388 28.4396 787.403 28.7888 787.291C29.1381 787.179 29.4359 786.946 29.6288 786.633C30.1733 785.635 29.402 784.364 28.4945 783.592C27.7158 782.916 26.7659 782.469 25.7494 782.298C25.104 782.258 24.4572 782.349 23.848 782.566C23.2388 782.784 22.6799 783.122 22.205 783.561C21.7301 784 21.349 784.531 21.0848 785.121C20.8206 785.712 20.6786 786.35 20.6676 786.997C20.7269 788.346 21.1506 789.653 21.8937 790.78C22.6367 791.908 23.6713 792.812 24.8873 793.398C26.9035 794.441 29.2461 794.661 31.4211 794.01C32.4607 793.691 33.4238 793.161 34.251 792.454C35.0782 791.748 35.7519 790.879 36.2307 789.902C36.7141 790.523 37.2966 791.06 37.9548 791.491C38.2835 791.718 38.6664 791.855 39.0648 791.887C39.4631 791.919 39.8629 791.845 40.2235 791.672C40.6097 791.427 40.923 791.082 41.131 790.674C42.0428 788.528 42.3412 786.17 41.993 783.864C44.8969 786.497 45.1465 791.468 48.5268 793.42C48.7612 793.596 49.0386 793.706 49.33 793.738C49.6214 793.77 49.916 793.723 50.1829 793.602C50.3972 793.433 50.5683 793.215 50.682 792.966C51.1585 792.149 51.6349 791.332 52.0886 790.492C52.4109 791.559 52.9671 792.541 53.7167 793.366C54.4664 794.19 55.3905 794.837 56.4217 795.259C57.3614 795.651 58.3985 795.746 59.3937 795.531C59.8737 795.393 60.3107 795.135 60.6639 794.782C61.0171 794.429 61.2747 793.991 61.4128 793.511ZM28.1315 757.875C26.8857 757.685 25.6252 757.609 24.3656 757.648C23.0951 757.512 21.8246 757.307 20.5315 757.126C18.4256 756.914 16.3941 756.232 14.5876 755.128L15.9488 754.152C16.0399 754.101 16.1116 754.021 16.153 753.925C16.1794 753.868 16.1931 753.806 16.1931 753.744C16.1931 753.681 16.1794 753.619 16.153 753.562C15.6199 752.631 14.9551 751.783 14.1792 751.042C13.4035 750.29 12.9552 749.263 12.9315 748.182C13.9832 748.805 14.945 749.569 15.79 750.452C19.2643 753.862 23.4923 756.404 28.1315 757.875ZM27.882 766.727C25.1822 766.545 22.5733 767.068 19.8282 766.727C18.9434 766.727 17.1058 766.591 16.4025 765.887C15.6992 765.184 16.6294 764.366 17.6049 764.525C18.5804 764.684 19.0568 764.798 19.7601 764.979C22.4154 765.782 25.1317 766.366 27.882 766.727ZM36.3668 781.526C36.5256 782.253 36.6844 782.979 36.7978 783.683C36.9113 784.386 36.4122 785.952 35.4593 784.908C34.5065 783.864 34.7333 782.343 34.5972 781.458C34.2342 778.712 34.7333 776.101 34.5972 773.4C34.9518 776.155 35.5439 778.874 36.3668 781.526ZM53.0868 788.336C52.555 788.326 52.0305 788.211 51.5437 787.996C51.0569 787.782 50.6175 787.473 50.251 787.087C49.5016 786.322 48.655 785.658 47.7328 785.113C47.614 785.08 47.4886 785.08 47.3698 785.113C47.267 785.164 47.1806 785.242 47.1202 785.34L46.1674 786.679C45.0422 784.882 44.3582 782.844 44.171 780.732C43.9895 779.461 43.7626 778.19 43.6492 776.896C43.6811 775.642 43.5975 774.389 43.3996 773.151C44.8612 777.801 47.3768 782.05 50.7501 785.567C51.6645 786.401 52.4518 787.364 53.0868 788.427L53.0868 788.336Z" fill="#ACCECC"/>
<path d="M58.2368 29.3715C57.7396 29.1911 57.221 29.0766 56.6941 29.031C56.0132 29.008 55.3354 29.1342 54.7084 29.4008C54.0814 29.6675 53.5202 30.068 53.0642 30.5745C52.1357 31.5959 51.6044 32.9168 51.5669 34.297C51.4659 35.0886 51.6423 35.8907 52.066 36.5668C53.6541 39.0182 56.7621 35.8859 54.5842 35.0914C53.9263 34.8645 53.1549 35.0914 53.0188 34.1608C53.0466 33.5881 53.2514 33.0381 53.605 32.5868C53.9585 32.1355 54.4434 31.8051 54.9926 31.6413C55.6979 31.458 56.4453 31.5303 57.1024 31.8456C57.8783 32.2311 58.5142 32.8499 58.921 33.6151C59.3278 34.3803 59.4852 35.2537 59.3711 36.1129C59.3366 36.5099 59.2126 36.8939 59.0082 37.236C58.8039 37.578 58.5246 37.8692 58.1914 38.0876C57.5335 38.4508 56.6714 38.3827 56.1496 38.9048C55.9512 39.1581 55.8218 39.4585 55.7741 39.7768C55.7264 40.095 55.762 40.4202 55.8774 40.7206C56.1153 41.2986 56.3198 41.8897 56.4899 42.4911C56.5391 43.1937 56.3633 43.8937 55.988 44.4896C55.6127 45.0855 55.0574 45.5463 54.4027 45.805C53.7539 46.0568 53.0597 46.1707 52.3645 46.1395C51.6693 46.1082 50.9881 45.9325 50.3645 45.6235C49.8881 45.3965 49.4117 45.1241 48.8899 44.9198C47.7303 44.5587 46.5012 44.4809 45.3054 44.6928C45.2606 44.7035 45.214 44.7035 45.1693 44.6928C45.0796 44.6731 44.9867 44.6731 44.897 44.6928C44.8762 44.7901 44.8762 44.8907 44.897 44.9879L44.897 45.3965C44.6632 46.5916 44.7413 47.8268 45.1239 48.9828C45.3054 49.4822 45.6003 49.9588 45.8045 50.4582C46.1112 51.0784 46.2875 51.7548 46.3226 52.4458C46.3577 53.1369 46.2509 53.8277 46.0087 54.4758C45.743 55.1306 45.2777 55.6849 44.6789 56.0598C44.0802 56.4347 43.3785 56.6112 42.6737 56.5641C42.0705 56.4007 41.4793 56.1959 40.9042 55.9512C40.6078 55.8354 40.2862 55.7997 39.9716 55.8475C39.6571 55.8953 39.3606 56.025 39.1119 56.2236C38.5675 56.7456 38.6355 57.6309 38.2725 58.2891C38.0632 58.6238 37.7769 58.9036 37.4375 59.105C37.0981 59.3064 36.7154 59.4235 36.3215 59.4467C35.4591 59.5659 34.5812 59.4109 33.8118 59.0036C33.0423 58.5962 32.4203 57.9572 32.0337 57.1769C31.7397 56.5218 31.668 55.7884 31.8295 55.0887C32.1018 54.1353 33.2815 52.955 34.3477 53.1139C35.414 53.2728 35.051 54.0218 35.3006 54.6574C36.0719 56.9272 39.2027 53.7495 36.7752 52.1379C36.0882 51.7421 35.2961 51.5677 34.5065 51.6385C33.1315 51.6971 31.8182 52.2259 30.7859 53.1366C30.2792 53.5937 29.8771 54.1547 29.6069 54.7815C29.3368 55.4082 29.205 56.086 29.2206 56.7683C29.3934 58.1617 29.96 59.4767 30.854 60.559C32.4441 61.8452 34.4636 62.4781 36.503 62.3294C40.1815 62.5632 43.8682 62.0219 47.3245 60.7406C48.7084 60.1958 50.0469 59.4467 51.4761 58.9474C53.3993 58.2855 55.4523 58.091 57.4654 58.3799C58.146 59.1063 57.4654 58.6523 58.1233 59.4467C57.8284 58.7885 60.5962 61.081 60.392 60.3774C61.118 60.5363 58.8039 57.7898 59.4845 58.1075C58.6678 57.5174 59.1216 58.1075 58.3956 57.4266C58.1151 55.4181 58.3173 53.3716 58.9854 51.4569C59.4618 50.0269 60.2105 48.6877 60.7777 47.2804C62.0416 43.8184 62.5746 40.1318 62.343 36.4533C62.5106 34.4108 61.8758 32.3833 60.5735 30.8015C59.911 30.1563 59.1126 29.6677 58.2368 29.3715ZM52.429 51.2526C52.4864 51.6668 52.4864 52.0869 52.429 52.5011C52.0173 52.5208 51.6049 52.4826 51.2039 52.3876C49.9334 52.0017 49.457 50.549 49.1621 49.2325C50.7048 49.5049 52.1568 49.9361 52.5424 51.2526L52.429 51.2526Z" fill="#ACCECC"/>
<path d="M59.303 6.24197C58.3078 6.02737 57.2708 6.12241 56.3311 6.51434C55.2925 6.94324 54.3637 7.60053 53.6136 8.43747C52.8635 9.27441 52.3113 10.2695 51.9979 11.3491C51.5442 10.5093 51.0678 9.69211 50.5914 8.87497C50.4776 8.62656 50.3066 8.40873 50.0922 8.23942C49.8253 8.11822 49.5307 8.07113 49.2393 8.10308C48.9479 8.13503 48.6705 8.24484 48.4361 8.421C45.0558 10.3731 44.8062 15.344 41.9023 17.977C42.2505 15.6711 41.952 13.3137 41.0402 11.1675C40.8323 10.7595 40.519 10.4147 40.1328 10.1688C39.7722 9.99643 39.3724 9.92246 38.974 9.95435C38.5757 9.98623 38.1928 10.1228 37.8641 10.3504C37.2059 10.7814 36.6233 11.3183 36.1399 11.9392C35.6636 10.9579 34.991 10.0849 34.1637 9.37425C33.3364 8.66364 32.372 8.13059 31.3303 7.80815C29.1553 7.15738 26.8128 7.37711 24.7966 8.421C23.5805 9.00658 22.546 9.91108 21.8029 11.0382C21.0598 12.1654 20.6361 13.473 20.5768 14.8219C20.5879 15.4688 20.7298 16.1068 20.994 16.6973C21.2582 17.2878 21.6393 17.8186 22.1142 18.2577C22.5892 18.6968 23.1481 19.0351 23.7572 19.2521C24.3664 19.4691 25.0132 19.5604 25.6587 19.5205C26.7145 19.3467 27.6986 18.8741 28.4945 18.1586C29.402 17.4095 30.1733 16.1157 29.6288 15.117C29.4359 14.8048 29.1381 14.5717 28.7888 14.4594C28.4396 14.347 28.0618 14.3629 27.7232 14.5042C27.3828 14.6047 27.0909 14.8264 26.9028 15.1275C26.7147 15.4286 26.6434 15.7883 26.7023 16.1384C26.7023 16.1384 25.341 16.6605 24.91 16.1384C24.7212 15.8499 24.6006 15.5221 24.5574 15.1799C24.5141 14.8377 24.5494 14.4902 24.6604 14.1637C24.9478 13.1454 25.5553 12.2468 26.3929 11.6008C27.2306 10.9549 28.2538 10.596 29.3112 10.5773C30.3298 10.616 31.3022 11.0127 32.0574 11.6977C32.8125 12.3827 33.3022 13.3121 33.4402 14.3226C33.4771 15.6302 33.2613 16.9327 32.805 18.1586C31.3386 22.0751 31.1952 26.3645 32.3966 30.3703C32.5884 31.0584 32.961 31.6824 33.4757 32.1775C33.9905 32.6725 34.6284 33.0204 35.3232 33.1849C35.5954 31.8003 36.0945 30.166 37.4331 29.712C38.0142 29.611 38.611 29.6488 39.1748 29.8224C39.7386 29.9959 40.2534 30.3003 40.6772 30.7108C40.9619 30.8714 41.1973 31.1069 41.3578 31.3917C41.4591 31.7169 41.4591 32.0652 41.3578 32.3904C41.1537 35.0461 40.8361 37.6792 40.405 40.3122C37.7734 40.7434 35.119 41.0839 32.4873 41.2882C32.1595 41.369 31.817 41.369 31.4892 41.2882C31.2025 41.1223 30.9609 40.8885 30.7858 40.6072C30.3771 40.1821 30.0739 39.667 29.9005 39.1032C29.7272 38.5394 29.6885 37.9428 29.7877 37.3614C30.2414 35.9995 31.8975 35.5001 33.2814 35.2277C33.1064 34.534 32.7523 33.8983 32.2546 33.3845C31.7569 32.8706 31.1331 32.4965 30.4456 32.2996C26.4495 31.0977 22.1695 31.2412 18.2628 32.7082C17.0395 33.1722 15.7362 33.3883 14.4288 33.3438C13.417 33.21 12.4855 32.7214 11.8 31.9649C11.1146 31.2084 10.7196 30.2332 10.6854 29.2127C10.7027 28.1577 11.0581 27.1361 11.6993 26.2984C12.3406 25.4607 13.2337 24.8511 14.2473 24.5595C14.5736 24.4484 14.9209 24.4131 15.2629 24.4563C15.6049 24.4996 15.9326 24.6203 16.221 24.8092C16.7428 25.2405 16.221 26.6251 16.221 26.6251C15.8764 26.5608 15.5202 26.6276 15.2223 26.8123C14.9243 26.9971 14.7061 27.2864 14.6103 27.6238C14.4592 27.9612 14.4382 28.3426 14.5513 28.6946C14.6643 29.0466 14.9035 29.3443 15.2228 29.5304C16.221 30.0752 17.4915 29.3262 18.2628 28.3955C18.936 27.6178 19.3764 26.6659 19.5333 25.649C19.599 25.0004 19.5304 24.3451 19.3317 23.7241C19.133 23.1032 18.8085 22.5299 18.3785 22.04C17.9485 21.5501 17.4222 21.1541 16.8324 20.8769C16.2426 20.5996 15.6019 20.4469 14.9505 20.4284C13.5978 20.4812 12.285 20.9023 11.1537 21.6462C10.0223 22.3902 9.11528 23.4288 8.5302 24.6503C7.48822 26.6598 7.26857 28.9961 7.91769 31.1647C8.24471 32.2107 8.78155 33.179 9.4954 34.0103C10.2093 34.8416 11.0851 35.5184 12.0693 35.9995C11.4494 36.4751 10.9128 37.0503 10.4813 37.7018C10.2539 38.0307 10.1173 38.4138 10.0854 38.8123C10.0536 39.2109 10.1275 39.6109 10.2998 39.9717C10.5401 40.3626 10.8862 40.6774 11.298 40.8796C13.4447 41.7865 15.8014 42.0773 18.104 41.7195C15.4496 44.6248 10.504 44.8745 8.55291 48.2793C8.36487 48.5071 8.24401 48.7828 8.20394 49.0755C8.16386 49.3682 8.20614 49.6663 8.32603 49.9362C8.48696 50.1497 8.69713 50.321 8.93858 50.4356L11.4114 51.8429C10.3439 52.1578 9.36214 52.7119 8.54059 53.4631C7.71903 54.2143 7.0793 55.1428 6.66991 56.1783C6.27675 57.1181 6.18169 58.1561 6.39765 59.1518C6.50421 59.6452 6.73842 60.102 7.07684 60.4764C7.41525 60.8509 7.84602 61.1298 8.32603 61.2854C9.07239 61.3866 9.83167 61.3298 10.5547 61.1187C11.2777 60.9075 11.9483 60.5467 12.5231 60.0597C17.3499 56.9404 21.9036 53.4171 26.1351 49.5277C27.9687 47.4458 30.3152 45.8807 32.9411 44.988C34.0096 44.7839 35.0996 44.7153 36.1853 44.7837C39.0892 44.7837 41.9931 44.7837 44.897 44.9426L44.7382 36.2265C44.6935 35.1328 44.7619 34.0375 44.9424 32.9579C45.8476 30.3371 47.4099 27.9925 49.4797 26.1484C53.3606 21.9149 56.8746 17.3588 59.9836 12.5294C60.4775 11.9535 60.8439 11.2796 61.059 10.552C61.274 9.82439 61.3328 9.05948 61.2314 8.30751C61.1084 7.82928 60.8674 7.38958 60.5305 7.0287C60.1936 6.66783 59.7715 6.39732 59.303 6.24197ZM15.7219 51.0939C14.8769 51.9773 13.9152 52.741 12.8634 53.3637C12.8872 52.2833 13.3355 51.2557 14.1111 50.5037C14.887 49.7635 15.5518 48.9149 16.0849 47.9842C16.1113 47.9273 16.125 47.8653 16.125 47.8026C16.125 47.7399 16.1113 47.6779 16.0849 47.621C16.0435 47.525 15.9718 47.4452 15.8807 47.394L14.5195 46.418C16.326 45.3146 18.3575 44.632 20.4634 44.4206C21.7566 44.239 23.027 44.0347 24.2974 43.8985C25.5571 43.9375 26.8176 43.8615 28.0634 43.6715C23.4242 45.1418 19.1962 47.6845 15.7219 51.0939ZM19.6694 36.7258C18.9661 36.8847 18.2401 37.0209 17.5142 37.1571C16.7882 37.2933 15.2455 36.7485 16.3118 35.7952C17.378 34.8419 18.8527 35.0688 19.7374 34.9553C22.4825 34.5695 25.0915 35.0915 27.7912 34.9553C25.0385 35.3129 22.3213 35.9052 19.6694 36.7258ZM34.4838 28.2366C34.6426 25.5355 34.1435 22.9252 34.4838 20.1787C34.6199 19.2935 34.6426 17.4322 35.3459 16.7286C36.0492 16.0249 36.8432 16.9556 36.6844 17.9543C36.5256 18.953 36.4122 19.3843 36.2533 20.1106C35.4612 22.7659 34.8995 25.4847 34.5746 28.2366L34.4838 28.2366ZM50.7501 16.0476C47.3768 19.5646 44.8613 23.8137 43.3997 28.4636C43.5976 27.2255 43.6811 25.9718 43.6492 24.7184C43.7627 23.4246 43.9895 22.1535 44.171 20.8824C44.3582 18.7702 45.0423 16.7324 46.1674 14.9354L47.1203 16.2746C47.1806 16.3722 47.2671 16.4508 47.3698 16.5016C47.4886 16.5345 47.614 16.5345 47.7328 16.5016C48.655 15.9565 49.5017 15.2926 50.251 14.5269C50.6175 14.1412 51.057 13.8323 51.5438 13.618C52.0306 13.4037 52.5551 13.2883 53.0869 13.2784C52.4447 14.3088 51.6577 15.2414 50.7501 16.0476Z" fill="#ACCECC"/>
<path d="M16.584 722.646L16.584 79.4437C16.584 79.1827 16.686 78.932 16.8683 78.7454C17.0507 78.5587 17.2988 78.4509 17.5596 78.445C33.6869 78.4329 49.1492 72.0131 60.5466 60.5971C71.9439 49.1811 78.3431 33.7037 78.3371 17.568C78.3371 17.307 78.4391 17.0564 78.6214 16.8697C78.8038 16.6831 79.0518 16.5752 79.3126 16.5693L466.597 16.5693C466.861 16.5693 467.115 16.6746 467.303 16.8619C467.49 17.0492 467.595 17.3032 467.595 17.5681C467.613 33.6997 474.032 49.1642 485.442 60.5625C496.851 71.9608 512.317 78.3602 528.441 78.3542C528.58 78.3536 528.717 78.3821 528.845 78.4379C528.972 78.4937 529.087 78.5755 529.18 78.678C529.274 78.7806 529.346 78.9017 529.39 79.0336C529.435 79.1654 529.451 79.3051 529.439 79.4437L529.439 722.646C529.439 722.911 529.334 723.165 529.146 723.352C528.959 723.54 528.705 723.645 528.44 723.645C512.329 723.663 496.883 730.076 485.492 741.477C474.102 752.877 467.698 768.334 467.686 784.454C467.674 784.585 467.637 784.713 467.576 784.83C467.515 784.947 467.431 785.05 467.33 785.135C467.229 785.219 467.112 785.283 466.986 785.322C466.86 785.361 466.728 785.374 466.597 785.362L79.3126 785.362C79.0539 785.362 78.8058 785.259 78.6228 785.076C78.4399 784.893 78.3371 784.645 78.3371 784.386C78.3191 768.264 71.91 752.807 60.5159 741.407C49.1218 730.007 33.6732 723.595 17.5595 723.577C17.3101 723.572 17.0716 723.473 16.891 723.301C16.7105 723.129 16.601 722.895 16.584 722.646ZM18.5578 80.2835L18.5577 721.67C34.8461 721.95 50.3887 728.551 61.9059 740.078C73.423 751.605 80.014 767.158 80.2881 783.455L465.712 783.455C465.986 767.154 472.58 751.598 484.102 740.07C495.624 728.542 511.173 721.945 527.465 721.67L527.465 80.3289C511.173 80.0545 495.624 73.457 484.102 61.929C472.58 50.4011 465.986 34.8448 465.712 18.5441L80.2882 18.5441C80.0197 34.8427 73.4305 50.3989 61.9121 61.9275C50.3937 73.456 34.8479 80.0543 18.5578 80.3289L18.5578 80.2835Z" fill="#ACCECC"/>
</svg>
