<svg width="546" height="802" viewBox="0 0 546 802" fill="none" xmlns="http://www.w3.org/2000/svg">
<path d="M546 799.367L546 2.63301C546 1.93469 545.723 1.26497 545.229 0.77119C544.736 0.277405 544.066 -8.45245e-08 543.368 -1.15033e-07L2.63171 -2.37514e-05C1.93372 -2.37819e-05 1.26434 0.277381 0.770813 0.771166C0.277283 1.26495 6.09506e-05 1.93467 6.09201e-05 2.63298L2.60947e-05 799.344C2.60642e-05 800.043 0.277248 800.712 0.770778 801.206C1.26431 801.7 1.93368 801.977 2.63168 801.977L543.368 801.977C544.062 801.977 544.728 801.703 545.221 801.214C545.714 800.725 545.994 800.061 546 799.367V799.367ZM5.26327 796.711L5.26331 5.26599L540.737 5.26601L540.737 796.711L5.26327 796.711Z" fill="#AB1010"/>
<path d="M485.585 30.6431C484.294 32.2307 483.66 34.2538 483.816 36.295C483.584 39.9735 484.117 43.6601 485.381 47.1221C485.948 48.5294 486.697 49.8686 487.196 51.2986C487.857 53.2151 488.051 55.2616 487.763 57.2683C487.037 57.9492 487.491 57.2683 486.697 57.9492C487.355 57.6541 485.064 60.4006 485.767 60.2191C485.608 60.9227 488.353 58.6302 488.036 59.2884C488.625 58.494 488.036 58.9479 488.716 58.2216C490.722 57.9337 492.767 58.1282 494.683 58.7891C496.112 59.2884 497.451 60.0375 498.857 60.5822C502.318 61.8778 506.014 62.427 509.701 62.1938C511.74 62.3402 513.759 61.7075 515.35 60.4233C515.923 59.7602 516.355 58.9881 516.621 58.1535C516.782 57.6974 516.897 57.2258 516.961 56.7462C516.985 56.0594 516.857 55.3759 516.586 54.7442C516.315 54.1126 515.909 53.5484 515.396 53.0918C514.368 52.1729 513.052 51.6429 511.675 51.5937C510.886 51.5229 510.093 51.6973 509.406 52.0931C506.979 53.7046 510.11 56.8143 510.904 54.6126C511.131 53.977 510.904 53.1826 511.834 53.0691C512.764 52.9556 514.103 54.0905 514.352 55.0438C514.514 55.7436 514.442 56.4769 514.148 57.1321C513.765 57.9106 513.147 58.5488 512.382 58.9562C511.616 59.3636 510.742 59.5196 509.883 59.4019C509.486 59.3768 509.101 59.259 508.758 59.0579C508.416 58.8569 508.125 58.5782 507.909 58.2443C507.546 57.586 507.614 56.7008 507.07 56.1788C506.821 55.9802 506.525 55.8505 506.21 55.8026C505.895 55.7548 505.574 55.7906 505.277 55.9064C504.704 56.1544 504.112 56.3592 503.508 56.5192C502.82 56.5553 502.137 56.3787 501.553 56.0132C500.968 55.6477 500.51 55.1112 500.241 54.4764C499.999 53.8283 499.892 53.1374 499.927 52.4464C499.962 51.7554 500.139 51.0789 500.445 50.4588C500.672 49.9594 500.944 49.4827 501.149 48.9834C501.512 47.8232 501.582 46.591 501.353 45.397L501.353 45.2609C501.384 45.165 501.384 45.0617 501.353 44.9658C501.353 44.9658 501.171 44.9658 501.08 44.9658C501.036 44.9764 500.989 44.9764 500.944 44.9658C499.748 44.7547 498.52 44.8325 497.36 45.1928C496.838 45.397 496.384 45.6694 495.885 45.8964C495.198 46.1993 494.451 46.3424 493.7 46.3149C492.95 46.2873 492.215 46.09 491.552 45.7375C490.895 45.4817 490.338 45.0216 489.962 44.425C489.586 43.8284 489.412 43.1268 489.465 42.4236C489.625 41.819 489.83 41.2272 490.077 40.6531C490.193 40.3527 490.228 40.0275 490.181 39.7092C490.133 39.391 490.004 39.0905 489.805 38.8372C489.283 38.3152 488.399 38.3833 487.741 38.0201C487.407 37.8044 487.128 37.5133 486.927 37.1704C486.727 36.8274 486.609 36.4421 486.584 36.0453C486.47 35.1861 486.627 34.3128 487.034 33.5476C487.441 32.7823 488.076 32.1636 488.852 31.778C489.509 31.4628 490.257 31.3904 490.962 31.5738C491.915 31.8461 493.095 33.0038 492.936 34.0933C492.777 35.1828 492.028 34.7969 491.393 35.0239C489.125 35.8184 492.301 38.9507 493.911 36.4993C494.313 35.8142 494.487 35.0198 494.411 34.2295C494.352 32.8537 493.824 31.5397 492.913 30.5069C492.449 30.0152 491.885 29.6291 491.259 29.3745C490.632 29.12 489.959 29.003 489.283 29.0315C488.764 29.0748 488.252 29.1894 487.763 29.372C486.961 29.6492 486.221 30.081 485.585 30.6431ZM496.77 49.2331C496.498 50.5496 495.999 52.0023 494.751 52.3881C494.342 52.4835 493.922 52.5217 493.503 52.5016C493.483 52.0822 493.521 51.6621 493.617 51.2532C494.002 49.9367 495.454 49.5054 496.77 49.2331Z" fill="#AB1010"/>
<path d="M484.746 8.12619C484.645 8.87815 484.704 9.64306 484.919 10.3707C485.134 11.0983 485.5 11.7722 485.994 12.3481C489.104 17.1832 492.626 21.7398 496.521 25.9671C498.585 27.8158 500.146 30.1589 501.058 32.7766C501.25 33.8548 501.319 34.9514 501.262 36.0451L501.103 44.7613C504.007 44.7613 506.911 44.6478 509.815 44.6024C510.901 44.5339 511.991 44.6026 513.059 44.8067C515.722 45.6893 518.108 47.2545 519.979 49.3464C524.204 53.2434 528.758 56.7673 533.591 59.8784C534.158 60.3999 534.83 60.795 535.561 61.0376C536.292 61.2802 537.067 61.3648 537.833 61.2857C538.297 61.1237 538.712 60.8475 539.042 60.4826C539.371 60.1176 539.603 59.6757 539.716 59.1974C539.936 58.2001 539.832 57.1587 539.421 56.224C539.021 55.1716 538.383 54.2263 537.556 53.4622C536.729 52.6982 535.737 52.1363 534.657 51.8205L537.152 50.4132C537.395 50.3001 537.611 50.1378 537.788 49.9365C537.909 49.6694 537.956 49.3747 537.924 49.0831C537.892 48.7916 537.782 48.514 537.606 48.2795C535.655 44.8748 530.687 44.6251 528.055 41.7197C530.358 42.0812 532.715 41.7903 534.861 40.8799C535.275 40.6715 535.627 40.3585 535.882 39.972C536.054 39.6111 536.128 39.2112 536.096 38.8126C536.064 38.414 535.928 38.0309 535.7 37.7021C535.262 37.0558 534.727 36.4814 534.112 35.9997C535.091 35.5141 535.961 34.8354 536.671 34.0045C537.38 33.1737 537.915 32.2078 538.241 31.165C538.891 28.9963 538.671 26.6601 537.629 24.6506C537.048 23.4309 536.145 22.393 535.017 21.649C533.89 20.905 532.581 20.4831 531.231 20.4287C530.585 20.4334 529.946 20.5704 529.354 20.8312C528.763 21.0919 528.231 21.471 527.791 21.9451C527.351 22.4192 527.013 22.9782 526.797 23.5879C526.581 24.1976 526.492 24.845 526.535 25.4904C526.699 26.5274 527.156 27.4959 527.851 28.2823C528.6 29.2129 529.893 29.962 530.891 29.4172C531.206 29.2275 531.443 28.9297 531.555 28.579C531.668 28.2284 531.649 27.8487 531.503 27.5106C531.399 27.1742 531.175 26.8875 530.875 26.7037C530.574 26.52 530.217 26.4518 529.87 26.5118C529.87 26.5118 529.348 25.1272 529.87 24.696C530.158 24.5071 530.486 24.3864 530.828 24.3431C531.17 24.2999 531.517 24.3351 531.844 24.4463C532.858 24.7402 533.752 25.3497 534.397 26.1864C535.041 27.0231 535.402 28.0434 535.428 29.0994C535.39 30.1186 534.993 31.0914 534.308 31.847C533.624 32.6026 532.695 33.0925 531.685 33.2305C530.377 33.2787 529.073 33.0626 527.851 32.595C523.936 31.1279 519.649 30.9844 515.645 32.1864C514.958 32.3833 514.334 32.7574 513.836 33.2712C513.339 33.7851 512.985 34.4207 512.81 35.1145C514.216 35.3869 515.85 35.8862 516.303 37.2481C516.403 37.8296 516.364 38.4262 516.191 38.99C516.017 39.5537 515.714 40.0689 515.305 40.494C515.142 40.785 514.898 41.0218 514.602 41.175C514.282 41.2557 513.947 41.2557 513.626 41.175C510.972 40.9707 508.34 40.6302 505.709 40.1989C505.278 37.5659 504.937 34.9329 504.733 32.2772C504.653 31.9491 504.653 31.6066 504.733 31.2785C504.894 30.9937 505.129 30.7582 505.414 30.5975C505.839 30.1886 506.354 29.8852 506.917 29.7118C507.481 29.5383 508.077 29.4996 508.658 29.5988C510.019 30.0528 510.496 31.6871 510.791 33.0717C511.481 32.9036 512.114 32.5541 512.625 32.0593C513.135 31.5645 513.505 30.9423 513.694 30.2571C514.9 26.2962 514.788 22.051 513.377 18.1589C512.902 16.9373 512.679 15.6327 512.719 14.3228C512.862 13.3105 513.356 12.3807 514.115 11.696C514.874 11.0114 515.849 10.6155 516.871 10.5776C517.928 10.5963 518.951 10.9552 519.789 11.6011C520.626 12.247 521.234 13.1457 521.521 14.1639C521.629 14.4921 521.661 14.8406 521.613 15.1828C521.566 15.525 521.442 15.852 521.249 16.1387C520.841 16.6608 519.457 16.1387 519.457 16.1387C519.516 15.7885 519.444 15.4289 519.256 15.1278C519.068 14.8267 518.776 14.6049 518.436 14.5044C518.097 14.3632 517.72 14.3473 517.37 14.4596C517.021 14.5719 516.723 14.8051 516.53 15.1173C516.008 16.116 516.757 17.3871 517.665 18.1589C518.443 18.8345 519.393 19.2822 520.41 19.4527C521.064 19.5056 521.723 19.4233 522.344 19.2107C522.966 18.9982 523.537 18.6599 524.022 18.2171C524.507 17.7743 524.896 17.2363 525.164 16.6366C525.433 16.037 525.575 15.3884 525.582 14.7314C525.52 13.3716 525.084 12.0552 524.324 10.9263C523.564 9.79736 522.508 8.89934 521.272 8.33048C519.263 7.28796 516.928 7.06817 514.761 7.71762C513.714 8.0361 512.745 8.56743 511.913 9.27831C511.082 9.98919 510.406 10.8643 509.928 11.8487C509.445 11.2277 508.862 10.6909 508.204 10.2598C507.876 10.0323 507.493 9.8957 507.094 9.86382C506.696 9.83193 506.296 9.9059 505.936 10.0782C505.549 10.3241 505.236 10.669 505.028 11.077C504.113 13.2225 503.822 15.5828 504.189 17.8865C501.285 15.2535 501.013 10.2825 497.632 8.33047C497.408 8.17817 497.15 8.08391 496.881 8.05617C496.612 8.02844 496.34 8.0681 496.09 8.17159C495.875 8.3409 495.704 8.55873 495.59 8.80714L494.161 11.3494C493.846 10.2786 493.293 9.29333 492.542 8.46767C491.792 7.64201 490.864 6.99751 489.828 6.5827C488.888 6.19077 487.851 6.09572 486.856 6.31032C486.384 6.41954 485.945 6.64184 485.578 6.95813C485.21 7.27443 484.925 7.67526 484.746 8.12619ZM518.05 43.7626C519.288 43.953 520.541 44.0289 521.794 43.9896C523.087 44.1257 524.357 44.33 525.628 44.5116C527.734 44.7199 529.766 45.4028 531.572 46.5091L530.21 47.4851C530.131 47.5496 530.062 47.6262 530.006 47.7121C529.963 47.8292 529.963 47.9581 530.006 48.0753C530.539 49.0059 531.204 49.8545 531.98 50.5948C532.756 51.3468 533.204 52.3743 533.228 53.4548C532.179 52.8371 531.224 52.0728 530.392 51.1849C526.91 47.785 522.685 45.2437 518.05 43.7626ZM518.277 34.9102C520.977 35.0918 523.586 34.5697 526.331 34.9102C527.216 34.9102 529.076 35.0691 529.757 35.7501C530.437 36.431 529.552 37.2708 528.554 37.112C527.556 36.9531 527.125 36.8396 526.286 36.6807C523.671 35.8663 520.992 35.2741 518.277 34.9102ZM509.702 20.1109L509.271 17.9546C509.112 16.9558 509.656 15.6847 510.632 16.7289C511.607 17.773 511.358 19.2938 511.471 20.179C511.834 22.9255 511.335 25.5358 511.471 28.2369C511.105 25.4842 510.514 22.7663 509.702 20.1109ZM492.982 13.3014C493.514 13.3061 494.04 13.4192 494.528 13.6338C495.015 13.8484 495.454 14.1601 495.817 14.5498C496.576 15.2893 497.43 15.923 498.358 16.4338C498.477 16.4678 498.603 16.4678 498.721 16.4338C498.813 16.376 498.89 16.2984 498.948 16.2068L499.901 14.8676C501.068 16.6764 501.784 18.7393 501.988 20.8827C502.192 22.1538 502.396 23.4249 502.533 24.7187C502.493 25.9714 502.569 27.2251 502.759 28.4639C501.3 23.8181 498.793 19.5701 495.432 16.0479C494.512 15.2214 493.717 14.2656 493.072 13.2106L492.982 13.3014Z" fill="#AB1010"/>
<path d="M487.831 772.266C488.32 772.449 488.832 772.563 489.351 772.606C490.036 772.63 490.717 772.504 491.348 772.237C491.978 771.971 492.544 771.57 493.004 771.063C493.914 770.03 494.443 768.716 494.501 767.34C494.578 766.55 494.403 765.756 494.002 765.071C492.391 762.619 489.283 765.751 491.484 766.546C492.119 766.773 492.913 766.546 493.027 767.477C493.14 768.407 492.006 769.746 491.053 769.996C490.348 770.179 489.6 770.107 488.943 769.792C488.167 769.406 487.531 768.787 487.125 768.022C486.718 767.257 486.56 766.384 486.674 765.525C486.7 765.128 486.817 764.742 487.018 764.399C487.219 764.057 487.498 763.766 487.831 763.55C488.489 763.187 489.374 763.255 489.896 762.733C490.094 762.479 490.224 762.179 490.271 761.861C490.319 761.542 490.284 761.217 490.168 760.917C489.92 760.343 489.716 759.751 489.556 759.146C489.501 758.457 489.664 757.769 490.023 757.178C490.381 756.587 490.916 756.125 491.552 755.855C492.197 755.604 492.887 755.49 493.579 755.521C494.27 755.553 494.948 755.728 495.568 756.037C496.067 756.264 496.52 756.536 497.042 756.74C498.2 757.111 499.431 757.189 500.627 756.967C500.671 756.957 500.718 756.957 500.763 756.967C500.763 756.967 500.967 756.967 501.035 756.967C501.103 756.967 501.035 756.967 501.035 756.967C501.066 756.871 501.066 756.768 501.035 756.672L501.035 756.536C501.264 755.342 501.194 754.11 500.831 752.95C500.627 752.45 500.354 751.974 500.128 751.474C499.821 750.854 499.645 750.178 499.609 749.487C499.574 748.796 499.681 748.105 499.923 747.457C500.189 746.802 500.654 746.248 501.253 745.873C501.852 745.498 502.554 745.321 503.258 745.368C503.863 745.528 504.454 745.733 505.028 745.981C505.324 746.097 505.646 746.133 505.96 746.085C506.275 746.037 506.572 745.907 506.82 745.709C507.365 745.187 507.297 744.302 507.66 743.643C507.879 743.313 508.171 743.037 508.513 742.837C508.855 742.636 509.238 742.516 509.633 742.486C510.516 742.268 511.446 742.348 512.279 742.713C513.112 743.079 513.8 743.709 514.239 744.506C514.533 745.161 514.604 745.894 514.443 746.594C514.171 747.547 513.014 748.728 511.925 748.569C510.836 748.41 511.221 747.661 510.995 747.025C510.2 744.756 507.07 747.933 509.497 749.545C510.184 749.941 510.976 750.115 511.766 750.044C513.143 749.995 514.459 749.465 515.486 748.546C515.998 748.093 516.403 747.533 516.674 746.905C516.945 746.277 517.074 745.598 517.052 744.914C516.998 744.389 516.884 743.871 516.712 743.371C516.445 742.536 516.013 741.764 515.441 741.101C513.85 739.817 511.831 739.184 509.792 739.331C506.113 739.093 502.426 739.635 498.971 740.92C497.564 741.464 496.225 742.213 494.796 742.713C492.88 743.369 490.837 743.572 488.83 743.303C488.149 742.554 488.83 743.008 488.149 742.213C488.444 742.872 485.699 740.579 485.88 741.283C485.177 741.124 487.468 743.87 486.811 743.553C487.605 744.143 487.151 743.553 487.877 744.234C488.165 746.24 487.97 748.287 487.31 750.203C486.811 751.633 486.062 752.972 485.495 754.38C484.231 757.842 483.698 761.528 483.929 765.207C483.774 767.248 484.407 769.271 485.699 770.859C486.309 771.464 487.034 771.943 487.831 772.266ZM493.617 750.385C493.521 749.976 493.483 749.556 493.503 749.136C493.917 749.079 494.337 749.079 494.751 749.136C495.999 749.522 496.498 750.975 496.77 752.291C495.454 752.133 494.002 751.656 493.617 750.385Z" fill="#AB1010"/>
<path d="M486.856 795.394C487.851 795.609 488.888 795.514 489.828 795.122C490.863 794.707 491.791 794.063 492.542 793.237C493.293 792.411 493.846 791.426 494.161 790.355L495.568 792.83C495.681 793.078 495.852 793.296 496.067 793.465C496.334 793.586 496.628 793.633 496.92 793.601C497.211 793.569 497.488 793.46 497.723 793.283C501.103 791.331 501.375 786.36 504.279 783.727C503.913 786.031 504.204 788.391 505.119 790.537C505.327 790.945 505.64 791.29 506.026 791.536C506.387 791.708 506.786 791.782 507.185 791.75C507.583 791.718 507.966 791.582 508.295 791.354C508.953 790.923 509.536 790.386 510.019 789.765C510.497 790.75 511.172 791.625 512.004 792.336C512.835 793.047 513.805 793.578 514.851 793.896C517.019 794.546 519.354 794.326 521.362 793.283C522.578 792.704 523.613 791.804 524.357 790.68C525.1 789.556 525.524 788.251 525.582 786.905C525.571 786.258 525.429 785.62 525.165 785.03C524.901 784.439 524.52 783.909 524.045 783.469C523.57 783.03 523.011 782.692 522.402 782.475C521.792 782.258 521.146 782.167 520.5 782.207C519.484 782.377 518.534 782.825 517.755 783.5C516.848 784.25 516.099 785.543 516.621 786.542C516.814 786.854 517.112 787.087 517.461 787.2C517.81 787.312 518.188 787.296 518.526 787.155C518.867 787.054 519.159 786.833 519.347 786.532C519.535 786.23 519.606 785.871 519.547 785.521C519.547 785.521 520.931 784.999 521.34 785.521C521.532 785.807 521.657 786.134 521.704 786.477C521.751 786.819 521.72 787.167 521.612 787.495C521.324 788.514 520.717 789.412 519.879 790.058C519.042 790.704 518.018 791.063 516.961 791.082C515.94 791.044 514.964 790.648 514.206 789.963C513.447 789.279 512.952 788.349 512.809 787.337C512.769 786.027 512.993 784.722 513.467 783.5C514.926 779.581 515.062 775.292 513.853 771.289C513.663 770.603 513.294 769.981 512.783 769.487C512.273 768.992 511.64 768.642 510.949 768.474C510.654 769.859 510.178 771.493 508.817 771.947C508.235 772.046 507.639 772.008 507.076 771.834C506.512 771.661 505.997 771.357 505.572 770.948C505.288 770.788 505.052 770.552 504.892 770.267C504.812 769.939 504.812 769.597 504.892 769.269C505.096 766.613 505.436 763.98 505.867 761.347C508.499 760.916 511.131 760.575 513.785 760.371C514.105 760.29 514.44 760.29 514.76 760.371C515.056 760.524 515.301 760.761 515.464 761.052C515.872 761.477 516.176 761.992 516.349 762.556C516.522 763.12 516.561 763.716 516.462 764.298C516.008 765.66 514.375 766.159 512.968 766.431C513.109 767.125 513.428 767.77 513.894 768.303C514.359 768.836 514.955 769.239 515.623 769.473C519.636 770.673 523.932 770.521 527.851 769.042C529.073 768.574 530.377 768.358 531.685 768.406C532.695 768.544 533.624 769.034 534.308 769.79C534.993 770.545 535.389 771.518 535.428 772.537C535.379 773.574 535.007 774.568 534.364 775.383C533.721 776.197 532.84 776.789 531.844 777.077C531.517 777.188 531.17 777.223 530.828 777.18C530.486 777.137 530.158 777.016 529.87 776.827C529.348 776.396 529.87 775.011 529.87 775.011C530.217 775.071 530.574 775.003 530.874 774.819C531.175 774.636 531.398 774.349 531.503 774.013C531.649 773.674 531.668 773.295 531.555 772.944C531.442 772.593 531.206 772.296 530.891 772.106C529.892 771.561 528.622 772.31 527.851 773.241C527.171 774.017 526.723 774.969 526.558 775.987C526.514 776.633 526.603 777.28 526.819 777.89C527.035 778.5 527.373 779.059 527.813 779.533C528.253 780.007 528.785 780.386 529.377 780.647C529.968 780.907 530.607 781.044 531.254 781.049C532.603 780.995 533.912 780.573 535.04 779.829C536.167 779.085 537.07 778.047 537.651 776.827C538.693 774.818 538.913 772.481 538.264 770.313C537.937 769.27 537.403 768.304 536.693 767.473C535.984 766.642 535.113 765.964 534.135 765.478C534.749 764.996 535.285 764.422 535.723 763.776C535.95 763.447 536.087 763.064 536.119 762.665C536.151 762.267 536.077 761.867 535.904 761.506C535.649 761.119 535.297 760.806 534.884 760.598C532.735 759.699 530.38 759.408 528.078 759.758C530.709 756.853 535.678 756.603 537.629 753.198C537.805 752.964 537.914 752.686 537.946 752.395C537.978 752.103 537.931 751.808 537.81 751.541C537.636 751.332 537.419 751.162 537.175 751.042L534.657 749.816C535.726 749.504 536.709 748.951 537.531 748.2C538.353 747.448 538.992 746.518 539.398 745.481C539.809 744.546 539.913 743.505 539.693 742.507C539.576 742.031 539.343 741.591 539.014 741.226C538.685 740.862 538.272 740.585 537.81 740.419C537.06 740.319 536.298 740.376 535.571 740.587C534.845 740.798 534.17 741.158 533.59 741.645C528.763 744.763 524.209 748.287 519.978 752.177C518.108 754.269 515.722 755.834 513.059 756.716C511.99 756.921 510.9 756.989 509.815 756.921C506.911 756.921 504.007 756.921 501.103 756.762L501.262 765.478C501.318 766.572 501.25 767.668 501.058 768.747C500.146 771.364 498.585 773.707 496.52 775.556C492.625 779.783 489.103 784.34 485.994 789.175C485.5 789.751 485.133 790.425 484.918 791.152C484.703 791.88 484.645 792.645 484.746 793.397C484.899 793.882 485.174 794.319 485.543 794.669C485.912 795.018 486.364 795.268 486.856 795.394ZM530.46 750.542C531.292 749.655 532.247 748.89 533.295 748.273C533.272 749.353 532.823 750.381 532.048 751.133C531.293 751.855 530.644 752.68 530.119 753.584C530.076 753.701 530.076 753.83 530.119 753.947C530.175 754.033 530.244 754.11 530.323 754.174L531.685 755.15C529.83 756.271 527.741 756.947 525.582 757.125C524.312 757.307 523.041 757.511 521.748 757.647C520.496 757.608 519.243 757.684 518.005 757.874C522.671 756.435 526.936 753.925 530.46 750.542ZM526.399 764.933C527.125 764.752 527.828 764.615 528.667 764.479C529.507 764.343 530.936 764.888 529.87 765.841C528.803 766.794 527.329 766.568 526.444 766.681C523.699 767.067 521.09 766.545 518.39 766.681C521.102 766.314 523.78 765.73 526.399 764.933ZM511.607 773.4C511.426 776.101 511.925 778.711 511.607 781.458C511.494 782.343 511.448 784.204 510.768 784.908C510.087 785.611 509.248 784.681 509.406 783.682L509.837 781.526C510.649 778.87 511.241 776.152 511.607 773.4ZM495.431 785.589C498.793 782.067 501.3 777.819 502.759 773.173C502.569 774.412 502.493 775.665 502.532 776.918C502.396 778.212 502.192 779.483 501.988 780.754C501.801 782.866 501.117 784.904 499.991 786.701L499.039 785.362C498.981 785.27 498.903 785.193 498.812 785.135C498.693 785.101 498.567 785.101 498.449 785.135C497.515 785.674 496.66 786.338 495.908 787.11C495.545 787.499 495.106 787.811 494.618 788.026C494.131 788.24 493.605 788.353 493.072 788.358C493.722 787.327 494.517 786.394 495.431 785.589Z" fill="#AB1010"/>
<path d="M60.5054 770.994C61.8077 769.412 62.4425 767.385 62.2749 765.342C62.5065 761.664 61.9735 757.977 60.7095 754.515C60.1424 753.108 59.3937 751.769 58.9173 750.339C58.2492 748.424 58.047 746.377 58.3274 744.369C59.0534 743.688 58.5997 744.369 59.4164 743.688C58.7358 743.983 61.0498 741.237 60.3239 741.418C60.5054 740.715 57.7376 743.007 58.0552 742.349C57.4653 743.143 58.0552 742.689 57.3973 743.416C55.3842 743.704 53.3312 743.51 51.408 742.848C49.9788 742.349 48.6403 741.6 47.2564 741.055C43.8 739.774 40.1134 739.232 36.4348 739.466C34.3955 739.317 32.3759 739.95 30.7858 741.237C29.8919 742.319 29.3252 743.634 29.1524 745.027C29.1368 745.71 29.2686 746.387 29.5388 747.014C29.8089 747.641 30.2111 748.202 30.7178 748.659C31.75 749.57 33.0634 750.098 34.4384 750.157C35.2279 750.228 36.0201 750.053 36.707 749.658C39.1345 748.046 36.0038 744.936 35.2324 747.138C34.9829 747.774 35.2324 748.568 34.2796 748.682C33.3268 748.795 32.0109 747.66 31.7614 746.707C31.5999 746.007 31.6716 745.274 31.9655 744.619C32.3522 743.838 32.9742 743.199 33.7436 742.792C34.5131 742.385 35.391 742.23 36.2533 742.349C36.6473 742.372 37.0299 742.489 37.3693 742.691C37.7088 742.892 37.9951 743.172 38.2044 743.506C38.5674 744.165 38.4993 745.05 39.0438 745.572C39.2924 745.771 39.5889 745.9 39.9035 745.948C40.2181 745.996 40.5396 745.96 40.836 745.844C41.4111 745.6 42.0024 745.395 42.6056 745.231C43.3104 745.184 44.012 745.361 44.6108 745.736C45.2095 746.111 45.6748 746.665 45.9405 747.32C46.1828 747.968 46.2896 748.659 46.2545 749.35C46.2194 750.041 46.043 750.717 45.7364 751.337C45.5322 751.837 45.2372 752.313 45.0558 752.813C44.6732 753.969 44.5951 755.204 44.8289 756.399L44.8289 756.535C44.808 756.632 44.808 756.733 44.8289 756.83C44.9186 756.85 45.0115 756.85 45.1011 756.83C45.1459 756.82 45.1925 756.82 45.2373 756.83C46.433 757.042 47.6622 756.964 48.8217 756.603C49.3435 756.399 49.8199 756.127 50.2964 755.9C50.92 755.591 51.6011 755.415 52.2964 755.384C52.9916 755.352 53.6857 755.466 54.3346 755.718C54.9893 755.977 55.5446 756.438 55.9199 757.034C56.2952 757.629 56.471 758.329 56.4218 759.032C56.2516 759.633 56.0471 760.225 55.8092 760.803C55.6938 761.103 55.6582 761.428 55.7059 761.746C55.7537 762.065 55.8831 762.365 56.0815 762.618C56.6033 763.14 57.4653 763.072 58.1233 763.436C58.4564 763.654 58.7357 763.945 58.9401 764.287C59.1444 764.629 59.2685 765.013 59.303 765.41C59.4171 766.269 59.2597 767.143 58.8529 767.908C58.4461 768.673 57.8102 769.292 57.0343 769.678C56.3772 769.993 55.6298 770.065 54.9244 769.882C54.3752 769.718 53.8904 769.388 53.5368 768.936C53.1833 768.485 52.9785 767.935 52.9507 767.362C53.0868 766.523 53.8582 766.659 54.5161 766.432C56.7848 765.637 53.5859 762.505 51.9979 764.956C51.5741 765.632 51.3977 766.435 51.4988 767.226C51.5363 768.606 52.0676 769.927 52.9961 770.949C53.4521 771.455 54.0133 771.856 54.6403 772.122C55.2673 772.389 55.945 772.515 56.6259 772.492C57.1528 772.447 57.6715 772.332 58.1686 772.152C59.0208 771.936 59.8174 771.542 60.5054 770.994ZM49.3209 752.404C49.6158 751.088 50.0922 749.635 51.3626 749.249C51.769 749.192 52.1813 749.192 52.5877 749.249C52.6452 749.663 52.6452 750.083 52.5877 750.498C52.1567 751.655 50.7047 752.132 49.3889 752.404L49.3209 752.404Z" fill="#AB1010"/>
<path d="M61.4127 793.511C61.5141 792.759 61.4553 791.994 61.2403 791.267C61.0252 790.539 60.6588 789.865 60.1649 789.289C57.0559 784.46 53.5419 779.904 49.661 775.67C47.5912 773.826 46.029 771.482 45.1237 768.861C44.9433 767.781 44.8749 766.686 44.9195 765.592L45.0783 756.876C42.1744 756.876 39.2705 756.876 36.3666 757.035C35.281 757.103 34.191 757.035 33.1224 756.831C30.4965 755.938 28.15 754.373 26.3164 752.291C22.0849 748.401 17.5313 744.878 12.7045 741.759C12.1297 741.272 11.4591 740.911 10.7361 740.7C10.0131 740.489 9.25382 740.432 8.50746 740.533C8.04148 740.691 7.62379 740.966 7.29416 741.332C6.96454 741.697 6.73397 742.141 6.62446 742.621C6.4085 743.617 6.50353 744.655 6.89669 745.595C7.30608 746.63 7.94581 747.559 8.76736 748.31C9.58891 749.061 10.5707 749.615 11.6382 749.93L9.16536 751.338C8.9239 751.452 8.71376 751.623 8.55284 751.837C8.42673 752.103 8.37693 752.399 8.40897 752.691C8.44102 752.984 8.55363 753.262 8.7343 753.494C10.6854 756.899 15.5403 757.148 18.2854 760.054C15.9826 759.707 13.6288 759.997 11.4794 760.894C11.0676 761.096 10.7215 761.411 10.4812 761.801C10.3089 762.162 10.235 762.562 10.2669 762.961C10.2987 763.359 10.4353 763.742 10.6627 764.071C11.0942 764.723 11.6308 765.298 12.2507 765.774C11.2665 766.255 10.3906 766.932 9.67679 767.763C8.96294 768.594 8.42609 769.562 8.09908 770.608C7.44996 772.777 7.66965 775.113 8.71163 777.123C9.2967 778.344 10.2037 779.383 11.3351 780.127C12.4664 780.871 13.7792 781.292 15.1319 781.345C15.7765 781.337 16.4127 781.198 17.0017 780.936C17.5907 780.673 18.12 780.294 18.5574 779.82C18.9949 779.346 19.3311 778.788 19.5457 778.18C19.7603 777.572 19.8486 776.927 19.8054 776.283C19.6485 775.266 19.2082 774.314 18.5349 773.537C17.7636 772.606 16.4932 771.857 15.4949 772.402C15.1757 772.588 14.9365 772.886 14.8234 773.237C14.7103 773.589 14.7313 773.971 14.8824 774.308C14.9782 774.646 15.1965 774.935 15.4945 775.12C15.7924 775.305 16.1486 775.371 16.4932 775.307C16.4932 775.307 17.015 776.692 16.4932 777.123C16.2048 777.312 15.8771 777.432 15.5351 777.476C15.1931 777.519 14.8457 777.484 14.5194 777.373C13.5239 777.087 12.6438 776.494 12.0044 775.679C11.3649 774.864 10.9986 773.868 10.9576 772.833C10.9918 771.812 11.3868 770.837 12.0722 770.081C12.7577 769.324 13.6892 768.836 14.7009 768.702C16.0084 768.657 17.3117 768.873 18.5349 769.337C22.4416 770.804 26.7216 770.948 30.7177 769.746C31.392 769.484 31.9847 769.048 32.4352 768.481C32.8856 767.915 33.1776 767.239 33.2813 766.523C31.8974 766.25 30.2413 765.751 29.7875 764.389C29.6884 763.808 29.727 763.211 29.9004 762.647C30.0738 762.083 30.377 761.568 30.7857 761.143C30.9608 760.862 31.2023 760.628 31.489 760.462C31.8169 760.381 32.1594 760.381 32.4872 760.462C35.1189 760.667 37.7732 761.007 40.4049 761.438C40.8359 764.071 41.1535 766.704 41.3577 769.36C41.4589 769.685 41.4589 770.034 41.3577 770.359C41.1971 770.644 40.9618 770.879 40.6771 771.04C40.2532 771.45 39.7384 771.755 39.1746 771.928C38.6109 772.102 38.0141 772.139 37.4329 772.038C36.0944 771.584 35.5953 769.95 35.323 768.566C34.6283 768.73 33.9903 769.078 33.4756 769.573C32.9609 770.068 32.5882 770.692 32.3965 771.38C31.1951 775.386 31.3385 779.675 32.8048 783.592C33.2612 784.818 33.4769 786.12 33.4401 787.428C33.3021 788.438 32.8124 789.368 32.0572 790.053C31.3021 790.738 30.3297 791.134 29.3111 791.173C28.2537 791.154 27.2304 790.796 26.3928 790.15C25.5552 789.504 24.9477 788.605 24.6603 787.587C24.5492 787.26 24.514 786.913 24.5572 786.571C24.6005 786.228 24.7211 785.901 24.9099 785.612C25.3409 785.09 26.7022 785.612 26.7022 785.612C26.6433 785.962 26.7146 786.322 26.9027 786.623C27.0908 786.924 27.3826 787.146 27.723 787.246C28.0616 787.388 28.4394 787.403 28.7887 787.291C29.1379 787.179 29.4358 786.946 29.6287 786.633C30.1732 785.635 29.4018 784.364 28.4944 783.592C27.7157 782.916 26.7658 782.469 25.7493 782.298C25.1039 782.258 24.457 782.349 23.8479 782.566C23.2387 782.784 22.6798 783.122 22.2049 783.561C21.73 784 21.3489 784.531 21.0847 785.121C20.8204 785.712 20.6785 786.35 20.6675 786.997C20.7268 788.346 21.1505 789.653 21.8935 790.78C22.6366 791.908 23.6712 792.812 24.8872 793.398C26.9034 794.441 29.246 794.661 31.4209 794.01C32.4606 793.691 33.4237 793.161 34.2509 792.454C35.078 791.748 35.7518 790.879 36.2305 789.902C36.7139 790.523 37.2965 791.06 37.9547 791.491C38.2834 791.718 38.6662 791.855 39.0646 791.887C39.463 791.919 39.8627 791.845 40.2234 791.672C40.6095 791.427 40.9229 791.082 41.1309 790.674C42.0426 788.528 42.3411 786.17 41.9929 783.864C44.8968 786.497 45.1464 791.468 48.5267 793.42C48.7611 793.596 49.0385 793.706 49.3299 793.738C49.6213 793.77 49.9159 793.723 50.1828 793.602C50.3971 793.433 50.5682 793.215 50.6819 792.966C51.1583 792.149 51.6347 791.332 52.0885 790.492C52.4107 791.559 52.967 792.541 53.7166 793.366C54.4662 794.19 55.3904 794.837 56.4216 795.259C57.3613 795.651 58.3983 795.746 59.3936 795.531C59.8736 795.393 60.3106 795.135 60.6638 794.782C61.0169 794.429 61.2746 793.991 61.4127 793.511ZM28.1314 757.875C26.8856 757.685 25.625 757.609 24.3654 757.648C23.095 757.512 21.8245 757.307 20.5314 757.126C18.4254 756.914 16.394 756.232 14.5875 755.128L15.9487 754.152C16.0398 754.101 16.1115 754.021 16.1528 753.925C16.1792 753.868 16.1929 753.806 16.1929 753.744C16.1929 753.681 16.1792 753.619 16.1528 753.562C15.6198 752.631 14.955 751.783 14.1791 751.042C13.4034 750.29 12.9551 749.263 12.9313 748.182C13.9831 748.805 14.9449 749.569 15.7898 750.452C19.2642 753.862 23.4921 756.404 28.1314 757.875ZM27.8818 766.727C25.1821 766.545 22.5732 767.068 19.8281 766.727C18.9433 766.727 17.1057 766.591 16.4024 765.887C15.6991 765.184 16.6293 764.366 17.6048 764.525C18.5803 764.684 19.0567 764.798 19.76 764.979C22.4153 765.782 25.1316 766.366 27.8818 766.727ZM36.3666 781.526C36.5255 782.253 36.6843 782.979 36.7977 783.683C36.9111 784.386 36.412 785.952 35.4592 784.908C34.5064 783.864 34.7332 782.343 34.5971 781.458C34.2341 778.712 34.7332 776.101 34.5971 773.4C34.9517 776.155 35.5437 778.874 36.3666 781.526ZM53.0867 788.336C52.5549 788.326 52.0304 788.211 51.5436 787.996C51.0568 787.782 50.6174 787.473 50.2509 787.087C49.5015 786.322 48.6549 785.658 47.7326 785.113C47.6139 785.08 47.4884 785.08 47.3697 785.113C47.2669 785.164 47.1804 785.242 47.1201 785.34L46.1673 786.679C45.0421 784.882 44.358 782.844 44.1709 780.732C43.9894 779.461 43.7625 778.19 43.6491 776.896C43.6809 775.642 43.5974 774.389 43.3995 773.151C44.8611 777.801 47.3767 782.05 50.75 785.567C51.6644 786.401 52.4517 787.364 53.0867 788.427L53.0867 788.336Z" fill="#AB1010"/>
<path d="M58.2365 29.3715C57.7393 29.1911 57.2207 29.0766 56.6938 29.031C56.0129 29.008 55.3352 29.1342 54.7082 29.4008C54.0811 29.6675 53.52 30.068 53.064 30.5745C52.1355 31.5959 51.6041 32.9168 51.5666 34.297C51.4656 35.0886 51.642 35.8907 52.0657 36.5668C53.6538 39.0182 56.7619 35.8859 54.584 35.0914C53.9261 34.8645 53.1547 35.0914 53.0186 34.1608C53.0464 33.5881 53.2512 33.0381 53.6047 32.5868C53.9583 32.1355 54.4431 31.8051 54.9923 31.6413C55.6977 31.458 56.4451 31.5303 57.1022 31.8456C57.878 32.2311 58.5139 32.8499 58.9208 33.6151C59.3276 34.3803 59.4849 35.2537 59.3708 36.1129C59.3364 36.5099 59.2123 36.8939 59.008 37.236C58.8036 37.578 58.5243 37.8692 58.1911 38.0876C57.5332 38.4508 56.6711 38.3827 56.1493 38.9048C55.9509 39.1581 55.8216 39.4585 55.7739 39.7768C55.7261 40.095 55.7617 40.4202 55.8771 40.7206C56.115 41.2986 56.3195 41.8897 56.4896 42.4911C56.5389 43.1937 56.3631 43.8937 55.9878 44.4896C55.6125 45.0855 55.0572 45.5463 54.4025 45.805C53.7536 46.0568 53.0595 46.1707 52.3642 46.1395C51.669 46.1082 50.9879 45.9325 50.3642 45.6235C49.8878 45.3965 49.4114 45.1241 48.8896 44.9198C47.7301 44.5587 46.5009 44.4809 45.3051 44.6928C45.2604 44.7035 45.2138 44.7035 45.169 44.6928C45.0793 44.6731 44.9864 44.6731 44.8968 44.6928C44.8759 44.7901 44.8759 44.8907 44.8968 44.9879L44.8968 45.3965C44.6629 46.5916 44.7411 47.8268 45.1236 48.9828C45.3051 49.4822 45.6001 49.9588 45.8042 50.4582C46.1109 51.0784 46.2872 51.7548 46.3224 52.4458C46.3575 53.1369 46.2506 53.8277 46.0084 54.4758C45.7427 55.1306 45.2774 55.6849 44.6787 56.0598C44.0799 56.4347 43.3782 56.6112 42.6735 56.5641C42.0703 56.4007 41.479 56.1959 40.9039 55.9512C40.6075 55.8354 40.2859 55.7997 39.9714 55.8475C39.6568 55.8953 39.3604 56.025 39.1117 56.2236C38.5672 56.7456 38.6353 57.6309 38.2723 58.2891C38.063 58.6238 37.7767 58.9036 37.4372 59.105C37.0978 59.3064 36.7151 59.4235 36.3212 59.4467C35.4589 59.5659 34.581 59.4109 33.8115 59.0036C33.0421 58.5962 32.4201 57.9572 32.0334 57.1769C31.7395 56.5218 31.6678 55.7884 31.8293 55.0887C32.1015 54.1353 33.2812 52.955 34.3475 53.1139C35.4138 53.2728 35.0508 54.0218 35.3003 54.6574C36.0717 56.9272 39.2024 53.7495 36.7749 52.1379C36.088 51.7421 35.2958 51.5677 34.5063 51.6385C33.1312 51.6971 31.8179 52.2259 30.7857 53.1366C30.279 53.5937 29.8768 54.1547 29.6067 54.7815C29.3365 55.4082 29.2047 56.086 29.2203 56.7683C29.3932 58.1617 29.9598 59.4767 30.8537 60.559C32.4438 61.8452 34.4634 62.4781 36.5027 62.3294C40.1813 62.5632 43.8679 62.0219 47.3242 60.7406C48.7081 60.1958 50.0466 59.4467 51.4759 58.9474C53.3991 58.2855 55.452 58.091 57.4652 58.3799C58.1458 59.1063 57.4652 58.6523 58.1231 59.4467C57.8281 58.7885 60.5959 61.081 60.3917 60.3774C61.1177 60.5363 58.8037 57.7898 59.4843 58.1075C58.6676 57.5174 59.1213 58.1075 58.3953 57.4266C58.1149 55.4181 58.3171 53.3716 58.9852 51.4569C59.4616 50.0269 60.2102 48.6877 60.7774 47.2804C62.0413 43.8184 62.5744 40.1318 62.3428 36.4533C62.5103 34.4108 61.8756 32.3833 60.5732 30.8015C59.9108 30.1563 59.1123 29.6677 58.2365 29.3715ZM52.4287 51.2526C52.4862 51.6668 52.4862 52.0869 52.4287 52.5011C52.0171 52.5208 51.6047 52.4826 51.2036 52.3876C49.9332 52.0017 49.4568 50.549 49.1619 49.2325C50.7046 49.5049 52.1565 49.9361 52.5422 51.2526L52.4287 51.2526Z" fill="#AB1010"/>
<path d="M59.3032 6.24197C58.3079 6.02737 57.2709 6.12241 56.3312 6.51434C55.2926 6.94324 54.3638 7.60053 53.6137 8.43747C52.8636 9.27441 52.3114 10.2695 51.998 11.3491C51.5443 10.5093 51.0679 9.69211 50.5915 8.87497C50.4778 8.62656 50.3067 8.40873 50.0924 8.23942C49.8254 8.11822 49.5308 8.07113 49.2394 8.10308C48.948 8.13503 48.6706 8.24484 48.4362 8.421C45.0559 10.3731 44.8064 15.344 41.9025 17.977C42.2506 15.6711 41.9522 13.3137 41.0404 11.1675C40.8324 10.7595 40.5191 10.4147 40.1329 10.1688C39.7723 9.99643 39.3725 9.92246 38.9742 9.95435C38.5758 9.98623 38.1929 10.1228 37.8642 10.3504C37.206 10.7814 36.6234 11.3183 36.14 11.9392C35.6638 10.9579 34.9911 10.0849 34.1638 9.37425C33.3365 8.66364 32.3721 8.13059 31.3305 7.80815C29.1555 7.15738 26.8129 7.37711 24.7967 8.421C23.5807 9.00658 22.5461 9.91108 21.803 11.0382C21.06 12.1654 20.6362 13.473 20.577 14.8219C20.588 15.4688 20.7299 16.1068 20.9941 16.6973C21.2584 17.2878 21.6395 17.8186 22.1144 18.2577C22.5893 18.6968 23.1482 19.0351 23.7574 19.2521C24.3666 19.4691 25.0134 19.5604 25.6588 19.5205C26.7146 19.3467 27.6987 18.8741 28.4946 18.1586C29.4021 17.4095 30.1734 16.1157 29.629 15.117C29.436 14.8048 29.1382 14.5717 28.7889 14.4594C28.4397 14.347 28.0619 14.3629 27.7233 14.5042C27.3829 14.6047 27.0911 14.8264 26.903 15.1275C26.7149 15.4286 26.6435 15.7883 26.7024 16.1384C26.7024 16.1384 25.3412 16.6605 24.9101 16.1384C24.7213 15.8499 24.6007 15.5221 24.5575 15.1799C24.5142 14.8377 24.5495 14.4902 24.6606 14.1637C24.9479 13.1454 25.5554 12.2468 26.3931 11.6008C27.2307 10.9549 28.254 10.596 29.3113 10.5773C30.3299 10.616 31.3023 11.0127 32.0575 11.6977C32.8127 12.3827 33.3023 13.3121 33.4403 14.3226C33.4772 15.6302 33.2615 16.9327 32.8051 18.1586C31.3387 22.0751 31.1953 26.3645 32.3967 30.3703C32.5885 31.0584 32.9611 31.6824 33.4759 32.1775C33.9906 32.6725 34.6285 33.0204 35.3233 33.1849C35.5955 31.8003 36.0947 30.166 37.4332 29.712C38.0143 29.611 38.6111 29.6488 39.1749 29.8224C39.7387 29.9959 40.2535 30.3003 40.6774 30.7108C40.962 30.8714 41.1974 31.1069 41.358 31.3917C41.4592 31.7169 41.4592 32.0652 41.358 32.3904C41.1538 35.0461 40.8362 37.6792 40.4051 40.3122C37.7735 40.7434 35.1191 41.0839 32.4875 41.2882C32.1596 41.369 31.8171 41.369 31.4893 41.2882C31.2026 41.1223 30.961 40.8885 30.786 40.6072C30.3773 40.1821 30.074 39.667 29.9007 39.1032C29.7273 38.5394 29.6886 37.9428 29.7878 37.3614C30.2415 35.9995 31.8976 35.5001 33.2815 35.2277C33.1065 34.534 32.7524 33.8983 32.2547 33.3845C31.7571 32.8706 31.1332 32.4965 30.4457 32.2996C26.4496 31.0977 22.1696 31.2412 18.2629 32.7082C17.0397 33.1722 15.7364 33.3883 14.4289 33.3438C13.4171 33.21 12.4856 32.7214 11.8002 31.9649C11.1147 31.2084 10.7197 30.2332 10.6856 29.2127C10.7028 28.1577 11.0582 27.1361 11.6995 26.2984C12.3407 25.4607 13.2338 24.8511 14.2474 24.5595C14.5737 24.4484 14.9211 24.4131 15.263 24.4563C15.605 24.4996 15.9327 24.6203 16.2211 24.8092C16.7429 25.2405 16.2211 26.6251 16.2211 26.6251C15.8765 26.5608 15.5204 26.6276 15.2224 26.8123C14.9245 26.9971 14.7062 27.2864 14.6104 27.6238C14.4593 27.9612 14.4383 28.3426 14.5514 28.6946C14.6645 29.0466 14.9036 29.3443 15.2229 29.5304C16.2211 30.0752 17.4916 29.3262 18.2629 28.3955C18.9361 27.6178 19.3765 26.6659 19.5334 25.649C19.5991 25.0004 19.5305 24.3451 19.3318 23.7241C19.1332 23.1032 18.8087 22.5299 18.3786 22.04C17.9486 21.5501 17.4223 21.1541 16.8325 20.8769C16.2427 20.5996 15.6021 20.4469 14.9507 20.4284C13.5979 20.4812 12.2851 20.9023 11.1538 21.6462C10.0225 22.3902 9.1154 23.4288 8.53033 24.6503C7.48834 26.6598 7.26869 28.9961 7.91781 31.1647C8.24483 32.2107 8.78168 33.179 9.49552 34.0103C10.2094 34.8416 11.0852 35.5184 12.0694 35.9995C11.4495 36.4751 10.9129 37.0503 10.4814 37.7018C10.254 38.0307 10.1174 38.4138 10.0856 38.8123C10.0537 39.2109 10.1276 39.6109 10.2999 39.9717C10.5402 40.3626 10.8863 40.6774 11.2981 40.8796C13.4448 41.7865 15.8015 42.0773 18.1041 41.7195C15.4498 44.6248 10.5041 44.8745 8.55303 48.2793C8.36499 48.5071 8.24413 48.7828 8.20406 49.0755C8.16398 49.3682 8.20626 49.6663 8.32615 49.9362C8.48708 50.1497 8.69725 50.321 8.9387 50.4356L11.4115 51.8429C10.344 52.1578 9.36226 52.7119 8.54071 53.4631C7.71916 54.2143 7.07942 55.1428 6.67003 56.1783C6.27687 57.1181 6.18181 58.1561 6.39777 59.1518C6.50433 59.6452 6.73854 60.102 7.07696 60.4764C7.41538 60.8509 7.84614 61.1298 8.32615 61.2854C9.07251 61.3866 9.83179 61.3298 10.5548 61.1187C11.2778 60.9075 11.9485 60.5467 12.5232 60.0597C17.35 56.9404 21.9037 53.4171 26.1352 49.5277C27.9688 47.4458 30.3153 45.8807 32.9412 44.988C34.0098 44.7839 35.0997 44.7153 36.1854 44.7837C39.0893 44.7837 41.9932 44.7837 44.8971 44.9426L44.7383 36.2265C44.6937 35.1328 44.7621 34.0375 44.9425 32.9579C45.8478 30.3371 47.41 27.9925 49.4798 26.1484C53.3607 21.9149 56.8747 17.3588 59.9838 12.5294C60.4776 11.9535 60.844 11.2796 61.0591 10.552C61.2741 9.82439 61.3329 9.05948 61.2315 8.30751C61.1085 7.82928 60.8675 7.38958 60.5306 7.0287C60.1937 6.66783 59.7717 6.39732 59.3032 6.24197ZM15.722 51.0939C14.877 51.9773 13.9153 52.741 12.8635 53.3637C12.8873 52.2833 13.3356 51.2557 14.1113 50.5037C14.8872 49.7635 15.552 48.9149 16.085 47.9842C16.1114 47.9273 16.1251 47.8653 16.1251 47.8026C16.1251 47.7399 16.1114 47.6779 16.085 47.621C16.0437 47.525 15.9719 47.4452 15.8808 47.394L14.5196 46.418C16.3261 45.3146 18.3576 44.632 20.4635 44.4206C21.7567 44.239 23.0271 44.0347 24.2976 43.8985C25.5572 43.9375 26.8177 43.8615 28.0636 43.6715C23.4243 45.1418 19.1963 47.6845 15.722 51.0939ZM19.6695 36.7258C18.9662 36.8847 18.2402 37.0209 17.5143 37.1571C16.7883 37.2933 15.2456 36.7485 16.3119 35.7952C17.3782 34.8419 18.8528 35.0688 19.7376 34.9553C22.4826 34.5695 25.0916 35.0915 27.7913 34.9553C25.0386 35.3129 22.3214 35.9052 19.6695 36.7258ZM34.4839 28.2366C34.6427 25.5355 34.1436 22.9252 34.4839 20.1787C34.62 19.2935 34.6427 17.4322 35.346 16.7286C36.0493 16.0249 36.8433 16.9556 36.6845 17.9543C36.5257 18.953 36.4123 19.3843 36.2535 20.1106C35.4613 22.7659 34.8996 25.4847 34.5747 28.2366L34.4839 28.2366ZM50.7503 16.0476C47.3769 19.5646 44.8614 23.8137 43.3998 28.4636C43.5977 27.2255 43.6812 25.9718 43.6494 24.7184C43.7628 23.4246 43.9896 22.1535 44.1711 20.8824C44.3583 18.7702 45.0424 16.7324 46.1675 14.9354L47.1204 16.2746C47.1807 16.3722 47.2672 16.4508 47.37 16.5016C47.4887 16.5345 47.6142 16.5345 47.7329 16.5016C48.6552 15.9565 49.5018 15.2926 50.2512 14.5269C50.6177 14.1412 51.0571 13.8323 51.5439 13.618C52.0307 13.4037 52.5552 13.2883 53.087 13.2784C52.4448 14.3088 51.6578 15.2414 50.7503 16.0476Z" fill="#AB1010"/>
<path d="M16.584 722.646L16.584 79.4437C16.584 79.1827 16.686 78.932 16.8683 78.7454C17.0507 78.5587 17.2988 78.4509 17.5596 78.445C33.6869 78.4329 49.1492 72.0131 60.5466 60.5971C71.9439 49.1811 78.3431 33.7037 78.3371 17.568C78.3371 17.307 78.4391 17.0564 78.6214 16.8697C78.8038 16.6831 79.0518 16.5752 79.3126 16.5693L466.597 16.5693C466.861 16.5693 467.115 16.6746 467.303 16.8619C467.49 17.0492 467.595 17.3032 467.595 17.5681C467.613 33.6997 474.032 49.1642 485.442 60.5625C496.851 71.9608 512.317 78.3602 528.441 78.3542C528.58 78.3536 528.717 78.3821 528.845 78.4379C528.972 78.4937 529.087 78.5755 529.18 78.678C529.274 78.7806 529.346 78.9017 529.39 79.0336C529.435 79.1654 529.451 79.3051 529.439 79.4437L529.439 722.646C529.439 722.911 529.334 723.165 529.146 723.352C528.959 723.54 528.705 723.645 528.44 723.645C512.329 723.663 496.883 730.076 485.492 741.477C474.102 752.877 467.698 768.334 467.686 784.454C467.674 784.585 467.637 784.713 467.576 784.83C467.515 784.947 467.431 785.05 467.33 785.135C467.229 785.219 467.112 785.283 466.986 785.322C466.86 785.361 466.728 785.374 466.597 785.362L79.3126 785.362C79.0539 785.362 78.8058 785.259 78.6228 785.076C78.4399 784.893 78.3371 784.645 78.3371 784.386C78.3191 768.264 71.91 752.807 60.5159 741.407C49.1218 730.007 33.6732 723.595 17.5595 723.577C17.3101 723.572 17.0716 723.473 16.891 723.301C16.7105 723.129 16.601 722.895 16.584 722.646ZM18.5578 80.2835L18.5577 721.67C34.8461 721.95 50.3887 728.551 61.9059 740.078C73.423 751.605 80.014 767.158 80.2881 783.455L465.712 783.455C465.986 767.154 472.58 751.598 484.102 740.07C495.624 728.542 511.173 721.945 527.465 721.67L527.465 80.3289C511.173 80.0545 495.624 73.457 484.102 61.929C472.58 50.4011 465.986 34.8448 465.712 18.5441L80.2882 18.5441C80.0197 34.8427 73.4305 50.3989 61.9121 61.9275C50.3937 73.456 34.8479 80.0543 18.5578 80.3289L18.5578 80.2835Z" fill="#AB1010"/>
</svg>
