<svg width="348" height="98" viewBox="0 0 348 98" fill="none" xmlns="http://www.w3.org/2000/svg">
<path d="M35.2669 6.28954C34.6608 6.16245 34.0431 6.09844 33.4237 6.09853C30.9515 6.09669 28.5748 7.05216 26.7926 8.76428C25.0105 10.4764 23.9616 12.812 23.8663 15.2805H16.9166V21.9384C11.9385 24.4988 7.77843 28.4025 4.90885 33.2065C2.03927 38.0105 0.575122 43.5223 0.682648 49.1159C0.682648 61.3949 7.50939 71.873 17.3262 76.4026V82.7604H24.2759C24.3747 85.2265 25.4251 87.5586 27.2068 89.2678C28.9886 90.9771 31.3634 91.9307 33.8333 91.9287C34.4521 91.9318 35.0697 91.8724 35.6765 91.7513V97.3587H312.733V91.7104C313.34 91.8315 313.957 91.8909 314.576 91.8878C317.046 91.8897 319.421 90.9361 321.203 89.2269C322.985 87.5177 324.035 85.1856 324.134 82.7194H331.07V76.0615C336.039 73.5053 340.194 69.61 343.063 64.8166C345.932 60.0232 347.401 54.523 347.304 48.9386C347.304 36.6596 340.477 26.1679 330.66 21.6519V15.2805H323.724C323.629 12.812 322.58 10.4764 320.798 8.76428C319.016 7.05216 316.639 6.09669 314.167 6.09853C313.547 6.09988 312.93 6.16387 312.323 6.28954V0.682129H35.2669V6.28954Z" stroke="#586E57" stroke-miterlimit="10"/>
<path d="M35.2669 6.28954C34.6608 6.16245 34.0431 6.09844 33.4237 6.09853C30.9515 6.09669 28.5748 7.05216 26.7926 8.76428C25.0105 10.4764 23.9616 12.812 23.8663 15.2805H16.9166V21.9384C11.9385 24.4988 7.77843 28.4025 4.90885 33.2065C2.03927 38.0105 0.575122 43.5223 0.682648 49.1159C0.682648 61.3949 7.50939 71.873 17.3262 76.4026V82.7604H24.2759C24.3747 85.2265 25.4251 87.5586 27.2068 89.2678C28.9886 90.9771 31.3634 91.9307 33.8333 91.9287C34.4521 91.9318 35.0697 91.8724 35.6765 91.7513V97.3587H312.733V91.7104C313.34 91.8315 313.957 91.8909 314.576 91.8878C317.046 91.8897 319.421 90.9361 321.203 89.2269C322.985 87.5177 324.035 85.1856 324.134 82.7194H331.07V76.0615C336.039 73.5053 340.194 69.61 343.063 64.8166C345.932 60.0232 347.401 54.523 347.304 48.9386C347.304 36.6596 340.477 26.1679 330.66 21.6519V15.2805H323.724C323.629 12.812 322.58 10.4764 320.798 8.76428C319.016 7.05216 316.639 6.09669 314.167 6.09853C313.547 6.09988 312.93 6.16387 312.323 6.28954V0.682129H35.2669V6.28954Z" stroke="#586E57" stroke-miterlimit="10"/>
<path d="M342.184 48.9385C342.184 58.2842 337.35 67.0705 329.895 71.3136L325.977 73.5511V78.067H320.516L318.904 83.7836C318.678 84.6675 318.196 85.4651 317.519 86.0766C316.841 86.6882 315.998 87.0865 315.095 87.2217L307.695 88.013V92.6654H40.8103V88.013L33.4101 87.2217C32.5054 87.0855 31.6612 86.6852 30.9834 86.071C30.3057 85.4569 29.8247 84.6564 29.6008 83.77L27.9897 78.067H22.46V73.8103L18.364 71.6001C10.7726 67.4116 5.81641 58.5571 5.81641 49.1159C5.81641 39.6747 10.6497 30.9839 18.1045 26.7409L22.0367 24.5033V19.9328H27.4981L29.1229 14.2163C29.3469 13.3193 29.8371 12.511 30.5291 11.8975C31.2211 11.2839 32.0826 10.8937 33.0005 10.7782L40.4143 9.98685V5.33447H307.203V9.98685L314.617 10.7782C315.518 10.9142 316.359 11.313 317.034 11.9246C317.71 12.5362 318.189 13.3334 318.413 14.2163L320.024 19.9328H325.554V24.1895L329.65 26.3998C337.241 30.5883 342.184 39.4428 342.184 48.9385Z" stroke="#586E57" stroke-miterlimit="10"/>
<path d="M48.2787 84.8752V80.9732L36.2363 79.6908L33.5056 70.2769H29.9284V69.1036L21.8456 64.6968C19.173 63.0819 16.9741 60.791 15.471 58.0553C13.9679 55.3197 13.2138 52.2361 13.2848 49.1161C13.211 46.0092 13.9492 42.9369 15.4265 40.2021C16.9039 37.4674 19.0693 35.1649 21.709 33.5218L29.5325 29.074V27.7097H33.1643L35.8267 18.2958L47.8828 17.0133V13.125H299.721V17.027L311.764 18.3095L314.494 27.7234H318.126V28.8967L326.168 33.3035C331.397 36.1549 334.77 42.2944 334.77 48.9387C334.83 52.0388 334.082 55.1012 332.601 57.8255C331.119 60.5498 328.954 62.8424 326.318 64.4785L318.495 68.9262V70.2905H314.849L312.119 79.7044L300.076 80.9869V84.8889L48.2787 84.8752Z" stroke="#586E57" stroke-miterlimit="10"/>
<path d="M313.211 46.3873C312.918 45.8865 312.523 45.4521 312.053 45.1116C311.583 44.771 311.048 44.5318 310.48 44.409C308.127 43.6931 305.676 43.3524 303.216 43.3994C304.222 43.0416 305.198 42.6083 306.138 42.1033C306.665 41.8792 307.139 41.5473 307.529 41.129C307.919 40.7107 308.218 40.2153 308.405 39.6748C308.508 39.0627 308.437 38.434 308.2 37.8602C307.846 37.0042 307.276 36.2542 306.547 35.6829C305.817 35.1116 304.952 34.7384 304.036 34.5994C304.571 33.2934 304.605 31.836 304.131 30.5064C303.847 29.8416 303.335 29.3001 302.686 28.9798C302.038 28.6596 301.296 28.5816 300.595 28.7601C300.851 28.0109 300.884 27.2035 300.69 26.4359C300.496 25.6682 300.084 24.9733 299.503 24.4352C298.879 23.9002 298.122 23.5431 297.313 23.4015C296.503 23.2598 295.67 23.3388 294.901 23.6302C293.676 24.2412 292.614 25.1344 291.802 26.2361C290.22 27.8708 288.927 29.7623 287.979 31.8298C287.032 29.9314 285.808 28.1842 284.347 26.6454C283.539 25.5454 282.482 24.6523 281.262 24.0395C280.494 23.7492 279.662 23.6695 278.853 23.8087C278.044 23.9478 277.287 24.3007 276.66 24.8308C276.077 25.3674 275.662 26.0616 275.465 26.8294C275.269 27.5971 275.3 28.4052 275.554 29.1558C274.853 28.9773 274.112 29.0552 273.463 29.3755C272.815 29.6958 272.302 30.2372 272.018 30.9021C271.545 32.2316 271.579 33.6891 272.114 34.9951C271.204 35.1273 270.344 35.4919 269.617 36.0536C268.89 36.6153 268.32 37.355 267.963 38.2013C267.714 38.7718 267.643 39.4042 267.758 40.0158C267.942 40.5576 268.238 41.0549 268.626 41.4755C269.014 41.8962 269.486 42.2309 270.011 42.458C270.628 42.7852 271.262 43.0812 271.909 43.3448C269.942 43.4432 267.994 43.7776 266.106 44.3408C265.541 44.4635 265.006 44.7013 264.536 45.0393C264.067 45.3773 263.671 45.8083 263.376 46.3054C263.136 46.8786 263.069 47.5094 263.184 48.12C263.355 49.0241 263.761 49.8677 264.36 50.5667C264.958 51.2657 265.73 51.7956 266.598 52.1038C265.806 53.2716 265.471 54.6892 265.656 56.0877C265.799 56.7927 266.194 57.4217 266.766 57.8582C267.339 58.2947 268.05 58.5091 268.769 58.4616C268.354 59.137 268.149 59.9205 268.181 60.7124C268.212 61.5044 268.479 62.2691 268.946 62.9093C269.451 63.5525 270.123 64.0451 270.888 64.3337C271.654 64.6224 272.484 64.696 273.288 64.5465C274.618 64.1811 275.844 63.5081 276.865 62.5819C277.739 61.8997 278.626 61.2176 279.432 60.4672C278.655 62.0342 278.038 63.675 277.589 65.3651C277.12 66.6235 276.975 67.9791 277.166 69.3081C277.365 70.0912 277.782 70.8018 278.37 71.3572C278.957 71.9127 279.69 72.2902 280.483 72.446C281.287 72.5966 282.117 72.5264 282.884 72.2428C283.651 71.9593 284.327 71.4731 284.839 70.8361C285.12 71.5006 285.629 72.043 286.275 72.3657C286.921 72.6883 287.661 72.77 288.361 72.5961C289.767 72.2196 290.998 71.3658 291.843 70.1812C292.526 70.8267 293.36 71.2901 294.269 71.5285C295.178 71.767 296.133 71.7728 297.045 71.5456C297.675 71.4144 298.256 71.1123 298.724 70.6724C299.077 70.2354 299.331 69.7279 299.47 69.1841C299.609 68.6404 299.63 68.0731 299.53 67.5208C299.285 65.2684 298.677 63.0705 297.728 61.0129C298.369 61.5723 299.093 62.1044 299.707 62.6228C300.728 63.5531 301.954 64.2308 303.285 64.6011C304.091 64.7456 304.921 64.6697 305.688 64.3815C306.455 64.0933 307.129 63.6035 307.64 62.9639C308.108 62.3236 308.374 61.559 308.406 60.767C308.437 59.9751 308.233 59.1916 307.818 58.5162C308.534 58.5642 309.244 58.3518 309.816 57.918C310.388 57.4842 310.784 56.8584 310.931 56.1559C311.123 54.7547 310.793 53.3317 310.002 52.1584C310.868 51.8478 311.639 51.3171 312.237 50.6186C312.836 49.92 313.242 49.0777 313.416 48.1745C313.524 47.5716 313.453 46.9501 313.211 46.3873ZM303.23 48.1063C303.135 48.6209 302.905 49.1012 302.565 49.4989C302.225 49.8965 301.785 50.1974 301.291 50.3711C301.738 51.0417 301.927 51.8508 301.824 52.6496C301.745 53.0539 301.521 53.4156 301.194 53.6668C300.867 53.918 300.46 54.0414 300.049 54.0139C300.283 54.4005 300.398 54.8477 300.378 55.2992C300.359 55.7507 300.206 56.1864 299.94 56.5515C299.651 56.9201 299.267 57.2027 298.829 57.3686C298.39 57.5345 297.915 57.5775 297.455 57.4929C296.697 57.2803 296 56.8924 295.42 56.3605C295.038 56.0604 294.656 55.7602 294.287 55.4464C294.828 56.6204 295.179 57.8731 295.325 59.1574C295.378 59.4733 295.365 59.797 295.285 60.1074C295.205 60.4177 295.06 60.7077 294.86 60.9583C294.588 61.2025 294.26 61.3759 293.905 61.4631C293.382 61.5888 292.836 61.5822 292.316 61.444C291.797 61.3059 291.32 61.0405 290.928 60.6718C290.443 61.3381 289.744 61.8192 288.949 62.0362C288.547 62.1341 288.123 62.0864 287.753 61.9015C287.383 61.7166 287.091 61.4066 286.928 61.0266C286.638 61.3926 286.252 61.6716 285.814 61.8329C285.376 61.9941 284.901 62.0314 284.443 61.9407C284.004 61.8414 283.601 61.6215 283.28 61.3057C282.959 60.9899 282.733 60.5908 282.627 60.1534C282.523 59.4021 282.612 58.6367 282.886 57.9295C283.145 56.9652 283.497 56.0285 283.938 55.1326C283.473 55.5556 282.968 55.9512 282.477 56.3469C281.893 56.8778 281.191 57.2615 280.429 57.4656C279.97 57.5492 279.497 57.5056 279.062 57.3396C278.626 57.1737 278.244 56.8917 277.957 56.5243C277.691 56.1591 277.538 55.7234 277.519 55.2719C277.499 54.8204 277.614 54.3732 277.848 53.9866C277.439 54.0137 277.033 53.8898 276.708 53.6384C276.384 53.387 276.163 53.0255 276.087 52.6223C275.971 51.8229 276.161 51.0092 276.619 50.3438C276.124 50.1709 275.682 49.8705 275.339 49.473C274.997 49.0754 274.765 48.5946 274.667 48.079C274.6 47.7302 274.638 47.3695 274.776 47.0421C274.941 46.7583 275.163 46.512 275.429 46.3193C275.695 46.1266 275.998 45.9917 276.319 45.9234C277.396 45.5937 278.511 45.4012 279.637 45.3504C279.264 45.2009 278.9 45.0324 278.545 44.8456C278.249 44.717 277.983 44.5297 277.763 44.2952C277.542 44.0607 277.371 43.7837 277.261 43.4812C277.201 43.1322 277.239 42.7733 277.37 42.4443C277.578 41.9575 277.906 41.5317 278.324 41.207C278.742 40.8823 279.236 40.6695 279.76 40.5889C279.467 39.8388 279.467 39.0059 279.76 38.2558C279.923 37.8765 280.216 37.5678 280.586 37.3852C280.957 37.2026 281.38 37.1582 281.78 37.2599C281.631 36.8321 281.61 36.3698 281.722 35.9306C281.834 35.4914 282.073 35.0948 282.409 34.7904C282.765 34.4873 283.196 34.2855 283.657 34.2062C284.119 34.127 284.593 34.1733 285.03 34.3402C285.706 34.6856 286.288 35.1915 286.723 35.8137C287.561 36.6897 288.261 37.688 288.798 38.7743C289.345 37.5968 290.083 36.518 290.983 35.5818C291.444 34.9485 292.053 34.4379 292.758 34.0946C293.195 33.9277 293.669 33.8814 294.13 33.9607C294.592 34.0399 295.023 34.2417 295.379 34.5449C295.714 34.8503 295.951 35.2469 296.063 35.6857C296.175 36.1245 296.155 36.5864 296.007 37.0143C296.406 36.9133 296.827 36.9583 297.195 37.1409C297.564 37.3236 297.854 37.632 298.014 38.0103C298.308 38.7603 298.308 39.5932 298.014 40.3433C298.539 40.4224 299.033 40.6363 299.45 40.9639C299.866 41.2916 300.19 41.7218 300.39 42.2124C300.533 42.5383 300.575 42.8991 300.513 43.2493C300.402 43.5514 300.231 43.828 300.011 44.0624C299.79 44.2969 299.525 44.4844 299.23 44.6136C298.69 44.9037 298.129 45.1501 297.55 45.3504C298.937 45.3369 300.319 45.5347 301.646 45.937C301.966 46.0085 302.268 46.1446 302.533 46.337C302.799 46.5294 303.022 46.774 303.189 47.0558C303.314 47.3927 303.328 47.7607 303.23 48.1063Z" fill="#586E57"/>
<path d="M295.612 44.8322C295.439 44.8561 295.282 44.9464 295.175 45.0841C295.068 45.2217 295.019 45.3957 295.038 45.569L292.239 46.5104C292.203 46.0389 292.071 45.5797 291.853 45.1601C291.635 44.7405 291.334 44.3692 290.969 44.0682L292.417 41.6943C292.532 41.7388 292.657 41.747 292.777 41.7177C292.897 41.6884 293.004 41.6231 293.086 41.5305C293.212 41.4007 293.282 41.227 293.282 41.0462C293.282 40.8654 293.212 40.6917 293.086 40.5619C293.029 40.5002 292.961 40.451 292.884 40.4173C292.808 40.3836 292.725 40.3662 292.642 40.3662C292.558 40.3662 292.476 40.3836 292.399 40.4173C292.323 40.451 292.254 40.5002 292.198 40.5619C292.082 40.6939 292.018 40.8636 292.018 41.0394C292.018 41.2152 292.082 41.3849 292.198 41.5169L290.751 43.8908C290.256 43.5656 289.678 43.3903 289.085 43.386H288.676L287.911 40.7802C288.022 40.7106 288.111 40.6106 288.166 40.492C288.222 40.3735 288.242 40.2414 288.225 40.1116C288.214 39.9403 288.137 39.78 288.009 39.6652C287.882 39.5504 287.714 39.4902 287.542 39.4977C287.367 39.5279 287.21 39.6238 287.104 39.7659C286.997 39.9079 286.949 40.0853 286.969 40.2617C286.974 40.346 286.996 40.4284 287.033 40.5042C287.07 40.58 287.122 40.6478 287.185 40.7036C287.249 40.7593 287.323 40.802 287.403 40.8292C287.483 40.8564 287.567 40.8676 287.652 40.862L288.389 43.4406C287.919 43.5645 287.483 43.7916 287.112 44.1056C286.741 44.4195 286.445 44.8123 286.245 45.2552L284.074 43.7135C284.118 43.5885 284.127 43.4542 284.1 43.3245C284.074 43.1949 284.013 43.0748 283.924 42.9767C283.868 42.9151 283.799 42.8659 283.723 42.8322C283.647 42.7985 283.564 42.7811 283.48 42.7811C283.397 42.7811 283.314 42.7985 283.238 42.8322C283.162 42.8659 283.093 42.9151 283.037 42.9767C282.917 43.1096 282.85 43.2822 282.85 43.4611C282.85 43.64 282.917 43.8126 283.037 43.9454C283.091 44.0087 283.158 44.0595 283.233 44.0944C283.308 44.1292 283.391 44.1473 283.474 44.1473C283.557 44.1473 283.639 44.1292 283.714 44.0944C283.79 44.0595 283.857 44.0087 283.911 43.9454L286.122 45.528C285.979 45.9311 285.905 46.3555 285.904 46.7832C285.901 47.2057 285.97 47.6257 286.109 48.0248L283.282 48.6387C283.237 48.5236 283.158 48.4245 283.056 48.3541C282.954 48.2837 282.833 48.2451 282.709 48.2431C282.573 48.2322 282.436 48.2624 282.318 48.3298C282.199 48.3972 282.103 48.4987 282.042 48.6212C281.982 48.7437 281.96 48.8815 281.978 49.0167C281.997 49.152 282.056 49.2785 282.148 49.3799C282.239 49.4814 282.359 49.553 282.492 49.5855C282.625 49.6181 282.764 49.6101 282.892 49.5626C283.02 49.5151 283.131 49.4302 283.21 49.319C283.29 49.2078 283.334 49.0754 283.337 48.9389L286.232 48.2976C286.485 48.8466 286.881 49.3178 287.379 49.662L285.904 52.6908C285.784 52.6568 285.657 52.6608 285.539 52.7024C285.422 52.7439 285.32 52.8209 285.249 52.9227C285.144 53.0682 285.096 53.2468 285.113 53.4251C285.131 53.6034 285.213 53.7692 285.344 53.8914C285.408 53.9468 285.482 53.9882 285.563 54.0128C285.644 54.0375 285.729 54.045 285.812 54.0347C285.896 54.0244 285.977 53.9966 286.049 53.9531C286.121 53.9096 286.183 53.8514 286.232 53.7823C286.336 53.6427 286.385 53.4696 286.37 53.2959C286.355 53.1223 286.277 52.9603 286.15 52.8409L287.611 49.812C288.06 50.0681 288.568 50.2043 289.085 50.2077C289.583 50.1997 290.072 50.0714 290.509 49.8339C290.946 49.5963 291.32 49.2564 291.597 48.8434L291.475 49.1026L294.301 50.7125C294.271 50.8395 294.276 50.9721 294.314 51.0967C294.352 51.2214 294.423 51.3336 294.519 51.422C294.583 51.4773 294.657 51.5187 294.738 51.5434C294.819 51.5681 294.904 51.5755 294.987 51.5652C295.071 51.5549 295.152 51.5271 295.224 51.4836C295.296 51.4402 295.359 51.3819 295.407 51.3128C295.513 51.1706 295.563 50.9935 295.545 50.8167C295.527 50.6398 295.444 50.4761 295.311 50.3578C295.251 50.3013 295.179 50.2582 295.1 50.2315C295.022 50.2047 294.938 50.1949 294.856 50.2026C294.773 50.2104 294.693 50.2355 294.621 50.2763C294.549 50.3172 294.486 50.3728 294.437 50.4396L291.597 48.8297C292.039 48.2186 292.273 47.4824 292.266 46.7287L295.147 45.76C295.201 45.8705 295.287 45.9615 295.395 46.0202C295.503 46.0789 295.626 46.1024 295.748 46.0874C295.924 46.0637 296.083 45.9713 296.19 45.8307C296.298 45.69 296.345 45.5125 296.322 45.337C296.286 45.1806 296.194 45.0427 296.063 44.9497C295.932 44.8566 295.771 44.8148 295.612 44.8322Z" fill="#586E57"/>
<path d="M290.819 53.5774L290.177 50.1802H289.918L290.546 53.5774C290.433 53.6378 290.338 53.7284 290.273 53.8392C290.208 53.9499 290.175 54.0765 290.177 54.205C290.164 54.2961 290.17 54.389 290.196 54.4774C290.222 54.5659 290.266 54.6477 290.327 54.7174C290.387 54.7871 290.461 54.843 290.545 54.8813C290.629 54.9197 290.72 54.9395 290.812 54.9395C290.904 54.9395 290.996 54.9197 291.079 54.8813C291.163 54.843 291.238 54.7871 291.298 54.7174C291.358 54.6477 291.403 54.5659 291.428 54.4774C291.454 54.389 291.461 54.2961 291.447 54.205C291.437 54.0417 291.368 53.8877 291.252 53.772C291.137 53.6563 290.983 53.5871 290.819 53.5774Z" fill="#586E57"/>
<path d="M86.0169 46.3873C85.7237 45.8865 85.3296 45.4521 84.8595 45.1116C84.3894 44.771 83.8537 44.5318 83.2862 44.409C80.9379 43.693 78.491 43.3522 76.0362 43.3994C77.0394 43.0363 78.0158 42.6032 78.9581 42.1033C79.4822 41.8776 79.9533 41.545 80.3413 41.1268C80.7292 40.7086 81.0254 40.214 81.2109 39.6748C81.3276 39.0631 81.2562 38.4305 81.0061 37.8602C80.6519 37.0042 80.0824 36.2542 79.3528 35.6829C78.6232 35.1116 77.7582 34.7384 76.8418 34.5994C77.3835 33.2948 77.4175 31.8349 76.9374 30.5064C76.6535 29.8416 76.1409 29.3001 75.4924 28.9798C74.8439 28.6596 74.1021 28.5816 73.4011 28.7601C73.6679 28.0121 73.7065 27.2018 73.5121 26.4319C73.3176 25.662 72.8989 24.9671 72.3088 24.4352C71.6851 23.9002 70.9285 23.5431 70.1188 23.4015C69.3091 23.2598 68.4762 23.3388 67.7076 23.6302C66.4825 24.2412 65.4202 25.1344 64.6083 26.2361C63.026 27.8708 61.7332 29.7623 60.7853 31.8298C59.8432 29.9286 58.6188 28.1807 57.1535 26.6454C56.3415 25.5437 55.2792 24.6505 54.0541 24.0395C53.2863 23.7492 52.4547 23.6695 51.6456 23.8087C50.8365 23.9478 50.0795 24.3007 49.4529 24.8308C48.8629 25.3627 48.4441 26.0577 48.2497 26.8276C48.0552 27.5975 48.0938 28.4078 48.3606 29.1558C47.6596 28.9773 46.9179 29.0552 46.2693 29.3755C45.6208 29.6957 45.1083 30.2372 44.8244 30.9021C44.3464 32.23 44.3756 33.6874 44.9063 34.9951C44.0027 35.1411 43.1516 35.5163 42.4345 36.0848C41.7173 36.6533 41.1581 37.3961 40.8103 38.2422C40.561 38.8127 40.4897 39.4451 40.6054 40.0568C40.7893 40.5986 41.0848 41.0958 41.4728 41.5165C41.8608 41.9371 42.3328 42.2718 42.8583 42.4989C43.4181 42.7991 44.0734 43.0992 44.7561 43.3857C42.7935 43.4853 40.8499 43.8196 38.967 44.3817C38.4013 44.5044 37.867 44.7422 37.3972 45.0802C36.9274 45.4182 36.5323 45.8492 36.2363 46.3463C35.9938 46.9191 35.9319 47.5521 36.0588 48.1609C36.2274 49.064 36.63 49.9072 37.2266 50.6063C37.8231 51.3053 38.5927 51.8358 39.4586 52.1448C38.6643 53.3112 38.3333 54.7315 38.5301 56.1286C38.6709 56.8325 39.0629 57.4613 39.633 57.898C40.2031 58.3347 40.9126 58.5495 41.6295 58.5025C41.2145 59.178 41.0098 59.9614 41.0414 60.7534C41.073 61.5453 41.3395 62.31 41.807 62.9503C42.312 63.5934 42.9837 64.086 43.7491 64.3747C44.5145 64.6633 45.3444 64.7369 46.1488 64.5875C47.4803 64.2254 48.7064 63.552 49.726 62.6228C50.5998 61.9407 51.4873 61.2585 52.3065 60.5081C51.5428 62.0747 50.9434 63.7161 50.5179 65.4061C50.0315 66.6456 49.8671 67.9879 50.04 69.3081C50.2408 70.0904 50.6588 70.8002 51.2458 71.3554C51.8328 71.9106 52.565 72.2887 53.3578 72.446C54.1617 72.5981 54.9918 72.5286 55.7591 72.245C56.5264 71.9613 57.202 71.4743 57.7133 70.8361C57.997 71.5017 58.5089 72.0445 59.157 72.367C59.805 72.6896 60.5469 72.7708 61.2495 72.5961C62.6541 72.2165 63.8841 71.3633 64.7312 70.1812C65.4118 70.8256 66.2439 71.2883 67.1506 71.5268C68.0574 71.7652 69.0096 71.7717 69.9195 71.5456C70.55 71.4171 71.1318 71.1146 71.5989 70.6724C71.9423 70.2338 72.1882 69.727 72.32 69.1858C72.4519 68.6447 72.4667 68.0817 72.3635 67.5344C72.1072 65.2827 71.4942 63.086 70.5475 61.0266C71.1893 61.5859 71.9129 62.118 72.541 62.6365C73.5618 63.5668 74.7872 64.2444 76.1182 64.6147C76.9223 64.7566 77.7499 64.6794 78.5138 64.3914C79.2778 64.1033 79.9501 63.6149 80.46 62.9775C80.9275 62.3373 81.194 61.5726 81.2256 60.7807C81.2572 59.9887 81.0525 59.2053 80.6375 58.5298C81.354 58.5779 82.0638 58.3654 82.6359 57.9316C83.208 57.4979 83.6038 56.872 83.7505 56.1695C83.9429 54.7683 83.6124 53.3454 82.822 52.172C83.6897 51.8639 84.4614 51.3339 85.0603 50.6349C85.6592 49.9359 86.0643 49.0923 86.2354 48.1882C86.3353 47.5793 86.2595 46.9546 86.0169 46.3873ZM76.0362 48.1063C75.9385 48.6219 75.7066 49.1027 75.3638 49.5002C75.0211 49.8978 74.5796 50.1982 74.0838 50.3711C74.5302 51.0417 74.7193 51.8508 74.6163 52.6496C74.5402 53.0553 74.317 53.4188 73.9896 53.6705C73.6621 53.9222 73.2533 54.0444 72.8413 54.0139C73.0755 54.4005 73.1901 54.8477 73.1707 55.2992C73.1512 55.7507 72.9986 56.1864 72.7321 56.5515C72.4465 56.9202 72.0647 57.203 71.6288 57.3691C71.1928 57.5351 70.7195 57.578 70.2608 57.4929C69.517 57.2691 68.8349 56.877 68.2674 56.3469C67.8851 56.0467 67.5028 55.7466 67.1342 55.4328C67.6755 56.6067 68.0258 57.8595 68.1718 59.1438C68.2256 59.4597 68.212 59.7834 68.132 60.0937C68.052 60.404 67.9074 60.694 67.7076 60.9447C67.4354 61.1889 67.1071 61.3623 66.7519 61.4495C66.2312 61.5765 65.687 61.5706 65.1692 61.4323C64.6515 61.294 64.1769 61.0278 63.7891 60.6582C63.2954 61.3223 62.5937 61.8025 61.7957 62.0225C61.3956 62.1197 60.974 62.0715 60.6063 61.8865C60.2386 61.7016 59.9487 61.3919 59.7886 61.0129C59.5027 61.3733 59.1247 61.6498 58.6945 61.8131C58.2642 61.9764 57.7978 62.0205 57.3446 61.9407C56.8897 61.8569 56.4686 61.6437 56.132 61.3266C55.7953 61.0096 55.5574 60.6022 55.4468 60.1534C55.347 59.401 55.441 58.6355 55.7199 57.9295C55.966 56.9613 56.3186 56.0233 56.7712 55.1326C56.2933 55.5556 55.8018 55.9512 55.2966 56.3469C54.7161 56.8747 54.019 57.258 53.2622 57.4656C52.8015 57.5502 52.3264 57.5072 51.8884 57.3413C51.4503 57.1754 51.0661 56.8928 50.7773 56.5243C50.5094 56.1592 50.3571 55.7224 50.3401 55.2701C50.3231 54.8177 50.442 54.3707 50.6817 53.9866C50.2703 54.0141 49.8631 53.8907 49.5363 53.6396C49.2095 53.3884 48.9856 53.0266 48.9068 52.6223C48.7974 51.8232 48.987 51.0119 49.4393 50.3438C48.9453 50.1701 48.5059 49.8693 48.1655 49.4716C47.8251 49.074 47.5957 48.5936 47.5005 48.079C47.4215 47.732 47.455 47.3689 47.596 47.0421C47.7649 46.7604 47.9904 46.5167 48.2583 46.3265C48.5262 46.1362 48.8307 46.0036 49.1525 45.937C50.2253 45.6073 51.3355 45.4148 52.4567 45.364C52.0842 45.2145 51.7196 45.046 51.3644 44.8592C51.0703 44.7286 50.8054 44.5407 50.585 44.3064C50.3646 44.0721 50.1932 43.7962 50.081 43.4949C50.0194 43.1447 50.0621 42.7841 50.2038 42.458C50.4068 41.9707 50.7321 41.544 51.1482 41.219C51.5644 40.8939 52.0573 40.6816 52.5796 40.6025C52.2864 39.8524 52.2864 39.0196 52.5796 38.2695C52.7425 37.8902 53.0355 37.5814 53.406 37.3989C53.7764 37.2163 54.1999 37.1718 54.6003 37.2735C54.4505 36.8458 54.4302 36.3834 54.5419 35.9442C54.6536 35.505 54.8924 35.1085 55.2283 34.8041C55.5847 34.5009 56.0161 34.2991 56.4773 34.2199C56.9385 34.1407 57.4126 34.1869 57.8498 34.3539C58.5542 34.6971 59.1637 35.2077 59.6248 35.841C60.4589 36.7201 61.1583 37.7178 61.7001 38.8016C62.237 37.6219 62.9711 36.5423 63.871 35.609C64.2996 34.9842 64.8705 34.4698 65.5367 34.1083C65.9739 33.9414 66.448 33.8951 66.9092 33.9743C67.3705 34.0535 67.8019 34.2553 68.1582 34.5585C68.4927 34.8639 68.7304 35.2605 68.842 35.6993C68.9536 36.1381 68.9342 36.6 68.7862 37.0279C69.1866 36.9262 69.6101 36.9707 69.9805 37.1533C70.351 37.3359 70.6441 37.6446 70.807 38.0239C71.0862 38.7766 71.0862 39.6043 70.807 40.3569C71.3311 40.436 71.8257 40.6499 72.2421 40.9776C72.6586 41.3053 72.9827 41.7355 73.1827 42.2261C73.3206 42.5534 73.3586 42.9141 73.2919 43.2629C73.1831 43.5662 73.0131 43.8438 72.7923 44.0786C72.5715 44.3133 72.3047 44.5001 72.0085 44.6273C71.4728 44.915 70.916 45.1613 70.3427 45.364C71.7301 45.3481 73.1117 45.546 74.4388 45.9507C74.7587 46.0221 75.0606 46.1582 75.326 46.3506C75.5913 46.543 75.8144 46.7877 75.9816 47.0694C76.1196 47.3967 76.1576 47.7575 76.0909 48.1063H76.0362Z" fill="#586E57"/>
<path d="M68.4585 44.8323C68.2866 44.856 68.1311 44.9469 68.0261 45.085C67.9212 45.2231 67.8754 45.3972 67.8987 45.569L65.0861 46.5104C65.0525 46.0382 64.9226 45.578 64.7042 45.158C64.4858 44.7379 64.1836 44.3671 63.8163 44.0682L65.2636 41.6943C65.3807 41.738 65.5083 41.7458 65.6299 41.7166C65.7516 41.6875 65.8617 41.6227 65.9462 41.5306C66.0662 41.3977 66.1325 41.2252 66.1325 41.0462C66.1325 40.8673 66.0662 40.6948 65.9462 40.5619C65.8887 40.4999 65.819 40.4505 65.7415 40.4166C65.6639 40.3828 65.5803 40.3654 65.4957 40.3654C65.4111 40.3654 65.3274 40.3828 65.2499 40.4166C65.1723 40.4505 65.1026 40.4999 65.0451 40.5619C64.9261 40.6925 64.8602 40.8628 64.8602 41.0394C64.8602 41.216 64.9261 41.3863 65.0451 41.5169L63.5842 43.8909C63.0903 43.5635 62.5111 43.388 61.9185 43.3861H61.5089L60.7579 40.7802C60.8666 40.7083 60.9534 40.6079 61.0088 40.49C61.0642 40.3721 61.0861 40.2412 61.0719 40.1117C61.058 39.9392 60.9776 39.7788 60.8477 39.6643C60.7179 39.5498 60.5486 39.4901 60.3756 39.4977C60.2005 39.5279 60.0436 39.6239 59.937 39.7659C59.8304 39.9079 59.7822 40.0853 59.8022 40.2617C59.8074 40.346 59.8292 40.4284 59.8664 40.5042C59.9035 40.5801 59.9553 40.6478 60.0187 40.7036C60.0822 40.7594 60.156 40.8021 60.236 40.8293C60.316 40.8565 60.4005 40.8676 60.4848 40.8621L61.2358 43.4406C60.7633 43.5627 60.3242 43.789 59.9509 44.1031C59.5775 44.4171 59.2794 44.8108 59.0785 45.2552L56.9076 43.7135C56.9511 43.5885 56.9601 43.4542 56.9337 43.3245C56.9072 43.1949 56.8464 43.0748 56.7574 42.9768C56.7011 42.9151 56.6326 42.8659 56.5562 42.8322C56.4798 42.7985 56.3972 42.7811 56.3137 42.7811C56.2302 42.7811 56.1476 42.7985 56.0712 42.8322C55.9948 42.8659 55.9263 42.9151 55.87 42.9768C55.75 43.1096 55.6837 43.2822 55.6837 43.4611C55.6837 43.64 55.75 43.8126 55.87 43.9454C55.9251 44.009 55.9932 44.06 56.0698 44.0949C56.1463 44.1299 56.2295 44.148 56.3137 44.148C56.3979 44.148 56.4811 44.1299 56.5576 44.0949C56.6342 44.06 56.7023 44.009 56.7574 43.9454L58.9557 45.5281C58.8125 45.9312 58.7387 46.3555 58.7372 46.7833C58.7386 47.2065 58.8125 47.6264 58.9557 48.0248L56.1157 48.6387C56.0699 48.5236 55.991 48.4246 55.889 48.3542C55.7869 48.2837 55.6663 48.2451 55.5423 48.2431C55.4061 48.2322 55.2697 48.2624 55.1508 48.3298C55.032 48.3973 54.9361 48.4988 54.8756 48.6212C54.8152 48.7437 54.7929 48.8815 54.8116 49.0168C54.8304 49.152 54.8894 49.2786 54.9809 49.38C55.0725 49.4814 55.1923 49.553 55.3251 49.5856C55.4578 49.6181 55.5972 49.6101 55.7254 49.5626C55.8535 49.5151 55.9644 49.4303 56.0437 49.3191C56.1231 49.2079 56.1672 49.0754 56.1703 48.9389L59.0649 48.2977C59.3183 48.8467 59.7144 49.3178 60.2118 49.662L58.7099 52.759C58.5901 52.725 58.4626 52.7291 58.3452 52.7706C58.2278 52.8122 58.1262 52.8892 58.0545 52.991C57.9499 53.1364 57.9018 53.315 57.9194 53.4933C57.937 53.6716 58.019 53.8374 58.1501 53.9596C58.2137 54.015 58.2882 54.0564 58.3689 54.0811C58.4495 54.1058 58.5345 54.1132 58.6182 54.1029C58.7019 54.0926 58.7825 54.0648 58.8548 54.0213C58.927 53.9778 58.9893 53.9196 59.0376 53.8505C59.142 53.7109 59.1914 53.5378 59.1763 53.3642C59.1612 53.1906 59.0826 53.0286 58.9557 52.9091L60.4166 49.8803C61.077 50.2567 61.8556 50.3688 62.5955 50.1941C63.3354 50.0194 63.9814 49.5708 64.4034 48.9389L64.2805 49.1981L67.1204 50.808C67.0845 50.9336 67.0847 51.0667 67.1209 51.1921C67.1571 51.3176 67.2279 51.4303 67.3252 51.5175C67.3888 51.5729 67.4634 51.6142 67.544 51.6389C67.6247 51.6636 67.7096 51.671 67.7933 51.6608C67.8771 51.6505 67.9577 51.6227 68.0299 51.5792C68.1022 51.5357 68.1645 51.4775 68.2127 51.4083C68.3181 51.2666 68.368 51.0912 68.3529 50.9153C68.3378 50.7394 68.2588 50.575 68.1308 50.4533C68.069 50.3965 67.9959 50.3533 67.9164 50.3264C67.8368 50.2995 67.7525 50.2896 67.6689 50.2974C67.5852 50.3051 67.5042 50.3302 67.4309 50.3712C67.3576 50.4121 67.2937 50.468 67.2433 50.5352L64.4444 48.9253C64.8752 48.3096 65.1042 47.5754 65.0997 46.8242L67.9806 45.8555C68.0363 45.9671 68.1254 46.0586 68.2355 46.1172C68.3456 46.1759 68.4713 46.1989 68.595 46.1829C68.6815 46.1713 68.7647 46.1425 68.8399 46.0983C68.9151 46.054 68.9806 45.9952 69.0328 45.9254C69.0849 45.8555 69.1226 45.7759 69.1435 45.6913C69.1645 45.6066 69.1683 45.5187 69.1548 45.4326C69.1497 45.3471 69.1274 45.2634 69.0894 45.1867C69.0514 45.1099 68.9983 45.0415 68.9334 44.9856C68.8685 44.9296 68.7931 44.8872 68.7115 44.8609C68.6299 44.8345 68.5439 44.8248 68.4585 44.8323Z" fill="#586E57"/>
<path d="M63.6389 53.5774L63.0109 50.1802H62.7378L63.3659 53.5774C63.2524 53.6378 63.1579 53.7284 63.0929 53.8392C63.0278 53.9499 62.9947 54.0765 62.9972 54.205C63.0052 54.3297 63.0495 54.4495 63.1247 54.5494C63.1999 54.6493 63.3027 54.7251 63.4204 54.7674C63.5381 54.8097 63.6657 54.8167 63.7873 54.7876C63.909 54.7584 64.0195 54.6943 64.1052 54.6032C64.1909 54.5121 64.2481 54.398 64.2697 54.2748C64.2913 54.1517 64.2764 54.0249 64.2269 53.9101C64.1773 53.7953 64.0953 53.6975 63.9908 53.6287C63.8864 53.5599 63.764 53.5231 63.6389 53.5228V53.5774Z" fill="#586E57"/>
<path d="M146.75 41.9453C146.75 43.6797 146.406 45.2188 145.719 46.5625C145.047 47.8906 144.109 48.9922 142.906 49.8672C141.719 50.7422 140.414 51.3828 138.992 51.7891C137.57 52.1953 136.062 52.3984 134.469 52.3984H130.742V62.4766C130.742 63.0234 130.828 63.5078 131 63.9297C131.188 64.3359 131.562 64.6484 132.125 64.8672C132.406 64.9766 132.898 65.0781 133.602 65.1719C134.32 65.2656 134.977 65.3203 135.57 65.3359V67H121.297V65.3359C121.672 65.3047 122.211 65.25 122.914 65.1719C123.633 65.0938 124.133 64.9922 124.414 64.8672C124.883 64.6641 125.219 64.3672 125.422 63.9766C125.641 63.5859 125.75 63.0859 125.75 62.4766V38.4766C125.75 37.9297 125.672 37.4375 125.516 37C125.359 36.5625 124.992 36.2344 124.414 36.0156C123.82 35.8125 123.227 35.6719 122.633 35.5938C122.055 35.5 121.555 35.4375 121.133 35.4062V33.7422H136.32C139.414 33.7422 141.922 34.4922 143.844 35.9922C145.781 37.4766 146.75 39.4609 146.75 41.9453ZM139.625 47.6172C140.156 46.8672 140.508 46.0938 140.68 45.2969C140.852 44.4844 140.938 43.7578 140.938 43.1172C140.938 42.2266 140.828 41.3203 140.609 40.3984C140.406 39.4766 140.047 38.6719 139.531 37.9844C138.984 37.25 138.266 36.6797 137.375 36.2734C136.484 35.8672 135.375 35.6641 134.047 35.6641H130.742V50.3594H133.133C134.82 50.3594 136.188 50.1016 137.234 49.5859C138.297 49.0547 139.094 48.3984 139.625 47.6172ZM167.68 46.8672C167.68 47.6641 167.484 48.375 167.094 49C166.703 49.6094 166.102 49.9141 165.289 49.9141C164.414 49.9141 163.742 49.6875 163.273 49.2344C162.82 48.7812 162.594 48.2812 162.594 47.7344C162.594 47.3906 162.617 47.0781 162.664 46.7969C162.727 46.5156 162.781 46.2344 162.828 45.9531C162.094 45.9531 161.234 46.25 160.25 46.8438C159.266 47.4375 158.43 48.2812 157.742 49.375V62.8281C157.742 63.375 157.844 63.8203 158.047 64.1641C158.266 64.5078 158.602 64.7656 159.055 64.9375C159.445 65.0938 159.945 65.2109 160.555 65.2891C161.18 65.3672 161.719 65.4219 162.172 65.4531V67H149.984V65.4531C150.344 65.4219 150.711 65.3906 151.086 65.3594C151.477 65.3281 151.812 65.2656 152.094 65.1719C152.531 65.0312 152.852 64.7891 153.055 64.4453C153.273 64.0859 153.383 63.625 153.383 63.0625V48.7891C153.383 48.3047 153.266 47.8281 153.031 47.3594C152.812 46.8906 152.5 46.5156 152.094 46.2344C151.797 46.0469 151.445 45.9141 151.039 45.8359C150.633 45.7422 150.195 45.6797 149.727 45.6484V44.125L157.414 43.6094L157.742 43.9375V47.1953H157.859C158.828 45.9297 159.906 44.9688 161.094 44.3125C162.281 43.6562 163.367 43.3281 164.352 43.3281C165.336 43.3281 166.133 43.6484 166.742 44.2891C167.367 44.9297 167.68 45.7891 167.68 46.8672ZM180.898 67H169.719V65.4531C170.078 65.4219 170.445 65.3906 170.82 65.3594C171.211 65.3281 171.547 65.2656 171.828 65.1719C172.266 65.0312 172.586 64.7891 172.789 64.4453C173.008 64.0859 173.117 63.625 173.117 63.0625V48.7891C173.117 48.2891 173 47.8359 172.766 47.4297C172.547 47.0078 172.234 46.6562 171.828 46.375C171.531 46.1875 171.102 46.0312 170.539 45.9062C169.977 45.7656 169.461 45.6797 168.992 45.6484V44.125L177.148 43.6094L177.477 43.9375V62.7812C177.477 63.3281 177.578 63.7812 177.781 64.1406C178 64.5 178.336 64.7656 178.789 64.9375C179.133 65.0781 179.469 65.1953 179.797 65.2891C180.125 65.3672 180.492 65.4219 180.898 65.4531V67ZM177.945 34.4922C177.945 35.3828 177.648 36.1641 177.055 36.8359C176.477 37.4922 175.758 37.8203 174.898 37.8203C174.102 37.8203 173.406 37.5078 172.812 36.8828C172.234 36.2422 171.945 35.5156 171.945 34.7031C171.945 33.8438 172.234 33.0938 172.812 32.4531C173.406 31.8125 174.102 31.4922 174.898 31.4922C175.789 31.4922 176.516 31.7969 177.078 32.4062C177.656 33 177.945 33.6953 177.945 34.4922ZM194.422 67.6094C191.078 67.6094 188.461 66.5 186.57 64.2812C184.68 62.0625 183.734 59.0859 183.734 55.3516C183.734 53.7266 183.984 52.2109 184.484 50.8047C185 49.3828 185.742 48.0938 186.711 46.9375C187.633 45.8281 188.789 44.9375 190.18 44.2656C191.57 43.5781 193.086 43.2344 194.727 43.2344C196.992 43.2344 198.836 43.7812 200.258 44.875C201.68 45.9531 202.391 47.4297 202.391 49.3047C202.391 50.0859 202.203 50.7812 201.828 51.3906C201.453 51.9844 200.836 52.2812 199.977 52.2812C199.055 52.2812 198.336 52.0469 197.82 51.5781C197.32 51.1094 197.07 50.5859 197.07 50.0078C197.07 49.3047 197.164 48.5859 197.352 47.8516C197.539 47.1016 197.648 46.5547 197.68 46.2109C197.398 45.7266 196.977 45.4062 196.414 45.25C195.867 45.0781 195.273 44.9922 194.633 44.9922C193.883 44.9922 193.164 45.1562 192.477 45.4844C191.805 45.7969 191.148 46.3828 190.508 47.2422C189.93 48.0234 189.461 49.0781 189.102 50.4062C188.742 51.7344 188.562 53.3203 188.562 55.1641C188.562 58.0703 189.203 60.4453 190.484 62.2891C191.781 64.1172 193.477 65.0312 195.57 65.0312C197.086 65.0312 198.352 64.6641 199.367 63.9297C200.398 63.1953 201.352 62.0938 202.227 60.625L203.727 61.6094C202.695 63.4531 201.336 64.9141 199.648 65.9922C197.961 67.0703 196.219 67.6094 194.422 67.6094ZM226.062 61.5625C225.094 63.4062 223.797 64.875 222.172 65.9688C220.547 67.0625 218.68 67.6094 216.57 67.6094C214.711 67.6094 213.078 67.2812 211.672 66.625C210.281 65.9688 209.133 65.0781 208.227 63.9531C207.32 62.8281 206.641 61.5156 206.188 60.0156C205.75 58.5156 205.531 56.9297 205.531 55.2578C205.531 53.7578 205.766 52.2891 206.234 50.8516C206.719 49.3984 207.422 48.0938 208.344 46.9375C209.234 45.8281 210.336 44.9375 211.648 44.2656C212.977 43.5781 214.461 43.2344 216.102 43.2344C217.789 43.2344 219.234 43.5 220.438 44.0312C221.641 44.5625 222.617 45.2891 223.367 46.2109C224.086 47.0859 224.617 48.1172 224.961 49.3047C225.32 50.4922 225.5 51.7812 225.5 53.1719V54.7188H210.195C210.195 56.2344 210.336 57.6094 210.617 58.8438C210.914 60.0781 211.375 61.1641 212 62.1016C212.609 63.0078 213.406 63.7266 214.391 64.2578C215.375 64.7734 216.547 65.0312 217.906 65.0312C219.297 65.0312 220.492 64.7109 221.492 64.0703C222.508 63.4141 223.484 62.2422 224.422 60.5547L226.062 61.5625ZM220.883 52.75C220.883 51.875 220.805 50.9375 220.648 49.9375C220.508 48.9375 220.273 48.1016 219.945 47.4297C219.586 46.7109 219.094 46.125 218.469 45.6719C217.844 45.2188 217.039 44.9922 216.055 44.9922C214.414 44.9922 213.047 45.6797 211.953 47.0547C210.875 48.4141 210.289 50.3125 210.195 52.75H220.883Z" fill="#586E57"/>
</svg>
