<svg width="433" height="288" viewBox="0 0 433 288" fill="none" xmlns="http://www.w3.org/2000/svg">
<g filter="url(#filter0_d)">
<path d="M427.617 0H5.39534C5.02527 0 4.67036 0.142186 4.40868 0.395279C4.14701 0.648371 4 0.991639 4 1.34957V278.65C4 279.008 4.14701 279.352 4.40868 279.605C4.67036 279.858 5.02527 280 5.39534 280H427.605C427.975 280 428.33 279.858 428.591 279.605C428.853 279.352 429 279.008 429 278.65V1.34957C429 0.993645 428.855 0.652129 428.596 0.399369C428.337 0.146608 427.985 0.00306828 427.617 0V0ZM426.209 277.301H6.79067V2.69913H426.209V277.301Z" fill="#BE9738"/>
<path d="M20.2388 30.9821C21.0801 31.6445 22.1523 31.9694 23.234 31.8896C25.1834 32.0083 27.137 31.735 28.9717 31.0868C29.7175 30.796 30.4272 30.412 31.185 30.1561C32.2006 29.8174 33.2851 29.7177 34.3485 29.8652C34.7094 30.2375 34.3485 30.0048 34.7094 30.412C34.553 30.0746 36.0085 31.2497 35.9123 30.889C36.2852 30.9705 35.0703 29.5627 35.4191 29.7256C34.9981 29.4231 35.2387 29.7256 34.8538 29.3766C34.7012 28.348 34.8043 27.2991 35.1545 26.3168C35.4191 25.5838 35.8161 24.8974 36.1047 24.1761C36.7913 22.4013 37.0824 20.5062 36.9588 18.615C37.0364 17.5693 36.7011 16.534 36.0205 15.7181C35.6691 15.4246 35.26 15.203 34.8177 15.0665C34.576 14.9836 34.326 14.9252 34.0719 14.892C33.7079 14.88 33.3457 14.9457 33.011 15.0844C32.6762 15.2232 32.3772 15.4316 32.1353 15.6948C31.6483 16.2216 31.3675 16.8966 31.3414 17.6028C31.3039 18.0077 31.3963 18.4139 31.606 18.7662C32.46 20.0111 34.108 18.4056 32.9412 17.9984C32.6044 17.882 32.1834 17.9984 32.1232 17.5214C32.0631 17.0444 32.6645 16.3579 33.1697 16.23C33.5405 16.1472 33.9292 16.1839 34.2764 16.3347C34.6889 16.5309 35.0271 16.8478 35.2431 17.2404C35.459 17.633 35.5416 18.0813 35.4793 18.5219C35.4659 18.7253 35.4035 18.9228 35.297 19.0985C35.1904 19.2743 35.0427 19.4235 34.8658 19.5341C34.5169 19.7202 34.0478 19.6853 33.7712 19.9645C33.6659 20.0921 33.5972 20.2441 33.5719 20.4054C33.5465 20.5667 33.5655 20.7316 33.6268 20.8836C33.7583 21.1779 33.8668 21.4812 33.9516 21.7911C33.9707 22.1441 33.8771 22.4942 33.6834 22.7939C33.4898 23.0936 33.2054 23.3284 32.869 23.4664C32.5256 23.5906 32.1594 23.6454 31.7932 23.6274C31.4271 23.6094 31.0686 23.519 30.7399 23.3617C30.4753 23.2454 30.2227 23.1058 29.9581 23.0011C29.3432 22.8147 28.6902 22.7788 28.0575 22.8964H27.9853C27.9345 22.8804 27.8798 22.8804 27.829 22.8964V22.8964C27.829 22.8964 27.829 22.9894 27.829 23.036C27.8346 23.0589 27.8346 23.0828 27.829 23.1058C27.7171 23.719 27.7583 24.3492 27.9492 24.944C28.0575 25.2116 28.2019 25.4442 28.3221 25.7002C28.4827 26.0527 28.5585 26.4357 28.5439 26.8206C28.5293 27.2055 28.4247 27.5822 28.2379 27.9223C28.1024 28.2592 27.8586 28.545 27.5424 28.7377C27.2262 28.9304 26.8544 29.0198 26.4817 28.9927C26.1614 28.9107 25.8477 28.8057 25.5435 28.6785C25.3843 28.6194 25.212 28.6011 25.0433 28.6256C24.8747 28.6501 24.7154 28.7164 24.5812 28.8182C24.3045 29.0857 24.3406 29.5395 24.1482 29.8769C24.0338 30.048 23.8796 30.1909 23.6979 30.2939C23.5161 30.3969 23.3119 30.4573 23.1017 30.4702C22.6463 30.5287 22.1835 30.448 21.778 30.2394C21.3725 30.0308 21.0446 29.7047 20.8403 29.3068C20.6732 28.9698 20.6348 28.5865 20.732 28.2248C20.8763 27.7362 21.4898 27.1312 22.0672 27.2126C22.6446 27.2941 22.4401 27.678 22.5604 28.0038C22.9814 29.1672 24.6413 27.5384 23.3422 26.7124C22.9792 26.5066 22.5582 26.417 22.1394 26.4564C21.4103 26.4864 20.714 26.7575 20.1666 27.2243C19.9061 27.4623 19.7014 27.7517 19.5665 28.0728C19.4316 28.394 19.3696 28.7394 19.3848 29.0857C19.4077 29.3523 19.4684 29.6146 19.5652 29.8652C19.7121 30.2765 19.9409 30.656 20.2388 30.9821V30.9821ZM30.0904 25.2465C30.788 25.3861 31.5579 25.642 31.7624 26.2819C31.8129 26.4915 31.8331 26.7068 31.8225 26.9218C31.6003 26.9321 31.3776 26.9125 31.1609 26.8636C30.4633 26.6658 30.2347 25.9212 30.0904 25.2465V25.2465Z" fill="#BE9738"/>
<path d="M8.30629 31.4124C8.70478 31.4644 9.11014 31.4343 9.49574 31.324C9.88134 31.2137 10.2385 31.0258 10.5436 30.7725C13.1059 29.1779 15.5207 27.3717 17.7609 25.3743C18.7406 24.3156 19.9823 23.5149 21.3695 23.0474C21.9409 22.9489 22.522 22.9138 23.1017 22.9427L27.7207 23.0242C27.7207 21.535 27.6606 20.0458 27.6365 18.5566C27.6002 17.9999 27.6366 17.4409 27.7448 16.8929C28.2125 15.5272 29.042 14.3038 30.1505 13.3445C32.2157 11.1778 34.0832 8.84225 35.7318 6.364C36.0082 6.07304 36.2176 5.72867 36.3462 5.35363C36.4747 4.97859 36.5195 4.58144 36.4776 4.18841C36.3918 3.95055 36.2454 3.73742 36.052 3.56867C35.8586 3.39991 35.6244 3.28096 35.371 3.22277C34.8424 3.11018 34.2906 3.16315 33.7952 3.37401C33.2375 3.57918 32.7366 3.90656 32.3317 4.33046C31.9268 4.75436 31.629 5.26325 31.4616 5.81719L30.7159 4.53743C30.6559 4.41308 30.5699 4.30214 30.4633 4.21168C30.3217 4.14956 30.1655 4.12542 30.011 4.14179C29.8565 4.15817 29.7094 4.21446 29.5852 4.30475C27.7808 5.30529 27.6485 7.85318 26.1088 9.20274C26.3004 8.02195 26.1463 6.81287 25.6638 5.71249C25.5534 5.50037 25.3875 5.31988 25.1826 5.18895C24.9914 5.10061 24.7795 5.0627 24.5683 5.07904C24.357 5.09538 24.154 5.16541 23.9798 5.28202C23.6372 5.50664 23.3329 5.78138 23.0776 6.09641C22.8202 5.59461 22.4606 5.14834 22.0203 4.78446C21.58 4.42057 21.0681 4.14659 20.5155 3.97899C19.3662 3.64611 18.1281 3.75877 17.0632 4.29312C16.4168 4.5912 15.8669 5.05429 15.4726 5.63246C15.0783 6.21062 14.8547 6.88192 14.8259 7.57396C14.8284 7.90549 14.901 8.23303 15.0392 8.53643C15.1774 8.83984 15.3782 9.1127 15.6295 9.33826C15.8807 9.56382 16.177 9.7373 16.5001 9.84804C16.8232 9.95879 17.1663 10.0045 17.5083 9.98223C18.0578 9.89808 18.5711 9.66399 18.9878 9.30745C19.481 8.92352 19.878 8.26037 19.5893 7.74847C19.4887 7.58664 19.3309 7.4656 19.1451 7.40783C18.9592 7.35006 18.758 7.35948 18.5788 7.43435C18.4006 7.48814 18.2486 7.60277 18.1513 7.75687C18.0539 7.91097 18.0178 8.09405 18.0496 8.27201C18.0496 8.27201 17.3158 8.53959 17.0873 8.27201C16.9872 8.12411 16.9232 7.95608 16.9003 7.7807C16.8774 7.60531 16.8961 7.42718 16.955 7.25983C17.1107 6.73978 17.4337 6.28123 17.8771 5.95071C18.3205 5.62018 18.8612 5.43486 19.4209 5.42163C19.9609 5.44145 20.4765 5.64478 20.8769 5.99588C21.2773 6.34697 21.5369 6.82336 21.6101 7.34127C21.6356 8.0119 21.5211 8.68062 21.2733 9.30745C20.4958 11.3149 20.4198 13.5134 21.0568 15.5666C21.1611 15.9192 21.3593 16.2392 21.6317 16.4944C21.904 16.7496 22.2408 16.9312 22.6085 17.0209C22.7528 16.2996 23.0175 15.4619 23.7392 15.2293C24.0473 15.1784 24.3635 15.1982 24.6622 15.2871C24.961 15.3761 25.234 15.5316 25.4593 15.7412C25.6135 15.8246 25.739 15.95 25.8202 16.1018C25.8629 16.266 25.8629 16.4379 25.8202 16.6021C25.7119 17.9633 25.5315 19.3129 25.3029 20.6624C23.9076 20.8835 22.5122 21.058 21.1049 21.1627C20.931 21.2036 20.7495 21.2036 20.5756 21.1627C20.4247 21.0803 20.2999 20.9597 20.2148 20.8137C19.9981 20.5958 19.8373 20.3317 19.7453 20.0428C19.6534 19.7538 19.6329 19.448 19.6855 19.15C19.9261 18.4519 20.7921 18.2076 21.5259 18.0564C21.4368 17.7022 21.2516 17.3775 20.9894 17.1157C20.7272 16.8539 20.3975 16.6645 20.0343 16.5672C17.9353 15.9492 15.6856 16.0063 13.623 16.7301C12.9757 16.9734 12.2843 17.0881 11.5901 17.0675C11.0537 16.9941 10.5609 16.7407 10.1981 16.3515C9.83525 15.9623 9.62546 15.4621 9.60539 14.9384C9.6153 14.3961 9.80549 13.8714 10.1478 13.4418C10.4901 13.0123 10.9663 12.7008 11.5059 12.5534C11.6799 12.4981 11.8645 12.4819 12.0459 12.5061C12.2272 12.5303 12.4005 12.5942 12.5524 12.693C12.8291 12.9024 12.5524 13.6121 12.5524 13.6121C12.3669 13.5819 12.1763 13.6185 12.0167 13.715C11.8571 13.8114 11.7396 13.9611 11.6864 14.1356C11.6115 14.3093 11.6031 14.503 11.6626 14.6821C11.7222 14.8612 11.8457 15.014 12.0111 15.1129C12.5404 15.3805 13.214 14.9966 13.623 14.5312C13.9811 14.1319 14.2183 13.6448 14.3086 13.1235C14.3367 12.7878 14.2931 12.4501 14.1804 12.1314C14.0678 11.8127 13.8886 11.5199 13.6539 11.2711C13.4192 11.0223 13.1341 10.8228 12.8163 10.6852C12.4985 10.5475 12.1548 10.4746 11.8067 10.4709C11.086 10.503 10.3884 10.7263 9.79017 11.1161C9.19191 11.506 8.71601 12.0475 8.41455 12.6814C7.86208 13.7113 7.7456 14.9088 8.08977 16.0204C8.25854 16.557 8.54012 17.0541 8.91684 17.4805C9.29356 17.907 9.75731 18.2535 10.279 18.4985C9.94993 18.7464 9.66543 19.0451 9.43699 19.3827C9.31642 19.5512 9.24403 19.7476 9.22713 19.9519C9.21023 20.1562 9.24943 20.3611 9.34076 20.5461C9.47106 20.7441 9.65381 20.9048 9.87003 21.0114C11.007 21.4805 12.2579 21.6297 13.4787 21.4419C12.0833 22.9311 9.44902 23.0707 8.41455 24.8042C8.33383 24.919 8.28388 25.0514 8.26918 25.1895C8.25449 25.3276 8.2755 25.467 8.33035 25.5953C8.42007 25.7052 8.53551 25.7929 8.66715 25.8513L10.0144 26.5842C9.44695 26.7457 8.92481 27.0295 8.48725 27.4144C8.0497 27.7994 7.70816 28.2753 7.48833 28.8064C7.28063 29.2882 7.23026 29.8201 7.34399 30.3304C7.40187 30.5726 7.51967 30.7976 7.68729 30.9861C7.85491 31.1746 8.06732 31.3209 8.30629 31.4124V31.4124ZM27.1914 14.3334C27.2923 13.6985 27.3326 13.0559 27.3117 12.4138C27.3839 11.7506 27.4922 11.0991 27.5884 10.4476C27.6988 9.36729 28.0607 8.32518 28.6469 7.39944L29.1641 8.0975C29.1983 8.13829 29.2389 8.17362 29.2844 8.2022C29.3465 8.22448 29.4148 8.22448 29.4769 8.2022C29.9701 7.92885 30.4198 7.58793 30.8121 7.19003C31.2106 6.79224 31.7552 6.56234 32.3277 6.55015C32.0004 7.08785 31.5954 7.57755 31.1248 8.00442C29.3231 9.78984 27.9763 11.9568 27.1914 14.3334V14.3334ZM22.5002 14.2171C22.5964 12.8326 22.3198 11.4947 22.5002 10.0869C22.5002 9.63321 22.5844 8.6792 22.9453 8.33018C23.3061 7.98115 23.7512 8.43489 23.667 8.94679C23.5828 9.4587 23.5227 9.67974 23.4385 10.1102C23.0069 11.4512 22.693 12.825 22.5002 14.2171V14.2171ZM14.6575 18.6148L13.5147 18.8359C12.9855 18.9173 12.3119 18.6381 12.8652 18.1378C13.4185 17.6375 14.2244 17.7655 14.6936 17.7073C16.149 17.5212 17.5323 17.7771 18.9638 17.7073C17.505 17.8949 16.0647 18.1984 14.6575 18.6148V18.6148ZM11.0488 27.1892C11.0513 26.9161 11.1113 26.6463 11.225 26.3963C11.3387 26.1462 11.5039 25.9212 11.7104 25.7349C12.1023 25.346 12.4381 24.9077 12.7088 24.4319C12.7269 24.3711 12.7269 24.3066 12.7088 24.2457C12.6782 24.1988 12.6371 24.159 12.5885 24.1294L11.8788 23.6408C12.8374 23.0421 13.9306 22.6751 15.0664 22.5704C15.7401 22.4657 16.4137 22.361 17.0993 22.2912C17.7632 22.3114 18.4276 22.2724 19.0841 22.1749C16.6221 22.9233 14.3709 24.209 12.5043 25.9327C12.0663 26.4043 11.5598 26.8118 11.0007 27.1427L11.0488 27.1892Z" fill="#BE9738"/>
<path d="M413.254 29.8298C413.351 29.5792 413.412 29.3169 413.435 29.0503C413.447 28.6994 413.38 28.3501 413.239 28.0266C413.098 27.7032 412.885 27.4133 412.617 27.1772C412.069 26.7104 411.373 26.4394 410.644 26.4093C410.225 26.3699 409.804 26.4595 409.441 26.6653C408.142 27.4913 409.802 29.0852 410.223 27.9567C410.343 27.6309 410.223 27.2237 410.716 27.1656C411.209 27.1074 411.919 27.6891 412.051 28.1777C412.149 28.5394 412.11 28.9227 411.943 29.2597C411.739 29.6576 411.411 29.9837 411.005 30.1923C410.6 30.4009 410.137 30.4816 409.682 30.4231C409.472 30.4103 409.267 30.3499 409.086 30.2468C408.904 30.1438 408.75 30.0009 408.635 29.8298C408.443 29.4924 408.479 29.0387 408.202 28.7711C408.068 28.6693 407.909 28.603 407.74 28.5785C407.571 28.554 407.399 28.5723 407.24 28.6315C406.936 28.7586 406.622 28.8636 406.302 28.9456C405.937 28.9736 405.572 28.8898 405.259 28.7061C404.946 28.5223 404.7 28.2479 404.558 27.9218C404.424 27.591 404.364 27.2369 404.381 26.8823C404.397 26.5277 404.49 26.1804 404.654 25.8625C404.774 25.6066 404.918 25.3739 405.027 25.1063C405.223 24.5126 405.265 23.881 405.147 23.2681C405.141 23.2452 405.141 23.2213 405.147 23.1983C405.147 23.1983 405.147 23.0936 405.147 23.0587C405.147 23.0238 405.147 23.0587 405.147 23.0587C405.096 23.0427 405.041 23.0427 404.991 23.0587H404.918C404.286 22.9411 403.633 22.9771 403.018 23.1634C402.753 23.2681 402.501 23.4077 402.236 23.5241C401.907 23.6813 401.549 23.7718 401.183 23.7898C400.816 23.8078 400.45 23.753 400.107 23.6288C399.76 23.4925 399.466 23.2539 399.267 22.9468C399.069 22.6398 398.975 22.28 399 21.9185C399.085 21.6087 399.194 21.3053 399.325 21.0111C399.386 20.8591 399.405 20.6942 399.38 20.5328C399.355 20.3715 399.286 20.2195 399.181 20.092C398.904 19.8128 398.435 19.8477 398.086 19.6615C397.911 19.549 397.765 19.3993 397.659 19.2239C397.552 19.0485 397.489 18.852 397.473 18.6493C397.357 18.1966 397.4 17.7197 397.593 17.2927C397.787 16.8656 398.121 16.5123 398.543 16.2876C398.89 16.1369 399.279 16.1001 399.65 16.1829C400.155 16.3225 400.781 16.9158 400.696 17.4743C400.612 18.0327 400.215 17.8349 399.878 17.9513C398.675 18.3585 400.36 19.964 401.214 18.7191C401.423 18.3669 401.516 17.9606 401.478 17.5557C401.452 16.8496 401.171 16.1745 400.684 15.6477C400.444 15.3854 400.147 15.1775 399.815 15.0387C399.482 14.9 399.122 14.8338 398.76 14.845C398.481 14.8727 398.207 14.9313 397.942 15.0195C397.499 15.1559 397.09 15.3775 396.739 15.671C396.058 16.487 395.723 17.5222 395.801 18.5679C395.675 20.4544 395.962 22.3454 396.643 24.1174C396.931 24.8387 397.328 25.5251 397.593 26.2581C397.941 27.2408 398.048 28.2883 397.906 29.3179C397.509 29.6669 397.749 29.3179 397.328 29.6669C397.677 29.5157 396.462 30.9234 396.835 30.8303C396.751 31.191 398.206 30.0159 398.038 30.3533C398.351 29.9461 398.038 30.1788 398.399 29.8065C399.462 29.659 400.547 29.7587 401.562 30.0974C402.32 30.3533 403.03 30.7373 403.776 31.0281C405.61 31.6763 407.564 31.9496 409.513 31.8309C410.595 31.9107 411.667 31.5858 412.509 30.9234C412.83 30.6103 413.083 30.2385 413.254 29.8298V29.8298ZM401.659 26.8631C401.442 26.912 401.219 26.9315 400.997 26.9212C400.967 26.709 400.967 26.4936 400.997 26.2814C401.202 25.6415 401.971 25.3855 402.669 25.2459C402.585 25.9207 402.332 26.6653 401.659 26.8631V26.8631Z" fill="#BE9738"/>
<path d="M425.512 30.3305C425.625 29.8201 425.575 29.2883 425.367 28.8064C425.147 28.2754 424.806 27.7994 424.368 27.4145C423.931 27.0296 423.409 26.7458 422.841 26.5843L424.152 25.863C424.284 25.8047 424.4 25.7169 424.489 25.607C424.553 25.4701 424.578 25.3191 424.561 25.1696C424.545 25.0202 424.486 24.8779 424.393 24.7577C423.359 23.0242 420.724 22.8846 419.329 21.3955C420.55 21.5833 421.8 21.4341 422.938 20.965C423.154 20.8584 423.336 20.6977 423.467 20.4996C423.558 20.3147 423.597 20.1097 423.58 19.9054C423.564 19.7011 423.491 19.5047 423.371 19.3362C423.142 18.9987 422.858 18.6999 422.529 18.452C423.05 18.2071 423.514 17.8605 423.891 17.4341C424.267 17.0076 424.549 16.5105 424.718 15.9739C425.062 14.8624 424.945 13.6649 424.393 12.6349C424.086 12.0114 423.609 11.4806 423.013 11.0994C422.418 10.7182 421.726 10.5009 421.013 10.471C420.67 10.4766 420.332 10.5494 420.019 10.6849C419.706 10.8204 419.425 11.0158 419.192 11.2594C418.959 11.5029 418.78 11.7895 418.665 12.1019C418.55 12.4143 418.502 12.746 418.523 13.077C418.613 13.5983 418.851 14.0854 419.209 14.4847C419.606 14.9501 420.291 15.334 420.82 15.0665C420.986 14.9675 421.109 14.8148 421.169 14.6357C421.228 14.4566 421.22 14.2628 421.145 14.0892C421.092 13.9146 420.974 13.765 420.815 13.6685C420.655 13.572 420.465 13.5355 420.279 13.5656C420.279 13.5656 420.003 12.856 420.279 12.6465C420.431 12.5478 420.604 12.4839 420.786 12.4597C420.967 12.4355 421.152 12.4516 421.326 12.5069C421.865 12.6543 422.342 12.9658 422.684 13.3954C423.026 13.8249 423.216 14.3497 423.226 14.8919C423.206 15.4156 422.996 15.9158 422.634 16.305C422.271 16.6942 421.778 16.9477 421.241 17.021C420.547 17.0417 419.856 16.9269 419.209 16.6836C417.132 15.9355 414.859 15.866 412.737 16.4858C412.374 16.5832 412.044 16.7725 411.782 17.0343C411.52 17.2961 411.335 17.6209 411.246 17.975C411.979 18.1263 412.845 18.3706 413.086 19.0686C413.139 19.3666 413.118 19.6724 413.026 19.9614C412.934 20.2504 412.773 20.5144 412.557 20.7323C412.472 20.8783 412.347 20.999 412.196 21.0813C412.022 21.1223 411.84 21.1223 411.667 21.0813C410.259 20.9766 408.864 20.8021 407.469 20.5811C407.24 19.2315 407.06 17.8819 406.951 16.5207C406.909 16.3565 406.909 16.1847 406.951 16.0205C407.032 15.8687 407.158 15.7432 407.312 15.6598C407.537 15.4502 407.81 15.2947 408.109 15.2058C408.408 15.1169 408.724 15.097 409.032 15.1479C409.754 15.3806 410.019 16.2182 410.163 16.9396C410.531 16.8672 410.872 16.7036 411.155 16.465C411.437 16.2264 411.651 15.9209 411.775 15.5784C412.411 13.5203 412.33 11.3172 411.546 9.30754C411.298 8.68071 411.184 8.01199 411.209 7.34136C411.283 6.82344 411.542 6.34706 411.943 5.99596C412.343 5.64486 412.859 5.44153 413.399 5.42172C413.948 5.44698 414.475 5.6378 414.907 5.96745C415.338 6.29709 415.652 6.74902 415.804 7.25992C415.863 7.42727 415.882 7.6054 415.859 7.78078C415.836 7.95617 415.772 8.12419 415.672 8.27209C415.444 8.53968 414.71 8.27209 414.71 8.27209C414.742 8.09413 414.706 7.91106 414.608 7.75695C414.511 7.60285 414.359 7.48823 414.181 7.43443C414.001 7.35956 413.8 7.35014 413.614 7.40791C413.429 7.46569 413.271 7.58673 413.17 7.74855C412.881 8.26046 413.278 8.91197 413.772 9.30754C414.183 9.65592 414.687 9.88567 415.227 9.97068C415.569 9.9929 415.912 9.94724 416.235 9.83649C416.558 9.72575 416.855 9.55227 417.106 9.32671C417.357 9.10115 417.558 8.82829 417.696 8.52488C417.834 8.22148 417.907 7.89394 417.91 7.56241C417.881 6.87037 417.657 6.19907 417.263 5.62091C416.868 5.04274 416.319 4.57965 415.672 4.28157C414.607 3.74722 413.369 3.63456 412.22 3.96744C411.667 4.13504 411.155 4.40902 410.715 4.77291C410.275 5.13679 409.915 5.58306 409.658 6.08487C409.402 5.76983 409.098 5.49509 408.756 5.27047C408.581 5.15386 408.378 5.08384 408.167 5.06749C407.956 5.05115 407.744 5.08906 407.553 5.1774C407.348 5.30833 407.182 5.48882 407.072 5.70094C406.595 6.8029 406.441 8.01031 406.627 9.19119C405.087 7.84163 404.955 5.29374 403.15 4.2932C403.026 4.20291 402.879 4.14662 402.724 4.13024C402.57 4.11387 402.414 4.13801 402.272 4.20013C402.161 4.28942 402.071 4.40044 402.007 4.52588L401.358 5.81728C401.193 5.26907 400.9 4.76481 400.501 4.34328C400.103 3.92175 399.61 3.59417 399.06 3.38573C398.565 3.17487 398.013 3.1219 397.485 3.23449C397.232 3.29462 396.999 3.41427 396.806 3.58276C396.613 3.75125 396.466 3.96335 396.378 4.20013C396.325 4.58468 396.355 4.97571 396.467 5.34829C396.579 5.72088 396.77 6.06683 397.028 6.36409C398.68 8.83966 400.547 11.1749 402.609 13.3446C403.717 14.3039 404.547 15.5273 405.015 16.893C405.123 17.441 405.159 18 405.123 18.5567C405.123 20.0459 405.123 21.5351 405.039 23.0242L409.658 22.9428C410.237 22.9138 410.819 22.949 411.39 23.0475C412.777 23.515 414.019 24.3157 414.999 25.3744C417.239 27.3718 419.653 29.178 422.216 30.7726C422.521 31.0259 422.878 31.2138 423.264 31.3241C423.649 31.4343 424.055 31.4645 424.453 31.4125C424.71 31.3338 424.942 31.1932 425.127 31.0039C425.312 30.8147 425.445 30.5829 425.512 30.3305V30.3305ZM401.743 7.9696C401.272 7.54273 400.867 7.05303 400.54 6.51533C401.113 6.52752 401.657 6.75742 402.056 7.15521C402.438 7.54224 402.876 7.87515 403.355 8.14412C403.417 8.16639 403.485 8.16639 403.547 8.14412C403.593 8.11553 403.633 8.0802 403.667 8.03941L404.185 7.34136C404.779 8.29233 405.137 9.36356 405.231 10.471C405.327 11.1225 405.436 11.774 405.508 12.4371C405.487 13.0792 405.527 13.7218 405.628 14.3568C404.866 11.9638 403.535 9.77649 401.743 7.9696V7.9696ZM409.369 10.0521C409.273 9.67983 409.201 9.31917 409.128 8.8887C409.056 8.45824 409.345 7.72529 409.85 8.27209C410.355 8.8189 410.235 9.57512 410.295 10.0289C410.5 11.4366 410.223 12.7745 410.295 14.159C410.101 12.7682 409.791 11.3948 409.369 10.0521V10.0521ZM413.856 17.6376C415.287 17.7307 416.671 17.4747 418.126 17.6376C418.595 17.6958 419.581 17.7191 419.954 18.0681C420.327 18.4171 419.834 18.8476 419.305 18.7661L418.162 18.5451C416.755 18.1287 415.315 17.8252 413.856 17.6376ZM420.315 25.9328C418.449 24.2091 416.198 22.9234 413.736 22.1749C414.392 22.2725 415.056 22.3115 415.72 22.2913C416.406 22.3611 417.08 22.4658 417.753 22.5705C418.872 22.6665 419.952 23.0173 420.905 23.5943L420.195 24.083C420.146 24.1126 420.105 24.1523 420.075 24.1993C420.057 24.2601 420.057 24.3246 420.075 24.3854C420.36 24.8641 420.712 25.3025 421.121 25.6885C421.328 25.8748 421.493 26.0998 421.607 26.3498C421.72 26.5998 421.78 26.8696 421.783 27.1427C421.236 26.8092 420.742 26.4018 420.315 25.9328V25.9328Z" fill="#BE9738"/>
<path d="M412.581 248.972C411.742 248.304 410.668 247.979 409.586 248.065C407.636 247.946 405.683 248.219 403.848 248.867C403.102 249.158 402.392 249.542 401.635 249.786C400.62 250.129 399.535 250.233 398.471 250.089C398.11 249.717 398.471 249.949 398.11 249.531C398.267 249.88 396.811 248.693 396.907 249.065C396.534 248.972 397.749 250.391 397.4 250.229C397.821 250.531 397.581 250.229 397.966 250.566C398.119 251.598 398.016 252.651 397.665 253.637C397.4 254.37 397.004 255.057 396.715 255.766C396.036 257.539 395.749 259.43 395.873 261.316C395.794 262.362 396.129 263.397 396.811 264.213C397.385 264.671 398.082 264.962 398.82 265.051C399.182 265.059 399.541 264.991 399.873 264.852C400.205 264.714 400.502 264.508 400.744 264.248C401.227 263.718 401.507 263.045 401.538 262.34C401.576 261.935 401.483 261.529 401.274 261.176C400.42 259.932 398.772 261.537 399.939 261.933C400.275 262.061 400.696 261.933 400.756 262.421C400.817 262.91 400.215 263.585 399.71 263.713C399.339 263.795 398.951 263.759 398.603 263.608C398.19 263.41 397.851 263.091 397.635 262.696C397.419 262.301 397.337 261.851 397.4 261.409C397.413 261.207 397.475 261.011 397.582 260.837C397.688 260.663 397.837 260.516 398.014 260.409C398.363 260.222 398.832 260.257 399.109 259.978C399.214 259.851 399.283 259.698 399.308 259.537C399.333 259.376 399.314 259.211 399.253 259.059C399.123 258.764 399.015 258.461 398.928 258.151C398.903 257.79 398.997 257.43 399.195 257.123C399.394 256.816 399.688 256.577 400.035 256.441C400.378 256.317 400.744 256.262 401.111 256.28C401.477 256.298 401.835 256.389 402.164 256.546C402.429 256.651 402.681 256.802 402.946 256.895C403.558 257.091 404.213 257.131 404.846 257.011H404.918C404.97 257.022 405.023 257.022 405.075 257.011V257.011C405.085 256.965 405.085 256.918 405.075 256.872C405.069 256.849 405.069 256.825 405.075 256.802C405.187 256.189 405.146 255.558 404.955 254.964C404.846 254.696 404.702 254.452 404.582 254.207C404.418 253.888 404.325 253.538 404.308 253.182C404.292 252.825 404.352 252.469 404.485 252.137C404.623 251.801 404.867 251.516 405.183 251.324C405.498 251.131 405.869 251.041 406.242 251.066C406.56 251.153 406.874 251.258 407.18 251.38C407.339 251.44 407.511 251.458 407.68 251.433C407.849 251.409 408.008 251.343 408.142 251.241C408.419 250.973 408.383 250.531 408.575 250.194C408.691 250.023 408.845 249.88 409.027 249.775C409.208 249.67 409.411 249.606 409.622 249.589C410.077 249.53 410.54 249.611 410.945 249.82C411.351 250.028 411.679 250.354 411.883 250.752C412.05 251.089 412.088 251.472 411.991 251.834C411.905 252.116 411.729 252.364 411.49 252.546C411.251 252.727 410.96 252.832 410.656 252.846C410.211 252.776 410.283 252.381 410.163 252.044C409.742 250.88 408.082 252.521 409.381 253.335C409.739 253.552 410.165 253.643 410.584 253.591C411.315 253.572 412.015 253.299 412.557 252.823C412.825 252.589 413.037 252.301 413.179 251.98C413.32 251.658 413.387 251.311 413.375 250.962C413.35 250.691 413.29 250.425 413.194 250.17C413.08 249.733 412.871 249.325 412.581 248.972V248.972ZM402.729 254.708C402.032 254.556 401.262 254.312 401.057 253.661C401.027 253.452 401.027 253.241 401.057 253.032C401.277 253.003 401.499 253.003 401.719 253.032C402.332 253.253 402.585 253.998 402.729 254.673V254.708Z" fill="#BE9738"/>
<path d="M424.513 248.506C424.115 248.454 423.709 248.484 423.324 248.595C422.938 248.705 422.581 248.893 422.276 249.146C419.717 250.74 417.302 252.542 415.059 254.533C414.081 255.594 412.839 256.395 411.45 256.86C410.878 256.952 410.298 256.987 409.718 256.964L405.099 256.883C405.099 258.372 405.099 259.861 405.183 261.35C405.219 261.907 405.183 262.466 405.075 263.014C404.602 264.361 403.772 265.564 402.669 266.504C400.608 268.674 398.741 271.01 397.088 273.485C396.83 273.78 396.638 274.123 396.527 274.494C396.415 274.865 396.385 275.254 396.438 275.637C396.522 275.876 396.668 276.09 396.861 276.259C397.055 276.428 397.29 276.547 397.545 276.603C398.072 276.713 398.623 276.665 399.121 276.463C399.669 276.253 400.161 275.925 400.559 275.504C400.958 275.083 401.251 274.579 401.418 274.032L402.164 275.3C402.225 275.424 402.315 275.531 402.429 275.614C402.569 275.679 402.726 275.704 402.881 275.688C403.036 275.671 403.184 275.613 403.307 275.521C405.111 274.52 405.243 272.031 406.783 270.623C406.599 271.804 406.753 273.011 407.228 274.113C407.335 274.324 407.502 274.502 407.709 274.625C407.9 274.713 408.112 274.751 408.324 274.735C408.535 274.719 408.738 274.648 408.912 274.532C409.257 274.311 409.562 274.035 409.814 273.717C410.069 274.222 410.428 274.671 410.868 275.037C411.309 275.404 411.822 275.679 412.376 275.847C413.526 276.179 414.764 276.067 415.829 275.532C416.476 275.232 417.026 274.767 417.421 274.187C417.815 273.607 418.038 272.934 418.066 272.24C418.062 271.909 417.988 271.583 417.849 271.281C417.71 270.979 417.509 270.708 417.258 270.483C417.007 270.259 416.711 270.087 416.389 269.976C416.067 269.866 415.724 269.821 415.383 269.843C414.845 269.924 414.34 270.15 413.928 270.495C413.435 270.89 413.038 271.542 413.327 272.054C413.425 272.218 413.583 272.34 413.77 272.398C413.956 272.456 414.158 272.445 414.337 272.368C414.516 272.319 414.669 272.207 414.767 272.054C414.865 271.901 414.9 271.719 414.866 271.542C414.866 271.542 415.6 271.274 415.829 271.542C415.929 271.69 415.993 271.858 416.016 272.033C416.038 272.209 416.02 272.387 415.961 272.554C415.809 273.065 415.495 273.516 415.064 273.844C414.632 274.172 414.104 274.36 413.555 274.381C413.014 274.363 412.497 274.161 412.097 273.809C411.696 273.458 411.437 272.98 411.366 272.461C411.342 271.79 411.457 271.122 411.703 270.495C412.48 268.491 412.556 266.297 411.919 264.247C411.78 263.901 411.549 263.597 411.249 263.366C410.949 263.135 410.591 262.986 410.211 262.933C410.067 263.642 409.802 264.492 409.08 264.724C408.772 264.775 408.456 264.755 408.157 264.666C407.859 264.577 407.586 264.422 407.36 264.212C407.211 264.123 407.087 263.999 406.999 263.852C406.957 263.684 406.957 263.508 406.999 263.34C407.108 261.99 407.288 260.629 407.517 259.279C408.912 259.058 410.307 258.896 411.715 258.791C411.887 258.739 412.072 258.739 412.244 258.791C412.395 258.873 412.52 258.994 412.605 259.14C412.822 259.357 412.984 259.621 413.076 259.91C413.168 260.199 413.188 260.505 413.134 260.804C412.894 261.49 412.027 261.746 411.294 261.886C411.381 262.242 411.565 262.569 411.828 262.833C412.09 263.097 412.421 263.288 412.785 263.386C414.908 264.002 417.181 263.929 419.257 263.177C419.906 262.943 420.597 262.832 421.29 262.851C421.825 262.922 422.318 263.173 422.681 263.56C423.044 263.948 423.254 264.446 423.274 264.969C423.264 265.511 423.074 266.036 422.732 266.465C422.39 266.895 421.913 267.206 421.374 267.354C421.201 267.411 421.017 267.429 420.835 267.406C420.654 267.384 420.48 267.322 420.327 267.226C420.051 267.005 420.327 266.306 420.327 266.306C420.513 266.337 420.703 266.3 420.863 266.204C421.023 266.107 421.14 265.958 421.193 265.783C421.268 265.609 421.277 265.416 421.217 265.236C421.158 265.057 421.034 264.905 420.869 264.806C420.339 264.526 419.666 264.922 419.257 265.387C418.899 265.787 418.661 266.274 418.571 266.795C418.55 267.126 418.598 267.458 418.713 267.77C418.828 268.083 419.008 268.369 419.24 268.613C419.473 268.856 419.754 269.052 420.067 269.187C420.38 269.323 420.718 269.396 421.061 269.401C421.776 269.371 422.469 269.154 423.066 268.772C423.664 268.391 424.143 267.861 424.453 267.237C425.006 266.203 425.123 265.002 424.778 263.887C424.608 263.353 424.328 262.86 423.953 262.435C423.579 262.011 423.119 261.666 422.601 261.42C422.93 261.172 423.214 260.873 423.443 260.536C423.563 260.367 423.636 260.171 423.653 259.967C423.67 259.762 423.63 259.557 423.539 259.373C423.409 259.174 423.226 259.014 423.01 258.907C421.872 258.44 420.623 258.287 419.401 258.465C420.796 256.976 423.431 256.848 424.465 255.114C424.559 254.994 424.617 254.852 424.634 254.703C424.651 254.553 424.626 254.402 424.561 254.265C424.472 254.155 424.356 254.067 424.225 254.009C423.792 253.765 423.359 253.521 422.913 253.288C423.479 253.123 423.999 252.837 424.436 252.453C424.873 252.068 425.216 251.595 425.439 251.066C425.647 250.584 425.698 250.052 425.584 249.542C425.511 249.295 425.374 249.071 425.187 248.89C425 248.709 424.768 248.577 424.513 248.506V248.506ZM405.628 265.574C405.527 266.212 405.487 266.859 405.508 267.505C405.436 268.156 405.327 268.808 405.231 269.471C405.119 270.551 404.757 271.593 404.173 272.519L403.655 271.821C403.628 271.774 403.586 271.738 403.535 271.716C403.505 271.703 403.472 271.696 403.439 271.696C403.406 271.696 403.373 271.703 403.343 271.716C402.849 271.99 402.4 272.331 402.008 272.729C401.609 273.126 401.064 273.356 400.492 273.368C400.822 272.829 401.227 272.336 401.695 271.903C403.501 270.121 404.849 267.953 405.628 265.574V265.574ZM410.319 265.702C410.223 267.086 410.5 268.424 410.319 269.832C410.319 270.285 410.247 271.228 409.874 271.588C409.501 271.949 409.068 271.472 409.153 270.972C409.237 270.472 409.297 270.227 409.393 269.867C409.818 268.505 410.128 267.112 410.319 265.702V265.702ZM418.162 261.35C418.547 261.269 418.932 261.187 419.305 261.129C419.678 261.071 420.508 261.327 419.954 261.816C419.401 262.304 418.595 262.188 418.126 262.258C416.671 262.444 415.287 262.188 413.856 262.258C415.316 262.076 416.756 261.772 418.162 261.35V261.35ZM421.771 252.776C421.766 253.049 421.704 253.318 421.591 253.567C421.477 253.817 421.314 254.042 421.109 254.23C420.703 254.614 420.352 255.049 420.063 255.522C420.045 255.583 420.045 255.647 420.063 255.708C420.09 255.76 420.131 255.805 420.183 255.836L420.893 256.324C419.94 256.901 418.86 257.252 417.741 257.348C417.067 257.441 416.394 257.558 415.708 257.616C415.044 257.599 414.38 257.642 413.723 257.744C416.188 256.994 418.439 255.704 420.303 253.974C420.745 253.505 421.256 253.102 421.819 252.776H421.771Z" fill="#BE9738"/>
<path d="M19.5652 250.135C19.4696 250.39 19.409 250.656 19.3848 250.926C19.3726 251.275 19.4395 251.623 19.5808 251.944C19.7221 252.266 19.9344 252.554 20.2027 252.787C20.744 253.264 21.444 253.536 22.1755 253.555C22.5949 253.607 23.02 253.517 23.3783 253.299C24.6774 252.485 23.0175 250.891 22.5965 252.008C22.4762 252.345 22.5965 252.741 22.1033 252.811C21.7998 252.796 21.5083 252.691 21.2691 252.51C21.03 252.329 20.8549 252.08 20.7681 251.798C20.6709 251.437 20.7093 251.053 20.8763 250.716C21.0807 250.319 21.4086 249.993 21.8141 249.784C22.2196 249.575 22.6824 249.495 23.1378 249.553C23.3481 249.571 23.5517 249.634 23.7329 249.739C23.9142 249.844 24.0685 249.987 24.1843 250.158C24.3767 250.495 24.3406 250.938 24.6173 251.205C24.7515 251.307 24.9107 251.373 25.0794 251.398C25.2481 251.422 25.4204 251.404 25.5796 251.345C25.8859 251.223 26.1991 251.118 26.5178 251.031C26.8902 251.005 27.2611 251.096 27.5769 251.288C27.8927 251.48 28.1369 251.765 28.274 252.101C28.4075 252.434 28.4678 252.79 28.4513 253.146C28.4347 253.503 28.3416 253.852 28.1778 254.172C28.0575 254.416 27.9132 254.66 27.8049 254.928C27.6135 255.523 27.5723 256.153 27.6846 256.766C27.6902 256.789 27.6902 256.813 27.6846 256.836C27.6742 256.882 27.6742 256.93 27.6846 256.976C27.6846 256.976 27.6846 256.976 27.6846 256.976C27.7362 256.986 27.7895 256.986 27.841 256.976H28.0575C28.6908 257.096 29.3454 257.056 29.9581 256.859C30.2227 256.766 30.4753 256.615 30.7399 256.51C31.0686 256.353 31.4271 256.263 31.7933 256.245C32.1594 256.227 32.5256 256.281 32.869 256.406C33.216 256.542 33.5098 256.78 33.7084 257.088C33.9071 257.395 34.0006 257.754 33.9757 258.116C33.8891 258.425 33.7806 258.728 33.6509 259.023C33.5895 259.175 33.5706 259.34 33.5959 259.502C33.6213 259.663 33.69 259.815 33.7952 259.942C34.0719 260.222 34.541 260.187 34.8898 260.373C35.0672 260.48 35.2155 260.627 35.3222 260.801C35.4289 260.975 35.491 261.171 35.5033 261.373C35.5665 261.816 35.4843 262.266 35.2685 262.66C35.0526 263.055 34.714 263.374 34.3004 263.572C33.9532 263.723 33.5646 263.76 33.1938 263.677C32.6886 263.537 32.0631 262.932 32.1473 262.386C32.2315 261.839 32.6284 262.025 32.9652 261.897C34.1681 261.501 32.4841 259.896 31.6301 261.141C31.4203 261.493 31.3279 261.899 31.3654 262.304C31.3965 263.009 31.6767 263.683 32.1593 264.212C32.4015 264.472 32.6989 264.678 33.031 264.817C33.3631 264.955 33.7223 265.023 34.0839 265.015C34.8223 264.926 35.5192 264.636 36.0927 264.177C36.7744 263.362 37.1098 262.326 37.031 261.28C37.1549 259.394 36.868 257.503 36.189 255.731C35.9003 255.021 35.5033 254.335 35.2387 253.602C34.8879 252.616 34.7849 251.563 34.938 250.53C35.3229 250.181 35.0823 250.53 35.5033 250.193C35.1545 250.344 36.3694 248.925 35.9965 249.03C36.0807 248.657 34.6252 249.844 34.7936 249.495C34.4809 249.914 34.7936 249.681 34.4328 250.053C33.3684 250.197 32.2839 250.093 31.2692 249.751C30.5114 249.507 29.8017 249.123 29.0559 248.832C27.2212 248.184 25.2676 247.91 23.3182 248.029C22.2358 247.943 21.1613 248.269 20.323 248.936C19.9811 249.276 19.7222 249.686 19.5652 250.135V250.135ZM31.1609 253.113C31.3804 253.084 31.603 253.084 31.8225 253.113C31.833 253.324 31.8127 253.536 31.7624 253.741C31.5579 254.393 30.788 254.637 30.0904 254.788C30.2347 253.997 30.4633 253.253 31.1609 253.055V253.113Z" fill="#BE9738"/>
<path d="M7.30792 249.589C7.19419 250.099 7.24456 250.631 7.45226 251.113C7.67955 251.646 8.02787 252.122 8.4714 252.507C8.91493 252.891 9.44229 253.174 10.0144 253.335C9.56932 253.568 9.13629 253.812 8.70325 254.056C8.57161 254.115 8.45617 254.202 8.36645 254.312C8.30222 254.449 8.27726 254.6 8.29419 254.75C8.31113 254.899 8.36932 255.041 8.46268 255.162C9.49715 256.895 12.1314 257.023 13.5268 258.512C12.3048 258.334 11.0555 258.487 9.91816 258.954C9.70194 259.061 9.51919 259.222 9.38889 259.42C9.29756 259.605 9.25836 259.81 9.27526 260.014C9.29216 260.218 9.36455 260.415 9.48512 260.583C9.71356 260.921 9.99806 261.219 10.3271 261.467C9.80708 261.712 9.34442 262.057 8.96784 262.481C8.59126 262.905 8.30878 263.4 8.1379 263.934C7.79303 265.049 7.90947 266.251 8.46268 267.284C8.773 267.908 9.25233 268.439 9.84965 268.82C10.447 269.201 11.1399 269.418 11.8548 269.448C12.1976 269.443 12.5357 269.37 12.8486 269.234C13.1615 269.099 13.4428 268.904 13.6755 268.66C13.9082 268.416 14.0875 268.13 14.2025 267.817C14.3175 267.505 14.3659 267.173 14.3447 266.842C14.2527 266.301 14.0022 265.796 13.623 265.388C13.2261 264.923 12.5404 264.527 12.0112 264.806C11.8457 264.905 11.7222 265.058 11.6626 265.237C11.6031 265.416 11.6115 265.61 11.6864 265.784C11.7396 265.958 11.8572 266.108 12.0167 266.204C12.1763 266.301 12.3669 266.337 12.5525 266.307C12.5525 266.307 12.8291 267.005 12.5525 267.226C12.3995 267.323 12.2258 267.385 12.0445 267.407C11.8631 267.429 11.679 267.411 11.506 267.354C10.9663 267.207 10.4901 266.895 10.1478 266.466C9.8055 266.036 9.61532 265.511 9.60541 264.969C9.6259 264.447 9.83612 263.948 10.1991 263.561C10.5621 263.174 11.0547 262.923 11.5902 262.852C12.2831 262.833 12.9734 262.944 13.623 263.178C15.6985 263.93 17.9716 264.003 20.0945 263.387C20.4591 263.289 20.7898 263.098 21.0522 262.834C21.3145 262.57 21.4989 262.242 21.586 261.886C20.8523 261.747 19.9862 261.491 19.7456 260.804C19.6921 260.506 19.7121 260.2 19.8041 259.911C19.8961 259.622 20.0574 259.358 20.2749 259.141C20.36 258.995 20.4848 258.874 20.6358 258.791C20.8081 258.74 20.9927 258.74 21.165 258.791C22.5724 258.896 23.9677 259.059 25.3631 259.28C25.5916 260.63 25.7721 261.991 25.8803 263.34C25.9231 263.509 25.9231 263.684 25.8803 263.852C25.7924 263.999 25.6685 264.123 25.5195 264.213C25.2942 264.423 25.0212 264.578 24.7224 264.667C24.4236 264.756 24.1075 264.776 23.7993 264.725C23.0776 264.492 22.813 263.643 22.6686 262.933C22.301 263.023 21.9641 263.205 21.6918 263.46C21.4195 263.715 21.2213 264.035 21.1169 264.388C20.48 266.437 20.556 268.632 21.3334 270.635C21.5793 271.262 21.6938 271.931 21.6703 272.601C21.5994 273.12 21.3404 273.598 20.9395 273.949C20.5387 274.301 20.0218 274.503 19.481 274.521C18.9219 274.512 18.3805 274.33 17.9366 274.001C17.4927 273.672 17.1697 273.214 17.0151 272.694C16.9562 272.527 16.9375 272.349 16.9604 272.173C16.9834 271.998 17.0473 271.83 17.1474 271.682C17.376 271.415 18.1097 271.682 18.1097 271.682C18.0757 271.859 18.1111 272.042 18.209 272.194C18.3069 272.347 18.4602 272.459 18.639 272.508C18.8178 272.586 19.0199 272.596 19.2065 272.538C19.393 272.48 19.5508 272.358 19.6494 272.194C19.9381 271.682 19.5412 271.031 19.048 270.635C18.6358 270.29 18.1314 270.064 17.5925 269.984C17.2487 269.95 16.9015 269.985 16.5724 270.087C16.2433 270.189 15.9395 270.355 15.6799 270.576C15.4203 270.796 15.2105 271.066 15.0635 271.369C14.9166 271.671 14.8357 272 14.8259 272.334C14.8539 273.027 15.077 273.701 15.4713 274.281C15.8655 274.861 16.4159 275.326 17.0632 275.626C18.1281 276.161 19.3662 276.273 20.5155 275.94C21.0698 275.773 21.5829 275.497 22.0235 275.131C22.464 274.765 22.8227 274.316 23.0776 273.811C23.3296 274.129 23.6345 274.404 23.9798 274.626C24.154 274.742 24.357 274.812 24.5683 274.829C24.7795 274.845 24.9914 274.807 25.1826 274.719C25.3898 274.595 25.5566 274.418 25.6638 274.207C26.1444 273.106 26.2985 271.897 26.1089 270.717C27.6485 272.078 27.7809 274.614 29.5852 275.615C29.7059 275.711 29.852 275.773 30.0071 275.793C30.1622 275.814 30.3202 275.792 30.4633 275.731C30.5764 275.648 30.6672 275.541 30.7279 275.417L31.4737 274.149C31.6406 274.696 31.9342 275.2 32.3323 275.621C32.7304 276.042 33.2225 276.37 33.7712 276.58C34.2692 276.782 34.8193 276.831 35.3469 276.72C35.6084 276.665 35.8505 276.545 36.0489 276.371C36.2474 276.198 36.3952 275.977 36.4776 275.731C36.5313 275.348 36.5012 274.959 36.3893 274.588C36.2774 274.217 36.0862 273.873 35.8281 273.579C34.1751 271.103 32.3079 268.768 30.2468 266.598C29.1435 265.658 28.3141 264.454 27.841 263.108C27.7328 262.56 27.6965 262.001 27.7327 261.444C27.7327 259.955 27.7327 258.466 27.8169 256.977L23.1979 257.058C22.6183 257.081 22.0379 257.046 21.4658 256.953C20.0769 256.489 18.8344 255.688 17.8571 254.626C15.6136 252.636 13.1992 250.834 10.6399 249.24C10.3347 248.987 9.97759 248.799 9.59199 248.688C9.20639 248.578 8.80103 248.548 8.40253 248.6C8.1491 248.663 7.91608 248.787 7.72484 248.959C7.5336 249.132 7.39025 249.349 7.30792 249.589V249.589ZM31.0767 271.938C31.5449 272.371 31.9496 272.865 32.2796 273.404C31.7071 273.392 31.1625 273.162 30.764 272.764C30.3717 272.366 29.922 272.025 29.4288 271.752C29.3986 271.738 29.3658 271.731 29.3326 271.731C29.2993 271.731 29.2665 271.738 29.2363 271.752C29.1855 271.773 29.1432 271.81 29.116 271.857L28.5988 272.555C28.0141 271.628 27.6523 270.587 27.5403 269.507C27.4441 268.843 27.3358 268.192 27.2636 267.54C27.2843 266.894 27.244 266.248 27.1433 265.609C27.9225 267.988 29.27 270.156 31.0767 271.938V271.938ZM23.4625 269.914C23.5467 270.274 23.6189 270.647 23.6911 271.019C23.7633 271.391 23.4746 272.182 22.9694 271.636C22.4641 271.089 22.5844 270.333 22.5243 269.879C22.3198 268.471 22.5965 267.133 22.5243 265.749C22.7138 267.16 23.0277 268.554 23.4625 269.914V269.914ZM18.9638 262.317C17.5324 262.235 16.1491 262.491 14.6936 262.317C14.2245 262.247 13.2381 262.235 12.8652 261.875C12.4923 261.514 12.9855 261.107 13.5148 261.188C14.044 261.27 14.2726 261.328 14.6575 261.409C16.0646 261.815 17.5054 262.103 18.9638 262.27V262.317ZM12.5043 253.975C14.3681 255.705 16.6199 256.995 19.0841 257.744C18.4279 257.643 17.7636 257.6 17.0993 257.616C16.4137 257.558 15.7401 257.442 15.0665 257.349C13.9471 257.253 12.8672 256.902 11.9149 256.325L12.6246 255.836C12.6763 255.805 12.718 255.761 12.7449 255.708C12.7623 255.648 12.7623 255.583 12.7449 255.522C12.4561 255.049 12.1042 254.615 11.6984 254.231C11.4941 254.043 11.3303 253.818 11.2168 253.568C11.1032 253.318 11.042 253.049 11.0368 252.777C11.5829 253.106 12.0771 253.51 12.5043 253.975V253.975Z" fill="#BE9738"/>
<path d="M386.96 271.496H46.1007C45.9623 271.496 45.8295 271.444 45.7306 271.35C45.6317 271.257 45.5745 271.129 45.5714 270.996C45.565 262.725 42.1629 254.796 36.1131 248.951C30.0633 243.106 21.8612 239.824 13.3103 239.828C13.172 239.828 13.0391 239.775 12.9402 239.682C12.8413 239.588 12.7841 239.461 12.781 239.327V40.72C12.781 40.5843 12.8368 40.4541 12.936 40.3581C13.0353 40.2621 13.1699 40.2081 13.3103 40.2081C21.8591 40.1989 30.0543 36.907 36.0947 31.056C42.1352 25.205 45.5265 17.2736 45.5233 9.00523C45.523 8.93391 45.5381 8.86331 45.5676 8.79796C45.5972 8.73261 45.6405 8.67396 45.6949 8.62576C45.7493 8.57757 45.8134 8.54089 45.8833 8.51808C45.9532 8.49528 46.0272 8.48685 46.1007 8.49333H386.96C387.1 8.49333 387.235 8.54726 387.334 8.64326C387.433 8.73926 387.489 8.86947 387.489 9.00523C387.498 17.2676 390.897 25.1887 396.939 31.03C402.98 36.8713 411.171 40.1554 419.714 40.1616C419.783 40.1674 419.851 40.1865 419.913 40.2178C419.975 40.2491 420.03 40.292 420.075 40.3439C420.119 40.3958 420.153 40.4558 420.174 40.5203C420.194 40.5849 420.202 40.6528 420.195 40.72V239.327C420.195 239.46 420.14 239.587 420.043 239.681C419.946 239.775 419.815 239.828 419.678 239.828C411.134 239.837 402.943 243.124 396.902 248.967C390.86 254.81 387.462 262.732 387.453 270.996C387.45 271.123 387.398 271.246 387.307 271.338C387.215 271.431 387.091 271.487 386.96 271.496V271.496ZM46.5457 270.484H386.442C386.591 262.131 390.088 254.16 396.197 248.254C402.306 242.348 410.548 238.968 419.185 238.827V41.1738C410.546 41.0331 402.302 37.6515 396.193 31.7428C390.084 25.834 386.588 17.8605 386.442 9.50551H46.5698C46.4244 17.8605 42.928 25.834 36.8189 31.7428C30.7098 37.6515 22.4659 41.0331 13.8275 41.1738V238.827C22.4648 238.965 30.7087 242.344 36.8181 248.251C42.9276 254.157 46.4243 262.13 46.5698 270.484H46.5457Z" fill="#BE9738"/>
</g>
<defs>
<filter id="filter0_d" x="0" y="0" width="433" height="288" filterUnits="userSpaceOnUse" color-interpolation-filters="sRGB">
<feFlood flood-opacity="0" result="BackgroundImageFix"/>
<feColorMatrix in="SourceAlpha" type="matrix" values="0 0 0 0 0 0 0 0 0 0 0 0 0 0 0 0 0 0 127 0" result="hardAlpha"/>
<feOffset dy="4"/>
<feGaussianBlur stdDeviation="2"/>
<feComposite in2="hardAlpha" operator="out"/>
<feColorMatrix type="matrix" values="0 0 0 0 0 0 0 0 0 0 0 0 0 0 0 0 0 0 0.25 0"/>
<feBlend mode="normal" in2="BackgroundImageFix" result="effect1_dropShadow"/>
<feBlend mode="normal" in="SourceGraphic" in2="effect1_dropShadow" result="shape"/>
</filter>
</defs>
</svg>
