<svg width="441" height="171" viewBox="0 0 441 171" fill="none" xmlns="http://www.w3.org/2000/svg">
<path d="M154.945 96.7734C152.961 96.7734 151.055 96.3828 149.227 95.6016C147.414 94.8203 145.805 93.6953 144.398 92.2266C143.008 90.7578 141.898 88.9688 141.07 86.8594C140.242 84.7344 139.828 82.3438 139.828 79.6875C139.828 77.0312 140.234 74.625 141.047 72.4688C141.859 70.2969 142.984 68.4297 144.422 66.8672C145.844 65.3203 147.523 64.125 149.461 63.2812C151.398 62.4375 153.469 62.0156 155.672 62.0156C157.312 62.0156 158.797 62.2188 160.125 62.625C161.453 63.0312 162.719 63.6016 163.922 64.3359L164.883 62.7422H166.758L166.969 74.6016H165.047C164.797 73.4453 164.422 72.1953 163.922 70.8516C163.422 69.4922 162.836 68.3438 162.164 67.4062C161.414 66.3438 160.523 65.5156 159.492 64.9219C158.461 64.3125 157.281 64.0078 155.953 64.0078C154.438 64.0078 153.023 64.3438 151.711 65.0156C150.414 65.6875 149.289 66.6797 148.336 67.9922C147.43 69.2578 146.719 70.8672 146.203 72.8203C145.688 74.7734 145.43 76.9531 145.43 79.3594C145.43 81.4844 145.695 83.4375 146.227 85.2188C146.773 86.9844 147.547 88.5391 148.547 89.8828C149.547 91.2109 150.727 92.25 152.086 93C153.461 93.75 154.992 94.125 156.68 94.125C157.945 94.125 159.109 93.9297 160.172 93.5391C161.234 93.1328 162.156 92.6016 162.938 91.9453C163.719 91.2578 164.406 90.4766 165 89.6016C165.594 88.7266 166.078 87.7734 166.453 86.7422L168.211 87.5859C166.867 90.8828 165.086 93.2422 162.867 94.6641C160.648 96.0703 158.008 96.7734 154.945 96.7734ZM193.055 84.2109C193.055 85.8359 192.797 87.4375 192.281 89.0156C191.766 90.5781 191.031 91.9062 190.078 93C189 94.25 187.75 95.1797 186.328 95.7891C184.906 96.3984 183.312 96.7031 181.547 96.7031C180.078 96.7031 178.68 96.4297 177.352 95.8828C176.023 95.3203 174.844 94.5078 173.812 93.4453C172.797 92.3984 171.984 91.125 171.375 89.625C170.781 88.1094 170.484 86.4141 170.484 84.5391C170.484 80.9297 171.531 77.9766 173.625 75.6797C175.734 73.3828 178.492 72.2344 181.898 72.2344C185.133 72.2344 187.797 73.3281 189.891 75.5156C192 77.6875 193.055 80.5859 193.055 84.2109ZM188.203 84.2578C188.203 83.0859 188.086 81.8516 187.852 80.5547C187.617 79.2422 187.266 78.1328 186.797 77.2266C186.297 76.2578 185.641 75.4844 184.828 74.9062C184.016 74.3125 183.023 74.0156 181.852 74.0156C180.648 74.0156 179.617 74.3125 178.758 74.9062C177.914 75.5 177.227 76.3125 176.695 77.3438C176.195 78.2969 175.844 79.3828 175.641 80.6016C175.438 81.8203 175.336 83 175.336 84.1406C175.336 85.6406 175.453 87.0312 175.688 88.3125C175.938 89.5781 176.328 90.7109 176.859 91.7109C177.391 92.7109 178.055 93.5 178.852 94.0781C179.664 94.6406 180.664 94.9219 181.852 94.9219C183.805 94.9219 185.352 93.9766 186.492 92.0859C187.633 90.1953 188.203 87.5859 188.203 84.2578ZM221.93 96H210.609V94.4531C210.969 94.4219 211.359 94.3906 211.781 94.3594C212.219 94.3281 212.578 94.2656 212.859 94.1719C213.297 94.0312 213.617 93.7891 213.82 93.4453C214.039 93.0859 214.148 92.625 214.148 92.0625V80.1797C214.148 78.5391 213.758 77.2734 212.977 76.3828C212.211 75.4922 211.273 75.0469 210.164 75.0469C209.336 75.0469 208.578 75.1797 207.891 75.4453C207.203 75.6953 206.594 76.0078 206.062 76.3828C205.547 76.7422 205.133 77.1328 204.82 77.5547C204.523 77.9609 204.305 78.2891 204.164 78.5391V91.8281C204.164 92.3594 204.273 92.7969 204.492 93.1406C204.711 93.4844 205.039 93.75 205.477 93.9375C205.805 94.0938 206.156 94.2109 206.531 94.2891C206.922 94.3672 207.32 94.4219 207.727 94.4531V96H196.406V94.4531C196.766 94.4219 197.133 94.3906 197.508 94.3594C197.898 94.3281 198.234 94.2656 198.516 94.1719C198.953 94.0312 199.273 93.7891 199.477 93.4453C199.695 93.0859 199.805 92.625 199.805 92.0625V77.7891C199.805 77.2578 199.688 76.7734 199.453 76.3359C199.234 75.8828 198.922 75.5156 198.516 75.2344C198.219 75.0469 197.867 74.9141 197.461 74.8359C197.055 74.7422 196.617 74.6797 196.148 74.6484V73.125L203.836 72.6094L204.164 72.9375V76.1953H204.281C204.656 75.8203 205.125 75.375 205.688 74.8594C206.25 74.3281 206.781 73.8984 207.281 73.5703C207.859 73.1953 208.547 72.8828 209.344 72.6328C210.141 72.3828 211.039 72.2578 212.039 72.2578C214.258 72.2578 215.898 72.9531 216.961 74.3438C218.039 75.7188 218.578 77.5547 218.578 79.8516V91.875C218.578 92.4219 218.672 92.8672 218.859 93.2109C219.047 93.5391 219.367 93.7969 219.82 93.9844C220.195 94.1406 220.516 94.25 220.781 94.3125C221.062 94.375 221.445 94.4219 221.93 94.4531V96ZM239.039 94.9922C238.023 95.4141 237.062 95.7656 236.156 96.0469C235.25 96.3438 234.141 96.4922 232.828 96.4922C230.891 96.4922 229.523 96.0078 228.727 95.0391C227.945 94.0547 227.555 92.6719 227.555 90.8906V75.2344H223.383V72.9844H227.648V65.7891H231.914V72.9844H238.547V75.2344H231.961V88.1484C231.961 89.1172 231.992 89.9297 232.055 90.5859C232.133 91.2266 232.305 91.7891 232.57 92.2734C232.82 92.7266 233.195 93.0703 233.695 93.3047C234.195 93.5391 234.867 93.6562 235.711 93.6562C236.102 93.6562 236.672 93.625 237.422 93.5625C238.188 93.4844 238.727 93.3906 239.039 93.2812V94.9922ZM263.25 95.5781C262.516 95.8438 261.867 96.0547 261.305 96.2109C260.758 96.3828 260.133 96.4688 259.43 96.4688C258.211 96.4688 257.234 96.1875 256.5 95.625C255.781 95.0469 255.32 94.2109 255.117 93.1172H254.977C253.961 94.2422 252.867 95.1016 251.695 95.6953C250.539 96.2891 249.141 96.5859 247.5 96.5859C245.766 96.5859 244.336 96.0547 243.211 94.9922C242.102 93.9297 241.547 92.5391 241.547 90.8203C241.547 89.9297 241.672 89.1328 241.922 88.4297C242.172 87.7266 242.547 87.0938 243.047 86.5312C243.438 86.0625 243.953 85.6484 244.594 85.2891C245.234 84.9141 245.836 84.6172 246.398 84.3984C247.102 84.1328 248.523 83.6406 250.664 82.9219C252.82 82.2031 254.273 81.6406 255.023 81.2344V78.9141C255.023 78.7109 254.977 78.3203 254.883 77.7422C254.805 77.1641 254.625 76.6172 254.344 76.1016C254.031 75.5234 253.586 75.0234 253.008 74.6016C252.445 74.1641 251.641 73.9453 250.594 73.9453C249.875 73.9453 249.203 74.0703 248.578 74.3203C247.969 74.5547 247.539 74.8047 247.289 75.0703C247.289 75.3828 247.359 75.8438 247.5 76.4531C247.656 77.0625 247.734 77.625 247.734 78.1406C247.734 78.6875 247.484 79.1875 246.984 79.6406C246.5 80.0938 245.82 80.3203 244.945 80.3203C244.164 80.3203 243.586 80.0469 243.211 79.5C242.852 78.9375 242.672 78.3125 242.672 77.625C242.672 76.9062 242.922 76.2188 243.422 75.5625C243.938 74.9062 244.602 74.3203 245.414 73.8047C246.117 73.3672 246.969 73 247.969 72.7031C248.969 72.3906 249.945 72.2344 250.898 72.2344C252.211 72.2344 253.352 72.3281 254.32 72.5156C255.305 72.6875 256.195 73.0703 256.992 73.6641C257.789 74.2422 258.391 75.0312 258.797 76.0312C259.219 77.0156 259.43 78.2891 259.43 79.8516C259.43 82.0859 259.406 84.0703 259.359 85.8047C259.312 87.5234 259.289 89.4062 259.289 91.4531C259.289 92.0625 259.391 92.5469 259.594 92.9062C259.812 93.2656 260.141 93.5703 260.578 93.8203C260.812 93.9609 261.18 94.0391 261.68 94.0547C262.195 94.0703 262.719 94.0781 263.25 94.0781V95.5781ZM255.07 83.2031C253.742 83.5938 252.578 83.9766 251.578 84.3516C250.578 84.7266 249.648 85.1953 248.789 85.7578C248.008 86.2891 247.391 86.9219 246.938 87.6562C246.484 88.375 246.258 89.2344 246.258 90.2344C246.258 91.5312 246.594 92.4844 247.266 93.0938C247.953 93.7031 248.82 94.0078 249.867 94.0078C250.977 94.0078 251.953 93.7422 252.797 93.2109C253.641 92.6641 254.352 92.0234 254.93 91.2891L255.07 83.2031ZM276.234 96.6094C272.891 96.6094 270.273 95.5 268.383 93.2812C266.492 91.0625 265.547 88.0859 265.547 84.3516C265.547 82.7266 265.797 81.2109 266.297 79.8047C266.812 78.3828 267.555 77.0938 268.523 75.9375C269.445 74.8281 270.602 73.9375 271.992 73.2656C273.383 72.5781 274.898 72.2344 276.539 72.2344C278.805 72.2344 280.648 72.7812 282.07 73.875C283.492 74.9531 284.203 76.4297 284.203 78.3047C284.203 79.0859 284.016 79.7812 283.641 80.3906C283.266 80.9844 282.648 81.2812 281.789 81.2812C280.867 81.2812 280.148 81.0469 279.633 80.5781C279.133 80.1094 278.883 79.5859 278.883 79.0078C278.883 78.3047 278.977 77.5859 279.164 76.8516C279.352 76.1016 279.461 75.5547 279.492 75.2109C279.211 74.7266 278.789 74.4062 278.227 74.25C277.68 74.0781 277.086 73.9922 276.445 73.9922C275.695 73.9922 274.977 74.1562 274.289 74.4844C273.617 74.7969 272.961 75.3828 272.32 76.2422C271.742 77.0234 271.273 78.0781 270.914 79.4062C270.555 80.7344 270.375 82.3203 270.375 84.1641C270.375 87.0703 271.016 89.4453 272.297 91.2891C273.594 93.1172 275.289 94.0312 277.383 94.0312C278.898 94.0312 280.164 93.6641 281.18 92.9297C282.211 92.1953 283.164 91.0938 284.039 89.625L285.539 90.6094C284.508 92.4531 283.148 93.9141 281.461 94.9922C279.773 96.0703 278.031 96.6094 276.234 96.6094ZM301.617 94.9922C300.602 95.4141 299.641 95.7656 298.734 96.0469C297.828 96.3438 296.719 96.4922 295.406 96.4922C293.469 96.4922 292.102 96.0078 291.305 95.0391C290.523 94.0547 290.133 92.6719 290.133 90.8906V75.2344H285.961V72.9844H290.227V65.7891H294.492V72.9844H301.125V75.2344H294.539V88.1484C294.539 89.1172 294.57 89.9297 294.633 90.5859C294.711 91.2266 294.883 91.7891 295.148 92.2734C295.398 92.7266 295.773 93.0703 296.273 93.3047C296.773 93.5391 297.445 93.6562 298.289 93.6562C298.68 93.6562 299.25 93.625 300 93.5625C300.766 93.4844 301.305 93.3906 301.617 93.2812V94.9922Z" fill="#87775C"/>
<path d="M428.402 56.0553C419.707 48.6885 422.935 40.1836 422.935 40.1836H408.298C409.036 33.0919 401.343 17.2201 392.16 17.2201H266.673C249.56 -0.640308 221.462 1.01066 220.537 1.06069C219.611 1.11072 191.514 -0.640308 174.4 17.2201H48.913C39.7307 17.2201 32.0371 33.0919 32.7752 40.1836H18.1261C18.1261 40.1836 21.3036 48.6885 12.6718 56.0553C4.03991 63.4222 1 60.8707 1 60.8707V93.7524V110.2C1 110.2 3.97736 107.698 12.6718 115.015C21.3662 122.332 18.1261 130.899 18.1261 130.899H32.7752C32.0371 137.978 39.7307 153.85 48.913 153.85H174.4C191.514 171.71 219.674 170.11 220.537 170.009C221.4 169.909 249.56 171.71 266.673 153.85H392.16C401.343 153.85 409.036 137.978 408.298 130.899H422.935C422.935 130.899 419.707 122.394 428.402 115.015C437.096 107.636 440.073 110.2 440.073 110.2V60.8707C440.073 60.8707 437.084 63.4222 428.402 56.0553Z" stroke="#3D4035" stroke-width="1.54" stroke-linecap="round" stroke-linejoin="round"/>
<path d="M223.064 164.231C221.7 164.231 220.9 164.231 220.812 164.231H220.211C220.124 164.231 219.336 164.231 217.972 164.231C211.855 164.231 190.876 163.168 177.815 149.547C177.375 149.07 176.841 148.687 176.248 148.422C175.654 148.158 175.013 148.017 174.363 148.009H48.913C47.0866 148.009 44.8598 146.483 42.7832 143.819C39.443 139.516 37.6416 133.701 37.8542 131.587C38.0409 129.961 37.5928 128.325 36.6033 127.022C36.1533 126.432 35.5744 125.953 34.9109 125.622C34.2475 125.29 33.517 125.114 32.7752 125.108H23.8056C23.5073 122.246 22.6452 119.472 21.2689 116.946C19.8925 114.419 18.0293 112.19 15.7867 110.387C12.9898 107.843 9.7274 105.864 6.17911 104.559V66.5738C9.73227 65.2783 12.9965 63.2981 15.7867 60.7454C18.0298 58.943 19.8934 56.714 21.2698 54.1872C22.6461 51.6604 23.508 48.886 23.8056 46.0243H32.8378C33.5839 46.0132 34.3174 45.8302 34.9813 45.4897C35.6452 45.1491 36.2216 44.6601 36.6658 44.0606C37.6549 42.7518 38.1029 41.1128 37.9168 39.483C37.7041 37.3692 39.5056 31.5533 42.8457 27.2633C44.9224 24.5993 47.1491 23.0609 48.9756 23.0609H174.4C175.049 23.0557 175.691 22.9177 176.284 22.6553C176.878 22.3928 177.412 22.0116 177.853 21.535C190.913 7.90199 211.892 6.83887 218.01 6.83887C219.373 6.83887 220.161 6.83887 220.249 6.83887H220.812C220.9 6.83887 221.7 6.83887 223.064 6.83887C229.181 6.83887 250.16 7.90199 263.221 21.535C263.661 22.0121 264.195 22.3938 264.789 22.6563C265.382 22.9188 266.024 23.0565 266.673 23.0609H392.16C393.974 23.0609 396.214 24.5993 398.278 27.2633C401.63 31.5533 403.432 37.3692 403.207 39.483C403.021 41.1128 403.469 42.7518 404.458 44.0606C404.902 44.6601 405.478 45.1491 406.142 45.4897C406.806 45.8302 407.54 46.0132 408.286 46.0243H417.318C417.617 48.8897 418.483 51.667 419.866 54.1944C421.249 56.7218 423.122 58.9487 425.374 60.7454C428.159 63.2993 431.419 65.2798 434.969 66.5738V104.496C431.424 105.799 428.165 107.779 425.374 110.324C423.118 112.13 421.244 114.368 419.863 116.906C418.482 119.445 417.621 122.233 417.33 125.108H408.298C407.551 125.122 406.817 125.307 406.154 125.649C405.49 125.992 404.914 126.483 404.47 127.084C403.482 128.389 403.034 130.023 403.219 131.649C403.444 133.763 401.643 139.579 398.29 143.882C396.226 146.546 393.987 148.071 392.173 148.071H266.673C266.023 148.078 265.381 148.218 264.787 148.483C264.194 148.747 263.66 149.131 263.221 149.61C250.16 163.168 229.181 164.231 223.064 164.231Z" stroke="#3D4035" stroke-width="1.54" stroke-linecap="round" stroke-linejoin="round"/>
<path d="M113.427 107.711H327.647" stroke="#3D4035" stroke-width="1.51" stroke-linecap="round" stroke-linejoin="round"/>
<path d="M228.968 21.16C228.905 20.2232 228.516 19.338 227.868 18.6586C226.937 17.3634 225.738 16.2841 224.352 15.4942C223.789 15.2066 223.201 15.0064 222.651 14.6812C221.889 14.2288 221.25 13.5978 220.787 12.8427C220.787 12.3549 220.787 12.7176 220.9 12.2423C220.799 12.5675 220.674 10.8415 220.512 11.1417C220.362 10.8415 220.224 12.5675 220.124 12.2423C220.186 12.7176 220.224 12.3549 220.237 12.8427C219.781 13.6033 219.139 14.2359 218.373 14.6812C217.835 15.0064 217.247 15.2066 216.684 15.4942C215.292 16.2804 214.088 17.3602 213.156 18.6586C212.517 19.3443 212.129 20.2259 212.055 21.16C212.077 21.5691 212.17 21.9713 212.33 22.3482C212.418 22.5772 212.531 22.7954 212.668 22.9986C212.836 23.2296 213.059 23.4156 213.317 23.5399C213.574 23.6643 213.858 23.7232 214.144 23.7115C214.721 23.6603 215.255 23.3867 215.633 22.9486C215.875 22.691 216.04 22.3702 216.108 22.023C216.346 20.6472 214.569 20.6472 214.97 21.6728C215.095 21.973 215.358 22.1856 215.145 22.5233C214.993 22.6983 214.782 22.8123 214.552 22.8445C214.322 22.8767 214.089 22.8248 213.894 22.6984C213.637 22.5033 213.449 22.2318 213.356 21.923C213.233 21.5313 213.219 21.1134 213.316 20.7143C213.413 20.3153 213.617 19.9504 213.906 19.6592C214.014 19.5345 214.154 19.4426 214.311 19.394C214.468 19.3453 214.636 19.3419 214.795 19.384C215.082 19.4841 215.308 19.8092 215.62 19.7967C215.933 19.7842 216.083 19.5466 216.208 19.2714C216.298 18.9934 216.407 18.7218 216.534 18.4585C216.7 18.2195 216.945 18.0462 217.226 17.9685C217.507 17.8909 217.806 17.9138 218.072 18.0332C218.34 18.189 218.574 18.3964 218.761 18.6433C218.948 18.8902 219.083 19.1717 219.161 19.4715C219.222 19.7255 219.298 19.976 219.386 20.222C219.594 20.7114 219.921 21.1412 220.337 21.4727C220.361 21.5078 220.396 21.5341 220.437 21.5478H220.549C220.59 21.5341 220.625 21.5078 220.649 21.4727C221.066 21.1388 221.396 20.7099 221.613 20.222C221.7 19.9843 221.75 19.7217 221.838 19.4715C221.915 19.1717 222.051 18.8902 222.238 18.6433C222.425 18.3964 222.659 18.189 222.926 18.0332C223.192 17.9138 223.491 17.8909 223.772 17.9685C224.053 18.0462 224.298 18.2195 224.465 18.4585C224.602 18.7086 224.665 19.0088 224.79 19.2714C224.915 19.5341 225.115 19.7967 225.378 19.7967C225.641 19.7967 225.916 19.4841 226.204 19.384C226.363 19.3433 226.53 19.3475 226.687 19.3961C226.844 19.4447 226.984 19.5357 227.092 19.6592C227.394 19.9424 227.613 20.3036 227.723 20.7031C227.834 21.1025 227.832 21.5246 227.717 21.923C227.633 22.2359 227.443 22.5099 227.18 22.6984C226.985 22.8248 226.751 22.8767 226.521 22.8445C226.291 22.8123 226.081 22.6983 225.929 22.5233C225.728 22.1856 225.991 21.973 226.104 21.6728C226.504 20.6472 224.728 20.6472 224.965 22.023C225.037 22.3713 225.207 22.6922 225.453 22.9486C225.826 23.387 226.356 23.6611 226.929 23.7115C227.217 23.7242 227.503 23.6658 227.763 23.5414C228.023 23.4171 228.248 23.2306 228.418 22.9986C228.551 22.795 228.66 22.5768 228.743 22.3482C228.892 21.9698 228.969 21.5667 228.968 21.16ZM220.512 18.6586C220.333 18.4032 220.213 18.1119 220.159 17.8051C220.105 17.4983 220.119 17.1835 220.199 16.8825C220.281 16.7144 220.386 16.5586 220.512 16.4198C220.645 16.5549 220.755 16.7113 220.837 16.8825C220.916 17.1795 220.929 17.4902 220.875 17.7928C220.821 18.0953 220.701 18.3823 220.524 18.6336L220.512 18.6586Z" fill="#3D4035"/>
<path d="M235.624 28.5638C235.459 28.2872 235.234 28.0512 234.965 27.8737C234.697 27.6961 234.392 27.5814 234.072 27.5382C231.832 26.9632 229.54 26.6154 227.23 26.5001C226.084 26.5802 224.943 26.3004 223.964 25.6996C223.598 25.3911 223.266 25.0429 222.976 24.6615C222.176 23.6484 221.362 22.6354 220.549 21.6348L218.11 24.6615C217.828 25.0456 217.5 25.3942 217.134 25.6996C216.156 26.3004 215.014 26.5802 213.869 26.5001C211.558 26.6125 209.264 26.9646 207.026 27.5507C206.707 27.5889 206.401 27.7002 206.132 27.8759C205.863 28.0516 205.638 28.287 205.475 28.5638C205.389 28.7827 205.35 29.0172 205.361 29.2521C205.372 29.487 205.432 29.717 205.537 29.9271C205.738 30.3243 206.063 30.645 206.463 30.8401C206.865 31.0535 207.317 31.1534 207.771 31.1292C208.225 31.1049 208.664 30.9575 209.04 30.7026L208.74 32.0283C208.715 32.1564 208.715 32.288 208.74 32.4161C208.772 32.5401 208.838 32.6527 208.931 32.7411C209.024 32.8295 209.14 32.8902 209.265 32.9164C210.779 33.4042 212.268 31.8032 213.844 31.8908C213.053 32.5989 212.465 33.5058 212.143 34.5173C212.093 34.7312 212.093 34.9537 212.143 35.1677C212.189 35.3294 212.275 35.477 212.393 35.5971C212.511 35.7172 212.657 35.806 212.818 35.8556C213.128 35.9116 213.446 35.9116 213.756 35.8556C213.47 36.8698 213.541 37.9515 213.957 38.9199C214.337 39.8367 215.066 40.5653 215.983 40.9461C216.523 41.1841 217.128 41.2287 217.697 41.0724C218.266 40.9161 218.764 40.5684 219.107 40.0879C219.449 39.6075 219.615 39.0237 219.577 38.435C219.539 37.8462 219.299 37.2886 218.898 36.8562C218.576 36.5726 218.174 36.3975 217.747 36.3559C217.504 36.3041 217.25 36.3412 217.032 36.4606C216.814 36.5799 216.646 36.7736 216.559 37.0063C216.52 37.1713 216.536 37.3445 216.603 37.4999C216.671 37.6554 216.787 37.7849 216.934 37.8693C216.996 37.9083 217.066 37.9339 217.139 37.9443C217.212 37.9548 217.286 37.9498 217.356 37.9298C217.427 37.9097 217.493 37.8751 217.549 37.828C217.606 37.781 217.652 37.7226 217.684 37.6566C217.684 37.6566 218.222 37.9568 218.185 38.282C218.164 38.434 218.111 38.5797 218.029 38.7092C217.947 38.8388 217.838 38.949 217.709 39.0324C217.348 39.2844 216.903 39.3873 216.467 39.3198C216.031 39.2522 215.639 39.0194 215.37 38.6697C215.086 38.2833 214.924 37.8212 214.904 37.3423C214.884 36.8634 215.007 36.3894 215.258 35.9807C215.598 35.5349 216.023 35.1608 216.509 34.88C218.112 33.9641 219.373 32.5501 220.099 30.8527C220.241 30.5449 220.315 30.2099 220.315 29.8708C220.315 29.5318 220.241 29.1968 220.099 28.889C219.624 29.2642 219.011 29.6645 218.498 29.3518C218.294 29.169 218.132 28.9451 218.022 28.695C217.912 28.4449 217.857 28.1742 217.86 27.9009C217.828 27.7483 217.828 27.5908 217.86 27.4382C217.917 27.2947 218.007 27.1663 218.122 27.0629C218.935 26.225 219.774 25.437 220.624 24.6865C221.487 25.437 222.338 26.225 223.126 27.0629C223.241 27.1636 223.328 27.2931 223.376 27.4382C223.408 27.5908 223.408 27.7483 223.376 27.9009C223.289 28.4638 223.176 29.1517 222.738 29.3518C222.301 29.5519 221.613 29.2642 221.137 28.889C220.991 29.1958 220.916 29.5312 220.916 29.8708C220.916 30.2105 220.991 30.5459 221.137 30.8527C221.863 32.5467 223.118 33.9599 224.715 34.88C225.2 35.1616 225.625 35.5356 225.966 35.9807C226.216 36.3894 226.339 36.8634 226.319 37.3423C226.299 37.8212 226.137 38.2833 225.853 38.6697C225.585 39.0194 225.192 39.2522 224.756 39.3198C224.321 39.3873 223.876 39.2844 223.514 39.0324C223.384 38.9497 223.273 38.8399 223.188 38.7104C223.104 38.5809 223.049 38.4348 223.026 38.282C223.026 37.9568 223.539 37.6566 223.539 37.6566C223.57 37.724 223.615 37.7839 223.672 37.8321C223.728 37.8803 223.794 37.9158 223.865 37.936C223.937 37.9562 224.012 37.9607 224.085 37.9492C224.158 37.9376 224.228 37.9104 224.29 37.8693C224.437 37.7861 224.553 37.6562 224.619 37.4999C224.685 37.3437 224.697 37.17 224.653 37.0063C224.565 36.7736 224.397 36.5799 224.179 36.4606C223.961 36.3412 223.707 36.3041 223.464 36.3559C223.041 36.3976 222.642 36.5728 222.326 36.8562C221.909 37.2838 221.654 37.8434 221.606 38.4385C221.558 39.0337 221.719 39.627 222.061 40.1162C222.404 40.6054 222.906 40.9597 223.482 41.118C224.058 41.2764 224.671 41.2288 225.215 40.9836C226.129 40.5972 226.856 39.8704 227.242 38.9574C227.654 37.9875 227.72 36.9059 227.43 35.8931C227.74 35.9494 228.058 35.9494 228.368 35.8931C228.531 35.8479 228.679 35.7605 228.798 35.6397C228.917 35.519 229.001 35.3691 229.043 35.2052C229.094 34.9913 229.094 34.7687 229.043 34.5548C228.721 33.5433 228.133 32.6365 227.342 31.9283C228.918 31.8407 230.407 33.4417 231.921 32.9539C232.045 32.9251 232.159 32.8635 232.252 32.7755C232.344 32.6875 232.411 32.5764 232.446 32.4536C232.465 32.325 232.465 32.1944 232.446 32.0659L232.146 30.7401C232.522 30.995 232.961 31.1425 233.415 31.1667C233.869 31.1909 234.321 31.091 234.723 30.8777C235.12 30.6788 235.444 30.3592 235.649 29.9646C235.746 29.7432 235.794 29.5033 235.79 29.2615C235.785 29.0197 235.729 28.7817 235.624 28.5638ZM216.033 27.7634C215.621 28.1488 215.24 28.5671 214.895 29.0141C214.494 29.4143 214.082 29.777 213.644 30.1522C213.018 30.7841 212.244 31.2486 211.392 31.503L211.505 30.7026C211.517 30.6533 211.517 30.6018 211.505 30.5525C211.475 30.5063 211.431 30.4712 211.379 30.4524C210.975 30.3229 210.553 30.2596 210.128 30.2648C209.907 30.2632 209.689 30.2144 209.489 30.1217C209.288 30.0289 209.109 29.8943 208.965 29.727C209.443 29.5819 209.943 29.5227 210.441 29.5519C212.433 29.4728 214.365 28.8546 216.033 27.7634ZM218.535 30.8777C217.709 31.7282 217.122 32.8038 216.233 33.6168C215.946 33.8669 215.408 34.4923 214.982 34.4923C214.557 34.4923 214.607 33.9044 214.982 33.6168L215.72 33.0289C216.702 32.3928 217.627 31.673 218.485 30.8777H218.535ZM225.153 33.0289L225.891 33.6168C226.216 33.9044 226.391 34.4923 225.891 34.4923C225.391 34.4923 224.965 33.8669 224.64 33.6168C223.752 32.8038 223.151 31.7282 222.338 30.8777C223.196 31.673 224.121 32.3928 225.103 33.0289H225.153ZM231.871 29.677C231.726 29.8443 231.548 29.9789 231.347 30.0716C231.147 30.1644 230.928 30.2132 230.707 30.2148C230.283 30.2117 229.861 30.275 229.456 30.4024C229.456 30.4024 229.356 30.4024 229.344 30.5025C229.325 30.5508 229.325 30.6042 229.344 30.6525L229.456 31.453C228.56 31.1997 227.745 30.7169 227.092 30.0522C226.679 29.677 226.254 29.3143 225.841 28.914C225.504 28.4642 225.127 28.0456 224.715 27.6633C226.394 28.743 228.336 29.3441 230.332 29.4018C230.841 29.4032 231.345 29.4965 231.821 29.677H231.871Z" fill="#3D4035"/>
<path d="M402.744 85.1598C411.232 84.3971 419.64 82.9117 427.876 80.7197C424.528 83.7475 420.395 85.7701 415.949 86.5555C411.504 87.3409 406.927 86.8571 402.744 85.1598Z" fill="#3D4035"/>
<path d="M402.694 84.2723H402.619C402.619 84.2723 404.07 78.8816 414.291 76.7679C419.707 75.6297 428.051 79.7321 428.051 79.7321C427.993 79.7821 427.939 79.8365 427.889 79.8947C419.629 82.0599 411.2 83.5243 402.694 84.2723Z" fill="#3D4035"/>
<path d="M397.114 73.8284C397.158 73.8317 397.199 73.8476 397.234 73.8741C397.269 73.9006 397.295 73.9365 397.309 73.9775C397.324 74.0186 397.326 74.0629 397.316 74.1053C397.306 74.1476 397.284 74.1861 397.252 74.2161C384.687 82.6615 369.414 86.0932 354.443 83.8342C354.386 83.8279 354.333 83.7997 354.295 83.7554C354.258 83.7112 354.239 83.6543 354.243 83.5966C354.242 83.5687 354.247 83.5409 354.259 83.5156C354.271 83.4903 354.288 83.4681 354.31 83.451C354.332 83.4339 354.358 83.4222 354.386 83.4171C354.413 83.412 354.441 83.4135 354.468 83.4215C369.354 85.6504 384.534 82.2088 397.002 73.7783C397.044 73.7808 397.084 73.7986 397.114 73.8284Z" fill="#3D4035"/>
<path d="M386.356 88.5866C386.356 88.5866 391.36 86.4854 392.123 81.645L392.936 76.8047C390.784 77.8866 388.859 79.3729 387.269 81.1822C385.13 83.8338 386.356 88.5866 386.356 88.5866Z" fill="#3D4035"/>
<path d="M372.407 74.8659C372.407 74.8659 376.048 79.4186 381.164 79.6187L386.243 79.8313C384.481 77.8462 382.412 76.1571 380.113 74.8284C376.736 73.1274 372.407 74.8659 372.407 74.8659Z" fill="#3D4035"/>
<path d="M343.547 80.4446C343.547 80.4446 347.6 84.6471 352.629 84.3469L357.633 84.0342C355.691 82.2467 353.479 80.7777 351.078 79.6817C347.625 78.2558 343.547 80.4446 343.547 80.4446Z" fill="#3D4035"/>
<path d="M355.694 77.9427C355.694 77.9427 357.571 82.1452 361.248 83.1833L364.926 84.2089C363.992 82.3585 362.767 80.6695 361.298 79.2059C359.159 77.3048 355.694 77.9427 355.694 77.9427Z" fill="#3D4035"/>
<path d="M385.793 71.1768C387.995 70.9886 390.181 71.6813 391.873 73.1029L394.375 75.4543C392.71 75.5431 391.043 75.3443 389.446 74.8665C387.157 74.1035 385.793 71.1768 385.793 71.1768Z" fill="#3D4035"/>
<path d="M367.178 78.3809C369.38 78.1927 371.566 78.8854 373.258 80.3071L375.76 82.6584C374.095 82.7472 372.428 82.5484 370.831 82.0706C368.542 81.3327 367.178 78.3809 367.178 78.3809Z" fill="#3D4035"/>
<path d="M375.685 89.075C375.685 89.075 376.06 84.81 379.438 83.059L382.841 81.333C382.558 83.2118 381.921 85.0198 380.964 86.6611C379.45 88.8374 375.685 89.075 375.685 89.075Z" fill="#3D4035"/>
<path d="M362.825 90.4504C362.825 90.4504 363.738 86.3354 367.328 85.0847L370.906 83.834C370.403 85.6474 369.553 87.3463 368.404 88.8369C366.578 90.7255 362.825 90.4504 362.825 90.4504Z" fill="#3D4035"/>
<path d="M409.111 81.9952C409.261 81.9885 409.407 81.9465 409.538 81.8726C409.668 81.7987 409.779 81.6949 409.862 81.5699C409.918 81.4235 409.928 81.2633 409.89 81.1111C409.852 80.9589 409.768 80.8221 409.649 80.7194C409.412 80.5289 409.134 80.3962 408.836 80.3317C408.017 80.1098 407.18 79.9592 406.334 79.8814C405.784 79.8814 405.083 79.7438 404.896 79.2185C405.609 79.8939 406.747 79.4312 407.585 78.9184C409.111 78.0053 410.638 77.5801 410.8 74.6784C408.361 74.003 406.609 76.4294 404.107 76.7046C404.142 75.696 404.552 74.7367 405.258 74.0155C405.814 73.2115 406.268 72.3419 406.609 71.4265C406.712 71.2341 406.766 71.0193 406.766 70.8011C406.766 70.5829 406.712 70.3681 406.609 70.1758C406.272 69.7505 405.621 69.9006 405.146 70.1758C404.228 70.7231 403.461 71.4918 402.917 72.4117C402.373 73.3316 402.068 74.3733 402.031 75.4413C402.031 76.6921 401.843 77.6926 401.693 78.8558C401.543 80.019 402.018 80.3067 402.944 80.6444C404.745 81.3323 407.01 82.3579 409.111 81.9952Z" fill="#3D4035"/>
<path d="M400.742 72.0145C401.019 70.7813 401.675 69.6659 402.619 68.8251C402.982 68.5625 403.52 68.3749 403.87 68.6876C404.22 69.0002 404.057 69.5631 403.87 69.9383L402.856 72.8525C403.932 71.4767 405.183 70.0008 406.872 69.8257C407.177 69.7781 407.489 69.8449 407.748 70.0133C407.897 70.1502 408.007 70.3244 408.066 70.5178C408.126 70.7113 408.132 70.9171 408.086 71.114C407.986 71.5032 407.802 71.866 407.548 72.1771C406.909 73.0639 406.175 73.8776 405.358 74.6035C405.751 74.1156 406.236 73.7098 406.785 73.4094C407.335 73.1089 407.938 72.9197 408.561 72.8525C408.876 72.8089 409.198 72.8566 409.487 72.9901C409.634 73.0668 409.753 73.1879 409.827 73.3361C409.901 73.4843 409.926 73.652 409.9 73.8156C409.82 74.0257 409.681 74.2081 409.499 74.3409C408.491 75.2237 407.346 75.9375 406.109 76.4546C406.77 76.0645 407.504 75.8144 408.266 75.7198C409.028 75.6251 409.801 75.6879 410.538 75.9043C410.516 76.1851 410.429 76.457 410.284 76.6981C410.138 76.9392 409.938 77.1428 409.699 77.2926C409.229 77.5695 408.712 77.7561 408.173 77.8429C406.918 78.1196 405.642 78.2911 404.358 78.3557C403.112 78.5887 401.83 78.5417 400.605 78.2181C399.104 77.4427 400.354 73.2652 400.742 72.0145Z" fill="#3D4035"/>
<path d="M401.605 80.2073C401.142 80.2206 400.692 80.0497 400.354 79.732C400.168 79.4986 400.039 79.2243 399.979 78.9315C399.801 78.1263 399.844 77.2878 400.104 76.5051C400.104 76.3425 400.292 76.1549 400.442 76.2299C400.592 76.305 400.517 76.3175 400.555 76.38C400.68 76.6302 400.805 76.8803 400.917 77.1305C401.18 77.1305 401.38 76.7052 401.605 76.8303C401.686 76.9018 401.739 76.9991 401.756 77.1054C401.824 77.4859 401.824 77.8756 401.756 78.2561C402.26 78.4204 402.803 78.4204 403.307 78.2561C403.259 78.6074 403.096 78.9329 402.844 79.1817C403.276 79.2 403.701 79.302 404.095 79.4818C404.183 79.4818 404.27 79.5819 404.27 79.6694C404.258 80.3699 401.893 80.2323 401.605 80.2073Z" fill="#3D4035"/>
<path d="M398.941 85.1476C398.878 85.625 398.878 86.1085 398.941 86.5859C398.816 86.5859 398.778 86.4233 398.778 86.2858C398.68 84.536 398.914 82.7834 399.466 81.1202C399.611 80.7176 399.783 80.3249 399.979 79.9446C400.079 79.7444 400.467 79.2191 400.392 79.7945C400.262 80.2088 400.085 80.6074 399.867 80.9827C399.704 81.4079 399.554 81.8457 399.429 82.2334C399.176 83.1876 399.013 84.1632 398.941 85.1476Z" fill="#3D4035"/>
<path d="M397.277 97.0289H397.164C395.192 97.2516 393.323 98.0278 391.773 99.2677C390.882 99.9674 390.116 100.813 389.508 101.769C390.345 102.081 391.213 102.299 392.098 102.42C392.166 103.301 391.941 104.18 391.46 104.921L393.749 105.146C393.524 106.007 393.219 106.844 392.836 107.648C394.682 107.261 396.412 106.449 397.888 105.277C399.365 104.104 400.548 102.603 401.343 100.894C401.705 100.199 401.885 99.425 401.868 98.6423H401.981C402.068 98.6545 402.156 98.6545 402.243 98.6423C401.98 99.004 401.852 99.4465 401.881 99.893C401.881 100.881 401.756 101.869 401.881 102.882C402.083 104.915 402.821 106.857 404.02 108.511C404.689 109.426 405.505 110.225 406.434 110.874C406.736 109.997 406.95 109.092 407.072 108.173C407.939 108.086 408.808 108.322 409.512 108.836C409.587 108.135 409.649 107.16 409.724 106.447C410.561 106.687 411.374 107.006 412.151 107.397C411.817 105.524 411.06 103.751 409.937 102.214C408.814 100.678 407.355 99.4175 405.671 98.5297L405.509 98.4422C406.254 98.6663 407.015 98.8336 407.785 98.9425C409.753 99.1384 411.736 98.7696 413.502 97.8794C414.507 97.3702 415.42 96.6982 416.205 95.8907C415.445 95.3916 414.636 94.9724 413.79 94.64C413.874 93.75 414.268 92.9177 414.904 92.2886C414.253 92.0635 413.352 91.8008 412.702 91.5882C413.089 90.7843 413.549 90.0181 414.078 89.2994C411.301 89.2758 408.606 90.2375 406.472 92.0134C407.496 90.4737 408.135 88.7108 408.336 86.8729C408.469 85.7211 408.414 84.5551 408.173 83.4209C407.371 83.8389 406.616 84.3421 405.921 84.9218C405.24 84.3427 404.777 83.5485 404.608 82.6705C404.082 83.1207 403.357 83.7711 402.869 84.2339C402.42 83.4354 402.043 82.5982 401.743 81.7324C400.166 84.2928 399.521 87.319 399.917 90.2999C398.541 88.1071 396.504 86.4079 394.1 85.4471C394.321 86.321 394.468 87.2123 394.537 88.1112C393.862 88.1112 392.924 87.9486 392.248 87.886C392.599 88.7172 392.661 89.6421 392.423 90.5126C391.532 90.4682 390.639 90.5185 389.759 90.6626C390.185 91.7256 390.786 92.7104 391.535 93.5769C392.836 95.0954 394.534 96.2215 396.439 96.8288C396.714 96.913 396.994 96.9798 397.277 97.0289ZM404.145 98.2046H404.032H404.145Z" fill="#8B6841" stroke="#FCD7A1" stroke-width="0.54" stroke-linecap="round" stroke-linejoin="round"/>
<path d="M399.103 95.0907C398.916 96.0051 399.094 96.9565 399.599 97.7417C400.104 98.5268 400.896 99.0836 401.806 99.2931C402.257 99.3793 402.721 99.3741 403.171 99.2779C403.621 99.1816 404.046 98.9963 404.423 98.7328C404.8 98.4693 405.12 98.133 405.364 97.7437C405.609 97.3544 405.773 96.9201 405.846 96.4665C406.033 95.5502 405.853 94.5973 405.346 93.8119C404.839 93.0264 404.044 92.4708 403.132 92.264C402.681 92.1779 402.217 92.1832 401.769 92.2796C401.32 92.3759 400.895 92.5615 400.519 92.8251C400.144 93.0887 399.825 93.4251 399.582 93.8143C399.338 94.2034 399.176 94.6375 399.103 95.0907Z" fill="#FCD7A1"/>
<path d="M406.297 87.0733L406.722 85.585H406.835L406.397 87.0608C406.369 87.2622 406.298 87.455 406.188 87.6257C406.077 87.7965 405.931 87.9409 405.759 88.0489V87.9489C406.047 87.8488 406.184 87.436 406.297 87.0733Z" fill="#74302E" stroke="#3D4035" stroke-width="0.5" stroke-miterlimit="10"/>
<path d="M404.996 85.1719C404.77 85.9501 404.498 86.7143 404.183 87.4607H404.07C404.391 86.7207 404.663 85.9603 404.883 85.1844L404.996 85.1719Z" fill="#74302E" stroke="#3D4035" stroke-width="0.5" stroke-miterlimit="10"/>
<path d="M402.756 84.7475C402.511 85.826 402.452 86.9385 402.581 88.0369H402.469C402.339 86.926 402.398 85.8012 402.644 84.71L402.756 84.7475Z" fill="#74302E" stroke="#3D4035" stroke-width="0.5" stroke-miterlimit="10"/>
<path d="M409.362 92.8394V92.952C409.344 92.9466 409.328 92.937 409.315 92.9239C409.302 92.9108 409.292 92.8947 409.287 92.8769C409.277 92.8576 409.272 92.8361 409.272 92.8144C409.272 92.7927 409.277 92.7712 409.287 92.7519C409.326 92.7103 409.38 92.6838 409.437 92.6768C410.211 92.5222 410.96 92.2612 411.663 91.9014V92.0014C410.947 92.3638 410.186 92.6288 409.399 92.7894C409.399 92.7894 409.374 92.8144 409.362 92.8394Z" fill="#74302E" stroke="#3D4035" stroke-width="0.5" stroke-miterlimit="10"/>
<path d="M410.362 93.9896H410.262C410.244 93.9412 410.244 93.8879 410.262 93.8395C410.305 93.7451 410.381 93.6695 410.475 93.6269L412.076 92.7764V92.8889L410.488 93.8395C410.434 93.878 410.391 93.9297 410.362 93.9896Z" fill="#74302E" stroke="#3D4035" stroke-width="0.5" stroke-miterlimit="10"/>
<path d="M411.213 95.3288L412.814 94.916V95.0286L411.213 95.4288C411.145 95.4449 411.081 95.4747 411.025 95.5164C411.018 95.5451 411.018 95.5752 411.025 95.6039L410.95 95.6915C410.942 95.6717 410.938 95.6504 410.938 95.6289C410.938 95.6075 410.942 95.5862 410.95 95.5664C410.952 95.5029 410.974 95.4416 411.013 95.3913C411.074 95.3562 411.143 95.3349 411.213 95.3288Z" fill="#74302E" stroke="#3D4035" stroke-width="0.5" stroke-miterlimit="10"/>
<path d="M407.222 104.009L408.561 105.51C408.649 105.622 408.761 105.735 408.886 105.722V105.835H408.811C408.674 105.791 408.555 105.703 408.473 105.585L407.147 104.084L407.222 104.009Z" fill="#74302E" stroke="#3D4035" stroke-width="0.5" stroke-miterlimit="10"/>
<path d="M406.609 105.284H406.709C406.987 105.786 407.318 106.256 407.698 106.685L407.623 106.773C407.232 106.315 406.892 105.816 406.609 105.284Z" fill="#74302E" stroke="#3D4035" stroke-width="0.5" stroke-miterlimit="10"/>
<path d="M406.447 107.673H406.347C405.968 106.704 405.512 105.767 404.983 104.871H405.083C405.611 105.767 406.067 106.704 406.447 107.673Z" fill="#74302E" stroke="#3D4035" stroke-width="0.5" stroke-miterlimit="10"/>
<path d="M396.114 103.346C395.198 103.832 394.259 104.27 393.299 104.659V104.547C394.256 104.183 395.191 103.766 396.101 103.296L396.114 103.346Z" fill="#74302E" stroke="#3D4035" stroke-width="0.5" stroke-miterlimit="10"/>
<path d="M395.35 101.995C394.739 102.403 394.1 102.766 393.436 103.083V102.983C394.096 102.666 394.731 102.303 395.338 101.895L395.35 101.995Z" fill="#74302E" stroke="#3D4035" stroke-width="0.5" stroke-miterlimit="10"/>
<path d="M394.325 100.981L394.387 101.082C393.862 101.457 393.311 101.832 392.761 102.17L392.698 102.082C393.249 101.732 393.799 101.344 394.325 100.981Z" fill="#74302E" stroke="#3D4035" stroke-width="0.5" stroke-miterlimit="10"/>
<path d="M393.361 91.1762C393.46 91.6302 393.656 92.0571 393.937 92.4269C394.048 92.5889 394.212 92.708 394.4 92.7646V92.8772C394.182 92.8193 393.994 92.6807 393.874 92.4895C393.57 92.0934 393.364 91.6303 393.274 91.1387L393.361 91.1762Z" fill="#74302E" stroke="#3D4035" stroke-width="0.5" stroke-miterlimit="10"/>
<path d="M395.35 91.3384C395.014 91.0544 394.704 90.7404 394.425 90.4004C394.333 90.3196 394.26 90.2192 394.213 90.1066C394.165 89.994 394.144 89.8721 394.15 89.75H394.262C394.263 89.853 394.284 89.9549 394.325 90.0495C394.365 90.1441 394.425 90.2294 394.5 90.3003C394.747 90.6749 395.032 91.0228 395.35 91.3384Z" fill="#74302E" stroke="#3D4035" stroke-width="0.5" stroke-miterlimit="10"/>
<path d="M395.526 88.5742H395.638C395.717 89.0864 395.959 89.5598 396.326 89.925L396.251 90.0126C395.857 89.6262 395.602 89.1205 395.526 88.5742Z" fill="#74302E" stroke="#3D4035" stroke-width="0.5" stroke-miterlimit="10"/>
<path d="M400.442 94.5401C400.498 94.5548 400.547 94.5897 400.58 94.6381C400.612 94.6865 400.625 94.7451 400.617 94.8027L401.543 95.2155C401.657 95.0479 401.818 94.9174 402.006 94.8403L401.706 93.7521C401.665 93.7562 401.624 93.7475 401.588 93.7274C401.552 93.7073 401.523 93.6766 401.505 93.6395C401.48 93.5855 401.475 93.5244 401.492 93.4671C401.508 93.4098 401.544 93.36 401.593 93.3269C401.646 93.3007 401.707 93.2965 401.764 93.3153C401.82 93.334 401.866 93.3741 401.893 93.4269C401.917 93.4791 401.922 93.5382 401.906 93.5934C401.89 93.6486 401.854 93.6961 401.806 93.7271L402.106 94.8152C402.274 94.7713 402.451 94.7713 402.619 94.8152C402.782 94.8534 402.935 94.9284 403.065 95.0346C403.195 95.1409 403.299 95.2755 403.369 95.4281V95.3405L404.433 95.0154C404.429 94.9729 404.438 94.9304 404.458 94.8927C404.478 94.8551 404.508 94.8239 404.545 94.8027C404.571 94.79 404.598 94.7825 404.627 94.7807C404.655 94.7789 404.683 94.7828 404.71 94.7921C404.737 94.8014 404.762 94.816 404.783 94.835C404.804 94.854 404.821 94.8771 404.833 94.9028C404.86 94.9544 404.866 95.0146 404.85 95.0706C404.834 95.1265 404.796 95.174 404.745 95.203C404.721 95.2179 404.694 95.2276 404.666 95.2313C404.638 95.235 404.609 95.2326 404.582 95.2243C404.555 95.216 404.529 95.202 404.508 95.1832C404.487 95.1644 404.469 95.1413 404.458 95.1154L403.407 95.4281C403.508 95.6558 403.538 95.9084 403.494 96.1535L404.395 96.6663C404.429 96.6452 404.468 96.6341 404.508 96.6341C404.548 96.6341 404.587 96.6452 404.62 96.6663C404.674 96.6862 404.718 96.7256 404.744 96.7767C404.769 96.8278 404.774 96.8867 404.758 96.9415C404.751 96.9701 404.738 96.9969 404.72 97.0202C404.702 97.0436 404.679 97.0629 404.653 97.077C404.628 97.0911 404.599 97.0997 404.57 97.1022C404.54 97.1047 404.511 97.1011 404.483 97.0916C404.429 97.0717 404.385 97.0322 404.36 96.9811C404.334 96.9301 404.329 96.8712 404.345 96.8164L403.469 96.3036C403.427 96.4553 403.352 96.5962 403.251 96.717C403.149 96.8377 403.023 96.9355 402.881 97.004L403.219 97.8795C403.261 97.8735 403.303 97.8797 403.341 97.8975C403.378 97.9153 403.41 97.9439 403.432 97.9796C403.448 98.0042 403.46 98.0318 403.466 98.0609C403.471 98.0899 403.471 98.1199 403.466 98.1489C403.46 98.178 403.448 98.2056 403.432 98.2302C403.415 98.2548 403.394 98.2759 403.369 98.2923C403.328 98.3292 403.275 98.3496 403.219 98.3496C403.164 98.3496 403.11 98.3292 403.069 98.2923C403.039 98.2417 403.029 98.1817 403.04 98.1239C403.052 98.0661 403.084 98.0147 403.132 97.9796L402.794 97.1041C402.603 97.1671 402.397 97.1671 402.206 97.1041H402.068L401.656 97.892C401.687 97.9222 401.709 97.9603 401.72 98.0021C401.731 98.044 401.73 98.0881 401.718 98.1297C401.709 98.1568 401.695 98.1818 401.676 98.2034C401.657 98.225 401.634 98.2427 401.609 98.2554C401.583 98.2682 401.556 98.2758 401.527 98.2779C401.499 98.2799 401.47 98.2763 401.443 98.2673C401.416 98.2582 401.391 98.2439 401.369 98.2252C401.347 98.2065 401.33 98.1837 401.317 98.1582C401.304 98.1326 401.297 98.1048 401.295 98.0763C401.293 98.0478 401.296 98.0192 401.305 97.9921C401.312 97.9649 401.325 97.9394 401.342 97.9171C401.359 97.8948 401.381 97.8761 401.405 97.8622C401.43 97.8482 401.457 97.8393 401.485 97.8358C401.512 97.8323 401.541 97.8344 401.568 97.842L401.981 97.0666C401.829 96.995 401.695 96.8905 401.589 96.7606C401.483 96.6308 401.408 96.4789 401.368 96.3161L400.542 96.6663C400.554 96.7083 400.552 96.7529 400.536 96.7936C400.52 96.8342 400.492 96.8686 400.455 96.8915C400.415 96.9312 400.361 96.9535 400.304 96.9535C400.248 96.9535 400.194 96.9312 400.154 96.8915C400.124 96.8409 400.114 96.7808 400.125 96.7231C400.137 96.6653 400.17 96.6139 400.217 96.5788C400.258 96.5418 400.312 96.5214 400.367 96.5214C400.422 96.5214 400.476 96.5418 400.517 96.5788L401.355 96.2286C401.331 96.0879 401.331 95.944 401.355 95.8033C401.384 95.6669 401.435 95.536 401.505 95.4156L400.605 95.0154C400.578 95.0478 400.543 95.0728 400.503 95.0881C400.464 95.1034 400.421 95.1085 400.379 95.1029C400.324 95.0881 400.276 95.0527 400.246 95.0039C400.216 94.955 400.205 94.8965 400.217 94.8403C400.195 94.8059 400.184 94.7656 400.185 94.7248C400.187 94.684 400.201 94.6446 400.225 94.6119C400.25 94.5792 400.283 94.5548 400.322 94.542C400.361 94.5291 400.403 94.5285 400.442 94.5401Z" fill="#3D4035"/>
<path d="M403.407 93.8404L402.982 94.891H402.894L403.319 93.8404C403.287 93.8133 403.262 93.7784 403.247 93.7391C403.231 93.6997 403.226 93.6571 403.232 93.6152C403.236 93.5858 403.247 93.5576 403.262 93.5325C403.278 93.5073 403.299 93.4858 403.324 93.4693C403.349 93.4528 403.377 93.4417 403.406 93.4367C403.436 93.4316 403.466 93.4328 403.494 93.4401C403.55 93.4549 403.598 93.4903 403.628 93.5392C403.658 93.588 403.669 93.6465 403.657 93.7028C403.638 93.7511 403.602 93.7912 403.557 93.8163C403.511 93.8414 403.458 93.8499 403.407 93.8404Z" fill="#3D4035"/>
<path d="M383.991 86.6108H383.904C382.131 87.5646 380.655 88.9884 379.638 90.7257C379.053 91.7197 378.631 92.8006 378.387 93.9276C379.282 93.9053 380.171 93.7836 381.039 93.5649C381.422 94.3807 381.519 95.3014 381.314 96.1789C381.977 96.0038 382.866 95.7162 383.529 95.5285C383.61 96.4272 383.61 97.3314 383.529 98.2301C385.117 97.1695 386.445 95.7636 387.413 94.1175C388.382 92.4715 388.965 90.6279 389.121 88.7246C389.223 87.9496 389.124 87.1613 388.833 86.4357H388.958H389.208C389.086 86.8801 389.122 87.3527 389.308 87.774C389.684 88.6871 389.896 89.6626 390.334 90.5631C391.22 92.3804 392.587 93.9204 394.287 95.0158C395.227 95.6096 396.265 96.033 397.352 96.2665C397.333 95.3353 397.216 94.4088 397.002 93.5024C397.774 93.1076 398.662 93.0054 399.504 93.2147C399.329 92.5268 399.053 91.5887 398.878 90.9008C399.739 90.8133 400.607 90.8133 401.468 90.9008C400.511 89.2948 399.193 87.9332 397.619 86.9239C396.045 85.9145 394.257 85.2849 392.398 85.0849H392.223C392.999 85.0106 393.768 84.881 394.525 84.6972C396.452 84.135 398.184 83.0481 399.529 81.5579C400.294 80.7054 400.915 79.7337 401.368 78.6812C400.49 78.5142 399.596 78.4471 398.703 78.4811C398.474 77.6057 398.554 76.6782 398.928 75.8545C398.253 75.8545 397.315 75.9921 396.626 76.0296C396.716 75.1329 396.883 74.2457 397.127 73.3781C394.515 74.4178 392.341 76.326 390.972 78.7813C391.404 76.9722 391.404 75.0871 390.972 73.278C390.677 72.1393 390.195 71.0573 389.546 70.0762C388.936 70.7619 388.403 71.5127 387.957 72.315C387.116 72.0375 386.405 71.4641 385.956 70.7015C385.618 71.3269 385.192 72.2024 384.867 72.8278C384.183 72.2645 383.551 71.6408 382.978 70.9642C382.387 73.9154 382.829 76.98 384.229 79.6443C382.179 77.9814 379.626 77.0602 376.986 77.0302C377.491 77.7636 377.935 78.5375 378.312 79.3441C377.661 79.5442 376.748 79.7944 376.098 80.007C376.723 80.6493 377.103 81.49 377.174 82.3834C376.301 82.6717 375.462 83.0533 374.672 83.5215C375.438 84.3506 376.339 85.0442 377.336 85.5727C379.087 86.4994 381.066 86.9073 383.041 86.7484C383.416 86.7109 383.704 86.6609 383.991 86.6108ZM390.809 85.0849H390.697H390.809Z" fill="#8B6841" stroke="#FCD7A1" stroke-width="0.54" stroke-linecap="round" stroke-linejoin="round"/>
<path d="M385.042 84.0841C385.109 84.545 385.267 84.9877 385.509 85.3856C385.751 85.7835 386.071 86.1283 386.45 86.3994C386.828 86.6705 387.258 86.8622 387.713 86.963C388.167 87.0637 388.638 87.0715 389.096 86.9858C390.01 86.7955 390.814 86.2538 391.333 85.4773C391.853 84.7007 392.046 83.7513 391.873 82.8333C391.808 82.3742 391.651 81.933 391.411 81.5361C391.171 81.1392 390.854 80.7949 390.477 80.5239C390.101 80.2528 389.674 80.0607 389.221 79.9589C388.769 79.8571 388.301 79.8478 387.845 79.9316C386.927 80.1192 386.119 80.6592 385.595 81.4356C385.071 82.212 384.873 83.1629 385.042 84.0841Z" fill="#FCD7A1"/>
<path d="M388.97 73.9161L388.858 72.3652H388.97L389.071 73.9036C389.114 74.1041 389.114 74.3117 389.071 74.5123C389.028 74.7129 388.943 74.902 388.82 75.0668L388.745 74.9918C388.853 74.8366 388.928 74.6615 388.967 74.4767C389.005 74.292 389.007 74.1014 388.97 73.9161Z" fill="white" stroke="#3D4035" stroke-width="0.5" stroke-linecap="round" stroke-linejoin="round"/>
<path d="M387.094 72.5771C387.14 73.4103 387.14 74.2454 387.094 75.0786H386.981C387.034 74.2456 387.034 73.4101 386.981 72.5771H387.094Z" fill="white" stroke="#3D4035" stroke-width="0.5" stroke-linecap="round" stroke-linejoin="round"/>
<path d="M384.867 73.0903C385.007 74.1816 385.337 75.24 385.843 76.2171H385.743C385.233 75.2274 384.898 74.1568 384.755 73.0527L384.867 73.0903Z" fill="white" stroke="#3D4035" stroke-width="0.5" stroke-linecap="round" stroke-linejoin="round"/>
<path d="M393.812 78.1434V78.2559C393.812 78.2559 393.812 78.2559 393.724 78.2559C393.715 78.2363 393.711 78.215 393.711 78.1934C393.711 78.1718 393.715 78.1505 393.724 78.1309C393.748 78.0784 393.787 78.0347 393.837 78.0058C394.506 77.5644 395.115 77.0389 395.651 76.4424L395.726 76.5174C395.191 77.1314 394.572 77.6663 393.887 78.1058C393.887 78.1058 393.824 78.1184 393.812 78.1434Z" fill="white" stroke="#3D4035" stroke-width="0.5" stroke-linecap="round" stroke-linejoin="round"/>
<path d="M395.125 78.8309L395.05 78.9184C395.041 78.8988 395.037 78.8775 395.037 78.8559C395.037 78.8343 395.041 78.813 395.05 78.7934C395.052 78.6847 395.097 78.5814 395.175 78.5057L396.426 77.1299L396.514 77.2049L395.263 78.5932C395.22 78.6163 395.185 78.6507 395.161 78.6927C395.136 78.7346 395.124 78.7824 395.125 78.8309Z" fill="white" stroke="#3D4035" stroke-width="0.5" stroke-linecap="round" stroke-linejoin="round"/>
<path d="M396.401 79.7693L397.765 78.7812L397.852 78.8313L396.489 79.8069C396.431 79.8442 396.383 79.8959 396.351 79.9569C396.345 79.9708 396.342 79.9857 396.342 80.0007C396.342 80.0158 396.345 80.0306 396.351 80.0445V80.1446C396.351 80.1446 396.276 80.1446 396.251 80.0445C396.233 79.9875 396.233 79.9263 396.251 79.8694C396.294 79.8257 396.345 79.7916 396.401 79.7693Z" fill="white" stroke="#3D4035" stroke-width="0.5" stroke-linecap="round" stroke-linejoin="round"/>
<path d="M395.688 89.3623L397.452 90.2628C397.506 90.3007 397.567 90.3269 397.632 90.3398C397.697 90.3527 397.763 90.352 397.828 90.3379V90.4504H397.853C397.711 90.4665 397.569 90.431 397.452 90.3504L395.688 89.4624V89.3623Z" fill="white" stroke="#3D4035" stroke-width="0.5" stroke-linecap="round" stroke-linejoin="round"/>
<path d="M395.513 90.8004L395.576 90.7129C396.013 91.0778 396.486 91.3964 396.989 91.6634V91.7635C396.462 91.4999 395.967 91.1768 395.513 90.8004Z" fill="white" stroke="#3D4035" stroke-width="0.5" stroke-linecap="round" stroke-linejoin="round"/>
<path d="M396.239 93.0766L396.151 93.1517C395.463 92.3913 394.714 91.6885 393.912 91.0504V90.9629C394.745 91.6019 395.523 92.3089 396.239 93.0766Z" fill="white" stroke="#3D4035" stroke-width="0.5" stroke-linecap="round" stroke-linejoin="round"/>
<path d="M385.092 92.9395C384.404 93.7275 383.679 94.4904 382.916 95.2159L382.841 95.0908C383.607 94.3722 384.334 93.6123 385.017 92.8145L385.092 92.9395Z" fill="white" stroke="#3D4035" stroke-width="0.5" stroke-linecap="round" stroke-linejoin="round"/>
<path d="M383.854 91.9891C383.422 92.5993 382.95 93.1801 382.44 93.7276L382.365 93.6401C382.87 93.0961 383.338 92.5195 383.766 91.9141L383.854 91.9891Z" fill="white" stroke="#3D4035" stroke-width="0.5" stroke-linecap="round" stroke-linejoin="round"/>
<path d="M382.615 91.4014H382.703C382.34 91.9517 381.965 92.5145 381.565 93.0398L381.477 92.9648C381.877 92.502 382.253 91.9517 382.615 91.4014Z" fill="white" stroke="#3D4035" stroke-width="0.5" stroke-linecap="round" stroke-linejoin="round"/>
<path d="M378.325 82.583C378.567 82.9922 378.907 83.3357 379.313 83.5836C379.475 83.6928 379.668 83.7455 379.863 83.7337V83.8463C379.642 83.8627 379.422 83.8055 379.238 83.6837C378.815 83.4238 378.459 83.0682 378.199 82.6455L378.325 82.583Z" fill="white" stroke="#3D4035" stroke-width="0.5" stroke-linecap="round" stroke-linejoin="round"/>
<path d="M380.214 82.0578C379.781 81.922 379.362 81.7462 378.962 81.5325C378.854 81.4851 378.756 81.4163 378.674 81.3304C378.593 81.2445 378.529 81.1431 378.487 81.0322H378.6C378.6 81.2323 378.837 81.3574 379.013 81.4575C379.388 81.6641 379.782 81.8358 380.188 81.9703L380.214 82.0578Z" fill="white" stroke="#3D4035" stroke-width="0.5" stroke-linecap="round" stroke-linejoin="round"/>
<path d="M379.438 79.3818H379.538C379.786 79.8313 380.178 80.1839 380.651 80.3824V80.495C380.136 80.2658 379.71 79.875 379.438 79.3818Z" fill="white" stroke="#3D4035" stroke-width="0.5" stroke-linecap="round" stroke-linejoin="round"/>
<path d="M386.093 83.0836C386.12 83.0782 386.148 83.0786 386.176 83.0847C386.203 83.0907 386.228 83.1024 386.251 83.1188C386.273 83.1353 386.292 83.1562 386.305 83.1803C386.319 83.2044 386.328 83.2311 386.331 83.2587H387.344C387.401 83.0628 387.509 82.8857 387.657 82.7459L387.006 81.8454C386.971 81.869 386.93 81.8817 386.888 81.8817C386.845 81.8817 386.804 81.869 386.769 81.8454C386.73 81.8001 386.709 81.7424 386.709 81.6828C386.709 81.6231 386.73 81.5655 386.769 81.5202C386.811 81.4797 386.867 81.457 386.925 81.457C386.983 81.457 387.039 81.4797 387.081 81.5202C387.119 81.5635 387.14 81.619 387.14 81.6765C387.14 81.734 387.119 81.7896 387.081 81.8329L387.732 82.7334C387.868 82.6202 388.032 82.5466 388.207 82.5208C388.37 82.4914 388.538 82.501 388.697 82.5488C388.856 82.5966 389.001 82.6813 389.121 82.7959V82.7209L389.984 82.033C389.965 81.9961 389.955 81.9554 389.955 81.9141C389.955 81.8729 389.965 81.8322 389.984 81.7953C390.004 81.7737 390.028 81.7565 390.055 81.7447C390.082 81.7329 390.111 81.7268 390.14 81.7268C390.17 81.7268 390.199 81.7329 390.225 81.7447C390.252 81.7565 390.277 81.7737 390.296 81.7953C390.337 81.8373 390.36 81.8934 390.36 81.9517C390.36 82.01 390.337 82.0661 390.296 82.108C390.278 82.1293 390.255 82.1464 390.229 82.158C390.203 82.1697 390.175 82.1758 390.146 82.1758C390.118 82.1758 390.09 82.1697 390.064 82.158C390.038 82.1464 390.015 82.1293 389.996 82.108L389.121 82.8084C389.304 82.9752 389.424 83.2008 389.458 83.4463L390.484 83.5964C390.497 83.5554 390.521 83.5191 390.555 83.4923C390.588 83.4655 390.629 83.4495 390.672 83.4463C390.729 83.4462 390.785 83.4682 390.827 83.5078C390.869 83.5473 390.894 83.6014 390.897 83.6589C390.9 83.6878 390.898 83.7172 390.89 83.7451C390.881 83.773 390.867 83.7989 390.849 83.8212C390.83 83.8435 390.807 83.8616 390.781 83.8746C390.754 83.8876 390.726 83.8951 390.697 83.8966C390.669 83.8983 390.641 83.8944 390.614 83.8853C390.588 83.8761 390.564 83.8618 390.543 83.8432C390.522 83.8246 390.505 83.8021 390.493 83.7769C390.48 83.7517 390.473 83.7244 390.472 83.6964L389.471 83.5464C389.485 83.7052 389.465 83.8652 389.414 84.016C389.362 84.1668 389.279 84.3051 389.171 84.4219L389.784 85.1098C389.82 85.0889 389.861 85.0779 389.902 85.0779C389.944 85.0779 389.985 85.0889 390.021 85.1098C390.062 85.1517 390.084 85.2078 390.084 85.2661C390.084 85.3244 390.062 85.3805 390.021 85.4224C389.981 85.4622 389.927 85.4845 389.871 85.4845C389.815 85.4845 389.761 85.4622 389.721 85.4224C389.699 85.4025 389.682 85.3784 389.67 85.3515C389.659 85.3246 389.653 85.2955 389.653 85.2661C389.653 85.2367 389.659 85.2077 389.67 85.1808C389.682 85.1539 389.699 85.1297 389.721 85.1098L389.096 84.4219C388.952 84.5639 388.769 84.6598 388.57 84.697H388.42L388.307 85.585C388.346 85.603 388.38 85.631 388.404 85.6662C388.428 85.7014 388.442 85.7425 388.445 85.7852C388.449 85.8141 388.446 85.8434 388.438 85.8713C388.429 85.8992 388.415 85.9251 388.397 85.9474C388.378 85.9697 388.355 85.9879 388.329 86.0009C388.302 86.0138 388.274 86.0213 388.245 86.0228C388.216 86.0245 388.187 86.0203 388.16 86.0103C388.132 86.0004 388.107 85.985 388.086 85.9651C388.065 85.9452 388.048 85.9212 388.037 85.8945C388.026 85.8679 388.02 85.8392 388.02 85.8102C388.016 85.7524 388.035 85.6956 388.072 85.6513C388.109 85.6071 388.162 85.5789 388.22 85.5725L388.332 84.697C388.169 84.6853 388.011 84.6377 387.868 84.5577C387.725 84.4777 387.602 84.3673 387.507 84.2343L386.856 84.8596C386.878 84.8976 386.89 84.9408 386.89 84.9847C386.89 85.0286 386.878 85.0717 386.856 85.1098C386.837 85.1311 386.814 85.1481 386.788 85.1598C386.763 85.1715 386.735 85.1775 386.706 85.1775C386.678 85.1775 386.65 85.1715 386.624 85.1598C386.598 85.1481 386.575 85.1311 386.556 85.1098C386.518 85.0665 386.497 85.0109 386.497 84.9534C386.497 84.8959 386.518 84.8404 386.556 84.7971C386.596 84.7574 386.65 84.7351 386.706 84.7351C386.762 84.7351 386.816 84.7574 386.856 84.7971L387.519 84.1467C387.444 84.0244 387.393 83.8884 387.369 83.7465C387.35 83.6095 387.35 83.4707 387.369 83.3337H386.381C386.369 83.3756 386.347 83.4138 386.316 83.4445C386.286 83.4752 386.248 83.4974 386.206 83.5088C386.148 83.5161 386.089 83.5005 386.043 83.4655C385.996 83.4305 385.965 83.3788 385.956 83.3212C385.951 83.2722 385.962 83.2231 385.987 83.1805C386.011 83.138 386.048 83.1041 386.093 83.0836Z" fill="#3D4035"/>
<path d="M388.62 81.3331V82.4837H388.52V81.3456C388.48 81.3334 388.444 81.3107 388.415 81.28C388.387 81.2492 388.367 81.2114 388.357 81.1705C388.349 81.1129 388.363 81.0543 388.395 81.0059C388.427 80.9575 388.476 80.9226 388.533 80.9078C388.561 80.9025 388.591 80.9032 388.62 80.9099C388.648 80.9166 388.675 80.9292 388.699 80.9468C388.722 80.9645 388.742 80.9868 388.756 81.0123C388.771 81.0379 388.78 81.0662 388.783 81.0954C388.79 81.1482 388.778 81.2019 388.748 81.246C388.718 81.29 388.672 81.3211 388.62 81.3331Z" fill="#3D4035"/>
<path d="M37.0161 85.1598C28.5153 84.3966 20.0949 82.9112 11.8461 80.7197C15.1997 83.7507 19.3401 85.775 23.7921 86.5604C28.2442 87.3457 32.8275 86.8603 37.0161 85.1598Z" fill="#3D4035"/>
<path d="M37.0661 84.2723H37.1412C37.1412 84.2723 35.6775 78.8816 25.4694 76.7679C20.0526 75.6297 11.7085 79.7321 11.7085 79.7321L11.8711 79.8947C20.1313 82.0599 28.5596 83.5243 37.0661 84.2723Z" fill="#3D4035"/>
<path d="M42.6456 73.8284C42.6021 73.8317 42.5606 73.8476 42.5261 73.8741C42.4915 73.9006 42.4653 73.9365 42.4508 73.9775C42.4362 74.0186 42.4339 74.0629 42.444 74.1053C42.4542 74.1476 42.4764 74.1861 42.5079 74.2161C55.0725 82.6615 70.3463 86.0932 85.3169 83.8342C85.3733 83.8252 85.4245 83.7962 85.4612 83.7526C85.498 83.709 85.5178 83.6536 85.5171 83.5966C85.5183 83.5687 85.5127 83.5409 85.501 83.5156C85.4893 83.4903 85.4717 83.4681 85.4496 83.451C85.4276 83.4339 85.4018 83.4222 85.3743 83.4171C85.3469 83.412 85.3186 83.4135 85.2919 83.4215C70.4062 85.6504 55.2261 82.2088 42.7581 73.7783C42.7158 73.7808 42.6758 73.7986 42.6456 73.8284Z" fill="#3D4035"/>
<path d="M53.4041 88.5866C53.4041 88.5866 48.4001 86.4854 47.637 81.645L46.8239 76.8047C48.9764 77.8866 50.9005 79.3729 52.4909 81.1822C54.6301 83.8338 53.4041 88.5866 53.4041 88.5866Z" fill="#3D4035"/>
<path d="M67.3527 74.8659C67.3527 74.8659 63.7123 79.4186 58.5957 79.6187L53.5167 79.8313C55.2788 77.8462 57.3484 76.1571 59.6465 74.8284C63.0242 73.1274 67.3527 74.8659 67.3527 74.8659Z" fill="#3D4035"/>
<path d="M96.2131 80.4446C96.2131 80.4446 92.1599 84.6471 87.1309 84.3469L82.1269 84.0342C84.0659 82.2432 86.2789 80.7738 88.6821 79.6817C92.1348 78.2558 96.2131 80.4446 96.2131 80.4446Z" fill="#3D4035"/>
<path d="M84.0659 77.9427C84.0659 77.9427 82.1894 82.1452 78.5115 83.1833L74.8336 84.2089C75.7683 82.3585 76.9931 80.6695 78.4615 79.2059C80.6007 77.3048 84.0659 77.9427 84.0659 77.9427Z" fill="#3D4035"/>
<path d="M53.967 71.1768C51.7653 70.9886 49.5788 71.6813 47.8872 73.1029L45.3852 75.4543C47.0498 75.5431 48.7172 75.3443 50.3141 74.8665C52.5784 74.1035 53.967 71.1768 53.967 71.1768Z" fill="#3D4035"/>
<path d="M72.5943 78.3809C70.3926 78.1927 68.206 78.8854 66.5145 80.3071L64.0125 82.6584C65.6771 82.7472 67.3445 82.5484 68.9414 82.0706C71.2057 81.3327 72.5943 78.3809 72.5943 78.3809Z" fill="#3D4035"/>
<path d="M64.0751 89.075C64.0751 89.075 63.6998 84.81 60.3221 83.059L56.9569 81.333C57.2466 83.2021 57.883 85.0007 58.8334 86.6361C60.3096 88.8374 64.0751 89.075 64.0751 89.075Z" fill="#3D4035"/>
<path d="M76.9228 90.4504C76.9228 90.4504 76.022 86.3354 72.4317 85.0847L68.8539 83.834C69.3572 85.6474 70.2068 87.3463 71.3558 88.8369C73.1448 90.7255 76.9228 90.4504 76.9228 90.4504Z" fill="#3D4035"/>
<path d="M30.6861 81.9952C30.5384 81.9865 30.3948 81.9436 30.2667 81.8698C30.1386 81.796 30.0295 81.6933 29.948 81.5699C29.8917 81.4235 29.8819 81.2633 29.9199 81.1111C29.958 80.9589 30.042 80.8221 30.1606 80.7194C30.398 80.5289 30.6764 80.3962 30.9738 80.3317C31.7933 80.1098 32.6304 79.9592 33.4758 79.8814C34.0262 79.8814 34.7268 79.7438 34.9144 79.2185C34.1888 79.8939 33.0629 79.4312 32.2248 78.9184C30.6986 78.0053 29.1724 77.5801 29.0097 74.6784C31.4492 74.003 33.188 76.4294 35.7025 76.7046C35.6683 75.696 35.2578 74.7367 34.5516 74.0155C33.9963 73.2115 33.5425 72.3419 33.2006 71.4265C33.0976 71.2341 33.0438 71.0193 33.0438 70.8011C33.0438 70.5829 33.0976 70.3681 33.2006 70.1758C33.5383 69.7505 34.1888 69.9006 34.6517 70.1758C35.573 70.7207 36.3423 71.4886 36.8888 72.4088C37.4354 73.3289 37.7415 74.3718 37.7792 75.4413C37.7792 76.6921 37.9668 77.6926 38.117 78.8558C38.2671 80.019 37.7792 80.3067 36.866 80.6444C35.0645 81.3323 32.7502 82.3579 30.6861 81.9952Z" fill="#3D4035"/>
<path d="M39.0177 72.0145C38.7413 70.7813 38.085 69.6659 37.1412 68.8251C36.7784 68.5625 36.2405 68.3749 35.8902 68.6876C35.5399 69.0002 35.7025 69.5631 35.8902 69.9383L36.9535 72.79C35.8777 71.4142 34.6267 69.9383 32.9379 69.7632C32.6328 69.7155 32.3209 69.7824 32.0622 69.9508C31.9097 70.0852 31.7975 70.2592 31.7379 70.4535C31.6782 70.6477 31.6736 70.8547 31.7244 71.0514C31.8243 71.4407 32.0078 71.8035 32.2623 72.1146C32.8968 73.0007 33.6267 73.8144 34.439 74.541C33.6435 73.5588 32.4929 72.9296 31.2365 72.79C30.917 72.7474 30.592 72.795 30.2983 72.9275C30.1524 73.0047 30.0349 73.1263 29.9629 73.2747C29.8909 73.4232 29.8682 73.5907 29.8979 73.753C29.9784 73.9594 30.1122 74.1406 30.2857 74.2783C31.2946 75.1833 32.4438 75.9183 33.6884 76.4546C33.0273 76.0645 32.2931 75.8144 31.5313 75.7198C30.7696 75.6251 29.9964 75.6879 29.2599 75.9043C29.2772 76.1818 29.3584 76.4515 29.4973 76.6924C29.6362 76.9332 29.829 77.1387 30.0606 77.2926C30.5306 77.5695 31.0482 77.7561 31.5868 77.8429C32.8422 78.1196 34.1184 78.2911 35.4023 78.3557C36.648 78.5887 37.93 78.5417 39.1553 78.2181C40.694 77.4427 39.3805 73.2652 39.0177 72.0145Z" fill="#3D4035"/>
<path d="M38.217 80.2073C38.6805 80.2206 39.1304 80.0497 39.468 79.732C39.6547 79.4986 39.7833 79.2243 39.8433 78.9315C40.0216 78.1263 39.9784 77.2878 39.7182 76.5051C39.7182 76.3425 39.5306 76.1549 39.3805 76.2299C39.3272 76.266 39.2876 76.3188 39.2679 76.38L38.8926 77.1305C38.6424 77.1305 38.4422 76.7052 38.217 76.8303C38.1365 76.9018 38.0834 76.9991 38.0669 77.1054C37.9982 77.4859 37.9982 77.8756 38.0669 78.2561C37.5629 78.4204 37.0197 78.4204 36.5157 78.2561C36.5632 78.6074 36.726 78.9329 36.9786 79.1817C36.5251 79.1935 36.0786 79.2956 35.665 79.4818C35.5899 79.4818 35.4899 79.5819 35.5024 79.6694C35.5024 80.3699 37.8668 80.2323 38.217 80.2073Z" fill="#3D4035"/>
<path d="M40.8066 85.1476C40.8759 85.6245 40.8759 86.109 40.8066 86.5859C40.9317 86.5859 40.9692 86.4233 40.9692 86.2858C41.0671 84.536 40.8337 82.7834 40.2812 81.1202C40.136 80.7176 39.9647 80.3249 39.7683 79.9446C39.6682 79.7444 39.2804 79.2191 39.3554 79.7945C39.4858 80.2088 39.6621 80.6074 39.8809 80.9827C40.0435 81.4079 40.1936 81.8457 40.3187 82.2334C40.5775 83.1862 40.7409 84.1624 40.8066 85.1476Z" fill="#3D4035"/>
<path d="M43.3586 96.8288C45.2638 96.2215 46.9619 95.0954 48.2625 93.5769C49.0251 92.7131 49.6381 91.7282 50.0764 90.6626C49.1961 90.5185 48.3028 90.4682 47.4118 90.5126C47.1743 89.6421 47.236 88.7172 47.587 87.886C46.9114 87.9486 45.9732 88.0611 45.2977 88.1112C45.3672 87.2123 45.5137 86.321 45.7355 85.4471C43.2718 86.4842 41.2185 88.304 39.8934 90.6251C40.2785 87.6431 39.6294 84.6191 38.0544 82.0576C37.7645 82.9253 37.3917 83.763 36.941 84.5591C36.4156 84.0963 35.69 83.4459 35.2021 82.9957C35.0501 83.8654 34.6094 84.6585 33.9511 85.247C33.2546 84.6701 32.4999 84.1671 31.6994 83.7461C31.4517 84.8795 31.3967 86.0465 31.5367 87.1981C31.7378 89.036 32.377 90.7989 33.4007 92.3386C31.2664 90.5627 28.5714 89.601 25.7947 89.6245C26.3187 90.3463 26.7791 91.1121 27.1708 91.9134C26.5202 92.126 25.6195 92.3887 24.969 92.6138C25.6043 93.2429 25.9983 94.0752 26.0824 94.9652C25.2354 95.2951 24.426 95.7144 23.668 96.2159C24.4423 96.9779 25.3334 97.6112 26.3076 98.092C28.0735 98.9822 30.0566 99.351 32.0246 99.1551C32.7951 99.0462 33.5562 98.8789 34.3014 98.6548L34.1388 98.7424C32.4495 99.6245 30.9842 100.881 29.8546 102.416C28.725 103.95 27.9611 105.723 27.6211 107.598C28.4022 107.207 29.2191 106.893 30.0606 106.66C30.1356 107.372 30.1982 108.348 30.2732 109.048C30.9771 108.535 31.8456 108.299 32.7127 108.386C32.8349 109.305 33.0486 110.21 33.3507 111.087C34.2801 110.437 35.0958 109.639 35.7651 108.723C36.9641 107.07 37.7023 105.127 37.9043 103.095C38.0044 102.082 37.9043 101.094 37.9043 100.106C37.9373 99.6586 37.8183 99.2134 37.5665 98.8424C37.6537 98.8546 37.7421 98.8546 37.8292 98.8424H37.9418C37.9247 99.6251 38.1054 100.399 38.4672 101.094C39.262 102.803 40.4448 104.304 41.9216 105.477C43.3983 106.649 45.1283 107.461 46.974 107.848C46.5914 107.045 46.2856 106.207 46.0608 105.346L48.3501 105.121C47.8634 104.382 47.6387 103.501 47.7121 102.62C48.5966 102.499 49.4651 102.281 50.3016 101.969C49.6913 101.015 48.926 100.17 48.0373 99.4678C46.4867 98.1497 44.5884 97.3071 42.5705 97.0414H42.4579C42.7626 96.9909 43.0635 96.9199 43.3586 96.8288ZM35.6775 98.1545H35.5649H35.6775Z" fill="#8B6841" stroke="#FCD7A1" stroke-width="0.54" stroke-linecap="round" stroke-linejoin="round"/>
<path d="M40.6315 95.0907C40.8185 96.0051 40.6406 96.9565 40.1358 97.7417C39.6309 98.5268 38.8391 99.0836 37.9293 99.2931C37.4777 99.3793 37.0135 99.3741 36.5639 99.2779C36.1144 99.1816 35.6887 98.9963 35.312 98.7328C34.9353 98.4693 34.6153 98.133 34.3708 97.7437C34.1263 97.3544 33.9624 96.9201 33.8886 96.4665C33.7019 95.5502 33.8815 94.5973 34.3889 93.8119C34.8963 93.0264 35.6912 92.4708 36.6033 92.264C37.0541 92.1779 37.5176 92.1832 37.9664 92.2796C38.4151 92.3759 38.84 92.5615 39.2156 92.8251C39.5913 93.0887 39.9102 93.4251 40.1534 93.8143C40.3966 94.2034 40.5592 94.6375 40.6315 95.0907Z" fill="#FCD7A1"/>
<path d="M33.4633 87.0733L33.0379 85.585H32.9253L33.3632 87.0608C33.3907 87.2622 33.4621 87.455 33.5724 87.6257C33.6826 87.7965 33.829 87.9409 34.0012 88.0489V87.9489C33.7135 87.8488 33.5759 87.436 33.4633 87.0733Z" fill="#74302E" stroke="#3D4035" stroke-width="0.5" stroke-miterlimit="10"/>
<path d="M34.7643 85.1725C34.9903 85.9507 35.2618 86.715 35.5774 87.4613H35.6775C35.3581 86.6866 35.0866 85.893 34.8644 85.085L34.7643 85.1725Z" fill="#74302E" stroke="#3D4035" stroke-width="0.5" stroke-miterlimit="10"/>
<path d="M37.0036 84.7475C37.249 85.826 37.3082 86.9385 37.1787 88.0369H37.2913C37.4144 86.9258 37.3553 85.802 37.1162 84.71L37.0036 84.7475Z" fill="#74302E" stroke="#3D4035" stroke-width="0.5" stroke-miterlimit="10"/>
<path d="M30.3983 92.8394V92.952C30.4317 92.9369 30.4584 92.9103 30.4734 92.8769C30.4833 92.8576 30.4884 92.8361 30.4884 92.8144C30.4884 92.7927 30.4833 92.7712 30.4734 92.7519C30.4335 92.7103 30.3805 92.6838 30.3233 92.6768C29.5483 92.5242 28.7986 92.2632 28.0965 91.9014V92.0014C28.8128 92.3638 29.5743 92.6288 30.3608 92.7894C30.3608 92.7894 30.3858 92.8144 30.3983 92.8394Z" fill="#74302E" stroke="#3D4035" stroke-width="0.5" stroke-miterlimit="10"/>
<path d="M29.4226 93.9896H29.5226C29.5348 93.9403 29.5348 93.8888 29.5226 93.8395C29.48 93.7451 29.4044 93.6695 29.31 93.6269L27.7087 92.7764V92.8889L29.31 93.7269C29.35 93.7571 29.3814 93.7972 29.4012 93.8433C29.4209 93.8894 29.4283 93.9398 29.4226 93.9896Z" fill="#74302E" stroke="#3D4035" stroke-width="0.5" stroke-miterlimit="10"/>
<path d="M28.5469 95.3288L26.9456 94.916V95.0286L28.5469 95.4288C28.6147 95.4449 28.6786 95.4747 28.7345 95.5164C28.7419 95.5451 28.7419 95.5752 28.7345 95.6039L28.8096 95.6915C28.8178 95.6717 28.8221 95.6504 28.8221 95.6289C28.8221 95.6075 28.8178 95.5862 28.8096 95.5664C28.8078 95.5029 28.7859 95.4416 28.747 95.3913C28.6856 95.3562 28.6173 95.3349 28.5469 95.3288Z" fill="#74302E" stroke="#3D4035" stroke-width="0.5" stroke-miterlimit="10"/>
<path d="M32.5625 104.009L31.224 105.51C31.1364 105.622 31.0238 105.735 30.8987 105.722V105.835H30.9738C31.111 105.791 31.2298 105.703 31.3116 105.585L32.5625 104.084V104.009Z" fill="#74302E" stroke="#3D4035" stroke-width="0.5" stroke-miterlimit="10"/>
<path d="M33.2006 105.284H33.1005C32.8188 105.783 32.4877 106.252 32.1122 106.685L32.1873 106.773C32.5781 106.315 32.9179 105.816 33.2006 105.284Z" fill="#74302E" stroke="#3D4035" stroke-width="0.5" stroke-miterlimit="10"/>
<path d="M33.3006 107.673H33.4132C33.7915 106.704 34.2475 105.767 34.7768 104.871H34.6767C34.1494 105.77 33.6894 106.706 33.3006 107.673Z" fill="#74302E" stroke="#3D4035" stroke-width="0.5" stroke-miterlimit="10"/>
<path d="M43.6463 103.346C44.5614 103.832 45.5009 104.27 46.4611 104.659V104.547C45.5041 104.183 44.5685 103.766 43.6589 103.296L43.6463 103.346Z" fill="#74302E" stroke="#3D4035" stroke-width="0.5" stroke-miterlimit="10"/>
<path d="M44.472 101.995C45.0831 102.403 45.7227 102.766 46.386 103.083V102.983C45.7254 102.669 45.0897 102.305 44.4845 101.895L44.472 101.995Z" fill="#74302E" stroke="#3D4035" stroke-width="0.5" stroke-miterlimit="10"/>
<path d="M45.4353 100.981V101.082C45.9607 101.457 46.5111 101.832 47.0616 102.17V102.082C46.4986 101.732 45.9607 101.344 45.4353 100.981Z" fill="#74302E" stroke="#3D4035" stroke-width="0.5" stroke-miterlimit="10"/>
<path d="M46.3985 91.1762C46.3005 91.6302 46.104 92.0571 45.8231 92.4269C45.7118 92.5889 45.5485 92.708 45.3602 92.7646V92.8772C45.5731 92.8154 45.7557 92.6774 45.8731 92.4895C46.1816 92.0941 46.3917 91.6311 46.4861 91.1387L46.3985 91.1762Z" fill="#74302E" stroke="#3D4035" stroke-width="0.5" stroke-miterlimit="10"/>
<path d="M44.447 91.3384C44.7833 91.0544 45.0931 90.7404 45.3727 90.4004C45.4619 90.3175 45.5325 90.2167 45.5799 90.1046C45.6273 89.9925 45.6505 89.8717 45.6479 89.75H45.5353C45.5349 89.853 45.5137 89.9549 45.4728 90.0495C45.432 90.1441 45.3724 90.2294 45.2977 90.3003C45.0179 90.6363 44.708 90.9461 44.3719 91.2259L44.447 91.3384Z" fill="#74302E" stroke="#3D4035" stroke-width="0.5" stroke-miterlimit="10"/>
<path d="M44.2343 88.5742H44.1217C44.0426 89.0864 43.8014 89.5598 43.4337 89.925L43.5087 90.0126C43.8939 89.62 44.1475 89.1173 44.2343 88.5742Z" fill="#74302E" stroke="#3D4035" stroke-width="0.5" stroke-miterlimit="10"/>
<path d="M39.3179 94.5401C39.2616 94.5548 39.2127 94.5897 39.1804 94.6381C39.1481 94.6865 39.1347 94.7451 39.1428 94.8027L38.217 95.2155C38.1002 95.0502 37.94 94.9204 37.7542 94.8403L38.0544 93.7521C38.0953 93.7562 38.1364 93.7475 38.1722 93.7274C38.2081 93.7073 38.2368 93.6766 38.2546 93.6395C38.2796 93.5855 38.2845 93.5244 38.2684 93.4671C38.2524 93.4098 38.2164 93.36 38.167 93.3269C38.1139 93.3007 38.0525 93.2965 37.9963 93.3153C37.9401 93.334 37.8936 93.3741 37.8668 93.4269C37.8426 93.4791 37.8381 93.5382 37.8542 93.5934C37.8703 93.6486 37.9059 93.6961 37.9543 93.7271L37.6541 94.8152C37.486 94.7713 37.3093 94.7713 37.1412 94.8152C36.9764 94.8542 36.8224 94.9295 36.6904 95.0355C36.5584 95.1415 36.4517 95.2756 36.3781 95.4281V95.3405L35.3272 95.0154C35.3305 94.9729 35.3217 94.9304 35.3017 94.8927C35.2818 94.8551 35.2516 94.8239 35.2147 94.8027C35.1893 94.79 35.1616 94.7825 35.1332 94.7807C35.1049 94.7789 35.0765 94.7828 35.0497 94.7921C35.0229 94.8014 34.9982 94.816 34.9771 94.835C34.956 94.854 34.939 94.8771 34.9269 94.9028C34.8998 94.9544 34.8938 95.0146 34.9101 95.0706C34.9264 95.1265 34.9639 95.174 35.0145 95.203C35.0643 95.2295 35.1225 95.2352 35.1765 95.2188C35.2305 95.2023 35.2757 95.1652 35.3022 95.1154L36.3531 95.4281C36.2523 95.6558 36.2218 95.9084 36.2655 96.1535L35.3648 96.6663C35.331 96.6452 35.292 96.6341 35.2522 96.6341C35.2124 96.6341 35.1734 96.6452 35.1396 96.6663C35.086 96.6862 35.042 96.7256 35.0164 96.7767C34.9909 96.8278 34.9857 96.8867 35.002 96.9415C35.0075 96.9696 35.0191 96.9962 35.0358 97.0195C35.0526 97.0428 35.0741 97.0623 35.0991 97.0765C35.124 97.0907 35.1517 97.0995 35.1802 97.1021C35.2088 97.1046 35.2376 97.1011 35.2647 97.0916C35.3189 97.0717 35.3639 97.0329 35.3916 96.9822C35.4192 96.9316 35.4274 96.8727 35.4148 96.8164L36.2905 96.3036C36.3333 96.4553 36.4079 96.5962 36.5092 96.717C36.6106 96.8377 36.7365 96.9355 36.8785 97.004L36.5407 97.8795C36.4992 97.8717 36.4563 97.8771 36.4181 97.8951C36.3799 97.913 36.3484 97.9426 36.328 97.9796C36.2875 98.0215 36.2649 98.0776 36.2649 98.1359C36.2649 98.1942 36.2875 98.2503 36.328 98.2923C36.3673 98.3283 36.4186 98.3483 36.4719 98.3483C36.5252 98.3483 36.5765 98.3283 36.6158 98.2923C36.6563 98.2503 36.6789 98.1942 36.6789 98.1359C36.6789 98.0776 36.6563 98.0215 36.6158 97.9796L36.9535 97.1041C37.1445 97.1671 37.3506 97.1671 37.5415 97.1041H37.6791L38.0919 97.892C38.0608 97.9222 38.0386 97.9603 38.0276 98.0021C38.0165 98.044 38.0172 98.0881 38.0294 98.1297C38.0384 98.1568 38.0527 98.1818 38.0714 98.2034C38.0902 98.225 38.1129 98.2427 38.1385 98.2554C38.1641 98.2682 38.1919 98.2758 38.2204 98.2779C38.2489 98.2799 38.2775 98.2763 38.3046 98.2673C38.3317 98.2582 38.3568 98.2439 38.3784 98.2252C38.3999 98.2065 38.4176 98.1837 38.4304 98.1582C38.4432 98.1326 38.4508 98.1048 38.4528 98.0763C38.4549 98.0478 38.4513 98.0192 38.4422 97.9921C38.435 97.9649 38.4224 97.9394 38.4052 97.9171C38.3881 97.8948 38.3667 97.8761 38.3422 97.8622C38.3178 97.8482 38.2908 97.8393 38.2629 97.8358C38.235 97.8323 38.2066 97.8344 38.1795 97.842L37.7667 97.0666C37.9181 96.9966 38.0512 96.8923 38.1554 96.7621C38.2596 96.6319 38.3321 96.4792 38.3672 96.3161L39.1928 96.6663C39.1858 96.7095 39.1915 96.7538 39.2093 96.7938C39.2271 96.8338 39.2561 96.8677 39.2929 96.8915C39.3328 96.9312 39.3867 96.9535 39.443 96.9535C39.4993 96.9535 39.5533 96.9312 39.5931 96.8915C39.631 96.8482 39.6518 96.7926 39.6518 96.7351C39.6518 96.6776 39.631 96.6221 39.5931 96.5788C39.5518 96.5419 39.4984 96.5214 39.443 96.5214C39.3876 96.5214 39.3342 96.5419 39.2929 96.5788L38.4547 96.2286C38.479 96.0879 38.479 95.944 38.4547 95.8033C38.4199 95.6687 38.3696 95.5386 38.3046 95.4156L39.2053 95.0154C39.2324 95.0478 39.2673 95.0728 39.3066 95.0881C39.346 95.1034 39.3886 95.1085 39.4305 95.1029C39.486 95.0881 39.5338 95.0527 39.564 95.0039C39.5942 94.955 39.6046 94.8965 39.5931 94.8403C39.6165 94.801 39.6266 94.7552 39.6219 94.7098C39.6172 94.6643 39.598 94.6216 39.5671 94.5879C39.5362 94.5542 39.4953 94.5314 39.4504 94.5228C39.4055 94.5141 39.3591 94.5202 39.3179 94.5401Z" fill="#3D4035"/>
<path d="M36.3155 93.8404L36.7409 94.891H36.8284L36.4406 93.8404C36.4731 93.8133 36.4981 93.7784 36.5134 93.7391C36.5287 93.6997 36.5338 93.6571 36.5282 93.6152C36.5239 93.5858 36.5134 93.5576 36.4975 93.5325C36.4816 93.5073 36.4605 93.4858 36.4358 93.4693C36.411 93.4528 36.3831 93.4417 36.3537 93.4367C36.3244 93.4316 36.2943 93.4328 36.2655 93.4401C36.21 93.4549 36.1622 93.4903 36.132 93.5392C36.1018 93.588 36.0914 93.6465 36.1029 93.7028C36.1204 93.7444 36.1501 93.7798 36.188 93.8043C36.2259 93.8288 36.2704 93.8414 36.3155 93.8404Z" fill="#3D4035"/>
<path d="M56.6442 86.7359C58.6187 86.8934 60.5974 86.4856 62.3487 85.5602C63.3463 85.0317 64.2472 84.3381 65.0133 83.509C64.2453 83.0479 63.4321 82.6665 62.5864 82.3709C62.6566 81.4775 63.0372 80.6368 63.6622 79.9945C63.0117 79.7818 62.0985 79.5317 61.448 79.3316C61.8204 78.5225 62.2642 77.7481 62.774 77.0177C60.1339 77.0477 57.5814 77.9689 55.5308 79.6318C56.9312 76.9675 57.3729 73.9029 56.7818 70.9517C56.2093 71.6283 55.5771 72.252 54.8928 72.8153C54.5675 72.1899 54.1422 71.3144 53.8044 70.689C53.3548 71.4516 52.6435 72.0249 51.8028 72.3025C51.3562 71.5045 50.8234 70.758 50.2141 70.0762C49.5844 71.0406 49.1154 72.1008 48.8255 73.2155C48.3876 75.0238 48.3876 76.9104 48.8255 78.7187C47.4533 76.2661 45.2806 74.3588 42.6706 73.3156C42.9099 74.1836 43.0732 75.0708 43.1585 75.9671C42.4829 75.9671 41.5447 75.8295 40.8691 75.792C41.2368 76.6175 41.3161 77.5426 41.0943 78.4185C40.2014 78.3846 39.3075 78.4517 38.4297 78.6187C38.8821 79.6712 39.5033 80.6428 40.2687 81.4953C41.6131 82.9856 43.3457 84.0725 45.2726 84.6347C46.0282 84.8396 46.7974 84.9901 47.5745 85.0849H47.3868C45.5187 85.2821 43.7224 85.9128 42.1412 86.9269C40.5601 87.941 39.2377 89.3104 38.2796 90.9259C39.1406 90.8384 40.0082 90.8384 40.8691 90.9259C40.694 91.6138 40.4188 92.5518 40.2436 93.2397C41.085 93.0304 41.9737 93.1326 42.7456 93.5274C42.5314 94.4338 42.414 95.3603 42.3954 96.2915C43.4826 96.058 44.5201 95.6346 45.4603 95.0408C47.1571 93.942 48.5235 92.403 49.4134 90.5882C49.8513 89.6876 50.0639 88.7121 50.4267 87.799C50.6195 87.3794 50.655 86.9044 50.5268 86.4608H50.7895H50.9146C50.5999 87.2107 50.4919 88.0313 50.6019 88.8371C50.7545 90.7411 51.337 92.5858 52.3056 94.2322C53.2741 95.8787 54.6036 97.2841 56.1938 98.3427C56.1064 97.4443 56.1064 96.5395 56.1938 95.6411C56.8443 95.8287 57.745 96.1164 58.4081 96.2915C58.2038 95.414 58.3008 94.4933 58.6833 93.6775C59.5512 93.8962 60.4406 94.0178 61.3354 94.0402C61.0913 92.9132 60.669 91.8323 60.0844 90.8383C59.0675 89.1009 57.5916 87.6772 55.8185 86.7234H55.7309C56.0562 86.6609 56.3314 86.7109 56.6442 86.7359ZM49.0256 85.0849H48.9255H49.0256Z" fill="#8B6841" stroke="#FCD7A1" stroke-width="0.54" stroke-linecap="round" stroke-linejoin="round"/>
<path d="M54.7051 84.0843C54.6414 84.5391 54.4869 84.9765 54.2508 85.3704C54.0147 85.7644 53.7019 86.1068 53.3308 86.3775C52.9597 86.6482 52.538 86.8415 52.0907 86.9461C51.6434 87.0506 51.1796 87.0641 50.727 86.986C49.8122 86.7957 49.0086 86.254 48.4892 85.4774C47.9698 84.7009 47.7761 83.7515 47.9498 82.8335C48.0151 82.3794 48.1707 81.943 48.4072 81.5499C48.6438 81.1568 48.9567 80.8151 49.3273 80.5447C49.698 80.2743 50.1191 80.0808 50.5657 79.9755C51.0123 79.8703 51.4755 79.8554 51.9279 79.9318C52.8428 80.1221 53.6463 80.6637 54.1657 81.4403C54.6851 82.2169 54.8788 83.1663 54.7051 84.0843Z" fill="#FCD7A1"/>
<path d="M50.7895 73.9161L50.9021 72.3652H50.7895L50.6894 73.9036C50.6457 74.1041 50.6454 74.3117 50.6886 74.5123C50.7318 74.7129 50.8173 74.902 50.9396 75.0668L51.0147 74.9918C50.9072 74.8366 50.8319 74.6615 50.7933 74.4767C50.7546 74.292 50.7533 74.1014 50.7895 73.9161Z" fill="white" stroke="#3D4035" stroke-width="0.5" stroke-linecap="round" stroke-linejoin="round"/>
<path d="M52.666 72.5771C52.6138 73.4102 52.6138 74.2456 52.666 75.0786H52.7786C52.7325 74.2454 52.7325 73.4103 52.7786 72.5771H52.666Z" fill="white" stroke="#3D4035" stroke-width="0.5" stroke-linecap="round" stroke-linejoin="round"/>
<path d="M54.8928 73.0903C54.7532 74.1816 54.4229 75.24 53.917 76.2171H54.0171C54.5272 75.2274 54.8616 74.1568 55.0054 73.0527L54.8928 73.0903Z" fill="white" stroke="#3D4035" stroke-width="0.5" stroke-linecap="round" stroke-linejoin="round"/>
<path d="M45.9482 78.1434V78.2559C45.9634 78.2647 45.9806 78.2693 45.9982 78.2693C46.0158 78.2693 46.033 78.2647 46.0482 78.2559C46.0572 78.2363 46.0619 78.215 46.0619 78.1934C46.0619 78.1718 46.0572 78.1505 46.0482 78.1309C46.0247 78.0784 45.9853 78.0347 45.9357 78.0058C45.2666 77.5644 44.657 77.0389 44.1217 76.4424L44.0467 76.5174C44.5796 77.1283 45.1942 77.6628 45.8731 78.1058C45.8731 78.1058 45.9357 78.1184 45.9482 78.1434Z" fill="white" stroke="#3D4035" stroke-width="0.5" stroke-linecap="round" stroke-linejoin="round"/>
<path d="M44.6346 78.8309L44.7097 78.9184C44.7295 78.9042 44.7455 78.8854 44.7564 78.8636C44.7673 78.8418 44.7727 78.8177 44.7722 78.7934C44.77 78.6847 44.7251 78.5814 44.6471 78.5057L43.3961 77.1299L43.3086 77.2049L44.5596 78.5932C44.6101 78.662 44.6364 78.7456 44.6346 78.8309Z" fill="white" stroke="#3D4035" stroke-width="0.5" stroke-linecap="round" stroke-linejoin="round"/>
<path d="M43.3586 79.7691L41.995 78.8311V78.9311L43.3586 79.9067C43.4167 79.944 43.4641 79.9957 43.4962 80.0568C43.5021 80.0706 43.5051 80.0855 43.5051 80.1005C43.5051 80.1156 43.5021 80.1305 43.4962 80.1443V80.2444C43.5181 80.2365 43.5376 80.2231 43.5529 80.2056C43.5682 80.1881 43.5788 80.167 43.5838 80.1443C43.5962 80.1168 43.6027 80.087 43.6027 80.0568C43.6027 80.0266 43.5962 79.9967 43.5838 79.9692C43.5357 79.8773 43.4556 79.8061 43.3586 79.7691Z" fill="white" stroke="#3D4035" stroke-width="0.5" stroke-linecap="round" stroke-linejoin="round"/>
<path d="M44.0717 89.3623L42.3078 90.2628C42.2539 90.3007 42.1926 90.3269 42.128 90.3398C42.0634 90.3527 41.9968 90.352 41.9325 90.3379V90.4504H42.0076C42.1487 90.4665 42.2909 90.431 42.4079 90.3504L44.1718 89.4624L44.0717 89.3623Z" fill="white" stroke="#3D4035" stroke-width="0.5" stroke-linecap="round" stroke-linejoin="round"/>
<path d="M44.2468 90.8004L44.1718 90.7129C43.7348 91.0778 43.261 91.3964 42.7581 91.6634V91.7635C43.2893 91.5 43.7888 91.1769 44.2468 90.8004Z" fill="white" stroke="#3D4035" stroke-width="0.5" stroke-linecap="round" stroke-linejoin="round"/>
<path d="M43.5212 93.0766L43.6088 93.1517C44.2966 92.3913 45.0455 91.6885 45.8481 91.0504V90.9629C45.0125 91.5985 44.2339 92.3058 43.5212 93.0766Z" fill="white" stroke="#3D4035" stroke-width="0.5" stroke-linecap="round" stroke-linejoin="round"/>
<path d="M54.6676 92.9391C55.3542 93.7342 56.0807 94.494 56.8443 95.2154L56.9194 95.1279C56.1529 94.4093 55.4262 93.6494 54.7426 92.8516L54.6676 92.9391Z" fill="white" stroke="#3D4035" stroke-width="0.5" stroke-linecap="round" stroke-linejoin="round"/>
<path d="M55.9061 91.9891C56.3377 92.5963 56.8056 93.1768 57.3072 93.7276L57.3948 93.6401C56.8903 93.0961 56.4223 92.5195 55.9937 91.9141L55.9061 91.9891Z" fill="white" stroke="#3D4035" stroke-width="0.5" stroke-linecap="round" stroke-linejoin="round"/>
<path d="M57.1446 91.4014H57.057C57.4198 91.9517 57.7951 92.5145 58.1954 93.0398L58.283 92.9648C57.8826 92.502 57.5073 91.9517 57.1446 91.4014Z" fill="white" stroke="#3D4035" stroke-width="0.5" stroke-linecap="round" stroke-linejoin="round"/>
<path d="M61.4355 82.583C61.1927 82.9922 60.8534 83.3357 60.4472 83.5836C60.2852 83.6928 60.0917 83.7455 59.8967 83.7337V83.8463C60.1175 83.8627 60.3375 83.8055 60.5222 83.6837C60.945 83.4238 61.3006 83.0682 61.5606 82.6455L61.4355 82.583Z" fill="white" stroke="#3D4035" stroke-width="0.5" stroke-linecap="round" stroke-linejoin="round"/>
<path d="M59.5465 82.0578C59.9789 81.922 60.3977 81.7462 60.7975 81.5325C60.9058 81.4869 61.0031 81.4186 61.083 81.3324C61.1628 81.2461 61.2233 81.1438 61.2603 81.0322H61.1603C61.1225 81.1286 61.0653 81.2161 60.9921 81.2893C60.9189 81.3625 60.8313 81.4197 60.7349 81.4575C60.365 81.6663 59.9753 81.8381 59.5715 81.9703L59.5465 82.0578Z" fill="white" stroke="#3D4035" stroke-width="0.5" stroke-linecap="round" stroke-linejoin="round"/>
<path d="M60.3096 79.3818H60.222C59.9743 79.8313 59.5819 80.1839 59.1086 80.3824V80.495C59.6225 80.2691 60.0455 79.8771 60.3096 79.3818Z" fill="white" stroke="#3D4035" stroke-width="0.5" stroke-linecap="round" stroke-linejoin="round"/>
<path d="M53.6668 83.0833C53.6107 83.0757 53.5538 83.0895 53.5075 83.122C53.4611 83.1544 53.4287 83.2031 53.4166 83.2584H52.4158C52.3594 83.0626 52.2514 82.8855 52.1031 82.7456L52.7536 81.8451C52.7887 81.8688 52.8301 81.8814 52.8724 81.8814C52.9148 81.8814 52.9562 81.8688 52.9913 81.8451C53.0326 81.801 53.0556 81.7429 53.0556 81.6825C53.0556 81.6221 53.0326 81.564 52.9913 81.5199C52.9725 81.4986 52.9494 81.4815 52.9235 81.4699C52.8976 81.4582 52.8695 81.4521 52.8411 81.4521C52.8127 81.4521 52.7847 81.4582 52.7588 81.4699C52.7329 81.4815 52.7098 81.4986 52.691 81.5199C52.6532 81.5632 52.6323 81.6187 52.6323 81.6762C52.6323 81.7337 52.6532 81.7893 52.691 81.8326L52.0405 82.7331C51.9046 82.6199 51.7401 82.5464 51.5651 82.5205C51.402 82.49 51.2339 82.4991 51.0751 82.547C50.9162 82.5949 50.7711 82.6802 50.6519 82.7956V82.7206L49.7762 82.0327C49.7971 81.9966 49.8081 81.9556 49.8081 81.9139C49.8081 81.8722 49.7971 81.8312 49.7762 81.7951C49.7563 81.7735 49.7321 81.7562 49.7052 81.7444C49.6783 81.7326 49.6492 81.7265 49.6198 81.7265C49.5905 81.7265 49.5614 81.7326 49.5345 81.7444C49.5076 81.7562 49.4834 81.7735 49.4635 81.7951C49.423 81.837 49.4003 81.8931 49.4003 81.9514C49.4003 82.0097 49.423 82.0658 49.4635 82.1077C49.4822 82.129 49.5054 82.1461 49.5312 82.1578C49.5571 82.1695 49.5852 82.1755 49.6136 82.1755C49.642 82.1755 49.6701 82.1695 49.6959 82.1578C49.7218 82.1461 49.7449 82.129 49.7637 82.1077L50.6269 82.8082C50.4512 82.9792 50.3368 83.2034 50.3016 83.446L49.2758 83.5961C49.2633 83.5551 49.2387 83.5188 49.2052 83.492C49.1717 83.4652 49.1309 83.4492 49.0882 83.446C49.0306 83.4459 48.9751 83.4679 48.9332 83.5075C48.8913 83.547 48.8662 83.6011 48.863 83.6586C48.8595 83.6876 48.862 83.7169 48.8704 83.7448C48.8787 83.7727 48.8927 83.7986 48.9115 83.8209C48.9302 83.8432 48.9534 83.8614 48.9795 83.8743C49.0056 83.8873 49.0341 83.8948 49.0631 83.8963C49.0911 83.898 49.1191 83.8941 49.1455 83.885C49.172 83.8758 49.1964 83.8616 49.2173 83.843C49.2382 83.8244 49.2553 83.8018 49.2674 83.7766C49.2796 83.7515 49.2867 83.7241 49.2883 83.6962L50.2891 83.5461C50.275 83.7049 50.2945 83.8649 50.3462 84.0157C50.3979 84.1666 50.4808 84.3048 50.5894 84.4216L49.9764 85.1095C49.9402 85.0886 49.8993 85.0777 49.8575 85.0777C49.8158 85.0777 49.7748 85.0886 49.7387 85.1095C49.6982 85.1515 49.6755 85.2075 49.6755 85.2658C49.6755 85.3242 49.6982 85.3802 49.7387 85.4222C49.7575 85.4435 49.7806 85.4605 49.8065 85.4722C49.8323 85.4839 49.8604 85.4899 49.8888 85.4899C49.9172 85.4899 49.9453 85.4839 49.9712 85.4722C49.997 85.4605 50.0201 85.4435 50.0389 85.4222C50.0605 85.4023 50.0778 85.3781 50.0896 85.3512C50.1014 85.3243 50.1075 85.2952 50.1075 85.2658C50.1075 85.2365 50.1014 85.2074 50.0896 85.1805C50.0778 85.1536 50.0605 85.1294 50.0389 85.1095L50.6519 84.4216C50.8024 84.5611 50.9886 84.6564 51.1898 84.6968H51.3274L51.4525 85.5848C51.4137 85.6027 51.3805 85.6307 51.3562 85.6659C51.332 85.7012 51.3178 85.7422 51.3149 85.7849C51.3115 85.8138 51.314 85.8431 51.3223 85.8711C51.3307 85.899 51.3447 85.9249 51.3634 85.9471C51.3822 85.9694 51.4053 85.9876 51.4314 86.0006C51.4575 86.0136 51.486 86.021 51.5151 86.0225C51.5748 86.0225 51.6321 85.9988 51.6743 85.9566C51.7165 85.9144 51.7403 85.8571 51.7403 85.7974C51.7403 85.7377 51.7165 85.6804 51.6743 85.6382C51.6321 85.596 51.5748 85.5723 51.5151 85.5723L51.4025 84.6968C51.5657 84.685 51.7243 84.6374 51.867 84.5575C52.0097 84.4775 52.133 84.367 52.2282 84.234L52.8787 84.8593C52.8539 84.8964 52.8407 84.9399 52.8407 84.9844C52.8407 85.0289 52.8539 85.0725 52.8787 85.1095C52.8975 85.1308 52.9206 85.1478 52.9464 85.1595C52.9723 85.1712 53.0004 85.1773 53.0288 85.1773C53.0572 85.1773 53.0853 85.1712 53.1111 85.1595C53.137 85.1478 53.1601 85.1308 53.1789 85.1095C53.2167 85.0662 53.2376 85.0106 53.2376 84.9532C53.2376 84.8957 53.2167 84.8401 53.1789 84.7968C53.1391 84.7571 53.0851 84.7348 53.0288 84.7348C52.9725 84.7348 52.9185 84.7571 52.8787 84.7968L52.2156 84.1464C52.2927 84.0258 52.3398 83.8886 52.3533 83.7462C52.3781 83.6097 52.3781 83.4699 52.3533 83.3335H53.3415C53.3504 83.3766 53.3717 83.4161 53.4029 83.4472C53.434 83.4784 53.4736 83.4997 53.5167 83.5086C53.5746 83.5158 53.633 83.5003 53.6797 83.4653C53.7263 83.4303 53.7576 83.3785 53.7669 83.3209C53.7748 83.2759 53.7696 83.2295 53.7519 83.1874C53.7341 83.1452 53.7046 83.1091 53.6668 83.0833Z" fill="#3D4035"/>
<path d="M51.1398 81.3331V82.4838H51.3274V81.3456C51.367 81.3323 51.4026 81.3093 51.431 81.2788C51.4594 81.2482 51.4797 81.211 51.4901 81.1705C51.4976 81.1112 51.4825 81.0512 51.4477 81.0025C51.4129 80.9538 51.361 80.92 51.3024 80.9079C51.2742 80.9025 51.2452 80.9032 51.2172 80.91C51.1893 80.9168 51.1632 80.9295 51.1407 80.9473C51.1181 80.9651 51.0997 80.9876 51.0866 81.0131C51.0735 81.0387 51.066 81.0668 51.0647 81.0955C51.0507 81.138 51.0503 81.1838 51.0638 81.2265C51.0773 81.2691 51.1039 81.3065 51.1398 81.3331Z" fill="#3D4035"/>
</svg>
