<svg width="441" height="171" viewBox="0 0 441 171" fill="none" xmlns="http://www.w3.org/2000/svg">
<path d="M201.328 102H186.633V100.336C187.164 100.32 187.844 100.266 188.672 100.172C189.516 100.078 190.094 99.9453 190.406 99.7734C190.891 99.4766 191.242 99.1406 191.461 98.7656C191.695 98.375 191.812 97.8906 191.812 97.3125V73.125H191.461L180.117 101.461H178.945L168.141 72.5391H167.836V92.3906C167.836 94.3125 167.953 95.7734 168.188 96.7734C168.438 97.7734 168.812 98.4922 169.312 98.9297C169.656 99.2578 170.367 99.5703 171.445 99.8672C172.523 100.164 173.227 100.32 173.555 100.336V102H160.125V100.336C160.828 100.273 161.562 100.156 162.328 99.9844C163.109 99.8125 163.711 99.5547 164.133 99.2109C164.68 98.7734 165.055 98.1016 165.258 97.1953C165.461 96.2891 165.562 94.7734 165.562 92.6484V75.6328C165.562 74.6484 165.445 73.8438 165.211 73.2188C164.977 72.5938 164.641 72.0859 164.203 71.6953C163.719 71.2734 163.125 70.9609 162.422 70.7578C161.719 70.5547 161.023 70.4375 160.336 70.4062V68.7422H171.68L181.195 93.6797L189.328 72.8203C189.625 72.0547 189.875 71.2578 190.078 70.4297C190.297 69.5859 190.414 69.0234 190.43 68.7422H201.281V70.4062C200.844 70.4219 200.281 70.4922 199.594 70.6172C198.922 70.7422 198.43 70.8594 198.117 70.9688C197.586 71.1562 197.227 71.4688 197.039 71.9062C196.852 72.3438 196.758 72.8203 196.758 73.3359V97.3125C196.758 97.8594 196.852 98.3203 197.039 98.6953C197.227 99.0703 197.586 99.3984 198.117 99.6797C198.398 99.8359 198.898 99.9844 199.617 100.125C200.336 100.25 200.906 100.32 201.328 100.336V102ZM225.75 96.5625C224.781 98.4062 223.484 99.875 221.859 100.969C220.234 102.062 218.367 102.609 216.258 102.609C214.398 102.609 212.766 102.281 211.359 101.625C209.969 100.969 208.82 100.078 207.914 98.9531C207.008 97.8281 206.328 96.5156 205.875 95.0156C205.438 93.5156 205.219 91.9297 205.219 90.2578C205.219 88.7578 205.453 87.2891 205.922 85.8516C206.406 84.3984 207.109 83.0938 208.031 81.9375C208.922 80.8281 210.023 79.9375 211.336 79.2656C212.664 78.5781 214.148 78.2344 215.789 78.2344C217.477 78.2344 218.922 78.5 220.125 79.0312C221.328 79.5625 222.305 80.2891 223.055 81.2109C223.773 82.0859 224.305 83.1172 224.648 84.3047C225.008 85.4922 225.188 86.7812 225.188 88.1719V89.7188H209.883C209.883 91.2344 210.023 92.6094 210.305 93.8438C210.602 95.0781 211.062 96.1641 211.688 97.1016C212.297 98.0078 213.094 98.7266 214.078 99.2578C215.062 99.7734 216.234 100.031 217.594 100.031C218.984 100.031 220.18 99.7109 221.18 99.0703C222.195 98.4141 223.172 97.2422 224.109 95.5547L225.75 96.5625ZM220.57 87.75C220.57 86.875 220.492 85.9375 220.336 84.9375C220.195 83.9375 219.961 83.1016 219.633 82.4297C219.273 81.7109 218.781 81.125 218.156 80.6719C217.531 80.2188 216.727 79.9922 215.742 79.9922C214.102 79.9922 212.734 80.6797 211.641 82.0547C210.562 83.4141 209.977 85.3125 209.883 87.75H220.57ZM253.945 102H242.625V100.453C242.984 100.422 243.375 100.391 243.797 100.359C244.234 100.328 244.594 100.266 244.875 100.172C245.312 100.031 245.633 99.7891 245.836 99.4453C246.055 99.0859 246.164 98.625 246.164 98.0625V86.1797C246.164 84.5391 245.773 83.2734 244.992 82.3828C244.227 81.4922 243.289 81.0469 242.18 81.0469C241.352 81.0469 240.594 81.1797 239.906 81.4453C239.219 81.6953 238.609 82.0078 238.078 82.3828C237.562 82.7422 237.148 83.1328 236.836 83.5547C236.539 83.9609 236.32 84.2891 236.18 84.5391V97.8281C236.18 98.3594 236.289 98.7969 236.508 99.1406C236.727 99.4844 237.055 99.75 237.492 99.9375C237.82 100.094 238.172 100.211 238.547 100.289C238.938 100.367 239.336 100.422 239.742 100.453V102H228.422V100.453C228.781 100.422 229.148 100.391 229.523 100.359C229.914 100.328 230.25 100.266 230.531 100.172C230.969 100.031 231.289 99.7891 231.492 99.4453C231.711 99.0859 231.82 98.625 231.82 98.0625V83.7891C231.82 83.2578 231.703 82.7734 231.469 82.3359C231.25 81.8828 230.938 81.5156 230.531 81.2344C230.234 81.0469 229.883 80.9141 229.477 80.8359C229.07 80.7422 228.633 80.6797 228.164 80.6484V79.125L235.852 78.6094L236.18 78.9375V82.1953H236.297C236.672 81.8203 237.141 81.375 237.703 80.8594C238.266 80.3281 238.797 79.8984 239.297 79.5703C239.875 79.1953 240.562 78.8828 241.359 78.6328C242.156 78.3828 243.055 78.2578 244.055 78.2578C246.273 78.2578 247.914 78.9531 248.977 80.3438C250.055 81.7188 250.594 83.5547 250.594 85.8516V97.875C250.594 98.4219 250.688 98.8672 250.875 99.2109C251.062 99.5391 251.383 99.7969 251.836 99.9844C252.211 100.141 252.531 100.25 252.797 100.312C253.078 100.375 253.461 100.422 253.945 100.453V102ZM281.555 101.578L274.031 102.094L273.68 101.766V98.8359H273.539C273.164 99.2266 272.742 99.6484 272.273 100.102C271.805 100.539 271.266 100.938 270.656 101.297C269.953 101.719 269.273 102.039 268.617 102.258C267.961 102.477 267.031 102.586 265.828 102.586C263.781 102.586 262.219 101.922 261.141 100.594C260.078 99.25 259.547 97.3047 259.547 94.7578V83.6953C259.547 83.1328 259.438 82.6641 259.219 82.2891C259.016 81.8984 258.711 81.5625 258.305 81.2812C258.023 81.0938 257.672 80.9609 257.25 80.8828C256.828 80.7891 256.383 80.7266 255.914 80.6953V79.1719L263.625 78.6094L263.977 78.9375V94.9922C263.977 96.6641 264.352 97.9219 265.102 98.7656C265.852 99.6094 266.75 100.031 267.797 100.031C268.656 100.031 269.422 99.8984 270.094 99.6328C270.766 99.3672 271.328 99.0547 271.781 98.6953C272.203 98.3672 272.57 98.0234 272.883 97.6641C273.211 97.2891 273.461 96.9453 273.633 96.6328V83.5312C273.633 83.0156 273.523 82.5625 273.305 82.1719C273.086 81.7656 272.781 81.4219 272.391 81.1406C272.109 80.9531 271.688 80.8438 271.125 80.8125C270.578 80.7656 269.961 80.7266 269.273 80.6953V79.1719L277.664 78.6094L278.016 78.9375V97.2891C278.016 97.8203 278.125 98.2734 278.344 98.6484C278.562 99.0234 278.867 99.3438 279.258 99.6094C279.539 99.7812 279.875 99.8984 280.266 99.9609C280.656 100.008 281.086 100.039 281.555 100.055V101.578Z" fill="#87775C"/>
<path d="M428.402 56.0553C419.707 48.6885 422.935 40.1836 422.935 40.1836H408.298C409.036 33.0919 401.343 17.2201 392.16 17.2201H266.673C249.56 -0.640308 221.462 1.01066 220.537 1.06069C219.611 1.11072 191.514 -0.640308 174.4 17.2201H48.913C39.7307 17.2201 32.0371 33.0919 32.7752 40.1836H18.1261C18.1261 40.1836 21.3036 48.6885 12.6718 56.0553C4.03991 63.4222 1 60.8707 1 60.8707V93.7524V110.2C1 110.2 3.97736 107.698 12.6718 115.015C21.3662 122.332 18.1261 130.899 18.1261 130.899H32.7752C32.0371 137.978 39.7307 153.85 48.913 153.85H174.4C191.514 171.71 219.674 170.11 220.537 170.009C221.4 169.909 249.56 171.71 266.673 153.85H392.16C401.343 153.85 409.036 137.978 408.298 130.899H422.935C422.935 130.899 419.707 122.394 428.402 115.015C437.096 107.636 440.073 110.2 440.073 110.2V60.8707C440.073 60.8707 437.084 63.4222 428.402 56.0553Z" stroke="#3D4035" stroke-width="1.54" stroke-linecap="round" stroke-linejoin="round"/>
<path d="M223.064 164.231C221.7 164.231 220.9 164.231 220.812 164.231H220.211C220.124 164.231 219.336 164.231 217.972 164.231C211.855 164.231 190.876 163.168 177.815 149.547C177.375 149.07 176.841 148.687 176.248 148.422C175.654 148.158 175.013 148.017 174.363 148.009H48.913C47.0866 148.009 44.8598 146.483 42.7832 143.819C39.443 139.516 37.6416 133.701 37.8542 131.587C38.0409 129.961 37.5928 128.325 36.6033 127.022C36.1533 126.432 35.5744 125.953 34.9109 125.622C34.2475 125.29 33.517 125.114 32.7752 125.108H23.8056C23.5073 122.246 22.6452 119.472 21.2689 116.946C19.8925 114.419 18.0293 112.19 15.7867 110.387C12.9898 107.843 9.7274 105.864 6.17911 104.559V66.5738C9.73227 65.2783 12.9965 63.2981 15.7867 60.7454C18.0298 58.943 19.8934 56.714 21.2698 54.1872C22.6461 51.6604 23.508 48.886 23.8056 46.0243H32.8378C33.5839 46.0132 34.3174 45.8302 34.9813 45.4897C35.6452 45.1491 36.2216 44.6601 36.6658 44.0606C37.6549 42.7518 38.1029 41.1128 37.9168 39.483C37.7041 37.3692 39.5056 31.5533 42.8457 27.2633C44.9224 24.5993 47.1491 23.0609 48.9756 23.0609H174.4C175.049 23.0557 175.691 22.9177 176.284 22.6553C176.878 22.3928 177.412 22.0116 177.853 21.535C190.913 7.90199 211.892 6.83887 218.01 6.83887C219.373 6.83887 220.161 6.83887 220.249 6.83887H220.812C220.9 6.83887 221.7 6.83887 223.064 6.83887C229.181 6.83887 250.16 7.90199 263.221 21.535C263.661 22.0121 264.195 22.3938 264.789 22.6563C265.382 22.9188 266.024 23.0565 266.673 23.0609H392.16C393.974 23.0609 396.214 24.5993 398.278 27.2633C401.63 31.5533 403.432 37.3692 403.207 39.483C403.021 41.1128 403.469 42.7518 404.458 44.0606C404.902 44.6601 405.478 45.1491 406.142 45.4897C406.806 45.8302 407.54 46.0132 408.286 46.0243H417.318C417.617 48.8897 418.483 51.667 419.866 54.1944C421.249 56.7218 423.122 58.9487 425.374 60.7454C428.159 63.2993 431.419 65.2798 434.969 66.5738V104.496C431.424 105.799 428.165 107.779 425.374 110.324C423.118 112.13 421.244 114.368 419.863 116.906C418.482 119.445 417.621 122.233 417.33 125.108H408.298C407.551 125.122 406.817 125.307 406.154 125.649C405.49 125.992 404.914 126.483 404.47 127.084C403.482 128.389 403.034 130.023 403.219 131.649C403.444 133.763 401.643 139.579 398.29 143.882C396.226 146.546 393.987 148.071 392.173 148.071H266.673C266.023 148.078 265.381 148.218 264.787 148.483C264.194 148.747 263.66 149.131 263.221 149.61C250.16 163.168 229.181 164.231 223.064 164.231Z" stroke="#3D4035" stroke-width="1.54" stroke-linecap="round" stroke-linejoin="round"/>
<path d="M113.427 107.71H327.647" stroke="#3D4035" stroke-width="1.51" stroke-linecap="round" stroke-linejoin="round"/>
<path d="M228.968 21.16C228.905 20.2232 228.516 19.338 227.868 18.6586C226.937 17.3634 225.738 16.2841 224.352 15.4942C223.789 15.2066 223.201 15.0064 222.651 14.6812C221.889 14.2288 221.25 13.5978 220.787 12.8427C220.787 12.3549 220.787 12.7176 220.9 12.2423C220.799 12.5675 220.674 10.8415 220.512 11.1417C220.362 10.8415 220.224 12.5675 220.124 12.2423C220.186 12.7176 220.224 12.3549 220.237 12.8427C219.781 13.6033 219.139 14.2359 218.373 14.6812C217.835 15.0064 217.247 15.2066 216.684 15.4942C215.292 16.2804 214.088 17.3602 213.156 18.6586C212.517 19.3443 212.129 20.2259 212.055 21.16C212.077 21.5691 212.17 21.9713 212.33 22.3482C212.418 22.5772 212.531 22.7954 212.668 22.9986C212.836 23.2296 213.059 23.4156 213.317 23.5399C213.574 23.6643 213.858 23.7232 214.144 23.7115C214.721 23.6603 215.255 23.3867 215.633 22.9486C215.875 22.691 216.04 22.3702 216.108 22.023C216.346 20.6472 214.569 20.6472 214.97 21.6728C215.095 21.973 215.358 22.1856 215.145 22.5233C214.993 22.6983 214.782 22.8123 214.552 22.8445C214.322 22.8767 214.089 22.8248 213.894 22.6984C213.637 22.5033 213.449 22.2318 213.356 21.923C213.233 21.5313 213.219 21.1134 213.316 20.7143C213.413 20.3153 213.617 19.9504 213.906 19.6592C214.014 19.5345 214.154 19.4426 214.311 19.394C214.468 19.3453 214.636 19.3419 214.795 19.384C215.082 19.4841 215.308 19.8092 215.62 19.7967C215.933 19.7842 216.083 19.5466 216.208 19.2714C216.298 18.9934 216.407 18.7218 216.534 18.4585C216.7 18.2195 216.945 18.0462 217.226 17.9685C217.507 17.8909 217.806 17.9138 218.072 18.0332C218.34 18.189 218.574 18.3964 218.761 18.6433C218.948 18.8902 219.083 19.1717 219.161 19.4715C219.222 19.7255 219.298 19.976 219.386 20.222C219.594 20.7114 219.921 21.1412 220.337 21.4727C220.361 21.5078 220.396 21.5341 220.437 21.5478H220.549C220.59 21.5341 220.625 21.5078 220.649 21.4727C221.066 21.1388 221.396 20.7099 221.613 20.222C221.7 19.9843 221.75 19.7217 221.838 19.4715C221.915 19.1717 222.051 18.8902 222.238 18.6433C222.425 18.3964 222.659 18.189 222.926 18.0332C223.192 17.9138 223.491 17.8909 223.772 17.9685C224.053 18.0462 224.298 18.2195 224.465 18.4585C224.602 18.7086 224.665 19.0088 224.79 19.2714C224.915 19.5341 225.115 19.7967 225.378 19.7967C225.641 19.7967 225.916 19.4841 226.204 19.384C226.363 19.3433 226.53 19.3475 226.687 19.3961C226.844 19.4447 226.984 19.5357 227.092 19.6592C227.394 19.9424 227.613 20.3036 227.723 20.7031C227.834 21.1025 227.832 21.5246 227.717 21.923C227.633 22.2359 227.443 22.5099 227.18 22.6984C226.985 22.8248 226.751 22.8767 226.521 22.8445C226.291 22.8123 226.081 22.6983 225.929 22.5233C225.728 22.1856 225.991 21.973 226.104 21.6728C226.504 20.6472 224.728 20.6472 224.965 22.023C225.037 22.3713 225.207 22.6922 225.453 22.9486C225.826 23.387 226.356 23.6611 226.929 23.7115C227.217 23.7242 227.503 23.6658 227.763 23.5414C228.023 23.4171 228.248 23.2306 228.418 22.9986C228.551 22.795 228.66 22.5768 228.743 22.3482C228.892 21.9698 228.969 21.5667 228.968 21.16ZM220.512 18.6586C220.333 18.4032 220.213 18.1119 220.159 17.8051C220.105 17.4983 220.119 17.1835 220.199 16.8825C220.281 16.7144 220.386 16.5586 220.512 16.4198C220.645 16.5549 220.755 16.7113 220.837 16.8825C220.916 17.1795 220.929 17.4902 220.875 17.7928C220.821 18.0953 220.701 18.3823 220.524 18.6336L220.512 18.6586Z" fill="#3D4035"/>
<path d="M235.624 28.5643C235.459 28.2876 235.234 28.0517 234.965 27.8742C234.697 27.6966 234.392 27.5819 234.072 27.5387C231.832 26.9636 229.54 26.6159 227.23 26.5006C226.084 26.5807 224.943 26.3008 223.964 25.7001C223.598 25.3916 223.266 25.0434 222.976 24.662C222.176 23.6489 221.362 22.6358 220.549 21.6353L218.11 24.662C217.828 25.0461 217.5 25.3947 217.134 25.7001C216.156 26.3008 215.014 26.5807 213.869 26.5006C211.558 26.613 209.264 26.9651 207.026 27.5512C206.707 27.5894 206.401 27.7007 206.132 27.8764C205.863 28.0521 205.638 28.2875 205.475 28.5643C205.389 28.7832 205.35 29.0177 205.361 29.2526C205.372 29.4875 205.432 29.7175 205.537 29.9276C205.738 30.3248 206.063 30.6455 206.463 30.8406C206.865 31.054 207.317 31.1539 207.771 31.1297C208.225 31.1054 208.664 30.9579 209.04 30.7031L208.74 32.0288C208.715 32.1569 208.715 32.2885 208.74 32.4166C208.772 32.5406 208.838 32.6532 208.931 32.7416C209.024 32.83 209.14 32.8907 209.265 32.9169C210.779 33.4046 212.268 31.8037 213.844 31.8913C213.053 32.5994 212.465 33.5063 212.143 34.5178C212.093 34.7317 212.093 34.9542 212.143 35.1682C212.189 35.3299 212.275 35.4775 212.393 35.5976C212.511 35.7177 212.657 35.8065 212.818 35.8561C213.128 35.9121 213.446 35.9121 213.756 35.8561C213.47 36.8703 213.541 37.952 213.957 38.9204C214.337 39.8372 215.066 40.5658 215.983 40.9465C216.523 41.1846 217.128 41.2292 217.697 41.0729C218.266 40.9166 218.764 40.5689 219.107 40.0884C219.449 39.608 219.615 39.0242 219.577 38.4355C219.539 37.8467 219.299 37.2891 218.898 36.8567C218.576 36.5731 218.174 36.398 217.747 36.3564C217.504 36.3046 217.25 36.3417 217.032 36.4611C216.814 36.5804 216.646 36.774 216.559 37.0067C216.52 37.1718 216.536 37.3449 216.603 37.5004C216.671 37.6559 216.787 37.7854 216.934 37.8697C216.996 37.9088 217.066 37.9344 217.139 37.9448C217.212 37.9553 217.286 37.9503 217.356 37.9302C217.427 37.9102 217.493 37.8755 217.549 37.8285C217.606 37.7814 217.652 37.7231 217.684 37.6571C217.684 37.6571 218.222 37.9573 218.185 38.2825C218.164 38.4345 218.111 38.5802 218.029 38.7097C217.947 38.8393 217.838 38.9495 217.709 39.0329C217.348 39.2849 216.903 39.3878 216.467 39.3203C216.031 39.2527 215.639 39.0199 215.37 38.6702C215.086 38.2838 214.924 37.8217 214.904 37.3428C214.884 36.8639 215.007 36.3899 215.258 35.9811C215.598 35.5354 216.023 35.1613 216.509 34.8805C218.112 33.9646 219.373 32.5506 220.099 30.8531C220.241 30.5454 220.315 30.2104 220.315 29.8713C220.315 29.5323 220.241 29.1972 220.099 28.8895C219.624 29.2647 219.011 29.665 218.498 29.3523C218.294 29.1695 218.132 28.9456 218.022 28.6955C217.912 28.4453 217.857 28.1747 217.86 27.9014C217.828 27.7488 217.828 27.5913 217.86 27.4386C217.917 27.2952 218.007 27.1668 218.122 27.0634C218.935 26.2254 219.774 25.4375 220.624 24.687C221.487 25.4375 222.338 26.2254 223.126 27.0634C223.241 27.1641 223.328 27.2936 223.376 27.4386C223.408 27.5913 223.408 27.7488 223.376 27.9014C223.289 28.4642 223.176 29.1522 222.738 29.3523C222.301 29.5524 221.613 29.2647 221.137 28.8895C220.991 29.1963 220.916 29.5317 220.916 29.8713C220.916 30.211 220.991 30.5463 221.137 30.8531C221.863 32.5472 223.118 33.9604 224.715 34.8805C225.2 35.1621 225.625 35.5361 225.966 35.9811C226.216 36.3899 226.339 36.8639 226.319 37.3428C226.299 37.8217 226.137 38.2838 225.853 38.6702C225.585 39.0199 225.192 39.2527 224.756 39.3203C224.321 39.3878 223.876 39.2849 223.514 39.0329C223.384 38.9502 223.273 38.8403 223.188 38.7109C223.104 38.5814 223.049 38.4353 223.026 38.2825C223.026 37.9573 223.539 37.6571 223.539 37.6571C223.57 37.7245 223.615 37.7844 223.672 37.8326C223.728 37.8808 223.794 37.9162 223.865 37.9365C223.937 37.9567 224.012 37.9612 224.085 37.9496C224.158 37.9381 224.228 37.9109 224.29 37.8697C224.437 37.7866 224.553 37.6567 224.619 37.5004C224.685 37.3441 224.697 37.1704 224.653 37.0067C224.565 36.774 224.397 36.5804 224.179 36.4611C223.961 36.3417 223.707 36.3046 223.464 36.3564C223.041 36.3981 222.642 36.5733 222.326 36.8567C221.909 37.2842 221.654 37.8439 221.606 38.439C221.558 39.0342 221.719 39.6275 222.061 40.1167C222.404 40.6059 222.906 40.9602 223.482 41.1185C224.058 41.2769 224.671 41.2293 225.215 40.9841C226.129 40.5976 226.856 39.8709 227.242 38.9579C227.654 37.988 227.72 36.9064 227.43 35.8936C227.74 35.9499 228.058 35.9499 228.368 35.8936C228.531 35.8484 228.679 35.761 228.798 35.6402C228.917 35.5195 229.001 35.3696 229.043 35.2057C229.094 34.9918 229.094 34.7692 229.043 34.5553C228.721 33.5438 228.133 32.6369 227.342 31.9288C228.918 31.8412 230.407 33.4422 231.921 32.9544C232.045 32.9256 232.159 32.864 232.252 32.776C232.344 32.688 232.411 32.5769 232.446 32.4541C232.465 32.3255 232.465 32.1949 232.446 32.0664L232.146 30.7406C232.522 30.9955 232.961 31.143 233.415 31.1672C233.869 31.1914 234.321 31.0915 234.723 30.8782C235.12 30.6793 235.444 30.3597 235.649 29.9651C235.746 29.7437 235.794 29.5038 235.79 29.262C235.785 29.0202 235.729 28.7822 235.624 28.5643ZM216.033 27.7638C215.621 28.1493 215.24 28.5676 214.895 29.0146C214.494 29.4148 214.082 29.7775 213.644 30.1527C213.018 30.7846 212.244 31.2491 211.392 31.5035L211.505 30.7031C211.517 30.6538 211.517 30.6023 211.505 30.553C211.475 30.5068 211.431 30.4717 211.379 30.4529C210.975 30.3234 210.553 30.2601 210.128 30.2653C209.907 30.2637 209.689 30.2149 209.489 30.1222C209.288 30.0294 209.109 29.8948 208.965 29.7275C209.443 29.5824 209.943 29.5231 210.441 29.5524C212.433 29.4733 214.365 28.8551 216.033 27.7638ZM218.535 30.8782C217.709 31.7287 217.122 32.8043 216.233 33.6173C215.946 33.8674 215.408 34.4928 214.982 34.4928C214.557 34.4928 214.607 33.9049 214.982 33.6173L215.72 33.0294C216.702 32.3933 217.627 31.6735 218.485 30.8782H218.535ZM225.153 33.0294L225.891 33.6173C226.216 33.9049 226.391 34.4928 225.891 34.4928C225.391 34.4928 224.965 33.8674 224.64 33.6173C223.752 32.8043 223.151 31.7287 222.338 30.8782C223.196 31.6735 224.121 32.3933 225.103 33.0294H225.153ZM231.871 29.6775C231.726 29.8448 231.548 29.9794 231.347 30.0721C231.147 30.1649 230.928 30.2137 230.707 30.2153C230.283 30.2122 229.861 30.2755 229.456 30.4029C229.456 30.4029 229.356 30.4029 229.344 30.5029C229.325 30.5513 229.325 30.6047 229.344 30.653L229.456 31.4535C228.56 31.2002 227.745 30.7173 227.092 30.0527C226.679 29.6775 226.254 29.3147 225.841 28.9145C225.504 28.4647 225.127 28.0461 224.715 27.6638C226.394 28.7435 228.336 29.3446 230.332 29.4023C230.841 29.4037 231.345 29.4969 231.821 29.6775H231.871Z" fill="#3D4035"/>
<path d="M402.744 85.1598C411.232 84.3971 419.64 82.9117 427.876 80.7197C424.528 83.7475 420.395 85.7701 415.949 86.5555C411.504 87.3409 406.927 86.8571 402.744 85.1598Z" fill="#3D4035"/>
<path d="M402.694 84.2718H402.619C402.619 84.2718 404.07 78.8811 414.291 76.7674C419.707 75.6292 428.051 79.7316 428.051 79.7316C427.993 79.7816 427.939 79.836 427.889 79.8942C419.629 82.0594 411.2 83.5238 402.694 84.2718Z" fill="#3D4035"/>
<path d="M397.114 73.8284C397.158 73.8317 397.199 73.8476 397.234 73.8741C397.269 73.9006 397.295 73.9365 397.309 73.9775C397.324 74.0186 397.326 74.0629 397.316 74.1053C397.306 74.1476 397.284 74.1861 397.252 74.2161C384.687 82.6615 369.414 86.0932 354.443 83.8342C354.386 83.8279 354.333 83.7997 354.295 83.7554C354.258 83.7112 354.239 83.6543 354.243 83.5966C354.242 83.5687 354.247 83.5409 354.259 83.5156C354.271 83.4903 354.288 83.4681 354.31 83.451C354.332 83.4339 354.358 83.4222 354.386 83.4171C354.413 83.412 354.441 83.4135 354.468 83.4215C369.354 85.6504 384.534 82.2088 397.002 73.7783C397.044 73.7808 397.084 73.7986 397.114 73.8284Z" fill="#3D4035"/>
<path d="M386.356 88.5871C386.356 88.5871 391.36 86.4858 392.123 81.6455L392.936 76.8052C390.784 77.8871 388.859 79.3734 387.269 81.1827C385.13 83.8343 386.356 88.5871 386.356 88.5871Z" fill="#3D4035"/>
<path d="M372.407 74.8664C372.407 74.8664 376.048 79.4191 381.164 79.6192L386.243 79.8318C384.481 77.8467 382.412 76.1575 380.113 74.8289C376.736 73.1279 372.407 74.8664 372.407 74.8664Z" fill="#3D4035"/>
<path d="M343.547 80.4446C343.547 80.4446 347.6 84.6471 352.629 84.3469L357.633 84.0342C355.691 82.2467 353.479 80.7777 351.078 79.6817C347.625 78.2558 343.547 80.4446 343.547 80.4446Z" fill="#3D4035"/>
<path d="M355.694 77.9432C355.694 77.9432 357.571 82.1457 361.248 83.1838L364.926 84.2094C363.992 82.359 362.767 80.67 361.298 79.2064C359.159 77.3053 355.694 77.9432 355.694 77.9432Z" fill="#3D4035"/>
<path d="M385.793 71.1768C387.995 70.9886 390.181 71.6813 391.873 73.1029L394.375 75.4543C392.71 75.5431 391.043 75.3443 389.446 74.8665C387.157 74.1035 385.793 71.1768 385.793 71.1768Z" fill="#3D4035"/>
<path d="M367.178 78.3809C369.38 78.1927 371.566 78.8854 373.258 80.3071L375.76 82.6584C374.095 82.7472 372.428 82.5484 370.831 82.0706C368.542 81.3327 367.178 78.3809 367.178 78.3809Z" fill="#3D4035"/>
<path d="M375.685 89.0745C375.685 89.0745 376.06 84.8095 379.438 83.0585L382.841 81.3325C382.558 83.2113 381.921 85.0193 380.964 86.6606C379.45 88.8369 375.685 89.0745 375.685 89.0745Z" fill="#3D4035"/>
<path d="M362.825 90.4504C362.825 90.4504 363.738 86.3354 367.328 85.0847L370.906 83.834C370.403 85.6474 369.553 87.3463 368.404 88.8369C366.578 90.7255 362.825 90.4504 362.825 90.4504Z" fill="#3D4035"/>
<path d="M409.111 81.9956C409.261 81.989 409.407 81.947 409.538 81.873C409.668 81.7991 409.779 81.6954 409.862 81.5704C409.918 81.424 409.928 81.2638 409.89 81.1116C409.852 80.9594 409.768 80.8226 409.649 80.7199C409.412 80.5294 409.134 80.3967 408.836 80.3322C408.017 80.1103 407.18 79.9597 406.334 79.8819C405.784 79.8819 405.083 79.7443 404.896 79.219C405.609 79.8944 406.747 79.4317 407.585 78.9189C409.111 78.0058 410.638 77.5806 410.8 74.6789C408.361 74.0035 406.609 76.4299 404.107 76.7051C404.142 75.6964 404.552 74.7372 405.258 74.016C405.814 73.2119 406.268 72.3423 406.609 71.427C406.712 71.2346 406.766 71.0198 406.766 70.8016C406.766 70.5834 406.712 70.3686 406.609 70.1762C406.272 69.751 405.621 69.9011 405.146 70.1762C404.228 70.7236 403.461 71.4923 402.917 72.4122C402.373 73.3321 402.068 74.3737 402.031 75.4418C402.031 76.6926 401.843 77.6931 401.693 78.8563C401.543 80.0195 402.018 80.3072 402.944 80.6449C404.745 81.3328 407.01 82.3584 409.111 81.9956Z" fill="#3D4035"/>
<path d="M400.742 72.0145C401.019 70.7813 401.675 69.6659 402.619 68.8251C402.982 68.5625 403.52 68.3749 403.87 68.6876C404.22 69.0002 404.057 69.5631 403.87 69.9383L402.856 72.8525C403.932 71.4767 405.183 70.0008 406.872 69.8257C407.177 69.7781 407.489 69.8449 407.748 70.0133C407.897 70.1502 408.007 70.3244 408.066 70.5178C408.126 70.7113 408.132 70.9171 408.086 71.114C407.986 71.5032 407.802 71.866 407.548 72.1771C406.909 73.0639 406.175 73.8776 405.358 74.6035C405.751 74.1156 406.236 73.7098 406.785 73.4094C407.335 73.1089 407.938 72.9197 408.561 72.8525C408.876 72.8089 409.198 72.8566 409.487 72.9901C409.634 73.0668 409.753 73.1879 409.827 73.3361C409.901 73.4843 409.926 73.652 409.9 73.8156C409.82 74.0257 409.681 74.2081 409.499 74.3409C408.491 75.2237 407.346 75.9375 406.109 76.4546C406.77 76.0645 407.504 75.8144 408.266 75.7198C409.028 75.6251 409.801 75.6879 410.538 75.9043C410.516 76.1851 410.429 76.457 410.284 76.6981C410.138 76.9392 409.938 77.1428 409.699 77.2926C409.229 77.5695 408.712 77.7561 408.173 77.8429C406.918 78.1196 405.642 78.2911 404.358 78.3557C403.112 78.5887 401.83 78.5417 400.605 78.2181C399.104 77.4427 400.354 73.2652 400.742 72.0145Z" fill="#3D4035"/>
<path d="M401.605 80.2068C401.142 80.2202 400.692 80.0492 400.354 79.7315C400.168 79.4981 400.039 79.2238 399.979 78.931C399.801 78.1258 399.844 77.2873 400.104 76.5046C400.104 76.342 400.292 76.1544 400.442 76.2294C400.592 76.3045 400.517 76.317 400.555 76.3795C400.68 76.6297 400.805 76.8798 400.917 77.13C401.18 77.13 401.38 76.7047 401.605 76.8298C401.686 76.9013 401.739 76.9986 401.756 77.105C401.824 77.4854 401.824 77.8751 401.756 78.2556C402.26 78.4199 402.803 78.4199 403.307 78.2556C403.259 78.6069 403.096 78.9324 402.844 79.1812C403.276 79.1995 403.701 79.3015 404.095 79.4813C404.183 79.4813 404.27 79.5814 404.27 79.669C404.258 80.3694 401.893 80.2318 401.605 80.2068Z" fill="#3D4035"/>
<path d="M398.941 85.1471C398.878 85.6245 398.878 86.1081 398.941 86.5854C398.816 86.5854 398.778 86.4228 398.778 86.2853C398.68 84.5355 398.914 82.7829 399.466 81.1198C399.611 80.7171 399.783 80.3244 399.979 79.9441C400.079 79.7439 400.467 79.2186 400.392 79.794C400.262 80.2083 400.085 80.6069 399.867 80.9822C399.704 81.4074 399.554 81.8452 399.429 82.2329C399.176 83.1871 399.013 84.1627 398.941 85.1471Z" fill="#3D4035"/>
<path d="M397.277 97.0294H397.164C395.192 97.2521 393.323 98.0283 391.773 99.2682C390.882 99.9678 390.116 100.814 389.508 101.77C390.345 102.081 391.213 102.3 392.098 102.42C392.166 103.301 391.941 104.18 391.46 104.921L393.749 105.147C393.524 106.007 393.219 106.845 392.836 107.648C394.682 107.261 396.412 106.45 397.888 105.277C399.365 104.105 400.548 102.604 401.343 100.894C401.705 100.2 401.885 99.4255 401.868 98.6428H401.981C402.068 98.655 402.156 98.655 402.243 98.6428C401.98 99.0045 401.852 99.447 401.881 99.8935C401.881 100.882 401.756 101.87 401.881 102.883C402.083 104.915 402.821 106.857 404.02 108.511C404.689 109.426 405.505 110.225 406.434 110.875C406.736 109.998 406.95 109.093 407.072 108.173C407.939 108.087 408.808 108.323 409.512 108.836C409.587 108.136 409.649 107.16 409.724 106.447C410.561 106.688 411.374 107.006 412.151 107.398C411.817 105.524 411.06 103.752 409.937 102.215C408.814 100.678 407.355 99.418 405.671 98.5302L405.509 98.4427C406.254 98.6668 407.015 98.8341 407.785 98.943C409.753 99.1389 411.736 98.7701 413.502 97.8799C414.507 97.3707 415.42 96.6987 416.205 95.8912C415.445 95.392 414.636 94.9729 413.79 94.6405C413.874 93.7505 414.268 92.9182 414.904 92.2891C414.253 92.064 413.352 91.8013 412.702 91.5887C413.089 90.7848 413.549 90.0186 414.078 89.2998C411.301 89.2763 408.606 90.238 406.472 92.0139C407.496 90.4742 408.135 88.7113 408.336 86.8734C408.469 85.7215 408.414 84.5556 408.173 83.4214C407.371 83.8394 406.616 84.3426 405.921 84.9223C405.24 84.3432 404.777 83.549 404.608 82.671C404.082 83.1212 403.357 83.7716 402.869 84.2344C402.42 83.4359 402.043 82.5987 401.743 81.7329C400.166 84.2933 399.521 87.3195 399.917 90.3004C398.541 88.1076 396.504 86.4083 394.1 85.4476C394.321 86.3215 394.468 87.2127 394.537 88.1116C393.862 88.1116 392.924 87.949 392.248 87.8865C392.599 88.7177 392.661 89.6426 392.423 90.513C391.532 90.4687 390.639 90.519 389.759 90.6631C390.185 91.7261 390.786 92.7108 391.535 93.5773C392.836 95.0959 394.534 96.222 396.439 96.8292C396.714 96.9135 396.994 96.9803 397.277 97.0294ZM404.145 98.205H404.032H404.145Z" fill="#8B6841" stroke="#FCD7A1" stroke-width="0.54" stroke-linecap="round" stroke-linejoin="round"/>
<path d="M399.103 95.0907C398.916 96.0051 399.094 96.9565 399.599 97.7417C400.104 98.5268 400.896 99.0836 401.806 99.2931C402.257 99.3793 402.721 99.3741 403.171 99.2779C403.621 99.1816 404.046 98.9963 404.423 98.7328C404.8 98.4693 405.12 98.133 405.364 97.7437C405.609 97.3544 405.773 96.9201 405.846 96.4665C406.033 95.5502 405.853 94.5973 405.346 93.8119C404.839 93.0264 404.044 92.4708 403.132 92.264C402.681 92.1779 402.217 92.1832 401.769 92.2796C401.32 92.3759 400.895 92.5615 400.519 92.8251C400.144 93.0887 399.825 93.4251 399.582 93.8143C399.338 94.2034 399.176 94.6375 399.103 95.0907Z" fill="#FCD7A1"/>
<path d="M406.297 87.0733L406.722 85.585H406.835L406.397 87.0608C406.369 87.2622 406.298 87.455 406.188 87.6257C406.077 87.7965 405.931 87.9409 405.759 88.0489V87.9489C406.047 87.8488 406.184 87.436 406.297 87.0733Z" fill="#74302E" stroke="#3D4035" stroke-width="0.5" stroke-miterlimit="10"/>
<path d="M404.996 85.1724C404.77 85.9506 404.498 86.7148 404.183 87.4612H404.07C404.391 86.7212 404.663 85.9608 404.883 85.1849L404.996 85.1724Z" fill="#74302E" stroke="#3D4035" stroke-width="0.5" stroke-miterlimit="10"/>
<path d="M402.756 84.747C402.511 85.8255 402.452 86.938 402.581 88.0364H402.469C402.339 86.9255 402.398 85.8007 402.644 84.7095L402.756 84.747Z" fill="#74302E" stroke="#3D4035" stroke-width="0.5" stroke-miterlimit="10"/>
<path d="M409.362 92.8394V92.952C409.344 92.9466 409.328 92.937 409.315 92.9239C409.302 92.9108 409.292 92.8947 409.287 92.8769C409.277 92.8576 409.272 92.8361 409.272 92.8144C409.272 92.7927 409.277 92.7712 409.287 92.7519C409.326 92.7103 409.38 92.6838 409.437 92.6768C410.211 92.5222 410.96 92.2612 411.663 91.9014V92.0014C410.947 92.3638 410.186 92.6288 409.399 92.7894C409.399 92.7894 409.374 92.8144 409.362 92.8394Z" fill="#74302E" stroke="#3D4035" stroke-width="0.5" stroke-miterlimit="10"/>
<path d="M410.362 93.9901H410.262C410.244 93.9417 410.244 93.8883 410.262 93.84C410.305 93.7456 410.381 93.67 410.475 93.6274L412.076 92.7769V92.8894L410.488 93.84C410.434 93.8785 410.391 93.9302 410.362 93.9901Z" fill="#74302E" stroke="#3D4035" stroke-width="0.5" stroke-miterlimit="10"/>
<path d="M411.213 95.3283L412.814 94.9155V95.0281L411.213 95.4283C411.145 95.4444 411.081 95.4742 411.025 95.5159C411.018 95.5446 411.018 95.5747 411.025 95.6034L410.95 95.691C410.942 95.6712 410.938 95.6499 410.938 95.6284C410.938 95.607 410.942 95.5857 410.95 95.5659C410.952 95.5024 410.974 95.4411 411.013 95.3908C411.074 95.3557 411.143 95.3344 411.213 95.3283Z" fill="#74302E" stroke="#3D4035" stroke-width="0.5" stroke-miterlimit="10"/>
<path d="M407.222 104.008L408.561 105.509C408.649 105.622 408.761 105.734 408.886 105.722V105.834H408.811C408.674 105.791 408.555 105.703 408.473 105.584L407.147 104.083L407.222 104.008Z" fill="#74302E" stroke="#3D4035" stroke-width="0.5" stroke-miterlimit="10"/>
<path d="M406.609 105.284H406.709C406.987 105.786 407.318 106.256 407.698 106.685L407.623 106.773C407.232 106.315 406.892 105.816 406.609 105.284Z" fill="#74302E" stroke="#3D4035" stroke-width="0.5" stroke-miterlimit="10"/>
<path d="M406.447 107.673H406.347C405.968 106.704 405.512 105.767 404.983 104.872H405.083C405.611 105.768 406.067 106.705 406.447 107.673Z" fill="#74302E" stroke="#3D4035" stroke-width="0.5" stroke-miterlimit="10"/>
<path d="M396.114 103.345C395.198 103.831 394.259 104.27 393.299 104.659V104.546C394.256 104.183 395.191 103.765 396.101 103.295L396.114 103.345Z" fill="#74302E" stroke="#3D4035" stroke-width="0.5" stroke-miterlimit="10"/>
<path d="M395.35 101.995C394.739 102.403 394.1 102.766 393.436 103.083V102.983C394.096 102.666 394.731 102.303 395.338 101.895L395.35 101.995Z" fill="#74302E" stroke="#3D4035" stroke-width="0.5" stroke-miterlimit="10"/>
<path d="M394.325 100.981L394.387 101.082C393.862 101.457 393.311 101.832 392.761 102.17L392.698 102.082C393.249 101.732 393.799 101.344 394.325 100.981Z" fill="#74302E" stroke="#3D4035" stroke-width="0.5" stroke-miterlimit="10"/>
<path d="M393.361 91.1757C393.46 91.6297 393.656 92.0566 393.937 92.4264C394.048 92.5884 394.212 92.7075 394.4 92.7641V92.8767C394.182 92.8188 393.994 92.6802 393.874 92.489C393.57 92.0929 393.364 91.6298 393.274 91.1382L393.361 91.1757Z" fill="#74302E" stroke="#3D4035" stroke-width="0.5" stroke-miterlimit="10"/>
<path d="M395.35 91.3384C395.014 91.0544 394.704 90.7404 394.425 90.4004C394.333 90.3196 394.26 90.2192 394.213 90.1066C394.165 89.994 394.144 89.8721 394.15 89.75H394.262C394.263 89.853 394.284 89.9549 394.325 90.0495C394.365 90.1441 394.425 90.2294 394.5 90.3003C394.747 90.6749 395.032 91.0228 395.35 91.3384Z" fill="#74302E" stroke="#3D4035" stroke-width="0.5" stroke-miterlimit="10"/>
<path d="M395.526 88.5742H395.638C395.717 89.0864 395.959 89.5598 396.326 89.925L396.251 90.0126C395.857 89.6262 395.602 89.1205 395.526 88.5742Z" fill="#74302E" stroke="#3D4035" stroke-width="0.5" stroke-miterlimit="10"/>
<path d="M400.442 94.5401C400.498 94.5548 400.547 94.5897 400.58 94.6381C400.612 94.6865 400.625 94.7451 400.617 94.8027L401.543 95.2155C401.657 95.0479 401.818 94.9174 402.006 94.8403L401.706 93.7521C401.665 93.7562 401.624 93.7475 401.588 93.7274C401.552 93.7073 401.523 93.6766 401.505 93.6395C401.48 93.5855 401.475 93.5244 401.492 93.4671C401.508 93.4098 401.544 93.36 401.593 93.3269C401.646 93.3007 401.707 93.2965 401.764 93.3153C401.82 93.334 401.866 93.3741 401.893 93.4269C401.917 93.4791 401.922 93.5382 401.906 93.5934C401.89 93.6486 401.854 93.6961 401.806 93.7271L402.106 94.8152C402.274 94.7713 402.451 94.7713 402.619 94.8152C402.782 94.8534 402.935 94.9284 403.065 95.0346C403.195 95.1409 403.299 95.2755 403.369 95.4281V95.3405L404.433 95.0154C404.429 94.9729 404.438 94.9304 404.458 94.8927C404.478 94.8551 404.508 94.8239 404.545 94.8027C404.571 94.79 404.598 94.7825 404.627 94.7807C404.655 94.7789 404.683 94.7828 404.71 94.7921C404.737 94.8014 404.762 94.816 404.783 94.835C404.804 94.854 404.821 94.8771 404.833 94.9028C404.86 94.9544 404.866 95.0146 404.85 95.0706C404.834 95.1265 404.796 95.174 404.745 95.203C404.721 95.2179 404.694 95.2276 404.666 95.2313C404.638 95.235 404.609 95.2326 404.582 95.2243C404.555 95.216 404.529 95.202 404.508 95.1832C404.487 95.1644 404.469 95.1413 404.458 95.1154L403.407 95.4281C403.508 95.6558 403.538 95.9084 403.494 96.1535L404.395 96.6663C404.429 96.6452 404.468 96.6341 404.508 96.6341C404.548 96.6341 404.587 96.6452 404.62 96.6663C404.674 96.6862 404.718 96.7256 404.744 96.7767C404.769 96.8278 404.774 96.8867 404.758 96.9415C404.751 96.9701 404.738 96.9969 404.72 97.0202C404.702 97.0436 404.679 97.0629 404.653 97.077C404.628 97.0911 404.599 97.0997 404.57 97.1022C404.54 97.1047 404.511 97.1011 404.483 97.0916C404.429 97.0717 404.385 97.0322 404.36 96.9811C404.334 96.9301 404.329 96.8712 404.345 96.8164L403.469 96.3036C403.427 96.4553 403.352 96.5962 403.251 96.717C403.149 96.8377 403.023 96.9355 402.881 97.004L403.219 97.8795C403.261 97.8735 403.303 97.8797 403.341 97.8975C403.378 97.9153 403.41 97.9439 403.432 97.9796C403.448 98.0042 403.46 98.0318 403.466 98.0609C403.471 98.0899 403.471 98.1199 403.466 98.1489C403.46 98.178 403.448 98.2056 403.432 98.2302C403.415 98.2548 403.394 98.2759 403.369 98.2923C403.328 98.3292 403.275 98.3496 403.219 98.3496C403.164 98.3496 403.11 98.3292 403.069 98.2923C403.039 98.2417 403.029 98.1817 403.04 98.1239C403.052 98.0661 403.084 98.0147 403.132 97.9796L402.794 97.1041C402.603 97.1671 402.397 97.1671 402.206 97.1041H402.068L401.656 97.892C401.687 97.9222 401.709 97.9603 401.72 98.0021C401.731 98.044 401.73 98.0881 401.718 98.1297C401.709 98.1568 401.695 98.1818 401.676 98.2034C401.657 98.225 401.634 98.2427 401.609 98.2554C401.583 98.2682 401.556 98.2758 401.527 98.2779C401.499 98.2799 401.47 98.2763 401.443 98.2673C401.416 98.2582 401.391 98.2439 401.369 98.2252C401.347 98.2065 401.33 98.1837 401.317 98.1582C401.304 98.1326 401.297 98.1048 401.295 98.0763C401.293 98.0478 401.296 98.0192 401.305 97.9921C401.312 97.9649 401.325 97.9394 401.342 97.9171C401.359 97.8948 401.381 97.8761 401.405 97.8622C401.43 97.8482 401.457 97.8393 401.485 97.8358C401.512 97.8323 401.541 97.8344 401.568 97.842L401.981 97.0666C401.829 96.995 401.695 96.8905 401.589 96.7606C401.483 96.6308 401.408 96.4789 401.368 96.3161L400.542 96.6663C400.554 96.7083 400.552 96.7529 400.536 96.7936C400.52 96.8342 400.492 96.8686 400.455 96.8915C400.415 96.9312 400.361 96.9535 400.304 96.9535C400.248 96.9535 400.194 96.9312 400.154 96.8915C400.124 96.8409 400.114 96.7808 400.125 96.7231C400.137 96.6653 400.17 96.6139 400.217 96.5788C400.258 96.5418 400.312 96.5214 400.367 96.5214C400.422 96.5214 400.476 96.5418 400.517 96.5788L401.355 96.2286C401.331 96.0879 401.331 95.944 401.355 95.8033C401.384 95.6669 401.435 95.536 401.505 95.4156L400.605 95.0154C400.578 95.0478 400.543 95.0728 400.503 95.0881C400.464 95.1034 400.421 95.1085 400.379 95.1029C400.324 95.0881 400.276 95.0527 400.246 95.0039C400.216 94.955 400.205 94.8965 400.217 94.8403C400.195 94.8059 400.184 94.7656 400.185 94.7248C400.187 94.684 400.201 94.6446 400.225 94.6119C400.25 94.5792 400.283 94.5548 400.322 94.542C400.361 94.5291 400.403 94.5285 400.442 94.5401Z" fill="#3D4035"/>
<path d="M403.407 93.8399L402.982 94.8905H402.894L403.319 93.8399C403.287 93.8128 403.262 93.7779 403.247 93.7386C403.231 93.6992 403.226 93.6566 403.232 93.6147C403.236 93.5853 403.247 93.5571 403.262 93.532C403.278 93.5068 403.299 93.4853 403.324 93.4688C403.349 93.4523 403.377 93.4412 403.406 93.4362C403.436 93.4311 403.466 93.4323 403.494 93.4396C403.55 93.4544 403.598 93.4899 403.628 93.5387C403.658 93.5875 403.669 93.646 403.657 93.7023C403.638 93.7506 403.602 93.7907 403.557 93.8158C403.511 93.8409 403.458 93.8494 403.407 93.8399Z" fill="#3D4035"/>
<path d="M383.991 86.6108H383.904C382.131 87.5646 380.655 88.9884 379.638 90.7257C379.053 91.7197 378.631 92.8006 378.387 93.9276C379.282 93.9053 380.171 93.7836 381.039 93.5649C381.422 94.3807 381.519 95.3014 381.314 96.1789C381.977 96.0038 382.866 95.7162 383.529 95.5285C383.61 96.4272 383.61 97.3314 383.529 98.2301C385.117 97.1695 386.445 95.7636 387.413 94.1175C388.382 92.4715 388.965 90.6279 389.121 88.7246C389.223 87.9496 389.124 87.1613 388.833 86.4357H388.958H389.208C389.086 86.8801 389.122 87.3527 389.308 87.774C389.684 88.6871 389.896 89.6626 390.334 90.5631C391.22 92.3804 392.587 93.9204 394.287 95.0158C395.227 95.6096 396.265 96.033 397.352 96.2665C397.333 95.3353 397.216 94.4088 397.002 93.5024C397.774 93.1076 398.662 93.0054 399.504 93.2147C399.329 92.5268 399.053 91.5887 398.878 90.9008C399.739 90.8133 400.607 90.8133 401.468 90.9008C400.511 89.2948 399.193 87.9332 397.619 86.9239C396.045 85.9145 394.257 85.2849 392.398 85.0849H392.223C392.999 85.0106 393.768 84.881 394.525 84.6972C396.452 84.135 398.184 83.0481 399.529 81.5579C400.294 80.7054 400.915 79.7337 401.368 78.6812C400.49 78.5142 399.596 78.4471 398.703 78.4811C398.474 77.6057 398.554 76.6782 398.928 75.8545C398.253 75.8545 397.315 75.9921 396.626 76.0296C396.716 75.1329 396.883 74.2457 397.127 73.3781C394.515 74.4178 392.341 76.326 390.972 78.7813C391.404 76.9722 391.404 75.0871 390.972 73.278C390.677 72.1393 390.195 71.0573 389.546 70.0762C388.936 70.7619 388.403 71.5127 387.957 72.315C387.116 72.0375 386.405 71.4641 385.956 70.7015C385.618 71.3269 385.192 72.2024 384.867 72.8278C384.183 72.2645 383.551 71.6408 382.978 70.9642C382.387 73.9154 382.829 76.98 384.229 79.6443C382.179 77.9814 379.626 77.0602 376.986 77.0302C377.491 77.7636 377.935 78.5375 378.312 79.3441C377.661 79.5442 376.748 79.7944 376.098 80.007C376.723 80.6493 377.103 81.49 377.174 82.3834C376.301 82.6717 375.462 83.0533 374.672 83.5215C375.438 84.3506 376.339 85.0442 377.336 85.5727C379.087 86.4994 381.066 86.9073 383.041 86.7484C383.416 86.7109 383.704 86.6609 383.991 86.6108ZM390.809 85.0849H390.697H390.809Z" fill="#8B6841" stroke="#FCD7A1" stroke-width="0.54" stroke-linecap="round" stroke-linejoin="round"/>
<path d="M385.042 84.0841C385.109 84.545 385.267 84.9877 385.509 85.3856C385.751 85.7835 386.071 86.1283 386.45 86.3994C386.828 86.6705 387.258 86.8622 387.713 86.963C388.167 87.0637 388.638 87.0715 389.096 86.9858C390.01 86.7955 390.814 86.2538 391.333 85.4773C391.853 84.7007 392.046 83.7513 391.873 82.8333C391.808 82.3742 391.651 81.933 391.411 81.5361C391.171 81.1392 390.854 80.7949 390.477 80.5239C390.101 80.2528 389.674 80.0607 389.221 79.9589C388.769 79.8571 388.301 79.8478 387.845 79.9316C386.927 80.1192 386.119 80.6592 385.595 81.4356C385.071 82.212 384.873 83.1629 385.042 84.0841Z" fill="#FCD7A1"/>
<path d="M388.97 73.9156L388.858 72.3647H388.97L389.071 73.9031C389.114 74.1036 389.114 74.3112 389.071 74.5118C389.028 74.7124 388.943 74.9015 388.82 75.0663L388.745 74.9913C388.853 74.8361 388.928 74.661 388.967 74.4762C389.005 74.2915 389.007 74.1009 388.97 73.9156Z" fill="white" stroke="#3D4035" stroke-width="0.5" stroke-linecap="round" stroke-linejoin="round"/>
<path d="M387.094 72.5776C387.14 73.4108 387.14 74.2459 387.094 75.0791H386.981C387.034 74.2461 387.034 73.4106 386.981 72.5776H387.094Z" fill="white" stroke="#3D4035" stroke-width="0.5" stroke-linecap="round" stroke-linejoin="round"/>
<path d="M384.867 73.0903C385.007 74.1816 385.337 75.24 385.843 76.2171H385.743C385.233 75.2274 384.898 74.1568 384.755 73.0527L384.867 73.0903Z" fill="white" stroke="#3D4035" stroke-width="0.5" stroke-linecap="round" stroke-linejoin="round"/>
<path d="M393.812 78.1434V78.2559C393.812 78.2559 393.812 78.2559 393.724 78.2559C393.715 78.2363 393.711 78.215 393.711 78.1934C393.711 78.1718 393.715 78.1505 393.724 78.1309C393.748 78.0784 393.787 78.0347 393.837 78.0058C394.506 77.5644 395.115 77.0389 395.651 76.4424L395.726 76.5174C395.191 77.1314 394.572 77.6663 393.887 78.1058C393.887 78.1058 393.824 78.1184 393.812 78.1434Z" fill="white" stroke="#3D4035" stroke-width="0.5" stroke-linecap="round" stroke-linejoin="round"/>
<path d="M395.125 78.8314L395.05 78.9189C395.041 78.8993 395.037 78.878 395.037 78.8564C395.037 78.8348 395.041 78.8135 395.05 78.7939C395.052 78.6852 395.097 78.5819 395.175 78.5062L396.426 77.1304L396.514 77.2054L395.263 78.5937C395.22 78.6168 395.185 78.6512 395.161 78.6931C395.136 78.7351 395.124 78.7829 395.125 78.8314Z" fill="white" stroke="#3D4035" stroke-width="0.5" stroke-linecap="round" stroke-linejoin="round"/>
<path d="M396.401 79.7693L397.765 78.7812L397.852 78.8313L396.489 79.8069C396.431 79.8442 396.383 79.8959 396.351 79.9569C396.345 79.9708 396.342 79.9857 396.342 80.0007C396.342 80.0158 396.345 80.0306 396.351 80.0445V80.1446C396.351 80.1446 396.276 80.1446 396.251 80.0445C396.233 79.9875 396.233 79.9263 396.251 79.8694C396.294 79.8257 396.345 79.7916 396.401 79.7693Z" fill="white" stroke="#3D4035" stroke-width="0.5" stroke-linecap="round" stroke-linejoin="round"/>
<path d="M395.688 89.3623L397.452 90.2628C397.506 90.3007 397.567 90.3269 397.632 90.3398C397.697 90.3527 397.763 90.352 397.828 90.3379V90.4504H397.853C397.711 90.4665 397.569 90.431 397.452 90.3504L395.688 89.4624V89.3623Z" fill="white" stroke="#3D4035" stroke-width="0.5" stroke-linecap="round" stroke-linejoin="round"/>
<path d="M395.513 90.8004L395.576 90.7129C396.013 91.0778 396.486 91.3964 396.989 91.6634V91.7635C396.462 91.4999 395.967 91.1768 395.513 90.8004Z" fill="white" stroke="#3D4035" stroke-width="0.5" stroke-linecap="round" stroke-linejoin="round"/>
<path d="M396.239 93.0771L396.151 93.1522C395.463 92.3918 394.714 91.689 393.912 91.0509V90.9634C394.745 91.6024 395.523 92.3094 396.239 93.0771Z" fill="white" stroke="#3D4035" stroke-width="0.5" stroke-linecap="round" stroke-linejoin="round"/>
<path d="M385.092 92.9395C384.404 93.7275 383.679 94.4904 382.916 95.2159L382.841 95.0908C383.607 94.3722 384.334 93.6123 385.017 92.8145L385.092 92.9395Z" fill="white" stroke="#3D4035" stroke-width="0.5" stroke-linecap="round" stroke-linejoin="round"/>
<path d="M383.854 91.9886C383.422 92.5989 382.95 93.1797 382.44 93.7271L382.365 93.6396C382.87 93.0956 383.338 92.5191 383.766 91.9136L383.854 91.9886Z" fill="white" stroke="#3D4035" stroke-width="0.5" stroke-linecap="round" stroke-linejoin="round"/>
<path d="M382.615 91.4009H382.703C382.34 91.9512 381.965 92.514 381.565 93.0393L381.477 92.9643C381.877 92.5015 382.253 91.9512 382.615 91.4009Z" fill="white" stroke="#3D4035" stroke-width="0.5" stroke-linecap="round" stroke-linejoin="round"/>
<path d="M378.325 82.5835C378.567 82.9927 378.907 83.3362 379.313 83.5841C379.475 83.6933 379.668 83.746 379.863 83.7342V83.8467C379.642 83.8632 379.422 83.806 379.238 83.6841C378.815 83.4243 378.459 83.0687 378.199 82.646L378.325 82.5835Z" fill="white" stroke="#3D4035" stroke-width="0.5" stroke-linecap="round" stroke-linejoin="round"/>
<path d="M380.214 82.0578C379.781 81.922 379.362 81.7462 378.962 81.5325C378.854 81.4851 378.756 81.4163 378.674 81.3304C378.593 81.2445 378.529 81.1431 378.487 81.0322H378.6C378.6 81.2323 378.837 81.3574 379.013 81.4575C379.388 81.6641 379.782 81.8358 380.188 81.9703L380.214 82.0578Z" fill="white" stroke="#3D4035" stroke-width="0.5" stroke-linecap="round" stroke-linejoin="round"/>
<path d="M379.438 79.3813H379.538C379.786 79.8308 380.178 80.1834 380.651 80.3819V80.4945C380.136 80.2654 379.71 79.8745 379.438 79.3813Z" fill="white" stroke="#3D4035" stroke-width="0.5" stroke-linecap="round" stroke-linejoin="round"/>
<path d="M386.093 83.0836C386.12 83.0782 386.148 83.0786 386.176 83.0847C386.203 83.0907 386.228 83.1024 386.251 83.1188C386.273 83.1353 386.292 83.1562 386.305 83.1803C386.319 83.2044 386.328 83.2311 386.331 83.2587H387.344C387.401 83.0628 387.509 82.8857 387.657 82.7459L387.006 81.8454C386.971 81.869 386.93 81.8817 386.888 81.8817C386.845 81.8817 386.804 81.869 386.769 81.8454C386.73 81.8001 386.709 81.7424 386.709 81.6828C386.709 81.6231 386.73 81.5655 386.769 81.5202C386.811 81.4797 386.867 81.457 386.925 81.457C386.983 81.457 387.039 81.4797 387.081 81.5202C387.119 81.5635 387.14 81.619 387.14 81.6765C387.14 81.734 387.119 81.7896 387.081 81.8329L387.732 82.7334C387.868 82.6202 388.032 82.5466 388.207 82.5208C388.37 82.4914 388.538 82.501 388.697 82.5488C388.856 82.5966 389.001 82.6813 389.121 82.7959V82.7209L389.984 82.033C389.965 81.9961 389.955 81.9554 389.955 81.9141C389.955 81.8729 389.965 81.8322 389.984 81.7953C390.004 81.7737 390.028 81.7565 390.055 81.7447C390.082 81.7329 390.111 81.7268 390.14 81.7268C390.17 81.7268 390.199 81.7329 390.225 81.7447C390.252 81.7565 390.277 81.7737 390.296 81.7953C390.337 81.8373 390.36 81.8934 390.36 81.9517C390.36 82.01 390.337 82.0661 390.296 82.108C390.278 82.1293 390.255 82.1464 390.229 82.158C390.203 82.1697 390.175 82.1758 390.146 82.1758C390.118 82.1758 390.09 82.1697 390.064 82.158C390.038 82.1464 390.015 82.1293 389.996 82.108L389.121 82.8084C389.304 82.9752 389.424 83.2008 389.458 83.4463L390.484 83.5964C390.497 83.5554 390.521 83.5191 390.555 83.4923C390.588 83.4655 390.629 83.4495 390.672 83.4463C390.729 83.4462 390.785 83.4682 390.827 83.5078C390.869 83.5473 390.894 83.6014 390.897 83.6589C390.9 83.6878 390.898 83.7172 390.89 83.7451C390.881 83.773 390.867 83.7989 390.849 83.8212C390.83 83.8435 390.807 83.8616 390.781 83.8746C390.754 83.8876 390.726 83.8951 390.697 83.8966C390.669 83.8983 390.641 83.8944 390.614 83.8853C390.588 83.8761 390.564 83.8618 390.543 83.8432C390.522 83.8246 390.505 83.8021 390.493 83.7769C390.48 83.7517 390.473 83.7244 390.472 83.6964L389.471 83.5464C389.485 83.7052 389.465 83.8652 389.414 84.016C389.362 84.1668 389.279 84.3051 389.171 84.4219L389.784 85.1098C389.82 85.0889 389.861 85.0779 389.902 85.0779C389.944 85.0779 389.985 85.0889 390.021 85.1098C390.062 85.1517 390.084 85.2078 390.084 85.2661C390.084 85.3244 390.062 85.3805 390.021 85.4224C389.981 85.4622 389.927 85.4845 389.871 85.4845C389.815 85.4845 389.761 85.4622 389.721 85.4224C389.699 85.4025 389.682 85.3784 389.67 85.3515C389.659 85.3246 389.653 85.2955 389.653 85.2661C389.653 85.2367 389.659 85.2077 389.67 85.1808C389.682 85.1539 389.699 85.1297 389.721 85.1098L389.096 84.4219C388.952 84.5639 388.769 84.6598 388.57 84.697H388.42L388.307 85.585C388.346 85.603 388.38 85.631 388.404 85.6662C388.428 85.7014 388.442 85.7425 388.445 85.7852C388.449 85.8141 388.446 85.8434 388.438 85.8713C388.429 85.8992 388.415 85.9251 388.397 85.9474C388.378 85.9697 388.355 85.9879 388.329 86.0009C388.302 86.0138 388.274 86.0213 388.245 86.0228C388.216 86.0245 388.187 86.0203 388.16 86.0103C388.132 86.0004 388.107 85.985 388.086 85.9651C388.065 85.9452 388.048 85.9212 388.037 85.8945C388.026 85.8679 388.02 85.8392 388.02 85.8102C388.016 85.7524 388.035 85.6956 388.072 85.6513C388.109 85.6071 388.162 85.5789 388.22 85.5725L388.332 84.697C388.169 84.6853 388.011 84.6377 387.868 84.5577C387.725 84.4777 387.602 84.3673 387.507 84.2343L386.856 84.8596C386.878 84.8976 386.89 84.9408 386.89 84.9847C386.89 85.0286 386.878 85.0717 386.856 85.1098C386.837 85.1311 386.814 85.1481 386.788 85.1598C386.763 85.1715 386.735 85.1775 386.706 85.1775C386.678 85.1775 386.65 85.1715 386.624 85.1598C386.598 85.1481 386.575 85.1311 386.556 85.1098C386.518 85.0665 386.497 85.0109 386.497 84.9534C386.497 84.8959 386.518 84.8404 386.556 84.7971C386.596 84.7574 386.65 84.7351 386.706 84.7351C386.762 84.7351 386.816 84.7574 386.856 84.7971L387.519 84.1467C387.444 84.0244 387.393 83.8884 387.369 83.7465C387.35 83.6095 387.35 83.4707 387.369 83.3337H386.381C386.369 83.3756 386.347 83.4138 386.316 83.4445C386.286 83.4752 386.248 83.4974 386.206 83.5088C386.148 83.5161 386.089 83.5005 386.043 83.4655C385.996 83.4305 385.965 83.3788 385.956 83.3212C385.951 83.2722 385.962 83.2231 385.987 83.1805C386.011 83.138 386.048 83.1041 386.093 83.0836Z" fill="#3D4035"/>
<path d="M388.62 81.3326V82.4833H388.52V81.3451C388.48 81.3329 388.444 81.3102 388.415 81.2795C388.387 81.2487 388.367 81.2109 388.357 81.17C388.349 81.1124 388.363 81.0538 388.395 81.0054C388.427 80.957 388.476 80.9221 388.533 80.9073C388.561 80.902 388.591 80.9027 388.62 80.9094C388.648 80.9161 388.675 80.9287 388.699 80.9463C388.722 80.964 388.742 80.9863 388.756 81.0118C388.771 81.0374 388.78 81.0657 388.783 81.0949C388.79 81.1477 388.778 81.2015 388.748 81.2455C388.718 81.2895 388.672 81.3206 388.62 81.3326Z" fill="#3D4035"/>
<path d="M37.0161 85.1598C28.5153 84.3966 20.0949 82.9112 11.8461 80.7197C15.1997 83.7507 19.3401 85.775 23.7921 86.5604C28.2442 87.3457 32.8275 86.8603 37.0161 85.1598Z" fill="#3D4035"/>
<path d="M37.0661 84.2718H37.1412C37.1412 84.2718 35.6775 78.8811 25.4694 76.7674C20.0526 75.6292 11.7085 79.7316 11.7085 79.7316L11.8711 79.8942C20.1313 82.0594 28.5596 83.5238 37.0661 84.2718Z" fill="#3D4035"/>
<path d="M42.6456 73.8284C42.6021 73.8317 42.5606 73.8476 42.5261 73.8741C42.4915 73.9006 42.4653 73.9365 42.4508 73.9775C42.4362 74.0186 42.4339 74.0629 42.444 74.1053C42.4542 74.1476 42.4764 74.1861 42.5079 74.2161C55.0725 82.6615 70.3463 86.0932 85.3169 83.8342C85.3733 83.8252 85.4245 83.7962 85.4612 83.7526C85.498 83.709 85.5178 83.6536 85.5171 83.5966C85.5183 83.5687 85.5127 83.5409 85.501 83.5156C85.4893 83.4903 85.4717 83.4681 85.4496 83.451C85.4276 83.4339 85.4018 83.4222 85.3743 83.4171C85.3469 83.412 85.3186 83.4135 85.2919 83.4215C70.4062 85.6504 55.2261 82.2088 42.7581 73.7783C42.7158 73.7808 42.6758 73.7986 42.6456 73.8284Z" fill="#3D4035"/>
<path d="M53.4041 88.5871C53.4041 88.5871 48.4001 86.4858 47.637 81.6455L46.8239 76.8052C48.9764 77.8871 50.9005 79.3734 52.4909 81.1827C54.6301 83.8343 53.4041 88.5871 53.4041 88.5871Z" fill="#3D4035"/>
<path d="M67.3527 74.8664C67.3527 74.8664 63.7123 79.4191 58.5957 79.6192L53.5167 79.8318C55.2788 77.8467 57.3484 76.1575 59.6465 74.8289C63.0242 73.1279 67.3527 74.8664 67.3527 74.8664Z" fill="#3D4035"/>
<path d="M96.2131 80.4446C96.2131 80.4446 92.1599 84.6471 87.1309 84.3469L82.1269 84.0342C84.0659 82.2432 86.2789 80.7738 88.6821 79.6817C92.1348 78.2558 96.2131 80.4446 96.2131 80.4446Z" fill="#3D4035"/>
<path d="M84.0659 77.9432C84.0659 77.9432 82.1894 82.1457 78.5115 83.1838L74.8336 84.2094C75.7683 82.359 76.9931 80.67 78.4615 79.2064C80.6007 77.3053 84.0659 77.9432 84.0659 77.9432Z" fill="#3D4035"/>
<path d="M53.967 71.1768C51.7653 70.9886 49.5788 71.6813 47.8872 73.1029L45.3852 75.4543C47.0498 75.5431 48.7172 75.3443 50.3141 74.8665C52.5784 74.1035 53.967 71.1768 53.967 71.1768Z" fill="#3D4035"/>
<path d="M72.5943 78.3809C70.3926 78.1927 68.206 78.8854 66.5145 80.3071L64.0125 82.6584C65.6771 82.7472 67.3445 82.5484 68.9414 82.0706C71.2057 81.3327 72.5943 78.3809 72.5943 78.3809Z" fill="#3D4035"/>
<path d="M64.0751 89.0745C64.0751 89.0745 63.6998 84.8095 60.3221 83.0585L56.9569 81.3325C57.2466 83.2016 57.883 85.0002 58.8334 86.6356C60.3096 88.8369 64.0751 89.0745 64.0751 89.0745Z" fill="#3D4035"/>
<path d="M76.9228 90.4504C76.9228 90.4504 76.022 86.3354 72.4317 85.0847L68.8539 83.834C69.3572 85.6474 70.2068 87.3463 71.3558 88.8369C73.1448 90.7255 76.9228 90.4504 76.9228 90.4504Z" fill="#3D4035"/>
<path d="M30.6861 81.9956C30.5384 81.987 30.3948 81.9441 30.2667 81.8703C30.1386 81.7965 30.0295 81.6938 29.948 81.5704C29.8917 81.424 29.8819 81.2638 29.9199 81.1116C29.958 80.9594 30.042 80.8226 30.1606 80.7199C30.398 80.5294 30.6764 80.3967 30.9738 80.3322C31.7933 80.1103 32.6304 79.9597 33.4758 79.8819C34.0262 79.8819 34.7268 79.7443 34.9144 79.219C34.1888 79.8944 33.0629 79.4317 32.2248 78.9189C30.6986 78.0058 29.1724 77.5806 29.0097 74.6789C31.4492 74.0035 33.188 76.4299 35.7025 76.7051C35.6683 75.6964 35.2578 74.7372 34.5516 74.016C33.9963 73.2119 33.5425 72.3423 33.2006 71.427C33.0976 71.2346 33.0438 71.0198 33.0438 70.8016C33.0438 70.5834 33.0976 70.3686 33.2006 70.1762C33.5383 69.751 34.1888 69.9011 34.6517 70.1762C35.573 70.7212 36.3423 71.4891 36.8888 72.4092C37.4354 73.3294 37.7415 74.3723 37.7792 75.4418C37.7792 76.6926 37.9668 77.6931 38.117 78.8563C38.2671 80.0195 37.7792 80.3072 36.866 80.6449C35.0645 81.3328 32.7502 82.3584 30.6861 81.9956Z" fill="#3D4035"/>
<path d="M39.0177 72.0145C38.7413 70.7813 38.085 69.6659 37.1412 68.8251C36.7784 68.5625 36.2405 68.3749 35.8902 68.6876C35.5399 69.0002 35.7025 69.5631 35.8902 69.9383L36.9535 72.79C35.8777 71.4142 34.6267 69.9383 32.9379 69.7632C32.6328 69.7155 32.3209 69.7824 32.0622 69.9508C31.9097 70.0852 31.7975 70.2592 31.7379 70.4535C31.6782 70.6477 31.6736 70.8547 31.7244 71.0514C31.8243 71.4407 32.0078 71.8035 32.2623 72.1146C32.8968 73.0007 33.6267 73.8144 34.439 74.541C33.6435 73.5588 32.4929 72.9296 31.2365 72.79C30.917 72.7474 30.592 72.795 30.2983 72.9275C30.1524 73.0047 30.0349 73.1263 29.9629 73.2747C29.8909 73.4232 29.8682 73.5907 29.8979 73.753C29.9784 73.9594 30.1122 74.1406 30.2857 74.2783C31.2946 75.1833 32.4438 75.9183 33.6884 76.4546C33.0273 76.0645 32.2931 75.8144 31.5313 75.7198C30.7696 75.6251 29.9964 75.6879 29.2599 75.9043C29.2772 76.1818 29.3584 76.4515 29.4973 76.6924C29.6362 76.9332 29.829 77.1387 30.0606 77.2926C30.5306 77.5695 31.0482 77.7561 31.5868 77.8429C32.8422 78.1196 34.1184 78.2911 35.4023 78.3557C36.648 78.5887 37.93 78.5417 39.1553 78.2181C40.694 77.4427 39.3805 73.2652 39.0177 72.0145Z" fill="#3D4035"/>
<path d="M38.217 80.2068C38.6805 80.2202 39.1304 80.0492 39.468 79.7315C39.6547 79.4981 39.7833 79.2238 39.8433 78.931C40.0216 78.1258 39.9784 77.2873 39.7182 76.5046C39.7182 76.342 39.5306 76.1544 39.3805 76.2294C39.3272 76.2655 39.2876 76.3183 39.2679 76.3795L38.8926 77.13C38.6424 77.13 38.4422 76.7047 38.217 76.8298C38.1365 76.9013 38.0834 76.9986 38.0669 77.105C37.9982 77.4854 37.9982 77.8751 38.0669 78.2556C37.5629 78.4199 37.0197 78.4199 36.5157 78.2556C36.5632 78.6069 36.726 78.9324 36.9786 79.1812C36.5251 79.193 36.0786 79.2951 35.665 79.4813C35.5899 79.4813 35.4899 79.5814 35.5024 79.669C35.5024 80.3694 37.8668 80.2318 38.217 80.2068Z" fill="#3D4035"/>
<path d="M40.8066 85.1471C40.8759 85.6241 40.8759 86.1085 40.8066 86.5854C40.9317 86.5854 40.9692 86.4228 40.9692 86.2853C41.0671 84.5355 40.8337 82.7829 40.2812 81.1198C40.136 80.7171 39.9647 80.3244 39.7683 79.9441C39.6682 79.7439 39.2804 79.2186 39.3554 79.794C39.4858 80.2083 39.6621 80.6069 39.8809 80.9822C40.0435 81.4074 40.1936 81.8452 40.3187 82.2329C40.5775 83.1858 40.7409 84.162 40.8066 85.1471Z" fill="#3D4035"/>
<path d="M43.3586 96.8292C45.2638 96.222 46.9619 95.0959 48.2625 93.5773C49.0251 92.7136 49.6381 91.7287 50.0764 90.6631C49.1961 90.519 48.3028 90.4687 47.4118 90.513C47.1743 89.6426 47.236 88.7177 47.587 87.8865C46.9114 87.949 45.9732 88.0616 45.2977 88.1116C45.3672 87.2127 45.5137 86.3215 45.7355 85.4476C43.2718 86.4846 41.2185 88.3045 39.8934 90.6256C40.2785 87.6435 39.6294 84.6196 38.0544 82.0581C37.7645 82.9258 37.3917 83.7635 36.941 84.5596C36.4156 84.0968 35.69 83.4464 35.2021 82.9962C35.0501 83.8658 34.6094 84.6589 33.9511 85.2475C33.2546 84.6706 32.4999 84.1676 31.6994 83.7466C31.4517 84.88 31.3967 86.047 31.5367 87.1986C31.7378 89.0365 32.377 90.7994 33.4007 92.3391C31.2664 90.5632 28.5714 89.6015 25.7947 89.625C26.3187 90.3468 26.7791 91.1126 27.1708 91.9139C26.5202 92.1265 25.6195 92.3891 24.969 92.6143C25.6043 93.2434 25.9983 94.0756 26.0824 94.9657C25.2354 95.2956 24.426 95.7148 23.668 96.2164C24.4423 96.9784 25.3334 97.6117 26.3076 98.0925C28.0735 98.9827 30.0566 99.3515 32.0246 99.1556C32.7951 99.0467 33.5562 98.8794 34.3014 98.6553L34.1388 98.7429C32.4495 99.625 30.9842 100.881 29.8546 102.416C28.725 103.951 27.9611 105.723 27.6211 107.598C28.4022 107.208 29.2191 106.893 30.0606 106.66C30.1356 107.373 30.1982 108.348 30.2732 109.049C30.9771 108.535 31.8456 108.299 32.7127 108.386C32.8349 109.306 33.0486 110.211 33.3507 111.088C34.2801 110.438 35.0958 109.639 35.7651 108.724C36.9641 107.07 37.7023 105.128 37.9043 103.095C38.0044 102.082 37.9043 101.094 37.9043 100.106C37.9373 99.6591 37.8183 99.2139 37.5665 98.8429C37.6537 98.8551 37.7421 98.8551 37.8292 98.8429H37.9418C37.9247 99.6256 38.1054 100.4 38.4672 101.094C39.262 102.804 40.4448 104.305 41.9216 105.477C43.3983 106.65 45.1283 107.462 46.974 107.848C46.5914 107.045 46.2856 106.207 46.0608 105.347L48.3501 105.122C47.8634 104.383 47.6387 103.502 47.7121 102.62C48.5966 102.5 49.4651 102.282 50.3016 101.97C49.6913 101.016 48.926 100.17 48.0373 99.4683C46.4867 98.1502 44.5884 97.3076 42.5705 97.0419H42.4579C42.7626 96.9914 43.0635 96.9204 43.3586 96.8292ZM35.6775 98.155H35.5649H35.6775Z" fill="#8B6841" stroke="#FCD7A1" stroke-width="0.54" stroke-linecap="round" stroke-linejoin="round"/>
<path d="M40.6315 95.0907C40.8185 96.0051 40.6406 96.9565 40.1358 97.7417C39.6309 98.5268 38.8391 99.0836 37.9293 99.2931C37.4777 99.3793 37.0135 99.3741 36.5639 99.2779C36.1144 99.1816 35.6887 98.9963 35.312 98.7328C34.9353 98.4693 34.6153 98.133 34.3708 97.7437C34.1263 97.3544 33.9624 96.9201 33.8886 96.4665C33.7019 95.5502 33.8815 94.5973 34.3889 93.8119C34.8963 93.0264 35.6912 92.4708 36.6033 92.264C37.0541 92.1779 37.5176 92.1832 37.9664 92.2796C38.4151 92.3759 38.84 92.5615 39.2156 92.8251C39.5913 93.0887 39.9102 93.4251 40.1534 93.8143C40.3966 94.2034 40.5592 94.6375 40.6315 95.0907Z" fill="#FCD7A1"/>
<path d="M33.4633 87.0733L33.0379 85.585H32.9253L33.3632 87.0608C33.3907 87.2622 33.4621 87.455 33.5724 87.6257C33.6826 87.7965 33.829 87.9409 34.0012 88.0489V87.9489C33.7135 87.8488 33.5759 87.436 33.4633 87.0733Z" fill="#74302E" stroke="#3D4035" stroke-width="0.5" stroke-miterlimit="10"/>
<path d="M34.7643 85.1725C34.9903 85.9507 35.2618 86.715 35.5774 87.4613H35.6775C35.3581 86.6866 35.0866 85.893 34.8644 85.085L34.7643 85.1725Z" fill="#74302E" stroke="#3D4035" stroke-width="0.5" stroke-miterlimit="10"/>
<path d="M37.0036 84.747C37.249 85.8255 37.3082 86.938 37.1787 88.0364H37.2913C37.4144 86.9253 37.3553 85.8015 37.1162 84.7095L37.0036 84.747Z" fill="#74302E" stroke="#3D4035" stroke-width="0.5" stroke-miterlimit="10"/>
<path d="M30.3983 92.8394V92.952C30.4317 92.9369 30.4584 92.9103 30.4734 92.8769C30.4833 92.8576 30.4884 92.8361 30.4884 92.8144C30.4884 92.7927 30.4833 92.7712 30.4734 92.7519C30.4335 92.7103 30.3805 92.6838 30.3233 92.6768C29.5483 92.5242 28.7986 92.2632 28.0965 91.9014V92.0014C28.8128 92.3638 29.5743 92.6288 30.3608 92.7894C30.3608 92.7894 30.3858 92.8144 30.3983 92.8394Z" fill="#74302E" stroke="#3D4035" stroke-width="0.5" stroke-miterlimit="10"/>
<path d="M29.4226 93.9901H29.5226C29.5348 93.9408 29.5348 93.8893 29.5226 93.84C29.48 93.7456 29.4044 93.67 29.31 93.6274L27.7087 92.7769V92.8894L29.31 93.7274C29.35 93.7576 29.3814 93.7977 29.4012 93.8438C29.4209 93.8898 29.4283 93.9403 29.4226 93.9901Z" fill="#74302E" stroke="#3D4035" stroke-width="0.5" stroke-miterlimit="10"/>
<path d="M28.5469 95.3283L26.9456 94.9155V95.0281L28.5469 95.4283C28.6147 95.4444 28.6786 95.4742 28.7345 95.5159C28.7419 95.5446 28.7419 95.5747 28.7345 95.6034L28.8096 95.691C28.8178 95.6712 28.8221 95.6499 28.8221 95.6284C28.8221 95.607 28.8178 95.5857 28.8096 95.5659C28.8078 95.5024 28.7859 95.4411 28.747 95.3908C28.6856 95.3557 28.6173 95.3344 28.5469 95.3283Z" fill="#74302E" stroke="#3D4035" stroke-width="0.5" stroke-miterlimit="10"/>
<path d="M32.5625 104.008L31.224 105.509C31.1364 105.622 31.0238 105.734 30.8987 105.722V105.834H30.9738C31.111 105.791 31.2298 105.703 31.3116 105.584L32.5625 104.083V104.008Z" fill="#74302E" stroke="#3D4035" stroke-width="0.5" stroke-miterlimit="10"/>
<path d="M33.2006 105.284H33.1005C32.8188 105.783 32.4877 106.252 32.1122 106.685L32.1873 106.773C32.5781 106.315 32.9179 105.816 33.2006 105.284Z" fill="#74302E" stroke="#3D4035" stroke-width="0.5" stroke-miterlimit="10"/>
<path d="M33.3006 107.673H33.4132C33.7915 106.704 34.2475 105.767 34.7768 104.872H34.6767C34.1494 105.77 33.6894 106.707 33.3006 107.673Z" fill="#74302E" stroke="#3D4035" stroke-width="0.5" stroke-miterlimit="10"/>
<path d="M43.6463 103.345C44.5614 103.831 45.5009 104.27 46.4611 104.659V104.546C45.5041 104.183 44.5685 103.765 43.6589 103.295L43.6463 103.345Z" fill="#74302E" stroke="#3D4035" stroke-width="0.5" stroke-miterlimit="10"/>
<path d="M44.472 101.995C45.0831 102.403 45.7227 102.766 46.386 103.083V102.983C45.7254 102.669 45.0897 102.305 44.4845 101.895L44.472 101.995Z" fill="#74302E" stroke="#3D4035" stroke-width="0.5" stroke-miterlimit="10"/>
<path d="M45.4353 100.981V101.082C45.9607 101.457 46.5111 101.832 47.0616 102.17V102.082C46.4986 101.732 45.9607 101.344 45.4353 100.981Z" fill="#74302E" stroke="#3D4035" stroke-width="0.5" stroke-miterlimit="10"/>
<path d="M46.3985 91.1757C46.3005 91.6297 46.104 92.0566 45.8231 92.4264C45.7118 92.5884 45.5485 92.7075 45.3602 92.7641V92.8767C45.5731 92.8149 45.7557 92.6769 45.8731 92.489C46.1816 92.0936 46.3917 91.6306 46.4861 91.1382L46.3985 91.1757Z" fill="#74302E" stroke="#3D4035" stroke-width="0.5" stroke-miterlimit="10"/>
<path d="M44.447 91.3384C44.7833 91.0544 45.0931 90.7404 45.3727 90.4004C45.4619 90.3175 45.5325 90.2167 45.5799 90.1046C45.6273 89.9925 45.6505 89.8717 45.6479 89.75H45.5353C45.5349 89.853 45.5137 89.9549 45.4728 90.0495C45.432 90.1441 45.3724 90.2294 45.2977 90.3003C45.0179 90.6363 44.708 90.9461 44.3719 91.2259L44.447 91.3384Z" fill="#74302E" stroke="#3D4035" stroke-width="0.5" stroke-miterlimit="10"/>
<path d="M44.2343 88.5742H44.1217C44.0426 89.0864 43.8014 89.5598 43.4337 89.925L43.5087 90.0126C43.8939 89.62 44.1475 89.1173 44.2343 88.5742Z" fill="#74302E" stroke="#3D4035" stroke-width="0.5" stroke-miterlimit="10"/>
<path d="M39.3179 94.5401C39.2616 94.5548 39.2127 94.5897 39.1804 94.6381C39.1481 94.6865 39.1347 94.7451 39.1428 94.8027L38.217 95.2155C38.1002 95.0502 37.94 94.9204 37.7542 94.8403L38.0544 93.7521C38.0953 93.7562 38.1364 93.7475 38.1722 93.7274C38.2081 93.7073 38.2368 93.6766 38.2546 93.6395C38.2796 93.5855 38.2845 93.5244 38.2684 93.4671C38.2524 93.4098 38.2164 93.36 38.167 93.3269C38.1139 93.3007 38.0525 93.2965 37.9963 93.3153C37.9401 93.334 37.8936 93.3741 37.8668 93.4269C37.8426 93.4791 37.8381 93.5382 37.8542 93.5934C37.8703 93.6486 37.9059 93.6961 37.9543 93.7271L37.6541 94.8152C37.486 94.7713 37.3093 94.7713 37.1412 94.8152C36.9764 94.8542 36.8224 94.9295 36.6904 95.0355C36.5584 95.1415 36.4517 95.2756 36.3781 95.4281V95.3405L35.3272 95.0154C35.3305 94.9729 35.3217 94.9304 35.3017 94.8927C35.2818 94.8551 35.2516 94.8239 35.2147 94.8027C35.1893 94.79 35.1616 94.7825 35.1332 94.7807C35.1049 94.7789 35.0765 94.7828 35.0497 94.7921C35.0229 94.8014 34.9982 94.816 34.9771 94.835C34.956 94.854 34.939 94.8771 34.9269 94.9028C34.8998 94.9544 34.8938 95.0146 34.9101 95.0706C34.9264 95.1265 34.9639 95.174 35.0145 95.203C35.0643 95.2295 35.1225 95.2352 35.1765 95.2188C35.2305 95.2023 35.2757 95.1652 35.3022 95.1154L36.3531 95.4281C36.2523 95.6558 36.2218 95.9084 36.2655 96.1535L35.3648 96.6663C35.331 96.6452 35.292 96.6341 35.2522 96.6341C35.2124 96.6341 35.1734 96.6452 35.1396 96.6663C35.086 96.6862 35.042 96.7256 35.0164 96.7767C34.9909 96.8278 34.9857 96.8867 35.002 96.9415C35.0075 96.9696 35.0191 96.9962 35.0358 97.0195C35.0526 97.0428 35.0741 97.0623 35.0991 97.0765C35.124 97.0907 35.1517 97.0995 35.1802 97.1021C35.2088 97.1046 35.2376 97.1011 35.2647 97.0916C35.3189 97.0717 35.3639 97.0329 35.3916 96.9822C35.4192 96.9316 35.4274 96.8727 35.4148 96.8164L36.2905 96.3036C36.3333 96.4553 36.4079 96.5962 36.5092 96.717C36.6106 96.8377 36.7365 96.9355 36.8785 97.004L36.5407 97.8795C36.4992 97.8717 36.4563 97.8771 36.4181 97.8951C36.3799 97.913 36.3484 97.9426 36.328 97.9796C36.2875 98.0215 36.2649 98.0776 36.2649 98.1359C36.2649 98.1942 36.2875 98.2503 36.328 98.2923C36.3673 98.3283 36.4186 98.3483 36.4719 98.3483C36.5252 98.3483 36.5765 98.3283 36.6158 98.2923C36.6563 98.2503 36.6789 98.1942 36.6789 98.1359C36.6789 98.0776 36.6563 98.0215 36.6158 97.9796L36.9535 97.1041C37.1445 97.1671 37.3506 97.1671 37.5415 97.1041H37.6791L38.0919 97.892C38.0608 97.9222 38.0386 97.9603 38.0276 98.0021C38.0165 98.044 38.0172 98.0881 38.0294 98.1297C38.0384 98.1568 38.0527 98.1818 38.0714 98.2034C38.0902 98.225 38.1129 98.2427 38.1385 98.2554C38.1641 98.2682 38.1919 98.2758 38.2204 98.2779C38.2489 98.2799 38.2775 98.2763 38.3046 98.2673C38.3317 98.2582 38.3568 98.2439 38.3784 98.2252C38.3999 98.2065 38.4176 98.1837 38.4304 98.1582C38.4432 98.1326 38.4508 98.1048 38.4528 98.0763C38.4549 98.0478 38.4513 98.0192 38.4422 97.9921C38.435 97.9649 38.4224 97.9394 38.4052 97.9171C38.3881 97.8948 38.3667 97.8761 38.3422 97.8622C38.3178 97.8482 38.2908 97.8393 38.2629 97.8358C38.235 97.8323 38.2066 97.8344 38.1795 97.842L37.7667 97.0666C37.9181 96.9966 38.0512 96.8923 38.1554 96.7621C38.2596 96.6319 38.3321 96.4792 38.3672 96.3161L39.1928 96.6663C39.1858 96.7095 39.1915 96.7538 39.2093 96.7938C39.2271 96.8338 39.2561 96.8677 39.2929 96.8915C39.3328 96.9312 39.3867 96.9535 39.443 96.9535C39.4993 96.9535 39.5533 96.9312 39.5931 96.8915C39.631 96.8482 39.6518 96.7926 39.6518 96.7351C39.6518 96.6776 39.631 96.6221 39.5931 96.5788C39.5518 96.5419 39.4984 96.5214 39.443 96.5214C39.3876 96.5214 39.3342 96.5419 39.2929 96.5788L38.4547 96.2286C38.479 96.0879 38.479 95.944 38.4547 95.8033C38.4199 95.6687 38.3696 95.5386 38.3046 95.4156L39.2053 95.0154C39.2324 95.0478 39.2673 95.0728 39.3066 95.0881C39.346 95.1034 39.3886 95.1085 39.4305 95.1029C39.486 95.0881 39.5338 95.0527 39.564 95.0039C39.5942 94.955 39.6046 94.8965 39.5931 94.8403C39.6165 94.801 39.6266 94.7552 39.6219 94.7098C39.6172 94.6643 39.598 94.6216 39.5671 94.5879C39.5362 94.5542 39.4953 94.5314 39.4504 94.5228C39.4055 94.5141 39.3591 94.5202 39.3179 94.5401Z" fill="#3D4035"/>
<path d="M36.3155 93.8399L36.7409 94.8905H36.8284L36.4406 93.8399C36.4731 93.8128 36.4981 93.7779 36.5134 93.7386C36.5287 93.6992 36.5338 93.6566 36.5282 93.6147C36.5239 93.5853 36.5134 93.5571 36.4975 93.532C36.4816 93.5068 36.4605 93.4853 36.4358 93.4688C36.411 93.4523 36.3831 93.4412 36.3537 93.4362C36.3244 93.4311 36.2943 93.4323 36.2655 93.4396C36.21 93.4544 36.1622 93.4899 36.132 93.5387C36.1018 93.5875 36.0914 93.646 36.1029 93.7023C36.1204 93.7439 36.1501 93.7793 36.188 93.8038C36.2259 93.8283 36.2704 93.8409 36.3155 93.8399Z" fill="#3D4035"/>
<path d="M56.6442 86.7359C58.6187 86.8934 60.5974 86.4856 62.3487 85.5602C63.3463 85.0317 64.2472 84.3381 65.0133 83.509C64.2453 83.0479 63.4321 82.6665 62.5864 82.3709C62.6566 81.4775 63.0372 80.6368 63.6622 79.9945C63.0117 79.7818 62.0985 79.5317 61.448 79.3316C61.8204 78.5225 62.2642 77.7481 62.774 77.0177C60.1339 77.0477 57.5814 77.9689 55.5308 79.6318C56.9312 76.9675 57.3729 73.9029 56.7818 70.9517C56.2093 71.6283 55.5771 72.252 54.8928 72.8153C54.5675 72.1899 54.1422 71.3144 53.8044 70.689C53.3548 71.4516 52.6435 72.0249 51.8028 72.3025C51.3562 71.5045 50.8234 70.758 50.2141 70.0762C49.5844 71.0406 49.1154 72.1008 48.8255 73.2155C48.3876 75.0238 48.3876 76.9104 48.8255 78.7187C47.4533 76.2661 45.2806 74.3588 42.6706 73.3156C42.9099 74.1836 43.0732 75.0708 43.1585 75.9671C42.4829 75.9671 41.5447 75.8295 40.8691 75.792C41.2368 76.6175 41.3161 77.5426 41.0943 78.4185C40.2014 78.3846 39.3075 78.4517 38.4297 78.6187C38.8821 79.6712 39.5033 80.6428 40.2687 81.4953C41.6131 82.9856 43.3457 84.0725 45.2726 84.6347C46.0282 84.8396 46.7974 84.9901 47.5745 85.0849H47.3868C45.5187 85.2821 43.7224 85.9128 42.1412 86.9269C40.5601 87.941 39.2377 89.3104 38.2796 90.9259C39.1406 90.8384 40.0082 90.8384 40.8691 90.9259C40.694 91.6138 40.4188 92.5518 40.2436 93.2397C41.085 93.0304 41.9737 93.1326 42.7456 93.5274C42.5314 94.4338 42.414 95.3603 42.3954 96.2915C43.4826 96.058 44.5201 95.6346 45.4603 95.0408C47.1571 93.942 48.5235 92.403 49.4134 90.5882C49.8513 89.6876 50.0639 88.7121 50.4267 87.799C50.6195 87.3794 50.655 86.9044 50.5268 86.4608H50.7895H50.9146C50.5999 87.2107 50.4919 88.0313 50.6019 88.8371C50.7545 90.7411 51.337 92.5858 52.3056 94.2322C53.2741 95.8787 54.6036 97.2841 56.1938 98.3427C56.1064 97.4443 56.1064 96.5395 56.1938 95.6411C56.8443 95.8287 57.745 96.1164 58.4081 96.2915C58.2038 95.414 58.3008 94.4933 58.6833 93.6775C59.5512 93.8962 60.4406 94.0178 61.3354 94.0402C61.0913 92.9132 60.669 91.8323 60.0844 90.8383C59.0675 89.1009 57.5916 87.6772 55.8185 86.7234H55.7309C56.0562 86.6609 56.3314 86.7109 56.6442 86.7359ZM49.0256 85.0849H48.9255H49.0256Z" fill="#8B6841" stroke="#FCD7A1" stroke-width="0.54" stroke-linecap="round" stroke-linejoin="round"/>
<path d="M54.7051 84.0843C54.6414 84.5391 54.4869 84.9765 54.2508 85.3704C54.0147 85.7644 53.7019 86.1068 53.3308 86.3775C52.9597 86.6482 52.538 86.8415 52.0907 86.9461C51.6434 87.0506 51.1796 87.0641 50.727 86.986C49.8122 86.7957 49.0086 86.254 48.4892 85.4774C47.9698 84.7009 47.7761 83.7515 47.9498 82.8335C48.0151 82.3794 48.1707 81.943 48.4072 81.5499C48.6438 81.1568 48.9567 80.8151 49.3273 80.5447C49.698 80.2743 50.1191 80.0808 50.5657 79.9755C51.0123 79.8703 51.4755 79.8554 51.9279 79.9318C52.8428 80.1221 53.6463 80.6637 54.1657 81.4403C54.6851 82.2169 54.8788 83.1663 54.7051 84.0843Z" fill="#FCD7A1"/>
<path d="M50.7895 73.9156L50.9021 72.3647H50.7895L50.6894 73.9031C50.6457 74.1036 50.6454 74.3112 50.6886 74.5118C50.7318 74.7124 50.8173 74.9015 50.9396 75.0663L51.0147 74.9913C50.9072 74.8361 50.8319 74.661 50.7933 74.4762C50.7546 74.2915 50.7533 74.1009 50.7895 73.9156Z" fill="white" stroke="#3D4035" stroke-width="0.5" stroke-linecap="round" stroke-linejoin="round"/>
<path d="M52.666 72.5776C52.6138 73.4106 52.6138 74.2461 52.666 75.0791H52.7786C52.7325 74.2459 52.7325 73.4108 52.7786 72.5776H52.666Z" fill="white" stroke="#3D4035" stroke-width="0.5" stroke-linecap="round" stroke-linejoin="round"/>
<path d="M54.8928 73.0903C54.7532 74.1816 54.4229 75.24 53.917 76.2171H54.0171C54.5272 75.2274 54.8616 74.1568 55.0054 73.0527L54.8928 73.0903Z" fill="white" stroke="#3D4035" stroke-width="0.5" stroke-linecap="round" stroke-linejoin="round"/>
<path d="M45.9482 78.1434V78.2559C45.9634 78.2647 45.9806 78.2693 45.9982 78.2693C46.0158 78.2693 46.033 78.2647 46.0482 78.2559C46.0572 78.2363 46.0619 78.215 46.0619 78.1934C46.0619 78.1718 46.0572 78.1505 46.0482 78.1309C46.0247 78.0784 45.9853 78.0347 45.9357 78.0058C45.2666 77.5644 44.657 77.0389 44.1217 76.4424L44.0467 76.5174C44.5796 77.1283 45.1942 77.6628 45.8731 78.1058C45.8731 78.1058 45.9357 78.1184 45.9482 78.1434Z" fill="white" stroke="#3D4035" stroke-width="0.5" stroke-linecap="round" stroke-linejoin="round"/>
<path d="M44.6346 78.8314L44.7097 78.9189C44.7295 78.9047 44.7455 78.8859 44.7564 78.8641C44.7673 78.8423 44.7727 78.8182 44.7722 78.7939C44.77 78.6852 44.7251 78.5819 44.6471 78.5062L43.3961 77.1304L43.3086 77.2054L44.5596 78.5937C44.6101 78.6625 44.6364 78.7461 44.6346 78.8314Z" fill="white" stroke="#3D4035" stroke-width="0.5" stroke-linecap="round" stroke-linejoin="round"/>
<path d="M43.3586 79.7691L41.995 78.8311V78.9311L43.3586 79.9067C43.4167 79.944 43.4641 79.9957 43.4962 80.0568C43.5021 80.0706 43.5051 80.0855 43.5051 80.1005C43.5051 80.1156 43.5021 80.1305 43.4962 80.1443V80.2444C43.5181 80.2365 43.5376 80.2231 43.5529 80.2056C43.5682 80.1881 43.5788 80.167 43.5838 80.1443C43.5962 80.1168 43.6027 80.087 43.6027 80.0568C43.6027 80.0266 43.5962 79.9967 43.5838 79.9692C43.5357 79.8773 43.4556 79.8061 43.3586 79.7691Z" fill="white" stroke="#3D4035" stroke-width="0.5" stroke-linecap="round" stroke-linejoin="round"/>
<path d="M44.0717 89.3623L42.3078 90.2628C42.2539 90.3007 42.1926 90.3269 42.128 90.3398C42.0634 90.3527 41.9968 90.352 41.9325 90.3379V90.4504H42.0076C42.1487 90.4665 42.2909 90.431 42.4079 90.3504L44.1718 89.4624L44.0717 89.3623Z" fill="white" stroke="#3D4035" stroke-width="0.5" stroke-linecap="round" stroke-linejoin="round"/>
<path d="M44.2468 90.8004L44.1718 90.7129C43.7348 91.0778 43.261 91.3964 42.7581 91.6634V91.7635C43.2893 91.5 43.7888 91.1769 44.2468 90.8004Z" fill="white" stroke="#3D4035" stroke-width="0.5" stroke-linecap="round" stroke-linejoin="round"/>
<path d="M43.5212 93.0771L43.6088 93.1522C44.2966 92.3918 45.0455 91.689 45.8481 91.0509V90.9634C45.0125 91.599 44.2339 92.3063 43.5212 93.0771Z" fill="white" stroke="#3D4035" stroke-width="0.5" stroke-linecap="round" stroke-linejoin="round"/>
<path d="M54.6676 92.9396C55.3542 93.7347 56.0807 94.4944 56.8443 95.2159L56.9194 95.1284C56.1529 94.4098 55.4262 93.6499 54.7426 92.8521L54.6676 92.9396Z" fill="white" stroke="#3D4035" stroke-width="0.5" stroke-linecap="round" stroke-linejoin="round"/>
<path d="M55.9061 91.9886C56.3377 92.5958 56.8056 93.1763 57.3072 93.7271L57.3948 93.6396C56.8903 93.0956 56.4223 92.5191 55.9937 91.9136L55.9061 91.9886Z" fill="white" stroke="#3D4035" stroke-width="0.5" stroke-linecap="round" stroke-linejoin="round"/>
<path d="M57.1446 91.4009H57.057C57.4198 91.9512 57.7951 92.514 58.1954 93.0393L58.283 92.9643C57.8826 92.5015 57.5073 91.9512 57.1446 91.4009Z" fill="white" stroke="#3D4035" stroke-width="0.5" stroke-linecap="round" stroke-linejoin="round"/>
<path d="M61.4355 82.5835C61.1927 82.9927 60.8534 83.3362 60.4472 83.5841C60.2852 83.6933 60.0917 83.746 59.8967 83.7342V83.8467C60.1175 83.8632 60.3375 83.806 60.5222 83.6841C60.945 83.4243 61.3006 83.0687 61.5606 82.646L61.4355 82.5835Z" fill="white" stroke="#3D4035" stroke-width="0.5" stroke-linecap="round" stroke-linejoin="round"/>
<path d="M59.5465 82.0578C59.9789 81.922 60.3977 81.7462 60.7975 81.5325C60.9058 81.4869 61.0031 81.4186 61.083 81.3324C61.1628 81.2461 61.2233 81.1438 61.2603 81.0322H61.1603C61.1225 81.1286 61.0653 81.2161 60.9921 81.2893C60.9189 81.3625 60.8313 81.4197 60.7349 81.4575C60.365 81.6663 59.9753 81.8381 59.5715 81.9703L59.5465 82.0578Z" fill="white" stroke="#3D4035" stroke-width="0.5" stroke-linecap="round" stroke-linejoin="round"/>
<path d="M60.3096 79.3813H60.222C59.9743 79.8308 59.5819 80.1834 59.1086 80.3819V80.4945C59.6225 80.2686 60.0455 79.8766 60.3096 79.3813Z" fill="white" stroke="#3D4035" stroke-width="0.5" stroke-linecap="round" stroke-linejoin="round"/>
<path d="M53.6668 83.0838C53.6107 83.0762 53.5538 83.09 53.5075 83.1225C53.4611 83.1549 53.4287 83.2036 53.4166 83.2589H52.4158C52.3594 83.0631 52.2514 82.886 52.1031 82.7461L52.7536 81.8456C52.7887 81.8692 52.8301 81.8819 52.8724 81.8819C52.9148 81.8819 52.9562 81.8692 52.9913 81.8456C53.0326 81.8015 53.0556 81.7434 53.0556 81.683C53.0556 81.6226 53.0326 81.5644 52.9913 81.5204C52.9725 81.4991 52.9494 81.482 52.9235 81.4704C52.8976 81.4587 52.8695 81.4526 52.8411 81.4526C52.8127 81.4526 52.7847 81.4587 52.7588 81.4704C52.7329 81.482 52.7098 81.4991 52.691 81.5204C52.6532 81.5637 52.6323 81.6192 52.6323 81.6767C52.6323 81.7342 52.6532 81.7898 52.691 81.8331L52.0405 82.7336C51.9046 82.6204 51.7401 82.5469 51.5651 82.521C51.402 82.4905 51.2339 82.4996 51.0751 82.5475C50.9162 82.5954 50.7711 82.6806 50.6519 82.7961V82.7211L49.7762 82.0332C49.7971 81.9971 49.8081 81.9561 49.8081 81.9144C49.8081 81.8726 49.7971 81.8317 49.7762 81.7955C49.7563 81.7739 49.7321 81.7567 49.7052 81.7449C49.6783 81.7331 49.6492 81.727 49.6198 81.727C49.5905 81.727 49.5614 81.7331 49.5345 81.7449C49.5076 81.7567 49.4834 81.7739 49.4635 81.7955C49.423 81.8375 49.4003 81.8936 49.4003 81.9519C49.4003 82.0102 49.423 82.0663 49.4635 82.1082C49.4822 82.1295 49.5054 82.1466 49.5312 82.1583C49.5571 82.1699 49.5852 82.176 49.6136 82.176C49.642 82.176 49.6701 82.1699 49.6959 82.1583C49.7218 82.1466 49.7449 82.1295 49.7637 82.1082L50.6269 82.8086C50.4512 82.9796 50.3368 83.2039 50.3016 83.4465L49.2758 83.5966C49.2633 83.5556 49.2387 83.5193 49.2052 83.4925C49.1717 83.4657 49.1309 83.4497 49.0882 83.4465C49.0306 83.4464 48.9751 83.4684 48.9332 83.508C48.8913 83.5475 48.8662 83.6016 48.863 83.6591C48.8595 83.6881 48.862 83.7174 48.8704 83.7453C48.8787 83.7732 48.8927 83.7991 48.9115 83.8214C48.9302 83.8437 48.9534 83.8619 48.9795 83.8748C49.0056 83.8878 49.0341 83.8953 49.0631 83.8968C49.0911 83.8985 49.1191 83.8946 49.1455 83.8855C49.172 83.8763 49.1964 83.862 49.2173 83.8435C49.2382 83.8249 49.2553 83.8023 49.2674 83.7771C49.2796 83.7519 49.2867 83.7246 49.2883 83.6967L50.2891 83.5466C50.275 83.7054 50.2945 83.8654 50.3462 84.0162C50.3979 84.167 50.4808 84.3053 50.5894 84.4221L49.9764 85.11C49.9402 85.0891 49.8993 85.0781 49.8575 85.0781C49.8158 85.0781 49.7748 85.0891 49.7387 85.11C49.6982 85.1519 49.6755 85.208 49.6755 85.2663C49.6755 85.3246 49.6982 85.3807 49.7387 85.4227C49.7575 85.444 49.7806 85.461 49.8065 85.4727C49.8323 85.4844 49.8604 85.4904 49.8888 85.4904C49.9172 85.4904 49.9453 85.4844 49.9712 85.4727C49.997 85.461 50.0201 85.444 50.0389 85.4227C50.0605 85.4028 50.0778 85.3786 50.0896 85.3517C50.1014 85.3248 50.1075 85.2957 50.1075 85.2663C50.1075 85.2369 50.1014 85.2079 50.0896 85.181C50.0778 85.1541 50.0605 85.1299 50.0389 85.11L50.6519 84.4221C50.8024 84.5616 50.9886 84.6569 51.1898 84.6972H51.3274L51.4525 85.5853C51.4137 85.6032 51.3805 85.6312 51.3562 85.6664C51.332 85.7016 51.3178 85.7427 51.3149 85.7854C51.3115 85.8143 51.314 85.8436 51.3223 85.8715C51.3307 85.8995 51.3447 85.9254 51.3634 85.9476C51.3822 85.9699 51.4053 85.9881 51.4314 86.0011C51.4575 86.014 51.486 86.0215 51.5151 86.023C51.5748 86.023 51.6321 85.9993 51.6743 85.9571C51.7165 85.9149 51.7403 85.8576 51.7403 85.7979C51.7403 85.7382 51.7165 85.6809 51.6743 85.6387C51.6321 85.5965 51.5748 85.5728 51.5151 85.5728L51.4025 84.6972C51.5657 84.6855 51.7243 84.6379 51.867 84.5579C52.0097 84.478 52.133 84.3675 52.2282 84.2345L52.8787 84.8598C52.8539 84.8969 52.8407 84.9404 52.8407 84.9849C52.8407 85.0294 52.8539 85.073 52.8787 85.11C52.8975 85.1313 52.9206 85.1483 52.9464 85.16C52.9723 85.1717 53.0004 85.1777 53.0288 85.1777C53.0572 85.1777 53.0853 85.1717 53.1111 85.16C53.137 85.1483 53.1601 85.1313 53.1789 85.11C53.2167 85.0667 53.2376 85.0111 53.2376 84.9536C53.2376 84.8961 53.2167 84.8406 53.1789 84.7973C53.1391 84.7576 53.0851 84.7353 53.0288 84.7353C52.9725 84.7353 52.9185 84.7576 52.8787 84.7973L52.2156 84.1469C52.2927 84.0263 52.3398 83.8891 52.3533 83.7467C52.3781 83.6102 52.3781 83.4704 52.3533 83.3339H53.3415C53.3504 83.3771 53.3717 83.4166 53.4029 83.4477C53.434 83.4789 53.4736 83.5002 53.5167 83.509C53.5746 83.5163 53.633 83.5007 53.6797 83.4658C53.7263 83.4308 53.7576 83.379 53.7669 83.3214C53.7748 83.2764 53.7696 83.23 53.7519 83.1879C53.7341 83.1457 53.7046 83.1096 53.6668 83.0838Z" fill="#3D4035"/>
<path d="M51.1398 81.3326V82.4833H51.3274V81.3452C51.367 81.3318 51.4026 81.3089 51.431 81.2783C51.4594 81.2477 51.4797 81.2105 51.4901 81.1701C51.4976 81.1107 51.4825 81.0507 51.4477 81.002C51.4129 80.9533 51.361 80.9195 51.3024 80.9074C51.2742 80.902 51.2452 80.9027 51.2172 80.9095C51.1893 80.9163 51.1632 80.9291 51.1407 80.9469C51.1181 80.9647 51.0997 80.9871 51.0866 81.0127C51.0735 81.0382 51.066 81.0663 51.0647 81.095C51.0507 81.1375 51.0503 81.1833 51.0638 81.226C51.0773 81.2686 51.1039 81.306 51.1398 81.3326Z" fill="#3D4035"/>
</svg>
