<svg xmlns="http://www.w3.org/2000/svg" viewBox="0 0 105.13 315.86"><defs><style>.cls-1{fill:#3d4035;}.cls-2{fill:#fcd7a1;}.cls-3{fill:#8b6841;stroke:#fcd7a1;stroke-width:0.47px;}.cls-3,.cls-6{stroke-linecap:round;stroke-linejoin:round;}.cls-4{fill:#74302e;stroke-miterlimit:10;}.cls-4,.cls-6{stroke:#3d4035;stroke-width:0.31px;}.cls-5{fill:#ee7952;}.cls-6{fill:#fff;}</style></defs><g id="レイヤー_2" data-name="レイヤー 2"><g id="レイヤー_1-2" data-name="レイヤー 1"><path class="cls-1" d="M93.42,2.46a.69.69,0,0,0-.48-.19h-80a.69.69,0,0,0-.48.19l-9.07,9a.67.67,0,0,0-.2.48V303.75a.68.68,0,0,0,.2.49l9.07,9a.66.66,0,0,0,.48.2h80a.66.66,0,0,0,.48-.2l9.07-9a.68.68,0,0,0,.2-.49V12a.67.67,0,0,0-.2-.48Zm7.91,301-8.67,8.63H13.19l-8.67-8.63V12.25l8.67-8.63H92.66l8.67,8.63Z"/><path class="cls-1" d="M91.74,310.13H14.11a.32.32,0,0,1-.19-.07l-7.35-7.33a.27.27,0,0,1-.08-.19V13.18A.27.27,0,0,1,6.57,13l7.35-7.32a.27.27,0,0,1,.19-.08H91.74a.27.27,0,0,1,.19.08L99.28,13a.27.27,0,0,1,.08.19V302.54a.27.27,0,0,1-.08.19l-7.35,7.33A.32.32,0,0,1,91.74,310.13Zm-77.52-.52H91.63l7.2-7.17V13.29l-7.2-7.17H14.22L7,13.29V302.44Z"/><path class="cls-1" d="M6.92.11A1.83,1.83,0,0,0,5.86.05,2.37,2.37,0,0,0,5,.49,3.35,3.35,0,0,0,3.88,2,2.73,2.73,0,0,0,3.72,3a2.28,2.28,0,0,0,.19.93A2.28,2.28,0,0,0,3,3.72,2.73,2.73,0,0,0,2,3.88,3.27,3.27,0,0,0,.49,5a2.37,2.37,0,0,0-.44.9A1.83,1.83,0,0,0,.11,6.92a2.25,2.25,0,0,0,.56.85,3.31,3.31,0,0,0,.77.58h0A.41.41,0,0,0,2,8.19a.4.4,0,0,0-.17-.55,2.16,2.16,0,0,1-1-1A1,1,0,0,1,.76,6a1.67,1.67,0,0,1,.29-.64,2.64,2.64,0,0,1,1.2-.9,2,2,0,0,1,1.45,0,1.83,1.83,0,0,1,1,1.1,3.39,3.39,0,0,1,.2.79c.05.28.09.56.13.84a9.53,9.53,0,0,1,.1,1.68A2.34,2.34,0,0,1,5,9.63a.44.44,0,0,1-.18.23.24.24,0,0,1-.12,0l-.06,0-.06,0h0a.18.18,0,0,0-.23.06.18.18,0,0,0,.06.24l.13.06.14,0a.67.67,0,0,0,.31-.05A.6.6,0,0,0,5.15,10a1.35,1.35,0,0,0,.14-.22,3,3,0,0,0,.2-.91,11.34,11.34,0,0,0,0-1.75c0-.29-.06-.58-.1-.86a5.65,5.65,0,0,0-.19-.89C5.1,5.24,5,5.11,5,5a2.78,2.78,0,0,0,.4.16,4.75,4.75,0,0,0,.89.2l.86.1a11.34,11.34,0,0,0,1.75,0,3,3,0,0,0,.91-.2A1.35,1.35,0,0,0,10,5.15a.6.6,0,0,0,.18-.23.57.57,0,0,0,.05-.31,1,1,0,0,0,0-.14.49.49,0,0,0-.06-.13.17.17,0,0,0-.23-.06.17.17,0,0,0-.07.23v0a.13.13,0,0,1,0,.06s0,0,0,.06a.43.43,0,0,1,0,.12A.52.52,0,0,1,9.63,5a2.34,2.34,0,0,1-.77.13A9.53,9.53,0,0,1,7.18,5l-.84-.13a3.39,3.39,0,0,1-.79-.2,1.83,1.83,0,0,1-1.1-1,2,2,0,0,1,0-1.45,2.64,2.64,0,0,1,.9-1.2A1.67,1.67,0,0,1,6,.76a1,1,0,0,1,.63.06,2.11,2.11,0,0,1,1,1v0a.41.41,0,0,0,.7-.41h0A3.31,3.31,0,0,0,7.77.67,2.25,2.25,0,0,0,6.92.11Z"/><path class="cls-1" d="M7.1,3a.83.83,0,1,1-.83-.83A.83.83,0,0,1,7.1,3Z"/><path class="cls-1" d="M3.76,6.2a.83.83,0,1,1-.83-.83A.83.83,0,0,1,3.76,6.2Z"/><path class="cls-1" d="M98.22.11a1.79,1.79,0,0,1,1-.06,2.37,2.37,0,0,1,.9.44A3.37,3.37,0,0,1,101.26,2a3,3,0,0,1,.16.94,2.13,2.13,0,0,1-.2.93,2.35,2.35,0,0,1,.93-.19,2.75,2.75,0,0,1,.95.16A3.2,3.2,0,0,1,104.64,5a2.23,2.23,0,0,1,.44.9,1.92,1.92,0,0,1,0,1.06,2.38,2.38,0,0,1-.56.85,3.79,3.79,0,0,1-.77.58h0a.42.42,0,0,1-.56-.17.41.41,0,0,1,.17-.55,2.14,2.14,0,0,0,1-1,1.12,1.12,0,0,0,.06-.63,1.84,1.84,0,0,0-.29-.64,2.67,2.67,0,0,0-1.21-.9,2,2,0,0,0-1.45,0,1.86,1.86,0,0,0-1,1.1,4.8,4.8,0,0,0-.2.79c0,.28-.09.56-.12.84a9.55,9.55,0,0,0-.11,1.68,2.34,2.34,0,0,0,.14.77.4.4,0,0,0,.18.23.2.2,0,0,0,.11,0l.07,0,.06,0h0a.16.16,0,0,1,.22.06.18.18,0,0,1,0,.24l-.14.06-.14,0a.61.61,0,0,1-.3-.05A.63.63,0,0,1,100,10a.85.85,0,0,1-.13-.22,2.53,2.53,0,0,1-.2-.91,9.29,9.29,0,0,1,0-1.75c0-.29.06-.58.1-.86a4,4,0,0,1,.19-.89,2.83,2.83,0,0,1,.17-.4,3.47,3.47,0,0,1-.41.16,4.83,4.83,0,0,1-.88.2l-.86.1a11.43,11.43,0,0,1-1.76,0,2.92,2.92,0,0,1-.9-.2,1,1,0,0,1-.22-.14.62.62,0,0,1-.19-.23.56.56,0,0,1,0-.31.89.89,0,0,1,0-.14A.56.56,0,0,1,95,4.34a.15.15,0,0,1,.22-.06.17.17,0,0,1,.08.23v0s0,0,0,.06a.13.13,0,0,0,0,.06.16.16,0,0,0,0,.12A.44.44,0,0,0,95.5,5a2.41,2.41,0,0,0,.78.13A9.42,9.42,0,0,0,98,5l.84-.13a3.39,3.39,0,0,0,.79-.2,1.81,1.81,0,0,0,1.1-1,2,2,0,0,0,0-1.45,2.64,2.64,0,0,0-.9-1.2,1.67,1.67,0,0,0-.64-.29,1.07,1.07,0,0,0-.64.06,2.09,2.09,0,0,0-1,1v0a.41.41,0,0,1-.71-.41h0a3.62,3.62,0,0,1,.58-.77A2.22,2.22,0,0,1,98.22.11Z"/><path class="cls-1" d="M98,3a.83.83,0,1,0,.83-.83A.83.83,0,0,0,98,3Z"/><path class="cls-1" d="M101.37,6.2a.83.83,0,1,0,.83-.83A.83.83,0,0,0,101.37,6.2Z"/><path class="cls-1" d="M98.22,315.75a1.79,1.79,0,0,0,1,.06,2.3,2.3,0,0,0,.9-.44,3.32,3.32,0,0,0,1.09-1.55,3,3,0,0,0,.16-.94,2.13,2.13,0,0,0-.2-.93,2.55,2.55,0,0,0,.93.2,3,3,0,0,0,.95-.16,3.29,3.29,0,0,0,1.54-1.09,2.23,2.23,0,0,0,.44-.9,1.88,1.88,0,0,0,0-1.05,2.33,2.33,0,0,0-.56-.86,4.2,4.2,0,0,0-.77-.58h0a.41.41,0,1,0-.39.71,2.14,2.14,0,0,1,1,1,1.16,1.16,0,0,1,.06.64,1.8,1.8,0,0,1-.29.63,2.67,2.67,0,0,1-1.21.9,1.92,1.92,0,0,1-1.45,0,1.86,1.86,0,0,1-1-1.1,4.8,4.8,0,0,1-.2-.79c0-.28-.09-.56-.12-.84a9.49,9.49,0,0,1-.11-1.68,2.34,2.34,0,0,1,.14-.77.4.4,0,0,1,.18-.23.14.14,0,0,1,.11,0h.07l.06,0h0a.17.17,0,0,0,.17-.29.61.61,0,0,0-.14-.07.32.32,0,0,0-.14,0,.51.51,0,0,0-.3,0,.63.63,0,0,0-.24.18.76.76,0,0,0-.13.23,2.44,2.44,0,0,0-.2.9,9.26,9.26,0,0,0,0,1.75c0,.29.06.58.1.87a4.08,4.08,0,0,0,.19.88,2.83,2.83,0,0,0,.17.4,3.47,3.47,0,0,0-.41-.16,4.08,4.08,0,0,0-.88-.19l-.86-.11a10.3,10.3,0,0,0-1.76,0,2.64,2.64,0,0,0-.9.19,1,1,0,0,0-.22.14.71.71,0,0,0-.19.23.56.56,0,0,0,0,.31.7.7,0,0,0,0,.14.61.61,0,0,0,.07.14.17.17,0,0,0,.22.06.17.17,0,0,0,.08-.23v0a.33.33,0,0,1,0-.06.2.2,0,0,1,0-.07.17.17,0,0,1,0-.12.5.5,0,0,1,.23-.18,2.41,2.41,0,0,1,.78-.13,10.47,10.47,0,0,1,1.67.1l.84.13a4,4,0,0,1,.79.2,1.84,1.84,0,0,1,1.1,1,2,2,0,0,1,0,1.45,2.64,2.64,0,0,1-.9,1.2,1.54,1.54,0,0,1-.64.29,1.16,1.16,0,0,1-.64-.05,2.08,2.08,0,0,1-1-1h0a.41.41,0,0,0-.56-.15.42.42,0,0,0-.15.56h0a3.83,3.83,0,0,0,.58.76A2.11,2.11,0,0,0,98.22,315.75Z"/><path class="cls-1" d="M98,312.91a.83.83,0,1,1,.83.83A.83.83,0,0,1,98,312.91Z"/><circle class="cls-1" cx="102.2" cy="309.66" r="0.83"/><polygon class="cls-1" points="23.52 232.28 23.81 232.28 23.81 236.59 27.97 236.59 27.97 232.62 24.81 232.62 24.81 234.6 27.11 234.6 27.11 234.92 24.52 234.92 24.52 232.3 28.26 232.3 28.26 236.9 23.52 236.9 23.52 232.28"/><polygon class="cls-1" points="77.59 232.28 77.88 232.28 77.88 236.59 82.04 236.59 82.04 232.62 78.88 232.62 78.88 234.6 81.18 234.6 81.18 234.92 78.59 234.92 78.59 232.3 82.33 232.3 82.33 236.9 77.59 236.9 77.59 232.28"/><path class="cls-1" d="M36.9,241.75a1.29,1.29,0,0,1,.26.08v.09h-.75v-.09l.1-.05.11,0V240l-.12,0-.09,0v-.09h1.38a2,2,0,0,0,0,.25l0,.24h-.07l-.12-.33H36.9v.86h.52l.11-.19h.07a2.53,2.53,0,0,1,0,.28,2.44,2.44,0,0,1,0,.27h-.07l-.11-.2H36.9Z"/><path class="cls-1" d="M39.92,241.75l.13,0,.12,0v.09H39.4v-.09l.13-.05.11,0V240l-.13,0-.11,0v-.09h.79a1.18,1.18,0,0,1,.27,0,.53.53,0,0,1,.21.11.65.65,0,0,1,.15.18.76.76,0,0,1,0,.27.57.57,0,0,1-.12.37.55.55,0,0,1-.3.21c.08.14.17.27.26.41l.29.4.16.09v.08H40.8l-.11-.09-.15-.21-.13-.2c0-.07-.07-.14-.11-.22l-.1-.22h-.28Zm.2-1.82h-.2v.9h.22a.41.41,0,0,0,.32-.13.49.49,0,0,0,.11-.35.42.42,0,0,0-.12-.33A.5.5,0,0,0,40.12,239.93Z"/><path class="cls-1" d="M43.23,241.92h-.65v-.09a.9.9,0,0,1,.21-.08l.74-2h.09l.74,2,.12,0,.1.05v.09h-.75v-.09l.12-.05.12,0-.2-.55h-.7l-.19.55a1.21,1.21,0,0,1,.25.08Zm0-.88h.59l-.23-.64-.06-.26h0l-.07.27Z"/><path class="cls-1" d="M48.43,241.92h-.72v-.09l.11,0,.12,0v-1.36l0-.35h0l-.09.32-.6,1.56h-.08l-.57-1.56-.11-.35h0v1.74l.11,0,.11.05v.09h-.61v-.09l.11-.05.13,0V240l-.13,0-.11-.05v-.09h.6l.51,1.39.1.31h0l.1-.32.53-1.38h.52v.09l-.11.05-.11,0v1.8l.11,0,.11,0Z"/><path class="cls-1" d="M51.39,239.79a2.09,2.09,0,0,1,0,.25,1.94,1.94,0,0,1,0,.24h-.08l-.12-.33h-.63v.8H51l.12-.22h.07c0,.2,0,.4,0,.61h-.07l-.12-.23h-.47v.85h.67l.14-.37h.08l0,.26v.27H50v-.09a.85.85,0,0,1,.24-.08V240l-.12,0-.12-.05v-.09Z"/><path class="cls-1" d="M58.56,241.92h-.82v-.09l.13-.05.14,0V240h-.45l-.15.43h-.08s0-.08,0-.13a5662517074327.87,5662517074327.87,0,0,0,0-.32v-.14H59v.14a.81.81,0,0,0,0,.16v.15c0,.06,0,.1,0,.14h-.08l-.15-.43h-.45v1.8l.14,0,.13.05Z"/><path class="cls-1" d="M61.93,239.79a2.09,2.09,0,0,0,0,.25l0,.24h-.07L61.7,240h-.64v.8h.48l.11-.22h.07a3.11,3.11,0,0,1,0,.61h-.07l-.11-.23h-.48v.85h.67l.15-.37H62l0,.26a1.22,1.22,0,0,1,0,.27H60.54v-.09a.85.85,0,0,1,.24-.08V240l-.12,0-.12-.05v-.09Z"/><path class="cls-1" d="M64.71,239.79h.68v.09l-.11,0-.11,0-.52.82.6,1a.67.67,0,0,1,.24.08v.09h-.78v-.09a.9.9,0,0,1,.23-.08l-.47-.76-.44.77.12,0,.11.05v.09h-.67v-.09l.1-.05.11,0,.58-.9-.55-.89-.12,0-.12,0v-.09h.78v.09l-.1,0-.12,0,.41.68L65,240l-.25-.08Z"/><path class="cls-1" d="M68.24,241.92h-.83v-.09l.13-.05.14,0V240h-.44l-.16.43H67s0-.08,0-.13a.86.86,0,0,0,0-.16v-.16a.71.71,0,0,1,0-.14h1.7v.14a.92.92,0,0,1,0,.16v.15c0,.06,0,.1,0,.14h-.07l-.16-.43H68v1.8l.14,0,.13.05Z"/><path class="cls-1" d="M32.28,232.63l.13-.1a.11.11,0,0,1,.07,0,1.31,1.31,0,0,1,.56.27,2,2,0,0,0,.26.25.65.65,0,0,0,.29.13,3.61,3.61,0,0,0,.53.1,1.94,1.94,0,0,0,.68,0h.08l-.06-.12-.14-.3a.29.29,0,0,1,0-.29.47.47,0,0,1,.22-.17.65.65,0,0,1,.39,0,1.63,1.63,0,0,1,.4.15,2.69,2.69,0,0,1,.35.21.32.32,0,0,0,.21.09.52.52,0,0,1,.31.1.25.25,0,0,1,.08.31c0,.12-.17.19-.38.23l-.59.1.57.92c.22.3.38.52.46.66a.45.45,0,0,1,.07.43.42.42,0,0,1-.23.28.75.75,0,0,1-.29.06.72.72,0,0,1-.29-.06,1,1,0,0,1-.28-.16,1.66,1.66,0,0,0-.38-.19l-.72-.25a2.41,2.41,0,0,0-.75-.15,1.7,1.7,0,0,0-.57.1.55.55,0,0,0-.29.18.34.34,0,0,0-.07.17c0,.06,0,.11.12.17a1,1,0,0,0,.31.14,4.55,4.55,0,0,0,.64.1,2.62,2.62,0,0,1,.61.1l.31.1c.18,0,.24.12.17.22a.33.33,0,0,1-.17.11,1.31,1.31,0,0,1-.34.06,1.87,1.87,0,0,1-.67,0l-.53-.09a1.92,1.92,0,0,1-.61-.26,1.06,1.06,0,0,1-.42-.38.63.63,0,0,1-.07-.27.5.5,0,0,1,.14-.27,1,1,0,0,1,.42-.27,3.8,3.8,0,0,1,.81-.15,2.47,2.47,0,0,1,1,.1,9.41,9.41,0,0,0,.91.25,1.85,1.85,0,0,0,.45.06s0-.15-.08-.35a1.86,1.86,0,0,0-.38-.63,3.65,3.65,0,0,1-.46-.65h0l-.07,0h0l-.84.1a1.89,1.89,0,0,1-.89-.1.94.94,0,0,1-.56-.48,1.27,1.27,0,0,0-.38-.48A0,0,0,0,1,32.28,232.63Zm3.3.49.25-.1s.05-.06,0-.09a.33.33,0,0,0-.22-.17,1.5,1.5,0,0,0-.31,0s0,0,0,.14a2.28,2.28,0,0,0,.12.3A.27.27,0,0,1,35.58,233.12Z"/><path class="cls-1" d="M46.28,232.23l.13-.1h.05a2.36,2.36,0,0,1,.88.1.36.36,0,0,1,.23.35c0,.15-.12.28-.36.38a3.42,3.42,0,0,0-.77.55,7.4,7.4,0,0,0-.55.56,2.27,2.27,0,0,1,.57-.05,1.35,1.35,0,0,1,.69.16.67.67,0,0,1,.35.43,1.1,1.1,0,0,1-.07.67l-.19.6a.29.29,0,0,0,0,.31.57.57,0,0,0,.41.12,4.05,4.05,0,0,0,.77-.09,9.83,9.83,0,0,0,1.23-.4.11.11,0,0,1,.08,0l.13.1s0,.06,0,.08a6.43,6.43,0,0,1-1.06.55,4,4,0,0,1-1,.21,1.92,1.92,0,0,1-.95-.11.76.76,0,0,1-.42-.38.89.89,0,0,1,.06-.58c.09-.23.18-.45.27-.65a.47.47,0,0,0,0-.46.55.55,0,0,0-.29-.22,1.55,1.55,0,0,0-.37,0,1.32,1.32,0,0,0-.43.09.79.79,0,0,0-.16.08l-.08.09a9,9,0,0,0-.84,1.39c-.08.16-.15.3-.21.4a1.46,1.46,0,0,1-.17.26.43.43,0,0,1-.19.13,1.09,1.09,0,0,1-.44,0,.18.18,0,0,1-.1-.09.3.3,0,0,1,0-.16,1,1,0,0,1,.09-.21l.17-.26a11.74,11.74,0,0,1,.92-1.21l1-1.2a6.92,6.92,0,0,0,.64-.79.61.61,0,0,0,.14-.33c0-.07-.08-.14-.24-.2h0l0,0S46.25,232.24,46.28,232.23Z"/><path class="cls-1" d="M58.58,232.1h.13a.09.09,0,0,1,.07,0,2.08,2.08,0,0,0,.43.54,3.69,3.69,0,0,0,.51.29c.25.11.37.21.37.3s-.13.17-.38.24a2,2,0,0,0-.56.29,1.7,1.7,0,0,0-.38.38.52.52,0,0,0-.06.42,1.47,1.47,0,0,0,.32.53l0,0a3.66,3.66,0,0,1,1.08-.17,3,3,0,0,1,1.08.2,2.9,2.9,0,0,1,.87.51.71.71,0,0,1,.28.65.47.47,0,0,1-.14.25.36.36,0,0,1-.26.09.62.62,0,0,1-.52-.38,5.21,5.21,0,0,0-.39-.6,1.26,1.26,0,0,0-.62-.37,1.89,1.89,0,0,0-1.25,0c.11.14.23.27.35.4s.25.39.2.54a.45.45,0,0,1-.11.19.54.54,0,0,1-.18.14,1.27,1.27,0,0,1-.56.11,2.73,2.73,0,0,1-.68-.1,8.62,8.62,0,0,0-1-.17,3.32,3.32,0,0,0-.27.25.71.71,0,0,1-.88.21l0,0-.14-.2v0c0-.22.17-.37.5-.45a3.34,3.34,0,0,0,.84-.29c.26-.14.5-.25.73-.35a4.45,4.45,0,0,1,.69-.26l-.12-.17a.91.91,0,0,1-.21-.37,1.14,1.14,0,0,1-.07-.41.8.8,0,0,1,.21-.47l.32-.4a.43.43,0,0,0,.12-.22.65.65,0,0,0-.12-.28,2.41,2.41,0,0,0-.25-.35.45.45,0,0,1,0-.49A.07.07,0,0,1,58.58,232.1Zm-.26,4.15a1.09,1.09,0,0,0,.61,0,.22.22,0,0,0,.11-.16,1.32,1.32,0,0,0-.19-.43,1,1,0,0,1-.08-.14h0c-.26.13-.57.3-.92.5l-.34.22C57.83,236.21,58.1,236.23,58.32,236.25Zm2.43-3.4c0-.36.23-.54.71-.54s.72.18.72.54-.24.55-.72.55S60.75,233.22,60.75,232.85Zm.71-.25c-.21,0-.32.09-.32.25s.11.25.32.25.33-.08.33-.25S61.68,232.6,61.46,232.6Z"/><path class="cls-1" d="M71.6,236.25l.13,0a2.61,2.61,0,0,0,.44-.2.69.69,0,0,0,.31-.32,1.31,1.31,0,0,0,.12-.58.71.71,0,0,0-.18-.52.86.86,0,0,0-.43-.23,1.68,1.68,0,0,0-.55,0,3,3,0,0,0-.63.19,1.62,1.62,0,0,0-.5.34,1.89,1.89,0,0,0-.32.39,1.5,1.5,0,0,1-.35.36.61.61,0,0,1-.37.16.3.3,0,0,1-.26-.12.62.62,0,0,1-.08-.33.73.73,0,0,1,.28-.47,6,6,0,0,1,.8-.61,7.09,7.09,0,0,0,1-.84c.34-.32.51-.51.51-.56l0,0h-.05l-.11,0a1.42,1.42,0,0,0-.49.19,2,2,0,0,1-.49.2.82.82,0,0,1-.44,0,.41.41,0,0,1-.3-.23.87.87,0,0,1-.07-.37l0,0,.14-.1s.07,0,.1,0a.55.55,0,0,0,.23.23.6.6,0,0,0,.35,0,5,5,0,0,0,.78-.24,2.64,2.64,0,0,1,.74-.2,1,1,0,0,1,.44.1.32.32,0,0,1,.21.29c0,.12-.18.28-.54.49a3.63,3.63,0,0,0-.84.64,3.45,3.45,0,0,0-.29.36,6.41,6.41,0,0,1,.89-.09,3.09,3.09,0,0,1,.75.11,1.15,1.15,0,0,1,.62.36,1.06,1.06,0,0,1,.21.68,1,1,0,0,1-.34.73,2.36,2.36,0,0,1-.82.46l-.46.12a3,3,0,0,1-.42,0,2.45,2.45,0,0,1-.74-.1,1.59,1.59,0,0,1-.48-.21A.34.34,0,0,1,70,236a.35.35,0,0,1,.21-.3,1.12,1.12,0,0,1,.5-.11,1.5,1.5,0,0,1,.55.11.56.56,0,0,1,.36.34A.2.2,0,0,1,71.6,236.25Zm-.42.05a.41.41,0,0,1-.08-.13.47.47,0,0,0-.23-.27,1,1,0,0,0-.22-.1.36.36,0,0,0-.15.09c-.08.06-.11.1-.11.12s0,.05.11.11a1,1,0,0,0,.36.14A2,2,0,0,0,71.18,236.3Z"/><path class="cls-1" d="M53,60l-.14,0c-.68-.21-5.38-6-5.81-6.83A2.32,2.32,0,0,1,48,50.05a2.19,2.19,0,0,1,1.7-.17A2.27,2.27,0,0,1,51,51h0c0,.08,2.83,8.53,2.05,8.94Zm-4-9.7a1.76,1.76,0,0,0-.8.2,1.82,1.82,0,0,0-.73,2.41,57.81,57.81,0,0,0,5.22,6.33,53.83,53.83,0,0,0-2.15-8h0a1.74,1.74,0,0,0-1-.87A1.81,1.81,0,0,0,49,50.3Z"/><path class="cls-1" d="M56.84,69.61a2.51,2.51,0,0,1-.66-.1,2.27,2.27,0,0,1-1.34-1.13h0c0-.08-2.86-8.51-2.05-8.94l.09,0,.14,0c.68.21,5.39,6,5.81,6.83a2.32,2.32,0,0,1-.95,3.09A2.12,2.12,0,0,1,56.84,69.61ZM55.3,68.14a1.77,1.77,0,0,0,1,.87,1.71,1.71,0,0,0,1.31-.12,1.81,1.81,0,0,0,.73-2.41,57.81,57.81,0,0,0-5.22-6.33,53.83,53.83,0,0,0,2.15,8Z"/><path class="cls-1" d="M52.94,60h0c-.8,0-2.07-8.85-2.07-8.94a2.25,2.25,0,1,1,4.5.09h0a39.31,39.31,0,0,1-1,4.78C53.45,59.86,53.17,60,52.94,60Zm.16-10.67a1.69,1.69,0,0,0-1.18.48,1.75,1.75,0,0,0-.55,1.26A57.55,57.55,0,0,0,53,59.18a53.27,53.27,0,0,0,1.88-8h0a1.75,1.75,0,0,0-1.69-1.81Z"/><path class="cls-1" d="M52.75,70.59h0a2.28,2.28,0,0,1-2.2-2.34h0a39.31,39.31,0,0,1,1-4.78c1-4.08,1.26-4.07,1.48-4.07.81,0,2.07,8.85,2.07,8.94A2.32,2.32,0,0,1,54.31,70,2.22,2.22,0,0,1,52.75,70.59ZM51,68.26a1.75,1.75,0,0,0,1.69,1.81A1.7,1.7,0,0,0,54,69.58a1.81,1.81,0,0,0,.53-1.25,57.55,57.55,0,0,0-1.58-8.12A54.5,54.5,0,0,0,51,68.26Z"/><path class="cls-1" d="M48.51,69.44a2.16,2.16,0,0,1-1.18-.34A2.33,2.33,0,0,1,46.59,66h0c.48-.79,5.42-6.21,6.24-6.41l.11,0,.14.06c.68.43-2.61,8.69-2.65,8.77a2.25,2.25,0,0,1-1.92,1.09ZM47,66.21a1.8,1.8,0,0,0,.56,2.45,1.66,1.66,0,0,0,1.3.22,1.73,1.73,0,0,0,1.09-.8,57.48,57.48,0,0,0,2.66-7.83,53.39,53.39,0,0,0-5.61,6Z"/><path class="cls-1" d="M52.91,60.13l-.14-.06c-.68-.43,2.61-8.69,2.65-8.77a2.23,2.23,0,0,1,1.41-1,2.19,2.19,0,0,1,1.69.28,2.32,2.32,0,0,1,.74,3.16h0c-.48.78-5.42,6.2-6.24,6.4Zm4.43-9.41a1.74,1.74,0,0,0-.39.05,1.71,1.71,0,0,0-1.08.8A56.54,56.54,0,0,0,53.2,59.4a52.53,52.53,0,0,0,5.61-6h0A1.8,1.8,0,0,0,58.25,51,1.67,1.67,0,0,0,57.34,50.72Z"/><path class="cls-1" d="M45.47,66.09a2.18,2.18,0,0,1-.67-.1,2.24,2.24,0,0,1-1.33-1.14,2.33,2.33,0,0,1,1-3.09h0c.8-.42,7.76-2.48,8.57-2.23l.11,0,.09.12c.37.73-6.61,6.1-6.68,6.14A2.26,2.26,0,0,1,45.47,66.09Zm-.8-3.87a1.8,1.8,0,0,0-.74,2.4,1.71,1.71,0,0,0,2.33.76A55.83,55.83,0,0,0,52.49,60a50.79,50.79,0,0,0-7.82,2.18Z"/><path class="cls-1" d="M53.07,60.14l-.2,0-.11,0L52.67,60c-.37-.73,6.6-6.1,6.68-6.14a2.22,2.22,0,0,1,1.71-.16,2.27,2.27,0,0,1,1.33,1.14,2.32,2.32,0,0,1-1,3.09A44.8,44.8,0,0,1,53.07,60.14Zm7.32-6.06a1.64,1.64,0,0,0-.8.2,55.46,55.46,0,0,0-6.22,5.33,51.11,51.11,0,0,0,7.82-2.18,1.8,1.8,0,0,0,.74-2.4,1.74,1.74,0,0,0-1-.87A1.51,1.51,0,0,0,60.39,54.08Z"/><path class="cls-1" d="M44.48,61.7h0a2.3,2.3,0,0,1-1.44-4,2.18,2.18,0,0,1,1.59-.6c.09,0,8.66,1.69,8.63,2.58v.11l-.09.11C52.59,60.41,45.51,61.7,44.48,61.7Zm0-4.07a1.66,1.66,0,0,0-1.17.47,1.78,1.78,0,0,0,1.11,3.09,55,55,0,0,0,8-1.52,50.36,50.36,0,0,0-7.87-2Z"/><path class="cls-1" d="M61.34,62.28h-.08c-.09,0-8.66-1.69-8.63-2.58v-.11l.09-.11c.53-.49,7.79-1.83,8.68-1.78a2.31,2.31,0,0,1,1.45,4A2.24,2.24,0,0,1,61.34,62.28Zm-7.93-2.56a50.36,50.36,0,0,0,7.87,2,1.67,1.67,0,0,0,1.22-.47,1.78,1.78,0,0,0-1.11-3.09A60.25,60.25,0,0,0,53.41,59.72Z"/><path class="cls-1" d="M52.9,60c-1,0-7.55-2.44-8.3-2.92a2.32,2.32,0,0,1-.71-3.16,2.23,2.23,0,0,1,3.1-.73c.08,0,6.65,5.91,6.19,6.67l-.06.09L53,60Zm-7.1-6.64a1.64,1.64,0,0,0-.38,0,1.68,1.68,0,0,0-1.09.79,1.8,1.8,0,0,0,.55,2.45,55.89,55.89,0,0,0,7.64,2.79,52,52,0,0,0-5.8-5.8A1.7,1.7,0,0,0,45.8,53.35Z"/><path class="cls-1" d="M60.05,66.56a2.2,2.2,0,0,1-1.19-.35c-.08,0-6.65-5.91-6.18-6.67l0-.09.14,0c.7-.16,7.61,2.42,8.38,2.91A2.32,2.32,0,0,1,62,65.48a2.18,2.18,0,0,1-1.41,1A2.14,2.14,0,0,1,60.05,66.56ZM53.34,60a51.14,51.14,0,0,0,5.8,5.8,1.7,1.7,0,0,0,2.38-.56A1.8,1.8,0,0,0,61,62.76,55.72,55.72,0,0,0,53.34,60Z"/><path class="cls-1" d="M52.93,61.83A2.14,2.14,0,1,1,55,59.69,2.12,2.12,0,0,1,52.93,61.83Zm0-3.76a1.62,1.62,0,1,0,1.57,1.62A1.6,1.6,0,0,0,52.93,58.07Z"/><path class="cls-1" d="M43.91,274.71a4.1,4.1,0,0,1-3.58-1.48,3.48,3.48,0,0,1,.26-4.61c1.81-1.7,6-1.78,12.17,3.12a.26.26,0,0,1,0,.44C52.43,272.32,47.61,274.71,43.91,274.71Zm-.3-6.6A3.75,3.75,0,0,0,41,269a3,3,0,0,0-.19,3.92c2.1,3,9.56-.21,11.34-1C48.48,269.11,45.62,268.11,43.61,268.11Z"/><path class="cls-1" d="M44,280l-.09,0a.25.25,0,0,1-.15-.34c2-5.15,8.51-7.8,8.79-7.91a.27.27,0,0,1,.34.15.25.25,0,0,1-.14.34c-.07,0-6.62,2.68-8.5,7.61A.27.27,0,0,1,44,280Z"/><path class="cls-1" d="M61.29,274.71c-3.71,0-8.53-2.39-8.81-2.53a.26.26,0,0,1-.14-.21.24.24,0,0,1,.1-.23c6.21-4.9,10.36-4.82,12.17-3.12a3.48,3.48,0,0,1,.26,4.61A4.11,4.11,0,0,1,61.29,274.71Zm-8.19-2.82c1.77.83,9.24,4.06,11.34,1a3,3,0,0,0-.19-3.92C62.7,267.55,58.87,267.46,53.1,271.89Z"/><path class="cls-1" d="M61.24,280a.27.27,0,0,1-.24-.17c-1.89-4.93-8.43-7.58-8.5-7.61a.27.27,0,0,1-.15-.34.28.28,0,0,1,.35-.15c.27.11,6.82,2.76,8.79,7.91a.27.27,0,0,1-.15.34Z"/><line class="cls-1" x1="5.74" y1="272.44" x2="101.82" y2="272.44"/><rect class="cls-1" x="5.74" y="271.91" width="96.09" height="1.05"/><path class="cls-1" d="M23.3,27.13A96.13,96.13,0,0,0,20.46,11,15.37,15.37,0,0,1,23.3,27.13Z"/><path class="cls-1" d="M22.73,27.16l0,.05s-3.44-.93-4.82-7.47C17.16,16.28,19.78,11,19.78,11l.11.11A97.26,97.26,0,0,1,22.73,27.16Z"/><path class="cls-1" d="M16,30.73a.11.11,0,0,1,.06-.1.12.12,0,0,1,.18,0A38.67,38.67,0,0,1,22.46,58a.16.16,0,0,1-.15.14.13.13,0,0,1-.12-.15A38.39,38.39,0,0,0,16,30.82.1.1,0,0,1,16,30.73Z"/><path class="cls-2" d="M25.49,37.62s-1.34-3.18-4.44-3.69L18,33.41A12,12,0,0,0,20.75,37C22.47,38.4,25.49,37.62,25.49,37.62Z"/><path class="cls-1" d="M16.71,46.54s2.91-2.33,3.05-5.58l.13-3.25a15.74,15.74,0,0,0-3.17,3.92C15.6,43.77,16.71,46.54,16.71,46.54Z"/><path class="cls-1" d="M20.28,65s2.69-2.6,2.5-5.82L22.58,56a15.78,15.78,0,0,0-2.79,4.19C18.88,62.38,20.28,65,20.28,65Z"/><path class="cls-1" d="M18.68,57.23S21.37,56,22,53.68l.66-2.36a12.4,12.4,0,0,0-3.17,2.32A4.67,4.67,0,0,0,18.68,57.23Z"/><path class="cls-2" d="M14.35,38a5.32,5.32,0,0,1,1.24-3.88l1.5-1.61a9.35,9.35,0,0,1-.37,3.15A5,5,0,0,1,14.35,38Z"/><path class="cls-1" d="M19,49.88A5.3,5.3,0,0,1,20.2,46l1.5-1.6a9.15,9.15,0,0,1-.38,3.14A5,5,0,0,1,19,49.88Z"/><path class="cls-1" d="M25.8,44.44A5.18,5.18,0,0,1,22,42.05l-1.12-2.16a9.7,9.7,0,0,1,3.41,1.2C25.68,42,25.8,44.44,25.8,44.44Z"/><path class="cls-1" d="M26.68,52.66a5.08,5.08,0,0,1-3.45-2.87l-.83-2.3a9.46,9.46,0,0,1,3.17,1.63C26.86,50.24,26.68,52.66,26.68,52.66Z"/><path class="cls-1" d="M21.28,23.09a.63.63,0,0,0-.28-.48.5.5,0,0,0-.54.14,1.1,1.1,0,0,0-.25.52,9.94,9.94,0,0,0-.29,1.63c0,.35-.09.77-.42.92.43-.46.13-1.18-.19-1.72-.59-1-.86-2-2.72-2.06-.43,1.56,1.12,2.68,1.3,4.28a2.56,2.56,0,0,1-1.72-.73,7.3,7.3,0,0,0-1.66-.87.85.85,0,0,0-.82,0c-.27.21-.17.63,0,.93a4.13,4.13,0,0,0,3.37,2c.77,0,1.45.11,2.19.21s.93-.21,1.14-.79C20.84,25.85,21.5,24.4,21.28,23.09Z"/><path class="cls-1" d="M14.89,28.41a3.79,3.79,0,0,1-2-1.2c-.17-.23-.29-.57-.09-.78s.56-.12.84,0l1.83.68a4.2,4.2,0,0,1-1.94-2.57A.79.79,0,0,1,13.6,24a.73.73,0,0,1,.71-.21,1.74,1.74,0,0,1,.68.34,9.8,9.8,0,0,1,1.55,1.39,3,3,0,0,1-1.11-2,1,1,0,0,1,.08-.6.51.51,0,0,1,.53-.26.75.75,0,0,1,.33.25A8.08,8.08,0,0,1,17.73,25a3.64,3.64,0,0,1-.36-2.83,1.12,1.12,0,0,1,.89.54,2.57,2.57,0,0,1,.36,1A16.51,16.51,0,0,1,19,26.12a5.69,5.69,0,0,1-.09,2.4C18.36,29.49,15.69,28.65,14.89,28.41Z"/><path class="cls-2" d="M20.13,27.9a1.15,1.15,0,0,1-.3.8,1.19,1.19,0,0,1-.52.24,2.91,2.91,0,0,1-1.55-.08c-.1,0-.22-.12-.17-.21s.05-.06.09-.08l.48-.23c0-.17-.27-.3-.19-.44a.24.24,0,0,1,.18-.09,2,2,0,0,1,.74,0,1.56,1.56,0,0,0,0-1,1,1,0,0,1,.6.29,2.06,2.06,0,0,1,.19-.84c0-.05.06-.11.12-.11C20.23,26.16,20.15,27.67,20.13,27.9Z"/><path class="cls-2" d="M23.29,29.56a3.53,3.53,0,0,0,.92,0c0,.08-.11.1-.19.11a9,9,0,0,1-3.3-.45,5.09,5.09,0,0,1-.76-.32c-.13-.07-.46-.31-.1-.27a4,4,0,0,1,.77.34c.27.1.54.19.82.27A8.9,8.9,0,0,0,23.29,29.56Z"/><path class="cls-3" d="M30.89,30.63a.17.17,0,0,1,0,.07,6.7,6.7,0,0,0,3,4.9,7.37,7.37,0,0,0,.43-1.66,2.53,2.53,0,0,1,1.63.41c0-.43.09-1,.14-1.47a9.76,9.76,0,0,1,1.62.59A7.75,7.75,0,0,0,33.43,28,2.9,2.9,0,0,0,32,27.69s0-.05,0-.07l0-.17a1.23,1.23,0,0,0,.82.24c.64,0,1.27.07,1.91,0a7.39,7.39,0,0,0,3.6-1.37,6.53,6.53,0,0,0,1.52-1.54,9.19,9.19,0,0,0-1.74-.41,2.35,2.35,0,0,1,.43-1.56l-1.53-.14a9.42,9.42,0,0,1,.61-1.55A8,8,0,0,0,32,25.27l-.06.1a10.13,10.13,0,0,0,.32-1.45,6.64,6.64,0,0,0-.68-3.66,6.34,6.34,0,0,0-1.27-1.73,8,8,0,0,0-.77,1.55,2.53,2.53,0,0,1-1.5-.72c-.14.42-.31,1-.45,1.41a9.86,9.86,0,0,1-1.47-.88,7.55,7.55,0,0,0,1.74,4.87,7.4,7.4,0,0,0-3.29-1.2,7.07,7.07,0,0,0-2.2.1,8,8,0,0,0,.95,1.45,2.47,2.47,0,0,1-1.44.84l1,1.11a9.17,9.17,0,0,1-1.56.72A8.46,8.46,0,0,0,26.79,29a7.79,7.79,0,0,0-3.3,3.74,9.57,9.57,0,0,1,1.7-.28c0,.43-.11,1-.14,1.46a2.55,2.55,0,0,1,1.68-.11,7.41,7.41,0,0,0,.09,1.7,6.47,6.47,0,0,0,1.86-1.14,6.74,6.74,0,0,0,2.08-3.13A3.78,3.78,0,0,0,30.89,30.63Zm.76-4.39a.15.15,0,0,0,0,.07l0,0Z"/><path class="cls-2" d="M29.64,29.44a2.28,2.28,0,0,0,2.69-1.73,2.2,2.2,0,0,0-1.8-2.58,2.31,2.31,0,0,0-2.7,1.74A2.2,2.2,0,0,0,29.64,29.44Z"/><path class="cls-4" d="M24.52,24.86l-.95-.28,0-.06.95.27c.25.08.53.18.63.41l-.06,0A.9.9,0,0,0,24.52,24.86Z"/><path class="cls-4" d="M23.3,25.69a12.89,12.89,0,0,1,1.47.53l0,.06a12,12,0,0,0-1.46-.52Z"/><path class="cls-4" d="M23,27.13a6.45,6.45,0,0,0,2.1.11v.06A6.11,6.11,0,0,1,23,27.19Z"/><path class="cls-4" d="M28.21,22.9h.08a.08.08,0,0,1-.05,0,.08.08,0,0,1-.08,0,.11.11,0,0,1,0-.09,5.79,5.79,0,0,0-.5-1.43l.06,0a5.45,5.45,0,0,1,.51,1.45A.08.08,0,0,0,28.21,22.9Z"/><path class="cls-4" d="M29,22.28h0l0,.06h-.09a.34.34,0,0,1-.15-.14l-.53-1,.06,0,.54,1A.24.24,0,0,0,29,22.28Z"/><path class="cls-4" d="M29.8,21.72l-.26-1,.07,0,.26,1a.26.26,0,0,0,.05.12l.06,0h0l.06.05a.11.11,0,0,1-.08,0,.16.16,0,0,1-.11-.05A.31.31,0,0,1,29.8,21.72Z"/><path class="cls-4" d="M35.36,24.27l1-.86c.07-.06.14-.13.13-.21h.08a.09.09,0,0,1,0,.05.42.42,0,0,1-.15.22l-1,.85Z"/><path class="cls-4" d="M36.17,24.69l0-.06A5.65,5.65,0,0,0,37,24l.05.06A5.4,5.4,0,0,1,36.17,24.69Z"/><path class="cls-4" d="M37.7,24.76l0,.06a13,13,0,0,0-1.8.88l0-.06A12,12,0,0,1,37.7,24.76Z"/><path class="cls-4" d="M34.94,31.37a19.73,19.73,0,0,1,.83,1.81l-.07,0a17.06,17.06,0,0,0-.83-1.79Z"/><path class="cls-4" d="M34.07,31.9a11.46,11.46,0,0,1,.7,1.23l-.07,0A9.79,9.79,0,0,0,34,31.94Z"/><path class="cls-4" d="M33.42,32.51l.06,0c.25.34.48.69.7,1.05l-.06,0C33.9,33.2,33.67,32.85,33.42,32.51Z"/><path class="cls-4" d="M27.15,33.14a2,2,0,0,0,.83-.38.52.52,0,0,0,.23-.29h.07a.64.64,0,0,1-.25.34,2,2,0,0,1-.87.38Z"/><path class="cls-4" d="M27.27,31.88a4.25,4.25,0,0,1-.6.6.57.57,0,0,1-.42.17v-.07a.51.51,0,0,0,.36-.15,5.48,5.48,0,0,0,.59-.59Z"/><path class="cls-4" d="M25.48,31.75v-.07a1.58,1.58,0,0,0,.87-.44l.05.05A1.69,1.69,0,0,1,25.48,31.75Z"/><path class="cls-1" d="M29.3,28.6a.13.13,0,0,1,.16-.1l.27-.6a.7.7,0,0,1-.24-.3l-.69.19a.13.13,0,0,1-.08.13.14.14,0,0,1-.19-.05.14.14,0,0,1,.06-.19.14.14,0,0,1,.19.05l.69-.19a.73.73,0,0,1,0-.33.7.7,0,0,1,.39-.48h-.06l-.2-.67a.15.15,0,0,1-.14-.07.15.15,0,0,1,.06-.19.15.15,0,0,1,.2.06.12.12,0,0,1-.06.18l.2.68a.75.75,0,0,1,.47-.06h0l.33-.58a.12.12,0,0,1,0-.14.14.14,0,0,1,.18-.09.14.14,0,0,1,.1.17.16.16,0,0,1-.18.09l-.33.57a.67.67,0,0,1,.45.37l.56-.22a.12.12,0,0,1,.06-.13.14.14,0,0,1,.2,0,.14.14,0,0,1,0,.2.16.16,0,0,1-.2,0l-.56.21a.62.62,0,0,1,0,.38.29.29,0,0,1,0,.09l.5.27a.14.14,0,0,1,.15,0,.14.14,0,0,1,.1.17.15.15,0,0,1-.18.09.14.14,0,0,1-.1-.17l-.5-.26a.7.7,0,0,1-.47.38l.22.53a.17.17,0,0,1,.15.06.13.13,0,0,1-.05.19.14.14,0,0,1-.2,0,.14.14,0,0,1,0-.19L30.3,28A.82.82,0,0,1,30,28a.68.68,0,0,1-.25-.09l-.26.58a.13.13,0,0,1,.06.14.16.16,0,0,1-.17.11A.14.14,0,0,1,29.3,28.6Z"/><path class="cls-5" d="M28.86,26.71l.67.27,0,.06-.67-.28a.14.14,0,0,1-.15.06.15.15,0,0,1-.11-.16.15.15,0,0,1,.29.05Z"/><path class="cls-3" d="M24.22,39.12l0,.07a7.08,7.08,0,0,0,2.63,2.72,6.81,6.81,0,0,0,2.05.79A7.55,7.55,0,0,0,28.71,41a2.53,2.53,0,0,1,1.67-.18c-.11-.42-.3-1-.41-1.42a9.89,9.89,0,0,1,1.72,0,8.11,8.11,0,0,0-6.08-3.58,2.92,2.92,0,0,0-1.47.18.17.17,0,0,0,0-.07.85.85,0,0,0,0-.17A1.29,1.29,0,0,0,25,35.7c.58-.24,1.21-.37,1.78-.65a7.19,7.19,0,0,0,2.85-2.53,6.4,6.4,0,0,0,.83-2,8.84,8.84,0,0,0-1.77.22,2.31,2.31,0,0,1-.19-1.61l-1.48.4a9.11,9.11,0,0,1,0-1.65,7.68,7.68,0,0,0-3.73,5.83.45.45,0,0,1,0,.11A9.41,9.41,0,0,0,23,32.39a6.82,6.82,0,0,0-2-3.17,6.33,6.33,0,0,0-1.84-1.17,8,8,0,0,0-.13,1.7,2.49,2.49,0,0,1-1.68-.15c0,.44.09,1,.12,1.47a9.61,9.61,0,0,1-1.7-.31,7.79,7.79,0,0,0,3.46,3.93,7.61,7.61,0,0,0-3.52,0,6.36,6.36,0,0,0-2,.86,8.56,8.56,0,0,0,1.43,1,2.33,2.33,0,0,1-1,1.28l1.36.7a9,9,0,0,1-1.19,1.2,8.39,8.39,0,0,0,5.55-.8,7.53,7.53,0,0,0-1.67,4.63,9.33,9.33,0,0,1,1.48-.85c.13.42.29,1,.42,1.42a2.44,2.44,0,0,1,1.52-.69A8.87,8.87,0,0,0,22.24,45a6.19,6.19,0,0,0,1.31-1.71,6.68,6.68,0,0,0,.76-3.64A5.62,5.62,0,0,0,24.22,39.12Zm-.95-4.36a.64.64,0,0,0,0,.07h0A.14.14,0,0,0,23.27,34.76Z"/><path class="cls-2" d="M22.61,38.45a2.21,2.21,0,0,0,1.86-2.55,2.29,2.29,0,0,0-2.66-1.78A2.21,2.21,0,0,0,20,36.67,2.29,2.29,0,0,0,22.61,38.45Z"/><path class="cls-6" d="M16.1,36l-1,.06v-.07l1-.06a.9.9,0,0,1,.74.16l-.05.05A.85.85,0,0,0,16.1,36Z"/><path class="cls-6" d="M15.28,37.14a13.71,13.71,0,0,1,1.57,0v.07a13.53,13.53,0,0,0-1.56,0Z"/><path class="cls-6" d="M15.57,38.57a5.89,5.89,0,0,0,2-.63l0,.07a6.4,6.4,0,0,1-2,.63Z"/><path class="cls-6" d="M18.81,32.84h.08s0,.05,0,.06a.1.1,0,0,1-.09,0,.12.12,0,0,1-.07-.07,5.84,5.84,0,0,0-1-1.16l.05-.05a5.63,5.63,0,0,1,1,1.17S18.79,32.84,18.81,32.84Z"/><path class="cls-6" d="M19.26,32l0,0,.06.05a.2.2,0,0,1-.08,0,.37.37,0,0,1-.19-.08l-.88-.77.05-.05.88.77A.36.36,0,0,0,19.26,32Z"/><path class="cls-6" d="M19.85,31.19l-.63-.87.06,0,.63.87a.26.26,0,0,0,.09.09.06.06,0,0,0,.06,0,0,0,0,0,0,0,0l.07,0a.13.13,0,0,1-.07.05.11.11,0,0,1-.11,0A.26.26,0,0,1,19.85,31.19Z"/><path class="cls-6" d="M26,31.65l.58-1.13c0-.08.08-.17,0-.24l.07,0a.07.07,0,0,1,0,.05.39.39,0,0,1-.06.25l-.57,1.13Z"/><path class="cls-6" d="M26.91,31.76l-.06-.05a4.92,4.92,0,0,0,.61-.9l.06,0A5.43,5.43,0,0,1,26.91,31.76Z"/><path class="cls-6" d="M28.36,31.3l.05.05a11.3,11.3,0,0,0-1.34,1.43l-.06,0A11.51,11.51,0,0,1,28.36,31.3Z"/><path class="cls-6" d="M28.27,38.42c.51.44,1,.91,1.46,1.39l-.06,0a19.12,19.12,0,0,0-1.45-1.39Z"/><path class="cls-6" d="M27.66,39.21a12.25,12.25,0,0,1,1.12.9l-.05.06a9.49,9.49,0,0,0-1.11-.9Z"/><path class="cls-6" d="M27.29,40l0-.06c.36.23.71.48,1.05.73l-.05,0C28,40.48,27.64,40.24,27.29,40Z"/><path class="cls-6" d="M21.67,42.75a1.68,1.68,0,0,0,.64-.63.58.58,0,0,0,.1-.35h.07a.58.58,0,0,1-.11.4,1.9,1.9,0,0,1-.66.66Z"/><path class="cls-6" d="M21.31,41.55a5.63,5.63,0,0,1-.33.76.53.53,0,0,1-.32.3l0-.07c.13,0,.21-.15.27-.26a3.81,3.81,0,0,0,.33-.75Z"/><path class="cls-6" d="M19.6,42l0-.07a1.49,1.49,0,0,0,.65-.71l.06,0A1.62,1.62,0,0,1,19.6,42Z"/><path class="cls-1" d="M22,37.79a.14.14,0,0,1,.12-.16l0-.65a.63.63,0,0,1-.33-.2l-.58.42a.14.14,0,0,1,0,.15.15.15,0,0,1-.21,0,.13.13,0,0,1,0-.19.14.14,0,0,1,.2,0l.58-.42a.6.6,0,0,1-.14-.3.67.67,0,0,1,.18-.59l-.05,0-.44-.56a.16.16,0,0,1-.16,0,.14.14,0,0,1,0-.2.17.17,0,0,1,.21,0,.14.14,0,0,1,0,.19l.44.56a.71.71,0,0,1,.41-.21h0l.09-.65a.14.14,0,0,1-.09-.13.13.13,0,0,1,.13-.14.13.13,0,0,1,.15.13.13.13,0,0,1-.13.14l-.09.64a.8.8,0,0,1,.56.19l.44-.39a.12.12,0,0,1,0-.15.14.14,0,0,1,.2,0,.13.13,0,0,1,0,.19.14.14,0,0,1-.2,0l-.44.4a.61.61,0,0,1,.17.34.28.28,0,0,1,0,.09l.57.07a.18.18,0,0,1,.13-.09.14.14,0,0,1,.15.13.13.13,0,0,1-.13.15.15.15,0,0,1-.16-.13L23,36.35a.68.68,0,0,1-.3.53l.41.41a.18.18,0,0,1,.16,0,.13.13,0,0,1,0,.19.16.16,0,0,1-.2,0,.15.15,0,0,1,0-.2l-.41-.42a.58.58,0,0,1-.25.09.82.82,0,0,1-.27,0l0,.63a.13.13,0,0,1,.1.11.14.14,0,0,1-.11.16A.15.15,0,0,1,22,37.79Z"/><path class="cls-5" d="M20.85,36.17l.73,0v.06l-.73,0a.13.13,0,0,1-.11.1.15.15,0,0,1-.17-.11.14.14,0,0,1,.12-.16A.16.16,0,0,1,20.85,36.17Z"/><path class="cls-1" d="M82.93,27.13A96.13,96.13,0,0,1,85.77,11,15.37,15.37,0,0,0,82.93,27.13Z"/><path class="cls-1" d="M83.5,27.16l0,.05s3.44-.93,4.82-7.47c.73-3.46-1.89-8.78-1.89-8.78l-.11.11A97.26,97.26,0,0,0,83.5,27.16Z"/><path class="cls-1" d="M90.23,30.73a.17.17,0,0,0-.06-.1.13.13,0,0,0-.19,0A38.67,38.67,0,0,0,83.77,58a.16.16,0,0,0,.15.14A.13.13,0,0,0,84,58,38.44,38.44,0,0,1,90.2,30.82.16.16,0,0,0,90.23,30.73Z"/><path class="cls-2" d="M80.74,37.62s1.34-3.18,4.44-3.69l3.1-.52A12,12,0,0,1,85.48,37C83.76,38.4,80.74,37.62,80.74,37.62Z"/><path class="cls-1" d="M89.52,46.54s-2.91-2.33-3-5.58l-.13-3.25a15.74,15.74,0,0,1,3.17,3.92C90.63,43.77,89.52,46.54,89.52,46.54Z"/><path class="cls-1" d="M86,65s-2.69-2.6-2.49-5.82L83.65,56a15.78,15.78,0,0,1,2.79,4.19C87.35,62.38,86,65,86,65Z"/><path class="cls-1" d="M87.55,57.23S84.86,56,84.2,53.68l-.66-2.36a12.4,12.4,0,0,1,3.17,2.32A4.67,4.67,0,0,1,87.55,57.23Z"/><path class="cls-2" d="M91.88,38a5.32,5.32,0,0,0-1.24-3.88l-1.5-1.61a9.2,9.2,0,0,0,.38,3.15A4.91,4.91,0,0,0,91.88,38Z"/><path class="cls-1" d="M87.27,49.88A5.3,5.3,0,0,0,86,46l-1.5-1.6a9.15,9.15,0,0,0,.38,3.14A5,5,0,0,0,87.27,49.88Z"/><path class="cls-1" d="M80.43,44.44a5.18,5.18,0,0,0,3.85-2.39l1.12-2.16A9.7,9.7,0,0,0,82,41.09C80.55,42,80.43,44.44,80.43,44.44Z"/><path class="cls-1" d="M79.55,52.66A5.08,5.08,0,0,0,83,49.79l.83-2.3a9.46,9.46,0,0,0-3.17,1.63C79.37,50.24,79.55,52.66,79.55,52.66Z"/><path class="cls-1" d="M85,23.09a.62.62,0,0,1,.27-.48.5.5,0,0,1,.54.14,1.1,1.1,0,0,1,.25.52,9.94,9.94,0,0,1,.29,1.63c0,.35.09.77.42.92-.43-.46-.13-1.18.19-1.72.59-1,.86-2,2.72-2.06.43,1.56-1.12,2.68-1.3,4.28a2.6,2.6,0,0,0,1.73-.73,7,7,0,0,1,1.65-.87.85.85,0,0,1,.82,0c.27.21.17.63,0,.93a4.13,4.13,0,0,1-3.37,2c-.77,0-1.45.11-2.19.21s-.93-.21-1.14-.79C85.39,25.85,84.73,24.4,85,23.09Z"/><path class="cls-1" d="M91.34,28.41a3.79,3.79,0,0,0,2-1.2c.17-.23.29-.57.09-.78s-.56-.12-.84,0l-1.82.68a4.18,4.18,0,0,0,1.93-2.57.79.79,0,0,0-.11-.56.73.73,0,0,0-.71-.21,1.74,1.74,0,0,0-.68.34,9.8,9.8,0,0,0-1.55,1.39,3,3,0,0,0,1.11-2,1,1,0,0,0-.08-.6.51.51,0,0,0-.53-.26.75.75,0,0,0-.33.25A8.08,8.08,0,0,0,88.5,25a3.64,3.64,0,0,0,.36-2.83,1.14,1.14,0,0,0-.89.54,2.57,2.57,0,0,0-.36,1,16.51,16.51,0,0,0-.33,2.43,5.69,5.69,0,0,0,.09,2.4C87.87,29.49,90.54,28.65,91.34,28.41Z"/><path class="cls-2" d="M86.1,27.9a1.15,1.15,0,0,0,.3.8,1.24,1.24,0,0,0,.52.24,2.91,2.91,0,0,0,1.55-.08c.1,0,.22-.12.18-.21a.2.2,0,0,0-.1-.08l-.48-.23c0-.17.27-.3.19-.44a.24.24,0,0,0-.18-.09,2,2,0,0,0-.73,0,1.56,1.56,0,0,1,0-1,1,1,0,0,0-.6.29,2.06,2.06,0,0,0-.19-.84c0-.05-.06-.11-.12-.11C86,26.16,86.08,27.67,86.1,27.9Z"/><path class="cls-2" d="M82.94,29.56a3.53,3.53,0,0,1-.92,0c0,.08.11.1.19.11a9.05,9.05,0,0,0,3.31-.45,5.45,5.45,0,0,0,.75-.32c.13-.07.46-.31.1-.27a4,4,0,0,0-.77.34c-.27.1-.54.19-.82.27A8.9,8.9,0,0,1,82.94,29.56Z"/><path class="cls-3" d="M75.47,31.19a6.81,6.81,0,0,0,2.08,3.13,6.47,6.47,0,0,0,1.86,1.14,7.41,7.41,0,0,0,.09-1.7,2.55,2.55,0,0,1,1.68.11c0-.43-.1-1-.14-1.46a9.69,9.69,0,0,1,1.71.28A7.86,7.86,0,0,0,79.44,29a8.46,8.46,0,0,0,5.48-1.17,9.17,9.17,0,0,1-1.56-.72l1-1.11a2.47,2.47,0,0,1-1.44-.84,8,8,0,0,0,1-1.45,7.07,7.07,0,0,0-2.2-.1,7.4,7.4,0,0,0-3.29,1.2,7.55,7.55,0,0,0,1.74-4.87,9.37,9.37,0,0,1-1.47.88c-.14-.42-.31-1-.44-1.41a2.58,2.58,0,0,1-1.51.72,8,8,0,0,0-.77-1.55,6.34,6.34,0,0,0-1.27,1.73A6.64,6.64,0,0,0,74,23.92a10.13,10.13,0,0,0,.32,1.45l0-.1a8,8,0,0,0-5.68-4.15,9.42,9.42,0,0,1,.61,1.55l-1.53.14a2.35,2.35,0,0,1,.43,1.56,9.19,9.19,0,0,0-1.74.41,6.53,6.53,0,0,0,1.52,1.54,7.39,7.39,0,0,0,3.6,1.37c.64.07,1.28,0,1.91,0a1.23,1.23,0,0,0,.82-.24l0,.17a.19.19,0,0,0,0,.07A2.91,2.91,0,0,0,72.8,28a7.75,7.75,0,0,0-4.33,5.44,9.76,9.76,0,0,1,1.62-.59c0,.44.09,1,.14,1.47a2.53,2.53,0,0,1,1.63-.41,8,8,0,0,0,.43,1.66,6.7,6.7,0,0,0,3-4.9.17.17,0,0,1,0-.07A3.78,3.78,0,0,0,75.47,31.19Zm-.85-4.91,0,0a.15.15,0,0,0,0-.07Z"/><path class="cls-2" d="M76.59,29.44a2.28,2.28,0,0,1-2.69-1.73,2.2,2.2,0,0,1,1.8-2.58,2.31,2.31,0,0,1,2.7,1.74A2.2,2.2,0,0,1,76.59,29.44Z"/><path class="cls-4" d="M81.71,24.86l1-.28,0-.06-1,.27c-.25.08-.53.18-.63.41l.06,0A.9.9,0,0,1,81.71,24.86Z"/><path class="cls-4" d="M82.93,25.69a12.89,12.89,0,0,0-1.47.53l0,.06A12,12,0,0,1,83,25.76Z"/><path class="cls-4" d="M83.2,27.13a6.51,6.51,0,0,1-2.11.11v.06a6.1,6.1,0,0,0,2.13-.11Z"/><path class="cls-4" d="M78,22.9h-.08a.08.08,0,0,0,0,0,.08.08,0,0,0,.08,0,.16.16,0,0,0,.05-.09,5.76,5.76,0,0,1,.49-1.43l-.06,0A5.45,5.45,0,0,0,78,22.85.08.08,0,0,1,78,22.9Z"/><path class="cls-4" d="M77.28,22.28h0l0,.06h.08a.34.34,0,0,0,.15-.14l.53-1-.06,0-.54,1A.24.24,0,0,1,77.28,22.28Z"/><path class="cls-4" d="M76.43,21.72l.26-1-.07,0-.26,1a.26.26,0,0,1,0,.12l-.06,0h0l-.06.05a.11.11,0,0,0,.08,0,.16.16,0,0,0,.11-.05A.31.31,0,0,0,76.43,21.72Z"/><path class="cls-4" d="M70.87,24.27l-1-.86c-.06-.06-.14-.13-.13-.21H69.7a.09.09,0,0,0,0,.05.48.48,0,0,0,.15.22l1,.85Z"/><path class="cls-4" d="M70.06,24.69l0-.06a5.65,5.65,0,0,1-.9-.64l0,.06A5.4,5.4,0,0,0,70.06,24.69Z"/><path class="cls-4" d="M68.53,24.76l0,.06a13,13,0,0,1,1.8.88l0-.06A12,12,0,0,0,68.53,24.76Z"/><path class="cls-4" d="M71.3,31.37a19.81,19.81,0,0,0-.84,1.81l.07,0a17.06,17.06,0,0,1,.83-1.79Z"/><path class="cls-4" d="M72.16,31.9a11.46,11.46,0,0,0-.7,1.23l.07,0a11.24,11.24,0,0,1,.69-1.22Z"/><path class="cls-4" d="M72.81,32.51l-.06,0c-.25.34-.48.69-.7,1.05l.06,0C72.33,33.2,72.56,32.85,72.81,32.51Z"/><path class="cls-4" d="M79.08,33.14a2,2,0,0,1-.83-.38.52.52,0,0,1-.23-.29H78a.64.64,0,0,0,.25.34,2,2,0,0,0,.87.38Z"/><path class="cls-4" d="M79,31.88a3.72,3.72,0,0,0,.59.6.57.57,0,0,0,.42.17v-.07a.51.51,0,0,1-.36-.15,5.48,5.48,0,0,1-.59-.59Z"/><path class="cls-4" d="M80.75,31.75v-.07a1.58,1.58,0,0,1-.87-.44l0,.05A1.69,1.69,0,0,0,80.75,31.75Z"/><path class="cls-1" d="M76.93,28.6a.13.13,0,0,0-.16-.1l-.27-.6a.7.7,0,0,0,.24-.3l.69.19a.13.13,0,0,0,.08.13.14.14,0,0,0,.19-.05.14.14,0,0,0-.06-.19.14.14,0,0,0-.19.05l-.69-.19a.61.61,0,0,0,0-.33.7.7,0,0,0-.39-.48h.06l.2-.67a.15.15,0,0,0,.14-.07.15.15,0,0,0-.06-.19.15.15,0,0,0-.2.06.13.13,0,0,0,.06.18l-.2.68a.75.75,0,0,0-.47-.06h0l-.33-.58a.12.12,0,0,0,0-.14.15.15,0,0,0-.28.08.16.16,0,0,0,.18.09l.33.57a.67.67,0,0,0-.45.37l-.56-.22a.12.12,0,0,0-.06-.13.14.14,0,0,0-.2,0,.14.14,0,0,0,0,.2.16.16,0,0,0,.2,0l.56.21a.62.62,0,0,0,0,.38.29.29,0,0,0,0,.09l-.5.27a.14.14,0,0,0-.15,0,.14.14,0,0,0-.1.17.16.16,0,0,0,.18.09.14.14,0,0,0,.1-.17l.5-.26a.7.7,0,0,0,.47.38l-.22.53a.14.14,0,0,0-.14.06.12.12,0,0,0,0,.19.14.14,0,0,0,.2,0,.14.14,0,0,0,0-.19l.22-.53a.89.89,0,0,0,.28,0,.63.63,0,0,0,.24-.09l.26.58a.13.13,0,0,0-.06.14.16.16,0,0,0,.17.11A.14.14,0,0,0,76.93,28.6Z"/><path class="cls-5" d="M77.37,26.71,76.7,27l0,.06.67-.28a.14.14,0,0,0,.15.06.15.15,0,0,0,.11-.16.15.15,0,0,0-.29.05Z"/><path class="cls-3" d="M81.92,39.69a6.68,6.68,0,0,0,.76,3.64A6.19,6.19,0,0,0,84,45a8.87,8.87,0,0,0,.73-1.56,2.44,2.44,0,0,1,1.52.69c.13-.42.29-1,.42-1.42a9.33,9.33,0,0,1,1.48.85A7.53,7.53,0,0,0,86.47,39a8.39,8.39,0,0,0,5.55.8,9,9,0,0,1-1.19-1.2l1.36-.7a2.33,2.33,0,0,1-1-1.28,8.56,8.56,0,0,0,1.43-1,6.36,6.36,0,0,0-2-.86,7.61,7.61,0,0,0-3.52,0,7.79,7.79,0,0,0,3.46-3.93,9.45,9.45,0,0,1-1.7.31c0-.43.09-1,.12-1.47a2.49,2.49,0,0,1-1.68.15,8,8,0,0,0-.13-1.7,6.33,6.33,0,0,0-1.84,1.17,6.9,6.9,0,0,0-2,3.17A10.75,10.75,0,0,0,83,33.86a.45.45,0,0,1,0-.11,7.68,7.68,0,0,0-3.73-5.83,9.11,9.11,0,0,1,0,1.65l-1.48-.4a2.31,2.31,0,0,1-.19,1.61,8.84,8.84,0,0,0-1.77-.22,6.4,6.4,0,0,0,.83,2,7.19,7.19,0,0,0,2.85,2.53c.57.28,1.2.41,1.78.65a1.29,1.29,0,0,0,.86.06.85.85,0,0,0,0,.17.17.17,0,0,0,0,.07,2.92,2.92,0,0,0-1.47-.18,8.11,8.11,0,0,0-6.08,3.58,9.89,9.89,0,0,1,1.72,0c-.11.42-.3,1-.41,1.42a2.53,2.53,0,0,1,1.67.18,7.55,7.55,0,0,0-.23,1.69,6.81,6.81,0,0,0,2-.79A7.18,7.18,0,0,0,82,39.19l0-.07A5.62,5.62,0,0,0,81.92,39.69ZM83,34.82h0a.64.64,0,0,0,0-.07A.14.14,0,0,0,83,34.82Z"/><path class="cls-2" d="M83.62,38.45a2.21,2.21,0,0,1-1.86-2.55,2.29,2.29,0,0,1,2.66-1.78,2.21,2.21,0,0,1,1.86,2.55A2.29,2.29,0,0,1,83.62,38.45Z"/><path class="cls-6" d="M90.13,36l1,.06v-.07l-1-.06a.9.9,0,0,0-.74.16l0,.05A.85.85,0,0,1,90.13,36Z"/><path class="cls-6" d="M91,37.14a13.71,13.71,0,0,0-1.57,0v.07a13.36,13.36,0,0,1,1.55,0Z"/><path class="cls-6" d="M90.66,38.57a5.89,5.89,0,0,1-2-.63l0,.07a6.4,6.4,0,0,0,2,.63Z"/><path class="cls-6" d="M87.42,32.84h-.08a.06.06,0,0,0,0,.06.08.08,0,0,0,.08,0,.12.12,0,0,0,.07-.07,5.58,5.58,0,0,1,1-1.16l0-.05a5.68,5.68,0,0,0-1,1.17S87.44,32.84,87.42,32.84Z"/><path class="cls-6" d="M87,32l0,0-.06.05.08,0a.37.37,0,0,0,.19-.08l.88-.77,0-.05L87.1,32A.36.36,0,0,1,87,32Z"/><path class="cls-6" d="M86.38,31.19l.63-.87-.06,0-.63.87a.26.26,0,0,1-.09.09.06.06,0,0,1-.06,0s0,0,0,0l-.07,0a.18.18,0,0,0,.07.05.11.11,0,0,0,.11,0A.22.22,0,0,0,86.38,31.19Z"/><path class="cls-6" d="M80.24,31.65l-.57-1.13c0-.08-.09-.17,0-.24l-.07,0a.07.07,0,0,0,0,.05.39.39,0,0,0,.06.25l.58,1.13Z"/><path class="cls-6" d="M79.32,31.76l.06-.05a4.92,4.92,0,0,1-.61-.9l-.06,0A5.43,5.43,0,0,0,79.32,31.76Z"/><path class="cls-6" d="M77.87,31.3l-.05.05a11.3,11.3,0,0,1,1.34,1.43l.06,0A10.81,10.81,0,0,0,77.87,31.3Z"/><path class="cls-6" d="M78,38.42c-.51.44-1,.91-1.46,1.39l.06,0A19.12,19.12,0,0,1,78,38.47Z"/><path class="cls-6" d="M78.57,39.21a12.25,12.25,0,0,0-1.12.9l0,.06a9.49,9.49,0,0,1,1.11-.9Z"/><path class="cls-6" d="M78.94,40l0-.06c-.36.23-.71.48-1.05.73l.05,0C78.23,40.48,78.59,40.24,78.94,40Z"/><path class="cls-6" d="M84.56,42.75a1.76,1.76,0,0,1-.64-.63.58.58,0,0,1-.1-.35h-.07a.58.58,0,0,0,.11.4,1.9,1.9,0,0,0,.66.66Z"/><path class="cls-6" d="M84.92,41.55a5.63,5.63,0,0,0,.33.76.52.52,0,0,0,.33.3v-.07c-.13,0-.21-.15-.27-.26a3.81,3.81,0,0,1-.33-.75Z"/><path class="cls-6" d="M86.63,42l0-.07a1.43,1.43,0,0,1-.64-.71l-.07,0A1.62,1.62,0,0,0,86.63,42Z"/><path class="cls-1" d="M84.26,37.79a.14.14,0,0,0-.11-.16l0-.65a.59.59,0,0,0,.33-.2l.58.42a.14.14,0,0,0,0,.15.15.15,0,0,0,.21,0,.13.13,0,0,0,0-.19.14.14,0,0,0-.2,0l-.57-.42a.69.69,0,0,0,.13-.3.67.67,0,0,0-.18-.59l0,0,.44-.56a.16.16,0,0,0,.16,0,.14.14,0,0,0,0-.2.15.15,0,0,0-.2,0,.13.13,0,0,0,0,.19l-.44.56a.71.71,0,0,0-.41-.21h0L83.94,35a.17.17,0,0,0,.1-.13.14.14,0,0,0-.14-.14.13.13,0,0,0-.15.13.13.13,0,0,0,.13.14l.09.64a.8.8,0,0,0-.56.19L83,35.42a.14.14,0,0,0,0-.15.16.16,0,0,0-.21,0,.13.13,0,0,0,0,.19.14.14,0,0,0,.2,0l.44.4a.61.61,0,0,0-.17.34.28.28,0,0,0,0,.09l-.57.07a.18.18,0,0,0-.13-.09.14.14,0,0,0-.15.13.13.13,0,0,0,.13.15.15.15,0,0,0,.16-.13l.56-.07a.68.68,0,0,0,.3.53l-.41.41a.18.18,0,0,0-.16,0,.13.13,0,0,0,0,.19.16.16,0,0,0,.2,0,.15.15,0,0,0,0-.2l.41-.42a.58.58,0,0,0,.26.09.76.76,0,0,0,.26,0l0,.63a.13.13,0,0,0-.1.11.14.14,0,0,0,.11.16A.15.15,0,0,0,84.26,37.79Z"/><path class="cls-5" d="M85.39,36.17l-.74,0v.06l.73,0a.14.14,0,0,0,.11.1.15.15,0,0,0,.17-.11.14.14,0,0,0-.28,0Z"/><path class="cls-1" d="M82.93,287.74a96.11,96.11,0,0,0,2.84,16.1A15.39,15.39,0,0,1,82.93,287.74Z"/><path class="cls-1" d="M83.5,287.71s0,0,0,0,3.44.94,4.82,7.47c.73,3.46-1.89,8.78-1.89,8.78l-.11-.1A97.23,97.23,0,0,1,83.5,287.71Z"/><path class="cls-1" d="M90.23,284.15a.27.27,0,0,1-.06.1.13.13,0,0,1-.19,0,38.7,38.7,0,0,1-6.21-27.38.16.16,0,0,1,.15-.13.12.12,0,0,1,.12.14,38.44,38.44,0,0,0,6.16,27.19A.17.17,0,0,1,90.23,284.15Z"/><path class="cls-2" d="M80.74,277.26s1.34,3.17,4.44,3.69l3.1.52a12,12,0,0,0-2.8-3.63C83.76,276.47,80.74,277.26,80.74,277.26Z"/><path class="cls-1" d="M89.52,268.34s-2.91,2.33-3,5.58l-.13,3.25a15.89,15.89,0,0,0,3.17-3.93C90.63,271.11,89.52,268.34,89.52,268.34Z"/><path class="cls-1" d="M86,249.88s-2.69,2.59-2.49,5.81l.19,3.22a15.92,15.92,0,0,0,2.79-4.2C87.35,252.49,86,249.88,86,249.88Z"/><path class="cls-1" d="M87.55,257.65s-2.69,1.2-3.35,3.55l-.66,2.35a12.4,12.4,0,0,0,3.17-2.32A4.65,4.65,0,0,0,87.55,257.65Z"/><path class="cls-2" d="M91.88,276.9a5.35,5.35,0,0,1-1.24,3.89l-1.5,1.6a9.15,9.15,0,0,1,.38-3.14A5,5,0,0,1,91.88,276.9Z"/><path class="cls-1" d="M87.27,265A5.3,5.3,0,0,1,86,268.88l-1.5,1.61a9.2,9.2,0,0,1,.38-3.15A5,5,0,0,1,87.27,265Z"/><path class="cls-1" d="M80.43,270.44a5.15,5.15,0,0,1,3.85,2.39L85.4,275a9.48,9.48,0,0,1-3.41-1.2C80.55,272.84,80.43,270.44,80.43,270.44Z"/><path class="cls-1" d="M79.55,262.22A5.08,5.08,0,0,1,83,265.09l.83,2.29a9.25,9.25,0,0,1-3.17-1.63C79.37,264.63,79.55,262.22,79.55,262.22Z"/><path class="cls-1" d="M85,291.79a.6.6,0,0,0,.27.47.48.48,0,0,0,.54-.13,1.18,1.18,0,0,0,.25-.53,9.82,9.82,0,0,0,.29-1.62c0-.35.09-.77.42-.93-.43.47-.13,1.19.19,1.73.59,1,.86,1.94,2.72,2.05.43-1.56-1.12-2.67-1.3-4.28a2.62,2.62,0,0,1,1.73.74,7.39,7.39,0,0,0,1.65.86.85.85,0,0,0,.82,0c.27-.22.17-.63,0-.93a4.11,4.11,0,0,0-3.37-2c-.77,0-1.45-.12-2.19-.21s-.93.21-1.14.79C85.39,289,84.73,290.47,85,291.79Z"/><path class="cls-1" d="M91.34,286.46a3.86,3.86,0,0,1,2,1.21c.17.23.29.57.09.77s-.56.13-.84,0l-1.82-.68a4.21,4.21,0,0,1,1.93,2.57.77.77,0,0,1-.11.56.71.71,0,0,1-.71.22,1.76,1.76,0,0,1-.68-.35,8.91,8.91,0,0,1-1.55-1.39,3,3,0,0,1,1.11,2.05,1,1,0,0,1-.08.6.49.49,0,0,1-.53.25.63.63,0,0,1-.33-.25,7.92,7.92,0,0,1-1.36-2.17,3.64,3.64,0,0,1,.36,2.83,1.13,1.13,0,0,1-.89-.53,2.63,2.63,0,0,1-.36-1,16.64,16.64,0,0,1-.33-2.44,5.64,5.64,0,0,1,.09-2.39C87.87,285.39,90.54,286.23,91.34,286.46Z"/><path class="cls-2" d="M86.1,287a1.18,1.18,0,0,1,.3-.81,1.22,1.22,0,0,1,.52-.23,2.91,2.91,0,0,1,1.55.07c.1,0,.22.13.18.22a.26.26,0,0,1-.1.07l-.48.24c0,.16.27.29.19.43a.29.29,0,0,1-.18.1,2,2,0,0,1-.73,0,1.6,1.6,0,0,0,0,1,1.06,1.06,0,0,1-.6-.29,2,2,0,0,1-.19.83c0,.05-.06.11-.12.11C86,288.71,86.08,287.2,86.1,287Z"/><path class="cls-2" d="M82.94,285.31a3.53,3.53,0,0,0-.92,0c0-.08.11-.11.19-.11a9,9,0,0,1,3.31.44,5.51,5.51,0,0,1,.75.33c.13.06.46.31.1.26a3.44,3.44,0,0,1-.77-.33,7.92,7.92,0,0,0-.82-.28A10.46,10.46,0,0,0,82.94,285.31Z"/><path class="cls-3" d="M75.34,284.24a.13.13,0,0,1,0-.06,6.76,6.76,0,0,0-3-4.91,7.88,7.88,0,0,0-.43,1.67,2.6,2.6,0,0,1-1.63-.42c0,.44-.09,1-.14,1.47a9.73,9.73,0,0,1-1.62-.58,7.76,7.76,0,0,0,4.33,5.43,2.91,2.91,0,0,0,1.44.34.24.24,0,0,0,0,.08l0,.17a1.23,1.23,0,0,0-.82-.24c-.63,0-1.27-.08-1.91,0a7.39,7.39,0,0,0-3.6,1.37,6.39,6.39,0,0,0-1.52,1.55,9.17,9.17,0,0,0,1.74.4,2.33,2.33,0,0,1-.43,1.56l1.53.14a9.42,9.42,0,0,1-.61,1.55,8,8,0,0,0,5.68-4.14.54.54,0,0,1,0-.11A10.26,10.26,0,0,0,74,291a6.6,6.6,0,0,0,.68,3.65,6.34,6.34,0,0,0,1.27,1.73,7.64,7.64,0,0,0,.77-1.54,2.51,2.51,0,0,1,1.51.71c.13-.41.3-1,.44-1.41a10.21,10.21,0,0,1,1.47.88,7.51,7.51,0,0,0-1.74-4.86,7.39,7.39,0,0,0,3.29,1.19,6.51,6.51,0,0,0,2.2-.1,8,8,0,0,0-1-1.44,2.47,2.47,0,0,1,1.44-.84c-.29-.34-.71-.78-1-1.12a10,10,0,0,1,1.56-.71,8.34,8.34,0,0,0-5.48-1.17,7.9,7.9,0,0,0,3.31-3.74,9.69,9.69,0,0,1-1.71.28c0-.44.11-1,.14-1.47a2.55,2.55,0,0,1-1.68.12,7.49,7.49,0,0,0-.09-1.71,6.89,6.89,0,0,0-3.94,4.28A3.65,3.65,0,0,0,75.34,284.24Zm-.76,4.4a.17.17,0,0,0,0-.07l0,0Z"/><path class="cls-2" d="M76.59,285.43a2.29,2.29,0,0,0-2.69,1.73,2.19,2.19,0,0,0,1.8,2.58A2.3,2.3,0,0,0,78.4,288,2.21,2.21,0,0,0,76.59,285.43Z"/><path class="cls-4" d="M81.71,290l1,.28,0,.07-1-.28a.88.88,0,0,1-.63-.41l.06,0A.92.92,0,0,0,81.71,290Z"/><path class="cls-4" d="M82.93,289.18a12.83,12.83,0,0,1-1.47-.52l0-.06a14,14,0,0,0,1.46.52Z"/><path class="cls-4" d="M83.2,287.75a6.24,6.24,0,0,0-2.11-.11v-.07a6.34,6.34,0,0,1,2.13.11Z"/><path class="cls-4" d="M78,292h0l-.07,0s0,0,0,0a.08.08,0,0,1,.08,0,.28.28,0,0,1,.05.09,5.5,5.5,0,0,0,.49,1.43l-.06,0A5.38,5.38,0,0,1,78,292,.08.08,0,0,0,78,292Z"/><path class="cls-4" d="M77.28,292.6a0,0,0,0,0,0,0l0-.06a.08.08,0,0,1,.08,0c.08,0,.13.11.15.14l.53,1-.06,0-.54-1A.24.24,0,0,0,77.28,292.6Z"/><path class="cls-4" d="M76.43,293.16l.26,1-.07,0-.26-1a.22.22,0,0,0,0-.11l-.06,0h0l-.06-.05a.11.11,0,0,1,.08,0,.15.15,0,0,1,.11,0A.3.3,0,0,1,76.43,293.16Z"/><path class="cls-4" d="M70.87,290.61l-1,.85c-.06.06-.14.13-.13.21H69.7a.11.11,0,0,1,0-.05.51.51,0,0,1,.15-.21l1-.85Z"/><path class="cls-4" d="M70.06,290.19l0,.06a5.59,5.59,0,0,0-.9.63l0-.05A5.4,5.4,0,0,1,70.06,290.19Z"/><path class="cls-4" d="M68.53,290.12l0-.07a13,13,0,0,0,1.8-.87l0,.06A13,13,0,0,1,68.53,290.12Z"/><path class="cls-4" d="M71.3,283.5a19.63,19.63,0,0,1-.84-1.8l.07,0a17.22,17.22,0,0,0,.83,1.8Z"/><path class="cls-4" d="M72.16,283a11.32,11.32,0,0,1-.7-1.22l.07,0a11.24,11.24,0,0,0,.69,1.22Z"/><path class="cls-4" d="M72.81,282.36l-.06,0c-.25-.34-.48-.69-.7-1l.06,0C72.33,281.67,72.56,282,72.81,282.36Z"/><path class="cls-4" d="M79.08,281.74a2.08,2.08,0,0,0-.83.37.58.58,0,0,0-.23.3H78a.61.61,0,0,1,.25-.33,2,2,0,0,1,.87-.39Z"/><path class="cls-4" d="M79,283a4.76,4.76,0,0,1,.59-.6.61.61,0,0,1,.42-.17v.07a.48.48,0,0,0-.36.16A5.39,5.39,0,0,0,79,283Z"/><path class="cls-4" d="M80.75,283.13v.07a1.58,1.58,0,0,0-.87.44l0-.05A1.62,1.62,0,0,1,80.75,283.13Z"/><path class="cls-1" d="M76.93,286.27a.14.14,0,0,1-.16.11l-.27.59a.76.76,0,0,1,.24.3l.69-.19a.16.16,0,0,1,.08-.13.14.14,0,0,1,.19.06.14.14,0,0,1-.06.19.15.15,0,0,1-.19-.06l-.69.19a.62.62,0,0,1,0,.33.74.74,0,0,1-.39.49l.06,0,.2.67a.16.16,0,0,1,.14.08.13.13,0,0,1-.06.18.16.16,0,0,1-.2-.05.15.15,0,0,1,.06-.19l-.2-.67a.82.82,0,0,1-.47.06h0l-.33.58a.14.14,0,0,1,0,.15.15.15,0,0,1-.18.09.15.15,0,0,1-.1-.18.16.16,0,0,1,.18-.09l.33-.56a.73.73,0,0,1-.45-.37l-.56.21a.13.13,0,0,1-.06.14.15.15,0,0,1-.2,0,.13.13,0,0,1,0-.19.15.15,0,0,1,.2,0l.56-.22a.62.62,0,0,1,0-.38.19.19,0,0,1,0-.08l-.5-.27a.15.15,0,0,1-.25-.14.16.16,0,0,1,.18-.09.14.14,0,0,1,.1.17l.5.27a.68.68,0,0,1,.47-.39l-.22-.53a.13.13,0,0,1-.14-.06.13.13,0,0,1,0-.19.16.16,0,0,1,.2,0,.14.14,0,0,1,0,.19l.22.54a.66.66,0,0,1,.28,0,.64.64,0,0,1,.24.1l.26-.58a.14.14,0,0,1-.06-.14.14.14,0,0,1,.17-.11A.13.13,0,0,1,76.93,286.27Z"/><path class="cls-1" d="M77.37,288.17l-.67-.28,0-.05.67.27a.15.15,0,0,1,.26.11.16.16,0,0,1-.17.11A.15.15,0,0,1,77.37,288.17Z"/><path class="cls-3" d="M82,275.75l0-.06A7,7,0,0,0,79.34,273a6.84,6.84,0,0,0-2-.8,7.64,7.64,0,0,0,.23,1.7,2.53,2.53,0,0,1-1.67.17c.11.43.3,1,.41,1.42a9,9,0,0,1-1.72,0,8.07,8.07,0,0,0,6.08,3.57,2.92,2.92,0,0,0,1.47-.18.22.22,0,0,0,0,.08.94.94,0,0,0,0,.16,1.3,1.3,0,0,0-.86.07c-.58.24-1.21.37-1.78.65a7.12,7.12,0,0,0-2.85,2.53,6.3,6.3,0,0,0-.83,2,9.63,9.63,0,0,0,1.77-.22,2.29,2.29,0,0,1,.19,1.6l1.48-.4a9.22,9.22,0,0,1,0,1.66A7.72,7.72,0,0,0,83,281.13a.49.49,0,0,1,0-.12,10.5,10.5,0,0,0,.25,1.47,6.93,6.93,0,0,0,2,3.18,6.77,6.77,0,0,0,1.84,1.17,8.06,8.06,0,0,0,.13-1.71,2.62,2.62,0,0,1,1.68.15c0-.43-.09-1-.12-1.47a9.46,9.46,0,0,1,1.7.32,7.81,7.81,0,0,0-3.46-3.94,7.61,7.61,0,0,0,3.52,0,6.84,6.84,0,0,0,2-.86,8.61,8.61,0,0,0-1.43-1,2.4,2.4,0,0,1,1-1.28l-1.36-.69A9.08,9.08,0,0,1,92,275.1a8.34,8.34,0,0,0-5.55.81,7.53,7.53,0,0,0,1.67-4.64,9.33,9.33,0,0,1-1.48.85c-.13-.41-.29-1-.42-1.41a2.55,2.55,0,0,1-1.52.69,8.25,8.25,0,0,0-.73-1.56,6.14,6.14,0,0,0-1.31,1.7,6.73,6.73,0,0,0-.76,3.65A5,5,0,0,0,82,275.75Zm.95,4.36s0-.05,0-.07l0,0S83,280.09,83,280.11Z"/><path class="cls-2" d="M83.62,276.42A2.22,2.22,0,0,0,81.76,279a2.29,2.29,0,0,0,2.66,1.78,2.2,2.2,0,0,0,1.86-2.54A2.29,2.29,0,0,0,83.62,276.42Z"/><path class="cls-6" d="M90.13,278.93l1-.07v.07l-1,.07a.94.94,0,0,1-.74-.16l0,0A.88.88,0,0,0,90.13,278.93Z"/><path class="cls-6" d="M91,277.73a11.75,11.75,0,0,1-1.57,0v-.07a11.46,11.46,0,0,0,1.55,0Z"/><path class="cls-6" d="M90.66,276.31a6.11,6.11,0,0,0-2,.62l0-.06a5.93,5.93,0,0,1,2-.63Z"/><path class="cls-6" d="M87.42,282h-.08a.09.09,0,0,1,0-.06.08.08,0,0,1,.08,0,.1.1,0,0,1,.07.07,6.14,6.14,0,0,0,1,1.16l0,.05a5.73,5.73,0,0,1-1-1.18Z"/><path class="cls-6" d="M87,282.87h0l-.06,0a.12.12,0,0,1,.08,0,.31.31,0,0,1,.19.08l.88.77,0,.05-.88-.77A.24.24,0,0,0,87,282.87Z"/><path class="cls-6" d="M86.38,283.69l.63.87-.06,0-.63-.87a.16.16,0,0,0-.09-.09h-.08l-.07,0a.13.13,0,0,1,.07-.06h.11A.28.28,0,0,1,86.38,283.69Z"/><path class="cls-6" d="M80.24,283.23l-.57,1.13c0,.08-.09.17,0,.24l-.07,0a.09.09,0,0,1,0-.05.4.4,0,0,1,.06-.26l.58-1.12Z"/><path class="cls-6" d="M79.32,283.12l.06,0a5,5,0,0,0-.61.91l-.06,0A5,5,0,0,1,79.32,283.12Z"/><path class="cls-6" d="M77.87,283.58l-.05-.05a11.38,11.38,0,0,0,1.34-1.44l.06.05A11.46,11.46,0,0,1,77.87,283.58Z"/><path class="cls-6" d="M78,276.45a17.4,17.4,0,0,1-1.46-1.39l.06,0A17.23,17.23,0,0,0,78,276.4Z"/><path class="cls-6" d="M78.57,275.66a10.76,10.76,0,0,1-1.12-.9l0-.05a12.11,12.11,0,0,0,1.11.9Z"/><path class="cls-6" d="M78.94,274.87l0,.06c-.36-.23-.71-.48-1.05-.73l.05-.06C78.23,274.39,78.59,274.64,78.94,274.87Z"/><path class="cls-6" d="M84.56,272.12a1.87,1.87,0,0,0-.64.64.58.58,0,0,0-.1.35h-.07a.59.59,0,0,1,.11-.4,2,2,0,0,1,.66-.66Z"/><path class="cls-6" d="M84.92,273.33a5.13,5.13,0,0,1,.33-.76.56.56,0,0,1,.33-.31v.07a.45.45,0,0,0-.27.27,3.57,3.57,0,0,0-.33.75Z"/><path class="cls-6" d="M86.63,272.84l0,.06a1.47,1.47,0,0,0-.64.71l-.07,0A1.57,1.57,0,0,1,86.63,272.84Z"/><path class="cls-1" d="M84.26,277.09a.15.15,0,0,1-.11.16l0,.64a.73.73,0,0,1,.33.2l.58-.42a.12.12,0,0,1,0-.14.16.16,0,0,1,.21,0,.14.14,0,0,1,0,.2.15.15,0,0,1-.2,0l-.57.42a.81.81,0,0,1,.13.3.67.67,0,0,1-.18.59l0,0,.44.55a.16.16,0,0,1,.16,0,.13.13,0,0,1,0,.19.14.14,0,0,1-.2,0,.13.13,0,0,1,0-.19l-.44-.56a.78.78,0,0,1-.41.22h0l-.09.65a.15.15,0,0,1,.1.12.15.15,0,0,1-.14.15.14.14,0,0,1-.15-.13.14.14,0,0,1,.13-.15l.09-.64a.75.75,0,0,1-.56-.19l-.44.4a.14.14,0,0,1,0,.15.17.17,0,0,1-.21,0,.14.14,0,0,1,0-.2.15.15,0,0,1,.2,0l.44-.39a.65.65,0,0,1-.17-.34.38.38,0,0,1,0-.1l-.57-.07a.14.14,0,0,1-.13.09.13.13,0,0,1-.15-.13.14.14,0,0,1,.13-.15.16.16,0,0,1,.16.13l.56.07a.66.66,0,0,1,.3-.52l-.41-.42a.15.15,0,0,1-.16,0,.14.14,0,0,1,0-.2.15.15,0,0,1,.2,0,.13.13,0,0,1,0,.19l.41.42a1,1,0,0,1,.26-.09.76.76,0,0,1,.26,0l0-.63a.16.16,0,0,1-.1-.11.13.13,0,0,1,.11-.16A.13.13,0,0,1,84.26,277.09Z"/><path class="cls-1" d="M85.39,278.71l-.74,0v-.06l.73,0a.14.14,0,0,1,.11-.1.15.15,0,0,1,.17.12.15.15,0,0,1-.12.16A.14.14,0,0,1,85.39,278.71Z"/><path class="cls-1" d="M23.3,287.74a96.11,96.11,0,0,1-2.84,16.1A15.39,15.39,0,0,0,23.3,287.74Z"/><path class="cls-1" d="M22.73,287.71s0,0,0,0-3.44.94-4.82,7.47c-.73,3.46,1.89,8.78,1.89,8.78l.11-.1A97.23,97.23,0,0,0,22.73,287.71Z"/><path class="cls-1" d="M16,284.15a.14.14,0,0,0,.06.1.12.12,0,0,0,.18,0,38.7,38.7,0,0,0,6.21-27.38.16.16,0,0,0-.15-.13.12.12,0,0,0-.12.14A38.39,38.39,0,0,1,16,284.05.12.12,0,0,0,16,284.15Z"/><path class="cls-2" d="M25.49,277.26s-1.34,3.17-4.44,3.69l-3.1.52a12,12,0,0,1,2.8-3.63C22.47,276.47,25.49,277.26,25.49,277.26Z"/><path class="cls-1" d="M16.71,268.34s2.91,2.33,3.05,5.58l.13,3.25a15.89,15.89,0,0,1-3.17-3.93C15.6,271.11,16.71,268.34,16.71,268.34Z"/><path class="cls-1" d="M20.28,249.88s2.69,2.59,2.5,5.81l-.2,3.22a15.92,15.92,0,0,1-2.79-4.2C18.88,252.49,20.28,249.88,20.28,249.88Z"/><path class="cls-1" d="M18.68,257.65s2.69,1.2,3.35,3.55l.66,2.35a12.4,12.4,0,0,1-3.17-2.32A4.65,4.65,0,0,1,18.68,257.65Z"/><path class="cls-2" d="M14.35,276.9a5.35,5.35,0,0,0,1.24,3.89l1.5,1.6a9.3,9.3,0,0,0-.37-3.14A5,5,0,0,0,14.35,276.9Z"/><path class="cls-1" d="M19,265a5.3,5.3,0,0,0,1.24,3.89l1.5,1.61a9.2,9.2,0,0,0-.38-3.15A5,5,0,0,0,19,265Z"/><path class="cls-1" d="M25.8,270.44A5.15,5.15,0,0,0,22,272.83L20.83,275a9.48,9.48,0,0,0,3.41-1.2C25.68,272.84,25.8,270.44,25.8,270.44Z"/><path class="cls-1" d="M26.68,262.22a5.08,5.08,0,0,0-3.45,2.87l-.83,2.29a9.25,9.25,0,0,0,3.17-1.63C26.86,264.63,26.68,262.22,26.68,262.22Z"/><path class="cls-1" d="M21.28,291.79a.61.61,0,0,1-.28.47.48.48,0,0,1-.54-.13,1.18,1.18,0,0,1-.25-.53,9.82,9.82,0,0,1-.29-1.62c0-.35-.09-.77-.42-.93.43.47.13,1.19-.19,1.73-.59,1-.86,1.94-2.72,2.05-.43-1.56,1.12-2.67,1.3-4.28a2.57,2.57,0,0,0-1.72.74,7.68,7.68,0,0,1-1.66.86.85.85,0,0,1-.82,0c-.27-.22-.17-.63,0-.93a4.11,4.11,0,0,1,3.37-2c.77,0,1.45-.12,2.19-.21s.93.21,1.14.79C20.84,289,21.5,290.47,21.28,291.79Z"/><path class="cls-1" d="M14.89,286.46a3.86,3.86,0,0,0-2,1.21c-.17.23-.29.57-.09.77s.56.13.84,0l1.83-.68a4.22,4.22,0,0,0-1.94,2.57.77.77,0,0,0,.11.56.71.71,0,0,0,.71.22,1.76,1.76,0,0,0,.68-.35,8.91,8.91,0,0,0,1.55-1.39,3,3,0,0,0-1.11,2.05,1,1,0,0,0,.08.6.49.49,0,0,0,.53.25.63.63,0,0,0,.33-.25,7.92,7.92,0,0,0,1.36-2.17,3.64,3.64,0,0,0-.36,2.83,1.11,1.11,0,0,0,.89-.53,2.63,2.63,0,0,0,.36-1,16.64,16.64,0,0,0,.33-2.44,5.64,5.64,0,0,0-.09-2.39C18.36,285.39,15.69,286.23,14.89,286.46Z"/><path class="cls-2" d="M20.13,287a.92.92,0,0,0-.82-1,2.91,2.91,0,0,0-1.55.07c-.1,0-.22.13-.17.22s.05,0,.09.07l.48.24c0,.16-.27.29-.19.43a.29.29,0,0,0,.18.1,2,2,0,0,0,.74,0,1.6,1.6,0,0,1,0,1,1,1,0,0,0,.6-.29,2,2,0,0,0,.19.83c0,.05.06.11.12.11C20.23,288.71,20.15,287.2,20.13,287Z"/><path class="cls-2" d="M23.29,285.31a3.53,3.53,0,0,1,.92,0c0-.08-.11-.11-.19-.11a9,9,0,0,0-3.3.44A5.13,5.13,0,0,0,20,286c-.13.06-.46.31-.1.26a3.44,3.44,0,0,0,.77-.33,7.92,7.92,0,0,1,.82-.28A10.46,10.46,0,0,1,23.29,285.31Z"/><path class="cls-3" d="M30.76,283.69a6.82,6.82,0,0,0-2.08-3.14,6.94,6.94,0,0,0-1.86-1.14,7.49,7.49,0,0,0-.09,1.71,2.55,2.55,0,0,1-1.68-.12c0,.44.1,1,.14,1.47a9.57,9.57,0,0,1-1.7-.28,7.83,7.83,0,0,0,3.3,3.74,8.34,8.34,0,0,0-5.48,1.17,10,10,0,0,1,1.56.71c-.29.34-.71.78-1,1.12a2.47,2.47,0,0,1,1.44.84,8,8,0,0,0-.95,1.44,6.51,6.51,0,0,0,2.2.1,7.39,7.39,0,0,0,3.29-1.19A7.51,7.51,0,0,0,26.11,295a10.78,10.78,0,0,1,1.47-.88c.14.42.31,1,.45,1.41a2.46,2.46,0,0,1,1.5-.71,7.64,7.64,0,0,0,.77,1.54,6.34,6.34,0,0,0,1.27-1.73,6.6,6.6,0,0,0,.68-3.65,10.26,10.26,0,0,0-.32-1.46l.06.11a8,8,0,0,0,5.67,4.14,9.42,9.42,0,0,1-.61-1.55l1.53-.14a2.33,2.33,0,0,1-.43-1.56,9.17,9.17,0,0,0,1.74-.4,6.39,6.39,0,0,0-1.52-1.55,7.39,7.39,0,0,0-3.6-1.37c-.64-.07-1.27,0-1.91,0a1.23,1.23,0,0,0-.82.24l0-.17s0-.05,0-.08a2.9,2.9,0,0,0,1.43-.34,7.76,7.76,0,0,0,4.33-5.43,9.73,9.73,0,0,1-1.62.58c0-.43-.09-1-.14-1.47a2.6,2.6,0,0,1-1.63.42,7.32,7.32,0,0,0-.43-1.67,6.76,6.76,0,0,0-3,4.91.13.13,0,0,1,0,.06A3.65,3.65,0,0,0,30.76,283.69Zm.85,4.91,0,0a.17.17,0,0,0,0,.07Z"/><path class="cls-2" d="M29.64,285.43a2.29,2.29,0,0,1,2.69,1.73,2.19,2.19,0,0,1-1.8,2.58,2.3,2.3,0,0,1-2.7-1.73A2.21,2.21,0,0,1,29.64,285.43Z"/><path class="cls-4" d="M24.52,290l-.95.28,0,.07.95-.28a.88.88,0,0,0,.63-.41l-.06,0A.92.92,0,0,1,24.52,290Z"/><path class="cls-4" d="M23.3,289.18a12.83,12.83,0,0,0,1.47-.52l0-.06a14,14,0,0,1-1.46.52Z"/><path class="cls-4" d="M23,287.75a6.18,6.18,0,0,1,2.1-.11v-.07a6.36,6.36,0,0,0-2.13.11Z"/><path class="cls-4" d="M28.21,292h0l.07,0s0,0-.05,0a.08.08,0,0,0-.08,0,.14.14,0,0,0,0,.09,5.52,5.52,0,0,1-.5,1.43l.06,0a5.38,5.38,0,0,0,.51-1.44A.08.08,0,0,1,28.21,292Z"/><path class="cls-4" d="M29,292.6a0,0,0,0,1,0,0l0-.06a.1.1,0,0,0-.09,0c-.08,0-.13.11-.15.14l-.53,1,.06,0,.54-1A.24.24,0,0,1,29,292.6Z"/><path class="cls-4" d="M29.8,293.16l-.26,1,.07,0,.26-1a.22.22,0,0,1,.05-.11l.06,0h0l.06-.05a.11.11,0,0,0-.08,0,.15.15,0,0,0-.11,0A.3.3,0,0,0,29.8,293.16Z"/><path class="cls-4" d="M35.36,290.61l1,.85c.07.06.14.13.13.21h.08a.11.11,0,0,0,0-.05c0-.08-.09-.15-.15-.21l-1-.85Z"/><path class="cls-4" d="M36.17,290.19l0,.06a5.59,5.59,0,0,1,.9.63l.05-.05A5.4,5.4,0,0,0,36.17,290.19Z"/><path class="cls-4" d="M37.7,290.12l0-.07a13,13,0,0,1-1.8-.87l0,.06A13,13,0,0,0,37.7,290.12Z"/><path class="cls-4" d="M34.94,283.5a19.55,19.55,0,0,0,.83-1.8l-.07,0a17.22,17.22,0,0,1-.83,1.8Z"/><path class="cls-4" d="M34.07,283a11.32,11.32,0,0,0,.7-1.22l-.07,0a9.79,9.79,0,0,1-.69,1.22Z"/><path class="cls-4" d="M33.42,282.36l.06,0c.25-.34.48-.69.7-1l-.06,0C33.9,281.67,33.67,282,33.42,282.36Z"/><path class="cls-4" d="M27.15,281.74a2.08,2.08,0,0,1,.83.37.58.58,0,0,1,.23.3h.07a.61.61,0,0,0-.25-.33,2,2,0,0,0-.87-.39Z"/><path class="cls-4" d="M27.27,283a5.66,5.66,0,0,0-.6-.6.61.61,0,0,0-.42-.17v.07a.48.48,0,0,1,.36.16,5.39,5.39,0,0,1,.59.58Z"/><path class="cls-4" d="M25.48,283.13v.07a1.58,1.58,0,0,1,.87.44l.05-.05A1.62,1.62,0,0,0,25.48,283.13Z"/><path class="cls-1" d="M29.3,286.27a.14.14,0,0,0,.16.11l.27.59a.76.76,0,0,0-.24.3l-.69-.19a.16.16,0,0,0-.08-.13.14.14,0,0,0-.19.06.14.14,0,0,0,.06.19.15.15,0,0,0,.19-.06l.69.19a.74.74,0,0,0,0,.33.74.74,0,0,0,.39.49l-.06,0-.2.67a.16.16,0,0,0-.14.08.13.13,0,0,0,.06.18.16.16,0,0,0,.2-.05.14.14,0,0,0-.06-.19l.2-.67a.82.82,0,0,0,.47.06h0l.33.58a.14.14,0,0,0,0,.15.15.15,0,0,0,.18.09.15.15,0,0,0,.1-.18.16.16,0,0,0-.18-.09l-.33-.56a.73.73,0,0,0,.45-.37l.56.21a.13.13,0,0,0,.06.14.15.15,0,0,0,.2,0,.13.13,0,0,0,0-.19.15.15,0,0,0-.2,0l-.56-.22a.62.62,0,0,0,0-.38.19.19,0,0,0,0-.08l.5-.27a.15.15,0,0,0,.25-.14.15.15,0,0,0-.18-.09.14.14,0,0,0-.1.17l-.5.27a.68.68,0,0,0-.47-.39l.22-.53a.15.15,0,0,0,.15-.06.14.14,0,0,0-.05-.19.16.16,0,0,0-.2,0,.14.14,0,0,0,0,.19l-.22.54a.62.62,0,0,0-.27,0,.69.69,0,0,0-.25.1l-.26-.58a.14.14,0,0,0,.06-.14.14.14,0,0,0-.17-.11A.13.13,0,0,0,29.3,286.27Z"/><path class="cls-1" d="M28.86,288.17l.67-.28,0-.05-.67.27a.15.15,0,0,0-.26.11.16.16,0,0,0,.17.11A.15.15,0,0,0,28.86,288.17Z"/><path class="cls-3" d="M24.31,275.19a6.73,6.73,0,0,0-.76-3.65,6.14,6.14,0,0,0-1.31-1.7,8.25,8.25,0,0,0-.73,1.56,2.55,2.55,0,0,1-1.52-.69c-.13.42-.29,1-.42,1.41a9.33,9.33,0,0,1-1.48-.85,7.53,7.53,0,0,0,1.67,4.64,8.34,8.34,0,0,0-5.55-.81,9.08,9.08,0,0,1,1.19,1.21L14,277a2.4,2.4,0,0,1,1,1.28,8.61,8.61,0,0,0-1.43,1,6.84,6.84,0,0,0,2,.86,7.61,7.61,0,0,0,3.52,0,7.81,7.81,0,0,0-3.46,3.94,9.63,9.63,0,0,1,1.7-.32c0,.44-.09,1-.12,1.47a2.62,2.62,0,0,1,1.68-.15,8.06,8.06,0,0,0,.13,1.71A6.77,6.77,0,0,0,21,285.66a6.85,6.85,0,0,0,2-3.18,9.22,9.22,0,0,0,.25-1.47.49.49,0,0,1,0,.12A7.72,7.72,0,0,0,27,287a9.22,9.22,0,0,1,0-1.66l1.48.4a2.29,2.29,0,0,1,.19-1.6,9.63,9.63,0,0,0,1.77.22,6.3,6.3,0,0,0-.83-2,7.12,7.12,0,0,0-2.85-2.53c-.57-.28-1.2-.41-1.78-.65a1.3,1.3,0,0,0-.86-.07.94.94,0,0,0,0-.16.22.22,0,0,0,0-.08,2.92,2.92,0,0,0,1.47.18,8.07,8.07,0,0,0,6.08-3.57,9,9,0,0,1-1.72,0c.11-.42.3-1,.41-1.42a2.53,2.53,0,0,1-1.67-.17,7.64,7.64,0,0,0,.23-1.7,6.84,6.84,0,0,0-2.05.8,6.94,6.94,0,0,0-2.63,2.72.21.21,0,0,0,0,.06A5,5,0,0,0,24.31,275.19Zm-1.06,4.87,0,0s0,0,0,.07S23.26,280.08,23.25,280.06Z"/><path class="cls-2" d="M22.61,276.42A2.22,2.22,0,0,1,24.47,279a2.29,2.29,0,0,1-2.66,1.78A2.2,2.2,0,0,1,20,278.21,2.29,2.29,0,0,1,22.61,276.42Z"/><path class="cls-6" d="M16.1,278.93l-1-.07v.07l1,.07a.94.94,0,0,0,.74-.16l-.05,0A.88.88,0,0,1,16.1,278.93Z"/><path class="cls-6" d="M15.28,277.73a11.75,11.75,0,0,0,1.57,0v-.07a11.6,11.6,0,0,1-1.56,0Z"/><path class="cls-6" d="M15.57,276.31a6.11,6.11,0,0,1,2,.62l0-.06a5.93,5.93,0,0,0-2-.63Z"/><path class="cls-6" d="M18.81,282h.08a.07.07,0,0,0,0-.06.1.1,0,0,0-.09,0,.1.1,0,0,0-.07.07,6.46,6.46,0,0,1-1,1.16l.05.05a5.69,5.69,0,0,0,1-1.18Z"/><path class="cls-6" d="M19.26,282.87h0l.06,0a.12.12,0,0,0-.08,0,.31.31,0,0,0-.19.08l-.88.77.05.05.88-.77A.24.24,0,0,1,19.26,282.87Z"/><path class="cls-6" d="M19.85,283.69l-.63.87.06,0,.63-.87a.16.16,0,0,1,.09-.09h.08l.07,0a.11.11,0,0,0-.07-.06H20A.34.34,0,0,0,19.85,283.69Z"/><path class="cls-6" d="M26,283.23l.58,1.13c0,.08.08.17,0,.24l.07,0a.09.09,0,0,0,0-.05.4.4,0,0,0-.06-.26l-.57-1.12Z"/><path class="cls-6" d="M26.91,283.12l-.06,0a5,5,0,0,1,.61.91l.06,0A5,5,0,0,0,26.91,283.12Z"/><path class="cls-6" d="M28.36,283.58l.05-.05a11.38,11.38,0,0,1-1.34-1.44l-.06.05A12.24,12.24,0,0,0,28.36,283.58Z"/><path class="cls-6" d="M28.27,276.45a17.4,17.4,0,0,0,1.46-1.39l-.06,0a17.23,17.23,0,0,1-1.45,1.38Z"/><path class="cls-6" d="M27.66,275.66a10.76,10.76,0,0,0,1.12-.9l-.05-.05a12.11,12.11,0,0,1-1.11.9Z"/><path class="cls-6" d="M27.29,274.87l0,.06c.36-.23.71-.48,1.05-.73l-.05-.06C28,274.39,27.64,274.64,27.29,274.87Z"/><path class="cls-6" d="M21.67,272.12a1.78,1.78,0,0,1,.64.64.58.58,0,0,1,.1.35h.07a.59.59,0,0,0-.11-.4,2,2,0,0,0-.66-.66Z"/><path class="cls-6" d="M21.31,273.33a5.13,5.13,0,0,0-.33-.76.57.57,0,0,0-.32-.31l0,.07a.45.45,0,0,1,.27.27,3.57,3.57,0,0,1,.33.75Z"/><path class="cls-6" d="M19.6,272.84l0,.06a1.54,1.54,0,0,1,.65.71l.06,0A1.57,1.57,0,0,0,19.6,272.84Z"/><path class="cls-1" d="M22,277.09a.15.15,0,0,0,.12.16l0,.64a.79.79,0,0,0-.33.2l-.58-.42a.12.12,0,0,0,0-.14.16.16,0,0,0-.21,0,.14.14,0,0,0,0,.2.15.15,0,0,0,.2,0l.58.42a.69.69,0,0,0-.14.3.67.67,0,0,0,.18.59l-.05,0-.44.55a.16.16,0,0,0-.16,0,.13.13,0,0,0,0,.19.15.15,0,0,0,.21,0,.14.14,0,0,0,0-.19l.44-.56a.78.78,0,0,0,.41.22h0l.09.65a.13.13,0,0,0-.09.12.14.14,0,0,0,.13.15.14.14,0,0,0,.15-.13.14.14,0,0,0-.13-.15l-.09-.64a.75.75,0,0,0,.56-.19l.44.4a.12.12,0,0,0,0,.15.15.15,0,0,0,.2,0,.14.14,0,0,0,0-.2.15.15,0,0,0-.2,0l-.44-.39a.65.65,0,0,0,.17-.34.38.38,0,0,0,0-.1l.57-.07a.14.14,0,0,0,.13.09.13.13,0,0,0,.15-.13.14.14,0,0,0-.13-.15.16.16,0,0,0-.16.13l-.56.07a.66.66,0,0,0-.3-.52l.41-.42a.15.15,0,0,0,.16,0,.14.14,0,0,0,0-.2.15.15,0,0,0-.2,0,.13.13,0,0,0,0,.19l-.41.42a1.06,1.06,0,0,0-.25-.09.82.82,0,0,0-.27,0l0-.63a.16.16,0,0,0,.1-.11.13.13,0,0,0-.11-.16A.13.13,0,0,0,22,277.09Z"/><path class="cls-1" d="M20.85,278.71l.73,0v-.06l-.73,0a.13.13,0,0,0-.11-.1.15.15,0,0,0-.17.12.15.15,0,0,0,.12.16A.16.16,0,0,0,20.85,278.71Z"/></g></g></svg>