<svg xmlns="http://www.w3.org/2000/svg" viewBox="0 0 64.31 260.17"><defs><style>.cls-1,.cls-2{fill:none;stroke:#3d4035;stroke-miterlimit:10;}.cls-1{stroke-width:3.2px;}</style></defs><g id="レイヤー_2" data-name="レイヤー 2"><g id="レイヤー_1-2" data-name="レイヤー 1"><path class="cls-1" d="M62.71,16.8H48.45A16.62,16.62,0,0,0,32.16,1.6,16.61,16.61,0,0,0,15.87,16.8H1.6V241.66H15.78c0,9.35,7.35,16.91,16.38,16.91S48.5,251,48.53,241.66H62.71Z"/><path class="cls-2" d="M32.16,254.91a13.11,13.11,0,0,1-12.85-13.26A3.59,3.59,0,0,0,15.78,238H5.13V20.46H15.87a3.58,3.58,0,0,0,3.51-3.28,12.81,12.81,0,0,1,25.55,0,3.59,3.59,0,0,0,3.52,3.28H59.18V238H48.53A3.6,3.6,0,0,0,45,241.65,13.11,13.11,0,0,1,32.16,254.91Z"/><ellipse class="cls-1" cx="32.16" cy="16.31" rx="5.95" ry="6.16"/></g></g></svg>