<svg xmlns="http://www.w3.org/2000/svg" viewBox="0 0 352.52 136.72"><defs><style>.cls-1,.cls-2{fill:none;}.cls-1,.cls-2,.cls-6,.cls-7{stroke:#3d4035;}.cls-1,.cls-2,.cls-4,.cls-7{stroke-linecap:round;stroke-linejoin:round;}.cls-1{stroke-width:1.54px;}.cls-2{stroke-width:1.51px;}.cls-3{fill:#3d4035;}.cls-4{fill:#8b6841;stroke:#fcd7a1;stroke-width:0.54px;}.cls-5{fill:#fcd7a1;}.cls-6{fill:#74302e;stroke-miterlimit:10;}.cls-6,.cls-7{stroke-width:0.5px;}.cls-7{fill:#fff;}</style></defs><g id="レイヤー_2" data-name="レイヤー 2"><g id="レイヤー_1-2" data-name="レイヤー 1"><path class="cls-1" d="M342.42,44.79c-6.95-5.89-4.37-12.69-4.37-12.69h-11.7c.59-5.67-5.56-18.36-12.9-18.36H213.14C199.46-.54,177,.78,176.26.82s-23.2-1.36-36.88,12.92H39.07c-7.34,0-13.49,12.69-12.9,18.36H14.46S17,38.9,10.1,44.79.77,48.64.77,48.64V74.93h0V88.08s2.38-2,9.33,3.85,4.36,12.7,4.36,12.7H26.17c-.59,5.66,5.56,18.35,12.9,18.35H139.38c13.68,14.28,36.19,13,36.88,12.92s23.2,1.36,36.88-12.92H313.45c7.34,0,13.49-12.69,12.9-18.35h11.7s-2.58-6.8,4.37-12.7,9.33-3.85,9.33-3.85V48.64S349.36,50.68,342.42,44.79Z"/><path class="cls-1" d="M178.28,131.28c-1.09,0-1.73,0-1.8,0H176c-.07,0-.7,0-1.79,0-4.89,0-21.66-.85-32.1-11.74a3.82,3.82,0,0,0-2.76-1.23H39.07c-1.46,0-3.24-1.22-4.9-3.35-2.67-3.44-4.11-8.09-3.94-9.78a5.08,5.08,0,0,0-1-3.65A3.89,3.89,0,0,0,26.17,100H19a17.42,17.42,0,0,0-6.41-11.77,23.45,23.45,0,0,0-7.68-4.66V53.2a23.1,23.1,0,0,0,7.68-4.66A17.41,17.41,0,0,0,19,36.77h7.22a3.88,3.88,0,0,0,3.06-1.57,5.11,5.11,0,0,0,1-3.66c-.17-1.69,1.27-6.34,3.94-9.77,1.66-2.13,3.44-3.36,4.9-3.36H139.38a3.8,3.8,0,0,0,2.76-1.22c10.44-10.9,27.21-11.75,32.1-11.75,1.09,0,1.72,0,1.79,0h.45c.07,0,.71,0,1.8,0,4.89,0,21.66.85,32.1,11.75a3.79,3.79,0,0,0,2.76,1.22H313.45c1.45,0,3.24,1.23,4.89,3.36,2.68,3.43,4.12,8.08,3.94,9.77a5.11,5.11,0,0,0,1,3.66,3.88,3.88,0,0,0,3.06,1.57h7.22A17.36,17.36,0,0,0,340,48.54a23,23,0,0,0,7.67,4.66V83.52A23.32,23.32,0,0,0,340,88.18,17.38,17.38,0,0,0,333.57,100h-7.22a3.89,3.89,0,0,0-3.06,1.58,5.09,5.09,0,0,0-1,3.65c.18,1.69-1.26,6.34-3.94,9.78-1.65,2.13-3.44,3.35-4.89,3.35H213.14a3.8,3.8,0,0,0-2.76,1.23C199.94,130.43,183.17,131.28,178.28,131.28Z"/><line class="cls-2" x1="90.64" y1="86.09" x2="261.88" y2="86.09"/><path class="cls-3" d="M183,16.89a3.21,3.21,0,0,0-.88-2,8.87,8.87,0,0,0-2.81-2.53c-.45-.23-.92-.39-1.36-.65a4.36,4.36,0,0,1-1.49-1.47c0-.39,0-.1.09-.48-.08.26-.18-1.12-.31-.88-.12-.24-.23,1.14-.31.88.05.38.08.09.09.48a4.19,4.19,0,0,1-1.49,1.47c-.43.26-.9.42-1.35.65a8.8,8.8,0,0,0-2.82,2.53,3.32,3.32,0,0,0-.88,2,2.8,2.8,0,0,0,.22.95,2.57,2.57,0,0,0,.27.52,1.39,1.39,0,0,0,1.18.57,1.78,1.78,0,0,0,1.19-.61,1.5,1.5,0,0,0,.38-.74c.19-1.1-1.23-1.1-.91-.28.1.24.31.41.14.68a.77.77,0,0,1-1,.14,1.22,1.22,0,0,1-.43-.62,1.8,1.8,0,0,1,.44-1.81.7.7,0,0,1,.71-.22c.23.08.41.34.66.33s.37-.2.47-.42a5.18,5.18,0,0,1,.26-.65,1,1,0,0,1,1.23-.34,1.87,1.87,0,0,1,.87,1.15,5.94,5.94,0,0,0,.18.6,2.56,2.56,0,0,0,.76,1l0,0a.16.16,0,0,0,.08.06h.09a.16.16,0,0,0,.08-.06l0,0a2.67,2.67,0,0,0,.77-1c.07-.19.11-.4.18-.6a1.87,1.87,0,0,1,.87-1.15,1,1,0,0,1,1.23.34c.11.2.16.44.26.65s.26.42.47.42.43-.25.66-.33a.71.71,0,0,1,.71.22A1.8,1.8,0,0,1,182,17.5a1.12,1.12,0,0,1-.43.62.77.77,0,0,1-1-.14c-.16-.27.05-.44.14-.68.32-.82-1.1-.82-.91.28a1.51,1.51,0,0,0,.39.74,1.75,1.75,0,0,0,1.18.61,1.4,1.4,0,0,0,1.19-.57,2.53,2.53,0,0,0,.26-.52A2.59,2.59,0,0,0,183,16.89Zm-6.76-2a1.71,1.71,0,0,1-.25-1.42,1.6,1.6,0,0,1,.25-.37,1.37,1.37,0,0,1,.26.37A1.68,1.68,0,0,1,176.25,14.87Z"/><path class="cls-3" d="M188.32,22.81a1.71,1.71,0,0,0-1.24-.82,27.51,27.51,0,0,0-5.47-.83,4.4,4.4,0,0,1-2.61-.64,5.2,5.2,0,0,1-.79-.83c-.64-.81-1.29-1.62-1.94-2.42h0l-1.95,2.42a4.73,4.73,0,0,1-.78.83,4.4,4.4,0,0,1-2.61.64,26.71,26.71,0,0,0-5.47.84,1.67,1.67,0,0,0-1.24.81,1.34,1.34,0,0,0,.05,1.09,1.63,1.63,0,0,0,.74.73,2,2,0,0,0,2.06-.11l-.24,1.06a.82.82,0,0,0,0,.31.55.55,0,0,0,.42.4c1.21.39,2.4-.89,3.66-.82a4.76,4.76,0,0,0-1.36,2.1,1.15,1.15,0,0,0,0,.52.81.81,0,0,0,.54.55,2.11,2.11,0,0,0,.75,0,3.68,3.68,0,0,0,.16,2.45,3,3,0,0,0,1.62,1.62,2.05,2.05,0,0,0,2.33-3.27,1.63,1.63,0,0,0-.92-.4.83.83,0,0,0-.95.52.63.63,0,0,0,.3.69.42.42,0,0,0,.6-.17s.43.24.4.5a.85.85,0,0,1-.38.6,1.37,1.37,0,0,1-1.87-.29,1.93,1.93,0,0,1-.09-2.15,3.4,3.4,0,0,1,1-.88,6.78,6.78,0,0,0,2.87-3.22,1.87,1.87,0,0,0,0-1.57c-.38.3-.87.62-1.28.37a1.54,1.54,0,0,1-.51-1.16.92.92,0,0,1,0-.37.81.81,0,0,1,.21-.3c.65-.67,1.32-1.3,2-1.9.69.6,1.37,1.23,2,1.9a.69.69,0,0,1,.2.3.92.92,0,0,1,0,.37c-.07.45-.16,1-.51,1.16s-.9-.07-1.28-.37a1.83,1.83,0,0,0,0,1.57,6.81,6.81,0,0,0,2.86,3.22,3.43,3.43,0,0,1,1,.88,1.93,1.93,0,0,1-.09,2.15,1.37,1.37,0,0,1-1.87.29.86.86,0,0,1-.39-.6c0-.26.41-.5.41-.5a.41.41,0,0,0,.6.17.61.61,0,0,0,.29-.69.83.83,0,0,0-.95-.52,1.6,1.6,0,0,0-.91.4A2.05,2.05,0,0,0,180,32.74a3.05,3.05,0,0,0,1.62-1.62,3.68,3.68,0,0,0,.15-2.45,2.1,2.1,0,0,0,.75,0,.77.77,0,0,0,.54-.55,1.14,1.14,0,0,0,0-.52,4.76,4.76,0,0,0-1.36-2.1c1.26-.07,2.45,1.21,3.66.82a.57.57,0,0,0,.42-.4,1.09,1.09,0,0,0,0-.31l-.24-1.06a2,2,0,0,0,2.06.11,1.68,1.68,0,0,0,.74-.73A1.34,1.34,0,0,0,188.32,22.81Zm-15.66-.64a8.35,8.35,0,0,0-.91,1c-.32.32-.65.61-1,.91a4.24,4.24,0,0,1-1.8,1.08l.09-.64a.25.25,0,0,0,0-.12.2.2,0,0,0-.1-.08,3.15,3.15,0,0,0-1-.15,1.24,1.24,0,0,1-.93-.43,3.38,3.38,0,0,1,1.18-.14A8.8,8.8,0,0,0,172.66,22.17Zm2,2.49c-.66.68-1.13,1.54-1.84,2.19-.23.2-.66.7-1,.7s-.3-.47,0-.7l.59-.47A16.24,16.24,0,0,0,174.62,24.66Zm5.29,1.72.59.47c.26.23.4.7,0,.7s-.74-.5-1-.7c-.71-.65-1.19-1.51-1.84-2.19A16.24,16.24,0,0,0,179.91,26.38Zm5.37-2.68a1.24,1.24,0,0,1-.93.43,3.25,3.25,0,0,0-1,.15s-.08,0-.09.08a.17.17,0,0,0,0,.12l.09.64A4.28,4.28,0,0,1,181.5,24c-.33-.3-.67-.59-1-.91a7.5,7.5,0,0,0-.9-1,8.77,8.77,0,0,0,4.49,1.39A3.38,3.38,0,0,1,185.28,23.7Z"/><path class="cls-3" d="M321.91,68.06A119.78,119.78,0,0,0,342,64.51,19.19,19.19,0,0,1,321.91,68.06Z"/><path class="cls-3" d="M321.87,67.35l-.06,0s1.16-4.31,9.33-6c4.33-.91,11,2.37,11,2.37a1.21,1.21,0,0,0-.13.13A121.33,121.33,0,0,1,321.87,67.35Z"/><path class="cls-3" d="M317.41,59a.18.18,0,0,1,.11.31A48.39,48.39,0,0,1,283.3,67a.18.18,0,0,1-.16-.19.14.14,0,0,1,.18-.14,48,48,0,0,0,34-7.71A.14.14,0,0,1,317.41,59Z"/><path class="cls-3" d="M308.81,70.8s4-1.68,4.61-5.55l.65-3.87a15,15,0,0,0-4.53,3.5C307.83,67,308.81,70.8,308.81,70.8Z"/><path class="cls-3" d="M297.66,59.83s2.91,3.64,7,3.8l4.06.17a19.81,19.81,0,0,0-4.9-4C301.12,58.44,297.66,59.83,297.66,59.83Z"/><path class="cls-3" d="M274.59,64.29s3.24,3.36,7.26,3.12l4-.25a20,20,0,0,0-5.24-3.48C277.85,62.54,274.59,64.29,274.59,64.29Z"/><path class="cls-3" d="M284.3,62.29s1.5,3.36,4.44,4.19l2.94.82a15.54,15.54,0,0,0-2.9-4C287.07,61.78,284.3,62.29,284.3,62.29Z"/><path class="cls-3" d="M308.36,56.88a6.67,6.67,0,0,1,4.86,1.54l2,1.88a11.59,11.59,0,0,1-3.94-.47C309.45,59.22,308.36,56.88,308.36,56.88Z"/><path class="cls-3" d="M293.48,62.64a6.67,6.67,0,0,1,4.86,1.54l2,1.88a11.59,11.59,0,0,1-3.94-.47C294.57,65,293.48,62.64,293.48,62.64Z"/><path class="cls-3" d="M300.28,71.19s.3-3.41,3-4.81L306,65a12,12,0,0,1-1.5,4.26C303.29,71,300.28,71.19,300.28,71.19Z"/><path class="cls-3" d="M290,72.29S290.73,69,293.6,68l2.86-1a11.66,11.66,0,0,1-2,4C293,72.51,290,72.29,290,72.29Z"/><path class="cls-3" d="M327,65.53a.76.76,0,0,0,.6-.34.61.61,0,0,0-.17-.68,1.57,1.57,0,0,0-.65-.31,11.78,11.78,0,0,0-2-.36c-.44,0-1-.11-1.15-.53.57.54,1.48.17,2.15-.24,1.22-.73,2.44-1.07,2.57-3.39-1.95-.54-3.35,1.4-5.35,1.62a3.23,3.23,0,0,1,.92-2.15,9.48,9.48,0,0,0,1.08-2.07,1.06,1.06,0,0,0,0-1c-.27-.34-.79-.22-1.17,0a5.11,5.11,0,0,0-2.49,4.21c0,1-.15,1.8-.27,2.73s.26,1.16,1,1.43C323.51,65,325.32,65.82,327,65.53Z"/><path class="cls-3" d="M320.31,57.55a4.83,4.83,0,0,1,1.5-2.55c.29-.21.72-.36,1-.11s.15.7,0,1L322,58.22c.86-1.1,1.86-2.28,3.21-2.42a1,1,0,0,1,.7.15.91.91,0,0,1,.27.88,2.21,2.21,0,0,1-.43.85A11.89,11.89,0,0,1,324,59.62a3.81,3.81,0,0,1,2.56-1.4,1.33,1.33,0,0,1,.74.11.63.63,0,0,1,.33.66.93.93,0,0,1-.32.42,9.93,9.93,0,0,1-2.71,1.69,4.48,4.48,0,0,1,3.54-.44,1.44,1.44,0,0,1-.67,1.11,3.5,3.5,0,0,1-1.22.44,18.48,18.48,0,0,1-3.05.41,6.83,6.83,0,0,1-3-.11C319,61.89,320,58.55,320.31,57.55Z"/><path class="cls-3" d="M321,64.1a1.4,1.4,0,0,1-1-.38,1.51,1.51,0,0,1-.3-.64,3.65,3.65,0,0,1,.1-1.94c0-.13.15-.28.27-.22s.06.07.09.12c.1.2.2.4.29.6.21,0,.37-.34.55-.24a.37.37,0,0,1,.12.22,2.59,2.59,0,0,1,0,.92,2,2,0,0,0,1.24,0,1.28,1.28,0,0,1-.37.74,2.68,2.68,0,0,1,1,.24c.07,0,.14.08.14.15C323.12,64.23,321.23,64.12,321,64.1Z"/><path class="cls-3" d="M318.87,68.05a4.41,4.41,0,0,0,0,1.15c-.1,0-.13-.13-.13-.24a11.13,11.13,0,0,1,.55-4.13,7.86,7.86,0,0,1,.41-.94c.08-.16.39-.58.33-.12a4.67,4.67,0,0,1-.42.95c-.13.34-.25.69-.35,1A12.76,12.76,0,0,0,318.87,68.05Z"/><path class="cls-4" d="M317.54,77.55h-.09a8.41,8.41,0,0,0-4.31,1.79,8,8,0,0,0-1.81,2,9.66,9.66,0,0,0,2.07.52,3.22,3.22,0,0,1-.51,2l1.83.18a11.28,11.28,0,0,1-.73,2,9.69,9.69,0,0,0,6.8-5.4,3.72,3.72,0,0,0,.42-1.8l.09,0a.76.76,0,0,0,.21,0,1.53,1.53,0,0,0-.29,1c0,.79-.1,1.58,0,2.39a9.22,9.22,0,0,0,1.71,4.5,8.24,8.24,0,0,0,1.93,1.89,11.14,11.14,0,0,0,.51-2.16,2.83,2.83,0,0,1,1.95.53c.06-.56.11-1.34.17-1.91a11.16,11.16,0,0,1,1.94.76,10,10,0,0,0-5.18-7.09l-.13-.07a12.29,12.29,0,0,0,1.82.4,8.32,8.32,0,0,0,4.57-.85,8.15,8.15,0,0,0,2.16-1.59,10.52,10.52,0,0,0-1.93-1,3.05,3.05,0,0,1,.89-1.88c-.52-.18-1.24-.39-1.76-.56a11.53,11.53,0,0,1,1.1-1.83,9.38,9.38,0,0,0-6.08,2.17,9.24,9.24,0,0,0,1.49-4.11,8.54,8.54,0,0,0-.13-2.76,10.07,10.07,0,0,0-1.8,1.2,3.14,3.14,0,0,1-1.05-1.8c-.42.36-1,.88-1.39,1.25a12.25,12.25,0,0,1-.9-2,10.44,10.44,0,0,0-1.46,6.85A9.77,9.77,0,0,0,315,68.29a12.62,12.62,0,0,1,.35,2.13c-.54,0-1.29-.13-1.83-.18a3.22,3.22,0,0,1,.14,2.1,10.08,10.08,0,0,0-2.13.12,8.28,8.28,0,0,0,1.42,2.33,8.6,8.6,0,0,0,3.92,2.6A5.47,5.47,0,0,0,317.54,77.55Zm5.49.94h-.09l0,0Z"/><path class="cls-5" d="M319,76a2.86,2.86,0,0,0,2.16,3.36,2.75,2.75,0,0,0,3.23-2.26,2.86,2.86,0,0,0-2.17-3.36A2.74,2.74,0,0,0,319,76Z"/><path class="cls-6" d="M324.75,69.59l.34-1.19.09,0-.35,1.18a1.11,1.11,0,0,1-.51.79l0-.08C324.55,70.21,324.66,69.88,324.75,69.59Z"/><path class="cls-6" d="M323.71,68.07a16.55,16.55,0,0,1-.65,1.83l-.09,0a14.59,14.59,0,0,0,.65-1.82Z"/><path class="cls-6" d="M321.92,67.73a7.76,7.76,0,0,0-.14,2.63h-.09a7.94,7.94,0,0,1,.14-2.66Z"/><path class="cls-6" d="M327.2,74.2h0l0,.09a.09.09,0,0,1-.06-.06.11.11,0,0,1,0-.1.2.2,0,0,1,.12-.06,6.85,6.85,0,0,0,1.78-.62l0,.08a7.2,7.2,0,0,1-1.81.63S327.21,74.18,327.2,74.2Z"/><path class="cls-6" d="M328,75.12a.06.06,0,0,0,0,0l-.08,0a.17.17,0,0,1,0-.12.34.34,0,0,1,.17-.17l1.28-.68,0,.09L328.1,75A.31.31,0,0,0,328,75.12Z"/><path class="cls-6" d="M328.68,76.19l1.28-.33,0,.09-1.28.32a.41.41,0,0,0-.15.07.14.14,0,0,0,0,.07,0,0,0,0,0,0,0l-.06.07a.13.13,0,0,1,0-.1.24.24,0,0,1,.05-.14A.39.39,0,0,1,328.68,76.19Z"/><path class="cls-6" d="M325.49,83.13l1.07,1.2c.07.09.16.18.26.17v.09h-.06a.52.52,0,0,1-.27-.2l-1.06-1.2Z"/><path class="cls-6" d="M325,84.15l.08,0a6.28,6.28,0,0,0,.79,1.12l-.06.07A6.62,6.62,0,0,1,325,84.15Z"/><path class="cls-6" d="M324.87,86.06l-.08,0a15.44,15.44,0,0,0-1.09-2.24l.08,0A15.67,15.67,0,0,1,324.87,86.06Z"/><path class="cls-6" d="M316.61,82.6a24.14,24.14,0,0,1-2.25,1.05l0-.09a21.59,21.59,0,0,0,2.24-1Z"/><path class="cls-6" d="M316,81.52a12.25,12.25,0,0,1-1.53.87l0-.08a12.14,12.14,0,0,0,1.52-.87Z"/><path class="cls-6" d="M315.18,80.71l.05.08c-.42.3-.86.6-1.3.87l-.05-.07C314.32,81.31,314.76,81,315.18,80.71Z"/><path class="cls-6" d="M314.41,72.87a2.54,2.54,0,0,0,.46,1,.69.69,0,0,0,.37.27h0v.09h0a.71.71,0,0,1-.42-.31,2.51,2.51,0,0,1-.48-1.08Z"/><path class="cls-6" d="M316,73a5.82,5.82,0,0,1-.74-.75.65.65,0,0,1-.22-.52l.09,0a.61.61,0,0,0,.19.44A5.18,5.18,0,0,0,316,73Z"/><path class="cls-6" d="M316.14,70.79h.09a1.94,1.94,0,0,0,.55,1.08l-.06.07A2,2,0,0,1,316.14,70.79Z"/><path class="cls-3" d="M320.07,75.56a.19.19,0,0,1,.14.21l.74.33a.83.83,0,0,1,.37-.3l-.24-.87a.16.16,0,0,1-.16-.09.2.2,0,0,1,.07-.25.18.18,0,0,1,.24.08.19.19,0,0,1-.07.24l.24.87a.81.81,0,0,1,.41,0,.88.88,0,0,1,.6.49l0-.07.85-.26a.18.18,0,0,1,.09-.17.17.17,0,0,1,.23.08.18.18,0,0,1-.07.24.16.16,0,0,1-.23-.07l-.84.25a1,1,0,0,1,.07.58h0l.72.41a.17.17,0,0,1,.18,0,.18.18,0,0,1,.11.22.17.17,0,0,1-.22.12.18.18,0,0,1-.11-.22l-.7-.41a.89.89,0,0,1-.47.56l.27.7a.17.17,0,0,1,.17.08.18.18,0,0,1-.05.25.18.18,0,0,1-.24,0,.19.19,0,0,1,.05-.25l-.27-.7a.75.75,0,0,1-.47,0l-.11,0-.33.63a.19.19,0,0,1,.05.19.17.17,0,1,1-.33-.11.17.17,0,0,1,.21-.12l.33-.62a.9.9,0,0,1-.49-.6l-.66.28a.16.16,0,0,1-.07.18.17.17,0,0,1-.24,0,.19.19,0,0,1,.05-.25.18.18,0,0,1,.24,0l.67-.28a1,1,0,0,1,0-.34,1.05,1.05,0,0,1,.12-.31l-.72-.32a.2.2,0,0,1-.18.07.18.18,0,0,1-.13-.21A.16.16,0,0,1,320.07,75.56Z"/><path class="cls-3" d="M322.44,75l-.34.84-.07,0,.34-.84a.2.2,0,0,1-.07-.18.17.17,0,0,1,.21-.14.18.18,0,0,1,.13.21A.18.18,0,0,1,322.44,75Z"/><path class="cls-4" d="M306.92,69.22l-.07,0a8.76,8.76,0,0,0-3.41,3.29,8.67,8.67,0,0,0-1,2.56,9.66,9.66,0,0,0,2.12-.29,3.21,3.21,0,0,1,.22,2.09c.53-.14,1.24-.37,1.77-.52a12,12,0,0,1,0,2.16,10.13,10.13,0,0,0,4.47-7.6,3.64,3.64,0,0,0-.23-1.83l.1,0,.2,0a1.6,1.6,0,0,0,.08,1.07c.3.73.47,1.51.82,2.23a8.85,8.85,0,0,0,3.16,3.56,7.56,7.56,0,0,0,2.45,1,10.53,10.53,0,0,0-.28-2.21,2.87,2.87,0,0,1,2-.23c-.14-.55-.36-1.3-.5-1.85a10.23,10.23,0,0,1,2.07,0A9.64,9.64,0,0,0,313.64,68h-.14a13.09,13.09,0,0,0,1.84-.31,8.65,8.65,0,0,0,4-2.51,8.42,8.42,0,0,0,1.47-2.3,9.47,9.47,0,0,0-2.13-.16,3.15,3.15,0,0,1,.18-2.1c-.54,0-1.29.11-1.84.14a12.4,12.4,0,0,1,.4-2.12,9.77,9.77,0,0,0-4.92,4.32,9.48,9.48,0,0,0,0-4.4A8.51,8.51,0,0,0,311.36,56a10,10,0,0,0-1.27,1.79,2.92,2.92,0,0,1-1.6-1.29c-.27.5-.61,1.2-.87,1.7a11.81,11.81,0,0,1-1.51-1.49,10.49,10.49,0,0,0,1,6.94,9.36,9.36,0,0,0-5.79-2.09,12.88,12.88,0,0,1,1.06,1.85c-.52.16-1.25.36-1.77.53a3.07,3.07,0,0,1,.86,1.9,10.21,10.21,0,0,0-2,.91,8,8,0,0,0,2.13,1.64,8.32,8.32,0,0,0,4.56.94C306.46,69.3,306.69,69.26,306.92,69.22ZM312.37,68l-.09,0,0,0Z"/><path class="cls-5" d="M307.76,67.2A2.76,2.76,0,0,0,311,69.52a2.85,2.85,0,0,0,2.22-3.32A2.75,2.75,0,0,0,310,63.88,2.86,2.86,0,0,0,307.76,67.2Z"/><path class="cls-7" d="M310.9,59.07l-.09-1.24h.09l.08,1.23a1.15,1.15,0,0,1-.2.93l-.06-.06A1.13,1.13,0,0,0,310.9,59.07Z"/><path class="cls-7" d="M309.4,58a18.31,18.31,0,0,1,0,2h-.09a15.86,15.86,0,0,0,0-2Z"/><path class="cls-7" d="M307.62,58.41a7.51,7.51,0,0,0,.78,2.5l-.08,0a7.69,7.69,0,0,1-.79-2.53Z"/><path class="cls-7" d="M314.77,62.45h0v.09s0,0-.07,0a.12.12,0,0,1,0-.1.22.22,0,0,1,.09-.1,7.49,7.49,0,0,0,1.45-1.25l.06.06a6.86,6.86,0,0,1-1.47,1.27S314.78,62.43,314.77,62.45Z"/><path class="cls-7" d="M315.82,63s0,0,0,0l-.06.07a.12.12,0,0,1,0-.1.33.33,0,0,1,.1-.23l1-1.1.07.06-1,1.11A.21.21,0,0,0,315.82,63Z"/><path class="cls-7" d="M316.84,63.75l1.09-.79L318,63l-1.09.78a.32.32,0,0,0-.11.12.09.09,0,0,0,0,.07l0,0,0,.08s-.06,0-.08-.08a.23.23,0,0,1,0-.14A.34.34,0,0,1,316.84,63.75Z"/><path class="cls-7" d="M316.27,71.42l1.41.72a.38.38,0,0,0,.3.06l0,.09H318a.47.47,0,0,1-.32-.08l-1.41-.71Z"/><path class="cls-7" d="M316.13,72.57l.05-.07a6.57,6.57,0,0,0,1.13.76l0,.08A6.17,6.17,0,0,1,316.13,72.57Z"/><path class="cls-7" d="M316.71,74.39l-.07.06a15,15,0,0,0-1.79-1.68l0-.07A15.17,15.17,0,0,1,316.71,74.39Z"/><path class="cls-7" d="M307.8,74.28c-.55.63-1.13,1.24-1.74,1.82L306,76a23.05,23.05,0,0,0,1.74-1.82Z"/><path class="cls-7" d="M306.81,73.52a13.46,13.46,0,0,1-1.13,1.39l-.06-.07a13.5,13.5,0,0,0,1.12-1.38Z"/><path class="cls-7" d="M305.82,73.05l.07,0c-.29.44-.59.89-.91,1.31l-.07-.06C305.23,73.93,305.53,73.49,305.82,73.05Z"/><path class="cls-7" d="M302.39,66a2.33,2.33,0,0,0,.79.8.71.71,0,0,0,.44.12h0l0,.09h0a.8.8,0,0,1-.5-.13,2.53,2.53,0,0,1-.83-.83Z"/><path class="cls-7" d="M303.9,65.58a5.82,5.82,0,0,1-1-.42.71.71,0,0,1-.38-.4l.09,0c0,.16.19.26.33.34a5.58,5.58,0,0,0,.94.41Z"/><path class="cls-7" d="M303.28,63.44l.08,0a1.82,1.82,0,0,0,.89.8l0,.09A2.07,2.07,0,0,1,303.28,63.44Z"/><path class="cls-3" d="M308.6,66.4a.16.16,0,0,1,.19.14l.81,0a.91.91,0,0,1,.25-.41l-.52-.72a.17.17,0,0,1-.19,0,.2.2,0,0,1,0-.26.18.18,0,0,1,.25,0,.19.19,0,0,1,0,.25l.52.72a.77.77,0,0,1,.38-.17.84.84,0,0,1,.73.22l0-.06.69-.55a.21.21,0,0,1,0-.19.17.17,0,0,1,.25,0,.18.18,0,0,1,0,.25.16.16,0,0,1-.24,0l-.7.56a.85.85,0,0,1,.27.51h0l.82.12a.17.17,0,0,1,.15-.12.18.18,0,0,1,.18.17.17.17,0,0,1-.16.19.17.17,0,0,1-.18-.16l-.8-.12a.91.91,0,0,1-.24.7l.49.55a.19.19,0,0,1,.19,0,.18.18,0,0,1,0,.25.17.17,0,0,1-.24,0,.17.17,0,0,1,0-.25l-.5-.55a.81.81,0,0,1-.42.22h-.12l-.09.71a.19.19,0,0,1,.11.16.17.17,0,0,1-.16.19.17.17,0,0,1-.18-.17.18.18,0,0,1,.16-.19l.09-.7a.89.89,0,0,1-.66-.37l-.52.5a.2.2,0,0,1,0,.2.16.16,0,0,1-.24,0,.19.19,0,0,1,0-.25.17.17,0,0,1,.24,0l.53-.52a.88.88,0,0,1-.12-.32,1.22,1.22,0,0,1,0-.33l-.79,0a.2.2,0,0,1-.14.14.18.18,0,0,1-.2-.15A.19.19,0,0,1,308.6,66.4Z"/><path class="cls-3" d="M310.62,65l0,.92h-.08l0-.91a.19.19,0,0,1-.13-.14.19.19,0,0,1,.14-.21.17.17,0,0,1,.2.15A.17.17,0,0,1,310.62,65Z"/><path class="cls-3" d="M29.56,68.06A120.21,120.21,0,0,1,9.44,64.51,19.22,19.22,0,0,0,29.56,68.06Z"/><path class="cls-3" d="M29.6,67.35l.06,0s-1.17-4.31-9.33-6c-4.33-.91-11,2.37-11,2.37l.13.13A121.33,121.33,0,0,0,29.6,67.35Z"/><path class="cls-3" d="M34.06,59a.18.18,0,0,0-.11.31A48.39,48.39,0,0,0,68.17,67a.19.19,0,0,0,.16-.19.14.14,0,0,0-.18-.14,48,48,0,0,1-34-7.71A.14.14,0,0,0,34.06,59Z"/><path class="cls-3" d="M42.66,70.8s-4-1.68-4.61-5.55l-.65-3.87a15,15,0,0,1,4.53,3.5C43.64,67,42.66,70.8,42.66,70.8Z"/><path class="cls-3" d="M53.81,59.83s-2.91,3.64-7,3.8l-4.06.17a19.81,19.81,0,0,1,4.9-4C50.35,58.44,53.81,59.83,53.81,59.83Z"/><path class="cls-3" d="M76.88,64.29s-3.24,3.36-7.26,3.12l-4-.25a19.79,19.79,0,0,1,5.24-3.48C73.62,62.54,76.88,64.29,76.88,64.29Z"/><path class="cls-3" d="M67.17,62.29s-1.5,3.36-4.44,4.19l-2.94.82a15.54,15.54,0,0,1,2.9-4C64.4,61.78,67.17,62.29,67.17,62.29Z"/><path class="cls-3" d="M43.11,56.88a6.67,6.67,0,0,0-4.86,1.54l-2,1.88a11.59,11.59,0,0,0,3.94-.47C42,59.22,43.11,56.88,43.11,56.88Z"/><path class="cls-3" d="M58,62.64a6.67,6.67,0,0,0-4.86,1.54l-2,1.88a11.59,11.59,0,0,0,3.94-.47C56.89,65,58,62.64,58,62.64Z"/><path class="cls-3" d="M51.19,71.19s-.3-3.41-3-4.81L45.5,65A12.14,12.14,0,0,0,47,69.24C48.18,71,51.19,71.19,51.19,71.19Z"/><path class="cls-3" d="M61.46,72.29S60.74,69,57.87,68l-2.86-1a11.66,11.66,0,0,0,2,4C58.44,72.51,61.46,72.29,61.46,72.29Z"/><path class="cls-3" d="M24.5,65.53a.76.76,0,0,1-.59-.34.61.61,0,0,1,.17-.68,1.57,1.57,0,0,1,.65-.31,11.78,11.78,0,0,1,2-.36c.44,0,1-.11,1.15-.53-.58.54-1.48.17-2.15-.24-1.22-.73-2.44-1.07-2.57-3.39,1.95-.54,3.34,1.4,5.35,1.62a3.23,3.23,0,0,0-.92-2.15,9.48,9.48,0,0,1-1.08-2.07,1.06,1.06,0,0,1,0-1c.27-.34.79-.22,1.16,0a5.1,5.1,0,0,1,2.5,4.21c0,1,.15,1.8.27,2.73s-.27,1.16-1,1.43C28,65,26.15,65.82,24.5,65.53Z"/><path class="cls-3" d="M31.16,57.55A4.83,4.83,0,0,0,29.66,55c-.29-.21-.72-.36-1-.11s-.15.7,0,1l.85,2.28c-.86-1.1-1.86-2.28-3.21-2.42a1,1,0,0,0-.7.15.88.88,0,0,0-.27.88,2.21,2.21,0,0,0,.43.85,11.89,11.89,0,0,0,1.74,1.94,3.84,3.84,0,0,0-2.56-1.4,1.38,1.38,0,0,0-.75.11.62.62,0,0,0-.32.66,1,1,0,0,0,.31.42A10,10,0,0,0,26.9,61.1a4.48,4.48,0,0,0-3.54-.44A1.44,1.44,0,0,0,24,61.77a3.5,3.5,0,0,0,1.22.44,18.48,18.48,0,0,0,3.05.41,6.83,6.83,0,0,0,3-.11C32.5,61.89,31.45,58.55,31.16,57.55Z"/><path class="cls-3" d="M30.52,64.1a1.4,1.4,0,0,0,1-.38,1.51,1.51,0,0,0,.3-.64,3.65,3.65,0,0,0-.1-1.94c0-.13-.15-.28-.27-.22a.23.23,0,0,0-.09.12l-.3.6c-.2,0-.36-.34-.54-.24a.37.37,0,0,0-.12.22,2.59,2.59,0,0,0,0,.92,2,2,0,0,1-1.24,0,1.28,1.28,0,0,0,.37.74,2.73,2.73,0,0,0-1.05.24c-.06,0-.14.08-.13.15C28.35,64.23,30.24,64.12,30.52,64.1Z"/><path class="cls-3" d="M32.59,68.05a4,4,0,0,1,0,1.15c.1,0,.13-.13.13-.24a11.13,11.13,0,0,0-.55-4.13,7.86,7.86,0,0,0-.41-.94c-.08-.16-.39-.58-.33-.12a4.67,4.67,0,0,0,.42.95c.13.34.25.69.35,1A11.92,11.92,0,0,1,32.59,68.05Z"/><path class="cls-4" d="M34.63,77.39a8.6,8.6,0,0,0,3.92-2.6A8.28,8.28,0,0,0,40,72.46a10.08,10.08,0,0,0-2.13-.12,3.22,3.22,0,0,1,.14-2.1c-.54.05-1.29.14-1.83.18a12.62,12.62,0,0,1,.35-2.13,9.72,9.72,0,0,0-4.67,4.14,10.51,10.51,0,0,0-1.47-6.85,11.38,11.38,0,0,1-.89,2c-.42-.37-1-.89-1.39-1.25a3.14,3.14,0,0,1-1,1.8,10.44,10.44,0,0,0-1.8-1.2,8.26,8.26,0,0,0-.13,2.76,9.24,9.24,0,0,0,1.49,4.11,9.38,9.38,0,0,0-6.08-2.17,12.33,12.33,0,0,1,1.1,1.83c-.52.17-1.24.38-1.76.56a3.05,3.05,0,0,1,.89,1.88,10.22,10.22,0,0,0-1.93,1A8.15,8.15,0,0,0,21,78.4a8.32,8.32,0,0,0,4.57.85,12.29,12.29,0,0,0,1.82-.4l-.13.07A10,10,0,0,0,22.05,86,10.85,10.85,0,0,1,24,85.25c.06.57.11,1.35.17,1.91a2.83,2.83,0,0,1,1.95-.53,11.14,11.14,0,0,0,.51,2.16,8.24,8.24,0,0,0,1.93-1.89,9.22,9.22,0,0,0,1.71-4.5c.08-.81,0-1.6,0-2.39A1.59,1.59,0,0,0,30,79a.76.76,0,0,0,.21,0l.09,0a3.72,3.72,0,0,0,.42,1.8,9.69,9.69,0,0,0,6.8,5.4,11.28,11.28,0,0,1-.73-2l1.83-.18a3.16,3.16,0,0,1-.51-2,9.66,9.66,0,0,0,2.07-.52,8.14,8.14,0,0,0-1.81-2A8.45,8.45,0,0,0,34,77.56h-.09A5.47,5.47,0,0,0,34.63,77.39Zm-6.14,1.06,0,0h-.09Z"/><path class="cls-5" d="M32.45,76a2.86,2.86,0,0,1-2.16,3.36,2.75,2.75,0,0,1-3.23-2.26,2.86,2.86,0,0,1,2.17-3.36A2.74,2.74,0,0,1,32.45,76Z"/><path class="cls-6" d="M26.72,69.59l-.34-1.19-.09,0,.35,1.18a1.11,1.11,0,0,0,.51.79l0-.08C26.92,70.21,26.81,69.88,26.72,69.59Z"/><path class="cls-6" d="M27.76,68.07a16.55,16.55,0,0,0,.65,1.83l.08,0A16.39,16.39,0,0,1,27.84,68Z"/><path class="cls-6" d="M29.55,67.73a7.76,7.76,0,0,1,.14,2.63h.09a8.21,8.21,0,0,0-.14-2.66Z"/><path class="cls-6" d="M24.27,74.2h0l0,.09a.12.12,0,0,0,.06-.06.11.11,0,0,0,0-.1.2.2,0,0,0-.12-.06,6.72,6.72,0,0,1-1.78-.62l0,.08a7.2,7.2,0,0,0,1.81.63S24.26,74.18,24.27,74.2Z"/><path class="cls-6" d="M23.49,75.12a0,0,0,0,1,0,0l.08,0a.25.25,0,0,0,0-.12.34.34,0,0,0-.17-.17l-1.28-.68,0,.09,1.28.67A.23.23,0,0,1,23.49,75.12Z"/><path class="cls-6" d="M22.79,76.19l-1.28-.33,0,.09,1.28.32a.41.41,0,0,1,.15.07.14.14,0,0,1,0,.07,0,0,0,0,1,0,0l.06.07a.13.13,0,0,0,0-.1.24.24,0,0,0-.05-.14A.39.39,0,0,0,22.79,76.19Z"/><path class="cls-6" d="M26,83.13l-1.07,1.2c-.07.09-.16.18-.26.17v.09h.06a.52.52,0,0,0,.27-.2L26,83.19Z"/><path class="cls-6" d="M26.51,84.15l-.08,0a6.84,6.84,0,0,1-.79,1.12l.06.07A6.62,6.62,0,0,0,26.51,84.15Z"/><path class="cls-6" d="M26.59,86.06l.09,0a15.44,15.44,0,0,1,1.09-2.24l-.08,0A16.85,16.85,0,0,0,26.59,86.06Z"/><path class="cls-6" d="M34.86,82.6a24.14,24.14,0,0,0,2.25,1.05l0-.09a21.59,21.59,0,0,1-2.24-1Z"/><path class="cls-6" d="M35.52,81.52a12.25,12.25,0,0,0,1.53.87l0-.08a11.47,11.47,0,0,1-1.52-.87Z"/><path class="cls-6" d="M36.29,80.71l0,.08c.42.3.86.6,1.3.87l0-.07C37.14,81.31,36.71,81,36.29,80.71Z"/><path class="cls-6" d="M37.06,72.87a2.54,2.54,0,0,1-.46,1,.69.69,0,0,1-.37.27h0v.09h0a.72.72,0,0,0,.41-.31,2.53,2.53,0,0,0,.49-1.08Z"/><path class="cls-6" d="M35.5,73a5.82,5.82,0,0,0,.74-.75.69.69,0,0,0,.22-.52l-.09,0a.61.61,0,0,1-.19.44,5.75,5.75,0,0,1-.74.74Z"/><path class="cls-6" d="M35.33,70.79h-.09a1.94,1.94,0,0,1-.55,1.08l.06.07A2.12,2.12,0,0,0,35.33,70.79Z"/><path class="cls-3" d="M31.4,75.56a.19.19,0,0,0-.14.21l-.74.33a.88.88,0,0,0-.37-.3l.24-.87a.16.16,0,0,0,.16-.09.2.2,0,0,0-.07-.25.18.18,0,0,0-.24.08.19.19,0,0,0,.07.24l-.24.87a.81.81,0,0,0-.41,0,.91.91,0,0,0-.61.49l0-.07-.84-.26a.18.18,0,0,0-.09-.17.17.17,0,0,0-.23.08.18.18,0,0,0,.07.24.17.17,0,0,0,.23-.07l.84.25a1,1,0,0,0-.07.58h0l-.72.41a.17.17,0,0,0-.18,0,.18.18,0,0,0-.11.22.16.16,0,0,0,.21.12.19.19,0,0,0,.12-.22l.7-.41a.89.89,0,0,0,.47.56l-.27.7a.16.16,0,0,0-.17.08.18.18,0,0,0,0,.25.17.17,0,0,0,.23,0,.18.18,0,0,0,0-.25l.27-.7a.75.75,0,0,0,.47,0l.11,0,.33.63a.19.19,0,0,0-.05.19.17.17,0,1,0,.33-.11.17.17,0,0,0-.21-.12l-.33-.62a.86.86,0,0,0,.48-.6l.66.28a.18.18,0,0,0,.08.18.17.17,0,0,0,.24,0,.19.19,0,0,0,0-.25.18.18,0,0,0-.24,0l-.67-.28a1,1,0,0,0,0-.34,1.43,1.43,0,0,0-.12-.31l.72-.32a.2.2,0,0,0,.18.07.18.18,0,0,0,.13-.21A.17.17,0,0,0,31.4,75.56Z"/><path class="cls-3" d="M29,75l.34.84.07,0L29.1,75a.2.2,0,0,0,.07-.18.17.17,0,0,0-.21-.14.18.18,0,0,0-.13.21A.18.18,0,0,0,29,75Z"/><path class="cls-4" d="M45.25,69.32a8.34,8.34,0,0,0,4.56-.94,8,8,0,0,0,2.13-1.64A10.5,10.5,0,0,0,50,65.83a3.07,3.07,0,0,1,.86-1.9c-.52-.17-1.25-.37-1.77-.53a12,12,0,0,1,1.06-1.85,9.36,9.36,0,0,0-5.79,2.09,10.49,10.49,0,0,0,1-6.94,11.81,11.81,0,0,1-1.51,1.49c-.26-.5-.6-1.2-.87-1.7a2.92,2.92,0,0,1-1.6,1.29A10,10,0,0,0,40.11,56,8.51,8.51,0,0,0,39,58.51a9.35,9.35,0,0,0,0,4.4,9.81,9.81,0,0,0-4.92-4.32,12.39,12.39,0,0,1,.39,2.12c-.54,0-1.29-.11-1.83-.14a3.22,3.22,0,0,1,.18,2.1,9.47,9.47,0,0,0-2.13.16,8.42,8.42,0,0,0,1.47,2.3,8.65,8.65,0,0,0,4,2.51A13.09,13.09,0,0,0,38,68h-.15a9.64,9.64,0,0,0-7.28,4.67,10.24,10.24,0,0,1,2.07,0c-.14.55-.36,1.3-.5,1.85a2.87,2.87,0,0,1,2,.23,10.53,10.53,0,0,0-.28,2.21,7.56,7.56,0,0,0,2.45-1,8.92,8.92,0,0,0,3.16-3.56c.35-.72.52-1.5.81-2.23a1.54,1.54,0,0,0,.08-1.07l.21,0,.1,0A3.64,3.64,0,0,0,40.42,71a10.1,10.1,0,0,0,4.47,7.6,11.16,11.16,0,0,1,0-2.16c.52.15,1.24.38,1.77.52a3.21,3.21,0,0,1,.22-2.09,9.66,9.66,0,0,0,2.12.29,8.67,8.67,0,0,0-1-2.56,8.76,8.76,0,0,0-3.41-3.29l-.07,0C44.78,69.26,45,69.3,45.25,69.32ZM39.16,68l0,0-.08,0Z"/><path class="cls-5" d="M43.7,67.2a2.74,2.74,0,0,1-3.18,2.32A2.85,2.85,0,0,1,38.3,66.2a2.75,2.75,0,0,1,3.18-2.32A2.85,2.85,0,0,1,43.7,67.2Z"/><path class="cls-7" d="M40.57,59.07l.09-1.24h-.09l-.08,1.23a1.15,1.15,0,0,0,.2.93l.06-.06A1.13,1.13,0,0,1,40.57,59.07Z"/><path class="cls-7" d="M42.07,58a16,16,0,0,0,0,2h.09a18.12,18.12,0,0,1,0-2Z"/><path class="cls-7" d="M43.85,58.41a7.51,7.51,0,0,1-.78,2.5l.08,0a7.69,7.69,0,0,0,.79-2.53Z"/><path class="cls-7" d="M36.7,62.45s0,0,0,0l0,.09a.08.08,0,0,0,.08,0,.12.12,0,0,0,0-.1.22.22,0,0,0-.09-.1,7.49,7.49,0,0,1-1.45-1.25l-.06.06a7.05,7.05,0,0,0,1.46,1.27S36.69,62.43,36.7,62.45Z"/><path class="cls-7" d="M35.65,63l0,0,.06.07a.12.12,0,0,0,.05-.1.33.33,0,0,0-.1-.23l-1-1.1-.07.06,1,1.11A.31.31,0,0,1,35.65,63Z"/><path class="cls-7" d="M34.63,63.75,33.54,63l0,.08,1.09.78a.32.32,0,0,1,.11.12.09.09,0,0,1,0,.07l0,0,0,.08a.11.11,0,0,0,.07-.08.17.17,0,0,0,0-.14A.34.34,0,0,0,34.63,63.75Z"/><path class="cls-7" d="M35.2,71.42l-1.41.72a.38.38,0,0,1-.3.06l0,.09h.06a.47.47,0,0,0,.32-.08l1.41-.71Z"/><path class="cls-7" d="M35.34,72.57l-.06-.07a6.57,6.57,0,0,1-1.13.76l0,.08A6.24,6.24,0,0,0,35.34,72.57Z"/><path class="cls-7" d="M34.76,74.39l.07.06a15,15,0,0,1,1.79-1.68l0-.07A14.44,14.44,0,0,0,34.76,74.39Z"/><path class="cls-7" d="M43.67,74.28a24.83,24.83,0,0,0,1.74,1.82l.06-.07a23.05,23.05,0,0,1-1.74-1.82Z"/><path class="cls-7" d="M44.66,73.52a14.8,14.8,0,0,0,1.12,1.39l.07-.07a13.5,13.5,0,0,1-1.12-1.38Z"/><path class="cls-7" d="M45.65,73.05l-.07,0c.29.44.59.89.91,1.31l.07-.06C46.24,73.93,45.94,73.49,45.65,73.05Z"/><path class="cls-7" d="M49.08,66a2.33,2.33,0,0,1-.79.8.71.71,0,0,1-.44.12h0l0,.09h0a.8.8,0,0,0,.5-.13,2.53,2.53,0,0,0,.83-.83Z"/><path class="cls-7" d="M47.57,65.58a5.82,5.82,0,0,0,1-.42.66.66,0,0,0,.37-.4l-.08,0a.6.6,0,0,1-.34.34,5.15,5.15,0,0,1-.93.41Z"/><path class="cls-7" d="M48.18,63.44l-.07,0a1.82,1.82,0,0,1-.89.8l0,.09A2,2,0,0,0,48.18,63.44Z"/><path class="cls-3" d="M42.87,66.4a.18.18,0,0,0-.2.14l-.8,0a.91.91,0,0,0-.25-.41l.52-.72a.17.17,0,0,0,.19,0,.19.19,0,0,0,0-.26.16.16,0,0,0-.24,0,.19.19,0,0,0,0,.25l-.52.72a.77.77,0,0,0-.38-.17.83.83,0,0,0-.73.22l0-.06-.7-.55a.19.19,0,0,0,0-.19.17.17,0,0,0-.25,0,.18.18,0,0,0,0,.25.16.16,0,0,0,.24,0l.69.56a.89.89,0,0,0-.26.51h0l-.82.12a.17.17,0,0,0-.15-.12.18.18,0,0,0-.18.17.17.17,0,0,0,.16.19.17.17,0,0,0,.18-.16l.8-.12a.91.91,0,0,0,.24.7l-.49.55a.19.19,0,0,0-.19,0,.18.18,0,0,0,0,.25.16.16,0,0,0,.24,0,.17.17,0,0,0,0-.25l.49-.55a.89.89,0,0,0,.43.22H41l.1.71a.19.19,0,0,0-.11.16.17.17,0,0,0,.16.19.18.18,0,0,0,0-.36l-.09-.7a.89.89,0,0,0,.66-.37l.52.5a.18.18,0,0,0,0,.2.16.16,0,0,0,.24,0,.19.19,0,0,0,0-.25.17.17,0,0,0-.24,0l-.53-.52a.72.72,0,0,0,.11-.32.92.92,0,0,0,0-.33l.79,0a.18.18,0,0,0,.14.14.18.18,0,0,0,.2-.15A.19.19,0,0,0,42.87,66.4Z"/><path class="cls-3" d="M40.85,65l0,.92H41l0-.91a.2.2,0,0,0,.13-.14.19.19,0,0,0-.15-.21.16.16,0,0,0-.19.15A.17.17,0,0,0,40.85,65Z"/></g></g></svg>