<svg xmlns="http://www.w3.org/2000/svg" viewBox="0 0 353.33 240.67"><defs><style>.cls-1{fill:#3d4035;}</style></defs><g id="レイヤー_2" data-name="レイヤー 2"><g id="レイヤー_1-2" data-name="レイヤー 1"><path class="cls-1" d="M352.17,0H1.16A1.16,1.16,0,0,0,0,1.16V239.51a1.16,1.16,0,0,0,1.16,1.16h351a1.16,1.16,0,0,0,1.16-1.16V1.16A1.16,1.16,0,0,0,352.17,0ZM351,238.35H2.32V2.32H351Z"/><path class="cls-1" d="M13.5,26.63a3.52,3.52,0,0,0,2.49.78,11.75,11.75,0,0,0,4.77-.69c.62-.25,1.21-.58,1.84-.8a5.62,5.62,0,0,1,2.63-.25c.3.32,0,.12.3.47-.13-.29,1.08.72,1,.41.31.07-.7-1.14-.41-1-.35-.26-.15,0-.47-.3a5.62,5.62,0,0,1,.25-2.63c.22-.63.55-1.22.79-1.84A11.56,11.56,0,0,0,27.4,16a3.56,3.56,0,0,0-.78-2.49,2.86,2.86,0,0,0-1-.56A3.09,3.09,0,0,0,25,12.8a2.06,2.06,0,0,0-1.61.69,2.6,2.6,0,0,0-.66,1.64,1.7,1.7,0,0,0,.22,1c.71,1.07,2.08-.31,1.11-.66-.28-.1-.63,0-.68-.41s.45-1,.87-1.11a1.45,1.45,0,0,1,.92.09,1.82,1.82,0,0,1,1,1.88,1.12,1.12,0,0,1-.51.87c-.29.16-.68.13-.91.37a.8.8,0,0,0-.12.79,5.54,5.54,0,0,1,.27.78A1.48,1.48,0,0,1,24,20.17a2.23,2.23,0,0,1-1.77-.09c-.22-.1-.43-.22-.65-.31A3.24,3.24,0,0,0,20,19.68h-.06a.21.21,0,0,0-.13,0l0,0h0s0,0,0,0,0,.08,0,.12a.13.13,0,0,1,0,.06,3.36,3.36,0,0,0,.1,1.58c.09.23.21.43.31.65A2.19,2.19,0,0,1,20.15,24a1.45,1.45,0,0,1-1.46.92,5.54,5.54,0,0,1-.78-.27.82.82,0,0,0-.8.12c-.23.23-.2.62-.36.91a1.12,1.12,0,0,1-.87.51,1.83,1.83,0,0,1-1.88-1,1.36,1.36,0,0,1-.09-.93c.12-.42.63-.94,1.11-.87s.31.4.41.68c.35,1,1.73-.4.65-1.11a1.66,1.66,0,0,0-1-.22,2.65,2.65,0,0,0-1.64.66A2.08,2.08,0,0,0,12.79,25a2.51,2.51,0,0,0,.15.67A2.86,2.86,0,0,0,13.5,26.63Zm8.19-4.93c.58.12,1.22.34,1.39.89a2,2,0,0,1,.05.55,2,2,0,0,1-.55-.05C22,22.92,21.81,22.28,21.69,21.7Z"/><path class="cls-1" d="M3.58,27a2.37,2.37,0,0,0,1.86-.55,43.89,43.89,0,0,0,6-4.64,7.21,7.21,0,0,1,3-2,6.34,6.34,0,0,1,1.44-.09l3.84.07v0h0c0-1.28-.05-2.56-.07-3.84a5.71,5.71,0,0,1,.09-1.43,7.08,7.08,0,0,1,2-3.05,43.89,43.89,0,0,0,4.64-6A2.4,2.4,0,0,0,27,3.6a1.29,1.29,0,0,0-.92-.83,2.12,2.12,0,0,0-1.31.13A3.21,3.21,0,0,0,22.83,5L22.21,3.9A.85.85,0,0,0,22,3.62a.72.72,0,0,0-.73.08c-1.5.86-1.61,3.05-2.89,4.21a5.5,5.5,0,0,0-.37-3,1.17,1.17,0,0,0-.4-.45,1,1,0,0,0-1,.08,3.32,3.32,0,0,0-.75.7,3.57,3.57,0,0,0-2.13-1.82,3.84,3.84,0,0,0-2.87.27A3.27,3.27,0,0,0,9,6.51a2.09,2.09,0,0,0,2.23,2.07A2.43,2.43,0,0,0,12.46,8c.41-.33.74-.9.5-1.34a.67.67,0,0,0-.84-.27.64.64,0,0,0-.44.72s-.61.23-.8,0a1,1,0,0,1-.11-.87,2.19,2.19,0,0,1,2.05-1.58,1.91,1.91,0,0,1,1.82,1.65A4.29,4.29,0,0,1,14.36,8a8.43,8.43,0,0,0-.18,5.38,1.8,1.8,0,0,0,1.29,1.25c.12-.62.34-1.34.94-1.54a1.66,1.66,0,0,1,1.43.44.75.75,0,0,1,.3.31.88.88,0,0,1,0,.43c-.09,1.17-.24,2.33-.43,3.49-1.16.19-2.32.34-3.49.43a.93.93,0,0,1-.44,0,.79.79,0,0,1-.3-.3,1.66,1.66,0,0,1-.44-1.43c.2-.6.92-.81,1.53-.94a1.76,1.76,0,0,0-1.24-1.28A8.43,8.43,0,0,0,8,14.38a4.3,4.3,0,0,1-1.69.29,1.92,1.92,0,0,1-1.65-1.83,2.17,2.17,0,0,1,1.58-2.05,1,1,0,0,1,.87.12c.23.18,0,.79,0,.79a.64.64,0,0,0-.72.45.68.68,0,0,0,.27.84c.44.23,1-.1,1.34-.5a2.47,2.47,0,0,0,.57-1.21A2.11,2.11,0,0,0,6.49,9,3.27,3.27,0,0,0,3.67,10.9a3.84,3.84,0,0,0-.27,2.87A3.5,3.5,0,0,0,5.22,15.9a3.15,3.15,0,0,0-.7.76,1,1,0,0,0-.08,1,1.13,1.13,0,0,0,.44.4,5.46,5.46,0,0,0,3,.37c-1.16,1.28-3.35,1.4-4.21,2.89A.72.72,0,0,0,3.6,22a.76.76,0,0,0,.28.22L5,22.85a3.25,3.25,0,0,0-2.1,1.91,2.2,2.2,0,0,0-.12,1.31A1.32,1.32,0,0,0,3.58,27Zm15.7-14.68a9,9,0,0,0,.1-1.65c.06-.57.15-1.13.23-1.69a6.18,6.18,0,0,1,.88-2.62l.43.6a.43.43,0,0,0,.1.09.23.23,0,0,0,.16,0,4.9,4.9,0,0,0,1.11-.87,1.81,1.81,0,0,1,1.26-.55,5.63,5.63,0,0,1-1,1.25A13.8,13.8,0,0,0,19.28,12.32Zm-3.9-.1c.08-1.19-.15-2.34,0-3.55,0-.39.07-1.21.37-1.51s.67.09.6.53-.12.63-.19,1A21.47,21.47,0,0,0,15.38,12.22ZM8.86,16l-.95.19c-.44.07-1-.17-.54-.6s1.13-.32,1.52-.37c1.21-.16,2.36.06,3.55,0A22.27,22.27,0,0,0,8.86,16Zm-3,7.37a1.73,1.73,0,0,1,.55-1.25A5.19,5.19,0,0,0,7.24,21a.29.29,0,0,0,0-.16.32.32,0,0,0-.1-.1l-.59-.42A5.92,5.92,0,0,1,9.2,19.4c.56-.09,1.12-.18,1.69-.24a9,9,0,0,0,1.65-.1,14,14,0,0,0-5.47,3.23A5.63,5.63,0,0,1,5.82,23.33Z"/><path class="cls-1" d="M340.23,25.64a2.51,2.51,0,0,0,.15-.67,2.08,2.08,0,0,0-.68-1.61,2.65,2.65,0,0,0-1.64-.66,1.66,1.66,0,0,0-1,.22c-1.08.71.3,2.08.65,1.11.1-.28,0-.63.41-.68s1,.45,1.11.87a1.36,1.36,0,0,1-.09.93,1.83,1.83,0,0,1-1.88,1,1.12,1.12,0,0,1-.87-.51c-.16-.29-.13-.68-.36-.91a.82.82,0,0,0-.8-.12,5.54,5.54,0,0,1-.78.27A1.45,1.45,0,0,1,333,24a2.19,2.19,0,0,1,.08-1.77c.1-.22.22-.42.31-.65a3.24,3.24,0,0,0,.1-1.58.13.13,0,0,1,0-.06s0-.09,0-.12,0,0,0,0h0l0,0a.21.21,0,0,0-.13,0h-.06a3.24,3.24,0,0,0-1.58.09c-.22.09-.43.21-.65.31a2.23,2.23,0,0,1-1.77.09,1.48,1.48,0,0,1-.92-1.47,5.54,5.54,0,0,1,.27-.78.8.8,0,0,0-.12-.79c-.23-.24-.62-.21-.91-.37a1.15,1.15,0,0,1-.51-.87A1.82,1.82,0,0,1,328,14a1.45,1.45,0,0,1,.92-.09c.42.12.94.63.87,1.11s-.4.31-.68.41c-1,.35.4,1.73,1.11.66a1.7,1.7,0,0,0,.22-1,2.6,2.6,0,0,0-.66-1.64,2.05,2.05,0,0,0-1.6-.69,3.05,3.05,0,0,0-.68.15,2.86,2.86,0,0,0-1,.56,3.56,3.56,0,0,0-.78,2.49,11.56,11.56,0,0,0,.7,4.77c.24.62.57,1.21.79,1.84a5.76,5.76,0,0,1,.26,2.63c-.33.3-.13,0-.48.3.29-.13-.72,1.08-.41,1-.07.31,1.14-.7,1-.41.26-.35,0-.15.3-.47a5.62,5.62,0,0,1,2.63.25c.63.22,1.22.55,1.84.8a11.75,11.75,0,0,0,4.77.69,3.52,3.52,0,0,0,2.49-.78A2.86,2.86,0,0,0,340.23,25.64Zm-9.64-2.55a2,2,0,0,1-.55.05,2,2,0,0,1,0-.55c.17-.55.81-.77,1.39-.89C331.36,22.28,331.15,22.92,330.59,23.09Z"/><path class="cls-1" d="M350.42,26.07a2.2,2.2,0,0,0-.12-1.31,3.25,3.25,0,0,0-2.1-1.91l1.09-.62a.76.76,0,0,0,.28-.22.72.72,0,0,0-.08-.73c-.86-1.49-3.05-1.61-4.21-2.89a5.46,5.46,0,0,0,3-.37,1.13,1.13,0,0,0,.44-.4,1,1,0,0,0-.08-1,3.15,3.15,0,0,0-.7-.76,3.5,3.5,0,0,0,1.82-2.13,3.84,3.84,0,0,0-.27-2.87A3.27,3.27,0,0,0,346.68,9a2.11,2.11,0,0,0-2.07,2.24,2.47,2.47,0,0,0,.57,1.21c.33.4.9.73,1.34.5a.68.68,0,0,0,.27-.84.64.64,0,0,0-.72-.45s-.23-.61,0-.79a1,1,0,0,1,.87-.12,2.17,2.17,0,0,1,1.58,2.05,1.92,1.92,0,0,1-1.65,1.83,4.3,4.3,0,0,1-1.69-.29,8.43,8.43,0,0,0-5.38-.17,1.76,1.76,0,0,0-1.24,1.28c.61.13,1.33.34,1.53.94a1.66,1.66,0,0,1-.44,1.43.79.79,0,0,1-.3.3.93.93,0,0,1-.44,0c-1.17-.09-2.33-.24-3.49-.43-.19-1.16-.34-2.32-.43-3.49a.88.88,0,0,1,0-.43.75.75,0,0,1,.3-.31,1.66,1.66,0,0,1,1.43-.44c.6.2.82.92.94,1.54A1.8,1.8,0,0,0,339,13.39,8.43,8.43,0,0,0,338.81,8a4.29,4.29,0,0,1-.28-1.69,1.91,1.91,0,0,1,1.82-1.65,2.19,2.19,0,0,1,2,1.58,1,1,0,0,1-.11.87c-.19.23-.8,0-.8,0a.64.64,0,0,0-.44-.72.67.67,0,0,0-.84.27c-.24.44.09,1,.5,1.34a2.43,2.43,0,0,0,1.21.57,2.09,2.09,0,0,0,2.23-2.07,3.27,3.27,0,0,0-1.86-2.82,3.84,3.84,0,0,0-2.87-.27,3.57,3.57,0,0,0-2.13,1.82,3.32,3.32,0,0,0-.75-.7,1,1,0,0,0-1-.08,1.17,1.17,0,0,0-.4.45,5.6,5.6,0,0,0-.37,3c-1.28-1.16-1.39-3.35-2.89-4.21a.72.72,0,0,0-.73-.08.85.85,0,0,0-.22.28L330.34,5a3.21,3.21,0,0,0-1.91-2.09,2.12,2.12,0,0,0-1.31-.13,1.31,1.31,0,0,0-.92.83,2.4,2.4,0,0,0,.54,1.86,44.7,44.7,0,0,0,4.64,6,7.08,7.08,0,0,1,2,3.05,5.71,5.71,0,0,1,.09,1.43c0,1.28,0,2.56-.07,3.84h0v0l3.84-.07a6.34,6.34,0,0,1,1.44.09,7.21,7.21,0,0,1,3,2,43.89,43.89,0,0,0,6,4.64,2.37,2.37,0,0,0,1.86.55A1.32,1.32,0,0,0,350.42,26.07ZM330.66,6.85a5.63,5.63,0,0,1-1-1.25,1.81,1.81,0,0,1,1.26.55A4.9,4.9,0,0,0,332,7a.23.23,0,0,0,.16,0,.43.43,0,0,0,.1-.09l.43-.6A6.18,6.18,0,0,1,333.56,9c.08.56.17,1.12.23,1.69a9,9,0,0,0,.1,1.65A13.8,13.8,0,0,0,330.66,6.85ZM337,8.64c-.08-.32-.14-.63-.2-1s.18-1,.6-.53.32,1.12.37,1.51c.17,1.21-.06,2.36,0,3.55A22.48,22.48,0,0,0,337,8.64Zm3.73,6.52c1.19.08,2.34-.14,3.55,0,.39.05,1.21.07,1.52.37s-.1.67-.54.6l-.95-.19A22.27,22.27,0,0,0,340.73,15.16Zm5.37,7.13a14,14,0,0,0-5.47-3.23,9,9,0,0,0,1.65.1c.57.06,1.13.15,1.69.24a5.92,5.92,0,0,1,2.62.88l-.59.42a.32.32,0,0,0-.1.1.29.29,0,0,0,0,.16,5.19,5.19,0,0,0,.87,1.12,1.73,1.73,0,0,1,.55,1.25A5.63,5.63,0,0,1,346.1,22.29Z"/><path class="cls-1" d="M339.67,214a3.47,3.47,0,0,0-2.49-.78,11.75,11.75,0,0,0-4.77.69c-.62.25-1.21.58-1.84.79a5.62,5.62,0,0,1-2.63.26c-.3-.32,0-.12-.3-.48.13.3-1.08-.72-1-.4-.31-.08.7,1.14.41,1,.35.26.15,0,.47.29a5.65,5.65,0,0,1-.25,2.64c-.22.63-.55,1.22-.79,1.83a11.61,11.61,0,0,0-.7,4.77,3.55,3.55,0,0,0,.78,2.49,3.25,3.25,0,0,0,1.67.72,2.09,2.09,0,0,0,1.6-.69,2.65,2.65,0,0,0,.66-1.64,1.7,1.7,0,0,0-.22-1c-.71-1.07-2.08.31-1.11.65.28.11.63,0,.68.42s-.45,1-.87,1.11a1.45,1.45,0,0,1-.92-.09,1.83,1.83,0,0,1-1-1.89,1.09,1.09,0,0,1,.51-.86c.29-.16.68-.13.91-.37a.8.8,0,0,0,.12-.79,6,6,0,0,1-.27-.78,1.48,1.48,0,0,1,.92-1.47,2.23,2.23,0,0,1,1.77.09c.22.09.43.22.65.3a3.12,3.12,0,0,0,1.58.1h.06a.31.31,0,0,0,.13,0l0,0h0v0s0,0,0,0a.28.28,0,0,0,0-.12.13.13,0,0,1,0-.06,3.35,3.35,0,0,0-.1-1.58c-.09-.23-.21-.44-.31-.65a2.21,2.21,0,0,1-.08-1.78,1.46,1.46,0,0,1,1.46-.92,7.19,7.19,0,0,1,.78.27.82.82,0,0,0,.8-.12c.23-.23.2-.61.36-.9a1.16,1.16,0,0,1,.87-.52,1.83,1.83,0,0,1,1.88,1,1.36,1.36,0,0,1,.09.93,1.22,1.22,0,0,1-1.11.87c-.37-.06-.31-.4-.41-.69-.35-1-1.73.41-.65,1.11a1.52,1.52,0,0,0,1,.22,2.54,2.54,0,0,0,1.64-.66,2.06,2.06,0,0,0,.68-1.6,2.67,2.67,0,0,0-.15-.68A2.73,2.73,0,0,0,339.67,214Zm-8.19,4.93c-.58-.13-1.22-.34-1.39-.9a1.94,1.94,0,0,1,0-.54,2,2,0,0,1,.55,0C331.15,217.68,331.36,218.32,331.48,218.9Z"/><path class="cls-1" d="M349.59,213.6a2.37,2.37,0,0,0-1.86.55,44.63,44.63,0,0,0-6,4.63,7.14,7.14,0,0,1-3,2,7,7,0,0,1-1.44.09l-3.84-.07v0h0c0,1.28,0,2.56.07,3.84a5.71,5.71,0,0,1-.09,1.43,7,7,0,0,1-2,3,44.79,44.79,0,0,0-4.64,6,2.37,2.37,0,0,0-.54,1.85,1.27,1.27,0,0,0,.92.83,2.19,2.19,0,0,0,1.31-.12,3.23,3.23,0,0,0,1.91-2.09l.62,1.09a.73.73,0,0,0,.22.27.7.7,0,0,0,.73-.08c1.5-.86,1.61-3,2.89-4.21a5.62,5.62,0,0,0,.37,3,1.07,1.07,0,0,0,.4.44,1,1,0,0,0,1-.08,3.11,3.11,0,0,0,.75-.7,3.55,3.55,0,0,0,2.13,1.83,3.84,3.84,0,0,0,2.87-.27,3.28,3.28,0,0,0,1.86-2.83,2.09,2.09,0,0,0-2.23-2.06,2.41,2.41,0,0,0-1.21.56c-.41.34-.74.9-.5,1.34a.66.66,0,0,0,.84.27.62.62,0,0,0,.44-.71s.61-.23.8,0a1,1,0,0,1,.11.87,2.17,2.17,0,0,1-2,1.57,1.9,1.9,0,0,1-1.82-1.65,4.35,4.35,0,0,1,.28-1.69,8.4,8.4,0,0,0,.18-5.37A1.8,1.8,0,0,0,337.7,226c-.12.61-.34,1.34-.94,1.54a1.66,1.66,0,0,1-1.43-.44.89.89,0,0,1-.3-.31.92.92,0,0,1,0-.44c.09-1.16.24-2.33.43-3.49,1.16-.19,2.32-.33,3.49-.42a.74.74,0,0,1,.44,0,.79.79,0,0,1,.3.3,1.65,1.65,0,0,1,.44,1.43c-.2.59-.92.81-1.53.93a1.76,1.76,0,0,0,1.24,1.29,8.43,8.43,0,0,0,5.38-.18,4.48,4.48,0,0,1,1.69-.28,1.91,1.91,0,0,1,1.65,1.82,2.17,2.17,0,0,1-1.58,2.05,1,1,0,0,1-.87-.11c-.23-.19,0-.79,0-.79a.64.64,0,0,0,.72-.45.68.68,0,0,0-.27-.84c-.44-.24-1,.1-1.34.5a2.47,2.47,0,0,0-.57,1.21,2.11,2.11,0,0,0,2.07,2.24,3.29,3.29,0,0,0,2.82-1.86,3.86,3.86,0,0,0,.27-2.88A3.51,3.51,0,0,0,348,224.7a3.15,3.15,0,0,0,.7-.76,1,1,0,0,0,.08-1,1.13,1.13,0,0,0-.44-.4,5.55,5.55,0,0,0-3-.38c1.16-1.28,3.35-1.39,4.21-2.88a.72.72,0,0,0,.08-.73.76.76,0,0,0-.28-.22c-.36-.21-.72-.42-1.09-.62a3.3,3.3,0,0,0,2.1-1.91,2.2,2.2,0,0,0,.12-1.31A1.3,1.3,0,0,0,349.59,213.6Zm-15.7,14.67a9.14,9.14,0,0,0-.1,1.66c-.06.56-.15,1.12-.23,1.69a6.22,6.22,0,0,1-.88,2.62l-.43-.6a.21.21,0,0,0-.1-.09.19.19,0,0,0-.16,0,4.9,4.9,0,0,0-1.11.87,1.81,1.81,0,0,1-1.26.55,5.91,5.91,0,0,1,1-1.26A13.66,13.66,0,0,0,333.89,228.27Zm3.9.11c-.08,1.19.15,2.34,0,3.55,0,.39-.06,1.2-.37,1.51s-.67-.1-.6-.53.12-.64.2-.95A22.48,22.48,0,0,0,337.79,228.38Zm6.52-3.74c.32-.07.64-.14.95-.19s1,.17.54.59-1.13.32-1.52.38c-1.21.16-2.36-.06-3.55,0A21.22,21.22,0,0,0,344.31,224.64Zm3-7.37a1.77,1.77,0,0,1-.55,1.25,5.39,5.39,0,0,0-.87,1.11.3.3,0,0,0,0,.16.27.27,0,0,0,.1.11l.59.42a5.92,5.92,0,0,1-2.62.88c-.56.08-1.12.18-1.69.23a9,9,0,0,0-1.65.11,13.94,13.94,0,0,0,5.47-3.24A5.58,5.58,0,0,1,347.35,217.27Z"/><path class="cls-1" d="M12.94,215a2.67,2.67,0,0,0-.15.68,2.06,2.06,0,0,0,.68,1.6,2.54,2.54,0,0,0,1.64.66,1.52,1.52,0,0,0,1-.22c1.08-.7-.3-2.07-.65-1.11-.1.29,0,.63-.41.69a1.22,1.22,0,0,1-1.11-.87,1.36,1.36,0,0,1,.09-.93,1.83,1.83,0,0,1,1.88-1,1.16,1.16,0,0,1,.87.52c.16.29.13.67.36.9a.82.82,0,0,0,.8.12,7.19,7.19,0,0,1,.78-.27,1.46,1.46,0,0,1,1.46.92,2.21,2.21,0,0,1-.08,1.78c-.1.21-.22.42-.31.65a3.35,3.35,0,0,0-.1,1.58.13.13,0,0,1,0,.06.28.28,0,0,0,0,.12s0,0,0,0v0h0l0,0a.31.31,0,0,0,.13,0H20a3.12,3.12,0,0,0,1.58-.1c.22-.08.43-.21.65-.3a2.23,2.23,0,0,1,1.77-.09,1.48,1.48,0,0,1,.92,1.47,6,6,0,0,1-.27.78.8.8,0,0,0,.12.79c.23.24.62.21.91.37a1.09,1.09,0,0,1,.51.86,1.83,1.83,0,0,1-1,1.89,1.45,1.45,0,0,1-.92.09c-.42-.12-.94-.64-.87-1.11s.4-.31.68-.42c1-.34-.4-1.72-1.11-.65a1.7,1.7,0,0,0-.22,1,2.65,2.65,0,0,0,.66,1.64,2.09,2.09,0,0,0,1.6.69,3.25,3.25,0,0,0,1.67-.72,3.55,3.55,0,0,0,.78-2.49,11.61,11.61,0,0,0-.7-4.77c-.24-.61-.57-1.2-.79-1.83a5.65,5.65,0,0,1-.25-2.64c.32-.3.12,0,.47-.29-.29.13.72-1.09.41-1,.07-.32-1.14.7-1,.4-.26.36,0,.16-.3.48a5.62,5.62,0,0,1-2.63-.26c-.63-.21-1.22-.54-1.84-.79a11.75,11.75,0,0,0-4.77-.69,3.47,3.47,0,0,0-2.49.78A2.73,2.73,0,0,0,12.94,215Zm9.64,2.56a2,2,0,0,1,.55,0,1.94,1.94,0,0,1-.05.54c-.17.56-.81.77-1.39.9C21.81,218.32,22,217.68,22.58,217.51Z"/><path class="cls-1" d="M2.75,214.53a2.2,2.2,0,0,0,.12,1.31A3.3,3.3,0,0,0,5,217.75c-.37.2-.73.41-1.09.62a.76.76,0,0,0-.28.22.72.72,0,0,0,.08.73c.86,1.49,3.05,1.6,4.21,2.88a5.55,5.55,0,0,0-3,.38,1.13,1.13,0,0,0-.44.4,1,1,0,0,0,.08,1,3.15,3.15,0,0,0,.7.76,3.51,3.51,0,0,0-1.82,2.12,3.86,3.86,0,0,0,.27,2.88,3.29,3.29,0,0,0,2.82,1.86,2.11,2.11,0,0,0,2.07-2.24A2.47,2.47,0,0,0,8,228.11c-.33-.4-.9-.74-1.34-.5a.68.68,0,0,0-.27.84.64.64,0,0,0,.72.45s.23.6,0,.79a1,1,0,0,1-.87.11,2.17,2.17,0,0,1-1.58-2.05,1.91,1.91,0,0,1,1.65-1.82,4.48,4.48,0,0,1,1.69.28,8.43,8.43,0,0,0,5.38.18,1.76,1.76,0,0,0,1.24-1.29c-.61-.12-1.33-.34-1.53-.93a1.65,1.65,0,0,1,.44-1.43.79.79,0,0,1,.3-.3.74.74,0,0,1,.44,0c1.17.09,2.33.23,3.49.42.19,1.16.34,2.33.43,3.49a.92.92,0,0,1,0,.44.89.89,0,0,1-.3.31,1.66,1.66,0,0,1-1.43.44c-.6-.2-.82-.93-.94-1.54a1.8,1.8,0,0,0-1.29,1.25,8.4,8.4,0,0,0,.18,5.37,4.35,4.35,0,0,1,.28,1.69,1.9,1.9,0,0,1-1.82,1.65,2.17,2.17,0,0,1-2.05-1.57,1,1,0,0,1,.11-.87c.19-.23.8,0,.8,0a.62.62,0,0,0,.44.71.66.66,0,0,0,.84-.27c.24-.44-.09-1-.5-1.34a2.41,2.41,0,0,0-1.21-.56A2.09,2.09,0,0,0,9,234.08a3.28,3.28,0,0,0,1.86,2.83,3.84,3.84,0,0,0,2.87.27,3.55,3.55,0,0,0,2.13-1.83,3.11,3.11,0,0,0,.75.7,1,1,0,0,0,1,.08,1.07,1.07,0,0,0,.4-.44,5.53,5.53,0,0,0,.37-3c1.28,1.17,1.39,3.35,2.89,4.21A.7.7,0,0,0,22,237a.73.73,0,0,0,.22-.27l.62-1.09a3.23,3.23,0,0,0,1.91,2.09,2.19,2.19,0,0,0,1.31.12A1.27,1.27,0,0,0,27,237a2.37,2.37,0,0,0-.54-1.85,44.79,44.79,0,0,0-4.64-6,7,7,0,0,1-2-3,5.71,5.71,0,0,1-.09-1.43c0-1.28,0-2.56.07-3.84h0v0l-3.84.07a7,7,0,0,1-1.44-.09,7.14,7.14,0,0,1-3-2,44.63,44.63,0,0,0-6-4.63,2.37,2.37,0,0,0-1.86-.55A1.3,1.3,0,0,0,2.75,214.53Zm19.76,19.21a5.91,5.91,0,0,1,1,1.26,1.81,1.81,0,0,1-1.26-.55,4.9,4.9,0,0,0-1.11-.87.19.19,0,0,0-.16,0,.21.21,0,0,0-.1.09l-.43.6a6.22,6.22,0,0,1-.88-2.62c-.08-.57-.17-1.13-.23-1.69a9.14,9.14,0,0,0-.1-1.66A13.66,13.66,0,0,0,22.51,233.74ZM16.18,232c.07.31.13.63.19.95s-.18,1-.6.53-.32-1.12-.37-1.51c-.17-1.21.06-2.36,0-3.55A21.47,21.47,0,0,0,16.18,232Zm-3.74-6.53c-1.19-.07-2.34.15-3.55,0-.39-.06-1.21-.07-1.52-.38s.1-.66.54-.59.63.12.95.19A21.22,21.22,0,0,0,12.44,225.43ZM7.07,218.3a13.94,13.94,0,0,0,5.47,3.24,9,9,0,0,0-1.65-.11c-.57-.05-1.13-.15-1.69-.23a5.92,5.92,0,0,1-2.62-.88l.59-.42a.27.27,0,0,0,.1-.11.3.3,0,0,0,0-.16,5.39,5.39,0,0,0-.87-1.11,1.77,1.77,0,0,1-.55-1.25A5.58,5.58,0,0,1,7.07,218.3Z"/><path class="cls-1" d="M318.37,233.36H35a.44.44,0,0,1-.44-.43A26.81,26.81,0,0,0,7.74,206.14a.44.44,0,0,1-.44-.43V35a.44.44,0,0,1,.44-.44A26.81,26.81,0,0,0,34.52,7.74.44.44,0,0,1,35,7.3H318.37a.44.44,0,0,1,.44.44A26.81,26.81,0,0,0,345.6,34.52.44.44,0,0,1,346,35V205.71a.43.43,0,0,1-.43.43,26.82,26.82,0,0,0-26.79,26.79A.44.44,0,0,1,318.37,233.36Zm-283-.87H317.94a27.69,27.69,0,0,1,27.22-27.21V35.39A27.69,27.69,0,0,1,317.94,8.17H35.39A27.69,27.69,0,0,1,8.17,35.39V205.28A27.68,27.68,0,0,1,35.39,232.49Z"/></g></g></svg>