<svg xmlns="http://www.w3.org/2000/svg" viewBox="0 0 107.6 231.86"><defs><style>.cls-1{fill:#231815;}</style></defs><g id="レイヤー_2" data-name="レイヤー 2"><g id="レイヤー_1-2" data-name="レイヤー 1"><path class="cls-1" d="M99.22,1.58a.43.43,0,0,0,.37.22,1.8,1.8,0,0,0,.62-.19c1.37-.63,1.62-.73,2.08-.73a1,1,0,0,1,1.17,1,1.58,1.58,0,0,1-.6,1.14,10.82,10.82,0,0,1-2,1.43C98.93,5.6,98.46,6,98.46,6.27a.22.22,0,0,0,.22.25,1.58,1.58,0,0,0,.61-.2,18.12,18.12,0,0,1,3.33-1.4c.45-.15.78-.25,1.12-.33a4.23,4.23,0,0,1,.87-.14c.65,0,1.19.31,1.19.67a.39.39,0,0,1-.42.4,2.87,2.87,0,0,1-.68-.1,3.72,3.72,0,0,0-1-.14,2,2,0,0,0-2.2,2.14c0,1.32.54,1.87,2.07,2.1.25,0,.36.07.45.16a.42.42,0,0,1,.17.36.51.51,0,0,1-.56.47A3.06,3.06,0,0,1,102,9.92a2.36,2.36,0,0,1-1-2,3.55,3.55,0,0,1,.71-2.12,9.5,9.5,0,0,0-2,1.19,1.55,1.55,0,0,1-.91.4A.82.82,0,0,1,98,6.46c0-.52.57-1,1.79-1.87a15.22,15.22,0,0,0,2.65-2.24,1.19,1.19,0,0,0,.34-.7.27.27,0,0,0-.3-.27,3.94,3.94,0,0,0-1.81.89,1,1,0,0,1-.73.34.77.77,0,0,1-.79-.75.67.67,0,0,1,.06-.28S99.19,1.56,99.22,1.58Z"/><path class="cls-1" d="M99.31,19.67a1,1,0,0,0,0,.17c0,1,.77,1.51,2.14,1.51a8.11,8.11,0,0,0,2.08-.3A1.83,1.83,0,0,1,104,21c.27,0,.46.14.46.37,0,.53-1.08.93-2.45.93-1.77,0-2.91-.76-2.91-2a1.31,1.31,0,0,1,.18-.68S99.31,19.62,99.31,19.67Zm.81-6.19a.9.9,0,0,0,.85.38,7.47,7.47,0,0,0,.9-.07l.6,0c.68,0,1.17.33,1.17.82,0,.26-.1.38-.42.45-.09,0-.21.05-.42.08a3.66,3.66,0,0,0-.54.23l-1,.6s-.07,0,0,0c.43-.43.63-.63,1.14-1.08.13-.12.16-.15.16-.19s-.1-.09-.36-.09a3.8,3.8,0,0,0-.6.07l-.34,0a1,1,0,0,1-1-.49,1.09,1.09,0,0,1-.18-.57.38.38,0,0,1,0-.1S100.09,13.46,100.12,13.48Z"/><path class="cls-1" d="M98.34,25.68a1.81,1.81,0,0,1,1.12,1.67,4.36,4.36,0,0,1-.35,1.56,9.55,9.55,0,0,0-.66,3,2.48,2.48,0,0,0,.32,1.3c.44-.74.87-1.6,1.26-2.42,0,0,.07,0,.06,0-.12.41-.2.66-.43,1.45a5.58,5.58,0,0,0-.29,1.26,1,1,0,0,0,.1.4.69.69,0,0,1,.12.39.41.41,0,0,1-.4.45c-.73,0-1.33-1.29-1.33-2.88a15.22,15.22,0,0,1,.52-3.44,7.93,7.93,0,0,0,.25-1.63,1.6,1.6,0,0,0-.32-1.07S98.31,25.67,98.34,25.68Zm3.2,6.19a1.86,1.86,0,0,0,1.86,1.37,4.47,4.47,0,0,0,1.8-.4.85.85,0,0,1,.35-.09.54.54,0,0,1,.54.49c0,.43-1,.83-2,.83a2.61,2.61,0,0,1-2-.75,2.27,2.27,0,0,1-.54-1.45S101.53,31.84,101.54,31.87Zm.51-4.83a1.17,1.17,0,0,0,.78.29,3.24,3.24,0,0,0,.73-.12,6.19,6.19,0,0,0,.81-.35.9.9,0,0,1,.44-.16.59.59,0,0,1,.58.48c0,.41-1,.85-1.9.85a1.4,1.4,0,0,1-1.48-1S102,27,102.05,27Z"/><path class="cls-1" d="M98.43,37.72a2.1,2.1,0,0,1,1,1.62,4.75,4.75,0,0,1-.34,1.55,9.67,9.67,0,0,0-.71,3.2,2.91,2.91,0,0,0,.44,1.73,11.77,11.77,0,0,0,.69-1.17c.34-.66.48-.9.62-1.19,0,0,.07,0,.05,0-.2.69-.39,1.31-.57,1.87a2.74,2.74,0,0,0-.2.88,1.29,1.29,0,0,0,.11.45,1,1,0,0,1,.1.36.34.34,0,0,1-.36.36c-.78,0-1.49-1.58-1.49-3.29a14.91,14.91,0,0,1,.49-3.42,8.07,8.07,0,0,0,.34-1.95,2.26,2.26,0,0,0-.19-1S98.39,37.7,98.43,37.72Zm2.85,2.52a1.83,1.83,0,0,0,1.3.45,4.2,4.2,0,0,0,1.07-.17c0-.6,0-1.44,0-1.81s0-.41-.4-.49c-.12,0-.13,0-.13-.08a.27.27,0,0,1,.11-.2.57.57,0,0,1,.42-.17c.44,0,.8.25.8.6a1.37,1.37,0,0,1,0,.3l0,.28c.59.44.89.61,1.17.62l.21,0a.4.4,0,0,1,.37.41c0,.22-.14.42-.54.63a5.12,5.12,0,0,1-1.31.58,20.19,20.19,0,0,0,.3,3.4c1.26.45,2.1,1.11,2.1,1.65a.39.39,0,0,1-.36.42c-.13,0-.18,0-.55-.44a4,4,0,0,0-1.16-.86.82.82,0,0,1,0,.14,1.51,1.51,0,0,1-1.64,1.7,1.63,1.63,0,0,1-1.17-.36.76.76,0,0,1-.21-.44.45.45,0,0,0-.17-.28.45.45,0,0,1-.13-.33c0-.78.85-1.36,2-1.36a5.33,5.33,0,0,1,.56,0c-.1-1.15-.12-2-.15-3.16a2.84,2.84,0,0,1-.73.1,1.72,1.72,0,0,1-1.72-1.1S101.26,40.22,101.28,40.24Zm1.8,4.78c-.79,0-1.32.32-1.32.8s.41.68,1,.68c.77,0,1.13-.33,1.13-1.09a2.23,2.23,0,0,0,0-.3A3.12,3.12,0,0,0,103.08,45Zm2.12-5.08a8.06,8.06,0,0,0-.83-.86c0,.42,0,.83-.07,1.28A2.5,2.5,0,0,0,105.2,39.94Z"/><path class="cls-1" d="M102.61,52.59a4.08,4.08,0,0,0,1.49.54,1.12,1.12,0,0,0,.24,0h.15a.35.35,0,0,1,.4.33c0,.4-.56.82-1.6,1.21.14.27.21.4.36.65.56.85.62,1,.62,1.39a1,1,0,0,1-.9,1c-.13,0-.2,0-.3-.27s-.16-.23-.45-.36a7.31,7.31,0,0,0-.9-.36s0-.05,0-.05c.48.05.93.13,1.26.13s.42-.11.42-.35,0-.3-.28-.78c-.13-.25-.31-.63-.41-.85a8.48,8.48,0,0,1-2.27.37c-1,0-1.61-.46-1.71-1.19,0,0,0,0,0,0a1.4,1.4,0,0,0,1.3.58,8.07,8.07,0,0,0,2.38-.43,10.68,10.68,0,0,1-.42-1.56,3.76,3.76,0,0,1-1.16.21,1.38,1.38,0,0,1-1.47-1s0,0,0,0a1.49,1.49,0,0,0,1,.42,4.08,4.08,0,0,0,1.47-.39c0-.24,0-.31-.15-.95s-.26-.8-.65-.8a.64.64,0,0,0-.36.13s0,0,0,0a.86.86,0,0,1,.85-.54c.56,0,.85.37.88,1.19,0,.2,0,.36,0,.73a.89.89,0,0,1,.61-.22c.3,0,.46.1.46.33s-.38.49-1,.73Zm-2,4.19c-.64.35-.86.66-.86,1.16,0,.66.52,1.09,1.33,1.09a2,2,0,0,0,.77-.13.68.68,0,0,1,.31-.07c.31,0,.6.23.6.46s-.67.6-1.5.6c-1.26,0-2.14-.66-2.14-1.62,0-.78.51-1.3,1.48-1.54C100.58,56.73,100.6,56.76,100.56,56.78Zm3.23-3.23a13.31,13.31,0,0,0-1.15-.82A6,6,0,0,0,103,54,2.64,2.64,0,0,0,103.79,53.55Z"/><path class="cls-1" d="M99.35,65.93a.41.41,0,0,0,.32.18c.17,0,.35-.08,1-.44a18.87,18.87,0,0,1,1.84-.92,4.53,4.53,0,0,1,1.8-.4,2.5,2.5,0,0,1,2.45,2.56,2.84,2.84,0,0,1-2.22,2.72,7,7,0,0,1-2.27.31s-.06-.06,0-.07a6.16,6.16,0,0,0,2-.6,2.68,2.68,0,0,0,1.67-2.43c0-1.21-.68-2.07-1.64-2.07a3.6,3.6,0,0,0-2.09.9c-.44.29-.86.6-1.22.84a1.5,1.5,0,0,1-.84.39.82.82,0,0,1-.83-.77.88.88,0,0,1,0-.2S99.33,65.9,99.35,65.93Z"/><path class="cls-1" d="M100,74.18c.13.18.16.19.56.37.84.37,1.06.68,1.06,1.55,0,.09,0,.37,0,.68,0,.48,0,.88,0,1.1,0,1,.11,1.24.48,1.24a1.59,1.59,0,0,0,.82-.33.88.88,0,0,1,.5-.2.59.59,0,0,1,.61.53c0,.2-.12.35-.43.44a6.25,6.25,0,0,1-.69.18A4.51,4.51,0,0,0,102,80a4.88,4.88,0,0,0-1.74,1.1,1.54,1.54,0,0,0-.52,1.12c0,.78.64,1.21,1.79,1.21a6.73,6.73,0,0,0,1.72-.25,1.77,1.77,0,0,1,.49-.09c.3,0,.52.16.52.39,0,.44-1,.76-2.25.76-1.75,0-2.72-.7-2.72-2,0-1,.64-1.84,2.13-2.77a1.18,1.18,0,0,1-.63-1.24c0-.2,0-.55,0-1,.06-.64.09-.92.09-1.23a1.41,1.41,0,0,0-.07-.57c-.06-.13-.18-.21-.39-.37a1,1,0,0,1-.5-.6.89.89,0,0,1,0-.33S100,74.15,100,74.18Z"/><path class="cls-1" d="M106.52,87.24a1.76,1.76,0,0,1,.78,1.34.62.62,0,0,1-.62.66c-.33,0-.46-.23-.59-.51a4,4,0,0,0-1.78-2.14.17.17,0,0,1-.06-.14c0-.07,0-.12.14-.12A4.7,4.7,0,0,1,106.52,87.24Z"/><path class="cls-1" d="M99.16,108.7c0,.29-.19.4-.58.4s-.39-.09-.39-.33c0-.62.07-1.5.07-5.51,0-2.2,0-3.27-.07-4.24a6.31,6.31,0,0,1,1.11.54h5c.42-.44.48-.48.55-.48s.17,0,.6.4c.19.17.23.24.23.31s-.06.18-.34.36v2.39c0,3.85.06,5.53.06,6,0,.29-.19.41-.59.41s-.39-.09-.39-.33v-.56H99.16Zm5.23-8.84H99.16v3.73h5.23Zm-5.23,8h5.23v-3.92H99.16Z"/><path class="cls-1" d="M101.18,118.71c0-1.34,0-2.7.06-4a12.06,12.06,0,0,1-5,5c-.07,0-.19-.11-.12-.16a13.5,13.5,0,0,0,4.57-5.79H97.63a6.51,6.51,0,0,0-.94.07l-.12-.46a5.8,5.8,0,0,0,1.05.09h3.56v-.45a18.6,18.6,0,0,0-.07-2.22c1.12.11,1.35.2,1.35.35s-.08.18-.4.34v2h3.23c.5-.65.6-.71.67-.71s.17.06.74.53c.26.21.33.28.33.36s0,.12-.17.12h-4.67a9.14,9.14,0,0,0,2,2.9,8.81,8.81,0,0,0,3.26,2s0,.1,0,.12c-.33.08-.48.21-.66.67,0,.12-.1.18-.18.18a1.22,1.22,0,0,1-.51-.23,10.64,10.64,0,0,1-2.42-2.23,12.49,12.49,0,0,1-1.69-3.16c0,1.6.06,3.21.08,4.8h1c.44-.56.54-.62.61-.62s.16.06.66.48c.22.18.28.26.28.33s0,.11-.16.11H102.1c0,1.38,0,2.08,0,2.35s-.21.41-.6.41-.41-.11-.41-.35,0-1,0-2.41H99.64a6.92,6.92,0,0,0-.85.07l-.12-.45a4.4,4.4,0,0,0,.92.08Z"/><path class="cls-1" d="M101.27,133.25a6.38,6.38,0,0,0,2.36-1,4,4,0,0,0,1.88-3.55,3.54,3.54,0,0,0-3.61-3.82,3,3,0,0,0-.39,0,3.69,3.69,0,0,1,.72,2.21,5.68,5.68,0,0,1-2,4.32,2.35,2.35,0,0,1-1.31.55.51.51,0,0,1-.55-.44c-.08-.33-.11-.34-.55-.52s-.72-.91-.72-1.82a4.78,4.78,0,0,1,4.86-4.68,4.31,4.31,0,0,1,4.56,4.29c0,2.53-2,4.25-4.74,4.46l-.47,0C101.21,133.35,101.2,133.27,101.27,133.25Zm-3.4-4c0,1.08.46,1.86,1.1,1.86a2,2,0,0,0,1.35-.92,5.67,5.67,0,0,0,1.34-3.56,3.09,3.09,0,0,0-.38-1.63A4.17,4.17,0,0,0,97.87,129.22Z"/><path class="cls-1" d="M101.9,142.81a5.25,5.25,0,0,0,2.41,1.82,9.61,9.61,0,0,0,3,.54s0,.12,0,.13a1.05,1.05,0,0,0-.7.79.18.18,0,0,1-.19.14,3.17,3.17,0,0,1-.59-.11,8.57,8.57,0,0,1-2.07-.89,5.67,5.67,0,0,1-2.1-2.31,3.74,3.74,0,0,1-1.31,1.93,7.36,7.36,0,0,1-4,1.44c-.09,0-.12-.18,0-.21a6.71,6.71,0,0,0,3.54-1.81,4.14,4.14,0,0,0,.89-1.46H97.5a5.88,5.88,0,0,0-.92.07l-.12-.46a6.24,6.24,0,0,0,1,.09h3.38a5.29,5.29,0,0,0,.15-1.21c1.18.16,1.32.2,1.32.36s-.08.2-.42.31c0,.18-.06.35-.11.54h3.64c.5-.59.58-.64.65-.64s.17,0,.72.48c.23.18.28.27.28.35s0,.11-.16.11Zm3.53-2c.5-.59.6-.65.67-.65s.17.06.7.49c.23.19.28.27.28.34s0,.12-.16.12H97.47a5.15,5.15,0,0,0-.94.07l-.12-.47a5.51,5.51,0,0,0,1,.1h3.74v-1.51H98.62a4.08,4.08,0,0,0-.84.07l-.12-.47a4.61,4.61,0,0,0,.93.1h2.59v-1.41H97.93a4.27,4.27,0,0,0-.85.08l-.13-.47a4.7,4.7,0,0,0,1,.09h4.67a12.91,12.91,0,0,0,.66-1.27,3.35,3.35,0,0,0,.22-.68c.94.37,1.23.53,1.23.66s-.08.18-.52.2a8.37,8.37,0,0,1-1.17,1.09h2.09c.51-.55.59-.61.66-.61s.17.06.67.45c.25.2.3.27.3.34s0,.12-.16.12h-4.49V139h2.28c.47-.54.56-.6.64-.6s.16.06.67.44c.21.18.26.27.26.34s0,.12-.15.12h-3.7v1.51Zm-5.66-4a2.74,2.74,0,0,0-.74-1.28s0-.11.07-.09c1,.21,1.59.73,1.59,1.23a.48.48,0,0,1-.52.52C99.94,137.15,99.85,137.06,99.77,136.77Z"/><path class="cls-1" d="M102.66,150.78a6.5,6.5,0,0,0,.35-.89,3.51,3.51,0,0,0,.16-.66h-5a6,6,0,0,0-.91.07l-.13-.48a4.39,4.39,0,0,0,1,.11h3v-.53a5.53,5.53,0,0,0-.08-.84c1.22.14,1.35.23,1.35.38s-.1.19-.41.31v.68h2.77c.5-.61.59-.66.67-.66s.17,0,.7.49c.24.22.29.29.29.36s0,.11-.16.11h-3.12c.78.24,1.16.42,1.16.54s-.13.19-.51.22a8.1,8.1,0,0,1-.81.79h2.45c.53-.61.61-.67.69-.67s.16.06.7.5c.24.2.3.28.3.36s0,.11-.16.11H97.49a6.91,6.91,0,0,0-1,.07l-.12-.46a7.26,7.26,0,0,0,1.09.09h2.39c-.08-.06-.12-.17-.17-.39a1.86,1.86,0,0,0-.5-1s0-.09.09-.08c.84.2,1.25.59,1.25,1a.51.51,0,0,1-.27.46Zm-6.13,6.87c0-.23.11-.38.4-.52a1.75,1.75,0,0,0,1-1.39c0-.06.12-.05.13,0a3.53,3.53,0,0,1,0,.56c0,1-.5,1.83-1.11,1.83A.46.46,0,0,1,96.53,157.65Zm2.59-2.82c0,.25-.18.39-.49.39s-.4-.11-.4-.33,0-.6,0-2a10.55,10.55,0,0,0-.07-1.47,6.43,6.43,0,0,1,1,.48h4.93c.38-.4.44-.43.52-.43s.15,0,.55.36c.19.18.25.24.25.31s-.07.17-.35.33v.56c0,1.1,0,1.6,0,1.75s-.19.41-.53.41-.35-.11-.35-.34v-.08H99.12Zm5.19-2.6H99.12v1h5.19Zm-5.19,2.27h5.19v-1H99.12Zm5.19,2.6c0,.17,0,.21.22.31a.31.31,0,0,1,.18.29c0,.24-.23.41-.65.51a12,12,0,0,1-2.58.16c-1.78,0-2.3-.2-2.3-1.07,0-.15,0-.37,0-.89a7.55,7.55,0,0,0,0-.95c1.19.14,1.28.17,1.28.32s-.06.18-.39.31v1.06c0,.4.17.48,1.48.48s1.88,0,2.1-.21.29-.32.55-1.14c0-.06.14,0,.14,0Zm-2.37-.77a3.26,3.26,0,0,0-.92-1.08s0-.11.06-.09c1.1.24,1.75.68,1.75,1.18a.44.44,0,0,1-.41.49C102.19,156.83,102.13,156.76,101.94,156.33Zm4,1.14a3.41,3.41,0,0,0-1.06-1.63s0-.12.08-.11c1.2.38,1.94,1.06,1.94,1.7a.54.54,0,0,1-.49.6C106.14,158,106.07,158,105.91,157.47Z"/><path class="cls-1" d="M96.22,162.29a3.44,3.44,0,0,0,.81.1h1.64c.37-.49.45-.55.52-.55s.18.06.61.42c.17.16.23.25.23.33s0,.1-.15.1H97a3.85,3.85,0,0,0-.69.08Zm.37-1.61a3.58,3.58,0,0,0,.83.08h1.13c.34-.44.44-.5.51-.5s.17.06.6.4c.17.14.22.22.22.3s0,.1-.16.1h-2.3a5.27,5.27,0,0,0-.71.07Zm0,4.78a4.44,4.44,0,0,0,.82.09h1c.34-.45.42-.49.49-.49s.17,0,.59.37c.16.13.21.23.21.3s0,.12-.16.12H97.43a3.28,3.28,0,0,0-.7.07Zm0-1.55a3.38,3.38,0,0,0,.8.09h1c.34-.44.43-.5.5-.5s.17.06.6.42c.14.12.19.2.19.27s0,.11-.15.11H97.45a5,5,0,0,0-.68.07Zm.85,6.58c0,.23-.14.35-.45.35s-.35-.07-.35-.29,0-.7,0-2.12a13.25,13.25,0,0,0-.08-1.69,4.49,4.49,0,0,1,.92.42h1.09c.31-.34.37-.39.44-.39s.16,0,.46.29.2.23.2.3,0,.14-.29.31v.64c0,1.24,0,1.88,0,2.06s-.15.34-.45.34-.32-.09-.32-.28v-.38H97.5Zm1.25-3H97.5v2.29h1.25Zm5.65-3.17c-.05-.84-.07-1.79-.07-3a7.53,7.53,0,0,0-.06-1.21c1,.09,1.23.18,1.23.31s-.07.17-.39.31c0,1.38,0,2.57,0,3.61h.77c.43-.54.52-.6.6-.6s.17.06.64.47c.2.17.26.24.26.31s0,.12-.16.12h-2.08c0,.41.06.79.09,1.15a10.64,10.64,0,0,0,.24,1.27l.14-.3a6.09,6.09,0,0,0,.45-1.51c.81.25,1,.36,1,.47s-.09.15-.35.2a9.88,9.88,0,0,1-1,2,6.81,6.81,0,0,0,.61,1.12c.21.3.37.48.45.48s.24-.38.54-1.3c0-.05.13,0,.12,0-.11.82-.18,1.36-.18,1.48a.48.48,0,0,0,.14.35.49.49,0,0,1,.11.31.37.37,0,0,1-.36.41c-.28,0-.7-.33-1.1-.84a8.29,8.29,0,0,1-.82-1.33,7.49,7.49,0,0,1-2.91,2.22c-.07,0-.18-.12-.11-.17A8.81,8.81,0,0,0,105,167.9a9.81,9.81,0,0,1-.47-2c-.06-.43-.09-.85-.13-1.29h-3.67a4.51,4.51,0,0,0-.78.07l-.12-.45a4.67,4.67,0,0,0,.89.08h1.63a8.35,8.35,0,0,0,.36-1.21,4.23,4.23,0,0,0,.13-.89c1,.3,1.12.36,1.12.49s-.09.15-.36.18a11.53,11.53,0,0,1-1,1.43ZM103,161.66c.32-.42.41-.47.48-.47s.16.05.55.36c.15.14.21.22.21.29s0,.12-.15.12h-3.2a3.43,3.43,0,0,0-.73.07l-.13-.45a4.32,4.32,0,0,0,.84.08h.76v-.87a4.64,4.64,0,0,0,0-.78c1.09.11,1.21.19,1.21.31s-.08.16-.37.29v1Zm-1.8,7.82c0,.25-.15.35-.43.35s-.35-.08-.35-.29.06-.71.06-2.18a18,18,0,0,0-.07-2.11,4,4,0,0,1,.87.39h1.48c.28-.32.35-.37.42-.37s.14,0,.45.3.21.21.21.28,0,.14-.27.3v.73c0,1.39,0,2.06,0,2.27s-.16.36-.43.36-.34-.09-.34-.28v0h-1.64Zm-.27-6a2.57,2.57,0,0,0-.33-1.22s0-.09.07-.06c.68.39,1.08.87,1.08,1.29a.51.51,0,0,1-.46.52C101,164.05,100.94,163.91,100.94,163.52Zm1.91,2.42h-1.64v1.26h1.64Zm-1.64,2.94h1.64V167.5h-1.64Zm4.93-6.26a3.1,3.1,0,0,0-.53-1.31s0-.08.07-.07a1.77,1.77,0,0,1,1.28,1.37.5.5,0,0,1-.44.54C106.28,163.15,106.21,163.05,106.14,162.62Z"/><path class="cls-1" d="M97.08,176.28c.12.26.24.35.47.35a3.85,3.85,0,0,0,1.42-.44c-.11-.21-.2-.37-.4-.69a1.09,1.09,0,0,1-.22-.64.94.94,0,0,1,1-.9,6.44,6.44,0,0,1,1.9.63,2.27,2.27,0,0,0,.83.24c.2,0,.32-.09.32-.26s-.41-.69-1-.91c0,0,0-.07,0-.07s.36,0,.45,0c.81.12,1.21.43,1.36,1a3.07,3.07,0,0,1,.57-.05c1.68,0,2.85,1,2.85,2.39s-1.18,2.38-2.9,2.38c-1.37,0-2.15-.56-2.15-1.55a1.38,1.38,0,0,1,.19-.71s.07,0,.07,0a2.09,2.09,0,0,0,0,.31c0,.71.6,1.12,1.58,1.12,1.51,0,2.39-.65,2.39-1.78s-.94-1.79-2.16-1.79a3.31,3.31,0,0,0-.46,0,.67.67,0,0,1-.67.46,1.19,1.19,0,0,1-.58-.15,5.58,5.58,0,0,0-1.06.56c-.48.26-.69.38-1,.58a25.29,25.29,0,0,1,1.33,3.81,6.82,6.82,0,0,1,.3,1.61c0,.48-.28.86-.63.86s-.37-.14-.38-.42,0-.36,0-.6a14.11,14.11,0,0,0-1.21-4.91c-1,.54-1.31.66-1.68.66a.7.7,0,0,1-.72-.71,1.06,1.06,0,0,1,.15-.51S97.07,176.25,97.08,176.28Zm4.45-1.19c-.17-.08-.2-.11-.68-.34a3.65,3.65,0,0,0-1.2-.38c-.34,0-.52.13-.52.38a1.37,1.37,0,0,0,.23.66c.1.21.16.32.27.54C100.27,175.67,100.88,175.37,101.53,175.09Z"/><path class="cls-1" d="M99.16,194.8c0,.29-.19.4-.58.4s-.39-.09-.39-.33c0-.62.07-1.49.07-5.51,0-2.2,0-3.27-.07-4.24a6.31,6.31,0,0,1,1.11.54h5c.42-.44.48-.48.55-.48s.17,0,.6.4c.19.17.23.24.23.31s-.06.18-.34.36v2.39c0,3.85.06,5.53.06,6.05,0,.29-.19.41-.59.41s-.39-.09-.39-.33v-.56H99.16Zm5.23-8.84H99.16v3.73h5.23Zm-5.23,7.95h5.23V190H99.16Z"/><path class="cls-1" d="M97.84,199.44c0,1-.51,1.57-1,1.57a.47.47,0,0,1-.48-.48.5.5,0,0,1,.33-.49,1.55,1.55,0,0,0,.9-1.38s.12,0,.13,0a4.37,4.37,0,0,1,.08.48h3.44v-1.29a7.38,7.38,0,0,0,0-1c1.19.13,1.33.22,1.33.35s-.08.18-.41.31v1.67h1.08a9.15,9.15,0,0,0,.71-1.17,4.93,4.93,0,0,0,.34-.88c.9.33,1.16.48,1.16.63s-.14.21-.5.21a8.18,8.18,0,0,1-1.32,1.21h2.06c.44-.47.5-.52.59-.52s.14,0,.68.49c.23.23.28.29.28.38s-.12.21-.43.21-.21.05-.35.18a6.28,6.28,0,0,1-.91.72s-.15,0-.12-.08a5.62,5.62,0,0,0,.38-1.08Zm4.23,4.54h2.75c.38-.42.44-.46.51-.46s.16,0,.56.37c.18.17.22.24.22.32s-.06.17-.33.34v.4c0,.59,0,1,0,1.28a.86.86,0,0,1-.37.79,1.23,1.23,0,0,1-.67.17c-.14,0-.18-.05-.22-.22s-.19-.47-1.06-.61c-.07,0-.07-.17,0-.17.57,0,.92.05,1.25.05.13,0,.18-.05.18-.19v-1.77h-2.83v.59c0,1.24,0,2.35,0,2.69s-.19.42-.55.42-.39-.11-.39-.36,0-.82,0-2v-1.38H98.57v.91c0,1,0,1.33,0,1.59s-.15.43-.53.43-.38-.11-.38-.33,0-.69,0-1.64c0-.8,0-1.26,0-1.79a8.46,8.46,0,0,1,1,.53h2.54v-1.29H99.59v.1c0,.27-.17.39-.49.39s-.35-.11-.35-.3,0-.45,0-1.61c0-.53,0-.79,0-1.23a8.2,8.2,0,0,1,.94.46h4.06c.33-.38.39-.42.47-.42s.16,0,.52.34c.18.15.23.23.23.3s-.06.15-.31.31v.38c0,.89,0,1.26,0,1.37,0,.27-.16.37-.49.37s-.36-.09-.36-.33v-.13h-1.75Zm-2.9-5.54a2.88,2.88,0,0,0-.64-1.2s0-.09.08-.08c1,.3,1.47.77,1.47,1.26a.51.51,0,0,1-.49.55C99.34,199,99.25,198.84,99.17,198.44Zm4.65,2.35H99.59v1.59h4.23Z"/><path class="cls-1" d="M101.27,219.35a6.38,6.38,0,0,0,2.36-1,4,4,0,0,0,1.88-3.55A3.54,3.54,0,0,0,101.9,211a3,3,0,0,0-.39,0,3.69,3.69,0,0,1,.72,2.21,5.68,5.68,0,0,1-2,4.32,2.35,2.35,0,0,1-1.31.55.51.51,0,0,1-.55-.44c-.08-.33-.11-.34-.55-.52s-.72-.91-.72-1.82a4.78,4.78,0,0,1,4.86-4.68,4.31,4.31,0,0,1,4.56,4.29c0,2.53-2,4.25-4.74,4.46l-.47,0C101.21,219.45,101.2,219.37,101.27,219.35Zm-3.4-4c0,1.08.46,1.86,1.1,1.86a2,2,0,0,0,1.35-.92,5.67,5.67,0,0,0,1.34-3.56,3.09,3.09,0,0,0-.38-1.63A4.17,4.17,0,0,0,97.87,215.32Z"/><path class="cls-1" d="M72,4.64a.52.52,0,0,1,.23-.44A1.87,1.87,0,0,0,73,2.57c0-.06.14-.08.15,0a5.32,5.32,0,0,1,.09,1c0,1-.3,1.57-.79,1.57A.44.44,0,0,1,72,4.64Zm2.55-1.07c0,4.6,0,6.53,0,7.14,0,.28-.18.38-.51.38s-.41-.08-.41-.33.06-2.18.06-6.67c0-2.74,0-3.56-.06-4.09C74.83.14,75,.19,75,.34s-.07.18-.39.32Zm.6.22a2.77,2.77,0,0,0-.33-1.27s.08-.1.11-.07a1.87,1.87,0,0,1,1,1.35c0,.31-.18.54-.43.54S75.16,4.21,75.16,3.79Zm-.09,7A7.44,7.44,0,0,0,77,9.5a6,6,0,0,0,.56-.67c.81.49,1,.61,1,.72s-.12.2-.52.13A8.32,8.32,0,0,1,75.12,11C75.05,11,75,10.87,75.07,10.83Zm.08-2.67a4.52,4.52,0,0,0,.94.09h5.75c.49-.56.57-.62.65-.62s.16.06.67.47c.22.19.28.27.28.34s0,.11-.15.11H76.1a6.61,6.61,0,0,0-.83.08Zm2-.74c0,.27-.18.38-.48.38s-.36-.1-.36-.32,0-1,0-3c0-1,0-1.47-.06-2a6.8,6.8,0,0,1,1,.44h1.35V1.8h-2.2a5.22,5.22,0,0,0-.85.06l-.12-.44a5.3,5.3,0,0,0,1,.08h2.22V1.15A10,10,0,0,0,78.58,0c1.13.12,1.28.22,1.28.34s-.09.18-.4.3V1.5H81.6c.45-.55.54-.61.62-.61s.17.06.69.48c.21.17.27.24.27.31s-.05.12-.15.12H79.46V2.9H81c.34-.36.4-.41.48-.41s.15,0,.51.33c.16.13.2.21.2.29s0,.15-.29.31v1c0,1.71,0,2.67,0,2.93s-.16.39-.49.39-.36-.09-.36-.32V7.33H77.2ZM81.11,3.2H77.2V4.27h3.91ZM77.2,5.64h3.91V4.57H77.2ZM77.2,7h3.91V5.94H77.2Zm4.65,3.6a5.18,5.18,0,0,0-2-1.47c-.05,0,0-.11,0-.11,1.77.2,2.8.75,2.8,1.38,0,.27-.15.5-.38.5S82,10.85,81.85,10.63Z"/><path class="cls-1" d="M80.19,16.51a.34.34,0,0,1,.38.35c0,.24-.21.44-.61.64a6.38,6.38,0,0,1-1.79.57,16.83,16.83,0,0,0,.29,2.13c1.35.43,2.47,1.32,2.47,1.95a.36.36,0,0,1-.35.38c-.17,0-.23-.05-.53-.4A3.32,3.32,0,0,0,78.56,21a1.87,1.87,0,0,1,0,.42A1.61,1.61,0,0,1,76.79,23c-.75,0-1.27-.23-1.39-.65-.06-.21-.06-.21-.25-.33a.63.63,0,0,1-.26-.51c0-.84,1-1.48,2.26-1.48a2.73,2.73,0,0,1,.61.06c-.11-.82-.14-1.26-.18-1.94a7.83,7.83,0,0,1-1,.08c-1.14,0-1.61-.34-1.85-1.35,0,0,0,0,0,0a1.48,1.48,0,0,0,1.45.72,7.51,7.51,0,0,0,1.32-.13c0-.66,0-1.13.06-1.71a3.31,3.31,0,0,1-.62,0,1.27,1.27,0,0,1-1.21-1s0-.05,0,0a1.09,1.09,0,0,0,1,.41,3.23,3.23,0,0,0,.87-.1c0-.43.09-1,.09-1.2,0-.57-.16-.89-.74-.92,0,0,0,0,0-.06a.71.71,0,0,1,.59-.29,1,1,0,0,1,1,1,2.47,2.47,0,0,1-.12.73l-.14.63a5.67,5.67,0,0,0,.62-.25.76.76,0,0,1,.42-.14.32.32,0,0,1,.36.32c0,.21-.16.37-.51.54a4.38,4.38,0,0,1-1,.33c0,.48-.07.92-.07,1.23s0,.3,0,.44a4.28,4.28,0,0,0,1.29-.44c-.34-.4-.55-.63-.87-1,0,0,0-.08,0-.05.9.62,1,.67,1.33.67ZM77,20.68c-1,0-1.62.36-1.62.93,0,.4.48.69,1.16.69.83,0,1.26-.38,1.26-1.13,0-.12,0-.24,0-.38A3.39,3.39,0,0,0,77,20.68Z"/><path class="cls-1" d="M74.77,25.43a.73.73,0,0,1,.39-.11,1.43,1.43,0,0,1,1.35,1.52,10.25,10.25,0,0,1-.25,1.79,21.9,21.9,0,0,0-.48,3.55,1.8,1.8,0,0,0,2,2,4.44,4.44,0,0,0,4-3.16c0-.05.06,0,.06,0-.4,2.42-2,4-4.11,4C76,35.07,75.13,34,75.13,32a29.28,29.28,0,0,1,.23-3.1,20.33,20.33,0,0,0,.13-2.25c0-.69-.18-1-.72-1.18C74.75,25.46,74.75,25.44,74.77,25.43Z"/><path class="cls-1" d="M73.08,41c.12.26.24.35.47.35A3.85,3.85,0,0,0,75,40.89c-.11-.21-.2-.37-.4-.69a1.09,1.09,0,0,1-.22-.64.94.94,0,0,1,1-.9,6.44,6.44,0,0,1,1.9.63,2.27,2.27,0,0,0,.83.24c.2,0,.32-.09.32-.26,0-.32-.41-.69-1-.91,0,0,0-.07,0-.07s.36,0,.45.05c.81.12,1.21.43,1.36,1a3.07,3.07,0,0,1,.57-.05c1.68,0,2.85,1,2.85,2.39s-1.18,2.38-2.9,2.38c-1.37,0-2.15-.56-2.15-1.55a1.36,1.36,0,0,1,.19-.71s.07,0,.07,0a2,2,0,0,0,0,.31c0,.71.6,1.12,1.58,1.12,1.51,0,2.39-.65,2.39-1.78s-.94-1.79-2.16-1.79a3.31,3.31,0,0,0-.46.05.67.67,0,0,1-.67.46,1.19,1.19,0,0,1-.58-.15,5.58,5.58,0,0,0-1.06.56c-.48.26-.69.38-1,.58A25.29,25.29,0,0,1,77.2,45a6.73,6.73,0,0,1,.3,1.61c0,.48-.28.86-.63.86s-.37-.14-.38-.42,0-.36,0-.6a14.11,14.11,0,0,0-1.21-4.91c-1,.54-1.31.66-1.68.66a.7.7,0,0,1-.72-.71A1.06,1.06,0,0,1,73,41S73.07,41,73.08,41Zm4.45-1.19-.68-.34a3.65,3.65,0,0,0-1.2-.38c-.34,0-.52.13-.52.38a1.37,1.37,0,0,0,.23.66c.1.21.16.32.27.54C76.27,40.37,76.88,40.07,77.53,39.79Z"/><path class="cls-1" d="M73.57,53.17a1,1,0,0,0,.89.48,4,4,0,0,0,1-.16,10,10,0,0,0,.29-2c0-.22,0-.32-.06-.4s-.18-.06-.37-.06-.1,0-.1-.07a.62.62,0,0,1,.13-.32.66.66,0,0,1,.54-.28c.39,0,.59.28.59.83a12.17,12.17,0,0,1-.32,2.21,4.19,4.19,0,0,1,1.16-.21c.89,0,1.3.67,1.3,2.08a5.48,5.48,0,0,1-.93,3.22,2.34,2.34,0,0,1-1.63,1c-.43,0-.59-.16-.89-1.32-.08-.4-.16-.67-.27-1.1-.48,1-.84,1.47-1.15,1.47s-.39-.25-.39-.59,0-.3.36-.6a7.91,7.91,0,0,0,1.59-3.11,2.58,2.58,0,0,1-.89.22,1,1,0,0,1-.89-1.06.47.47,0,0,1,.05-.22S73.56,53.15,73.57,53.17ZM75,56.86a8,8,0,0,0,.54,1.1c.24.38.4.51.59.51.9,0,1.74-1.7,1.74-3.53,0-.93-.14-1.33-.54-1.33A4.05,4.05,0,0,0,76,54,13.9,13.9,0,0,1,75,56.86Zm4.75-3.68a1.54,1.54,0,0,1,1.13-.47,2.1,2.1,0,0,1,1.91,2c0,.59-.33,1-.75,1-.14,0-.19,0-.34-.24a.85.85,0,0,0-.52-.26,6.52,6.52,0,0,1-.74-.16s0,0,0,0c1.2-.08,1.47-.16,1.47-.5a1.65,1.65,0,0,0-1.44-1.47,1.86,1.86,0,0,0-.7.17S79.68,53.21,79.7,53.18Z"/><path class="cls-1" d="M77.56,63.43a.35.35,0,0,1,.4.37c0,.41-.74.89-2,1.33-.11.5-.19.88-.3,1.36s-.24,1-.4,1.7c-.29,1.11-.35,1.23-.63,1.23s-.43-.28-.43-.64a.94.94,0,0,1,.13-.49,8.17,8.17,0,0,0,.39-1,20.71,20.71,0,0,0,.56-2,5.09,5.09,0,0,1-1.3.2.68.68,0,0,1-.73-.76,2.07,2.07,0,0,1,.07-.45s0,0,0,0c.1.35.23.47.57.47a5.7,5.7,0,0,0,1.51-.3,11.68,11.68,0,0,0,.25-1.69.32.32,0,0,0-.24-.37c-.11,0-.16-.07-.16-.11a.34.34,0,0,1,.17-.25.65.65,0,0,1,.37-.12.72.72,0,0,1,.73.61c0,.2-.08.26-.12.43a1.57,1.57,0,0,0,.92.48Zm1.76,2.23a1.3,1.3,0,0,0-.43,1,6.08,6.08,0,0,0,.26,1.46c.2.8.28,1.16.35,1.59,1.07.42,1.81,1.1,1.81,1.64,0,.25-.14.43-.36.43s-.22,0-.47-.42a2.46,2.46,0,0,0-1-.9,1.64,1.64,0,0,1-1.86,1.61,1.79,1.79,0,0,1-1.28-.43.56.56,0,0,1-.16-.4.24.24,0,0,0-.11-.19.35.35,0,0,1-.16-.31c0-.72.91-1.28,2.1-1.28a2.84,2.84,0,0,1,.7.09c0-.37-.09-.62-.22-1.38a5.71,5.71,0,0,1-.12-1,1.65,1.65,0,0,1,.88-1.54S79.35,65.63,79.32,65.66ZM77,63.84a5.11,5.11,0,0,0-.67-.76c-.1.42-.18.77-.27,1.2A4.17,4.17,0,0,0,77,63.84Zm.68,6.25c-.79,0-1.33.29-1.33.72s.42.63,1.06.63a1.32,1.32,0,0,0,1.18-.61,1.2,1.2,0,0,0,.13-.59A3.19,3.19,0,0,0,77.71,70.09Zm1.9-5.81A2.11,2.11,0,0,1,81,63.79c.8,0,1.42.46,1.42,1a.44.44,0,0,1-.46.49.7.7,0,0,1-.39-.13.68.68,0,0,0-.35-.07,8.29,8.29,0,0,0-.85.06s-.06-.06,0-.07c.43-.14.82-.28,1.12-.41a1.14,1.14,0,0,0-1.11-.47,1.8,1.8,0,0,0-.71.12S79.57,64.31,79.61,64.28Z"/><path class="cls-1" d="M81.2,83.81c.63-.72.71-.78.78-.78s.17.06.78.58c.31.24.36.32.36.4s0,.1-.16.1h-9.3a6.41,6.41,0,0,0-1.06.09l-.12-.47a7,7,0,0,0,1.18.08h3.67V80.49H75.05a5.52,5.52,0,0,0-1,.07L74,80.11a6.68,6.68,0,0,0,1,.08h2.3V77.36H74.89a7.68,7.68,0,0,1-2.17,2.58c-.07,0-.2-.07-.14-.13a10.41,10.41,0,0,0,2-3.76,8.75,8.75,0,0,0,.26-1.23c1,.3,1.29.41,1.29.57s-.12.18-.47.27a12,12,0,0,1-.56,1.4h2.28v-.63A23,23,0,0,0,77.26,74c1.27.12,1.41.23,1.41.37s-.09.21-.44.34v2.37H80.6c.58-.69.66-.77.73-.77s.16.08.76.57c.28.23.32.31.32.39s0,.11-.15.11h-4v2.83H80.3c.57-.68.65-.74.72-.74s.17.06.75.55c.26.22.31.3.31.37s0,.12-.16.12H78.23v3.32Z"/><path class="cls-1" d="M73.2,96.33c0-.42.09-.79.09-1.22,0-.69-.16-.89-1-1.11-.08,0,0-.18,0-.16a4.24,4.24,0,0,0,.52.06c.22,0,.39-.06.57-.39a40.93,40.93,0,0,0,1.94-4.21c0-.06.17,0,.15.06-.53,1.67-1,2.93-1.48,4.38a2.81,2.81,0,0,0-.15.76c0,.52.42,1.12.42,1.69s-.27.78-.61.78S73.2,96.75,73.2,96.33Zm.07-5.78a2.55,2.55,0,0,0-1-1.18s0-.12.06-.1c1.12.15,1.84.66,1.84,1.23,0,.33-.19.55-.46.55S73.43,90.91,73.27,90.55Zm.89-2.75a3.06,3.06,0,0,0-1-1.21s0-.09.06-.09c1.15.14,1.88.67,1.88,1.27,0,.33-.2.51-.42.51S74.33,88.17,74.16,87.8ZM77,96.65c0,.27-.18.39-.53.39s-.36-.09-.36-.3,0-.76,0-2.38a14.51,14.51,0,0,0-.08-2,5.68,5.68,0,0,1,1.05.51h1.5V90.42H76.48a5,5,0,0,0-.83.07L75.53,90a4,4,0,0,0,1,.09h2.17V87.88a24.11,24.11,0,0,1-2.8.27c-.08,0-.1-.17,0-.18a18.12,18.12,0,0,0,4.47-1.23,4.15,4.15,0,0,0,1.06-.64c.69.55.89.74.89.85s-.12.19-.58.09a14,14,0,0,1-2.16.67v2.41h2.1c.53-.64.61-.7.68-.7s.16.06.71.53c.24.2.29.28.29.35s0,.12-.16.12H79.51v2.46h1.62c.4-.42.46-.47.53-.47s.14,0,.54.36c.18.17.22.24.22.31s0,.13-.33.35v.73c0,1.47,0,2.22,0,2.43S82,97,81.61,97s-.38-.11-.38-.31v-.35H77Zm4.2-3.47H77V96h4.2Z"/><path class="cls-1" d="M73.38,102.42a1,1,0,0,0,.89.48,4,4,0,0,0,1-.16,10,10,0,0,0,.29-2c0-.23,0-.32-.06-.41s-.18-.06-.38-.06-.09,0-.09-.07a.63.63,0,0,1,.13-.31.68.68,0,0,1,.54-.29c.38,0,.59.29.59.84a11.62,11.62,0,0,1-.33,2.21,4.38,4.38,0,0,1,1.17-.22c.89,0,1.29.67,1.29,2.09a5.43,5.43,0,0,1-.92,3.21,2.32,2.32,0,0,1-1.63,1c-.43,0-.59-.16-.89-1.32-.08-.4-.17-.68-.27-1.11-.48,1-.84,1.48-1.16,1.48s-.38-.25-.38-.59,0-.3.36-.6a7.77,7.77,0,0,0,1.58-3.12,2.62,2.62,0,0,1-.88.23,1.06,1.06,0,0,1-.89-1.07.43.43,0,0,1,0-.21S73.37,102.39,73.38,102.42Zm1.38,3.69a7.9,7.9,0,0,0,.54,1.09c.24.39.4.52.59.52.9,0,1.74-1.7,1.74-3.53,0-.93-.15-1.33-.54-1.33a4.25,4.25,0,0,0-1.29.37A13.27,13.27,0,0,1,74.76,106.11Zm4.75-3.68a1.52,1.52,0,0,1,1.13-.47,2.09,2.09,0,0,1,1.9,2c0,.59-.32,1-.74,1-.14,0-.19,0-.35-.24a.79.79,0,0,0-.51-.26c-.27,0-.48-.09-.75-.16,0,0,0,0,0,0,1.2-.07,1.47-.15,1.47-.49a1.66,1.66,0,0,0-1.44-1.47,1.68,1.68,0,0,0-.7.17S79.49,102.45,79.51,102.43Zm.82-2.63h.39c.78.08,1.33.41,1.33.84,0,.24-.14.44-.34.44s-.23-.06-.35-.26a2.16,2.16,0,0,0-1-1S80.29,99.81,80.33,99.8Zm1-.75a1.9,1.9,0,0,1,.38,0c.76,0,1.34.35,1.34.82a.35.35,0,0,1-.29.37c-.12,0-.22-.07-.37-.26a2.79,2.79,0,0,0-1.06-.85S81.33,99.06,81.36,99.05Z"/><path class="cls-1" d="M72.36,121.53a5.09,5.09,0,0,0,3.37-2.45,3,3,0,0,0,.31-1.27c1.07.25,1.24.34,1.24.46s0,.19-.41.29c-.54,1.78-2,2.84-4.45,3.14C72.35,121.71,72.29,121.55,72.36,121.53Zm6.69-1.46c0,.55.12.61,1.22.61s1.64-.06,1.83-.35a4.86,4.86,0,0,0,.49-1.32c0-.07.16-.05.16,0,0,.54,0,.84,0,1.07s0,.22.2.28a.37.37,0,0,1,.22.36c0,.24-.21.42-.56.53a9.25,9.25,0,0,1-2.43.19c-1.63,0-2-.23-2-1,0-.13,0-.34,0-1v-1.82H75.25v.25c0,.26-.17.38-.55.38s-.38-.09-.38-.33c0-.43.06-1.07.06-3.74,0-1.58,0-2.41-.06-3.24a7.15,7.15,0,0,1,1,.51H80c.39-.4.45-.45.52-.45s.16,0,.57.37c.18.17.21.23.21.3s0,.18-.32.39v1.56c0,2.62.07,3.79.07,4.16s-.19.41-.53.41-.43-.1-.43-.33v-.24h-1Zm1-8.32H75.25v1.61h4.81Zm-4.81,3.52h4.81v-1.61H75.25Zm0,2.06h4.81v-1.76H75.25Z"/><path class="cls-1" d="M74.81,127.05a.35.35,0,0,0,.36.3,6.36,6.36,0,0,0,1.44-.42,4.71,4.71,0,0,1,1.52-.42.9.9,0,0,1,1,.79.81.81,0,0,1-.28.62c-.43.39-1,.89-1.53,1.46a13.33,13.33,0,0,0-1.09,1.15,2.67,2.67,0,0,1,1.48-.51,1.21,1.21,0,0,1,1,.51,2.51,2.51,0,0,1,.3,1.16c.08.9.16,1,.87,1a3,3,0,0,0,1-.12,1.86,1.86,0,0,1,.41-.07.55.55,0,0,1,.6.46c0,.36-.55.54-1.59.54s-1.46-.19-1.75-.64a3.52,3.52,0,0,1-.32-1.33c-.08-.74-.35-1-.88-1a2,2,0,0,0-1.35.66A5.7,5.7,0,0,0,74.81,133c-.14.35-.3.51-.53.51s-.41-.23-.41-.62,0-.46.63-1.2.93-1.12,1.41-1.69c.66-.76,1-1.18,1.79-2,.42-.46.54-.63.54-.78s-.06-.16-.18-.16a.6.6,0,0,0-.24.07c-.23.11-.38.2-1,.5a3.71,3.71,0,0,1-1.46.58.78.78,0,0,1-.6-1.14S74.8,127,74.81,127.05ZM77,123.27a1.53,1.53,0,0,0,1,.34,1.76,1.76,0,0,1,.82.24.92.92,0,0,1,.33.66c0,.24-.09.32-.45.34a2.71,2.71,0,0,0-.4,0c-.13,0-.31.1-.66.24-.18.07-.26.11-.65.24,0,0-.06,0,0-.05a14.54,14.54,0,0,0,1.17-.9,2.33,2.33,0,0,1-1-.62,1.48,1.48,0,0,1-.21-.51S76.93,123.26,77,123.27Z"/><path class="cls-1" d="M73.41,137.78a.4.4,0,0,0,.44.31,5.07,5.07,0,0,0,.77-.1c1.62-.32,3.2-.64,4.8-1a5.66,5.66,0,0,0,1.16-.32.74.74,0,0,1,.3-.08c.57,0,1.17.33,1.17.63s-.2.42-.52.42a5.75,5.75,0,0,1-.77-.09,5.85,5.85,0,0,0-.64,0c-.93,0-1.54.19-1.81.56a5.78,5.78,0,0,0-.59,2.92,4.55,4.55,0,0,0,.53,2.52,2.65,2.65,0,0,0,1.43,1,1.92,1.92,0,0,1,.63.3.52.52,0,0,1,.14.36c0,.26-.2.43-.53.43a2.54,2.54,0,0,1-1.31-.49c-1-.65-1.52-1.74-1.52-3.44a6.75,6.75,0,0,1,1-3.82,28,28,0,0,0-3.09.91A2.55,2.55,0,0,1,74,139a.84.84,0,0,1-.84-.78.6.6,0,0,1,.17-.43S73.39,137.76,73.41,137.78Z"/><path class="cls-1" d="M78,148.06a1.12,1.12,0,0,1,.27,0,1,1,0,0,1,.92,1.09,1.6,1.6,0,0,1-.25.82,8.23,8.23,0,0,1-1.37,1.49,10.5,10.5,0,0,0-1.28,1.31.81.81,0,0,0-.21.54.71.71,0,0,0,.24.53,12.34,12.34,0,0,0,1.06.83,7.38,7.38,0,0,1,1.67,1.58,2.43,2.43,0,0,1,.33,1.32c0,.52-.24.84-.6.84s-.36-.14-.38-.62a2.49,2.49,0,0,0-.48-1.63A6.13,6.13,0,0,0,76.88,155c-.36-.33-.64-.57-.9-.82a1.22,1.22,0,0,1-.34-.85,1.45,1.45,0,0,1,.24-.78A13.5,13.5,0,0,1,77,151c1-1.33,1.27-1.79,1.27-2.28a.69.69,0,0,0-.31-.6S78,148.07,78,148.06Z"/><path class="cls-1" d="M75.65,161.65a.38.38,0,0,0,.31.16c.16,0,.24,0,1-.52a2.59,2.59,0,0,1,1.4-.55,1.09,1.09,0,0,1,1.09,1c0,.4-.17.63-1.08,1.54a23.2,23.2,0,0,0-2.77,3.25,5.27,5.27,0,0,1,3.15-1.31,2.48,2.48,0,0,1,2.51,2.59,2.78,2.78,0,0,1-3.06,2.77c-1,0-1.55-.42-1.55-1.09a1.08,1.08,0,0,1,1.19-1c.72,0,1.12.36,1.32,1.22a2,2,0,0,0,1.22-2c0-1.28-.67-2.12-1.72-2.12a4.63,4.63,0,0,0-2.8,1.4,2.27,2.27,0,0,0-.68,1c-.16.41-.29.55-.51.55a.31.31,0,0,1-.31-.23,1.47,1.47,0,0,1-.12-.61c0-.35.09-.47.47-1,.46-.67.92-1.3,1.48-2,.43-.5.94-1.12,1.42-1.67.83-1,1.08-1.38,1.08-1.66a.21.21,0,0,0-.24-.23,1.12,1.12,0,0,0-.63.3,9.19,9.19,0,0,0-.86.66c-.27.29-.4.36-.66.36a.77.77,0,0,1-.73-.71.39.39,0,0,1,0-.2S75.63,161.63,75.65,161.65Zm1.94,7.29a.56.56,0,0,0-.61.49c0,.35.34.56.9.56a1.65,1.65,0,0,0,.49-.08C78.29,169.27,78,168.94,77.59,168.94Z"/><path class="cls-1" d="M73.32,174.68a.42.42,0,0,0,.45.31,4.85,4.85,0,0,0,.76-.1c1.62-.32,3.21-.64,4.8-1a4.9,4.9,0,0,0,1.16-.32.76.76,0,0,1,.3-.07c.58,0,1.18.32,1.18.62s-.2.42-.53.42a5.93,5.93,0,0,1-.77-.09,5.66,5.66,0,0,0-.63,0c-.94,0-1.55.19-1.81.56a5.78,5.78,0,0,0-.59,2.92,4.55,4.55,0,0,0,.53,2.52,2.66,2.66,0,0,0,1.42,1,2,2,0,0,1,.64.3.57.57,0,0,1,.13.36c0,.26-.19.43-.53.43a2.51,2.51,0,0,1-1.3-.49c-1-.65-1.53-1.74-1.53-3.44a6.67,6.67,0,0,1,1-3.82,28.18,28.18,0,0,0-3.1.91,2.47,2.47,0,0,1-.93.24.84.84,0,0,1-.84-.78.59.59,0,0,1,.16-.43S73.31,174.66,73.32,174.68Zm6.56,1.18a2.63,2.63,0,0,1,.45.07c.73.18,1.18.56,1.18,1a.39.39,0,0,1-.36.44c-.2,0-.22,0-.46-.5a2.44,2.44,0,0,0-.82-1S79.86,175.86,79.88,175.86Zm1.29-.54h.22c.81.07,1.43.5,1.43,1a.37.37,0,0,1-.33.4c-.17,0-.24-.07-.46-.43a2.7,2.7,0,0,0-.88-.93S81.14,175.32,81.17,175.32Z"/><path class="cls-1" d="M74.77,185.33a.73.73,0,0,1,.39-.11,1.43,1.43,0,0,1,1.35,1.52,10.25,10.25,0,0,1-.25,1.79,21.9,21.9,0,0,0-.48,3.55,1.8,1.8,0,0,0,2,2,4.44,4.44,0,0,0,4-3.16c0-.05.06,0,.06,0-.4,2.42-2,4-4.11,4-1.68,0-2.59-1.07-2.59-3.06a29.28,29.28,0,0,1,.23-3.1,20.33,20.33,0,0,0,.13-2.25c0-.69-.18-1-.72-1.18C74.75,185.36,74.75,185.34,74.77,185.33Z"/><path class="cls-1" d="M78.84,198.14c.06.18.08.2.53.36a.75.75,0,0,1,.55.67,1.65,1.65,0,0,1-.13.62,5.64,5.64,0,0,0-.24,1.12,1,1,0,0,0,.28,0,1.13,1.13,0,0,0,.78-.34.5.5,0,0,1,.4-.17.41.41,0,0,1,.44.38c0,.31-.57.62-1.14.62a1.39,1.39,0,0,1-.8-.26c0,.2,0,.3,0,.42a7.56,7.56,0,0,0,.5,2.52c1,.39,1.83,1.1,1.83,1.64a.36.36,0,0,1-.34.39c-.17,0-.22-.06-.54-.53a2.74,2.74,0,0,0-.88-.81c0,.16,0,.23,0,.3a1.31,1.31,0,0,1-1.44,1.32c-.71,0-1.05-.19-1.18-.68,0-.1,0-.1-.21-.23a.37.37,0,0,1-.14-.33c0-.69.75-1.23,1.73-1.23a2.38,2.38,0,0,1,.44,0,10.26,10.26,0,0,1-.33-2.55c0-.45,0-1,.11-2,0-.1,0-.18,0-.22a.39.39,0,0,0-.13-.33.77.77,0,0,1-.21-.51.6.6,0,0,1,0-.24S78.83,198.11,78.84,198.14Zm-.06,6.39c-.7,0-1.18.29-1.18.72s.36.59.86.59a.84.84,0,0,0,.93-.93,1.72,1.72,0,0,0,0-.31A2,2,0,0,0,78.78,204.53Z"/><path class="cls-1" d="M75.06,213.26c.07.24.18.34.32.34a1.14,1.14,0,0,0,.4-.1,6.59,6.59,0,0,1,2.58-.77,1.33,1.33,0,0,1,1.28.83,6,6,0,0,1,.47,2.52,3,3,0,0,1-1.76,3.1,7.45,7.45,0,0,1-2.83.61c-.06,0-.06-.09,0-.1a5.79,5.79,0,0,0,2.63-1.14c.76-.59,1.07-1.47,1.07-3,0-1.75-.23-2.4-.83-2.4a4.72,4.72,0,0,0-1.89.89c-.54.36-.7.44-.91.44a.77.77,0,0,1-.72-.76.81.81,0,0,1,.16-.49S75.05,213.22,75.06,213.26Zm1.91-3.9c.29.24.47.29,1.23.37a1.06,1.06,0,0,1,.66.18.77.77,0,0,1,.34.65c0,.3-.16.42-.54.43-.17,0-.28,0-.44,0a5,5,0,0,0-1.18.44s-.06,0,0,0c.63-.48.81-.62,1.14-.9l-.27-.11a1.64,1.64,0,0,1-.77-.52,1.14,1.14,0,0,1-.17-.49S76.94,209.35,77,209.36Z"/><path class="cls-1" d="M83.3,223.22a1.59,1.59,0,1,1-1.58-1.58A1.62,1.62,0,0,1,83.3,223.22Zm-2.75,0a1.17,1.17,0,1,0,1.17-1.16A1.19,1.19,0,0,0,80.55,223.22Z"/><path class="cls-1" d="M51.16,10.3c0,.29-.19.4-.58.4s-.39-.09-.39-.33c0-.62.07-1.49.07-5.51,0-2.2,0-3.27-.07-4.24a6.31,6.31,0,0,1,1.11.54h5c.42-.44.48-.48.55-.48s.17,0,.6.4c.19.17.23.24.23.31s-.06.18-.34.36V4.14c0,3.85.06,5.53.06,6.05,0,.29-.19.41-.59.41s-.39-.09-.39-.33V9.71H51.16Zm5.23-8.84H51.16V5.19h5.23Zm-5.23,8h5.23V5.49H51.16Z"/><path class="cls-1" d="M53.18,20.31c0-1.34,0-2.7.06-4a12,12,0,0,1-5,5c-.07,0-.19-.1-.12-.15a13.5,13.5,0,0,0,4.57-5.79H49.63a6.51,6.51,0,0,0-.94.07l-.12-.46a5.8,5.8,0,0,0,1,.09h3.56v-.45a18.6,18.6,0,0,0-.07-2.22c1.12.11,1.35.2,1.35.35s-.08.18-.4.34v2h3.23c.5-.65.6-.71.67-.71s.17.06.74.53c.26.21.33.28.33.36s-.05.12-.17.12H54.19a9.14,9.14,0,0,0,2,2.9,8.81,8.81,0,0,0,3.26,2c.05,0,0,.1,0,.12-.33.08-.48.21-.66.67,0,.12-.1.18-.18.18a1.37,1.37,0,0,1-.51-.23,10.64,10.64,0,0,1-2.42-2.23A12.49,12.49,0,0,1,54,15.51c0,1.6.06,3.21.08,4.8h1c.44-.56.54-.62.61-.62s.16.06.66.48c.22.18.28.26.28.33s0,.11-.16.11H54.1c0,1.38,0,2.08,0,2.35s-.21.41-.6.41-.41-.11-.41-.35,0-1,.05-2.41H51.64a5.39,5.39,0,0,0-.85.07l-.12-.45a4.4,4.4,0,0,0,.92.08Z"/><path class="cls-1" d="M51.15,28.41a8.4,8.4,0,0,1-1,1.13c.86,0,1.74-.11,2.6-.2a2.78,2.78,0,0,0-.67-.65s0-.1,0-.08c1,.2,1.64.63,1.64,1.11a.41.41,0,0,1-.4.45c-.16,0-.2,0-.38-.41a1.45,1.45,0,0,0-.12-.22,26.18,26.18,0,0,1-3.53.74c-.06.27-.13.35-.24.35s-.21-.18-.45-1.12c.41,0,.61,0,1.1,0a5.73,5.73,0,0,0,.48-1.14H49.13a5.09,5.09,0,0,0-.72.06L48.29,28a4.08,4.08,0,0,0,.83.08h.43V26.35c0-.57,0-1-.06-1.57a6.58,6.58,0,0,1,.92.46h2.52c.41-.46.47-.5.55-.5s.16,0,.6.38c.18.14.22.21.22.3s0,.12-.17.12H50.32v.63h2.24c.29-.35.37-.41.44-.41s.17.06.52.36q.18.14.18.24c0,.08,0,.11-.16.11H50.32v.66h2.23c.29-.36.38-.42.44-.42s.17.06.53.34c.13.12.19.2.19.27s-.05.11-.15.11H50.32v.68h2.74c.3-.39.4-.45.47-.45s.17.06.57.35c.15.13.21.2.21.27s-.05.13-.15.13Zm4.4,3.75c.32-.35.38-.4.45-.4s.17,0,.59.43c.18.18.22.25.22.34s-.11.17-.48.24A8.13,8.13,0,0,1,54.79,34a13.69,13.69,0,0,0,4.25.56s0,.12,0,.13c-.35.11-.48.23-.64.66a.2.2,0,0,1-.21.17,4,4,0,0,1-.6-.06A10.89,10.89,0,0,1,55,34.78a7.5,7.5,0,0,1-.91-.42,13.17,13.17,0,0,1-4.68,1.26c-.08,0-.13-.15,0-.18A15.43,15.43,0,0,0,53.5,34,7.93,7.93,0,0,1,52,32.54,8.28,8.28,0,0,1,48.5,35.3c-.08,0-.19-.11-.11-.16a9.14,9.14,0,0,0,3.38-3.79h-2.4a5.14,5.14,0,0,0-.85.06L48.4,31a5.56,5.56,0,0,0,1,.08h2.53a5.94,5.94,0,0,0,.29-1c1,.19,1.21.26,1.21.39s-.09.18-.45.29a2.08,2.08,0,0,1-.13.3h4.55c.54-.63.63-.69.71-.69s.16.06.72.51c.25.21.31.29.31.36s-.05.12-.16.12H52.67c-.13.28-.28.54-.43.81Zm-3.3.3A6.18,6.18,0,0,0,54,33.67a8.63,8.63,0,0,0,1.5-1.21Zm2-2.44a10.85,10.85,0,0,0,3.52-1.59,5.23,5.23,0,0,0,.59-.53c.67.44.89.62.89.75s-.11.16-.53.09a9.61,9.61,0,0,1-4.44,1.45C54.18,30.2,54.14,30,54.22,30Zm.21-3.45a9.24,9.24,0,0,0,2.3-1.29,3.51,3.51,0,0,0,.68-.64c.64.43.91.66.91.76s-.13.16-.53.09a7.79,7.79,0,0,1-3.32,1.24C54.4,26.75,54.36,26.59,54.43,26.57Zm0,1.64a9.78,9.78,0,0,0,2.84-1.4,4.84,4.84,0,0,0,.61-.53c.61.42.86.61.86.72s-.12.15-.53.08a8.6,8.6,0,0,1-3.73,1.31C54.44,28.4,54.4,28.23,54.48,28.21Z"/><path class="cls-1" d="M49.38,40.92a1,1,0,0,0,.89.48,4,4,0,0,0,1-.16,10,10,0,0,0,.29-2c0-.23,0-.32-.06-.41s-.18-.06-.38-.06-.09,0-.09-.07a.63.63,0,0,1,.13-.31.68.68,0,0,1,.54-.29c.38,0,.59.29.59.84a11.62,11.62,0,0,1-.33,2.21,4.38,4.38,0,0,1,1.17-.22c.89,0,1.29.67,1.29,2.09a5.43,5.43,0,0,1-.92,3.21,2.32,2.32,0,0,1-1.63,1c-.43,0-.59-.16-.89-1.32-.08-.4-.17-.68-.27-1.11-.48,1-.84,1.48-1.16,1.48s-.38-.25-.38-.59,0-.3.36-.6A7.77,7.77,0,0,0,51.07,42a2.62,2.62,0,0,1-.88.23,1.06,1.06,0,0,1-.89-1.07.43.43,0,0,1,.05-.21S49.37,40.89,49.38,40.92Zm1.38,3.69a7.9,7.9,0,0,0,.54,1.09c.24.39.4.52.59.52.9,0,1.74-1.7,1.74-3.53,0-.93-.15-1.33-.54-1.33a4.25,4.25,0,0,0-1.29.37A13.27,13.27,0,0,1,50.76,44.61Zm4.75-3.68a1.52,1.52,0,0,1,1.13-.47,2.09,2.09,0,0,1,1.9,2c0,.59-.32,1-.74,1-.14,0-.19,0-.35-.24a.79.79,0,0,0-.51-.26c-.27,0-.48-.09-.75-.16,0,0,0-.05,0-.05,1.2-.07,1.47-.15,1.47-.49a1.66,1.66,0,0,0-1.44-1.47,1.68,1.68,0,0,0-.7.17S55.49,41,55.51,40.93Zm.82-2.63h.39c.78.08,1.33.41,1.33.84,0,.24-.14.44-.34.44s-.23-.06-.35-.26a2.16,2.16,0,0,0-1-1S56.29,38.31,56.33,38.3Zm1-.75a1.9,1.9,0,0,1,.38,0c.76,0,1.34.35,1.34.82a.35.35,0,0,1-.29.37c-.12,0-.22-.07-.37-.26a2.79,2.79,0,0,0-1.06-.85S57.33,37.56,57.36,37.55Z"/><path class="cls-1" d="M52.44,53a2.19,2.19,0,0,1-1-.32.8.8,0,0,1-.27-.67,1.58,1.58,0,0,1,0-.19s0,0,.05,0a.58.58,0,0,0,.36.36,2.47,2.47,0,0,0,1,.1,8.44,8.44,0,0,0,.24-1.52,1,1,0,0,0-.58-1s0,0,0,0a.48.48,0,0,1,.3-.09,1.29,1.29,0,0,1,1.15,1.2,1.36,1.36,0,0,1-.12.57c-.11.31-.21.6-.32.88.41,0,.63.22.63.53s-.06.31-.45.42c-.15,0-.28.07-.49.13-.21.87-.33,1.41-.51,2.28a2.31,2.31,0,0,0,.66-.07.92.92,0,0,1,.29,0c.35,0,.54.14.54.4s-.53.54-1.36.55h-.25c0,.34,0,.52,0,.77,0,1.22.58,1.89,1.66,1.89a1.73,1.73,0,0,0,1.84-1.72c0-1-.68-2.09-2-3.16,0,0,0-.07,0-.06,1.73.85,2.81,2.16,2.81,3.42a2.4,2.4,0,0,1-2.54,2.31c-1.52,0-2.35-.91-2.35-2.53a9.33,9.33,0,0,1,0-1A1.42,1.42,0,0,1,50.91,55a1.18,1.18,0,0,1,.06-.4s0,0,.06,0c0,.57.3.82.91,1,.14-.82.24-1.32.4-2.12a5.16,5.16,0,0,0-1,.43s-.07,0,0,0a7.44,7.44,0,0,1,1.12-.84Z"/><path class="cls-1" d="M51.35,65.93a.41.41,0,0,0,.32.18c.17,0,.35-.08,1-.44a18.87,18.87,0,0,1,1.84-.92,4.53,4.53,0,0,1,1.8-.4,2.5,2.5,0,0,1,2.45,2.56,2.84,2.84,0,0,1-2.22,2.72,7,7,0,0,1-2.27.31s-.06-.06,0-.07a6.16,6.16,0,0,0,2-.6,2.68,2.68,0,0,0,1.67-2.43c0-1.21-.68-2.07-1.64-2.07a3.6,3.6,0,0,0-2.09.9c-.44.29-.86.6-1.22.84a1.5,1.5,0,0,1-.84.39.82.82,0,0,1-.83-.77.88.88,0,0,1,0-.2S51.33,65.9,51.35,65.93Z"/><path class="cls-1" d="M52,74.18c.13.18.16.19.56.37.84.37,1.06.68,1.06,1.55,0,.09,0,.37,0,.68,0,.48,0,.88,0,1.1,0,1,.11,1.24.48,1.24a1.59,1.59,0,0,0,.82-.33.88.88,0,0,1,.5-.2.59.59,0,0,1,.61.53c0,.2-.12.35-.43.44a6.25,6.25,0,0,1-.69.18A4.51,4.51,0,0,0,54,80a4.88,4.88,0,0,0-1.74,1.1,1.54,1.54,0,0,0-.52,1.12c0,.78.64,1.21,1.79,1.21a6.73,6.73,0,0,0,1.72-.25,1.77,1.77,0,0,1,.49-.09c.3,0,.52.16.52.39,0,.44-1,.76-2.25.76-1.75,0-2.72-.7-2.72-2,0-1,.64-1.84,2.13-2.77a1.18,1.18,0,0,1-.63-1.24c0-.2,0-.55,0-1,.06-.64.09-.92.09-1.23a1.41,1.41,0,0,0-.07-.57c-.06-.13-.18-.21-.39-.37a1,1,0,0,1-.5-.6.89.89,0,0,1,0-.33S52,74.15,52,74.18Z"/><path class="cls-1" d="M56.59,91.52a9.82,9.82,0,0,0,1.12-2c.82.46,1,.6,1,.74s-.07.18-.46.19a12.25,12.25,0,0,1-1.67,2.13c0,2.7,0,3.13,0,3.54a.9.9,0,0,1-.36.73,1.28,1.28,0,0,1-.82.28c-.17,0-.21,0-.24-.24s-.2-.49-1.29-.73c-.07,0-.06-.17,0-.17.74.06,1.18.08,1.61.08.13,0,.19-.06.19-.2V93.43a14.7,14.7,0,0,1-6.86,3.28c-.09,0-.15-.16-.06-.19a17.51,17.51,0,0,0,6.62-3.73A35.75,35.75,0,0,1,49.67,94c-.1.32-.17.39-.28.39s-.26-.21-.46-1.32a7.92,7.92,0,0,0,1,0c.23,0,.47,0,.71,0V89.84c0-1,0-1.86-.08-2.67a5.58,5.58,0,0,1,1.07.52h1.14c.11-.37.18-.67.23-.92A5.89,5.89,0,0,0,53,86.1c.91.22,1.27.37,1.27.52s-.13.2-.49.25a6,6,0,0,1-.65.82h2.48c.38-.43.44-.47.52-.47s.14,0,.56.38c.18.14.23.23.23.3s-.06.17-.35.35ZM55.74,88H51.45v1.38h4.29Zm-4.29,3.07h4.29V89.67H51.45Zm0,1.92a43.12,43.12,0,0,0,4.29-.5V91.36H51.45Z"/><path class="cls-1" d="M50.88,106.85a2.09,2.09,0,0,0,1.06,1,8.27,8.27,0,0,0,3.19.4,35.92,35.92,0,0,0,4.3-.3c.06,0,.06.12,0,.14-.27.16-.37.26-.4.54s-.06.3-.32.32c-.7.06-2.07.09-3,.09-2.27,0-3.31-.23-4-.64a3,3,0,0,1-1.14-1.59,9.42,9.42,0,0,1-1.38,1.7c0,.41,0,.53-.17.53s-.32-.25-.79-1.21a4.68,4.68,0,0,0,.79-.32,4.78,4.78,0,0,0,1-.64v-3.12H49.2a3,3,0,0,0-.8.09l-.12-.49a4.38,4.38,0,0,0,.92.1h.73c.39-.42.45-.47.52-.47s.16,0,.54.38c.19.17.23.24.23.32s0,.12-.34.33Zm-1-6.33A3.79,3.79,0,0,0,49,99c-.05,0,0-.12.1-.09,1.23.39,1.81,1,1.81,1.6,0,.33-.18.59-.49.59S50,100.94,49.9,100.52Zm7.58,1.63c.54-.63.62-.69.69-.69s.17.06.74.5c.26.23.32.31.32.39s0,.1-.17.1H56.79v2.16c0,1.25.05,2.37.05,2.71s-.18.37-.55.37-.4-.09-.4-.3,0-1.09,0-2.68v-2.26H53.66a11,11,0,0,1-.36,2.49,5.06,5.06,0,0,1-1.5,2.45s-.17,0-.14-.09a7,7,0,0,0,.92-2.45A14.21,14.21,0,0,0,52.8,102a16.91,16.91,0,0,0-.08-2.21,8.21,8.21,0,0,1,1.08.51,12,12,0,0,0,3-1.21,3.68,3.68,0,0,0,.71-.54c.82.55,1,.74,1,.89s-.17.18-.63.09a14.27,14.27,0,0,1-4.16,1.07v.87c0,.26,0,.5,0,.72Z"/><path class="cls-1" d="M50.34,111.78a1.81,1.81,0,0,1,1.12,1.67,4.36,4.36,0,0,1-.35,1.56,9.55,9.55,0,0,0-.66,3,2.48,2.48,0,0,0,.32,1.3c.44-.74.87-1.6,1.26-2.42,0,0,.07,0,.06,0-.12.41-.2.66-.43,1.45a5.58,5.58,0,0,0-.29,1.26,1,1,0,0,0,.1.4.69.69,0,0,1,.12.39.41.41,0,0,1-.4.45c-.73,0-1.33-1.29-1.33-2.88a15.22,15.22,0,0,1,.52-3.44,7.93,7.93,0,0,0,.25-1.63,1.6,1.6,0,0,0-.32-1.07S50.31,111.77,50.34,111.78Zm3.2,6.19a1.86,1.86,0,0,0,1.86,1.37,4.47,4.47,0,0,0,1.8-.4.85.85,0,0,1,.35-.09.54.54,0,0,1,.54.49c0,.43-1,.83-2,.83a2.61,2.61,0,0,1-2-.75,2.27,2.27,0,0,1-.54-1.45S53.53,117.94,53.54,118Zm.51-4.83a1.17,1.17,0,0,0,.78.29,3.24,3.24,0,0,0,.73-.12,6.19,6.19,0,0,0,.81-.35.9.9,0,0,1,.44-.16.59.59,0,0,1,.58.48c0,.41-1,.85-1.9.85a1.4,1.4,0,0,1-1.48-1S54,113.12,54.05,113.14Z"/><path class="cls-1" d="M58.52,124.14a1.76,1.76,0,0,1,.78,1.34.62.62,0,0,1-.62.66c-.33,0-.46-.23-.59-.51a4,4,0,0,0-1.78-2.14.17.17,0,0,1-.06-.14c0-.07,0-.12.14-.12A4.7,4.7,0,0,1,58.52,124.14Z"/><path class="cls-1" d="M52.44,139.13a2.19,2.19,0,0,1-1-.32.8.8,0,0,1-.27-.67,1.58,1.58,0,0,1,0-.19s0,0,.05,0a.58.58,0,0,0,.36.36,2.47,2.47,0,0,0,1,.1,8.44,8.44,0,0,0,.24-1.52,1,1,0,0,0-.58-1s0,0,0,0a.48.48,0,0,1,.3-.09,1.29,1.29,0,0,1,1.15,1.2,1.39,1.39,0,0,1-.12.57c-.11.31-.21.6-.32.88.41,0,.63.22.63.53s-.06.31-.45.42c-.15,0-.28.07-.49.13-.21.87-.33,1.41-.51,2.28a2.31,2.31,0,0,0,.66-.07.92.92,0,0,1,.29,0c.35,0,.54.14.54.4s-.53.54-1.36.55h-.25c0,.34,0,.52,0,.77,0,1.22.58,1.89,1.66,1.89a1.73,1.73,0,0,0,1.84-1.72c0-1-.68-2.09-2-3.16,0,0,0-.07,0-.06,1.73.85,2.81,2.16,2.81,3.42A2.4,2.4,0,0,1,54.1,146c-1.52,0-2.35-.91-2.35-2.53a9.33,9.33,0,0,1,0-1,1.42,1.42,0,0,1-.89-1.38,1.18,1.18,0,0,1,.06-.4s0,0,.06,0c0,.58.3.83.91,1,.14-.82.24-1.32.4-2.13a5.82,5.82,0,0,0-1,.44s-.07,0,0,0a7.44,7.44,0,0,1,1.12-.84Z"/><path class="cls-1" d="M51.35,152a.41.41,0,0,0,.32.18c.17,0,.35-.08,1-.44a18.87,18.87,0,0,1,1.84-.92,4.53,4.53,0,0,1,1.8-.4A2.5,2.5,0,0,1,58.75,153a2.84,2.84,0,0,1-2.22,2.72,7,7,0,0,1-2.27.31s-.06-.06,0-.07a6.16,6.16,0,0,0,2-.6,2.68,2.68,0,0,0,1.67-2.43c0-1.21-.68-2.07-1.64-2.07a3.6,3.6,0,0,0-2.09.9c-.44.29-.86.6-1.22.84a1.5,1.5,0,0,1-.84.39.82.82,0,0,1-.83-.77.88.88,0,0,1,0-.2S51.33,152,51.35,152Z"/><path class="cls-1" d="M52,160.28c.13.18.16.19.56.37.84.37,1.06.68,1.06,1.55,0,.09,0,.37,0,.68,0,.48,0,.88,0,1.1,0,1,.11,1.24.48,1.24a1.59,1.59,0,0,0,.82-.33.88.88,0,0,1,.5-.2.59.59,0,0,1,.61.53c0,.2-.12.35-.43.44a6.25,6.25,0,0,1-.69.18,4.51,4.51,0,0,0-.83.28,4.88,4.88,0,0,0-1.74,1.1,1.54,1.54,0,0,0-.52,1.12c0,.78.64,1.21,1.79,1.21a6.73,6.73,0,0,0,1.72-.25,1.77,1.77,0,0,1,.49-.09c.3,0,.52.16.52.39,0,.44-1,.76-2.25.76-1.75,0-2.72-.7-2.72-2,0-1,.64-1.84,2.13-2.77a1.18,1.18,0,0,1-.63-1.24c0-.2,0-.55,0-1,.06-.64.09-.92.09-1.23a1.41,1.41,0,0,0-.07-.57c-.06-.13-.18-.21-.39-.37a1,1,0,0,1-.5-.6.89.89,0,0,1,0-.33S52,160.25,52,160.28Z"/><path class="cls-1" d="M51.16,182.5c0,.29-.19.4-.58.4s-.39-.09-.39-.33c0-.62.07-1.49.07-5.51,0-2.2,0-3.27-.07-4.24a6.31,6.31,0,0,1,1.11.54h5c.42-.44.48-.48.55-.48s.17,0,.6.4c.19.17.23.24.23.31s-.06.18-.34.36v2.39c0,3.85.06,5.53.06,6,0,.29-.19.41-.59.41s-.39-.09-.39-.33v-.56H51.16Zm5.23-8.84H51.16v3.73h5.23Zm-5.23,8h5.23v-3.92H51.16Z"/><path class="cls-1" d="M49.84,187.14c0,1-.51,1.57-1,1.57a.47.47,0,0,1-.48-.48.5.5,0,0,1,.33-.49,1.55,1.55,0,0,0,.9-1.38c0-.05.12-.05.13,0a4.37,4.37,0,0,1,.08.48h3.44v-1.29a7.38,7.38,0,0,0-.05-1c1.19.13,1.33.22,1.33.35s-.08.18-.41.31v1.67h1.08a9.15,9.15,0,0,0,.71-1.17,4.93,4.93,0,0,0,.34-.88c.9.33,1.16.48,1.16.63s-.14.21-.5.21a8.18,8.18,0,0,1-1.32,1.21h2.06c.44-.47.5-.52.59-.52s.14.05.68.49c.23.23.28.29.28.38s-.12.21-.43.21-.21,0-.35.18a6.28,6.28,0,0,1-.91.72c-.05,0-.15,0-.12-.08a5.62,5.62,0,0,0,.38-1.08Zm4.23,4.54h2.75c.38-.42.44-.46.51-.46s.16,0,.56.37c.18.17.22.24.22.32s-.06.17-.33.34v.4c0,.59,0,1,0,1.28a.86.86,0,0,1-.37.79,1.23,1.23,0,0,1-.67.17c-.14,0-.18,0-.22-.22s-.19-.47-1.06-.61c-.07,0-.07-.17,0-.17.57,0,.92.05,1.25.05.13,0,.18-.05.18-.19V192H54.07v.59c0,1.24,0,2.35,0,2.69s-.19.42-.55.42-.39-.11-.39-.36,0-.82,0-2V192H50.57v.91c0,1,0,1.33,0,1.59s-.15.43-.53.43-.38-.11-.38-.33,0-.69,0-1.64,0-1.26-.05-1.79a8.46,8.46,0,0,1,1,.53h2.54v-1.29H51.59v.1c0,.27-.17.39-.49.39s-.35-.11-.35-.3,0-.45,0-1.61c0-.53,0-.79,0-1.23a8.2,8.2,0,0,1,.94.46h4.06c.33-.38.39-.42.47-.42s.16,0,.52.34c.18.16.23.23.23.3s-.06.15-.31.31v.38c0,.89,0,1.26,0,1.37,0,.27-.16.37-.49.37s-.36-.09-.36-.33v-.13H54.07Zm-2.9-5.54a2.88,2.88,0,0,0-.64-1.2s0-.09.08-.08c1,.3,1.47.77,1.47,1.26a.51.51,0,0,1-.49.55C51.34,186.67,51.25,186.54,51.17,186.14Zm4.65,2.35H51.59v1.59h4.23Z"/><path class="cls-1" d="M50.34,197.88a1.81,1.81,0,0,1,1.12,1.67,4.36,4.36,0,0,1-.35,1.56,9.49,9.49,0,0,0-.66,3,2.48,2.48,0,0,0,.32,1.3c.44-.74.87-1.6,1.26-2.42,0,0,.07,0,.06,0-.12.41-.2.66-.43,1.45a5.58,5.58,0,0,0-.29,1.26,1,1,0,0,0,.1.4.69.69,0,0,1,.12.39.42.42,0,0,1-.4.45c-.73,0-1.33-1.29-1.33-2.88a15.22,15.22,0,0,1,.52-3.44,8,8,0,0,0,.25-1.63,1.6,1.6,0,0,0-.32-1.07S50.31,197.87,50.34,197.88Zm3.2,6.19a1.86,1.86,0,0,0,1.86,1.37,4.47,4.47,0,0,0,1.8-.4.85.85,0,0,1,.35-.09.54.54,0,0,1,.54.49c0,.43-1,.83-2,.83a2.61,2.61,0,0,1-2-.75,2.27,2.27,0,0,1-.54-1.45S53.53,204,53.54,204.07Zm.51-4.83a1.17,1.17,0,0,0,.78.29,3.24,3.24,0,0,0,.73-.12,6.19,6.19,0,0,0,.81-.35.9.9,0,0,1,.44-.16.59.59,0,0,1,.58.48c0,.41-1,.85-1.9.85a1.4,1.4,0,0,1-1.48-1S54,199.21,54.05,199.24Z"/><path class="cls-1" d="M59.3,210.92a1.59,1.59,0,1,1-1.58-1.58A1.62,1.62,0,0,1,59.3,210.92Zm-2.75,0a1.17,1.17,0,1,0,1.17-1.16A1.19,1.19,0,0,0,56.55,210.92Z"/><path class="cls-1" d="M24.46,7.78a.65.65,0,0,1,.32-.57,3.25,3.25,0,0,0,1.15-2.36c0-.06.15-.06.16,0a6,6,0,0,1,.1,1c0,1.35-.5,2.44-1.22,2.44A.5.5,0,0,1,24.46,7.78Zm4,1.18c0,.65.15.72,1.67.72,1,0,1.31,0,1.59-.19s.42-.57.78-1.9c0-.06.15,0,.15,0,0,.6,0,1.16,0,1.4s.06.28.26.38a.3.3,0,0,1,.17.29c0,.28-.23.5-.6.63a9.57,9.57,0,0,1-2.54.22c-1.87,0-2.35-.29-2.35-1.4,0-.29,0-1.17,0-3.52,0-1.69,0-2-.08-2.77,1.29.16,1.42.2,1.42.37s-.1.23-.46.36ZM30,2.09A5.4,5.4,0,0,0,28.18.58c-.05,0,0-.16,0-.15,1.72.21,2.94.93,2.94,1.68a.49.49,0,0,1-.46.54C30.48,2.65,30.42,2.64,30,2.09Zm4,5.14A5.83,5.83,0,0,0,32.9,4.76c0-.06.06-.14.12-.11a3.92,3.92,0,0,1,2,2.76c0,.46-.21.73-.55.73S34.08,8,34,7.23Z"/><path class="cls-1" d="M29.27,22.55a6.38,6.38,0,0,0,2.36-1A4,4,0,0,0,33.51,18a3.54,3.54,0,0,0-3.61-3.82,3,3,0,0,0-.39,0,3.69,3.69,0,0,1,.72,2.21,5.68,5.68,0,0,1-2,4.32,2.35,2.35,0,0,1-1.31.55.51.51,0,0,1-.55-.44c-.08-.33-.11-.34-.55-.52s-.72-.91-.72-1.82a4.78,4.78,0,0,1,4.86-4.68,4.31,4.31,0,0,1,4.56,4.29c0,2.53-2,4.25-4.74,4.46l-.47,0C29.21,22.65,29.2,22.57,29.27,22.55Zm-3.4-4c0,1.08.46,1.86,1.1,1.86a2,2,0,0,0,1.35-.92,5.67,5.67,0,0,0,1.34-3.56,3.09,3.09,0,0,0-.38-1.63A4.17,4.17,0,0,0,25.87,18.52Z"/><path class="cls-1" d="M33.43,34.89c.56-.66.66-.72.73-.72s.17.06.75.54c.27.22.33.29.33.37s-.05.11-.17.11H25.44a6.88,6.88,0,0,0-1,.07l-.12-.45a6.41,6.41,0,0,0,1.12.08h5a7,7,0,0,0,.47-1.12,4.18,4.18,0,0,0,.16-.58c.86.28,1.06.39,1.06.54s-.12.19-.43.21a7.66,7.66,0,0,1-.92,1ZM24.48,30a5.64,5.64,0,0,0,1,.08h8c.47-.57.56-.63.63-.63s.17.06.69.48c.24.19.3.26.3.33s0,.12-.16.12H25.45a4.56,4.56,0,0,0-.85.08Zm3.59-4.19A9.5,9.5,0,0,0,28,24.56c1,.12,1.15.23,1.15.34s-.07.17-.32.29v.64h1.64a11.22,11.22,0,0,0,0-1.27c1,.12,1.15.23,1.15.34s-.07.17-.32.29v.64h1.58c.35-.38.42-.43.5-.43s.16.05.52.35c.18.17.23.23.23.3s-.05.16-.31.32v.69c0,1.31.05,1.9.05,2.1s-.18.37-.53.37-.34-.11-.34-.3H26.46v0c0,.25-.14.36-.49.36s-.36-.08-.36-.31,0-.65,0-2.07c0-.84,0-1.3-.06-1.88a7.94,7.94,0,0,1,1,.48Zm-1,7.34c0,.27-.16.38-.52.38s-.35-.08-.35-.34,0-.4,0-1.27a11.36,11.36,0,0,0-.05-1.19,5.82,5.82,0,0,1,1,.48h5.15c.35-.36.42-.39.5-.39s.14,0,.51.33c.18.17.22.24.22.31s0,.14-.3.32v.26c0,.67,0,.92,0,1,0,.32-.15.41-.51.41s-.34-.08-.34-.3v-.07H27Zm-.58-7v1.2h1.61v-1.2Zm1.61,1.5H26.46v1.3h1.61Zm4.34,3.9H27v1.26h5.37ZM28.06,34.4a2.41,2.41,0,0,0-.41-1.09.06.06,0,0,1,.07-.08c.73.24,1.16.66,1.16,1.06a.5.5,0,0,1-.48.54C28.19,34.83,28.1,34.72,28.06,34.4Zm.79-8.27v1.2h1.64v-1.2Zm1.64,2.8v-1.3H28.85v1.3Zm.78-1.6H33v-1.2h-1.7Zm1.7,1.6v-1.3h-1.7v1.3Z"/><path class="cls-1" d="M25.57,40.87a1,1,0,0,0,.89.48,4,4,0,0,0,1-.16,10,10,0,0,0,.29-2c0-.22,0-.32-.06-.4s-.18-.06-.37-.06-.1,0-.1-.08a.63.63,0,0,1,.13-.31.66.66,0,0,1,.54-.28c.39,0,.59.28.59.83a12.17,12.17,0,0,1-.32,2.21,4.19,4.19,0,0,1,1.16-.21c.89,0,1.3.67,1.3,2.08a5.48,5.48,0,0,1-.93,3.22,2.34,2.34,0,0,1-1.63,1c-.43,0-.59-.16-.89-1.32-.08-.4-.16-.67-.27-1.1-.48,1-.84,1.47-1.15,1.47s-.39-.25-.39-.59,0-.3.36-.6a7.89,7.89,0,0,0,1.59-3.12,2.46,2.46,0,0,1-.89.23,1.06,1.06,0,0,1-.89-1.06.47.47,0,0,1,.05-.22S25.56,40.85,25.57,40.87ZM27,44.56a7.37,7.37,0,0,0,.54,1.09c.24.39.4.52.59.52.9,0,1.74-1.7,1.74-3.53,0-.93-.14-1.33-.54-1.33a4.05,4.05,0,0,0-1.28.38A13.9,13.9,0,0,1,27,44.56Zm4.75-3.68a1.54,1.54,0,0,1,1.13-.47,2.1,2.1,0,0,1,1.91,2c0,.59-.33,1-.75,1-.14,0-.19,0-.34-.24a.85.85,0,0,0-.52-.26,6.52,6.52,0,0,1-.74-.16s0,0,0,0c1.2-.08,1.47-.16,1.47-.5a1.65,1.65,0,0,0-1.44-1.47,1.86,1.86,0,0,0-.7.17S31.68,40.91,31.7,40.88Z"/><path class="cls-1" d="M26.5,52.61a.9.9,0,0,0,.91.44,6.2,6.2,0,0,0,2.05-.46,2.48,2.48,0,0,1-.65-1.6c0-.58.31-1,.75-1,.24,0,.3.06.44.37a1.23,1.23,0,0,0,.62.6,1.43,1.43,0,0,0,.87.31h.3a.36.36,0,0,1,.38.36c0,.4-.65.91-1.67,1.36.21.21.33.35.71.72.88.87,1.2,1.45,1.2,2.08s-.3,1-.72,1c-.19,0-.26-.06-.42-.31S31,56.05,30,55.75c0,0,0-.06,0-.06.41,0,.89.08,1.24.08s.32-.06.32-.23A2.22,2.22,0,0,0,31,54.45,13.09,13.09,0,0,0,30,53.21a6.14,6.14,0,0,1-2.18.46c-.8,0-1.27-.36-1.33-1C26.45,52.59,26.49,52.58,26.5,52.61ZM28.67,56A1.55,1.55,0,0,0,28,57.29c0,.87.62,1.32,1.8,1.32l.59,0,.48,0c.3,0,.5.17.5.41s-.55.57-1.45.57c-1.53,0-2.52-.74-2.52-1.85a1.85,1.85,0,0,1,1.29-1.79C28.69,55.88,28.7,55.93,28.67,56Zm2.41-4.23-.52-.46-.51-.48a.43.43,0,0,0-.25-.13c-.17,0-.28.2-.28.52A2,2,0,0,0,30,52.38,3.61,3.61,0,0,0,31.08,51.72Z"/><path class="cls-1" d="M26.63,63.36c.08.31.18.39.43.39a5.8,5.8,0,0,0,1.22-.19,3,3,0,0,0,.18-.86c0-.17-.06-.25-.22-.38s-.15-.11-.15-.16.19-.28.4-.28a.78.78,0,0,1,.77.63,2.68,2.68,0,0,0,.79.19c.13,0,.26,0,.39,0a.38.38,0,0,1,.4.39c0,.4-.65.79-2.14,1.22-.32.73-.6,1.3-1,2A2.63,2.63,0,0,1,29,65.71c.46,0,.7.22.85.7a6.47,6.47,0,0,1,.22,1.52c.86-1.39,1.82-2.12,2.8-2.12A1.23,1.23,0,0,1,34.19,67a1.38,1.38,0,0,1-.66,1.17,6.46,6.46,0,0,1-2.38.74c-.5.12-.67.15-1,.24a8.28,8.28,0,0,0,0,.84c0,.65-.11.85-.37.85a.6.6,0,0,1-.52-.62,1.84,1.84,0,0,1,.06-.36,2.85,2.85,0,0,0,.06-.52c-.73.29-1.06.65-1.06,1.12s.47.85,1.29.85a4.81,4.81,0,0,0,1.19-.17,2.24,2.24,0,0,1,.52-.11c.33,0,.57.18.57.42s-.1.29-.32.4A4.86,4.86,0,0,1,30,72.1c-1.28,0-2.09-.55-2.09-1.43s.46-1.22,1.51-1.64a11,11,0,0,0,0-1.11c0-1.51-.11-1.87-.53-1.87a2.31,2.31,0,0,0-1.3.8,9.41,9.41,0,0,0-1,1.28c-.42.61-.51.73-.71.73s-.35-.26-.35-.73c0-.31.08-.44.43-.69a4.4,4.4,0,0,0,.9-1,11.83,11.83,0,0,0,1.14-2,5.29,5.29,0,0,1-.81.1.66.66,0,0,1-.74-.68,1.28,1.28,0,0,1,.1-.46S26.62,63.32,26.63,63.36Zm3.21-.29c-.19-.15-.38-.31-.6-.47a4.59,4.59,0,0,1-.24.81A4.39,4.39,0,0,0,29.84,63.07ZM31,68.56c1.73-.55,2.24-.92,2.24-1.63a.67.67,0,0,0-.72-.73c-1,0-2,1.21-2.33,2.63C30.64,68.7,30.67,68.67,31,68.56Z"/><path class="cls-1" d="M26.35,75.61v.66a10.58,10.58,0,0,1-.39,3,5.38,5.38,0,0,1-1.55,2.52c-.06,0-.21,0-.17-.1a6.46,6.46,0,0,0,1-2.62,13.63,13.63,0,0,0,.18-2.51,16.25,16.25,0,0,0-.07-1.82,7.44,7.44,0,0,1,1.08.58h4.33c0-.14,0-.29,0-.43,0-.44,0-.65-.09-1.06,1.12.11,1.28.21,1.28.36s-.1.21-.41.34c0,.29,0,.55,0,.79h2c.39-.53.45-.56.53-.56s.14,0,.6.42c.19.18.23.25.23.32s0,.12-.17.12H31.58a6.69,6.69,0,0,0,.72,2.9,6,6,0,0,0,.46-.81,6.9,6.9,0,0,0,.43-1.2c1,.41,1.07.44,1.07.6s-.11.15-.43.2a7.91,7.91,0,0,1-1.17,1.81,4.64,4.64,0,0,0,1.17,1.17,1,1,0,0,0,.49.22c.09,0,.24-.15.72-1.08,0,0,.13,0,.12.06-.12.59-.21,1-.21,1.11a.43.43,0,0,0,.13.26.6.6,0,0,1,.14.39.42.42,0,0,1-.45.45,1.75,1.75,0,0,1-.75-.23,5.5,5.5,0,0,1-1.93-1.75A7.41,7.41,0,0,1,30,81.08c-.07,0-.18-.12-.11-.17a8,8,0,0,0,1.95-1.69l-.18-.35a8.66,8.66,0,0,1-.81-3.26Zm-1.7,8.19c0-.25.12-.38.43-.53a1.55,1.55,0,0,0,1-1.36c0-.06.13,0,.15,0a5,5,0,0,1,0,.54c0,1-.45,1.82-1.13,1.82A.46.46,0,0,1,24.65,83.8Zm2-7.11a2.92,2.92,0,0,0,.71.08h1.94c.35-.45.46-.5.53-.5s.17,0,.59.38c.16.15.22.23.22.3s0,.12-.15.12H27.36a2.43,2.43,0,0,0-.61.08Zm1,3.67c0,.23-.14.34-.46.34s-.33-.09-.33-.26,0-.43,0-1.32c0-.61,0-1.05-.05-1.49a5.31,5.31,0,0,1,.86.43h1.65c.3-.33.37-.37.45-.37s.15,0,.47.32.22.22.22.29,0,.15-.32.32V79c0,.73,0,1.05,0,1.15s-.15.33-.47.33-.31-.08-.31-.27v-.11H27.61Zm.69,2.94c0,.47.16.54,1.62.54,1.13,0,1.65,0,1.88-.28a2.44,2.44,0,0,0,.5-1.1c0-.06.15,0,.15,0,0,.26,0,.55,0,.82a.23.23,0,0,0,.16.26.33.33,0,0,1,.25.35c0,.24-.2.43-.6.53a12.31,12.31,0,0,1-2.55.15c-1.81,0-2.26-.21-2.26-1.27,0-.14,0-.31,0-.89a5.38,5.38,0,0,0-.06-1c1.2.13,1.28.17,1.28.31s-.05.17-.38.31Zm1.09-4.94H27.61v1.4h1.78Zm.72,4.15a3.13,3.13,0,0,0-.95-1.13s0-.11.06-.1c1.1.18,1.78.66,1.78,1.21a.48.48,0,0,1-.45.51C30.34,83,30.26,82.91,30.11,82.51ZM33,74.89a2.24,2.24,0,0,0-.75-.8.06.06,0,0,1,0-.1c.86.07,1.37.34,1.37.76a.36.36,0,0,1-.37.37C33.12,75.12,33.08,75.07,33,74.89Zm1,8.71A3.49,3.49,0,0,0,33,82s0-.11.08-.1c1.14.36,1.86,1.07,1.86,1.73,0,.38-.18.6-.45.6S34.13,84.09,34,83.6Z"/><path class="cls-1" d="M26.56,87a.77.77,0,0,1,.38-.1,1.43,1.43,0,0,1,1.36,1.52A9.65,9.65,0,0,1,28,90.17a21.32,21.32,0,0,0-.47,3.55,1.8,1.8,0,0,0,2,2,4.45,4.45,0,0,0,4-3.17s.06,0,.06,0c-.4,2.42-2,4-4.1,4-1.68,0-2.59-1.07-2.59-3.06a26.76,26.76,0,0,1,.23-3.11c.1-1,.13-1.75.13-2.24,0-.7-.18-1-.72-1.19C26.53,87,26.53,87,26.56,87Zm3.55,1.45.48.06c.73.14,1.23.51,1.23,1a.39.39,0,0,1-.35.42c-.13,0-.23-.08-.35-.28a2.85,2.85,0,0,0-1-1.11S30.08,88.41,30.11,88.41Zm1.24-.8c.88,0,1.48.41,1.48.89,0,.23-.13.39-.31.39s-.21,0-.36-.26a3.12,3.12,0,0,0-1.11-1s0,0,0,0Z"/><path class="cls-1" d="M27.65,100.15a.38.38,0,0,0,.31.16c.16,0,.24,0,1-.52a2.59,2.59,0,0,1,1.4-.55,1.09,1.09,0,0,1,1.09,1c0,.4-.17.63-1.08,1.54a23.2,23.2,0,0,0-2.77,3.25,5.27,5.27,0,0,1,3.15-1.31,2.48,2.48,0,0,1,2.51,2.59,2.78,2.78,0,0,1-3.06,2.77c-.95,0-1.55-.42-1.55-1.09a1.08,1.08,0,0,1,1.19-1c.72,0,1.12.36,1.32,1.22a2,2,0,0,0,1.22-2c0-1.28-.67-2.12-1.72-2.12a4.63,4.63,0,0,0-2.8,1.4,2.27,2.27,0,0,0-.68,1c-.16.41-.29.55-.51.55a.31.31,0,0,1-.31-.23,1.47,1.47,0,0,1-.12-.61c0-.35.09-.47.47-1,.46-.67.92-1.3,1.48-2,.43-.5.94-1.12,1.42-1.67.83-1,1.08-1.38,1.08-1.66a.21.21,0,0,0-.24-.23,1.12,1.12,0,0,0-.63.3,9.19,9.19,0,0,0-.86.66c-.27.29-.4.36-.66.36a.77.77,0,0,1-.73-.71.39.39,0,0,1,.05-.2S27.63,100.13,27.65,100.15Zm1.94,7.29a.56.56,0,0,0-.61.49c0,.35.34.56.9.56a1.65,1.65,0,0,0,.49-.08C30.29,107.77,30,107.44,29.59,107.44Z"/><path class="cls-1" d="M25.57,113.67a1.85,1.85,0,0,0,1.6.69,3.43,3.43,0,0,0,.75-.07c0-.86,0-1.19,0-1.5,0-.53,0-.62-.26-.76s-.16-.12-.16-.22a.36.36,0,0,1,.4-.32.94.94,0,0,1,.91.76,1.81,1.81,0,0,1-.05.36,2.81,2.81,0,0,0,.87.49,1.63,1.63,0,0,0,.44.08.37.37,0,0,1,.36.37c0,.56-.85,1.13-2,1.38,0,.35,0,.58,0,1.12s0,.84,0,1.16a6.56,6.56,0,0,1,3.08-.85c1.7,0,2.79.84,2.79,2.16a2,2,0,0,1-2.19,1.92,2.07,2.07,0,0,1-2.29-2,2,2,0,0,1,.24-1s.1,0,.09,0a1.86,1.86,0,0,0-.07.54A1.71,1.71,0,0,0,32,119.68a1.33,1.33,0,0,0,1.5-1.28c0-1-.81-1.58-2.08-1.58a5.6,5.6,0,0,0-2.88.86,17.12,17.12,0,0,0,.15,1.77,6,6,0,0,1,.06.6.82.82,0,0,1-.72.86c-.21,0-.27,0-.38-.39,0-.14-.2-.27-.61-.5a7.87,7.87,0,0,0-.75-.4,1.11,1.11,0,0,1-.84.46.6.6,0,0,1-.66-.57c0-.22.14-.34.42-.37a1.41,1.41,0,0,0,.47-.11,5.08,5.08,0,0,0,.84-.58c.4-.29.67-.48,1.38-1,0-.55,0-1,0-1.34s0-.74,0-1.13l-.53,0a1.7,1.7,0,0,1-1.84-1.35S25.55,113.65,25.57,113.67Zm.84,5.8a4.89,4.89,0,0,0,1.43.31c.1,0,.11,0,.11-.33,0-.45,0-.86,0-1.39A15.3,15.3,0,0,0,26.41,119.47Zm2.16-5.3c.63-.17.9-.35,1.05-.63-.26-.27-.56-.53-.84-.79C28.69,113.21,28.66,113.45,28.57,114.17Zm2.29,1.12c.52-.88,1-1.26,1.75-1.26s1.42.56,1.42,1.12a.41.41,0,0,1-.4.43c-.13,0-.2-.06-.4-.32-.36-.47-.65-.65-1-.65s-.76.18-1.27.74C30.89,115.39,30.83,115.35,30.86,115.29Z"/><path class="cls-1" d="M30.16,129.82c0,1.62,0,2.73,0,3.15a.82.82,0,0,1-.48.82,1.66,1.66,0,0,1-.73.2c-.16,0-.18-.05-.25-.35s-.36-.48-1.38-.67c-.07,0-.07-.17,0-.17.84.06,1.34.09,1.74.09.13,0,.18-.06.18-.2v-2.87H25.33a4.52,4.52,0,0,0-.8.08l-.12-.47a4.25,4.25,0,0,0,.91.09h3.94v-2.16H26.19a5,5,0,0,0-.84.08l-.14-.46a5,5,0,0,0,1,.08h3.07v-2a23.27,23.27,0,0,1-3.72.26c-.07,0-.09-.15,0-.17a22.69,22.69,0,0,0,6-1.47,3.55,3.55,0,0,0,.89-.54c.79.59,1,.77,1,.9s-.08.14-.25.14a1.58,1.58,0,0,1-.42-.07,14.1,14.1,0,0,1-2.56.78v2.19h2.66c.51-.63.61-.69.69-.69s.17.06.71.52c.25.21.31.28.31.36s0,.11-.15.11H30.16v2.16h3.2c.57-.66.66-.72.73-.72s.17.06.73.53c.26.23.31.31.31.39s0,.1-.15.1Z"/><path class="cls-1" d="M26.43,141.32c0,2.84,0,4.16,0,4.57s-.17.42-.52.42-.41-.11-.41-.37,0-1.11.08-3.9c0-.72,0-1.5,0-2.23a10.29,10.29,0,0,1-1.37,1.52c-.06.06-.19-.06-.14-.13A14.14,14.14,0,0,0,26.16,137a9.62,9.62,0,0,0,.35-1.69c.9.24,1.34.43,1.34.58s-.13.2-.45.25a14.39,14.39,0,0,1-1.29,2.9c.58.1.68.16.68.28s-.06.15-.36.28Zm4.28-1.17a19.91,19.91,0,0,1-.94,2.54,12.52,12.52,0,0,1-1,1.83c1.13-.05,3.25-.23,4.63-.44a8.8,8.8,0,0,0-1.33-2.33c-.05-.06.07-.15.13-.11,1.67,1.23,2.61,2.64,2.61,3.51a.57.57,0,0,1-.51.63c-.26,0-.4-.17-.55-.69-.07-.24-.14-.5-.24-.76a45.75,45.75,0,0,1-5.67,1.15c-.08.31-.15.41-.28.41s-.17-.07-.45-1.36a3.11,3.11,0,0,0,.58,0c.23,0,.47,0,.7,0a19.09,19.09,0,0,0,1.26-4.38h-1.5a5.37,5.37,0,0,0-.95.08l-.13-.47a6,6,0,0,0,1.08.09h5.41c.54-.65.62-.71.71-.71s.16.06.72.53c.26.21.32.29.32.37s0,.11-.17.11Zm-2.8-3.46a6.21,6.21,0,0,0,1,.08h4c.53-.62.61-.68.68-.68s.17.06.69.52c.24.2.29.27.29.34s0,.12-.15.12H28.94a5,5,0,0,0-.91.08Z"/><path class="cls-1" d="M26,149.48a1.61,1.61,0,0,1,.8,1.38,6.83,6.83,0,0,1-.14,1.25,13.74,13.74,0,0,0-.12,1.49,4.2,4.2,0,0,0,.44,2c.12.21.3.37.39.37s.13-.08.37-.44c.39-.59.74-1.21,1.12-1.87,0,0,.06,0,.05,0-.25.83-.54,1.51-.73,2.19a2.09,2.09,0,0,0-.1.5,1.12,1.12,0,0,0,.09.41.69.69,0,0,1,.06.25.39.39,0,0,1-.43.37,1.69,1.69,0,0,1-1.17-.77,4.64,4.64,0,0,1-.82-2.91,9.07,9.07,0,0,1,.08-1.18c0-.31.08-.57.16-1.11a5.39,5.39,0,0,0,.09-.9,2.29,2.29,0,0,0-.19-1S25.92,149.46,26,149.48ZM32,151a2.27,2.27,0,0,1,1.53.63,2.29,2.29,0,0,1,.83,1.75c0,.58-.25,1-.64,1s-.39-.18-.39-.46,0-.42,0-.64A2.12,2.12,0,0,0,32,151S31.93,151,32,151Z"/><path class="cls-1" d="M25.38,163.92a1,1,0,0,0,.89.48,4,4,0,0,0,1-.16,10,10,0,0,0,.29-2c0-.23,0-.32-.06-.41s-.18-.06-.38-.06-.09,0-.09-.07a.63.63,0,0,1,.13-.31.68.68,0,0,1,.54-.29c.38,0,.59.29.59.84a11.62,11.62,0,0,1-.33,2.21,4.38,4.38,0,0,1,1.17-.22c.89,0,1.29.67,1.29,2.09a5.43,5.43,0,0,1-.92,3.21,2.32,2.32,0,0,1-1.63,1c-.43,0-.59-.16-.89-1.32-.08-.4-.17-.68-.27-1.11-.48,1-.84,1.48-1.16,1.48s-.38-.25-.38-.59,0-.3.36-.6A7.77,7.77,0,0,0,27.07,165a2.62,2.62,0,0,1-.88.23,1.06,1.06,0,0,1-.89-1.07.43.43,0,0,1,.05-.21S25.37,163.89,25.38,163.92Zm1.38,3.69a7.9,7.9,0,0,0,.54,1.09c.24.39.4.52.59.52.9,0,1.74-1.7,1.74-3.53,0-.93-.15-1.33-.54-1.33a4.25,4.25,0,0,0-1.29.37A13.27,13.27,0,0,1,26.76,167.61Zm4.75-3.68a1.52,1.52,0,0,1,1.13-.47,2.09,2.09,0,0,1,1.9,2c0,.59-.32,1-.74,1-.14,0-.19,0-.35-.24a.79.79,0,0,0-.51-.26c-.27-.05-.48-.09-.75-.16,0,0,0-.05,0-.05,1.2-.07,1.47-.15,1.47-.49a1.66,1.66,0,0,0-1.44-1.47,1.68,1.68,0,0,0-.7.17S31.49,164,31.51,163.93Zm.82-2.63h.39c.78.08,1.33.41,1.33.84,0,.24-.14.44-.34.44s-.23-.06-.35-.26a2.16,2.16,0,0,0-1-1S32.29,161.31,32.33,161.3Zm1-.75a1.9,1.9,0,0,1,.38,0c.76,0,1.34.35,1.34.82a.35.35,0,0,1-.29.37c-.12,0-.22-.07-.37-.26a2.79,2.79,0,0,0-1.06-.85S33.33,160.56,33.36,160.55Z"/><path class="cls-1" d="M25.32,174.68a.42.42,0,0,0,.45.31,4.85,4.85,0,0,0,.76-.1c1.62-.32,3.21-.64,4.8-1a4.9,4.9,0,0,0,1.16-.32.76.76,0,0,1,.3-.07c.58,0,1.18.32,1.18.62s-.2.42-.53.42a5.93,5.93,0,0,1-.77-.09,5.66,5.66,0,0,0-.63,0c-.94,0-1.55.19-1.81.56a5.78,5.78,0,0,0-.59,2.92,4.55,4.55,0,0,0,.53,2.52,2.66,2.66,0,0,0,1.42,1,2,2,0,0,1,.64.3.57.57,0,0,1,.13.36c0,.26-.19.43-.53.43a2.51,2.51,0,0,1-1.3-.49c-1.05-.65-1.53-1.74-1.53-3.44a6.67,6.67,0,0,1,1-3.82,28.18,28.18,0,0,0-3.1.91,2.47,2.47,0,0,1-.93.24.84.84,0,0,1-.84-.78.59.59,0,0,1,.16-.43S25.31,174.66,25.32,174.68Zm6.56,1.18a2.63,2.63,0,0,1,.45.07c.73.18,1.18.56,1.18,1a.39.39,0,0,1-.36.44c-.2,0-.22,0-.46-.5a2.44,2.44,0,0,0-.82-1S31.86,175.86,31.88,175.86Zm1.29-.54h.22c.81.07,1.43.5,1.43,1a.37.37,0,0,1-.33.4c-.17,0-.24-.07-.46-.43a2.7,2.7,0,0,0-.88-.93S33.14,175.32,33.17,175.32Z"/><path class="cls-1" d="M30.61,187.89a4.08,4.08,0,0,0,1.49.54,1.12,1.12,0,0,0,.24,0h.15a.35.35,0,0,1,.4.33c0,.4-.56.82-1.6,1.21.14.27.21.4.36.65.56.85.62,1,.62,1.39a1,1,0,0,1-.9,1c-.13,0-.2,0-.3-.27s-.16-.23-.45-.36a7.31,7.31,0,0,0-.9-.36s0,0,0,0c.48,0,.93.13,1.26.13s.42-.11.42-.35-.05-.3-.28-.78c-.13-.25-.31-.63-.41-.85a8.48,8.48,0,0,1-2.27.37c-1,0-1.61-.46-1.71-1.19,0,0,0,0,.05,0a1.4,1.4,0,0,0,1.3.58,8.07,8.07,0,0,0,2.38-.43,10.68,10.68,0,0,1-.42-1.56,3.76,3.76,0,0,1-1.16.21,1.38,1.38,0,0,1-1.47-1s0,0,0,0a1.49,1.49,0,0,0,1,.42,4.08,4.08,0,0,0,1.47-.39c0-.24,0-.31-.15-.95s-.26-.8-.65-.8a.64.64,0,0,0-.36.13s0,0,0,0a.86.86,0,0,1,.85-.54c.56,0,.85.37.88,1.19,0,.2,0,.36,0,.73a.89.89,0,0,1,.61-.22c.3,0,.46.1.46.33s-.38.49-1,.73Zm-2.05,4.19c-.64.35-.86.66-.86,1.16,0,.66.52,1.09,1.33,1.09a2,2,0,0,0,.77-.13.68.68,0,0,1,.31-.07c.31,0,.6.23.6.46s-.67.6-1.5.6c-1.26,0-2.14-.66-2.14-1.62,0-.78.51-1.3,1.48-1.54C28.58,192,28.6,192.06,28.56,192.08Zm3.23-3.23a13.31,13.31,0,0,0-1.15-.82,6,6,0,0,0,.36,1.22A2.64,2.64,0,0,0,31.79,188.85Z"/><path class="cls-1" d="M27.7,202a17,17,0,0,1,2-1.53,3.07,3.07,0,0,1,1.63-.53,1.36,1.36,0,0,1,1.47,1.45,11.1,11.1,0,0,1-.24,2,11.83,11.83,0,0,0-.27,1.82c0,.66.32,1,.9,1a2.23,2.23,0,0,0,2-1.72s.08,0,.08,0c-.2,1.48-1.07,2.39-2.24,2.39a1.44,1.44,0,0,1-1.51-1.58,10.69,10.69,0,0,1,.27-2.1,11.44,11.44,0,0,0,.24-1.81c0-.69-.3-1-.89-1a2.71,2.71,0,0,0-1.46.62,18.09,18.09,0,0,0-1.92,1.74c0,.17,0,.35,0,.4,0,.49,0,1,.13,2,.06.61.11.93.16,1.26a2.62,2.62,0,0,1,.07.55c0,.51-.2.8-.53.8a.27.27,0,0,1-.27-.15,1,1,0,0,1-.09-.42,7.16,7.16,0,0,0-.85-2.6c-.19.3-.36.54-.6.89s-.31.42-.47.42-.33-.29-.33-.63,0-.39.37-.69a12.29,12.29,0,0,0,1.85-2.33c0-.48.06-.88.11-1.33a4.22,4.22,0,0,0-.71.37c-.51.28-.65.34-.88.34a.84.84,0,0,1-.71-.78.8.8,0,0,1,.05-.23,0,0,0,0,1,0,0,.47.47,0,0,0,.42.24c.23,0,.26,0,1.08-.36a6.25,6.25,0,0,1,.77-.3c.07-.55.11-.9.2-1.48a2.25,2.25,0,0,0,0-.36c0-.16,0-.24-.2-.48a.83.83,0,0,1-.19-.5.38.38,0,0,1,.05-.19s0,0,0,0,.09.14.49.36.59.45.59.78a2,2,0,0,1-.13.61c-.07.31-.19.82-.24,1.12.29,0,.46.15.46.38s0,.2-.36.71c-.08.12-.16.25-.27.44Zm-.6,1.39c-.25.31-.47.64-.71,1a16.69,16.69,0,0,1,.83,1.53c0-.71-.12-1.41-.12-2.09Z"/><path class="cls-1" d="M26.14,210.05a2.08,2.08,0,0,1,1,1.62,4.76,4.76,0,0,1-.34,1.54,9.67,9.67,0,0,0-.7,3.21,3,3,0,0,0,.43,1.72,10.69,10.69,0,0,0,.69-1.17c.34-.66.48-.9.63-1.19,0,0,.06,0,.05,0-.21.69-.4,1.31-.58,1.88a2.53,2.53,0,0,0-.19.87,1.17,1.17,0,0,0,.11.46,1,1,0,0,1,.09.36.35.35,0,0,1-.36.36c-.78,0-1.49-1.59-1.49-3.3A15.11,15.11,0,0,1,26,213a8.35,8.35,0,0,0,.33-1.94,2.3,2.3,0,0,0-.19-1S26.1,210,26.14,210.05ZM29,212.57a1.87,1.87,0,0,0,1.3.44,4.34,4.34,0,0,0,1.08-.17c0-.6,0-1.44,0-1.81s-.05-.41-.4-.49c-.12,0-.13,0-.13-.07a.33.33,0,0,1,.11-.21.63.63,0,0,1,.42-.16c.44,0,.8.25.8.59a2.13,2.13,0,0,1,0,.3,2.36,2.36,0,0,0,0,.28c.59.44.89.61,1.18.62l.2,0a.4.4,0,0,1,.37.41c0,.23-.14.42-.54.63a4.54,4.54,0,0,1-1.31.58,21.42,21.42,0,0,0,.3,3.41c1.26.44,2.1,1.1,2.1,1.64a.38.38,0,0,1-.36.42c-.13,0-.18,0-.55-.43a4.06,4.06,0,0,0-1.16-.87.92.92,0,0,1,0,.15,1.51,1.51,0,0,1-1.64,1.69,1.64,1.64,0,0,1-1.17-.36.83.83,0,0,1-.21-.43.44.44,0,0,0-.17-.29.45.45,0,0,1-.13-.33c0-.77.85-1.36,1.95-1.36a5.52,5.52,0,0,1,.57,0c-.11-1.15-.12-2-.16-3.15a3.12,3.12,0,0,1-.73.09,1.72,1.72,0,0,1-1.72-1.1S29,212.54,29,212.57Zm1.8,4.77c-.79,0-1.32.32-1.32.8s.41.69,1,.69c.77,0,1.12-.34,1.12-1.09a2.23,2.23,0,0,0,0-.3A2.7,2.7,0,0,0,30.79,217.34Zm2.12-5.07a8.94,8.94,0,0,0-.82-.87c0,.42-.05.83-.08,1.29A2.59,2.59,0,0,0,32.91,212.27Zm-.19-2.49.19,0c.78.17,1.29.59,1.29,1.07a.37.37,0,0,1-.35.39c-.18,0-.25-.07-.34-.33a2.85,2.85,0,0,0-.81-1.13S32.7,209.78,32.72,209.78Zm1-.52.39,0c.63.11,1.14.49,1.14.94a.35.35,0,0,1-.3.37c-.16,0-.22-.07-.36-.34a2.72,2.72,0,0,0-.88-1S33.73,209.26,33.75,209.26Z"/><path class="cls-1" d="M28,221.78c.13.18.16.19.56.37.84.37,1.06.68,1.06,1.55,0,.09,0,.37,0,.68,0,.48,0,.88,0,1.1,0,1,.11,1.24.48,1.24a1.59,1.59,0,0,0,.82-.33.88.88,0,0,1,.5-.2.59.59,0,0,1,.61.53c0,.2-.12.35-.43.44a6.25,6.25,0,0,1-.69.18,4.51,4.51,0,0,0-.83.28,4.88,4.88,0,0,0-1.74,1.1,1.54,1.54,0,0,0-.52,1.12c0,.78.64,1.21,1.79,1.21a6.73,6.73,0,0,0,1.72-.25,1.77,1.77,0,0,1,.49-.09c.3,0,.52.16.52.39,0,.44-1,.76-2.25.76-1.75,0-2.72-.7-2.72-2,0-1,.64-1.84,2.13-2.77a1.18,1.18,0,0,1-.63-1.24c0-.2,0-.55,0-1,.06-.64.09-.92.09-1.23a1.41,1.41,0,0,0-.07-.57c-.06-.13-.18-.21-.39-.37a1,1,0,0,1-.5-.6.89.89,0,0,1,0-.33S28,221.75,28,221.78Z"/><path class="cls-1" d="M1.77,1.08V2a27.33,27.33,0,0,1-.35,5.13A8.89,8.89,0,0,1,.16,10.36c0,.07-.18,0-.16-.11A14.18,14.18,0,0,0,.75,7.06,38.26,38.26,0,0,0,1,2.51,19,19,0,0,0,.89.3c.41.17.59.26,1,.48H4.85c.41-.5.47-.55.54-.55s.18.05.6.41c.19.16.21.25.21.33s0,.11-.16.11H4.67a12.11,12.11,0,0,1-.84,1.49h1c.28-.35.34-.4.41-.4s.16.05.48.32.22.22.22.29-.05.16-.29.34V3.9c0,1.39,0,2.13,0,2.35s-.15.32-.45.32-.34-.07-.34-.29V6.2H4.38v2c0,.93,0,1.55,0,1.86a.84.84,0,0,1-.33.69,1,1,0,0,1-.59.2c-.14,0-.18,0-.19-.24s-.22-.46-.91-.6c0,0,0-.13,0-.13l1,0c.14,0,.2-.06.22-.21V6.2h-.5v0c0,.23-.15.33-.44.33s-.35-.07-.35-.25.05-.84.05-2.55c0-.81,0-1.19,0-1.69a3.88,3.88,0,0,1,.83.48H3.5a10.87,10.87,0,0,0,.2-1.49Zm-.56,9A8,8,0,0,0,2.17,8,3.74,3.74,0,0,0,2.35,7c.86.25,1,.34,1,.47s-.06.15-.35.21a6.29,6.29,0,0,1-1.66,2.43C1.29,10.19,1.18,10.12,1.21,10.06ZM4.93,2.87H3.13V4.2h1.8Zm-1.8,3h1.8V4.5H3.13ZM5.22,8.77a3.66,3.66,0,0,0-.53-1.59s0-.08.09-.06A2.38,2.38,0,0,1,6.06,8.88c0,.32-.14.53-.43.53S5.26,9.27,5.22,8.77Zm-.1,2.06A7.3,7.3,0,0,0,7,9.57a2.68,2.68,0,0,0,.54-.67c.74.39,1,.59,1,.69s-.11.17-.53.12A6.88,6.88,0,0,1,5.17,11C5.11,11,5.06,10.85,5.12,10.83ZM7.4,8.49c0,.22-.2.34-.49.34s-.37-.11-.37-.27c0-.4.06-1.05.06-3.4,0-1.41,0-2.15-.06-2.94a5.79,5.79,0,0,1,1,.49H8a8.71,8.71,0,0,0,.23-1.59H7.16a3.63,3.63,0,0,0-.76.07L6.28.73a4.58,4.58,0,0,0,.86.09H10c.43-.54.51-.6.58-.6s.16.06.62.46c.19.17.25.24.25.32s0,.12-.16.12H9.23a13,13,0,0,1-.9,1.59H9.81c.35-.41.42-.46.51-.46s.15,0,.51.36c.2.17.24.24.24.32s-.07.18-.32.32V4.63c0,2.34.05,3.48.05,3.83s-.21.37-.52.37-.35-.08-.35-.3V8.35H7.4ZM9.93,3H7.4V4.44H9.93ZM7.4,6.16H9.93V4.74H7.4Zm0,1.89H9.93V6.46H7.4Zm3.1,2.58a3.82,3.82,0,0,0-1.39-1.5s0-.12,0-.11c1.32.24,2.14.83,2.14,1.43a.43.43,0,0,1-.41.48C10.75,10.93,10.62,10.84,10.5,10.63Z"/><path class="cls-1" d="M3.35,16.73a.41.41,0,0,0,.32.18c.17,0,.35-.08,1-.44a18.87,18.87,0,0,1,1.84-.92,4.53,4.53,0,0,1,1.8-.4,2.5,2.5,0,0,1,2.45,2.56,2.84,2.84,0,0,1-2.22,2.72,7,7,0,0,1-2.27.31s-.06-.06,0-.07a6.16,6.16,0,0,0,2-.6,2.68,2.68,0,0,0,1.67-2.43c0-1.21-.68-2.07-1.64-2.07a3.6,3.6,0,0,0-2.09.9c-.44.29-.86.6-1.22.84a1.5,1.5,0,0,1-.84.39.82.82,0,0,1-.83-.77.88.88,0,0,1,0-.2S3.33,16.7,3.35,16.73Z"/><path class="cls-1" d="M1.41,27.08a.4.4,0,0,0,.44.31,5.07,5.07,0,0,0,.77-.1c1.62-.32,3.2-.64,4.8-1A5.66,5.66,0,0,0,8.58,26a.69.69,0,0,1,.3-.07c.57,0,1.17.32,1.17.62s-.2.42-.52.42a5.75,5.75,0,0,1-.77-.09,5.85,5.85,0,0,0-.64,0c-.93,0-1.54.19-1.81.56a5.78,5.78,0,0,0-.59,2.92,4.55,4.55,0,0,0,.53,2.52,2.65,2.65,0,0,0,1.43,1,1.92,1.92,0,0,1,.63.3.52.52,0,0,1,.14.36c0,.26-.2.43-.53.43a2.54,2.54,0,0,1-1.31-.49c-1-.65-1.52-1.74-1.52-3.44a6.75,6.75,0,0,1,1-3.82A28,28,0,0,0,3,28.05a2.55,2.55,0,0,1-.94.24.84.84,0,0,1-.84-.78.6.6,0,0,1,.17-.43S1.39,27.06,1.41,27.08Z"/><path class="cls-1" d="M1.57,39.87a1.85,1.85,0,0,0,1.6.69,4.19,4.19,0,0,0,.75-.07C4,39.63,4,39.3,4,39c0-.53,0-.62-.26-.76s-.16-.12-.16-.22a.36.36,0,0,1,.4-.32.94.94,0,0,1,.91.76,1.81,1.81,0,0,1-.05.36,2.81,2.81,0,0,0,.87.49,1.63,1.63,0,0,0,.44.08.37.37,0,0,1,.36.37c0,.56-.85,1.13-2,1.38,0,.35,0,.58,0,1.12s0,.84,0,1.16a6.56,6.56,0,0,1,3.08-.85c1.7,0,2.79.84,2.79,2.16a2,2,0,0,1-2.19,1.92,2.07,2.07,0,0,1-2.29-2,2,2,0,0,1,.24-1s.1,0,.09,0a1.86,1.86,0,0,0-.07.54A1.72,1.72,0,0,0,8,45.88,1.33,1.33,0,0,0,9.5,44.6c0-1-.81-1.58-2.08-1.58a5.6,5.6,0,0,0-2.88.86,17.12,17.12,0,0,0,.15,1.77,6,6,0,0,1,.06.6.82.82,0,0,1-.72.86c-.21,0-.27,0-.38-.39,0-.14-.2-.27-.61-.5a7.87,7.87,0,0,0-.75-.4,1.11,1.11,0,0,1-.84.46.6.6,0,0,1-.66-.57c0-.22.14-.34.42-.37a1.41,1.41,0,0,0,.47-.11,5.08,5.08,0,0,0,.84-.58c.4-.29.67-.48,1.38-.95,0-.55,0-1,0-1.34s0-.74,0-1.13l-.53,0A1.7,1.7,0,0,1,1.53,39.9S1.55,39.85,1.57,39.87Zm.84,5.8A4.89,4.89,0,0,0,3.84,46c.1,0,.11,0,.11-.33,0-.45,0-.86,0-1.39A15.3,15.3,0,0,0,2.41,45.67Zm2.16-5.3c.63-.17.9-.35,1-.63-.26-.27-.56-.53-.84-.79C4.69,39.41,4.66,39.65,4.57,40.37Zm2.29,1.12c.52-.89,1-1.26,1.75-1.26S10,40.79,10,41.35a.41.41,0,0,1-.4.43c-.13,0-.2-.06-.4-.32-.36-.47-.65-.65-1-.65s-.76.18-1.27.74C6.89,41.59,6.83,41.55,6.86,41.49Z"/><path class="cls-1" d="M3.71,49.5l.21,0a1.19,1.19,0,0,1,1.17,1.1,2.78,2.78,0,0,1-.31,1.09A7,7,0,0,0,4,54.49a2.9,2.9,0,0,0,.09.73,9.77,9.77,0,0,1,.89-2C5.47,52.39,5.9,52,6.42,52c1.09,0,1.92,1.49,1.92,3.46a4.25,4.25,0,0,1-2,3.91,6.65,6.65,0,0,1-2.39.78c-.07,0-.09-.08,0-.1,2.42-.72,3.54-2.27,3.54-5,0-1.6-.47-2.73-1.13-2.73-.48,0-1,.65-1.36,1.79-.1.3-.21.73-.3,1.09a2.6,2.6,0,0,0,0,.46,1.41,1.41,0,0,0,.12.56,1.66,1.66,0,0,1,.1.47.37.37,0,0,1-.39.4c-.53,0-1-1.17-1-2.5A10,10,0,0,1,3.84,52a8.23,8.23,0,0,0,.35-1.61.89.89,0,0,0-.49-.85S3.68,49.51,3.71,49.5Z"/><path class="cls-1" d="M8.19,65.71a.34.34,0,0,1,.38.35c0,.24-.21.44-.61.65a6.72,6.72,0,0,1-1.79.56,16.83,16.83,0,0,0,.29,2.13c1.35.43,2.47,1.32,2.47,1.95a.36.36,0,0,1-.35.38c-.17,0-.23,0-.53-.4a3.39,3.39,0,0,0-1.49-1.15,1.93,1.93,0,0,1,.05.42,1.61,1.61,0,0,1-1.82,1.61c-.75,0-1.27-.23-1.39-.65-.06-.21-.06-.21-.25-.33a.63.63,0,0,1-.26-.51c0-.84,1-1.48,2.26-1.48a2.73,2.73,0,0,1,.61.06c-.11-.82-.14-1.26-.18-1.94a7.83,7.83,0,0,1-1,.08c-1.14,0-1.61-.34-1.85-1.35,0,0,0,0,0,0a1.48,1.48,0,0,0,1.45.72,7.51,7.51,0,0,0,1.32-.13c0-.66,0-1.13.06-1.71A3.31,3.31,0,0,1,5,65a1.27,1.27,0,0,1-1.21-1s0-.05,0,0a1.09,1.09,0,0,0,1,.41,3.23,3.23,0,0,0,.87-.1c0-.43.09-1,.09-1.19,0-.58-.16-.9-.74-.93,0,0,0,0,0-.06a.71.71,0,0,1,.59-.29,1,1,0,0,1,1,1,2.47,2.47,0,0,1-.12.73l-.14.63a5.67,5.67,0,0,0,.62-.25.76.76,0,0,1,.42-.14.32.32,0,0,1,.36.32c0,.21-.16.37-.51.54a4.38,4.38,0,0,1-1,.33c0,.48-.07.93-.07,1.23s0,.3,0,.44a4.28,4.28,0,0,0,1.29-.44c-.34-.4-.55-.63-.87-1,0,0,0-.08,0,0,.9.62,1,.67,1.33.67ZM5,69.88c-1,0-1.62.36-1.62.93,0,.4.48.69,1.16.69.83,0,1.26-.38,1.26-1.12,0-.13,0-.25,0-.39A3.39,3.39,0,0,0,5,69.88Z"/><path class="cls-1" d="M1,76.75c.21.29.28.34.45.34l.35,0A34.6,34.6,0,0,1,6,76.26c0-.31,0-.6,0-.83,0-.84.25-1.23.76-1.23.24,0,.34.08.44.36a2,2,0,0,0,.61.75,3.66,3.66,0,0,0,2.1,1c.67.08.84.19.84.5a.44.44,0,0,1-.46.42,1.54,1.54,0,0,1-.54-.12,8.07,8.07,0,0,0-2.24-.38H6.77c0,.71,0,1.43.09,2.15,0,.48,0,.56.11,1a5.08,5.08,0,0,1,.08,1c0,2.22-1.22,3.55-3.51,3.88,0,0-.06,0,0-.07a3.53,3.53,0,0,0,2.67-3.31,1,1,0,0,1-.84.51c-.33,0-.45-.1-.55-.42a.69.69,0,0,0-.13-.26,1.52,1.52,0,0,1-.25-.94c0-1,.49-1.8,1.14-1.8a.85.85,0,0,1,.55.2c0-.6-.06-1.19-.1-1.79a14.71,14.71,0,0,0-3.6,1,1.47,1.47,0,0,1-.62.19,1,1,0,0,1-1-.85.58.58,0,0,1,.1-.34S1,76.73,1,76.75ZM5,80c0,.61.19,1,.5,1s.67-.46.67-1.09-.22-1.1-.56-1.1S5,79.29,5,80Zm2.48-3.79.88,0c-.3-.32-.45-.47-.69-.71-.45-.49-.59-.59-.7-.59s-.2.19-.2.8c0,.13,0,.25,0,.49C7,76.19,7.22,76.19,7.45,76.19Z"/><path class="cls-1" d="M11.3,87.92a1.59,1.59,0,1,1-1.58-1.58A1.62,1.62,0,0,1,11.3,87.92Zm-2.75,0a1.17,1.17,0,1,0,1.17-1.16A1.19,1.19,0,0,0,8.55,87.92Z"/></g></g></svg>