<svg xmlns="http://www.w3.org/2000/svg" viewBox="0 0 107.48 224.81"><defs><style>.cls-1{fill:#231815;}</style></defs><g id="レイヤー_2" data-name="レイヤー 2"><g id="レイヤー_1-2" data-name="レイヤー 1"><path class="cls-1" d="M98.71,4.81c0,.25-.18.38-.53.38s-.38-.09-.38-.34,0-.88,0-2.46c0-1,0-1.5,0-2.19a8.06,8.06,0,0,1,1.06.53h5.69c.4-.43.46-.47.53-.47s.14,0,.56.4c.22.17.25.24.25.31s0,.16-.34.37v.84c0,1.54,0,2.28,0,2.5s-.19.42-.55.42-.37-.1-.37-.34V4.63h-2.59V6h2.65c.44-.51.53-.55.6-.55s.18,0,.64.4c.2.17.25.24.25.33s0,.12-.16.12h-4V7.64h3.5c.49-.59.58-.65.65-.65s.17.06.7.51c.22.18.28.26.28.33s0,.11-.16.11H97.36a5.34,5.34,0,0,0-.89.07l-.12-.44a6.84,6.84,0,0,0,1,.07h3.89V6.3H98.36a4.07,4.07,0,0,0-.82.07l-.12-.45a6,6,0,0,0,.93.08h2.87V4.63H98.71Zm-2.09,5.67c0-.26.16-.44.5-.55a1.87,1.87,0,0,0,1.21-1.34c0-.06.13,0,.13,0C98.55,9.9,97.94,11,97.13,11A.47.47,0,0,1,96.62,10.48ZM98.71,1V2.5h2.51V1Zm2.51,3.3V2.79H98.71V4.33Zm-1.12,5.95a4.08,4.08,0,0,0-.18-1.63c0-.06.07-.1.12-.06a2.16,2.16,0,0,1,1,1.65.56.56,0,0,1-.55.61C100.26,10.85,100.07,10.66,100.1,10.28ZM104.67,1h-2.59V2.5h2.59Zm0,1.76h-2.59V4.33h2.59Zm-1.93,7.5a3.45,3.45,0,0,0-.57-1.64s0-.11.09-.09c.92.45,1.43,1.11,1.43,1.63,0,.35-.19.63-.51.63S102.8,10.67,102.74,10.29Zm2.85,0a3.28,3.28,0,0,0-1.07-1.65s0-.14.07-.12c1.2.41,2,1.15,2,1.8a.51.51,0,0,1-.48.57C105.86,10.91,105.73,10.79,105.59,10.31Z"/><path class="cls-1" d="M97.91,14.18a1.61,1.61,0,0,1,.8,1.38,6.83,6.83,0,0,1-.14,1.25,13.74,13.74,0,0,0-.12,1.49,4.2,4.2,0,0,0,.44,1.95c.12.21.3.37.38.37s.14-.08.38-.44c.39-.59.74-1.21,1.12-1.87,0,0,.06,0,0,0-.25.83-.54,1.51-.73,2.19a2.09,2.09,0,0,0-.1.5,1.12,1.12,0,0,0,.09.41,1,1,0,0,1,.06.25.39.39,0,0,1-.43.37,1.69,1.69,0,0,1-1.17-.77,4.64,4.64,0,0,1-.83-2.91,9.29,9.29,0,0,1,.09-1.18c0-.31.08-.57.16-1.11a5.39,5.39,0,0,0,.09-.9,2.29,2.29,0,0,0-.19-1S97.87,14.16,97.91,14.18Zm6,1.52a2.27,2.27,0,0,1,1.53.63,2.29,2.29,0,0,1,.83,1.75c0,.58-.25,1-.64,1s-.39-.18-.39-.46,0-.42,0-.64a2.11,2.11,0,0,0-1.37-2.21S103.88,15.7,103.92,15.7Z"/><path class="cls-1" d="M99.09,28.41a7.7,7.7,0,0,1-1,1.13c.86,0,1.74-.11,2.6-.2a2.78,2.78,0,0,0-.67-.65s0-.1,0-.08c1,.2,1.64.63,1.64,1.11a.41.41,0,0,1-.4.45c-.16,0-.2,0-.38-.41a1.45,1.45,0,0,0-.12-.22,27.8,27.8,0,0,1-3.53.75c-.06.26-.13.34-.24.34s-.21-.18-.45-1.12c.41,0,.61,0,1.1,0a5.73,5.73,0,0,0,.48-1.14H97.08a5.09,5.09,0,0,0-.72.06L96.24,28a4.08,4.08,0,0,0,.83.08h.43V26.35c0-.57,0-1-.06-1.57a6.58,6.58,0,0,1,.92.46h2.52c.41-.46.47-.5.55-.5s.16,0,.6.38c.18.14.22.21.22.3s0,.12-.17.12H98.27v.63h2.24c.29-.35.37-.41.44-.41s.17.06.52.36q.18.14.18.24c0,.08,0,.11-.16.11H98.27v.66h2.23c.29-.36.38-.42.44-.42s.17.06.53.34c.13.12.19.2.19.27s0,.11-.16.11H98.27v.68H101c.3-.39.4-.45.47-.45s.17.06.56.35c.16.13.22.2.22.27s-.05.13-.16.13Zm4.41,3.75c.32-.35.38-.4.45-.4s.17,0,.59.43c.18.18.22.25.22.34s-.11.17-.48.24A8.13,8.13,0,0,1,102.74,34a13.69,13.69,0,0,0,4.25.56s0,.12,0,.13c-.35.11-.48.23-.64.66a.21.21,0,0,1-.22.17,4,4,0,0,1-.59-.06,10.89,10.89,0,0,1-2.55-.66,7.5,7.5,0,0,1-.91-.42,13.17,13.17,0,0,1-4.68,1.26c-.08,0-.13-.15,0-.18A15.43,15.43,0,0,0,101.45,34a7.93,7.93,0,0,1-1.52-1.43,8.18,8.18,0,0,1-3.49,2.76c-.07,0-.18-.11-.1-.16a9.08,9.08,0,0,0,3.38-3.79h-2.4a5.14,5.14,0,0,0-.85.06L96.35,31a5.56,5.56,0,0,0,1,.08h2.53a5.94,5.94,0,0,0,.29-1c1,.19,1.21.26,1.21.4s-.09.18-.45.28a2.08,2.08,0,0,1-.13.3h4.55c.54-.63.63-.69.7-.69s.17.06.72.51c.26.21.32.29.32.36s0,.12-.16.12h-6.27c-.13.28-.28.54-.43.81Zm-3.3.3a6.18,6.18,0,0,0,1.74,1.21,8.63,8.63,0,0,0,1.5-1.21Zm2-2.44a11,11,0,0,0,3.52-1.59,5.23,5.23,0,0,0,.59-.53c.67.44.89.62.89.75s-.11.16-.53.09a9.61,9.61,0,0,1-4.44,1.45C102.13,30.2,102.09,30,102.17,30Zm.21-3.45a9.24,9.24,0,0,0,2.3-1.29,3.51,3.51,0,0,0,.68-.64c.64.43.91.66.91.76s-.14.16-.53.09a7.81,7.81,0,0,1-3.32,1.25C102.34,26.75,102.31,26.59,102.38,26.57Zm.05,1.64a9.78,9.78,0,0,0,2.84-1.4,5.66,5.66,0,0,0,.61-.53c.61.42.85.61.85.72s-.12.15-.52.08a8.65,8.65,0,0,1-3.73,1.31C102.39,28.4,102.34,28.23,102.43,28.21Z"/><path class="cls-1" d="M98.38,37.73a2.07,2.07,0,0,1,1,1.61A4.75,4.75,0,0,1,99,40.89a9.67,9.67,0,0,0-.71,3.2,3,3,0,0,0,.43,1.73,9.87,9.87,0,0,0,.7-1.17c.34-.66.48-.9.62-1.19,0,0,.06,0,0,0-.2.69-.39,1.31-.57,1.87a2.74,2.74,0,0,0-.2.88,1.29,1.29,0,0,0,.11.45,1.23,1.23,0,0,1,.1.36.35.35,0,0,1-.36.36c-.78,0-1.49-1.58-1.49-3.29a14.91,14.91,0,0,1,.49-3.42,8.07,8.07,0,0,0,.34-1.95,2.26,2.26,0,0,0-.19-1S98.34,37.7,98.38,37.73Zm2.85,2.51a1.82,1.82,0,0,0,1.29.45,4.27,4.27,0,0,0,1.08-.17c0-.6,0-1.44,0-1.81s-.05-.41-.4-.49c-.12,0-.13,0-.13-.07a.27.27,0,0,1,.11-.21.57.57,0,0,1,.42-.17c.44,0,.8.25.8.6a1.37,1.37,0,0,1,0,.3l0,.28c.59.44.89.61,1.17.62l.21,0a.4.4,0,0,1,.37.41c0,.22-.14.42-.54.63a5.12,5.12,0,0,1-1.31.58,20.19,20.19,0,0,0,.3,3.4c1.26.45,2.1,1.11,2.1,1.65a.39.39,0,0,1-.36.42c-.13,0-.18,0-.55-.44a4,4,0,0,0-1.16-.86.82.82,0,0,1,0,.14,1.52,1.52,0,0,1-1.65,1.7,1.62,1.62,0,0,1-1.16-.36.76.76,0,0,1-.21-.44.45.45,0,0,0-.17-.28.45.45,0,0,1-.13-.33c0-.78.85-1.36,2-1.36a5.33,5.33,0,0,1,.56,0c-.1-1.15-.12-2-.15-3.15a3.25,3.25,0,0,1-.73.09,1.72,1.72,0,0,1-1.72-1.1S101.21,40.22,101.23,40.24ZM103,45c-.79,0-1.32.32-1.32.8s.41.68,1,.68c.77,0,1.13-.33,1.13-1.09a2.36,2.36,0,0,0,0-.3A3.12,3.12,0,0,0,103,45Zm2.12-5.08a8.06,8.06,0,0,0-.83-.86c0,.42,0,.83-.07,1.28A2.5,2.5,0,0,0,105.15,39.94Z"/><path class="cls-1" d="M104.49,52.83a10.62,10.62,0,0,1-1.85,4.11c1.94.89,3.21,1.84,3.21,2.53,0,.36-.15.57-.41.57s-.34-.11-.62-.38a16.53,16.53,0,0,0-2.65-2.2,9.88,9.88,0,0,1-5.86,2.63c-.08,0-.12-.19,0-.22A10.52,10.52,0,0,0,101.45,57c-.72-.41-1.48-.78-2.24-1.12-.13.24-.25.47-.38.69a.41.41,0,0,1-.37.21c-.35,0-.59-.11-.59-.26a.8.8,0,0,1,.14-.35,23.4,23.4,0,0,0,1.62-3.35h-2.2a6.24,6.24,0,0,0-1,.09l-.12-.47a7.73,7.73,0,0,0,1.14.08h2.33c.16-.4.3-.8.41-1.16a14.15,14.15,0,0,0,.51-2c1.16.25,1.3.33,1.3.47s-.09.2-.48.3c-.24.81-.5,1.63-.79,2.39h4.74c.56-.68.65-.73.72-.73s.17.05.74.53c.27.23.31.31.31.38s0,.12-.15.12Zm-3.9,0a20.49,20.49,0,0,1-1.26,2.83c.84.27,1.68.57,2.49.92a9.2,9.2,0,0,0,1.7-3.75Z"/><path class="cls-1" d="M101.22,71.75a6.38,6.38,0,0,0,2.36-1,4,4,0,0,0,1.88-3.54,3.55,3.55,0,0,0-3.61-3.83,3,3,0,0,0-.39,0,3.69,3.69,0,0,1,.72,2.21,5.67,5.67,0,0,1-2,4.32,2.35,2.35,0,0,1-1.31.55.51.51,0,0,1-.55-.44c-.08-.33-.11-.34-.55-.52S97,68.65,97,67.74a4.78,4.78,0,0,1,4.86-4.68,4.3,4.3,0,0,1,4.55,4.29c0,2.53-2,4.25-4.73,4.46l-.47,0C101.16,71.85,101.15,71.77,101.22,71.75Zm-3.4-4c0,1.08.46,1.86,1.1,1.86a2,2,0,0,0,1.35-.92,5.72,5.72,0,0,0,1.34-3.56,3.09,3.09,0,0,0-.38-1.63A4.17,4.17,0,0,0,97.82,67.72Z"/><path class="cls-1" d="M104.56,76.93A9.1,9.1,0,0,0,107.44,78c.06,0,0,.12,0,.13-.3.07-.47.24-.61.72,0,.13-.11.18-.19.18a1.79,1.79,0,0,1-.5-.18,11.85,11.85,0,0,1-2.06-1.3,9.7,9.7,0,0,1-2.36-2.85,11.56,11.56,0,0,1-5.55,4.46c-.08,0-.16-.12-.09-.17a13.64,13.64,0,0,0,4.26-4,5.1,5.1,0,0,0,.65-1.27c1.15.33,1.4.43,1.4.56s-.09.15-.47.24A8.24,8.24,0,0,0,104.56,76.93Zm-6.34,6.51c0,.31-.13.43-.47.43s-.38-.08-.38-.33,0-.72,0-2.28c0-1.08,0-1.72-.06-2.42a5.59,5.59,0,0,1,1,.47H100c.32-.38.39-.42.48-.42s.13,0,.49.34c.15.15.19.23.19.3s0,.15-.3.31v.81c0,1.46,0,2.2,0,2.42s-.15.42-.47.42-.39-.1-.39-.37v-.33H98.22ZM100,79.6H98.22v2.9H100Zm-.7-2a4.51,4.51,0,0,0,.86.08h2.11c.41-.51.5-.56.58-.56s.16,0,.66.42c.21.18.27.25.27.32s0,.12-.15.12h-3.48a6.92,6.92,0,0,0-.73.06Zm3.58,3.75c0,2.17,0,3,0,3.19s-.18.4-.53.4-.36-.08-.36-.32,0-1.62,0-3.33,0-1.89-.06-2.47c.41.18.58.28,1,.48h1.89c.29-.37.36-.42.43-.42s.17,0,.56.34c.19.14.24.21.24.3s0,.16-.31.35v.76c0,1.78,0,2,0,2.15a.76.76,0,0,1-.43.78,1.4,1.4,0,0,1-.6.17c-.13,0-.16,0-.19-.24,0-.34-.18-.42-1.11-.63-.06,0-.06-.15,0-.15.64,0,.9,0,1.29,0,.15,0,.19,0,.19-.19v-3h-2Z"/><path class="cls-1" d="M96.54,86.2v3.27H106v.46h-10V86.2Z"/><path class="cls-1" d="M99.91,98.78c.13.18.16.19.56.37.84.37,1.06.68,1.06,1.55,0,.09,0,.37,0,.68,0,.48,0,.88,0,1.1,0,1,.11,1.24.48,1.24a1.65,1.65,0,0,0,.82-.32.83.83,0,0,1,.5-.21.59.59,0,0,1,.61.53c0,.2-.12.35-.43.44a6.07,6.07,0,0,1-.7.18,4.43,4.43,0,0,0-.82.28,4.88,4.88,0,0,0-1.74,1.1,1.54,1.54,0,0,0-.52,1.12c0,.78.64,1.21,1.79,1.21a6.61,6.61,0,0,0,1.71-.25,1.89,1.89,0,0,1,.5-.09c.3,0,.52.16.52.39,0,.44-1,.76-2.25.76-1.75,0-2.72-.7-2.72-2,0-1,.64-1.84,2.13-2.77a1.17,1.17,0,0,1-.63-1.24c0-.2,0-.55,0-1,.06-.64.09-.92.09-1.23a1.41,1.41,0,0,0-.07-.57c-.06-.13-.18-.21-.39-.37a1,1,0,0,1-.5-.6.89.89,0,0,1,0-.33S99.9,98.75,99.91,98.78Z"/><path class="cls-1" d="M97.91,112.58a1.61,1.61,0,0,1,.8,1.38,6.83,6.83,0,0,1-.14,1.25,13.74,13.74,0,0,0-.12,1.49,4.2,4.2,0,0,0,.44,2c.12.21.3.37.38.37s.14-.08.38-.44c.39-.59.74-1.21,1.12-1.87,0,0,.06,0,0,0-.25.83-.54,1.52-.73,2.19a2.09,2.09,0,0,0-.1.5,1.12,1.12,0,0,0,.09.41,1,1,0,0,1,.06.25.39.39,0,0,1-.43.37,1.69,1.69,0,0,1-1.17-.77,4.64,4.64,0,0,1-.83-2.91,9.29,9.29,0,0,1,.09-1.18c0-.31.08-.57.16-1.11a5.39,5.39,0,0,0,.09-.9,2.29,2.29,0,0,0-.19-1S97.87,112.56,97.91,112.58Zm6,1.52a2.27,2.27,0,0,1,1.53.63,2.29,2.29,0,0,1,.83,1.75c0,.58-.25,1-.64,1s-.39-.18-.39-.46,0-.42,0-.64a2.11,2.11,0,0,0-1.37-2.21S103.88,114.1,103.92,114.1Z"/><path class="cls-1" d="M100,128.12a9,9,0,0,1,1.69-1.2,3.52,3.52,0,0,1,1.71-.48,2.91,2.91,0,0,1,2.88,3.14,3.36,3.36,0,0,1-2.3,3.28,8.23,8.23,0,0,1-2.6.47s-.06-.1,0-.11a6.31,6.31,0,0,0,2.46-.87,3.17,3.17,0,0,0,1.53-2.86c0-1.54-.86-2.6-2.06-2.6a5,5,0,0,0-3.32,2c0,.25,0,.46,0,.62,0,1,.14,2.21.26,3.21a2.82,2.82,0,0,1,0,.42c0,.38-.22.67-.52.67s-.33-.17-.36-.59a3.61,3.61,0,0,0-.28-1.17c-.23-.59-.37-.9-.57-1.32-.21.3-.37.54-.53.81s-.34.47-.52.47-.36-.24-.36-.59a.67.67,0,0,1,.3-.6,12.66,12.66,0,0,0,1-1.2l1-1.29c0-.45.08-.91.11-1.31-.37.17-.73.34-1,.5s-.44.24-.61.24a.81.81,0,0,1-.77-.73.34.34,0,0,1,0-.19s0,0,0,0a.4.4,0,0,0,.32.17,3.32,3.32,0,0,0,1-.34c.38-.15.83-.32,1-.39,0-.35.07-.58.11-.93a7.57,7.57,0,0,0,.11-1,.74.74,0,0,0-.47-.69s0,0,0,0a.43.43,0,0,1,.26-.09,1.12,1.12,0,0,1,1,1,1.35,1.35,0,0,1-.1.47,6.62,6.62,0,0,0-.3,1.13c.28,0,.45.16.45.41a.69.69,0,0,1-.17.42c-.22.34-.34.57-.46.78Zm-.6,1.33c-.34.43-.49.66-.77,1.07l.84,1.45c0-.66-.07-1.35-.07-2.05Z"/><path class="cls-1" d="M99.65,140.51a19.77,19.77,0,0,1,2-1.53,3.07,3.07,0,0,1,1.63-.53,1.36,1.36,0,0,1,1.47,1.45,11.1,11.1,0,0,1-.24,2,11.83,11.83,0,0,0-.27,1.82c0,.66.32,1,.9,1a2.23,2.23,0,0,0,2-1.72,0,0,0,0,1,.08,0c-.2,1.48-1.07,2.39-2.24,2.39a1.44,1.44,0,0,1-1.51-1.58,10.77,10.77,0,0,1,.27-2.1,11.44,11.44,0,0,0,.24-1.81c0-.69-.3-1-.89-1a2.68,2.68,0,0,0-1.46.62,18.09,18.09,0,0,0-1.92,1.74c0,.17,0,.35,0,.4,0,.49,0,1,.13,2,.06.61.11.93.16,1.26a2.62,2.62,0,0,1,.07.55c0,.51-.2.8-.53.8a.27.27,0,0,1-.27-.15.84.84,0,0,1-.09-.42,7.16,7.16,0,0,0-.85-2.6c-.19.3-.36.54-.6.89s-.31.42-.47.42-.33-.29-.33-.63,0-.39.37-.69a12.29,12.29,0,0,0,1.85-2.33c0-.48.06-.87.1-1.33a7.29,7.29,0,0,0-.7.37c-.51.28-.65.34-.88.34a.84.84,0,0,1-.71-.78.87.87,0,0,1,0-.23,0,0,0,0,1,0,0,.47.47,0,0,0,.42.24c.23,0,.26,0,1.08-.36a6.68,6.68,0,0,1,.76-.3c.08-.55.12-.9.21-1.48a2.25,2.25,0,0,0,0-.36c0-.16,0-.24-.2-.47a.85.85,0,0,1-.19-.51.38.38,0,0,1,0-.19s0,0,0,0,.09.14.49.36.59.46.59.78a2,2,0,0,1-.13.61c-.07.31-.19.82-.24,1.12.29,0,.46.15.46.38s0,.2-.36.71c-.08.12-.16.25-.27.44Zm-.6,1.39c-.26.31-.47.64-.71,1,.31.53.54.92.83,1.53,0-.71-.12-1.41-.12-2.09Z"/><path class="cls-1" d="M106.47,148.74a1.76,1.76,0,0,1,.78,1.34.62.62,0,0,1-.62.66c-.33,0-.46-.23-.59-.51a4,4,0,0,0-1.78-2.14.17.17,0,0,1-.06-.14c0-.07,0-.12.14-.12A4.7,4.7,0,0,1,106.47,148.74Z"/><path class="cls-1" d="M75,10.66c0,.27-.19.4-.57.4S74,11,74,10.72c0-.43,0-1.1,0-3.4A17.43,17.43,0,0,0,74,5.45,8.35,8.35,0,0,1,75.11,6h2V3.24H73.38a6.29,6.29,0,0,0-1,.07l-.12-.46a4.88,4.88,0,0,0,1,.09h3.82V1.79A17,17,0,0,0,77.1,0c1.26.13,1.41.23,1.41.36s-.08.2-.43.34V2.94h3.24c.6-.71.69-.77.77-.77s.16.06.78.56c.28.24.34.32.34.39s0,.12-.15.12h-5V6H80.3c.38-.43.46-.47.53-.47s.14,0,.6.4c.19.17.24.26.24.33s0,.16-.38.34V7.77c0,1.8,0,2.58,0,2.84s-.2.42-.57.42-.37-.1-.37-.34v-.53H75Zm5.4-4.38H75V9.86h5.4Z"/><path class="cls-1" d="M78,12.76a1.12,1.12,0,0,1,.27,0,1,1,0,0,1,.92,1.09,1.6,1.6,0,0,1-.25.82,8.23,8.23,0,0,1-1.37,1.49,10.5,10.5,0,0,0-1.28,1.31.81.81,0,0,0-.21.54.71.71,0,0,0,.24.53,12.34,12.34,0,0,0,1.06.83A7.38,7.38,0,0,1,79,20.92a2.43,2.43,0,0,1,.33,1.32c0,.52-.24.84-.6.84s-.36-.14-.38-.62a2.49,2.49,0,0,0-.48-1.63,6.13,6.13,0,0,0-1.06-1.15c-.36-.33-.64-.57-.9-.82a1.22,1.22,0,0,1-.34-.85,1.45,1.45,0,0,1,.24-.78A13.5,13.5,0,0,1,77,15.68c1-1.33,1.27-1.79,1.27-2.28a.69.69,0,0,0-.31-.6S77.92,12.77,78,12.76Z"/><path class="cls-1" d="M73.52,28.57a1,1,0,0,0,.89.48,4,4,0,0,0,1-.16,10,10,0,0,0,.29-2c0-.22,0-.32-.06-.4s-.18-.06-.37-.06-.1,0-.1-.07a.62.62,0,0,1,.13-.32.66.66,0,0,1,.54-.28c.39,0,.59.28.59.84a12.08,12.08,0,0,1-.32,2.2,4.19,4.19,0,0,1,1.16-.21c.89,0,1.29.67,1.29,2.08a5.48,5.48,0,0,1-.92,3.22,2.34,2.34,0,0,1-1.63,1c-.43,0-.59-.16-.89-1.32-.08-.4-.16-.67-.27-1.1-.48,1-.84,1.47-1.15,1.47s-.39-.25-.39-.59,0-.3.36-.6a7.79,7.79,0,0,0,1.58-3.11,2.5,2.5,0,0,1-.88.22,1,1,0,0,1-.89-1.06.47.47,0,0,1,0-.22S73.51,28.55,73.52,28.57Zm1.38,3.69a8,8,0,0,0,.54,1.1c.24.38.4.51.59.51.9,0,1.74-1.7,1.74-3.52,0-.94-.15-1.34-.54-1.34a4.05,4.05,0,0,0-1.28.38A13.9,13.9,0,0,1,74.9,32.26Zm4.75-3.68a1.54,1.54,0,0,1,1.13-.47,2.1,2.1,0,0,1,1.91,2c0,.59-.33,1-.75,1-.14,0-.19,0-.35-.24a.79.79,0,0,0-.51-.26c-.26-.05-.48-.08-.74-.15,0,0,0,0,0,0,1.2-.07,1.47-.16,1.47-.49a1.65,1.65,0,0,0-1.44-1.48,1.86,1.86,0,0,0-.7.17S79.63,28.61,79.65,28.58Z"/><path class="cls-1" d="M75.81,39.69a1.47,1.47,0,0,0-.16.68,2.48,2.48,0,0,0,0,.33,1.33,1.33,0,0,1,0,.36c0,.14,0,.31-.06.68-.06.54-.11.92-.17,1.46a5.79,5.79,0,0,0,0,.74c0,.31,0,.41.18.41s.12,0,1-.64a5.59,5.59,0,0,1,2.77-1.23,2,2,0,0,1,1.78,2.07,2.88,2.88,0,0,1-2.13,2.59,7.77,7.77,0,0,1-2.78.51c-.16,0-.36,0-.64,0a.07.07,0,0,1,0-.13,6.81,6.81,0,0,0,2.67-.66,3.11,3.11,0,0,0,2.07-2.59c0-.82-.47-1.45-1.08-1.45a4.16,4.16,0,0,0-2,1.17c-.25.24-.68.66-1,1a3.17,3.17,0,0,0-.2.27.45.45,0,0,1-.41.17,1,1,0,0,1-.65-.27.44.44,0,0,1-.15-.33s0-.1,0-.14a7.7,7.7,0,0,1-.07-1.23,10,10,0,0,1,.31-2.57,2.77,2.77,0,0,1,.63-1.27S75.84,39.64,75.81,39.69Zm.36-2.19c.21.13.26.15.86.17a1.84,1.84,0,0,1,1,.23.87.87,0,0,1,.43.73.48.48,0,0,1-.46.51,1.28,1.28,0,0,1-.35-.09,1.52,1.52,0,0,0-.37,0,3.6,3.6,0,0,0-.75.15s-.07,0,0-.07l.79-.36c.17-.07.22-.11.22-.18s0-.11-.19-.15l-.39-.12a1.3,1.3,0,0,1-.57-.36.63.63,0,0,1-.19-.41S76.15,37.48,76.17,37.5Z"/><path class="cls-1" d="M75.11,59.5c0,.29-.19.4-.58.4s-.4-.09-.4-.33c0-.62.08-1.49.08-5.51,0-2.2,0-3.26-.08-4.24a6.07,6.07,0,0,1,1.12.54h5c.42-.44.48-.48.55-.48s.17,0,.6.4c.19.17.22.24.22.31s0,.18-.33.36v2.39c0,3.85.06,5.53.06,6.06,0,.28-.19.4-.59.4s-.39-.09-.39-.33v-.55H75.11Zm5.23-8.84H75.11v3.73h5.23Zm-5.23,8h5.23V54.69H75.11Z"/><path class="cls-1" d="M77.13,69.51c0-1.34.05-2.7.06-4a12.06,12.06,0,0,1-5,5c-.07,0-.19-.11-.12-.16a13.5,13.5,0,0,0,4.57-5.79H73.58a6.51,6.51,0,0,0-.94.07l-.12-.46a5.8,5.8,0,0,0,1,.09h3.56v-.45a18.6,18.6,0,0,0-.07-2.22c1.12.11,1.34.2,1.34.35s-.07.18-.39.34v2h3.23c.5-.65.59-.71.67-.71s.16.06.74.53c.26.21.32.28.32.36s0,.12-.16.12H78.14a9.14,9.14,0,0,0,2,2.9,8.81,8.81,0,0,0,3.26,2s0,.1,0,.12c-.33.08-.48.21-.66.67,0,.12-.1.18-.18.18a1.22,1.22,0,0,1-.51-.23,10.64,10.64,0,0,1-2.42-2.23A12.32,12.32,0,0,1,78,64.71c0,1.6.06,3.21.08,4.8h1c.44-.56.54-.62.61-.62s.16.06.66.48c.22.18.28.26.28.33s0,.11-.16.11H78c0,1.38,0,2.08,0,2.35s-.21.41-.6.41-.41-.11-.41-.35,0-1,.05-2.41H75.59a7.24,7.24,0,0,0-.86.07l-.11-.45a4.4,4.4,0,0,0,.92.08Z"/><path class="cls-1" d="M77.85,81.31a5.18,5.18,0,0,0,2.41,1.82,9.61,9.61,0,0,0,3,.54s0,.12,0,.13a1.05,1.05,0,0,0-.7.79.18.18,0,0,1-.19.14,3.17,3.17,0,0,1-.59-.11,8.57,8.57,0,0,1-2.07-.89,5.67,5.67,0,0,1-2.1-2.31,3.8,3.8,0,0,1-1.31,1.93,7.36,7.36,0,0,1-4,1.44c-.09,0-.12-.18,0-.21a6.71,6.71,0,0,0,3.54-1.81,4.14,4.14,0,0,0,.89-1.46H73.45a5.88,5.88,0,0,0-.92.07l-.12-.46a6.24,6.24,0,0,0,1,.09h3.38A5.29,5.29,0,0,0,77,79.8c1.18.16,1.32.2,1.32.36s-.08.2-.42.31c0,.18-.07.35-.11.54H81.4c.49-.59.58-.64.65-.64s.17,0,.72.48c.23.18.28.27.28.35s0,.11-.16.11Zm3.53-2c.5-.59.6-.65.67-.65s.17.06.7.49c.22.2.28.27.28.34s0,.12-.16.12H73.42a5.15,5.15,0,0,0-.94.07l-.12-.47a4.78,4.78,0,0,0,1,.1h3.74V77.76H74.57a4.08,4.08,0,0,0-.84.07l-.12-.47a4.61,4.61,0,0,0,.93.1h2.59V76.05H73.88a4.27,4.27,0,0,0-.85.08l-.13-.47a4.7,4.7,0,0,0,1,.09h4.66a9.67,9.67,0,0,0,.66-1.27,3.41,3.41,0,0,0,.23-.68c.94.37,1.23.53,1.23.66s-.08.18-.52.2a7,7,0,0,1-1.18,1.09H81c.51-.55.59-.61.66-.61s.17.06.67.45c.24.2.3.27.3.35s0,.11-.16.11H78v1.41H80.3c.47-.54.56-.6.64-.6s.16.06.67.44c.21.18.26.27.26.34s0,.12-.16.12H78v1.51Zm-5.66-4A2.66,2.66,0,0,0,75,74s0-.11.08-.09c1,.21,1.59.73,1.59,1.23a.49.49,0,0,1-.53.52C75.89,75.65,75.8,75.56,75.72,75.28Z"/><path class="cls-1" d="M79.59,93.09a7.75,7.75,0,0,0,3.7,2.81c.06,0,0,.13,0,.14a.8.8,0,0,0-.62.63c-.06.15-.12.2-.22.2a1.76,1.76,0,0,1-.55-.28,9.48,9.48,0,0,1-3-3.45,10.2,10.2,0,0,1-1.05-3.61,8.7,8.7,0,0,1-2.74,5.73A11.93,11.93,0,0,1,72.43,97c-.07,0-.17-.12-.09-.17,3-2,4.24-4.35,4.58-8.19a10.24,10.24,0,0,0,0-2.08c1.25.12,1.45.17,1.45.38s-.08.16-.42.31c0,.32,0,.63,0,1A9.17,9.17,0,0,0,79.59,93.09Z"/><path class="cls-1" d="M77.22,108.65a6.38,6.38,0,0,0,2.36-1,4,4,0,0,0,1.88-3.54,3.55,3.55,0,0,0-3.61-3.83,3,3,0,0,0-.39,0,3.69,3.69,0,0,1,.72,2.21,5.67,5.67,0,0,1-2,4.32,2.35,2.35,0,0,1-1.31.55.51.51,0,0,1-.55-.44c-.08-.33-.11-.34-.55-.52s-.72-.91-.72-1.82A4.78,4.78,0,0,1,77.88,100a4.3,4.3,0,0,1,4.55,4.29c0,2.53-2,4.25-4.73,4.46l-.47,0C77.16,108.75,77.15,108.67,77.22,108.65Zm-3.4-4c0,1.08.46,1.86,1.1,1.86a2,2,0,0,0,1.35-.92A5.72,5.72,0,0,0,77.61,102a3.09,3.09,0,0,0-.38-1.63A4.17,4.17,0,0,0,73.82,104.62Z"/><path class="cls-1" d="M77.85,115.52a7,7,0,0,1-1,.73,4.77,4.77,0,0,1,1.68,3.67,2,2,0,0,1-.39,1.44,1.28,1.28,0,0,1-1,.42c-.13,0-.17,0-.22-.24s-.29-.49-1.28-.72c-.09,0-.07-.19,0-.18a12.9,12.9,0,0,0,1.51.11.35.35,0,0,0,.35-.19,2.2,2.2,0,0,0,.11-.8c0-.22,0-.42,0-.63a11.91,11.91,0,0,1-5.2,1.84c-.09,0-.1-.16,0-.18a14,14,0,0,0,5.1-2.46,4.89,4.89,0,0,0-.21-.72,10.17,10.17,0,0,1-4.83,1.65c-.09,0-.12-.16,0-.19A11.58,11.58,0,0,0,77,116.91c-.11-.18-.23-.34-.35-.52a10.05,10.05,0,0,1-3.93,1.25c-.09,0-.12-.15,0-.18a9.78,9.78,0,0,0,3.93-1.94H74.66c0,.28-.16.4-.51.4s-.36-.1-.36-.29,0-.38,0-1.28v-.71a10.41,10.41,0,0,1-1.16.55c-.07,0-.16-.12-.08-.17a8.61,8.61,0,0,0,2.5-2.3,4.61,4.61,0,0,0,.63-1.16c.94.31,1.16.42,1.16.55s-.07.17-.49.23l-.31.42h2.31c.29-.33.38-.4.48-.4s.22.07.6.41c.19.18.25.27.25.38s-.06.17-.51.25a13.48,13.48,0,0,1-1.18,1h2.9c.35-.39.42-.43.5-.43s.16,0,.54.34c.17.17.22.24.22.31s-.06.15-.31.3v.32c0,.78,0,1.08,0,1.18,0,.3-.14.42-.51.42s-.34-.09-.36-.28H78.54a6.39,6.39,0,0,0,.91,2.09,6.57,6.57,0,0,0,1.09-1,2.8,2.8,0,0,0,.48-.74c.72.43,1,.66,1,.78s-.1.19-.58.15a8.24,8.24,0,0,1-1.86,1,6,6,0,0,0,.76.83,6.29,6.29,0,0,0,2.72,1.49c.07,0,.06.13,0,.15-.33.09-.43.2-.58.62,0,.16-.09.21-.19.21a1.53,1.53,0,0,1-.43-.19A7.8,7.8,0,0,1,79.72,119a7.9,7.9,0,0,1-1.47-3.52Zm-2-3.46a7.86,7.86,0,0,1-1.29,1.15c.08,0,.15.1.23.15h2.89a13.37,13.37,0,0,0,.79-1.3Zm-1.15,1.6v1.56h2.67v-1.56Zm6.36,0H78.14v1.56H81Z"/><path class="cls-1" d="M75.91,127.07c0,.24-.13.33-.41.33s-.33-.08-.33-.29,0-.32,0-.84c0,.08-.17.12-.43.16a9,9,0,0,1-1,1.57c.47.09.56.13.56.25s-.06.16-.35.29v1.36c0,2.28,0,3.41,0,3.75s-.17.42-.5.42-.4-.11-.4-.36.06-1.1.08-3.49c0-.5,0-1,0-1.53a8.88,8.88,0,0,1-1.19,1c-.06,0-.16-.1-.11-.15a11.57,11.57,0,0,0,1.78-2.7,4.51,4.51,0,0,0,.44-1.21c.84.31,1,.4,1.09.49v-.28a14.2,14.2,0,0,0-.06-1.81c1.08.14,1.14.16,1.14.32s-.07.17-.37.28v1.85h.86v-2.12c0-.5,0-.81,0-1.14,1,.11,1.16.21,1.16.33s-.09.15-.35.27v2.66h.9v-1.34a7.12,7.12,0,0,0-.06-1.11c1,.14,1.14.19,1.14.34s-.07.16-.34.27v.55c0,1,0,1.52,0,1.67s-.17.33-.46.33-.31-.08-.31-.27v-.14H75.91ZM72,126.25a9.51,9.51,0,0,0,1.52-2.11A4.41,4.41,0,0,0,74,123c.76.25,1.17.48,1.17.61s-.1.18-.5.2a8,8,0,0,1-2.49,2.57C72.07,126.47,72,126.31,72,126.25ZM82.49,126a12,12,0,0,1-1.32,4.63c.08.11.15.23.22.34a5.8,5.8,0,0,0,2.18,2c.05,0,0,.11,0,.12a.87.87,0,0,0-.59.56c-.07.17-.08.19-.16.19s-.16-.07-.34-.25a7.67,7.67,0,0,1-1.63-2.36A8.13,8.13,0,0,1,77.58,134c-.08,0-.18-.12-.11-.16a9,9,0,0,0,3-3.33,14.91,14.91,0,0,1-.67-3,7.54,7.54,0,0,1-.55.8.28.28,0,0,1,.08.17c0,.07,0,.12-.15.12H77.38v1.33h.52c.35-.44.43-.5.5-.5s.18.06.59.38c.17.15.23.23.23.3s0,.12-.16.12H77.38v1.38c.62-.12,1.24-.25,1.79-.39.09,0,.12.14,0,.18a19.48,19.48,0,0,1-4,1.33c-.07.25-.13.36-.24.36s-.17-.08-.45-1.14c.28,0,.64,0,1.06-.07l1-.12v-1.53h-.76a4.14,4.14,0,0,0-.64.07l-.12-.45a3.51,3.51,0,0,0,.76.08h.76v-1.33h-1a2.85,2.85,0,0,0-.66.07l-.12-.45a3.66,3.66,0,0,0,.77.08H78c.36-.45.45-.51.53-.51s.17.06.59.39a11.8,11.8,0,0,0,1-3.44,8.67,8.67,0,0,0,.14-1.52c.91.18,1.23.3,1.23.44s-.11.19-.37.28a16.09,16.09,0,0,1-.52,1.85H82c.41-.54.49-.59.57-.59s.16,0,.6.44c.19.17.25.26.25.35s0,.1-.17.1Zm-2,0a8.36,8.36,0,0,1-.49,1.1,10.43,10.43,0,0,0,.78,2.75,12.58,12.58,0,0,0,.85-3.85Z"/><path class="cls-1" d="M73.27,137.78a.42.42,0,0,0,.44.31,4.79,4.79,0,0,0,.77-.1c1.62-.32,3.21-.64,4.8-1a5.46,5.46,0,0,0,1.16-.32.76.76,0,0,1,.3-.07c.58,0,1.18.32,1.18.62s-.21.42-.53.42a5.93,5.93,0,0,1-.77-.09,5.66,5.66,0,0,0-.63,0c-.94,0-1.55.19-1.81.56a5.78,5.78,0,0,0-.59,2.92,4.55,4.55,0,0,0,.53,2.52,2.66,2.66,0,0,0,1.42,1,2,2,0,0,1,.64.3.57.57,0,0,1,.13.36c0,.26-.19.43-.53.43a2.51,2.51,0,0,1-1.3-.49c-1-.65-1.53-1.74-1.53-3.44a6.75,6.75,0,0,1,1-3.82,28.66,28.66,0,0,0-3.09.91,2.47,2.47,0,0,1-.93.24.84.84,0,0,1-.84-.78.59.59,0,0,1,.16-.43S73.26,137.76,73.27,137.78ZM79.83,139a2.63,2.63,0,0,1,.45.07c.73.18,1.18.56,1.18,1a.39.39,0,0,1-.36.44c-.2,0-.22,0-.46-.5a2.44,2.44,0,0,0-.82-1S79.81,139,79.83,139Zm1.29-.54h.22c.81.07,1.43.5,1.43,1a.38.38,0,0,1-.34.4c-.16,0-.24-.07-.45-.43a2.7,2.7,0,0,0-.88-.93S81.09,138.42,81.12,138.42Z"/><path class="cls-1" d="M76.39,151.43a2.19,2.19,0,0,1-1-.32.81.81,0,0,1-.28-.67.8.8,0,0,1,0-.19,0,0,0,0,1,0,0,.64.64,0,0,0,.36.36,2.55,2.55,0,0,0,1,.1,8.49,8.49,0,0,0,.24-1.51,1,1,0,0,0-.58-1s0,0,0,0a.48.48,0,0,1,.3-.09,1.29,1.29,0,0,1,1.15,1.2,1.36,1.36,0,0,1-.12.57c-.11.31-.21.6-.32.88.4,0,.63.22.63.53s-.06.31-.45.42c-.15.05-.28.07-.49.13-.21.87-.33,1.41-.51,2.28a2.31,2.31,0,0,0,.66-.07.92.92,0,0,1,.29,0c.35,0,.54.14.54.4s-.53.54-1.36.55h-.25c0,.34,0,.52,0,.77,0,1.22.58,1.89,1.66,1.89a1.73,1.73,0,0,0,1.84-1.72c0-1-.69-2.09-2-3.16,0,0,0-.07,0-.06,1.73.85,2.81,2.16,2.81,3.42A2.4,2.4,0,0,1,78,158.33a2.21,2.21,0,0,1-2.35-2.53,9.63,9.63,0,0,1,.06-1,1.42,1.42,0,0,1-.9-1.38,1.25,1.25,0,0,1,.07-.4s0,0,0,0c.06.57.3.82.92,1,.14-.82.24-1.32.4-2.12a5.16,5.16,0,0,0-1,.43s-.07,0,0-.05a7,7,0,0,1,1.12-.84Z"/><path class="cls-1" d="M74.57,162.41a1.3,1.3,0,0,0,.75.18,5.22,5.22,0,0,0,1.36-.26c0-.67.06-1.14.06-1.27s0-.28-.23-.4-.11-.09-.11-.12.27-.34.48-.34a.76.76,0,0,1,.77.62.69.69,0,0,1,0,.16,1.94,1.94,0,0,0,.86.36c.15,0,.24,0,.39,0a.36.36,0,0,1,.36.39c0,.43-.63.84-1.93,1.24,0,.54-.06.87-.08,1.48a3.87,3.87,0,0,1,1.18-.16,1,1,0,0,0-.25-.62s0,0,0,0a1,1,0,0,1,.75.66,3.2,3.2,0,0,1,3.12,3.11A3.07,3.07,0,0,1,80.54,170a6.13,6.13,0,0,1-3.13.82c-.06,0-.07-.1,0-.11a6.08,6.08,0,0,0,1.84-.61,3.18,3.18,0,0,0,1.87-2.88,2.47,2.47,0,0,0-2.11-2.6,6.91,6.91,0,0,1-1.4,3.35,1.19,1.19,0,0,0,.07.27,1.32,1.32,0,0,1,0,.24c0,.19-.12.29-.34.29a.47.47,0,0,1-.35-.16,3.71,3.71,0,0,1-2.33,1.23.5.5,0,0,1-.57-.51c0-.24,0-.29-.32-.47a.78.78,0,0,1-.34-.74c0-1.35,1.39-2.93,3.14-3.59,0-.49,0-.92.06-1.49a5,5,0,0,1-1.08.14c-.51,0-.79-.24-1-.78C74.52,162.41,74.54,162.39,74.57,162.41Zm2,2.6a4.07,4.07,0,0,0-2.35,3.26c0,.52.19.8.55.8a3.21,3.21,0,0,0,2-1.17,16.52,16.52,0,0,1-.16-2.56Zm.72,1.58a3.68,3.68,0,0,0,.07.61,6.12,6.12,0,0,0,1-2.59,3.59,3.59,0,0,0-1.18.18C77.21,165.39,77.24,166,77.29,166.59Zm.08-4.42a3,3,0,0,0,.87-.45,5.56,5.56,0,0,0-.66-.62A9.23,9.23,0,0,0,77.37,162.17Z"/><path class="cls-1" d="M75.66,172.5a1,1,0,0,1,.21,0,1.19,1.19,0,0,1,1.17,1.1,2.78,2.78,0,0,1-.31,1.09,7,7,0,0,0-.78,2.84,2.9,2.9,0,0,0,.09.73,9.77,9.77,0,0,1,.89-2c.49-.84.92-1.19,1.44-1.19,1.09,0,1.92,1.49,1.92,3.46a4.24,4.24,0,0,1-2,3.91,6.65,6.65,0,0,1-2.39.78c-.07,0-.09-.08,0-.1,2.42-.72,3.54-2.27,3.54-5,0-1.6-.47-2.73-1.13-2.73-.48,0-1,.65-1.36,1.79-.1.3-.21.73-.3,1.09a2.6,2.6,0,0,0,0,.46,1.41,1.41,0,0,0,.12.56,1.66,1.66,0,0,1,.1.47.37.37,0,0,1-.39.4c-.53,0-1-1.17-1-2.5a10,10,0,0,1,.41-2.67,8.23,8.23,0,0,0,.35-1.61.89.89,0,0,0-.49-.85S75.63,172.51,75.66,172.5Z"/><path class="cls-1" d="M80.14,188.71a.34.34,0,0,1,.38.35c0,.24-.21.44-.62.65a6.77,6.77,0,0,1-1.78.56,18.36,18.36,0,0,0,.28,2.13c1.36.44,2.48,1.32,2.48,1.95a.36.36,0,0,1-.35.38c-.17,0-.23,0-.53-.4a3.47,3.47,0,0,0-1.49-1.15,1.93,1.93,0,0,1,0,.42,1.61,1.61,0,0,1-1.82,1.61c-.75,0-1.27-.23-1.39-.65-.06-.21-.06-.21-.26-.33a.65.65,0,0,1-.25-.51c0-.84,1-1.48,2.26-1.48a2.73,2.73,0,0,1,.61.06c-.11-.82-.14-1.26-.18-1.93-.41,0-.68.07-1,.07-1.14,0-1.61-.34-1.85-1.35,0,0,0,0,0,0a1.5,1.5,0,0,0,1.46.72,7.32,7.32,0,0,0,1.31-.13c0-.66,0-1.13.07-1.71a3.31,3.31,0,0,1-.62,0,1.27,1.27,0,0,1-1.21-1s0,0,0,0a1.09,1.09,0,0,0,1,.41,3.23,3.23,0,0,0,.87-.1c0-.43.09-1,.09-1.19,0-.58-.16-.9-.74-.93,0,0,0,0,0-.06a.7.7,0,0,1,.59-.29,1,1,0,0,1,1,1,2.59,2.59,0,0,1-.12.74c0,.18-.08.35-.15.62a3.93,3.93,0,0,0,.63-.25.76.76,0,0,1,.42-.14.33.33,0,0,1,.36.32c0,.21-.16.37-.51.54a4.38,4.38,0,0,1-1,.33c-.05.48-.07.93-.07,1.23s0,.3,0,.44a4.28,4.28,0,0,0,1.29-.44c-.34-.4-.56-.63-.87-1,0,0,0-.08,0-.05.9.62,1,.67,1.33.67ZM77,192.88c-1,0-1.62.36-1.62.93,0,.4.48.69,1.16.69s1.26-.38,1.26-1.12c0-.12,0-.24,0-.39A3.39,3.39,0,0,0,77,192.88Z"/><path class="cls-1" d="M74.72,197.63a.71.71,0,0,1,.39-.11A1.43,1.43,0,0,1,76.46,199a10.25,10.25,0,0,1-.25,1.79,21.9,21.9,0,0,0-.48,3.55,1.8,1.8,0,0,0,2,2,4.42,4.42,0,0,0,4-3.16s.06,0,.06,0c-.39,2.42-2,4-4.1,4-1.68,0-2.59-1.07-2.59-3.06a29.28,29.28,0,0,1,.23-3.1,20.33,20.33,0,0,0,.13-2.25c0-.69-.18-1-.72-1.18C74.7,197.66,74.7,197.64,74.72,197.63Z"/><path class="cls-1" d="M73.57,212.28c.11.31.19.41.53.41a7.21,7.21,0,0,0,1.62-.28,10.49,10.49,0,0,0,.25-1.95.34.34,0,0,0-.25-.38c-.11,0-.13-.07-.13-.1a.27.27,0,0,1,.12-.2.58.58,0,0,1,.38-.15c.4,0,.85.32.85.59,0,.09,0,.1-.11.31a2.61,2.61,0,0,0-.1.36,2.1,2.1,0,0,0,1.17.59c.3,0,.43.1.43.35s-.19.5-.64.72a7.44,7.44,0,0,1-1.42.53,46,46,0,0,1-1.4,5.27c-.35,1-.51,1.22-.79,1.22s-.41-.32-.41-.72a.76.76,0,0,1,.16-.5,3.68,3.68,0,0,0,.4-.75,27.78,27.78,0,0,0,1.32-4.36,6.25,6.25,0,0,1-1.49.26.64.64,0,0,1-.69-.65,1.28,1.28,0,0,1,.15-.57S73.56,212.25,73.57,212.28Zm3.84-.43c-.25-.29-.46-.53-.73-.82-.06.39-.18.91-.24,1.21A5.32,5.32,0,0,0,77.41,211.85Zm.36,5.09a1.63,1.63,0,0,0,1.83,1.55,5.75,5.75,0,0,0,1.44-.21,1.57,1.57,0,0,1,.46-.09.49.49,0,0,1,.53.45c0,.45-.74.71-1.89.71-1.57,0-2.5-.73-2.5-2a1.2,1.2,0,0,1,.08-.43S77.76,216.91,77.77,216.94Zm.48-3.26a3.22,3.22,0,0,1,2.27-1c.61,0,1.11.32,1.12.7s-.13.4-.43.41a1.65,1.65,0,0,0-.59.14l-1.06.51s-.06,0,0,0c.38-.31.65-.53.86-.72s.16-.18.16-.22-.17-.13-.48-.13a5.1,5.1,0,0,0-1.79.41S78.22,213.71,78.25,213.68Z"/><path class="cls-1" d="M50.79,7.54a13.51,13.51,0,0,0,1.55-.62c.06,0,.15.08.09.13A15.07,15.07,0,0,1,49.08,9c0,.36-.11.48-.22.48s-.26-.19-.61-1.28c.28,0,.57-.08.89-.14L50,7.81V4.52H49.3a5.13,5.13,0,0,0-.71.07l-.12-.45a3.41,3.41,0,0,0,.81.08H50V1.35h-.8a3.32,3.32,0,0,0-.73.08L48.31,1a4.2,4.2,0,0,0,.83.09h1.94c.43-.52.52-.58.59-.58s.17.06.64.43c.2.17.26.24.26.31s0,.13-.17.13H50.79V4.22h.4c.36-.45.44-.51.52-.51s.15.06.56.39c.16.15.23.23.23.3s0,.12-.17.12H50.79Zm-.16,3.31a5.27,5.27,0,0,0,3.15-2.29,3,3,0,0,0,.35-1.32c.95.17,1.2.27,1.2.42s-.07.17-.4.28c-.47,1.68-1.8,2.67-4.26,3.08C50.6,11,50.55,10.88,50.63,10.85Zm6.15-1.21c0,.31.11.4.68.4s.81,0,1-.24a4.81,4.81,0,0,0,.52-1.47s.12,0,.12,0c0,.36,0,.8,0,1.05s0,.29.18.35a.38.38,0,0,1,.18.36c0,.24-.18.44-.5.54a4.78,4.78,0,0,1-1.52.17c-1.15,0-1.47-.3-1.47-1,0-.29,0-.65,0-1.14V7H53.78v.16c0,.26-.18.39-.53.39s-.38-.1-.38-.33c0-.48.06-1.18.06-4A22.62,22.62,0,0,0,52.83.3a5.29,5.29,0,0,1,1,.48h3.47c.38-.4.44-.43.51-.43s.16,0,.54.35c.2.16.24.22.24.3s-.08.18-.34.37V3c0,2.61,0,3.79,0,4.16s-.18.41-.5.41-.41-.1-.41-.35V7h-.62Zm.62-8.56H53.78V2.73H57.4ZM53.78,4.69H57.4V3H53.78Zm0,2H57.4V5H53.78Z"/><path class="cls-1" d="M50.64,18.36c0,2.83,0,4.15,0,4.55s-.17.42-.5.42-.42-.09-.42-.36,0-1.1.06-3.87c0-.74,0-1.49,0-2.23a10.19,10.19,0,0,1-1.59,1.56c-.08.05-.21-.09-.15-.15a12.32,12.32,0,0,0,2.45-4.23,8.41,8.41,0,0,0,.4-1.59c.89.25,1.33.43,1.33.57s-.14.21-.46.24a14.94,14.94,0,0,1-1.41,2.83c.54.1.62.16.62.27s0,.15-.36.28Zm1.62-1.87a4.6,4.6,0,0,0-.78.13l-.18-.41c.42,0,.74,0,.92,0l1.7-.15c-.07-.63-.12-1.33-.14-2.09a8.62,8.62,0,0,0-.13-1.46c1.29.18,1.39.22,1.39.36s-.07.18-.41.33A22.15,22.15,0,0,0,54.78,16l2.49-.22c.44-.66.5-.7.58-.7s.16,0,.78.43c.26.17.3.24.3.32s0,.1-.15.11l-4,.35a11.71,11.71,0,0,0,.51,2.24,5.73,5.73,0,0,0,2.36,3.26.84.84,0,0,0,.41.17c.08,0,.26-.31.76-1.58,0-.06.15,0,.14,0-.17,1-.23,1.55-.23,1.66a.28.28,0,0,0,.12.27.53.53,0,0,1,.21.39.45.45,0,0,1-.48.41,3.13,3.13,0,0,1-1.52-.59,6.94,6.94,0,0,1-2.48-3.36A12.56,12.56,0,0,1,54,16.34Zm4.28-1.95a3,3,0,0,0-1-1.28c-.05,0,0-.13.07-.12,1.1.23,1.82.82,1.82,1.35,0,.29-.17.51-.41.51S56.68,14.9,56.54,14.54Z"/><path class="cls-1" d="M50.58,26.46c.08.31.18.39.43.39a5.8,5.8,0,0,0,1.22-.19,3,3,0,0,0,.18-.86c0-.17-.06-.25-.22-.38s-.15-.11-.15-.16.19-.28.4-.28a.78.78,0,0,1,.77.63,2.55,2.55,0,0,0,.79.19c.13,0,.26,0,.39,0a.38.38,0,0,1,.4.39c0,.41-.65.79-2.14,1.22-.32.73-.6,1.3-1,2A2.63,2.63,0,0,1,53,28.81c.46,0,.7.22.85.7A6.47,6.47,0,0,1,54.06,31c.86-1.39,1.82-2.12,2.8-2.12a1.22,1.22,0,0,1,1.27,1.2,1.38,1.38,0,0,1-.66,1.16A6.31,6.31,0,0,1,55.1,32c-.5.12-.67.15-1,.24a8.28,8.28,0,0,0,0,.84c0,.65-.11.85-.37.85a.59.59,0,0,1-.52-.62,2,2,0,0,1,.06-.36,2.85,2.85,0,0,0,.06-.52c-.73.29-1.06.65-1.06,1.12s.47.85,1.29.85a4.67,4.67,0,0,0,1.18-.17,2.07,2.07,0,0,1,.53-.1c.33,0,.57.17.57.41s-.1.29-.32.4A4.86,4.86,0,0,1,54,35.2c-1.28,0-2.09-.55-2.09-1.42s.46-1.23,1.51-1.65A11,11,0,0,0,53.42,31c0-1.51-.11-1.87-.53-1.87a2.31,2.31,0,0,0-1.3.8,10.26,10.26,0,0,0-1,1.28c-.42.61-.5.73-.7.73s-.35-.26-.35-.73c0-.31.08-.44.43-.69a4.4,4.4,0,0,0,.9-1A11.83,11.83,0,0,0,52,27.49a5.25,5.25,0,0,1-.82.1.65.65,0,0,1-.73-.67,1.28,1.28,0,0,1,.1-.47S50.57,26.42,50.58,26.46Zm3.21-.29c-.19-.15-.38-.31-.6-.47a4.36,4.36,0,0,1-.24.81A4.39,4.39,0,0,0,53.79,26.17ZM55,31.66c1.73-.55,2.24-.92,2.24-1.63a.67.67,0,0,0-.72-.73c-1,0-2,1.21-2.33,2.63C54.58,31.8,54.62,31.77,55,31.66Z"/><path class="cls-1" d="M57.15,46.91c.62-.72.71-.77.78-.77s.17,0,.78.57c.31.24.36.32.36.4s0,.1-.16.1h-9.3a6.41,6.41,0,0,0-1.06.09l-.12-.47a7,7,0,0,0,1.18.08h3.67V43.59H51a5.39,5.39,0,0,0-1,.07l-.12-.45a6.65,6.65,0,0,0,1,.08h2.31V40.46H50.84A7.58,7.58,0,0,1,48.67,43c-.07.05-.2-.07-.14-.13a10.33,10.33,0,0,0,1.95-3.76,7.26,7.26,0,0,0,.25-1.23c1,.3,1.3.41,1.3.58s-.12.18-.47.26a14.07,14.07,0,0,1-.56,1.4h2.28v-.63a23,23,0,0,0-.07-2.45c1.27.12,1.41.23,1.41.37s-.1.21-.44.34v2.37h2.37c.58-.69.66-.77.73-.77s.16.08.76.57c.27.23.32.31.32.39s0,.11-.15.11h-4v2.83h2.07c.57-.68.65-.74.72-.74s.17.06.74.55c.27.22.32.3.32.37s0,.12-.16.12H54.18v3.32Z"/><path class="cls-1" d="M54.56,52.59a4.08,4.08,0,0,0,1.49.54,1.12,1.12,0,0,0,.24,0h.15a.35.35,0,0,1,.4.33c0,.4-.56.82-1.6,1.21.14.27.21.4.36.65.56.85.62,1,.62,1.39a1,1,0,0,1-.9,1c-.14,0-.2,0-.3-.27s-.16-.23-.45-.36a7.31,7.31,0,0,0-.9-.36s0-.05,0-.05c.48.05.93.13,1.25.13s.42-.11.42-.35,0-.3-.27-.77c-.13-.26-.31-.64-.41-.86a8.53,8.53,0,0,1-2.27.38c-1,0-1.62-.47-1.71-1.2,0,0,0,0,0,0a1.39,1.39,0,0,0,1.3.58,8.07,8.07,0,0,0,2.38-.43A10.68,10.68,0,0,1,54,52.56a3.81,3.81,0,0,1-1.16.21,1.38,1.38,0,0,1-1.47-1s0,0,0,0a1.49,1.49,0,0,0,1,.42,4.08,4.08,0,0,0,1.47-.39c0-.24,0-.31-.15-.94s-.26-.81-.65-.81a.64.64,0,0,0-.36.13s0,0,0,0a.86.86,0,0,1,.85-.54c.56,0,.85.37.87,1.19,0,.2,0,.36,0,.73a.89.89,0,0,1,.61-.22c.3,0,.46.1.46.33s-.38.49-1,.73Zm-2.05,4.19c-.64.35-.86.66-.86,1.16,0,.66.52,1.1,1.33,1.1a2,2,0,0,0,.77-.14.68.68,0,0,1,.31-.07c.31,0,.6.23.6.46s-.67.6-1.5.6c-1.26,0-2.14-.66-2.14-1.62,0-.78.51-1.3,1.48-1.54C52.53,56.73,52.55,56.76,52.51,56.78Zm3.23-3.23a13.47,13.47,0,0,0-1.16-.82A7.53,7.53,0,0,0,54.94,54,2.59,2.59,0,0,0,55.74,53.55Z"/><path class="cls-1" d="M51.6,63.25a.38.38,0,0,0,.31.16c.16,0,.24,0,1-.52a2.59,2.59,0,0,1,1.4-.55,1.09,1.09,0,0,1,1.09,1c0,.4-.17.63-1.08,1.54a23.79,23.79,0,0,0-2.77,3.25,5.27,5.27,0,0,1,3.15-1.31,2.48,2.48,0,0,1,2.51,2.59,2.78,2.78,0,0,1-3.06,2.77c-1,0-1.55-.42-1.55-1.09a1.08,1.08,0,0,1,1.19-1c.72,0,1.11.36,1.32,1.22a2,2,0,0,0,1.22-2c0-1.28-.67-2.12-1.73-2.12a4.63,4.63,0,0,0-2.79,1.4,2.27,2.27,0,0,0-.68,1c-.16.41-.29.55-.51.55a.31.31,0,0,1-.31-.23,1.47,1.47,0,0,1-.12-.61c0-.35.08-.47.47-1,.45-.67.92-1.3,1.47-2,.44-.51,1-1.13,1.43-1.68.83-1,1.08-1.38,1.08-1.66a.21.21,0,0,0-.24-.23,1.16,1.16,0,0,0-.63.3,9.19,9.19,0,0,0-.86.66c-.27.29-.4.36-.66.36a.77.77,0,0,1-.73-.71.31.31,0,0,1,0-.2S51.57,63.23,51.6,63.25Zm1.94,7.29a.56.56,0,0,0-.61.49c0,.35.34.56.9.56a1.65,1.65,0,0,0,.49-.08C54.24,70.87,54,70.54,53.54,70.54Z"/><path class="cls-1" d="M51.47,78.56c1.29.35,1.94.86,1.94,1.46a.47.47,0,0,1-.42.51c-.19,0-.28-.1-.46-.48a3.12,3.12,0,0,0-1.06-1.26V80.2c0,3.06,0,3.91,0,4.2s-.17.41-.55.41-.39-.1-.39-.31c0-.39.09-2,.14-5.19a9.43,9.43,0,0,1-2.46,3.14c-.06,0-.16-.09-.11-.15a13,13,0,0,0,2.34-4.55H49.13a4.29,4.29,0,0,0-.76.07l-.12-.46a3.9,3.9,0,0,0,.87.09h1.51v-1.9a20.12,20.12,0,0,1-2.15.26c-.08,0-.11-.17,0-.19a12.68,12.68,0,0,0,3.35-1.14,3.89,3.89,0,0,0,.82-.52c.82.6.89.69.89.84s-.18.15-.57.07a12.2,12.2,0,0,1-1.48.49v2.09h1c.44-.53.52-.59.6-.59s.16.06.66.45c.19.17.25.26.25.33s0,.11-.16.11H51.47Zm5.08,1.06c0-.06.09-.16.13-.11,1.6,1.5,2.51,3.11,2.51,4.08,0,.43-.2.72-.49.72s-.41-.16-.58-.92a4.23,4.23,0,0,0-.13-.51,31.47,31.47,0,0,1-4.91,1.2c-.08.35-.13.42-.27.42s-.2-.22-.54-1.37a10.58,10.58,0,0,0,1.16,0,39.09,39.09,0,0,0,1.92-7.34,9.92,9.92,0,0,0,.13-1.59c1.22.25,1.49.34,1.49.52s-.08.23-.44.34a34.31,34.31,0,0,1-2.69,8,34.71,34.71,0,0,0,4.08-.51A11.65,11.65,0,0,0,56.55,79.62Z"/><path class="cls-1" d="M50.7,94.52a2.19,2.19,0,0,0,1.11,1,8.52,8.52,0,0,0,3.09.39,38.6,38.6,0,0,0,4.39-.3c.06,0,.06.11,0,.14a.62.62,0,0,0-.41.55c0,.26-.06.3-.25.31-1.07.09-2.2.11-3.17.11-2.23,0-3.28-.23-3.94-.7A3.06,3.06,0,0,1,50.4,94.5a9.28,9.28,0,0,1-1.33,1.67c0,.42,0,.54-.18.54s-.31-.25-.81-1.23a4.93,4.93,0,0,0,.75-.28,5.32,5.32,0,0,0,1-.64V91.39H49a3.22,3.22,0,0,0-.82.08L48.08,91a3.63,3.63,0,0,0,.94.11h.72c.38-.42.44-.47.51-.47s.18,0,.56.36c.19.17.22.24.22.33s0,.12-.33.33Zm-.91-6.4a4.33,4.33,0,0,0-.9-1.55s0-.11.08-.1c1.19.4,1.76,1.06,1.76,1.61a.53.53,0,0,1-.49.59C50,88.67,49.92,88.52,49.79,88.12Zm7.53,2.61c.43-.5.51-.56.59-.56s.16.06.63.42c.19.15.25.24.25.31s0,.13-.15.13H55.29v1.16h1.56c.4-.48.48-.54.55-.54s.17.06.59.41c.19.15.24.24.24.31s0,.12-.16.12H55.29c0,.66,0,.94,0,1.19h2.25c.44-.54.52-.6.61-.6s.15.06.63.44c.22.2.28.27.28.35s0,.11-.16.11H55.3c0,.55,0,1,0,1.15s-.17.4-.54.4-.4-.09-.4-.28,0-.54.05-1.27H52.16a3.38,3.38,0,0,0-.73.08l-.12-.46a3.61,3.61,0,0,0,.84.08h2.3V92.49H52.83a3.09,3.09,0,0,0-.69.07L52,92.11a3.78,3.78,0,0,0,.79.08h1.64V91H52.23a3.82,3.82,0,0,0-.69.07l-.12-.45a3.91,3.91,0,0,0,.79.08H53.5a.49.49,0,0,1-.14-.34,2.28,2.28,0,0,0-.43-1s0-.1.07-.08c.72.26,1.13.64,1.13,1a.53.53,0,0,1-.25.46h1.71a7,7,0,0,0,.39-.86c.08-.24.13-.42.18-.63h-4a5.1,5.1,0,0,0-.74.07l-.13-.45a4.56,4.56,0,0,0,.85.08h2.34V87.71H52.7a3.38,3.38,0,0,0-.75.07l-.12-.47a3.79,3.79,0,0,0,.86.1h1.76v-.25a7.74,7.74,0,0,0-.06-1.08c1.11.12,1.24.21,1.24.33s-.07.17-.35.29v.71H57c.43-.51.53-.55.6-.55s.17,0,.61.4c.2.18.26.26.26.33s0,.12-.16.12h-3v1.23h2.3c.46-.52.54-.59.61-.59s.17.07.66.46c.21.17.27.24.27.31s0,.12-.16.12H56.3c.6.23.86.4.86.51s-.09.16-.44.18a7.52,7.52,0,0,1-.83.8Z"/><path class="cls-1" d="M52.39,102.23a2.19,2.19,0,0,1-1-.32.81.81,0,0,1-.28-.67.8.8,0,0,1,0-.19,0,0,0,0,1,0,0,.64.64,0,0,0,.36.36,2.55,2.55,0,0,0,1,.1,8.49,8.49,0,0,0,.24-1.51,1,1,0,0,0-.58-1s0,0,0,0a.48.48,0,0,1,.3-.09,1.29,1.29,0,0,1,1.15,1.2,1.36,1.36,0,0,1-.12.57c-.11.31-.21.6-.32.88.4,0,.63.22.63.53s-.06.31-.45.42c-.15,0-.28.07-.49.13-.21.87-.33,1.41-.51,2.28a2.31,2.31,0,0,0,.66-.07.92.92,0,0,1,.29,0c.35,0,.54.14.54.4s-.53.54-1.36.55h-.25c0,.34,0,.52,0,.77,0,1.22.58,1.89,1.66,1.89a1.73,1.73,0,0,0,1.84-1.72c0-1-.69-2.09-2-3.16,0,0,0-.07.05-.06,1.73.85,2.81,2.16,2.81,3.42A2.4,2.4,0,0,1,54,109.13a2.21,2.21,0,0,1-2.35-2.53,9.63,9.63,0,0,1,.06-1,1.42,1.42,0,0,1-.9-1.38,1.21,1.21,0,0,1,.07-.4s0,0,0,0c.06.57.3.82.92,1,.14-.82.24-1.32.4-2.12a5.16,5.16,0,0,0-1,.43s-.07,0-.05,0a7,7,0,0,1,1.12-.84Z"/><path class="cls-1" d="M58.47,111.84a1.76,1.76,0,0,1,.78,1.34.62.62,0,0,1-.62.66c-.33,0-.46-.23-.59-.51a4,4,0,0,0-1.78-2.14.17.17,0,0,1-.06-.14c0-.07,0-.12.14-.12A4.7,4.7,0,0,1,58.47,111.84Z"/><path class="cls-1" d="M49.52,125.59a.54.54,0,0,0,.57.36,6.87,6.87,0,0,0,1.53-.3c0-.48.09-1.11.09-1.3s0-.27-.23-.34-.18-.06-.18-.12,0-.11.13-.22a.55.55,0,0,1,.41-.19c.42,0,.73.23.73.49a.75.75,0,0,1,0,.26.89.89,0,0,0,0,.19,1.46,1.46,0,0,0,1,.39c.31,0,.46.12.46.36,0,.4-.46.71-1.7,1.12-.08.7-.14,1.39-.29,2.13a1.47,1.47,0,0,1,0,.38,3.32,3.32,0,0,1-.14.84,4.93,4.93,0,0,0-.16.71,1,1,0,0,1-.28.63c0,.24,0,.37,0,.51,0,1,.41,1.39,1.52,1.39a5.68,5.68,0,0,0,2.55-.6,1.37,1.37,0,0,0,.68-1.38c0-.3,0-.87-.1-1.58s-.13-1.32-.13-2c0-1.27.36-1.9,1.09-1.9a1.57,1.57,0,0,1,1.37,1.65.93.93,0,0,1-.78,1c-.19,0-.24,0-.32-.35a1,1,0,0,0-.69-.5,0,0,0,0,1,0-.06,5.34,5.34,0,0,0,.55,0c.3,0,.41-.11.41-.4,0-.56-.33-1-.72-1s-.64.45-.64,1.46a12.35,12.35,0,0,0,.55,3,4.71,4.71,0,0,1,.22,1.21A1.68,1.68,0,0,1,56,133a6.72,6.72,0,0,1-2.94.66c-1.41,0-2-.57-2-1.86,0-.14,0-.32,0-.57a.73.73,0,0,1-.36.11c-.29,0-.4-.18-.44-.55a2,2,0,0,0-.08-.35,3.66,3.66,0,0,1-.17-1.11c0-1,.4-1.63,1.07-1.63a.58.58,0,0,1,.36.1c.06-.44.11-.88.16-1.36a5,5,0,0,1-1.27.23.75.75,0,0,1-.85-.79.72.72,0,0,1,.06-.3S49.51,125.57,49.52,125.59Zm.79,3.65c0,.64.2,1.17.45,1.17s.51-.71.51-1.58c0-.43-.15-.66-.42-.66S50.31,128.55,50.31,129.24Zm2.7-4.06a4,4,0,0,0-.57-.63c-.07.46-.09.57-.13.93A4,4,0,0,0,53,125.18Z"/><path class="cls-1" d="M49.52,139.27a1,1,0,0,0,.89.48,4,4,0,0,0,1-.16,10,10,0,0,0,.29-2c0-.22,0-.32-.06-.4s-.18-.06-.37-.06-.1,0-.1-.07a.62.62,0,0,1,.13-.32.66.66,0,0,1,.54-.28c.39,0,.59.28.59.83a12.17,12.17,0,0,1-.32,2.21,4.19,4.19,0,0,1,1.16-.21c.89,0,1.29.67,1.29,2.08a5.48,5.48,0,0,1-.92,3.22,2.34,2.34,0,0,1-1.63,1c-.43,0-.59-.16-.89-1.32-.08-.4-.16-.67-.27-1.1-.48,1-.84,1.47-1.15,1.47s-.39-.25-.39-.59,0-.3.36-.6a7.79,7.79,0,0,0,1.58-3.11,2.5,2.5,0,0,1-.88.22,1,1,0,0,1-.89-1.06.47.47,0,0,1,.05-.22S49.51,139.25,49.52,139.27ZM50.9,143a8,8,0,0,0,.54,1.1c.24.38.4.51.59.51.9,0,1.74-1.7,1.74-3.53,0-.93-.15-1.33-.54-1.33a4.05,4.05,0,0,0-1.28.38A13.9,13.9,0,0,1,50.9,143Zm4.75-3.68a1.54,1.54,0,0,1,1.13-.47,2.1,2.1,0,0,1,1.91,2c0,.59-.33,1-.75,1-.14,0-.19,0-.35-.24a.79.79,0,0,0-.51-.26c-.26,0-.48-.08-.74-.15,0,0,0,0,0,0,1.2-.08,1.47-.16,1.47-.5a1.65,1.65,0,0,0-1.44-1.47,1.86,1.86,0,0,0-.7.17S55.63,139.31,55.65,139.28Z"/><path class="cls-1" d="M50.72,148.43a.71.71,0,0,1,.39-.11,1.43,1.43,0,0,1,1.35,1.52,10.25,10.25,0,0,1-.25,1.79,21.9,21.9,0,0,0-.48,3.55,1.81,1.81,0,0,0,2,2,4.43,4.43,0,0,0,4-3.17c0-.05.06,0,.06,0-.39,2.42-2,4-4.1,4-1.68,0-2.59-1.07-2.59-3.06a29.28,29.28,0,0,1,.23-3.1,20.33,20.33,0,0,0,.13-2.25c0-.69-.18-1-.72-1.18C50.7,148.46,50.7,148.44,50.72,148.43Z"/><path class="cls-1" d="M49.64,161.47a11.53,11.53,0,0,0-.06-1.47c1.15.1,1.3.2,1.3.32s-.09.17-.4.31V162h1.66c.44-.54.53-.6.6-.6s.17.06.62.45c.21.18.26.27.26.34s0,.11-.15.11h-3v2a30.37,30.37,0,0,0,3-.62c.06,0,.09.12,0,.15a22.43,22.43,0,0,1-4.45,1.47c-.08.29-.14.37-.26.37s-.26-.28-.5-1.18c.22,0,.42,0,.76,0l.56,0Zm2.92,4.74c.12-.29.21-.54.31-.84a5.26,5.26,0,0,0,.17-.71c.84.28,1.14.42,1.14.54s-.12.17-.48.2a10.26,10.26,0,0,1-.79.81H56.2c.36-.41.42-.45.5-.45s.15,0,.54.38c.19.14.23.22.23.3s0,.1-.33.34v.95c0,1.73,0,2.58,0,2.83s-.18.4-.55.4-.35-.1-.35-.31v-.39h-5.1v.31c0,.27-.17.39-.53.39s-.37-.11-.37-.37.05-.78.05-2.51c0-1.09,0-1.67-.06-2.38a8.09,8.09,0,0,1,1,.51Zm3.73.3h-5.1V168h5.1ZM51.19,170h5.1v-1.63h-5.1Zm3.74-6.21c0,.44.19.5,1.54.5,1,0,1.34,0,1.62-.22s.38-.45.66-1.22c0,0,.1,0,.1,0,0,.31-.07.79-.07.91s0,.18.15.23a.33.33,0,0,1,.24.34c0,.23-.24.42-.66.53a9.91,9.91,0,0,1-2.26.16c-1.67,0-2.16-.24-2.16-1.08,0-.24,0-.57,0-1.89,0-1,0-1.48-.06-2.05,1.2.13,1.32.18,1.32.33s-.09.19-.43.33v1.83a10.08,10.08,0,0,0,2-1.21,5,5,0,0,0,.83-.82c.59.4.92.7.92.83s-.15.19-.57.11a10.47,10.47,0,0,1-3.23,1.33Z"/><path class="cls-1" d="M49.33,176.22a1,1,0,0,0,.89.48,4,4,0,0,0,1-.16,10,10,0,0,0,.29-2c0-.22,0-.32-.06-.4S51.23,174,51,174s-.09,0-.09-.08a.63.63,0,0,1,.13-.31.65.65,0,0,1,.54-.29c.38,0,.59.29.59.84a11.62,11.62,0,0,1-.33,2.21,4.38,4.38,0,0,1,1.17-.22c.88,0,1.29.68,1.29,2.09a5.48,5.48,0,0,1-.92,3.22,2.34,2.34,0,0,1-1.63,1c-.43,0-.59-.16-.89-1.32-.08-.4-.17-.67-.27-1.11-.49,1-.84,1.48-1.16,1.48s-.38-.25-.38-.59,0-.3.36-.6A7.77,7.77,0,0,0,51,177.27a2.37,2.37,0,0,1-.89.23,1.06,1.06,0,0,1-.88-1.07.43.43,0,0,1,0-.21S49.32,176.19,49.33,176.22Zm1.38,3.69a6.91,6.91,0,0,0,.54,1.09c.24.39.4.52.59.52.9,0,1.74-1.7,1.74-3.53,0-.93-.15-1.33-.54-1.33a4.25,4.25,0,0,0-1.29.37A13.27,13.27,0,0,1,50.71,179.91Zm4.75-3.68a1.52,1.52,0,0,1,1.13-.47,2.09,2.09,0,0,1,1.9,2c0,.59-.32,1-.74,1-.14,0-.19,0-.35-.24a.79.79,0,0,0-.51-.26,6.69,6.69,0,0,1-.75-.16s0,0,0,0c1.2-.08,1.47-.16,1.47-.5a1.66,1.66,0,0,0-1.44-1.47,1.75,1.75,0,0,0-.71.17S55.44,176.25,55.46,176.23Zm.82-2.63a2.48,2.48,0,0,1,.39,0c.78.07,1.33.4,1.33.84,0,.24-.14.43-.34.43s-.23-.06-.35-.25a2.18,2.18,0,0,0-1.05-1S56.24,173.62,56.28,173.6Zm1-.75a1.85,1.85,0,0,1,.38,0c.76,0,1.34.35,1.34.82a.35.35,0,0,1-.3.37c-.12,0-.21-.07-.36-.26a2.87,2.87,0,0,0-1.06-.85S57.28,172.86,57.31,172.85Z"/><path class="cls-1" d="M48.2,194.56a9,9,0,0,0,.6-2.24,6,6,0,0,0,.11-1.16c.91.27,1.12.34,1.12.49s-.12.15-.37.23a7.51,7.51,0,0,1-1.3,2.75C48.31,194.69,48.18,194.63,48.2,194.56Zm2-4.38c-.39.08-.82.15-1.33.22-.08.28-.16.35-.25.35s-.18-.19-.36-1.12c.19,0,.42,0,.6,0h.69a14.6,14.6,0,0,0,1.43-2.4,4.59,4.59,0,0,0,.41-1.1c.9.44,1.08.53,1.08.66s-.14.21-.43.21a13.1,13.1,0,0,1-2.17,2.61c.7,0,1.38-.06,2.06-.12a3.55,3.55,0,0,0-.45-.92s.06-.11.09-.08a2.12,2.12,0,0,1,1.24,1.6c0,.31-.17.55-.39.55s-.32-.13-.38-.6a1.92,1.92,0,0,0-.05-.32L51,190v2.28c0,1.31,0,2.53,0,2.89s-.19.37-.51.37-.37-.11-.37-.31.07-1,.07-2.47Zm0-2.33c0,.31-.17.54-.41.54s-.26-.06-.41-.53a2.82,2.82,0,0,0-.87-1.33s0-.11.07-.1a4.4,4.4,0,0,1,.89.38,9.68,9.68,0,0,0,.56-1.45,3.58,3.58,0,0,0,.19-.85c.95.36,1.19.47,1.19.6s-.1.19-.47.21A9.85,9.85,0,0,1,49.69,187,1.13,1.13,0,0,1,50.22,187.85ZM51.84,193a4.15,4.15,0,0,0-.48-1.74s.07-.08.11-.06A2.67,2.67,0,0,1,52.64,193c0,.39-.17.64-.45.64S51.89,193.55,51.84,193Zm5.5-3.6c.46-.58.54-.64.62-.64s.16.06.69.46c.23.2.29.29.29.36s0,.12-.16.12H53.9a4,4,0,0,0-.72.07l-.12-.45a4.25,4.25,0,0,0,.84.08h1.28v-2.23H53.59a3.7,3.7,0,0,0-.78.07l-.13-.45a5.1,5.1,0,0,0,.91.08h1.59v-1.09a9.08,9.08,0,0,0-.06-1.25c1.18.12,1.32.22,1.32.34s-.09.19-.4.32v1.68h1.55c.47-.6.57-.65.64-.65s.17,0,.7.48c.22.2.28.27.28.35s0,.12-.15.12H56v2.23Zm-3.24,5.74c0,.24-.19.36-.52.36s-.37-.11-.37-.32,0-.69,0-2.11c0-1.05,0-1.68-.06-2.4a10.32,10.32,0,0,1,1,.48h2.95c.36-.39.43-.44.51-.44s.15.05.53.35c.2.14.23.23.23.3s0,.14-.32.35v.84c0,1.54,0,2.31,0,2.54s-.16.37-.5.37-.38-.1-.38-.3v-.49H54.1Zm3.15-3.69H54.1v2.92h3.15Z"/><path class="cls-1" d="M51.3,201.23a.41.41,0,0,0,.32.18c.17,0,.35-.08,1-.44a17.79,17.79,0,0,1,1.84-.92,4.53,4.53,0,0,1,1.8-.4,2.5,2.5,0,0,1,2.45,2.56,2.85,2.85,0,0,1-2.22,2.72,7,7,0,0,1-2.27.31s-.06-.06,0-.07a6.16,6.16,0,0,0,2-.6,2.67,2.67,0,0,0,1.66-2.43c0-1.21-.67-2.07-1.63-2.07a3.64,3.64,0,0,0-2.1.9l-1.21.84a1.5,1.5,0,0,1-.84.39.83.83,0,0,1-.84-.77,1,1,0,0,1,0-.2S51.27,201.2,51.3,201.23Z"/><path class="cls-1" d="M49.36,211.58a.41.41,0,0,0,.44.32,5.58,5.58,0,0,0,.77-.11c1.62-.31,3.2-.64,4.79-1a5,5,0,0,0,1.17-.32.69.69,0,0,1,.3-.07c.57,0,1.17.32,1.17.62s-.2.42-.53.42a5.9,5.9,0,0,1-.76-.09,5.85,5.85,0,0,0-.64,0c-.93,0-1.55.19-1.81.56a5.78,5.78,0,0,0-.59,2.92,4.55,4.55,0,0,0,.53,2.52,2.65,2.65,0,0,0,1.43,1,1.92,1.92,0,0,1,.63.3.54.54,0,0,1,.14.36c0,.26-.2.43-.53.43a2.54,2.54,0,0,1-1.31-.49c-1-.65-1.52-1.74-1.52-3.44a6.68,6.68,0,0,1,1-3.82,28,28,0,0,0-3.09.91,2.55,2.55,0,0,1-.94.24.84.84,0,0,1-.84-.78.6.6,0,0,1,.17-.43S49.34,211.56,49.36,211.58Z"/><path class="cls-1" d="M25.91,1.88a1.61,1.61,0,0,1,.8,1.38,6.83,6.83,0,0,1-.14,1.25A13.74,13.74,0,0,0,26.45,6a4.2,4.2,0,0,0,.44,2c.12.21.3.37.38.37s.14-.08.38-.44c.39-.59.74-1.21,1.12-1.87,0,0,.06,0,.05,0-.25.83-.54,1.51-.73,2.19a2.09,2.09,0,0,0-.1.5,1.12,1.12,0,0,0,.09.41,1,1,0,0,1,.06.25.39.39,0,0,1-.43.37A1.69,1.69,0,0,1,26.54,9a4.64,4.64,0,0,1-.83-2.91,9.29,9.29,0,0,1,.09-1.18c0-.31.08-.57.16-1.11a5.39,5.39,0,0,0,.09-.9,2.29,2.29,0,0,0-.19-1S25.87,1.86,25.91,1.88Zm6,1.52A2.27,2.27,0,0,1,33.45,4a2.29,2.29,0,0,1,.83,1.75c0,.58-.25,1-.64,1s-.39-.18-.39-.46,0-.42,0-.64A2.11,2.11,0,0,0,31.9,3.44S31.88,3.4,31.92,3.4Z"/><path class="cls-1" d="M25.57,15.48c.11.31.19.41.53.41a7.21,7.21,0,0,0,1.62-.28A10.49,10.49,0,0,0,28,13.66a.34.34,0,0,0-.25-.38c-.11,0-.13-.07-.13-.1a.27.27,0,0,1,.12-.2.58.58,0,0,1,.38-.15c.4,0,.85.32.85.59,0,.09,0,.1-.11.31a2.61,2.61,0,0,0-.1.36,2,2,0,0,0,1.17.58c.3,0,.43.11.43.36s-.19.5-.64.72a7.44,7.44,0,0,1-1.42.53,46,46,0,0,1-1.4,5.27c-.35,1-.51,1.22-.79,1.22s-.41-.32-.41-.72a.74.74,0,0,1,.16-.5,4,4,0,0,0,.4-.75,27.78,27.78,0,0,0,1.32-4.36,6.25,6.25,0,0,1-1.49.26.64.64,0,0,1-.69-.65,1.28,1.28,0,0,1,.15-.57S25.56,15.45,25.57,15.48Zm3.84-.43c-.25-.29-.46-.53-.73-.82-.06.38-.18.91-.24,1.21A5.32,5.32,0,0,0,29.41,15.05Zm.36,5.09a1.63,1.63,0,0,0,1.83,1.55A5.75,5.75,0,0,0,33,21.48a1.57,1.57,0,0,1,.46-.09.49.49,0,0,1,.53.44c0,.46-.74.72-1.89.72-1.57,0-2.5-.73-2.5-2a1.2,1.2,0,0,1,.08-.43S29.76,20.11,29.77,20.14Zm.48-3.26a3.22,3.22,0,0,1,2.27-1c.61,0,1.11.32,1.12.7s-.13.4-.43.41a1.65,1.65,0,0,0-.59.14l-1.06.5s-.06,0,0,0c.38-.31.65-.53.86-.72s.16-.18.16-.22-.17-.13-.48-.13a5.1,5.1,0,0,0-1.79.41S30.22,16.91,30.25,16.88Z"/><path class="cls-1" d="M29.06,25c.1.19.16.25.58.44s.66.43.66.79a2.74,2.74,0,0,1-.12.62,7.91,7.91,0,0,0-.35,1.52,1,1,0,0,0,.41.08,2,2,0,0,0,1.05-.42.85.85,0,0,1,.49-.18.42.42,0,0,1,.47.38c0,.36-.68.76-1.33.76a2.08,2.08,0,0,1-1.13-.34c0,.3,0,.4,0,.6A7.51,7.51,0,0,0,30,31c.09.47.23.86.37,1.41a5.19,5.19,0,0,1,1.78,1.11c.38.39.52.61.52.89s-.16.47-.39.47-.24,0-.43-.37a4.12,4.12,0,0,0-1.38-1.35c0,.14,0,.24,0,.3a1.64,1.64,0,0,1-1.78,1.75,1.77,1.77,0,0,1-1.23-.42c-.1-.09-.11-.13-.17-.34a.39.39,0,0,0-.18-.26.56.56,0,0,1-.26-.5c0-.81,1-1.46,2.14-1.46a3.39,3.39,0,0,1,.58.05,13.76,13.76,0,0,1-.41-3.15c0-.43,0-1.05.12-2,0-.34.08-.69.08-.84s0-.2-.25-.52A.88.88,0,0,1,29,25.3.74.74,0,0,1,29,25S29.05,25,29.06,25Zm0,7.88c-1,0-1.6.37-1.6.92s.39.71,1.08.71a1.08,1.08,0,0,0,1.21-1.23,1.55,1.55,0,0,0,0-.34A3.14,3.14,0,0,0,29,32.91Z"/><path class="cls-1" d="M27,41.06c.07.24.18.35.32.35a1.21,1.21,0,0,0,.4-.11,6.59,6.59,0,0,1,2.58-.77,1.33,1.33,0,0,1,1.28.83,6,6,0,0,1,.47,2.52A3,3,0,0,1,30.3,47a7.45,7.45,0,0,1-2.83.61c-.06,0-.06-.09,0-.1a5.79,5.79,0,0,0,2.63-1.14c.76-.59,1.07-1.47,1.07-3,0-1.75-.23-2.4-.83-2.4a4.72,4.72,0,0,0-1.89.89c-.54.36-.7.44-.92.44a.77.77,0,0,1-.72-.76.83.83,0,0,1,.17-.49S27,41,27,41.06Zm1.91-3.9c.29.24.46.29,1.23.37a1.06,1.06,0,0,1,.66.18.8.8,0,0,1,.34.65c0,.3-.16.42-.54.43h-.44a5,5,0,0,0-1.18.44s-.06,0,0,0c.63-.48.81-.62,1.14-.9l-.27-.11a1.51,1.51,0,0,1-.77-.52,1.14,1.14,0,0,1-.17-.49S28.89,37.15,28.92,37.16Z"/><path class="cls-1" d="M26.29,50.28A1.81,1.81,0,0,1,27.41,52a4.36,4.36,0,0,1-.35,1.56,9.54,9.54,0,0,0-.66,3,2.47,2.47,0,0,0,.32,1.29c.43-.74.87-1.59,1.26-2.42,0,0,.07,0,.06,0-.12.41-.2.66-.43,1.45a5,5,0,0,0-.29,1.26,1,1,0,0,0,.1.4.69.69,0,0,1,.12.39.41.41,0,0,1-.4.45c-.73,0-1.33-1.29-1.33-2.88A15.22,15.22,0,0,1,26.33,53a7.93,7.93,0,0,0,.25-1.63,1.56,1.56,0,0,0-.33-1.07S26.25,50.27,26.29,50.28Zm3.2,6.19a1.86,1.86,0,0,0,1.86,1.37,4.47,4.47,0,0,0,1.8-.4.85.85,0,0,1,.35-.09.54.54,0,0,1,.54.49c0,.43-1,.83-2,.83a2.61,2.61,0,0,1-2-.75,2.27,2.27,0,0,1-.54-1.45S29.48,56.44,29.49,56.47ZM30,51.64a1.12,1.12,0,0,0,.78.29,3.24,3.24,0,0,0,.73-.12,6.19,6.19,0,0,0,.81-.35.9.9,0,0,1,.44-.16.59.59,0,0,1,.58.48c0,.41-1,.86-1.9.86a1.4,1.4,0,0,1-1.48-1S30,51.62,30,51.64Z"/><path class="cls-1" d="M24.2,71.56a9,9,0,0,0,.6-2.24,6,6,0,0,0,.11-1.16c.91.27,1.12.34,1.12.49s-.12.15-.37.23a7.51,7.51,0,0,1-1.3,2.75C24.31,71.69,24.18,71.63,24.2,71.56Zm2.05-4.38c-.39.08-.82.15-1.33.22-.08.28-.16.35-.25.35s-.18-.19-.36-1.12c.19,0,.42,0,.6,0h.69A14.6,14.6,0,0,0,27,64.25a4.59,4.59,0,0,0,.41-1.1c.9.44,1.08.53,1.08.66s-.14.21-.43.21a13.1,13.1,0,0,1-2.17,2.61c.7,0,1.38-.06,2.06-.12a3.55,3.55,0,0,0-.45-.92s.06-.11.09-.08a2.12,2.12,0,0,1,1.24,1.6c0,.31-.17.55-.39.55s-.32-.13-.38-.6a1.92,1.92,0,0,0-.05-.32L27,67V69.3c0,1.31,0,2.53,0,2.89s-.19.37-.51.37-.37-.11-.37-.31.07-1,.07-2.47Zm0-2.33c0,.31-.17.54-.41.54s-.26-.06-.41-.53a2.82,2.82,0,0,0-.87-1.33s0-.11.07-.1a4.4,4.4,0,0,1,.89.38,9.68,9.68,0,0,0,.56-1.45,3.58,3.58,0,0,0,.19-.85c1,.36,1.19.47,1.19.6s-.1.19-.47.21A9.85,9.85,0,0,1,25.69,64,1.13,1.13,0,0,1,26.22,64.85ZM27.84,70a4.15,4.15,0,0,0-.48-1.74s.07-.08.11-.06A2.67,2.67,0,0,1,28.64,70c0,.39-.17.64-.45.64S27.89,70.55,27.84,70Zm5.5-3.6c.46-.58.54-.64.62-.64s.16.06.69.46c.23.2.29.29.29.36s0,.12-.16.12H29.9a4,4,0,0,0-.72.07l-.12-.45a4.25,4.25,0,0,0,.84.08h1.28V64.16H29.59a3.7,3.7,0,0,0-.78.07l-.13-.45a5.1,5.1,0,0,0,.91.08h1.59V62.77a9.08,9.08,0,0,0-.06-1.25c1.18.12,1.32.22,1.32.34s-.09.19-.4.32v1.68h1.55c.47-.6.57-.65.64-.65s.17,0,.7.48c.22.2.28.27.28.35s0,.12-.15.12H32v2.23ZM30.1,72.13c0,.24-.19.36-.52.36s-.37-.11-.37-.32,0-.69,0-2.11c0-1,0-1.68-.06-2.4a10.32,10.32,0,0,1,1,.48h2.95c.36-.39.43-.44.51-.44s.15,0,.53.35c.2.14.23.23.23.3s0,.14-.32.35v.84c0,1.54,0,2.31,0,2.54s-.16.37-.5.37-.38-.1-.38-.3v-.49H30.1Zm3.15-3.69H30.1v2.92h3.15Z"/><path class="cls-1" d="M25.91,75.68a1.61,1.61,0,0,1,.8,1.38,6.83,6.83,0,0,1-.14,1.25,13.74,13.74,0,0,0-.12,1.49,4.2,4.2,0,0,0,.44,2c.12.21.3.37.38.37s.14-.08.38-.44c.39-.59.74-1.21,1.12-1.87,0,0,.06,0,.05,0-.25.83-.54,1.51-.73,2.19a2.09,2.09,0,0,0-.1.5,1.12,1.12,0,0,0,.09.41,1,1,0,0,1,.06.25.39.39,0,0,1-.43.37,1.69,1.69,0,0,1-1.17-.77,4.64,4.64,0,0,1-.83-2.91,9.29,9.29,0,0,1,.09-1.18c0-.31.08-.57.16-1.11a5.39,5.39,0,0,0,.09-.9,2.29,2.29,0,0,0-.19-1S25.87,75.66,25.91,75.68Zm6,1.52a2.27,2.27,0,0,1,1.53.63,2.29,2.29,0,0,1,.83,1.75c0,.58-.25,1-.64,1s-.39-.18-.39-.46,0-.42,0-.64a2.11,2.11,0,0,0-1.37-2.21S31.88,77.2,31.92,77.2Z"/><path class="cls-1" d="M33.14,96.05c.62-.74.72-.8.79-.8s.17.06.79.58c.3.26.36.34.36.42s0,.1-.15.1H25.51a7.23,7.23,0,0,0-1,.08L24.37,96a6.59,6.59,0,0,0,1.13.08h3.3v-7.2a22.53,22.53,0,0,0-.07-2.44c1.29.12,1.44.23,1.44.36s-.09.21-.45.34v3.6h2.41c.59-.75.69-.8.76-.8s.17,0,.8.6c.28.24.32.3.32.39s0,.11-.15.11H29.72v5Z"/><path class="cls-1" d="M25.93,99.56a1.26,1.26,0,0,1,.82.46,1.57,1.57,0,0,1,.33.93,3.92,3.92,0,0,1-.33,1.43,8.21,8.21,0,0,0-.53,2.5,2.44,2.44,0,0,0,.49,1.71c.41-.71.77-1.53,1.13-2.32,0,0,.05,0,.05,0-.09.43-.21.85-.32,1.32a5.36,5.36,0,0,0-.21,1.22.91.91,0,0,0,.09.42,1,1,0,0,1,.08.31.36.36,0,0,1-.4.36c-.83,0-1.51-1.39-1.51-3.08A13.28,13.28,0,0,1,26,102a6.41,6.41,0,0,0,.23-1.45,1.2,1.2,0,0,0-.32-.91S25.9,99.55,25.93,99.56Zm3.28,1.85a1.47,1.47,0,0,0,1.4.79,4.19,4.19,0,0,0,1-.13c0-.48-.06-1.15-.12-1.69s-.08-.55-.43-.71c0,0-.07,0-.07-.08s.26-.33.5-.33c.46,0,.95.38.95.7a1.08,1.08,0,0,1,0,.25,1.38,1.38,0,0,0,0,.25,4.85,4.85,0,0,0,.74.47,1.07,1.07,0,0,0,.57.14c.3,0,.46.15.46.41s-.14.36-.4.58a4.53,4.53,0,0,1-1.32.62c.05.93.08,1.67.08,2.34a3.68,3.68,0,0,1-1.88,3.42,7.36,7.36,0,0,1-2.21.9s-.06,0,0-.07a7,7,0,0,0,2.29-1.6c.79-.85,1-1.62,1-3.36,0-.45,0-.85,0-1.48a3,3,0,0,1-.74.08,1.68,1.68,0,0,1-1.75-1.46S29.18,101.37,29.21,101.41Zm3.15.48a2.74,2.74,0,0,0,.83-.42c-.25-.3-.54-.56-.84-.9C32.34,101,32.35,101.37,32.36,101.89ZM33,99c.1,0,.19,0,.29.06.69.18,1.16.57,1.16,1a.38.38,0,0,1-.35.41c-.17,0-.25-.07-.33-.35A2.74,2.74,0,0,0,32.92,99S32.92,99,33,99Zm1-.53a2.72,2.72,0,0,1,.55.09c.59.14,1,.48,1,.89a.34.34,0,0,1-.31.36c-.14,0-.22-.06-.36-.33a2.76,2.76,0,0,0-.86-1S34,98.42,34,98.42Z"/><path class="cls-1" d="M25.36,113.18a.41.41,0,0,0,.44.32,5.58,5.58,0,0,0,.77-.11c1.62-.31,3.2-.64,4.79-1a5,5,0,0,0,1.17-.32.69.69,0,0,1,.3-.07c.57,0,1.17.32,1.17.62s-.2.42-.53.42a6.93,6.93,0,0,1-.76-.08,4,4,0,0,0-.64,0c-.93,0-1.55.19-1.81.56a5.78,5.78,0,0,0-.59,2.92,4.55,4.55,0,0,0,.53,2.52,2.65,2.65,0,0,0,1.43,1,1.92,1.92,0,0,1,.63.3.52.52,0,0,1,.14.36c0,.26-.2.43-.53.43a2.54,2.54,0,0,1-1.31-.49c-1-.65-1.52-1.74-1.52-3.44a6.68,6.68,0,0,1,1-3.82,28,28,0,0,0-3.09.91,2.55,2.55,0,0,1-.94.24.84.84,0,0,1-.84-.78.62.62,0,0,1,.17-.43S25.34,113.16,25.36,113.18Z"/><path class="cls-1" d="M34.47,124.14a1.76,1.76,0,0,1,.78,1.34.62.62,0,0,1-.62.66c-.33,0-.46-.23-.59-.51a4,4,0,0,0-1.78-2.14.17.17,0,0,1-.06-.14c0-.07,0-.12.14-.12A4.7,4.7,0,0,1,34.47,124.14Z"/><path class="cls-1" d="M25.64,145.31c0,.26-.16.36-.5.36s-.34-.08-.34-.27,0-.79,0-2.44c0-1.11,0-1.75-.07-2.47a7.43,7.43,0,0,1,1,.48h.64v-2.56H25.13a4.19,4.19,0,0,0-.82.08l-.12-.46a5.23,5.23,0,0,0,.93.08h1.26v-1a12.68,12.68,0,0,0-.07-1.56c1.16.13,1.3.22,1.3.36s-.08.2-.42.33v1.9h.94c.45-.54.54-.59.61-.59s.17,0,.64.45c.21.17.28.26.28.33s-.05.11-.17.11h-2.3V141h.64c.32-.37.38-.42.45-.42s.17,0,.54.36c.18.15.23.23.23.3s-.05.17-.31.35v.8c0,1.52.06,2.25.06,2.46s-.17.37-.53.37-.35-.08-.35-.3v-.31H25.64Zm2.28-4H25.64v3h2.28Zm6.07-2.7a10,10,0,0,1-1.62,4.62,6.92,6.92,0,0,0,3.1,2s0,.11,0,.12a.74.74,0,0,0-.53.6c0,.2-.08.23-.18.23a2,2,0,0,1-.67-.3,7.61,7.61,0,0,1-2.13-2.06A8.85,8.85,0,0,1,28,146.25c-.07,0-.13-.12-.07-.16a10,10,0,0,0,3.53-3,10.51,10.51,0,0,1-1.28-3.44,6.9,6.9,0,0,1-1,1.25c-.05,0-.14,0-.11-.1a12.09,12.09,0,0,0,1.55-4,8.12,8.12,0,0,0,.19-1.31c1.12.28,1.3.37,1.3.54s-.15.19-.43.22a15.8,15.8,0,0,1-.71,2h2.78c.52-.62.6-.68.67-.68s.17.06.7.52c.24.2.29.28.29.36s0,.1-.16.1Zm-3.15,0c-.14.27-.27.52-.42.77a9.48,9.48,0,0,0,1.42,3.2,10.73,10.73,0,0,0,1.26-4Z"/><path class="cls-1" d="M30.56,151a4.08,4.08,0,0,0,1.49.54,1.12,1.12,0,0,0,.24,0h.15a.35.35,0,0,1,.4.33c0,.4-.56.82-1.6,1.21.14.27.21.4.36.65.56.85.62,1,.62,1.39a1,1,0,0,1-.9,1c-.14,0-.2,0-.3-.27s-.16-.23-.45-.36a7.31,7.31,0,0,0-.9-.36s0-.05,0-.05c.48.05.93.13,1.25.13s.42-.11.42-.35,0-.3-.27-.78c-.13-.25-.31-.63-.41-.85a8.48,8.48,0,0,1-2.27.37c-1,0-1.62-.46-1.71-1.19,0,0,0,0,.05,0a1.39,1.39,0,0,0,1.3.58,8.07,8.07,0,0,0,2.38-.43A10.68,10.68,0,0,1,30,151a3.81,3.81,0,0,1-1.16.21,1.38,1.38,0,0,1-1.47-1s0,0,0,0a1.49,1.49,0,0,0,1,.42,4.08,4.08,0,0,0,1.47-.39c0-.24,0-.31-.15-.94s-.26-.81-.65-.81a.64.64,0,0,0-.36.13s0,0,0,0a.86.86,0,0,1,.85-.54c.56,0,.85.37.87,1.19,0,.2,0,.36,0,.73a.89.89,0,0,1,.61-.22c.3,0,.46.1.46.33s-.38.49-1,.73Zm-2,4.19c-.64.35-.86.66-.86,1.16,0,.66.52,1.1,1.33,1.1a2,2,0,0,0,.77-.14.68.68,0,0,1,.31-.07c.31,0,.6.23.6.46s-.67.6-1.5.6c-1.26,0-2.14-.66-2.14-1.62,0-.78.51-1.3,1.48-1.54C28.53,155.13,28.55,155.16,28.51,155.18ZM31.74,152a13.47,13.47,0,0,0-1.16-.82,7.53,7.53,0,0,0,.36,1.22A2.59,2.59,0,0,0,31.74,152Z"/><path class="cls-1" d="M25.55,169c0,.25-.17.37-.51.37s-.37-.1-.37-.31c0-.54,0-1.37,0-4.81,0-1.85,0-2.75-.07-3.6a6.51,6.51,0,0,1,1,.49H27c.35-.39.41-.44.48-.44s.16.05.55.35c.18.13.22.21.22.28s-.05.16-.31.34v1.88c0,3.16.06,4.61.06,5,0,.26-.17.38-.53.38s-.36-.08-.36-.3v-.47H25.55Zm1.52-7.56H25.55v3h1.52Zm-1.52,6.47h1.52V164.7H25.55Zm3.5-1.56a4.38,4.38,0,0,0-.76.07l-.12-.46A4.49,4.49,0,0,0,29,166h3.52v-.08a6.58,6.58,0,0,0-.07-1.36c1,.09,1.31.17,1.31.32s-.09.18-.39.31V166h.54c.42-.51.52-.57.59-.57s.18.06.6.42c.19.17.24.25.24.33s0,.12-.16.12H33.4v1c0,1.27,0,2,0,2.45a.86.86,0,0,1-.32.8,1.44,1.44,0,0,1-.86.3q-.13,0-.18-.18c-.06-.44-.34-.6-1.36-.8-.06,0-.06-.15,0-.15.75.05,1.24.07,1.6.07.16,0,.23-.06.23-.22v-3.31Zm1.83-4.13H29.45a3.2,3.2,0,0,0-.71.07l-.12-.45a4,4,0,0,0,.81.08h1.45v-.66c0-.51,0-.84,0-1.23,1.18.12,1.32.21,1.32.33s-.09.21-.4.33v1.23h1.49c.45-.55.56-.61.63-.61s.17.06.67.47c.23.18.29.25.29.32s-.05.12-.15.12H31.76V164h2c.47-.57.56-.63.63-.63s.17.06.68.49c.22.18.28.25.28.33s0,.11-.16.11H29a5.11,5.11,0,0,0-.73.07l-.12-.45A3.45,3.45,0,0,0,29,164h1.87Zm-.73,6.2a2.9,2.9,0,0,0-.82-1.37s0-.1.08-.09c1.09.32,1.67.87,1.67,1.41,0,.36-.18.61-.48.61S30.26,168.81,30.15,168.39Z"/><path class="cls-1" d="M26.64,178.26c0,2.83,0,4.15,0,4.55s-.17.42-.5.42-.42-.09-.42-.36,0-1.1.06-3.87c0-.74,0-1.49,0-2.23a10.19,10.19,0,0,1-1.59,1.56c-.08,0-.21-.08-.15-.14A12.46,12.46,0,0,0,26.52,174a8.41,8.41,0,0,0,.4-1.59c.89.25,1.33.43,1.33.57s-.14.21-.46.24A14.94,14.94,0,0,1,26.38,176c.54.1.62.16.62.27s-.05.15-.36.28Zm1.62-1.87a4.6,4.6,0,0,0-.78.13l-.18-.41c.42,0,.74,0,.92,0l1.7-.15c-.07-.63-.12-1.33-.14-2.09a8.62,8.62,0,0,0-.13-1.46c1.29.18,1.39.22,1.39.36s-.07.18-.41.33a22.15,22.15,0,0,0,.15,2.78l2.49-.22c.44-.65.5-.7.58-.7s.16,0,.78.43c.26.17.3.24.3.32s0,.1-.15.11l-4,.35a11.71,11.71,0,0,0,.51,2.24,5.73,5.73,0,0,0,2.36,3.26.84.84,0,0,0,.41.17c.08,0,.26-.31.76-1.58,0-.06.15,0,.14,0-.17,1-.23,1.55-.23,1.66a.28.28,0,0,0,.12.27.53.53,0,0,1,.21.39.45.45,0,0,1-.48.41,3.13,3.13,0,0,1-1.52-.59,6.94,6.94,0,0,1-2.48-3.36,12.56,12.56,0,0,1-.65-2.82Zm4.28-1.95a3,3,0,0,0-1-1.28s0-.13.07-.12c1.1.23,1.82.82,1.82,1.36a.45.45,0,0,1-.41.5C32.83,174.9,32.68,174.8,32.54,174.44Z"/><path class="cls-1" d="M26.29,185.58a1.81,1.81,0,0,1,1.12,1.67,4.36,4.36,0,0,1-.35,1.56,9.54,9.54,0,0,0-.66,3,2.47,2.47,0,0,0,.32,1.29c.43-.74.87-1.6,1.26-2.42,0,0,.07,0,.06,0-.12.41-.2.66-.43,1.45a5,5,0,0,0-.29,1.26,1,1,0,0,0,.1.4.69.69,0,0,1,.12.39.41.41,0,0,1-.4.45c-.73,0-1.33-1.29-1.33-2.88a15.22,15.22,0,0,1,.52-3.44,7.93,7.93,0,0,0,.25-1.63,1.56,1.56,0,0,0-.33-1.07S26.25,185.57,26.29,185.58Zm3.2,6.19a1.86,1.86,0,0,0,1.86,1.37,4.47,4.47,0,0,0,1.8-.4.85.85,0,0,1,.35-.09.54.54,0,0,1,.54.49c0,.43-1,.83-2,.83a2.61,2.61,0,0,1-2-.75,2.27,2.27,0,0,1-.54-1.45S29.48,191.74,29.49,191.77Zm.51-4.83a1.12,1.12,0,0,0,.78.29,3.24,3.24,0,0,0,.73-.12,6.19,6.19,0,0,0,.81-.35.9.9,0,0,1,.44-.16.59.59,0,0,1,.58.48c0,.41-1,.86-1.9.86A1.4,1.4,0,0,1,30,187S30,186.92,30,186.94Z"/><path class="cls-1" d="M24.52,206.25c0-.24.12-.37.46-.55A2,2,0,0,0,26,204.2c0-.06.14,0,.14,0,.12,1.38-.42,2.58-1.17,2.58A.5.5,0,0,1,24.52,206.25Zm2.2-3.71c0,.29-.15.41-.52.41s-.37-.11-.37-.32c0-.48.05-1.24.05-3.75a10.38,10.38,0,0,0-.07-1.71,6.7,6.7,0,0,1,1,.47h5.79c.36-.4.44-.44.51-.44s.14,0,.55.38c.19.16.24.22.24.29s-.05.17-.35.35v1.07c0,1.94.06,2.92.06,3.21s-.19.39-.55.39-.36-.08-.36-.31v-.14h-6Zm0-4.6v1.92h2.53v-1.92Zm2.53,4.2v-2H26.72v2Zm-1.05,3.92c0,.49.26.6,1.68.6,1.06,0,1.47,0,1.76-.28s.38-.45.68-1.36c0-.06.14,0,.14,0,0,.32-.05.7-.05,1s0,.24.23.34a.31.31,0,0,1,.16.3c0,.24-.21.42-.61.54a9,9,0,0,1-2.44.21c-2,0-2.42-.26-2.42-1.29,0-.13,0-.29,0-1s0-1.25-.05-1.83c1.15.14,1.27.18,1.27.32s-.06.17-.38.31ZM30,204.54a3.19,3.19,0,0,0-.94-1.29s0-.11.07-.09c1.12.25,1.81.8,1.81,1.4a.49.49,0,0,1-.46.55C30.29,205.11,30.2,205,30,204.54Zm2.68-6.6H30.09v1.92h2.63Zm0,2.22H30.09v2h2.63ZM33.91,206a3.89,3.89,0,0,0-1-1.83s0-.11.07-.1c1.22.47,1.92,1.24,1.92,1.93,0,.38-.22.66-.49.66S34,206.49,33.91,206Z"/><path class="cls-1" d="M25.91,211a1.61,1.61,0,0,1,.8,1.38,6.83,6.83,0,0,1-.14,1.25,13.74,13.74,0,0,0-.12,1.49,4.2,4.2,0,0,0,.44,2c.12.21.3.37.38.37s.14-.08.38-.44c.39-.59.74-1.21,1.12-1.87,0,0,.06,0,.05,0-.25.83-.54,1.52-.73,2.19a2.09,2.09,0,0,0-.1.5,1.12,1.12,0,0,0,.09.41,1,1,0,0,1,.06.25.39.39,0,0,1-.43.37,1.69,1.69,0,0,1-1.17-.77,4.64,4.64,0,0,1-.83-2.91A9.29,9.29,0,0,1,25.8,214c0-.31.08-.57.16-1.11a5.39,5.39,0,0,0,.09-.9,2.29,2.29,0,0,0-.19-1S25.87,211,25.91,211Zm6,1.52a2.27,2.27,0,0,1,1.53.63,2.29,2.29,0,0,1,.83,1.75c0,.58-.25,1-.64,1s-.39-.18-.39-.46,0-.42,0-.64a2.11,2.11,0,0,0-1.37-2.21S31.88,212.5,31.92,212.5Z"/><path class="cls-1" d="M2.58,1.86c.08.31.18.39.43.39a5.8,5.8,0,0,0,1.22-.19,3,3,0,0,0,.18-.86C4.41,1,4.35,1,4.19.82S4,.71,4,.66s.19-.28.4-.28A.78.78,0,0,1,5.21,1,2.55,2.55,0,0,0,6,1.2c.13,0,.26,0,.39,0a.38.38,0,0,1,.4.39c0,.41-.65.79-2.14,1.22-.32.73-.6,1.3-1,2A2.63,2.63,0,0,1,5,4.21c.46,0,.7.22.85.7a6.47,6.47,0,0,1,.22,1.52C6.92,5,7.88,4.31,8.86,4.31a1.22,1.22,0,0,1,1.27,1.2,1.38,1.38,0,0,1-.66,1.16,6.31,6.31,0,0,1-2.37.74c-.5.12-.67.15-1,.24a8.28,8.28,0,0,0,0,.84c0,.65-.11.85-.37.85a.59.59,0,0,1-.52-.62,2,2,0,0,1,.06-.36,2.85,2.85,0,0,0,.06-.52c-.73.29-1.06.65-1.06,1.12s.47.85,1.29.85a4.67,4.67,0,0,0,1.18-.17,2.07,2.07,0,0,1,.53-.1c.33,0,.57.17.57.41s-.1.29-.32.4A4.86,4.86,0,0,1,6,10.6c-1.28,0-2.09-.55-2.09-1.42S4.32,8,5.37,7.53a11,11,0,0,0,0-1.11c0-1.51-.11-1.87-.53-1.87a2.31,2.31,0,0,0-1.3.8,10.26,10.26,0,0,0-1,1.28c-.42.61-.5.73-.7.73S1.5,7.1,1.5,6.63c0-.31.08-.44.43-.69a4.4,4.4,0,0,0,.9-1A11.83,11.83,0,0,0,4,2.89a5.25,5.25,0,0,1-.82.1.66.66,0,0,1-.73-.68,1.28,1.28,0,0,1,.1-.46S2.57,1.82,2.58,1.86Zm3.21-.29c-.19-.15-.38-.31-.6-.47A4.36,4.36,0,0,1,5,1.91,4.39,4.39,0,0,0,5.79,1.57ZM7,7.06c1.73-.55,2.24-.92,2.24-1.63A.67.67,0,0,0,8.5,4.7c-1,0-2,1.21-2.33,2.63Z"/><path class="cls-1" d="M0,21.67a.52.52,0,0,1,.2-.41A2,2,0,0,0,.83,19.8c0-.05.12-.05.13,0a5.16,5.16,0,0,1,.07.83c0,.93-.3,1.47-.67,1.47A.38.38,0,0,1,0,21.67Zm1.56-2.8c0,.23-.14.34-.46.34s-.33-.09-.33-.28,0-1,0-3.78c0-1.39,0-1.73-.06-2.49a5.57,5.57,0,0,1,.92.44H3.9c.38-.51.45-.55.53-.55s.15,0,.6.42c.18.17.22.24.22.31s0,.12-.18.12H3.36v1.45h.55c.31-.39.42-.45.48-.45s.16.06.52.37a.48.48,0,0,1,.16.28c0,.07,0,.1-.15.1H3.36V16.6H3.9c.31-.39.41-.45.48-.45s.14.06.5.38A.41.41,0,0,1,5,16.8c0,.07,0,.11-.16.11H3.36v1.54H4c.3-.35.36-.39.43-.39s.16,0,.48.32c.16.14.2.24.2.31s-.05.12-.27.27a11.21,11.21,0,0,1-.55,3.41,1.68,1.68,0,0,1-.48.66.94.94,0,0,1-.65.21c-.15,0-.19,0-.23-.23s-.19-.42-1-.66c-.06,0-.05-.16,0-.14a10.92,10.92,0,0,0,1.3.12c.24,0,.32-.11.47-.56a12.67,12.67,0,0,0,.39-3H1.56ZM1.5,21.32c0-.11,0-.29,0-.55a3.19,3.19,0,0,0-.16-1c0-.05.07-.09.1-.05A1.86,1.86,0,0,1,2.09,21c0,.23-.1.55-.39.55C1.56,21.59,1.5,21.5,1.5,21.32Zm1.1-6.47V13.4h-1v1.45Zm0,1.75V15.15h-1V16.6Zm0,1.85V16.91h-1v1.54Zm-.15,2.36a2.8,2.8,0,0,0-.4-1.19s.06-.09.1-.06c.57.4.86.79.86,1.16s-.17.47-.35.47S2.47,21.09,2.45,20.81Zm.84-.53a2.12,2.12,0,0,0-.57-.89.06.06,0,0,1,.06-.09c.66.21,1,.51,1,.87,0,.21-.12.38-.26.38S3.33,20.48,3.29,20.28Zm6.54-4.8c.3-.46.36-.53.47-.53s.13,0,.46.28.32.24.32.33-.05.16-.31.33a24.17,24.17,0,0,1-.24,3.5,1.65,1.65,0,0,1-.32.86.89.89,0,0,1-.7.28c-.14,0-.17,0-.19-.23s-.16-.4-.7-.54a.07.07,0,0,1,0-.05c0,.43,0,.71,0,.87s-.16.37-.51.37-.37-.09-.37-.32,0-1,0-4.06L6.63,17v4.57c0,.54.12.63,1.65.63,1.29,0,1.66,0,1.93-.2s.37-.44.63-1.37c0-.06.13,0,.13,0,0,.35,0,.85,0,1s0,.2.22.27a.34.34,0,0,1,.18.32c0,.22-.18.4-.53.5a10.09,10.09,0,0,1-2.65.2c-2,0-2.35-.28-2.35-1.24,0-.4,0-1.2,0-4.45l-.26.09a4.6,4.6,0,0,0-.67.33l-.27-.39a4,4,0,0,0,.86-.23L5.84,17v-.13c0-1.87,0-2.48-.06-3.16,1.15.12,1.22.15,1.22.3s0,.15-.37.3v2.4l1.13-.42v-.82a29.31,29.31,0,0,0-.06-3c1.1.12,1.24.17,1.24.31s-.08.17-.39.3V16Zm-1.28.8c0,1.12,0,2.23,0,3.35,0,0,0,0,0,0,.47,0,.64,0,.78,0s.3-.1.37-.64A29.18,29.18,0,0,0,10,15.77Z"/><path class="cls-1" d="M.94,28.63a.49.49,0,0,0,.51.34,10,10,0,0,0,1.75-.35c0-.79-.11-1-.41-1.14-.13-.06-.17-.11-.17-.18s.23-.34.45-.34a1,1,0,0,1,.76.35,1.36,1.36,0,0,1,.2.9,1.94,1.94,0,0,1,0,.22c1.29-.3,2-.45,3-.6,0-.12,0-.16,0-.4s0-.62,0-.85c0-.61.24-1,.64-1s.36.11.43.4.21.49.67.87a2.29,2.29,0,0,0,1.45.74c.4.06.55.19.54.48s-.19.42-.49.42a2.12,2.12,0,0,1-.53-.08,6.57,6.57,0,0,0-1.17-.16,5,5,0,0,0-.66,0c0,.36,0,.6,0,.81a3.27,3.27,0,0,1-.64,2.32,1.23,1.23,0,0,1-.86.48c-.25,0-.3-.06-.36-.41,0-.18-.1-.3-.48-.83l-.31-.48s0-.07,0,0c.3.27.44.39.59.51a1.33,1.33,0,0,0,.58.25c.16,0,.35-.2.48-.55A3.2,3.2,0,0,0,7.15,29a7,7,0,0,0,0-.72A22.14,22.14,0,0,0,4,29c0,.77-.06,1.49-.06,2,0,2.13.2,2.42,1.64,2.42a7.1,7.1,0,0,0,2-.26A1.23,1.23,0,0,1,8,33.09c.48,0,.75.16.76.46s-.18.38-.57.48a12.12,12.12,0,0,1-1.88.15c-1.56,0-2.37-.31-2.72-1.1a5.1,5.1,0,0,1-.31-1.78c0-.34,0-.69,0-1.11s0-.68,0-1c-.43.14-.75.27-1.06.39a1.54,1.54,0,0,1-.63.18A.76.76,0,0,1,.78,29a.68.68,0,0,1,.11-.4S.92,28.61.94,28.63Zm8.23-1c-.31-.3-.65-.67-1-1-.15-.14-.25-.22-.31-.22s-.12.15-.12.64c0,.2,0,.42.05.68A13.29,13.29,0,0,1,9.17,27.65Z"/><path class="cls-1" d="M3.6,38.65a.38.38,0,0,0,.31.16c.16,0,.24,0,1-.52a2.59,2.59,0,0,1,1.4-.55,1.09,1.09,0,0,1,1.09,1c0,.4-.17.63-1.08,1.54a23.79,23.79,0,0,0-2.77,3.25,5.27,5.27,0,0,1,3.15-1.31,2.48,2.48,0,0,1,2.51,2.59,2.78,2.78,0,0,1-3.06,2.77c-1,0-1.55-.42-1.55-1.09a1.07,1.07,0,0,1,1.19-1c.72,0,1.11.35,1.32,1.21a2,2,0,0,0,1.22-2c0-1.28-.67-2.12-1.73-2.12a4.63,4.63,0,0,0-2.79,1.4,2.27,2.27,0,0,0-.68,1c-.16.41-.29.55-.51.55a.31.31,0,0,1-.31-.23,1.47,1.47,0,0,1-.12-.61c0-.35.08-.47.47-1,.45-.67.92-1.3,1.47-2,.44-.51.95-1.13,1.43-1.68.83-1,1.08-1.38,1.08-1.66a.21.21,0,0,0-.24-.23,1.09,1.09,0,0,0-.63.3,9.19,9.19,0,0,0-.86.66c-.27.29-.4.36-.66.36a.77.77,0,0,1-.73-.71.31.31,0,0,1,0-.2S3.57,38.63,3.6,38.65Zm1.94,7.29a.56.56,0,0,0-.61.49c0,.35.34.56.9.56a1.65,1.65,0,0,0,.49-.08C6.24,46.27,6,45.94,5.54,45.94Z"/><path class="cls-1" d="M5.22,59.45a6.55,6.55,0,0,0,2.36-1A4.07,4.07,0,0,0,9.46,55a3.55,3.55,0,0,0-3.61-3.83,3,3,0,0,0-.39,0,3.69,3.69,0,0,1,.72,2.21,5.67,5.67,0,0,1-2,4.32,2.35,2.35,0,0,1-1.31.55.51.51,0,0,1-.55-.44c-.08-.33-.11-.34-.55-.52S1,56.35,1,55.44a4.78,4.78,0,0,1,4.86-4.68,4.3,4.3,0,0,1,4.55,4.29c0,2.53-2,4.25-4.73,4.46l-.47,0C5.16,59.55,5.15,59.47,5.22,59.45Zm-3.4-4c0,1.08.46,1.86,1.1,1.86a2,2,0,0,0,1.35-.92A5.72,5.72,0,0,0,5.61,52.8a3.09,3.09,0,0,0-.38-1.63A4.17,4.17,0,0,0,1.82,55.42Z"/><path class="cls-1" d="M4.39,65.33a2.19,2.19,0,0,1-1-.32.81.81,0,0,1-.28-.67.8.8,0,0,1,0-.19,0,0,0,0,1,0,0,.64.64,0,0,0,.36.36,2.55,2.55,0,0,0,1,.1,8.49,8.49,0,0,0,.24-1.51,1,1,0,0,0-.58-1s0,0,0,0a.48.48,0,0,1,.3-.09,1.29,1.29,0,0,1,1.15,1.2,1.36,1.36,0,0,1-.12.57c-.11.31-.21.6-.32.88.4,0,.63.22.63.53s-.06.31-.45.42c-.15,0-.28.07-.49.13-.21.87-.33,1.41-.51,2.28a2.31,2.31,0,0,0,.66-.07.92.92,0,0,1,.29,0c.35,0,.54.14.54.4s-.53.54-1.36.55H4.28c0,.34,0,.52,0,.77,0,1.22.58,1.89,1.66,1.89a1.73,1.73,0,0,0,1.84-1.72c0-1-.69-2.09-2-3.16,0,0,0-.07,0-.06,1.73.85,2.81,2.16,2.81,3.42A2.4,2.4,0,0,1,6,72.23,2.21,2.21,0,0,1,3.69,69.7a9.63,9.63,0,0,1,.06-1,1.42,1.42,0,0,1-.9-1.38,1.25,1.25,0,0,1,.07-.4s0,0,.05,0c.06.57.3.82.92,1,.14-.82.24-1.32.4-2.12a5.16,5.16,0,0,0-1,.43s-.07,0-.05,0a7,7,0,0,1,1.12-.84Z"/><path class="cls-1" d="M5.06,74.23c.1.19.16.25.58.44s.66.43.66.79a2.74,2.74,0,0,1-.12.62,7.91,7.91,0,0,0-.35,1.52,1,1,0,0,0,.41.08,2,2,0,0,0,1-.42.85.85,0,0,1,.49-.18.42.42,0,0,1,.47.38c0,.36-.68.76-1.33.76a2.08,2.08,0,0,1-1.13-.34c0,.3,0,.4,0,.6A7.51,7.51,0,0,0,6,80.23c.09.47.23.86.37,1.41a5.19,5.19,0,0,1,1.78,1.11c.38.39.52.61.52.89s-.16.47-.39.47-.24,0-.43-.37a4.12,4.12,0,0,0-1.38-1.35c0,.13,0,.24,0,.3a1.64,1.64,0,0,1-1.78,1.75A1.77,1.77,0,0,1,3.48,84c-.1-.09-.11-.13-.17-.34a.39.39,0,0,0-.18-.26.56.56,0,0,1-.26-.5c0-.82,1-1.46,2.14-1.46a3.39,3.39,0,0,1,.58.05,13.76,13.76,0,0,1-.41-3.15c0-.43,0-1,.12-2,0-.34.08-.69.08-.84s0-.2-.25-.52A.88.88,0,0,1,5,74.5a.74.74,0,0,1,0-.27S5.05,74.2,5.06,74.23ZM5,82.1c-1,0-1.6.38-1.6.93s.39.71,1.08.71A1.08,1.08,0,0,0,5.7,82.51a1.55,1.55,0,0,0,0-.34A3.21,3.21,0,0,0,5,82.1Z"/><path class="cls-1" d="M1.91,88a1.61,1.61,0,0,1,.8,1.38,6.83,6.83,0,0,1-.14,1.25,13.74,13.74,0,0,0-.12,1.49,4.2,4.2,0,0,0,.44,2c.12.21.3.37.38.37s.14-.08.38-.44c.39-.59.74-1.21,1.12-1.87,0,0,.06,0,.05,0-.25.83-.54,1.52-.73,2.19a2.09,2.09,0,0,0-.1.5,1.12,1.12,0,0,0,.09.41,1,1,0,0,1,.06.25.39.39,0,0,1-.43.37,1.69,1.69,0,0,1-1.17-.77,4.64,4.64,0,0,1-.83-2.91A9.29,9.29,0,0,1,1.8,91c0-.31.08-.57.16-1.11a5.39,5.39,0,0,0,.09-.9,2.29,2.29,0,0,0-.19-1S1.87,88,1.91,88Zm6,1.52a2.27,2.27,0,0,1,1.53.63,2.29,2.29,0,0,1,.83,1.75c0,.58-.25,1-.64,1s-.39-.18-.39-.46,0-.42,0-.64A2.11,2.11,0,0,0,7.9,89.54S7.88,89.5,7.92,89.5Z"/><path class="cls-1" d="M5.22,108.65a6.38,6.38,0,0,0,2.36-1,4,4,0,0,0,1.88-3.54,3.55,3.55,0,0,0-3.61-3.83,3,3,0,0,0-.39,0,3.69,3.69,0,0,1,.72,2.21,5.67,5.67,0,0,1-2,4.32,2.35,2.35,0,0,1-1.31.55.51.51,0,0,1-.55-.44c-.08-.33-.11-.34-.55-.52S1,105.55,1,104.64A4.78,4.78,0,0,1,5.88,100a4.3,4.3,0,0,1,4.55,4.29c0,2.53-2,4.25-4.73,4.46l-.47,0C5.16,108.75,5.15,108.67,5.22,108.65Zm-3.4-4c0,1.08.46,1.86,1.1,1.86a2,2,0,0,0,1.35-.92A5.72,5.72,0,0,0,5.61,102a3.09,3.09,0,0,0-.38-1.63A4.17,4.17,0,0,0,1.82,104.62Z"/><path class="cls-1" d="M1.27,113.18a.42.42,0,0,0,.44.32,5.2,5.2,0,0,0,.77-.11c1.62-.31,3.21-.64,4.8-1a4.9,4.9,0,0,0,1.16-.32.76.76,0,0,1,.3-.07c.58,0,1.18.32,1.18.62s-.21.42-.53.42a7,7,0,0,1-.77-.08,3.85,3.85,0,0,0-.63,0c-.94,0-1.55.19-1.81.56a5.78,5.78,0,0,0-.59,2.92,4.55,4.55,0,0,0,.53,2.52,2.66,2.66,0,0,0,1.42,1,2,2,0,0,1,.64.3.57.57,0,0,1,.13.36c0,.26-.19.43-.53.43a2.51,2.51,0,0,1-1.3-.49C5.43,119.85,5,118.76,5,117.06a6.75,6.75,0,0,1,1-3.82,28.66,28.66,0,0,0-3.09.91,2.47,2.47,0,0,1-.93.24.84.84,0,0,1-.84-.78.61.61,0,0,1,.16-.43S1.26,113.16,1.27,113.18Zm6.56,1.18a2.63,2.63,0,0,1,.45.07c.73.18,1.18.56,1.18,1a.39.39,0,0,1-.36.44c-.2,0-.22,0-.46-.5a2.44,2.44,0,0,0-.82-1S7.81,114.36,7.83,114.36Zm1.29-.54h.22c.81.07,1.43.5,1.43,1a.38.38,0,0,1-.34.4c-.16,0-.24-.07-.45-.43a2.7,2.7,0,0,0-.88-.93S9.09,113.82,9.12,113.82Z"/><path class="cls-1" d="M2.38,123.83a2.07,2.07,0,0,1,1,1.61A4.75,4.75,0,0,1,3,127a9.67,9.67,0,0,0-.71,3.2,3,3,0,0,0,.43,1.73,9.87,9.87,0,0,0,.7-1.17c.34-.66.48-.9.62-1.19,0,0,.06,0,0,0-.2.69-.39,1.31-.57,1.87a2.74,2.74,0,0,0-.2.88,1.29,1.29,0,0,0,.11.45,1.23,1.23,0,0,1,.1.36.35.35,0,0,1-.36.36c-.78,0-1.49-1.58-1.49-3.29a15,15,0,0,1,.49-3.42,8.07,8.07,0,0,0,.34-2,2.29,2.29,0,0,0-.19-1S2.34,123.8,2.38,123.83Zm2.85,2.51a1.82,1.82,0,0,0,1.29.45,4.27,4.27,0,0,0,1.08-.17c0-.6,0-1.44,0-1.81s0-.41-.4-.49c-.12,0-.13,0-.13-.07A.29.29,0,0,1,7.2,124a.57.57,0,0,1,.42-.17c.44,0,.8.25.8.6a1.37,1.37,0,0,1,0,.3l0,.28c.59.44.89.61,1.17.62l.21,0a.4.4,0,0,1,.37.41c0,.22-.14.42-.54.63a5.12,5.12,0,0,1-1.31.58,20.19,20.19,0,0,0,.3,3.4c1.26.45,2.1,1.11,2.1,1.65a.39.39,0,0,1-.36.42c-.13,0-.18,0-.55-.44a4,4,0,0,0-1.16-.86.82.82,0,0,1,0,.14,1.52,1.52,0,0,1-1.65,1.7,1.62,1.62,0,0,1-1.16-.36.76.76,0,0,1-.21-.44.45.45,0,0,0-.17-.28.45.45,0,0,1-.13-.33c0-.78.85-1.36,2-1.36a5.33,5.33,0,0,1,.56,0c-.1-1.15-.12-2-.15-3.15a3.25,3.25,0,0,1-.73.09,1.72,1.72,0,0,1-1.72-1.1S5.21,126.32,5.23,126.34ZM7,131.12c-.79,0-1.32.32-1.32.8s.41.68,1,.68c.77,0,1.13-.33,1.13-1.09a2.36,2.36,0,0,0,0-.3A3.12,3.12,0,0,0,7,131.12ZM9.15,126a8.06,8.06,0,0,0-.83-.86c0,.42,0,.83-.07,1.28A2.5,2.5,0,0,0,9.15,126Z"/><path class="cls-1" d="M5.5,137.23c.26,0,.41.13.41.37,0,.41-.74.89-2.05,1.33-.11.5-.19.88-.3,1.36s-.24,1-.41,1.7c-.28,1.11-.34,1.23-.62,1.23s-.43-.28-.43-.64a.94.94,0,0,1,.13-.49,8.17,8.17,0,0,0,.39-1,20.71,20.71,0,0,0,.56-2,5.15,5.15,0,0,1-1.3.2.68.68,0,0,1-.73-.76,2.07,2.07,0,0,1,.07-.45s0,0,.05,0c.1.35.23.47.56.47a5.68,5.68,0,0,0,1.52-.3,11.68,11.68,0,0,0,.25-1.69.32.32,0,0,0-.24-.37c-.11,0-.16-.07-.16-.11a.34.34,0,0,1,.17-.25.65.65,0,0,1,.37-.12.73.73,0,0,1,.73.61c0,.2-.08.26-.12.43a1.57,1.57,0,0,0,.92.48Zm1.77,2.23a1.3,1.3,0,0,0-.43,1,6.08,6.08,0,0,0,.26,1.46c.2.8.28,1.16.35,1.59,1.07.42,1.81,1.1,1.81,1.64,0,.25-.14.43-.36.43s-.22,0-.47-.42a2.46,2.46,0,0,0-1-.9,1.64,1.64,0,0,1-1.86,1.61,1.79,1.79,0,0,1-1.28-.43.56.56,0,0,1-.16-.4.24.24,0,0,0-.11-.19.35.35,0,0,1-.16-.31c0-.72.91-1.28,2.1-1.28a2.84,2.84,0,0,1,.7.09c-.05-.37-.09-.62-.23-1.38a6.74,6.74,0,0,1-.12-1.05,1.66,1.66,0,0,1,.89-1.54S7.3,139.43,7.27,139.46ZM5,137.64a5.11,5.11,0,0,0-.67-.76c-.1.42-.18.77-.27,1.2A4.17,4.17,0,0,0,5,137.64Zm.68,6.25c-.79,0-1.33.29-1.33.72s.42.63,1,.63a1.33,1.33,0,0,0,1.19-.61A1.32,1.32,0,0,0,6.7,144,3.53,3.53,0,0,0,5.66,143.89Zm1.9-5.81a2.11,2.11,0,0,1,1.36-.49c.79,0,1.42.46,1.42,1a.44.44,0,0,1-.46.49.7.7,0,0,1-.39-.13.68.68,0,0,0-.35-.07,8.29,8.29,0,0,0-.85.06s-.06-.06,0-.07c.43-.14.82-.28,1.12-.41A1.14,1.14,0,0,0,8.29,138a1.8,1.8,0,0,0-.71.12S7.52,138.11,7.56,138.08Z"/><path class="cls-1" d="M1.91,149.48a1.61,1.61,0,0,1,.8,1.38,6.83,6.83,0,0,1-.14,1.25,13.74,13.74,0,0,0-.12,1.49,4.2,4.2,0,0,0,.44,2c.12.21.3.37.38.37s.14-.08.38-.44c.39-.59.74-1.21,1.12-1.87,0,0,.06,0,.05,0-.25.83-.54,1.52-.73,2.19a2.09,2.09,0,0,0-.1.5,1.12,1.12,0,0,0,.09.41,1,1,0,0,1,.06.25.39.39,0,0,1-.43.37,1.69,1.69,0,0,1-1.17-.77,4.64,4.64,0,0,1-.83-2.91,9.29,9.29,0,0,1,.09-1.18c0-.31.08-.57.16-1.11a5.39,5.39,0,0,0,.09-.9,2.29,2.29,0,0,0-.19-1S1.87,149.46,1.91,149.48Zm6,1.52a2.27,2.27,0,0,1,1.53.63,2.29,2.29,0,0,1,.83,1.75c0,.58-.25,1-.64,1s-.39-.18-.39-.46,0-.42,0-.64A2.11,2.11,0,0,0,7.9,151S7.88,151,7.92,151Z"/><path class="cls-1" d="M1.27,162.38a.42.42,0,0,0,.44.31,4.79,4.79,0,0,0,.77-.1c1.62-.32,3.21-.64,4.8-1a4.9,4.9,0,0,0,1.16-.32.76.76,0,0,1,.3-.07c.58,0,1.18.32,1.18.62s-.21.42-.53.42a5.93,5.93,0,0,1-.77-.09,5.66,5.66,0,0,0-.63,0c-.94,0-1.55.19-1.81.56a5.78,5.78,0,0,0-.59,2.92,4.55,4.55,0,0,0,.53,2.52,2.66,2.66,0,0,0,1.42,1,2,2,0,0,1,.64.3.59.59,0,0,1,.13.36c0,.26-.19.43-.53.43a2.51,2.51,0,0,1-1.3-.49C5.43,169.05,5,168,5,166.26a6.75,6.75,0,0,1,1-3.82,28.66,28.66,0,0,0-3.09.91,2.47,2.47,0,0,1-.93.24.84.84,0,0,1-.84-.78.59.59,0,0,1,.16-.43S1.26,162.36,1.27,162.38Zm6.56,1.18a2.63,2.63,0,0,1,.45.07c.73.18,1.18.56,1.18,1a.39.39,0,0,1-.36.44c-.2,0-.22,0-.46-.5a2.44,2.44,0,0,0-.82-1S7.81,163.56,7.83,163.56ZM9.12,163h.22c.81.07,1.43.5,1.43,1a.38.38,0,0,1-.34.4c-.16,0-.24-.07-.45-.43a2.7,2.7,0,0,0-.88-.93S9.09,163,9.12,163Z"/><path class="cls-1" d="M2.72,173a.71.71,0,0,1,.39-.11,1.43,1.43,0,0,1,1.35,1.52,10.25,10.25,0,0,1-.25,1.79,21.9,21.9,0,0,0-.48,3.55,1.8,1.8,0,0,0,2,2,4.42,4.42,0,0,0,4-3.16s.06,0,.06,0c-.39,2.42-2,4-4.1,4-1.68,0-2.59-1.07-2.59-3.06a29.28,29.28,0,0,1,.23-3.1,20.33,20.33,0,0,0,.13-2.25c0-.69-.18-1-.72-1.18C2.7,173.06,2.7,173,2.72,173Z"/><path class="cls-1" d="M6.79,185.84c.06.18.08.2.53.36a.75.75,0,0,1,.55.67,1.65,1.65,0,0,1-.13.62,5.64,5.64,0,0,0-.24,1.12,1,1,0,0,0,.28,0,1.13,1.13,0,0,0,.78-.34.5.5,0,0,1,.4-.17.41.41,0,0,1,.44.38c0,.31-.57.63-1.14.63a1.34,1.34,0,0,1-.8-.27c0,.21,0,.3,0,.42a7.56,7.56,0,0,0,.5,2.52c1,.4,1.82,1.1,1.82,1.64a.36.36,0,0,1-.33.39c-.17,0-.22-.06-.54-.53a2.6,2.6,0,0,0-.88-.8c0,.15,0,.22,0,.3a1.3,1.3,0,0,1-1.44,1.31c-.71,0-1-.19-1.18-.68,0-.09,0-.09-.21-.23a.37.37,0,0,1-.14-.33c0-.69.75-1.23,1.73-1.23a2.38,2.38,0,0,1,.44,0,10.24,10.24,0,0,1-.33-2.54c0-.46,0-1,.11-2,0-.1,0-.18,0-.22a.39.39,0,0,0-.13-.33.77.77,0,0,1-.21-.51.6.6,0,0,1,0-.24S6.78,185.81,6.79,185.84Zm-.06,6.39c-.7,0-1.18.29-1.18.72s.36.59.85.59a.84.84,0,0,0,.94-.93,1.72,1.72,0,0,0,0-.31A2,2,0,0,0,6.73,192.23Z"/><path class="cls-1" d="M3,201c.07.24.18.35.32.35a1.21,1.21,0,0,0,.4-.11,6.59,6.59,0,0,1,2.58-.77,1.33,1.33,0,0,1,1.28.83,6,6,0,0,1,.47,2.52,3,3,0,0,1-1.76,3.1,7.45,7.45,0,0,1-2.83.61c-.06,0-.06-.09,0-.1a5.79,5.79,0,0,0,2.63-1.14c.76-.59,1.07-1.47,1.07-3,0-1.75-.23-2.4-.83-2.4a4.72,4.72,0,0,0-1.89.89c-.54.36-.7.44-.92.44a.77.77,0,0,1-.72-.76A.83.83,0,0,1,3,201S3,200.92,3,201Zm1.91-3.9c.29.24.46.29,1.23.37a1.06,1.06,0,0,1,.66.18.79.79,0,0,1,.34.65c0,.3-.16.42-.54.43H6.17a5,5,0,0,0-1.18.44s-.06,0,0,0c.63-.48.81-.62,1.14-.9l-.27-.11a1.57,1.57,0,0,1-.77-.52,1.14,1.14,0,0,1-.17-.49S4.89,197.05,4.92,197.06Z"/><path class="cls-1" d="M1.52,213.07a1,1,0,0,0,.89.48,4,4,0,0,0,1-.16,10,10,0,0,0,.29-2c0-.22,0-.32-.06-.4s-.18-.06-.37-.06-.1,0-.1-.07a.62.62,0,0,1,.13-.32.66.66,0,0,1,.54-.28c.39,0,.59.28.59.84a12.08,12.08,0,0,1-.32,2.2,4.19,4.19,0,0,1,1.16-.21c.89,0,1.29.67,1.29,2.08a5.48,5.48,0,0,1-.92,3.22,2.34,2.34,0,0,1-1.63,1c-.43,0-.59-.16-.89-1.32-.08-.4-.16-.67-.27-1.1-.48,1-.84,1.47-1.15,1.47s-.39-.25-.39-.59,0-.3.36-.6a7.79,7.79,0,0,0,1.58-3.11,2.5,2.5,0,0,1-.88.22,1,1,0,0,1-.89-1.06.47.47,0,0,1,.05-.22S1.51,213.05,1.52,213.07Zm1.38,3.69a8,8,0,0,0,.54,1.1c.24.38.4.51.59.51.9,0,1.74-1.7,1.74-3.52,0-.94-.15-1.34-.54-1.34a4.05,4.05,0,0,0-1.28.38A13.9,13.9,0,0,1,2.9,216.76Zm4.75-3.68a1.54,1.54,0,0,1,1.13-.47,2.1,2.1,0,0,1,1.91,2c0,.59-.33,1-.75,1-.14,0-.19,0-.35-.24a.79.79,0,0,0-.51-.26c-.26-.05-.48-.08-.74-.15,0,0,0-.05,0-.05,1.2-.07,1.47-.16,1.47-.49A1.65,1.65,0,0,0,8.38,213a1.86,1.86,0,0,0-.7.17S7.63,213.11,7.65,213.08Z"/><path class="cls-1" d="M11.25,223.22a1.59,1.59,0,1,1-1.58-1.58A1.62,1.62,0,0,1,11.25,223.22Zm-2.75,0a1.17,1.17,0,1,0,1.17-1.16A1.19,1.19,0,0,0,8.5,223.22Z"/></g></g></svg>