<svg xmlns="http://www.w3.org/2000/svg" viewBox="0 0 98.96 311.15"><defs><style>.cls-1{fill:#3d4035;}.cls-2{fill:#8b6841;}</style></defs><g id="レイヤー_2" data-name="レイヤー 2"><g id="レイヤー_1-2" data-name="レイヤー 1"><line class="cls-1" x1="35.78" y1="21.74" x2="35.78" y2="288.77"/><rect class="cls-1" x="35.55" y="21.74" width="0.48" height="267.02"/><line class="cls-1" x1="32.03" y1="21.74" x2="32.03" y2="288.77"/><rect class="cls-1" x="31.8" y="21.74" width="0.48" height="267.02"/><line class="cls-1" x1="66.68" y1="21.74" x2="66.68" y2="288.77"/><rect class="cls-1" x="66.45" y="21.74" width="0.48" height="267.02"/><line class="cls-1" x1="63.33" y1="21.74" x2="63.33" y2="288.77"/><rect class="cls-1" x="63.09" y="21.74" width="0.48" height="267.02"/><path class="cls-1" d="M98.65,31.2,49.79.09a.58.58,0,0,0-.62,0L.31,31.2a.7.7,0,0,0-.31.59V279.36a.72.72,0,0,0,.31.59l48.86,31.1a.52.52,0,0,0,.31.1.54.54,0,0,0,.31-.1L98.65,280a.72.72,0,0,0,.31-.59V31.79A.7.7,0,0,0,98.65,31.2ZM97.72,279,49.48,309.68,1.23,279V32.18L49.48,1.46,97.72,32.18Z"/><path class="cls-1" d="M49.36,303.51a.19.19,0,0,1-.12,0L6.14,276a.29.29,0,0,1-.12-.23V35.58a.28.28,0,0,1,.12-.23L49.24,7.91a.21.21,0,0,1,.24,0l43.1,27.44a.28.28,0,0,1,.12.23V275.81a.29.29,0,0,1-.12.23l-43.1,27.43A.19.19,0,0,1,49.36,303.51ZM6.5,275.66l42.86,27.28,42.86-27.28V35.73L49.36,8.44,6.5,35.73Zm86,.15Z"/><path class="cls-2" d="M11.79,119l0,0a0,0,0,0,0-.06,0A15,15,0,0,0,15.4,129.2a.06.06,0,0,0,.08,0s0,0,0-.07a14.9,14.9,0,0,1-3.68-10.09A0,0,0,0,0,11.79,119Z"/><path class="cls-2" d="M10.13,123.1a2.35,2.35,0,0,1,.68-2.06l.91-.77a4.54,4.54,0,0,1-.16,1.73C11.28,122.77,10.13,123.1,10.13,123.1Z"/><path class="cls-2" d="M14.87,124.33a3.48,3.48,0,0,1-2.16-1.24l-.73-1a6.33,6.33,0,0,1,1.86.68A2.6,2.6,0,0,1,14.87,124.33Z"/><path class="cls-2" d="M17.57,131.06a3.46,3.46,0,0,1-2-1.42l-.61-1.09a6.58,6.58,0,0,1,1.79.84A2.48,2.48,0,0,1,17.57,131.06Z"/><path class="cls-2" d="M16.47,128.21a2.6,2.6,0,0,1-1.84-.52l-.71-.64a4.88,4.88,0,0,1,1.52.15A1.89,1.89,0,0,1,16.47,128.21Z"/><path class="cls-2" d="M13.85,121.07a2.17,2.17,0,0,0-1.22-1l-.83-.24a3.92,3.92,0,0,0,.79,1A2,2,0,0,0,13.85,121.07Z"/><path class="cls-2" d="M14.84,125.86a2.17,2.17,0,0,0-1.22-1l-.83-.23a3.75,3.75,0,0,0,.78,1A2.05,2.05,0,0,0,14.84,125.86Z"/><path class="cls-2" d="M11.46,125.39a1.84,1.84,0,0,0,.75-1.52l-.08-.92a3.31,3.31,0,0,0-.86,1A1.77,1.77,0,0,0,11.46,125.39Z"/><path class="cls-2" d="M12.89,128.25a1.82,1.82,0,0,0,.53-1.6l-.21-.91a3.37,3.37,0,0,0-.7,1.14A1.89,1.89,0,0,0,12.89,128.25Z"/><path class="cls-2" d="M21.43,142.37s0,0,0,0a13.28,13.28,0,0,1-2.23-2.45,5.47,5.47,0,0,1-.89-3.08,10,10,0,0,1,.34-2.49c.16.27.31.55.49.81a26.17,26.17,0,0,0,4.24,4.56h.05a0,0,0,0,0,0-.06,25.42,25.42,0,0,1-4.16-4.58,9.23,9.23,0,0,1-.56-1c.05-.16.09-.32.14-.48.31-1.05.7-2.07,1-3.12a29.27,29.27,0,0,0,1.37-6.42,16.82,16.82,0,0,0-.65-6.53.76.76,0,0,0,0-.11,53.15,53.15,0,0,0,2.54-11.9,34.86,34.86,0,0,0,0-6.13,29.08,29.08,0,0,0-1.2-6.05c-.63-2-1.44-3.85-2.13-5.76a31.44,31.44,0,0,1-1.09-3.54c.06-1,.09-1.93.1-2.9,0-.54,0-1.09,0-1.64s0-1.09-.06-1.64l-.09-1.64c0-.55-.1-1.09-.15-1.64-.27-2.83-.7-5.63-1.18-8.42l0,0c.34.68.68,1.37,1.08,2a13,13,0,0,0,1.34,1.9c.5.6,1,1.16,1.49,1.75a11.62,11.62,0,0,1,2,4,19.45,19.45,0,0,1,.67,4.43c0,.75,0,1.51.08,2.27a7.86,7.86,0,0,0,.43,2.24,4,4,0,0,0,1.37,1.85,10.48,10.48,0,0,0,2.06,1.11s0,0,0,0a0,0,0,0,0,0,0,10.09,10.09,0,0,1-2-1.14,3.9,3.9,0,0,1-1.28-1.82,7.52,7.52,0,0,1-.37-2.2c0-.75,0-1.51,0-2.26a19.71,19.71,0,0,0-.57-4.52,12.08,12.08,0,0,0-1.94-4.18c-.46-.63-1-1.2-1.46-1.79A11.63,11.63,0,0,1,18.88,68c-.37-.66-.69-1.34-1-2l-1-2.07,0-.06c-.13-.73-.27-1.47-.4-2.2s-.27-1.48-.41-2.22,0-1.29-.06-1.93a83,83,0,0,1,.52-12.11h0a.57.57,0,0,0-.52-.63.6.6,0,0,0-.66.51c-.26,2.4-.4,4.81-.44,7.22q-.27-1.84-.45-3.69a50.29,50.29,0,0,1,.23-12.86h0a.67.67,0,0,0-.59-.76.69.69,0,0,0-.8.57A51.1,51.1,0,0,0,13.2,48.9c.37,3.33,1,6.63,1.6,9.91a28.68,28.68,0,0,1-1-3.37h0a.44.44,0,0,0-.52-.31.41.41,0,0,0-.32.5,28.08,28.08,0,0,0,.85,2.84v0a41.66,41.66,0,0,0,.2,9.07l.25,2.25c.09.75.18,1.5.32,2.25a13.2,13.2,0,0,0,.62,2.21c.27.71.58,1.4.81,2.12a11.44,11.44,0,0,1,.49,4.43,19.7,19.7,0,0,1-.89,4.42c-.22.72-.49,1.43-.69,2.16a7.78,7.78,0,0,0-.36,2.25,3.82,3.82,0,0,0,.66,2.16,9.29,9.29,0,0,0,1.57,1.69h0v0a9.57,9.57,0,0,1-1.55-1.7,3.88,3.88,0,0,1-.62-2.13,8,8,0,0,1,.38-2.22c.21-.72.48-1.43.72-2.15a20,20,0,0,0,.94-4.44,11.72,11.72,0,0,0-.44-4.52c-.23-.73-.54-1.43-.79-2.14A11.69,11.69,0,0,1,14.91,72c-.13-.74-.22-1.49-.29-2.24l-.23-2.25a44.09,44.09,0,0,1-.19-8.12c.3.79.63,1.58,1,2.35.18,2.66.44,5.32.72,8l.69,6.07c.23,2,.48,4.06.86,6.08.12.66.27,1.33.43,2-.05,1.26-.13,2.52-.26,3.77s-.29,2.71-.48,4.05a.16.16,0,0,0,0,.09c0,.12,0,.24,0,.36-.41,2.8-.95,5.59-1.57,8.36-.47,2.12-1,4.24-1.51,6.35s-1.09,4.23-1.57,6.36a48.79,48.79,0,0,0-1.08,6.47A27.59,27.59,0,0,0,11.2,123a23.9,23.9,0,0,0,.27,3.27c.66,4.33,2.42,8.42,2.72,12.78,0,0,0,.06.07.06a.08.08,0,0,0,.07-.07c-.26-4.39-2-8.52-2.57-12.81a25.08,25.08,0,0,1-.23-3.24,29.3,29.3,0,0,1,.17-3.24,48.27,48.27,0,0,1,1.16-6.4c.5-2.12,1.09-4.22,1.64-6.33s1.1-4.23,1.6-6.36c.27-1.14.52-2.29.76-3.44,0,2.58.26,5.16.53,7.71l.37,3.26c.13,1.08.26,2.17.46,3.25a18.65,18.65,0,0,0,.89,3.19c.36,1,.77,1.88,1.1,2.84-.61,1.94-1.31,3.86-1.88,5.83a21.11,21.11,0,0,0-.95,6.05,10.51,10.51,0,0,0,.45,3,6.28,6.28,0,0,0,.25.73c.09.24.18.48.29.71l.18.34a10.2,10.2,0,0,0-.36,2.69,5.6,5.6,0,0,0,.94,3.12,13.81,13.81,0,0,0,2.27,2.44Zm-4-66.66-.62-6.07L16.74,69c.32,1.89.6,3.77.8,5.67.05.54.12,1.07.17,1.61l.1,1.62c0,.54.08,1.08.08,1.62,0,.09,0,.18,0,.27C17.71,78.45,17.56,77.08,17.42,75.71Zm2,38.75a18.2,18.2,0,0,1-.84-3.14c-.19-1.07-.31-2.15-.42-3.23l-.33-3.25a65.54,65.54,0,0,1-.31-11.37c.33-1.91.61-3.83.82-5.76.05-.51.1-1,.14-1.51.18.54.37,1.08.57,1.61.73,1.93,1.56,3.8,2.19,5.72a29.29,29.29,0,0,1,1.25,5.92,33.94,33.94,0,0,1,.07,6,52.55,52.55,0,0,1-2.23,11.35C20.09,116.05,19.76,115.25,19.47,114.46Zm-.94,19.26a6.22,6.22,0,0,1-.29-.71,6.08,6.08,0,0,1-.24-.72,10.42,10.42,0,0,1-.4-3,20.65,20.65,0,0,1,1-6c.53-1.8,1.19-3.56,1.78-5.34a16.53,16.53,0,0,1,.6,6.06,28.51,28.51,0,0,1-1.28,6.39c-.33,1-.71,2.07-1,3.13l-.09.32C18.59,133.83,18.55,133.78,18.53,133.72Z"/><path class="cls-2" d="M14.83,59.11a.09.09,0,0,1,0-.07A.08.08,0,0,1,15,59a23.11,23.11,0,0,1,7.31,15,.09.09,0,0,1-.08.09.09.09,0,0,1-.09-.08,22.89,22.89,0,0,0-7.25-14.85A.09.09,0,0,1,14.83,59.11Z"/><path class="cls-2" d="M21.47,62.32a4.56,4.56,0,0,0-3.17-1.77l-1.94-.07a8.11,8.11,0,0,0,2.17,1.84A4.16,4.16,0,0,0,21.47,62.32Z"/><path class="cls-2" d="M17.31,67.94a4.24,4.24,0,0,0,1.12-3.34l-.34-1.84a7.9,7.9,0,0,0-1.41,2.42A3.69,3.69,0,0,0,17.31,67.94Z"/><path class="cls-2" d="M21.86,78.07a4.22,4.22,0,0,0,.76-3.44l-.53-1.79a7.67,7.67,0,0,0-1.15,2.55A3.72,3.72,0,0,0,21.86,78.07Z"/><path class="cls-2" d="M19.89,73.81a3.27,3.27,0,0,0,1.57-2.22l.09-1.37a6.58,6.58,0,0,0-1.62,1.52A2.41,2.41,0,0,0,19.89,73.81Z"/><path class="cls-2" d="M14.77,63.29A2.72,2.72,0,0,1,15,61l.71-1a4.88,4.88,0,0,1,.18,1.79A2.51,2.51,0,0,1,14.77,63.29Z"/><path class="cls-2" d="M19.1,69.67a2.74,2.74,0,0,1,.25-2.27l.7-1a4.88,4.88,0,0,1,.18,1.79A2.51,2.51,0,0,1,19.1,69.67Z"/><path class="cls-2" d="M22.54,66.14a3.66,3.66,0,0,1-2.64-1.08l-1-1.14a6.88,6.88,0,0,1,2.22.44A3,3,0,0,1,22.54,66.14Z"/><path class="cls-2" d="M24.14,70.7a3.59,3.59,0,0,1-2.46-1.38l-.8-1.23a6.65,6.65,0,0,1,2.13.7A2.91,2.91,0,0,1,24.14,70.7Z"/><path class="cls-2" d="M13.5,44.91a.08.08,0,0,0,0,.07.09.09,0,0,0,.1.06A26,26,0,0,0,28,34.19a.09.09,0,0,0,0-.13.08.08,0,0,0-.11,0,25.87,25.87,0,0,1-14.3,10.78S13.52,44.89,13.5,44.91Z"/><path class="cls-2" d="M21,45.2a4.33,4.33,0,0,1-3.68.09l-1.71-.94a8.13,8.13,0,0,1,2.86-.68A3.81,3.81,0,0,1,21,45.2Z"/><path class="cls-2" d="M20.43,37.54a5.25,5.25,0,0,1-.86,3.86L18.29,43a9.39,9.39,0,0,1,.1-3.11A4.37,4.37,0,0,1,20.43,37.54Z"/><path class="cls-2" d="M29.83,30a5.24,5.24,0,0,1-1.21,3.76l-1.43,1.48a9.62,9.62,0,0,1,.39-3.1A4.33,4.33,0,0,1,29.83,30Z"/><path class="cls-2" d="M25.82,33.13a3.8,3.8,0,0,1,.15,3l-.66,1.39a7,7,0,0,1-.57-2.33A3,3,0,0,1,25.82,33.13Z"/><path class="cls-2" d="M15.72,40.78a3.33,3.33,0,0,0-1,2.34l.06,1.35a6.14,6.14,0,0,0,1.13-1.66A2.9,2.9,0,0,0,15.72,40.78Z"/><path class="cls-2" d="M22.9,36.78a3.37,3.37,0,0,0-1,2.35l.06,1.35a6.14,6.14,0,0,0,1.13-1.66A2.93,2.93,0,0,0,22.9,36.78Z"/><path class="cls-2" d="M23.94,42a3.32,3.32,0,0,0-2.85-.31l-1.44.61A5.82,5.82,0,0,0,21.8,43,3.21,3.21,0,0,0,23.94,42Z"/><path class="cls-2" d="M27.79,38.39a3.32,3.32,0,0,0-2.86.07l-1.36.79a5.9,5.9,0,0,0,2.21.42A3.25,3.25,0,0,0,27.79,38.39Z"/><path class="cls-2" d="M9.75,45.55a.06.06,0,0,1,0-.06.08.08,0,0,1,.11,0A24.66,24.66,0,0,1,22.44,57.4a.08.08,0,0,1,0,.11.1.1,0,0,1-.12,0A24.52,24.52,0,0,0,9.8,45.59.07.07,0,0,1,9.75,45.55Z"/><path class="cls-2" d="M17.35,46.41a4.84,4.84,0,0,0-3.71-.64l-1.91.59a8.61,8.61,0,0,0,2.77,1A4.21,4.21,0,0,0,17.35,46.41Z"/><path class="cls-2" d="M15.41,53.24a4.29,4.29,0,0,0-.16-3.61l-1-1.66a7.69,7.69,0,0,0-.47,2.82A3.94,3.94,0,0,0,15.41,53.24Z"/><path class="cls-2" d="M23.54,61.46A4.29,4.29,0,0,0,23,57.89l-1.18-1.55a7.87,7.87,0,0,0-.16,2.85A4,4,0,0,0,23.54,61.46Z"/><path class="cls-2" d="M20.06,58a3.24,3.24,0,0,0,.69-2.68L20.34,54a6.26,6.26,0,0,0-1,2A2.57,2.57,0,0,0,20.06,58Z"/><path class="cls-2" d="M11.24,49.61a2.8,2.8,0,0,1-.6-2.27l.3-1.21a5.08,5.08,0,0,1,.84,1.67A2.49,2.49,0,0,1,11.24,49.61Z"/><path class="cls-2" d="M17.78,54.29A2.82,2.82,0,0,1,17.17,52l.31-1.21a5.15,5.15,0,0,1,.83,1.67A2.46,2.46,0,0,1,17.78,54.29Z"/><path class="cls-2" d="M19.79,49.72a3.8,3.8,0,0,1-2.95-.15l-1.34-.76a6.72,6.72,0,0,1,2.3-.33A3.22,3.22,0,0,1,19.79,49.72Z"/><path class="cls-2" d="M23,53.58a3.75,3.75,0,0,1-2.88-.5l-1.23-.91a6.8,6.8,0,0,1,2.32-.05A3.12,3.12,0,0,1,23,53.58Z"/><path class="cls-2" d="M16,67.11a62.5,62.5,0,0,1-3.76,9.8A10,10,0,0,0,16,67.11Z"/><path class="cls-2" d="M15.6,67v0s-2.28.19-3.95,4.15c-.88,2.09.12,5.73.12,5.73l.08-.06A62.59,62.59,0,0,0,15.6,67Z"/><path class="cls-2" d="M17.89,87.22a54.92,54.92,0,0,1-5.52,7.1A8.72,8.72,0,0,0,17.89,87.22Z"/><path class="cls-2" d="M17.62,87.07v0s-1.91-.37-4.26,2.46C12.13,91,12,94.2,12,94.2l.08,0A55.7,55.7,0,0,0,17.62,87.07Z"/><path class="cls-2" d="M18,106.45a39.52,39.52,0,0,1-4.63,4.39A6.25,6.25,0,0,0,18,106.45Z"/><path class="cls-2" d="M17.78,106.32v0s-1.28-.45-3.23,1.29a6.87,6.87,0,0,0-1.46,3.13h.06A39.52,39.52,0,0,0,17.78,106.32Z"/><path class="cls-2" d="M17.66,91.78a41.73,41.73,0,0,1,4.32,7C22,98.17,22.21,93.54,17.66,91.78Z"/><path class="cls-2" d="M17.41,92h0s-1.13,1.87.53,4.84c.88,1.57,3.8,2.31,3.8,2.31a.45.45,0,0,1,0-.08A42.07,42.07,0,0,0,17.41,92Z"/><path class="cls-2" d="M19.77,118.62a34.21,34.21,0,0,1-4.9,4.4C15.42,122.94,19.15,122.27,19.77,118.62Z"/><path class="cls-2" d="M19.53,118.48v0s-1.69-.5-3.77,1.24c-1.11.92-1.19,3.19-1.19,3.19h.06A34.21,34.21,0,0,0,19.53,118.48Z"/><path class="cls-2" d="M18.52,135.76a29.27,29.27,0,0,1-3.18,4.65C15.78,140.23,18.78,138.94,18.52,135.76Z"/><path class="cls-2" d="M18.29,135.69v0a3.71,3.71,0,0,0-2.91,1.77c-.73,1-.33,2.91-.33,2.91l.06,0A28.49,28.49,0,0,0,18.29,135.69Z"/><path class="cls-2" d="M87.15,119l0,0s0,0,0,0a15,15,0,0,1-3.7,10.16.06.06,0,0,1-.08,0,0,0,0,0,1,0-.07,14.8,14.8,0,0,0,3.68-10.09Z"/><path class="cls-2" d="M88.81,123.1a2.35,2.35,0,0,0-.68-2.06l-.91-.77a4.54,4.54,0,0,0,.16,1.73C87.65,122.77,88.81,123.1,88.81,123.1Z"/><path class="cls-2" d="M84.07,124.33a3.48,3.48,0,0,0,2.16-1.24l.73-1a6.33,6.33,0,0,0-1.86.68A2.6,2.6,0,0,0,84.07,124.33Z"/><path class="cls-2" d="M81.36,131.06a3.47,3.47,0,0,0,2-1.42l.61-1.09a6.58,6.58,0,0,0-1.79.84A2.51,2.51,0,0,0,81.36,131.06Z"/><path class="cls-2" d="M82.47,128.21a2.6,2.6,0,0,0,1.84-.52l.71-.64a4.88,4.88,0,0,0-1.52.15A1.89,1.89,0,0,0,82.47,128.21Z"/><path class="cls-2" d="M85.09,121.07a2.17,2.17,0,0,1,1.22-1l.82-.24a3.75,3.75,0,0,1-.78,1A2,2,0,0,1,85.09,121.07Z"/><path class="cls-2" d="M84.1,125.86a2.17,2.17,0,0,1,1.22-1l.83-.23a3.75,3.75,0,0,1-.78,1A2.05,2.05,0,0,1,84.1,125.86Z"/><path class="cls-2" d="M87.48,125.39a1.87,1.87,0,0,1-.76-1.52l.09-.92a3.46,3.46,0,0,1,.86,1A1.77,1.77,0,0,1,87.48,125.39Z"/><path class="cls-2" d="M86.05,128.25a1.82,1.82,0,0,1-.53-1.6l.21-.91a3.43,3.43,0,0,1,.69,1.14A1.86,1.86,0,0,1,86.05,128.25Z"/><path class="cls-2" d="M77.53,142.37a13.45,13.45,0,0,0,2.27-2.44,5.54,5.54,0,0,0,1-3.12,9.81,9.81,0,0,0-.37-2.69,3.65,3.65,0,0,0,.18-.34,11,11,0,0,0,.55-1.44,10.51,10.51,0,0,0,.45-3,20.78,20.78,0,0,0-1-6.05c-.56-2-1.26-3.89-1.87-5.83.33-1,.73-1.89,1.09-2.84a18.68,18.68,0,0,0,.9-3.19c.2-1.08.33-2.17.46-3.25l.37-3.26c.27-2.55.49-5.13.53-7.71.24,1.15.49,2.3.76,3.44.5,2.13,1,4.25,1.59,6.36s1.14,4.21,1.65,6.33a51.74,51.74,0,0,1,1.16,6.4,27,27,0,0,1,.16,3.24,23.41,23.41,0,0,1-.22,3.24c-.61,4.29-2.32,8.42-2.57,12.81,0,0,0,.07.06.07a.09.09,0,0,0,.08-.06c.3-4.36,2.06-8.45,2.72-12.78a23.9,23.9,0,0,0,.27-3.27,27.59,27.59,0,0,0-.13-3.28,50.48,50.48,0,0,0-1.08-6.47c-.49-2.13-1-4.24-1.57-6.36s-1-4.23-1.52-6.35c-.61-2.77-1.15-5.56-1.56-8.36,0-.12,0-.24,0-.36a.32.32,0,0,0,0-.09c-.19-1.34-.36-2.69-.49-4.05s-.2-2.51-.25-3.77c.16-.66.3-1.33.43-2,.38-2,.63-4.05.86-6.08l.69-6.07c.28-2.65.53-5.31.72-8,.34-.77.67-1.56,1-2.35a44.09,44.09,0,0,1-.19,8.12l-.23,2.25c-.08.75-.16,1.5-.29,2.24a12.53,12.53,0,0,1-.58,2.16c-.26.71-.56,1.41-.79,2.14a11.73,11.73,0,0,0-.45,4.52,20,20,0,0,0,1,4.44c.24.72.5,1.43.72,2.15a8,8,0,0,1,.38,2.22,3.88,3.88,0,0,1-.62,2.13,10,10,0,0,1-1.55,1.7v0h0a9.29,9.29,0,0,0,1.57-1.69,4,4,0,0,0,.66-2.16A7.78,7.78,0,0,0,84,87.39c-.21-.73-.47-1.44-.69-2.16a19.16,19.16,0,0,1-.89-4.42,11.44,11.44,0,0,1,.49-4.43c.23-.72.54-1.41.81-2.12a13.17,13.17,0,0,0,.61-2.21c.14-.75.24-1.5.32-2.25l.26-2.25a41.66,41.66,0,0,0,.2-9.07v0c.32-.93.62-1.88.85-2.84a.42.42,0,0,0-.32-.5.44.44,0,0,0-.52.31h0a30.74,30.74,0,0,1-1,3.37c.63-3.28,1.23-6.58,1.6-9.91a51.54,51.54,0,0,0-.09-13.19.71.71,0,0,0-1.4.19h0a50.29,50.29,0,0,1,.23,12.86c-.12,1.23-.28,2.46-.45,3.69,0-2.41-.18-4.82-.44-7.22a.6.6,0,0,0-.66-.51.58.58,0,0,0-.53.63h0a83,83,0,0,1,.53,12.11l-.06,1.93c-.14.74-.27,1.48-.41,2.22s-.27,1.47-.41,2.2l0,.06-1,2.07c-.33.68-.65,1.36-1,2a11.63,11.63,0,0,1-1.25,1.86c-.48.59-1,1.16-1.46,1.79a12.08,12.08,0,0,0-1.94,4.18,20.29,20.29,0,0,0-.58,4.52c0,.75,0,1.51,0,2.26a7.86,7.86,0,0,1-.37,2.2,3.85,3.85,0,0,1-1.29,1.82,9.74,9.74,0,0,1-2,1.14,0,0,0,0,0,0,0s0,0,0,0a10.56,10.56,0,0,0,2.07-1.11,4.11,4.11,0,0,0,1.37-1.85A8.22,8.22,0,0,0,75,82.61c0-.76,0-1.52.08-2.27a19.45,19.45,0,0,1,.67-4.43,11.62,11.62,0,0,1,2-4c.46-.59,1-1.15,1.49-1.75a13.86,13.86,0,0,0,1.34-1.9c.39-.67.74-1.36,1.08-2l0,0c-.49,2.79-.91,5.59-1.18,8.42,0,.55-.11,1.09-.15,1.64l-.09,1.64c0,.55-.06,1.09-.06,1.64s0,1.1,0,1.64c0,1,0,1.94.09,2.9a31.39,31.39,0,0,1-1.08,3.54c-.69,1.91-1.51,3.8-2.13,5.76a29.08,29.08,0,0,0-1.2,6.05,34.86,34.86,0,0,0,0,6.13,53.69,53.69,0,0,0,2.53,11.9l0,.11a16.82,16.82,0,0,0-.65,6.53,28.15,28.15,0,0,0,1.37,6.42c.34,1,.73,2.07,1,3.12,0,.16.09.32.13.48a9.15,9.15,0,0,1-.55,1,25.11,25.11,0,0,1-4.17,4.58.06.06,0,0,0,0,.06h.06a26.17,26.17,0,0,0,4.24-4.56c.17-.26.33-.54.48-.81a9.59,9.59,0,0,1,.35,2.49,5.55,5.55,0,0,1-.89,3.08,13,13,0,0,1-2.24,2.45v0ZM81,79.8a2.44,2.44,0,0,1,0-.27c0-.54,0-1.08.08-1.62l.1-1.62c0-.54.11-1.07.17-1.61.2-1.9.48-3.78.8-5.67l-.06.63-.62,6.07C81.38,77.08,81.23,78.45,81,79.8Zm-2.48,37.05a52,52,0,0,1-2.23-11.35,33.94,33.94,0,0,1,.07-6,29.27,29.27,0,0,1,1.24-5.92c.64-1.92,1.47-3.79,2.19-5.72.21-.53.4-1.07.57-1.61l.15,1.51c.21,1.93.49,3.85.82,5.76a65.54,65.54,0,0,1-.31,11.37l-.33,3.25c-.11,1.08-.23,2.16-.42,3.23a18.2,18.2,0,0,1-.84,3.14C79.18,115.25,78.85,116.05,78.56,116.85Zm1.76,17a3,3,0,0,0-.08-.32c-.3-1.06-.68-2.09-1-3.13a28.53,28.53,0,0,1-1.29-6.39,16.75,16.75,0,0,1,.61-6.06c.59,1.78,1.24,3.54,1.78,5.34a20.65,20.65,0,0,1,1,6,10.42,10.42,0,0,1-.4,3c-.06.25-.16.48-.24.72s-.18.48-.29.71Z"/><path class="cls-2" d="M84.11,59.11a.09.09,0,0,0,0-.07A.08.08,0,0,0,84,59a23.06,23.06,0,0,0-7.31,15,.09.09,0,0,0,.08.09.08.08,0,0,0,.08-.08,22.9,22.9,0,0,1,7.26-14.85S84.1,59.12,84.11,59.11Z"/><path class="cls-2" d="M77.46,62.32a4.58,4.58,0,0,1,3.17-1.77l2-.07a8.11,8.11,0,0,1-2.17,1.84A4.19,4.19,0,0,1,77.46,62.32Z"/><path class="cls-2" d="M81.63,67.94a4.24,4.24,0,0,1-1.12-3.34l.34-1.84a7.9,7.9,0,0,1,1.41,2.42A3.74,3.74,0,0,1,81.63,67.94Z"/><path class="cls-2" d="M77.08,78.07a4.18,4.18,0,0,1-.76-3.44l.53-1.79A7.67,7.67,0,0,1,78,75.39,3.77,3.77,0,0,1,77.08,78.07Z"/><path class="cls-2" d="M79.05,73.81a3.27,3.27,0,0,1-1.57-2.22l-.09-1.37A6.58,6.58,0,0,1,79,71.74,2.41,2.41,0,0,1,79.05,73.81Z"/><path class="cls-2" d="M84.17,63.29A2.69,2.69,0,0,0,83.92,61l-.7-1A4.88,4.88,0,0,0,83,61.81,2.51,2.51,0,0,0,84.17,63.29Z"/><path class="cls-2" d="M79.83,69.67a2.72,2.72,0,0,0-.24-2.27l-.7-1a4.88,4.88,0,0,0-.18,1.79A2.51,2.51,0,0,0,79.83,69.67Z"/><path class="cls-2" d="M76.39,66.14A3.66,3.66,0,0,0,79,65.06l1-1.14a6.93,6.93,0,0,0-2.22.44A3.05,3.05,0,0,0,76.39,66.14Z"/><path class="cls-2" d="M74.8,70.7a3.59,3.59,0,0,0,2.46-1.38l.8-1.23a6.57,6.57,0,0,0-2.13.7A2.91,2.91,0,0,0,74.8,70.7Z"/><path class="cls-2" d="M85.43,44.91a.08.08,0,0,1,0,.07.09.09,0,0,1-.1.06A26,26,0,0,1,71,34.19a.09.09,0,0,1,0-.13.09.09,0,0,1,.11,0,25.87,25.87,0,0,0,14.3,10.78S85.42,44.89,85.43,44.91Z"/><path class="cls-2" d="M78,45.2a4.32,4.32,0,0,0,3.68.09l1.71-.94a8.13,8.13,0,0,0-2.86-.68A3.81,3.81,0,0,0,78,45.2Z"/><path class="cls-2" d="M78.51,37.54a5.27,5.27,0,0,0,.85,3.86L80.65,43a9.39,9.39,0,0,0-.1-3.11A4.41,4.41,0,0,0,78.51,37.54Z"/><path class="cls-2" d="M69.11,30a5.24,5.24,0,0,0,1.21,3.76l1.43,1.48a9.46,9.46,0,0,0-.4-3.1A4.29,4.29,0,0,0,69.11,30Z"/><path class="cls-2" d="M73.11,33.13a3.82,3.82,0,0,0-.14,3l.66,1.39a7.31,7.31,0,0,0,.57-2.33A3,3,0,0,0,73.11,33.13Z"/><path class="cls-2" d="M83.22,40.78a3.38,3.38,0,0,1,1,2.34l-.06,1.35a6.14,6.14,0,0,1-1.13-1.66A2.9,2.9,0,0,1,83.22,40.78Z"/><path class="cls-2" d="M76,36.78a3.4,3.4,0,0,1,1,2.35L77,40.48a5.9,5.9,0,0,1-1.13-1.66A3,3,0,0,1,76,36.78Z"/><path class="cls-2" d="M75,42a3.32,3.32,0,0,1,2.85-.31l1.44.61a5.82,5.82,0,0,1-2.15.72A3.21,3.21,0,0,1,75,42Z"/><path class="cls-2" d="M71.15,38.39a3.32,3.32,0,0,1,2.86.07l1.36.79a5.9,5.9,0,0,1-2.21.42A3.25,3.25,0,0,1,71.15,38.39Z"/><path class="cls-2" d="M89.19,45.55s0,0,0-.06a.09.09,0,0,0-.12,0A24.68,24.68,0,0,0,76.5,57.4a.08.08,0,0,0,0,.11.09.09,0,0,0,.11,0A24.54,24.54,0,0,1,89.14,45.59.07.07,0,0,0,89.19,45.55Z"/><path class="cls-2" d="M81.59,46.41a4.84,4.84,0,0,1,3.71-.64l1.91.59a8.61,8.61,0,0,1-2.78,1A4.2,4.2,0,0,1,81.59,46.41Z"/><path class="cls-2" d="M83.53,53.24a4.29,4.29,0,0,1,.16-3.61l1-1.66a7.93,7.93,0,0,1,.47,2.82A3.94,3.94,0,0,1,83.53,53.24Z"/><path class="cls-2" d="M75.4,61.46a4.29,4.29,0,0,1,.54-3.57l1.17-1.55a7.76,7.76,0,0,1,.17,2.85A4,4,0,0,1,75.4,61.46Z"/><path class="cls-2" d="M78.88,58a3.27,3.27,0,0,1-.7-2.68L78.6,54a6.49,6.49,0,0,1,1,2A2.57,2.57,0,0,1,78.88,58Z"/><path class="cls-2" d="M87.7,49.61a2.8,2.8,0,0,0,.6-2.27L88,46.13a5.08,5.08,0,0,0-.84,1.67A2.49,2.49,0,0,0,87.7,49.61Z"/><path class="cls-2" d="M81.16,54.29A2.82,2.82,0,0,0,81.77,52l-.31-1.21a5.3,5.3,0,0,0-.84,1.67A2.49,2.49,0,0,0,81.16,54.29Z"/><path class="cls-2" d="M79.15,49.72a3.78,3.78,0,0,0,2.94-.15l1.35-.76a6.75,6.75,0,0,0-2.31-.33A3.22,3.22,0,0,0,79.15,49.72Z"/><path class="cls-2" d="M75.92,53.58a3.78,3.78,0,0,0,2.89-.5L80,52.17a6.73,6.73,0,0,0-2.31-.05A3.16,3.16,0,0,0,75.92,53.58Z"/><path class="cls-2" d="M83,67.11a62.88,62.88,0,0,0,3.75,9.8A10,10,0,0,1,83,67.11Z"/><path class="cls-2" d="M83.34,67v0s2.28.19,3.94,4.15c.88,2.09-.11,5.73-.11,5.73l-.08-.06A62.59,62.59,0,0,1,83.34,67Z"/><path class="cls-2" d="M81.05,87.22a54,54,0,0,0,5.52,7.1A8.7,8.7,0,0,1,81.05,87.22Z"/><path class="cls-2" d="M81.32,87.07v0s1.9-.37,4.25,2.46c1.25,1.5,1.36,4.69,1.36,4.69l-.08,0A54.75,54.75,0,0,1,81.32,87.07Z"/><path class="cls-2" d="M81,106.45a38.7,38.7,0,0,0,4.63,4.39A6.24,6.24,0,0,1,81,106.45Z"/><path class="cls-2" d="M81.16,106.32v0s1.29-.45,3.24,1.29a6.87,6.87,0,0,1,1.46,3.13h-.06A38.7,38.7,0,0,1,81.16,106.32Z"/><path class="cls-2" d="M81.28,91.78a41,41,0,0,0-4.32,7C76.91,98.17,76.73,93.54,81.28,91.78Z"/><path class="cls-2" d="M81.53,92h0s1.13,1.87-.53,4.84c-.88,1.57-3.8,2.31-3.8,2.31a.28.28,0,0,1,0-.08A41.35,41.35,0,0,1,81.53,92Z"/><path class="cls-2" d="M79.17,118.62a34.35,34.35,0,0,0,4.89,4.4C83.52,122.94,79.79,122.27,79.17,118.62Z"/><path class="cls-2" d="M79.41,118.48v0s1.69-.5,3.77,1.24c1.1.92,1.19,3.19,1.19,3.19H84.3A34.35,34.35,0,0,1,79.41,118.48Z"/><path class="cls-2" d="M80.41,135.76a28.38,28.38,0,0,0,3.19,4.65C83.16,140.23,80.16,138.94,80.41,135.76Z"/><path class="cls-2" d="M80.64,135.69v0a3.71,3.71,0,0,1,2.91,1.77c.73,1,.32,2.91.32,2.91l0,0A28.29,28.29,0,0,1,80.64,135.69Z"/><path class="cls-2" d="M87.15,186.6l0,0a0,0,0,0,0,0-.05,14.92,14.92,0,0,0-3.7-10.15.07.07,0,0,0-.08,0,0,0,0,0,0,0,.07,14.82,14.82,0,0,1,3.68,10.09A.08.08,0,0,0,87.15,186.6Z"/><path class="cls-2" d="M88.81,182.52a2.36,2.36,0,0,1-.68,2.06l-.91.76a4.49,4.49,0,0,1,.16-1.72C87.65,182.84,88.81,182.52,88.81,182.52Z"/><path class="cls-2" d="M84.07,181.28a3.54,3.54,0,0,1,2.16,1.24l.73,1a6.49,6.49,0,0,1-1.86-.67A2.63,2.63,0,0,1,84.07,181.28Z"/><path class="cls-2" d="M81.36,174.55a3.47,3.47,0,0,1,2,1.42l.61,1.09a6.39,6.39,0,0,1-1.79-.83A2.53,2.53,0,0,1,81.36,174.55Z"/><path class="cls-2" d="M82.47,177.4a2.66,2.66,0,0,1,1.84.52l.71.64a5.06,5.06,0,0,1-1.52-.14A1.89,1.89,0,0,1,82.47,177.4Z"/><path class="cls-2" d="M85.09,184.54a2.17,2.17,0,0,0,1.22,1l.82.23a3.62,3.62,0,0,0-.78-.95A2,2,0,0,0,85.09,184.54Z"/><path class="cls-2" d="M84.1,179.76a2.17,2.17,0,0,0,1.22,1l.83.24a3.75,3.75,0,0,0-.78-1A2,2,0,0,0,84.1,179.76Z"/><path class="cls-2" d="M87.48,180.22a1.87,1.87,0,0,0-.76,1.53l.09.92a3.62,3.62,0,0,0,.86-1A1.79,1.79,0,0,0,87.48,180.22Z"/><path class="cls-2" d="M86.05,177.36a1.82,1.82,0,0,0-.53,1.6l.21.92a3.24,3.24,0,0,0,.69-1.15A1.88,1.88,0,0,0,86.05,177.36Z"/><path class="cls-2" d="M77.5,163.24v0a13.64,13.64,0,0,1,2.24,2.45,5.59,5.59,0,0,1,.89,3.09,9.59,9.59,0,0,1-.35,2.49q-.23-.42-.48-.81a25.81,25.81,0,0,0-4.24-4.56,0,0,0,0,0-.06,0,0,0,0,0,0,0,0,25.79,25.79,0,0,1,4.17,4.58,9.29,9.29,0,0,1,.55,1c0,.16-.08.32-.13.48-.31,1-.7,2.07-1,3.11a28.27,28.27,0,0,0-1.37,6.42,16.78,16.78,0,0,0,.65,6.53l0,.11a53.93,53.93,0,0,0-2.53,11.9,35,35,0,0,0,0,6.14,29.11,29.11,0,0,0,1.2,6c.62,2,1.44,3.86,2.13,5.77a31.87,31.87,0,0,1,1.08,3.53c0,1-.08,1.93-.09,2.9,0,.55,0,1.1,0,1.64s0,1.1.06,1.65l.09,1.64c0,.54.1,1.09.15,1.63.27,2.83.69,5.64,1.18,8.43l0,0c-.34-.68-.69-1.36-1.08-2a13.37,13.37,0,0,0-1.34-1.91c-.51-.59-1-1.15-1.49-1.74a11.62,11.62,0,0,1-2-4,19.54,19.54,0,0,1-.67-4.44c0-.75,0-1.51-.08-2.26a8.15,8.15,0,0,0-.43-2.24,4,4,0,0,0-1.37-1.85,9.6,9.6,0,0,0-2.07-1.11,0,0,0,0,0,0,0s0,0,0,0a9.74,9.74,0,0,1,2,1.14,3.85,3.85,0,0,1,1.29,1.82,7.74,7.74,0,0,1,.37,2.2c0,.75,0,1.5,0,2.26a20.27,20.27,0,0,0,.58,4.51A12.08,12.08,0,0,0,77.35,234c.46.63,1,1.2,1.46,1.79a12.19,12.19,0,0,1,1.25,1.87c.37.65.69,1.33,1,2l1,2.06,0,.06c.14.74.27,1.47.41,2.21s.27,1.47.41,2.21l.06,1.94a83,83,0,0,1-.53,12.11h0a.58.58,0,0,0,.53.62.59.59,0,0,0,.66-.5c.26-2.4.4-4.81.44-7.22.17,1.23.33,2.46.45,3.69a50.29,50.29,0,0,1-.23,12.86h0a.71.71,0,0,0,1.4.19,51.46,51.46,0,0,0,.09-13.18c-.37-3.34-1-6.63-1.6-9.91a31.22,31.22,0,0,1,1,3.36h0a.43.43,0,0,0,.52.31.41.41,0,0,0,.32-.49c-.23-1-.53-1.92-.85-2.85h0a41.75,41.75,0,0,0-.2-9.08l-.26-2.25c-.08-.75-.18-1.5-.32-2.25a12.8,12.8,0,0,0-.61-2.2c-.27-.72-.58-1.41-.81-2.12a11.5,11.5,0,0,1-.49-4.44,19.26,19.26,0,0,1,.89-4.42c.22-.72.48-1.43.69-2.16a7.77,7.77,0,0,0,.36-2.24,4,4,0,0,0-.66-2.16,9.29,9.29,0,0,0-1.57-1.69h0v0a9.61,9.61,0,0,1,1.55,1.7,3.84,3.84,0,0,1,.62,2.13,7.94,7.94,0,0,1-.38,2.21c-.22.73-.48,1.43-.72,2.16a19.86,19.86,0,0,0-1,4.44,11.68,11.68,0,0,0,.45,4.51c.23.73.53,1.43.79,2.14a12.64,12.64,0,0,1,.58,2.17c.13.74.21,1.48.29,2.23l.23,2.26a44,44,0,0,1,.19,8.11c-.3-.79-.63-1.57-1-2.34-.19-2.67-.44-5.33-.72-8l-.69-6.07c-.23-2-.48-4-.86-6.07-.13-.67-.27-1.33-.43-2,.05-1.26.13-2.52.25-3.78s.3-2.7.49-4a.19.19,0,0,0,0-.08c0-.12,0-.24,0-.37.41-2.79,1-5.58,1.56-8.35.47-2.13,1-4.24,1.52-6.36s1.08-4.22,1.57-6.36A50.33,50.33,0,0,0,87.61,186a27.67,27.67,0,0,0,.13-3.28,23.77,23.77,0,0,0-.27-3.27c-.66-4.34-2.42-8.43-2.72-12.78,0,0,0-.07-.08-.06a.07.07,0,0,0-.06.07c.25,4.38,2,8.51,2.57,12.81a23.27,23.27,0,0,1,.22,3.23,26.94,26.94,0,0,1-.16,3.24,51.9,51.9,0,0,1-1.16,6.41c-.51,2.11-1.09,4.22-1.65,6.33s-1.09,4.23-1.59,6.35c-.27,1.15-.52,2.29-.76,3.44,0-2.58-.26-5.15-.53-7.71l-.37-3.25c-.13-1.08-.26-2.17-.46-3.25a18.43,18.43,0,0,0-.9-3.19c-.36-1-.76-1.89-1.09-2.84.61-1.95,1.31-3.87,1.87-5.84a20.73,20.73,0,0,0,1-6.05,10.39,10.39,0,0,0-.45-3,6.28,6.28,0,0,0-.25-.73,6.44,6.44,0,0,0-.3-.72c0-.11-.12-.23-.18-.34a9.74,9.74,0,0,0,.37-2.68,5.57,5.57,0,0,0-1-3.13,13.79,13.79,0,0,0-2.27-2.44A0,0,0,0,0,77.5,163.24Zm4,66.67.62,6.07.06.62c-.32-1.88-.6-3.77-.8-5.66-.06-.54-.12-1.08-.17-1.62l-.1-1.62c0-.54-.08-1.08-.08-1.62a2.44,2.44,0,0,1,0-.27C81.23,227.17,81.38,228.54,81.52,229.91Zm-2-38.75a18.09,18.09,0,0,1,.84,3.13c.19,1.07.31,2.15.42,3.24l.33,3.25a65.4,65.4,0,0,1,.31,11.36c-.33,1.92-.61,3.84-.82,5.77l-.15,1.51q-.25-.82-.57-1.62c-.72-1.92-1.55-3.79-2.19-5.72a29,29,0,0,1-1.24-5.91,34,34,0,0,1-.07-6,52,52,0,0,1,2.23-11.36C78.85,189.57,79.18,190.36,79.47,191.16Zm.94-19.26c.11.23.2.47.29.7s.18.48.24.72a10.48,10.48,0,0,1,.4,3,20.7,20.7,0,0,1-1,6c-.54,1.79-1.19,3.55-1.78,5.34a16.81,16.81,0,0,1-.61-6.07,28.56,28.56,0,0,1,1.29-6.38c.33-1.05.71-2.08,1-3.13,0-.11.06-.22.08-.33A1.51,1.51,0,0,1,80.41,171.9Z"/><path class="cls-2" d="M84.11,246.51a.09.09,0,0,1,0,.06.08.08,0,0,1-.11,0,23.06,23.06,0,0,1-7.31-15,.08.08,0,0,1,.08-.08.07.07,0,0,1,.08.07,22.92,22.92,0,0,0,7.26,14.86S84.1,246.49,84.11,246.51Z"/><path class="cls-2" d="M77.46,243.29a4.58,4.58,0,0,0,3.17,1.77l2,.08a8.25,8.25,0,0,0-2.17-1.85A4.19,4.19,0,0,0,77.46,243.29Z"/><path class="cls-2" d="M81.63,237.67A4.25,4.25,0,0,0,80.51,241l.34,1.83a7.75,7.75,0,0,0,1.41-2.42A3.74,3.74,0,0,0,81.63,237.67Z"/><path class="cls-2" d="M77.08,227.54a4.2,4.2,0,0,0-.76,3.44l.53,1.8A7.67,7.67,0,0,0,78,230.23,3.78,3.78,0,0,0,77.08,227.54Z"/><path class="cls-2" d="M79.05,231.8A3.3,3.3,0,0,0,77.48,234l-.09,1.36A6.36,6.36,0,0,0,79,233.87,2.42,2.42,0,0,0,79.05,231.8Z"/><path class="cls-2" d="M84.17,242.32a2.7,2.7,0,0,1-.25,2.27l-.7,1a4.88,4.88,0,0,1-.18-1.79A2.51,2.51,0,0,1,84.17,242.32Z"/><path class="cls-2" d="M79.83,236a2.72,2.72,0,0,1-.24,2.27l-.7,1a4.88,4.88,0,0,1-.18-1.79A2.51,2.51,0,0,1,79.83,236Z"/><path class="cls-2" d="M76.39,239.48A3.61,3.61,0,0,1,79,240.56l1,1.13a6.63,6.63,0,0,1-2.22-.44A3,3,0,0,1,76.39,239.48Z"/><path class="cls-2" d="M74.8,234.92a3.54,3.54,0,0,1,2.46,1.38l.8,1.23a6.57,6.57,0,0,1-2.13-.7A2.93,2.93,0,0,1,74.8,234.92Z"/><path class="cls-2" d="M85.43,260.71a.1.1,0,0,0,0-.07.07.07,0,0,0-.1-.06A26,26,0,0,0,71,271.43a.08.08,0,0,0,0,.12.07.07,0,0,0,.11,0,25.78,25.78,0,0,1,14.3-10.78A.08.08,0,0,0,85.43,260.71Z"/><path class="cls-2" d="M78,260.41a4.31,4.31,0,0,1,3.68-.08l1.71.93a8.13,8.13,0,0,1-2.86.68A3.78,3.78,0,0,1,78,260.41Z"/><path class="cls-2" d="M78.51,268.07a5.25,5.25,0,0,1,.85-3.85l1.29-1.62a9.33,9.33,0,0,1-.1,3.1A4.41,4.41,0,0,1,78.51,268.07Z"/><path class="cls-2" d="M69.11,275.63a5.24,5.24,0,0,1,1.21-3.76l1.43-1.48a9.39,9.39,0,0,1-.4,3.09A4.32,4.32,0,0,1,69.11,275.63Z"/><path class="cls-2" d="M73.11,272.49a3.84,3.84,0,0,1-.14-3l.66-1.39a7.31,7.31,0,0,1,.57,2.33A3,3,0,0,1,73.11,272.49Z"/><path class="cls-2" d="M83.22,264.84a3.41,3.41,0,0,0,1-2.35l-.06-1.35a6.34,6.34,0,0,0-1.13,1.66A2.93,2.93,0,0,0,83.22,264.84Z"/><path class="cls-2" d="M76,268.83a3.4,3.4,0,0,0,1-2.35L77,265.13a6,6,0,0,0-1.13,1.67A2.94,2.94,0,0,0,76,268.83Z"/><path class="cls-2" d="M75,263.59a3.28,3.28,0,0,0,2.85.31l1.44-.61a6,6,0,0,0-2.15-.72A3.21,3.21,0,0,0,75,263.59Z"/><path class="cls-2" d="M71.15,267.22a3.31,3.31,0,0,0,2.86-.06l1.36-.8a5.9,5.9,0,0,0-2.21-.42A3.3,3.3,0,0,0,71.15,267.22Z"/><path class="cls-2" d="M89.19,260.06s0,.05,0,.07a.09.09,0,0,1-.12,0,24.72,24.72,0,0,1-12.57-12,.08.08,0,1,1,.15-.07A24.56,24.56,0,0,0,89.14,260,.1.1,0,0,1,89.19,260.06Z"/><path class="cls-2" d="M81.59,259.21a4.81,4.81,0,0,0,3.71.63l1.91-.58a8.77,8.77,0,0,0-2.78-1.05A4.24,4.24,0,0,0,81.59,259.21Z"/><path class="cls-2" d="M83.53,252.38a4.29,4.29,0,0,0,.16,3.61l1,1.65a7.93,7.93,0,0,0,.47-2.82A3.91,3.91,0,0,0,83.53,252.38Z"/><path class="cls-2" d="M75.4,244.15a4.29,4.29,0,0,0,.54,3.57l1.17,1.55a7.7,7.7,0,0,0,.17-2.84A4,4,0,0,0,75.4,244.15Z"/><path class="cls-2" d="M78.88,247.59a3.27,3.27,0,0,0-.7,2.68l.42,1.35a6.6,6.6,0,0,0,1-2A2.54,2.54,0,0,0,78.88,247.59Z"/><path class="cls-2" d="M87.7,256a2.81,2.81,0,0,1,.6,2.27l-.3,1.21a5.08,5.08,0,0,1-.84-1.67A2.52,2.52,0,0,1,87.7,256Z"/><path class="cls-2" d="M81.16,251.32a2.85,2.85,0,0,1,.61,2.28l-.31,1.2a5.3,5.3,0,0,1-.84-1.67A2.52,2.52,0,0,1,81.16,251.32Z"/><path class="cls-2" d="M79.15,255.89a3.78,3.78,0,0,1,2.94.15l1.35.77a7,7,0,0,1-2.31.33A3.26,3.26,0,0,1,79.15,255.89Z"/><path class="cls-2" d="M75.92,252a3.75,3.75,0,0,1,2.89.49l1.22.92a7,7,0,0,1-2.31.05A3.2,3.2,0,0,1,75.92,252Z"/><path class="cls-2" d="M83,238.5a62.59,62.59,0,0,1,3.75-9.79A10,10,0,0,0,83,238.5Z"/><path class="cls-2" d="M83.34,238.59v0s2.28-.2,3.94-4.15c.88-2.09-.11-5.73-.11-5.73l-.08,0A62.88,62.88,0,0,0,83.34,238.59Z"/><path class="cls-2" d="M81.05,218.39a54.53,54.53,0,0,1,5.52-7.09A8.66,8.66,0,0,0,81.05,218.39Z"/><path class="cls-2" d="M81.32,218.54v0s1.9.37,4.25-2.46c1.25-1.5,1.36-4.69,1.36-4.69l-.08,0A53.61,53.61,0,0,0,81.32,218.54Z"/><path class="cls-2" d="M81,199.16a39.17,39.17,0,0,1,4.63-4.38A6.19,6.19,0,0,0,81,199.16Z"/><path class="cls-2" d="M81.16,199.3h0s1.29.45,3.24-1.28a6.87,6.87,0,0,0,1.46-3.13h-.06A38.7,38.7,0,0,0,81.16,199.3Z"/><path class="cls-2" d="M81.28,213.84A41.35,41.35,0,0,1,77,206.78,6.94,6.94,0,0,0,81.28,213.84Z"/><path class="cls-2" d="M81.53,213.59h0s1.13-1.87-.53-4.83c-.88-1.57-3.8-2.32-3.8-2.32a.31.31,0,0,0,0,.09A41,41,0,0,0,81.53,213.59Z"/><path class="cls-2" d="M79.17,187a34,34,0,0,1,4.89-4.41C83.52,182.67,79.79,183.35,79.17,187Z"/><path class="cls-2" d="M79.41,187.14v0s1.69.5,3.77-1.24c1.1-.92,1.19-3.2,1.19-3.2H84.3A34,34,0,0,0,79.41,187.14Z"/><path class="cls-2" d="M80.41,169.86a27.45,27.45,0,0,1,3.19-4.65C83.16,165.38,80.16,166.67,80.41,169.86Z"/><path class="cls-2" d="M80.64,169.93v0a3.71,3.71,0,0,0,2.91-1.77c.73-1,.32-2.92.32-2.92l0,0A28.56,28.56,0,0,0,80.64,169.93Z"/><path class="cls-2" d="M11.79,186.6l0,0a.06.06,0,0,1-.06-.05,15,15,0,0,1,3.71-10.15.06.06,0,0,1,.08,0,0,0,0,0,1,0,.07,14.91,14.91,0,0,0-3.68,10.09A.06.06,0,0,1,11.79,186.6Z"/><path class="cls-2" d="M10.13,182.52a2.36,2.36,0,0,0,.68,2.06l.91.76a4.49,4.49,0,0,0-.16-1.72C11.28,182.84,10.13,182.52,10.13,182.52Z"/><path class="cls-2" d="M14.87,181.28a3.54,3.54,0,0,0-2.16,1.24l-.73,1a6.49,6.49,0,0,0,1.86-.67A2.63,2.63,0,0,0,14.87,181.28Z"/><path class="cls-2" d="M17.57,174.55a3.46,3.46,0,0,0-2,1.42l-.61,1.09a6.39,6.39,0,0,0,1.79-.83A2.49,2.49,0,0,0,17.57,174.55Z"/><path class="cls-2" d="M16.47,177.4a2.66,2.66,0,0,0-1.84.52l-.71.64a5.06,5.06,0,0,0,1.52-.14A1.89,1.89,0,0,0,16.47,177.4Z"/><path class="cls-2" d="M13.85,184.54a2.17,2.17,0,0,1-1.22,1l-.83.23a3.77,3.77,0,0,1,.79-.95A2,2,0,0,1,13.85,184.54Z"/><path class="cls-2" d="M14.84,179.76a2.17,2.17,0,0,1-1.22,1l-.83.24a3.75,3.75,0,0,1,.78-1A2,2,0,0,1,14.84,179.76Z"/><path class="cls-2" d="M11.46,180.22a1.85,1.85,0,0,1,.75,1.53l-.08.92a3.45,3.45,0,0,1-.86-1A1.79,1.79,0,0,1,11.46,180.22Z"/><path class="cls-2" d="M12.89,177.36a1.82,1.82,0,0,1,.53,1.6l-.21.92a3.35,3.35,0,0,1-.7-1.15A1.91,1.91,0,0,1,12.89,177.36Z"/><path class="cls-2" d="M21.4,163.24a14.17,14.17,0,0,0-2.27,2.44,5.64,5.64,0,0,0-.94,3.13,10.12,10.12,0,0,0,.36,2.68l-.18.34c-.11.23-.2.48-.29.72a6.28,6.28,0,0,0-.25.73,10.39,10.39,0,0,0-.45,3,21.06,21.06,0,0,0,.95,6.05c.57,2,1.27,3.89,1.88,5.84-.33,1-.74,1.88-1.1,2.84a18.4,18.4,0,0,0-.89,3.19c-.2,1.08-.33,2.17-.46,3.25l-.37,3.25c-.27,2.56-.49,5.13-.53,7.71-.24-1.15-.49-2.29-.76-3.44-.5-2.12-1-4.24-1.6-6.35s-1.14-4.22-1.64-6.33a48.41,48.41,0,0,1-1.16-6.41,29.18,29.18,0,0,1-.17-3.24,24.93,24.93,0,0,1,.23-3.23c.6-4.3,2.31-8.43,2.57-12.81a.07.07,0,0,0-.07-.07.06.06,0,0,0-.07.06c-.3,4.35-2.06,8.44-2.72,12.78a23.77,23.77,0,0,0-.27,3.27,27.67,27.67,0,0,0,.13,3.28,48.65,48.65,0,0,0,1.08,6.46c.48,2.14,1.05,4.25,1.57,6.36s1,4.23,1.51,6.36c.62,2.77,1.16,5.56,1.57,8.35,0,.13,0,.25,0,.37a.11.11,0,0,0,0,.08c.19,1.35.36,2.7.48,4s.21,2.52.26,3.78c-.16.66-.31,1.32-.43,2-.38,2-.63,4.05-.86,6.07l-.69,6.07c-.28,2.65-.54,5.31-.72,8-.34.77-.67,1.55-1,2.34a44,44,0,0,1,.19-8.11l.23-2.26c.07-.75.16-1.49.29-2.23a11.79,11.79,0,0,1,.58-2.17c.25-.71.56-1.41.79-2.14a11.67,11.67,0,0,0,.44-4.51,19.84,19.84,0,0,0-.94-4.44c-.24-.73-.51-1.43-.72-2.16a7.94,7.94,0,0,1-.38-2.21,3.84,3.84,0,0,1,.62-2.13,9.24,9.24,0,0,1,1.55-1.7v0h0a9.29,9.29,0,0,0-1.57,1.69A3.82,3.82,0,0,0,14.6,216a7.77,7.77,0,0,0,.36,2.24c.2.73.47,1.44.69,2.16a19.81,19.81,0,0,1,.89,4.42,11.5,11.5,0,0,1-.49,4.44c-.23.71-.54,1.4-.81,2.12a12.83,12.83,0,0,0-.62,2.2c-.14.75-.23,1.5-.32,2.25l-.25,2.25a41.75,41.75,0,0,0-.2,9.08h0A27.51,27.51,0,0,0,13,250a.4.4,0,0,0,.32.49.43.43,0,0,0,.52-.31h0a29.08,29.08,0,0,1,1-3.36c-.64,3.28-1.23,6.57-1.6,9.91a51,51,0,0,0,.09,13.18.7.7,0,0,0,.8.58.68.68,0,0,0,.59-.77h0a50.29,50.29,0,0,1-.23-12.86q.18-1.84.45-3.69c0,2.41.18,4.82.44,7.22a.59.59,0,0,0,.66.5.56.56,0,0,0,.52-.62h0A83,83,0,0,1,16,248.13c0-.65,0-1.29.06-1.94s.27-1.48.41-2.21.27-1.47.4-2.21l0-.06,1-2.06c.33-.69.65-1.37,1-2a12.19,12.19,0,0,1,1.25-1.87c.48-.59,1-1.16,1.46-1.79a12.08,12.08,0,0,0,1.94-4.18,19.69,19.69,0,0,0,.57-4.51c0-.76,0-1.51,0-2.26a7.41,7.41,0,0,1,.37-2.2A3.9,3.9,0,0,1,25.79,219a10.09,10.09,0,0,1,2-1.14s0,0,0,0,0,0,0,0a9.53,9.53,0,0,0-2.06,1.11,3.94,3.94,0,0,0-1.37,1.85,7.8,7.8,0,0,0-.43,2.24c-.05.75-.05,1.51-.08,2.26a19.54,19.54,0,0,1-.67,4.44,11.62,11.62,0,0,1-2,4c-.46.59-1,1.15-1.49,1.74a12.61,12.61,0,0,0-1.34,1.91c-.4.67-.74,1.35-1.08,2l0,0c.48-2.79.91-5.6,1.18-8.43.05-.54.11-1.09.15-1.63l.09-1.64c0-.55.06-1.1.06-1.65s0-1.09,0-1.64c0-1,0-1.93-.1-2.9A31.93,31.93,0,0,1,19.77,218c.69-1.91,1.5-3.8,2.13-5.77a29.11,29.11,0,0,0,1.2-6,35,35,0,0,0,0-6.14,53.38,53.38,0,0,0-2.54-11.9.49.49,0,0,0,0-.11,16.78,16.78,0,0,0,.65-6.53,29.39,29.39,0,0,0-1.37-6.42c-.34-1-.73-2.07-1-3.11-.05-.16-.09-.32-.14-.48a9.38,9.38,0,0,1,.56-1A26.11,26.11,0,0,1,23.43,166a0,0,0,0,0,0,0s0,0-.05,0a25.81,25.81,0,0,0-4.24,4.56c-.18.26-.33.53-.49.81a10,10,0,0,1-.34-2.49,5.5,5.5,0,0,1,.89-3.09,14,14,0,0,1,2.23-2.45,0,0,0,0,0,0,0S21.41,163.23,21.4,163.24Zm-3.5,62.57c0,.09,0,.18,0,.27,0,.54,0,1.08-.08,1.62l-.1,1.62c-.05.54-.12,1.08-.17,1.62-.2,1.89-.48,3.78-.8,5.66l.06-.62.62-6.07C17.56,228.54,17.71,227.17,17.9,225.81Zm2.48-37.05a52.64,52.64,0,0,1,2.23,11.36,34,34,0,0,1-.07,6,29.06,29.06,0,0,1-1.25,5.91c-.63,1.93-1.46,3.8-2.19,5.72q-.3.8-.57,1.62c0-.51-.09-1-.14-1.51-.21-1.93-.49-3.85-.82-5.77a65.4,65.4,0,0,1,.31-11.36l.33-3.25c.11-1.09.23-2.17.42-3.24a18.09,18.09,0,0,1,.84-3.13C19.76,190.36,20.09,189.57,20.38,188.76Zm-1.77-17,.09.33c.3,1,.68,2.08,1,3.13A28.54,28.54,0,0,1,21,181.56a16.58,16.58,0,0,1-.6,6.07c-.59-1.79-1.25-3.55-1.78-5.34a20.7,20.7,0,0,1-1-6,10.48,10.48,0,0,1,.4-3,6.75,6.75,0,0,1,.24-.72,6.91,6.91,0,0,1,.29-.7C18.55,171.84,18.59,171.78,18.61,171.72Z"/><path class="cls-2" d="M14.83,246.51a.09.09,0,0,0,0,.06.08.08,0,0,0,.11,0,23.11,23.11,0,0,0,7.31-15,.08.08,0,0,0-.08-.08s-.08,0-.09.07a22.91,22.91,0,0,1-7.25,14.86A.05.05,0,0,0,14.83,246.51Z"/><path class="cls-2" d="M21.47,243.29a4.56,4.56,0,0,1-3.17,1.77l-1.94.08a8.25,8.25,0,0,1,2.17-1.85A4.16,4.16,0,0,1,21.47,243.29Z"/><path class="cls-2" d="M17.31,237.67A4.25,4.25,0,0,1,18.43,241l-.34,1.83a7.75,7.75,0,0,1-1.41-2.42A3.69,3.69,0,0,1,17.31,237.67Z"/><path class="cls-2" d="M21.86,227.54a4.24,4.24,0,0,1,.76,3.44l-.53,1.8a7.67,7.67,0,0,1-1.15-2.55A3.73,3.73,0,0,1,21.86,227.54Z"/><path class="cls-2" d="M19.89,231.8A3.3,3.3,0,0,1,21.46,234l.09,1.36a6.36,6.36,0,0,1-1.62-1.52A2.42,2.42,0,0,1,19.89,231.8Z"/><path class="cls-2" d="M14.77,242.32a2.72,2.72,0,0,0,.24,2.27l.71,1a4.88,4.88,0,0,0,.18-1.79A2.51,2.51,0,0,0,14.77,242.32Z"/><path class="cls-2" d="M19.1,236a2.74,2.74,0,0,0,.25,2.27l.7,1a4.88,4.88,0,0,0,.18-1.79A2.51,2.51,0,0,0,19.1,236Z"/><path class="cls-2" d="M22.54,239.48a3.61,3.61,0,0,0-2.64,1.08l-1,1.13a6.67,6.67,0,0,0,2.23-.44A3,3,0,0,0,22.54,239.48Z"/><path class="cls-2" d="M24.14,234.92a3.54,3.54,0,0,0-2.46,1.38l-.8,1.23a6.65,6.65,0,0,0,2.13-.7A2.93,2.93,0,0,0,24.14,234.92Z"/><path class="cls-2" d="M13.5,260.71a.09.09,0,0,1,0-.07.07.07,0,0,1,.1-.06A26,26,0,0,1,28,271.43a.08.08,0,0,1,0,.12.07.07,0,0,1-.11,0,25.78,25.78,0,0,0-14.3-10.78Z"/><path class="cls-2" d="M21,260.41a4.31,4.31,0,0,0-3.68-.08l-1.71.93a8.13,8.13,0,0,0,2.86.68A3.78,3.78,0,0,0,21,260.41Z"/><path class="cls-2" d="M20.43,268.07a5.23,5.23,0,0,0-.86-3.85l-1.28-1.62a9.33,9.33,0,0,0,.1,3.1A4.37,4.37,0,0,0,20.43,268.07Z"/><path class="cls-2" d="M29.83,275.63a5.24,5.24,0,0,0-1.21-3.76l-1.43-1.48a9.55,9.55,0,0,0,.39,3.09A4.36,4.36,0,0,0,29.83,275.63Z"/><path class="cls-2" d="M25.82,272.49a3.83,3.83,0,0,0,.15-3l-.66-1.39a7,7,0,0,0-.57,2.33A3,3,0,0,0,25.82,272.49Z"/><path class="cls-2" d="M15.72,264.84a3.37,3.37,0,0,1-1-2.35l.06-1.35a6.34,6.34,0,0,1,1.13,1.66A2.93,2.93,0,0,1,15.72,264.84Z"/><path class="cls-2" d="M22.9,268.83a3.37,3.37,0,0,1-1-2.35l.06-1.35a6.28,6.28,0,0,1,1.13,1.67A2.91,2.91,0,0,1,22.9,268.83Z"/><path class="cls-2" d="M23.94,263.59a3.28,3.28,0,0,1-2.85.31l-1.44-.61a6,6,0,0,1,2.15-.72A3.21,3.21,0,0,1,23.94,263.59Z"/><path class="cls-2" d="M27.79,267.22a3.31,3.31,0,0,1-2.86-.06l-1.36-.8a5.9,5.9,0,0,1,2.21-.42A3.3,3.3,0,0,1,27.79,267.22Z"/><path class="cls-2" d="M9.75,260.06a.09.09,0,0,0,0,.07.08.08,0,0,0,.11,0,24.7,24.7,0,0,0,12.58-12,.08.08,0,0,0,0-.11.09.09,0,0,0-.12,0A24.54,24.54,0,0,1,9.8,260,.1.1,0,0,0,9.75,260.06Z"/><path class="cls-2" d="M17.35,259.21a4.81,4.81,0,0,1-3.71.63l-1.91-.58a8.77,8.77,0,0,1,2.77-1.05A4.25,4.25,0,0,1,17.35,259.21Z"/><path class="cls-2" d="M15.41,252.38a4.29,4.29,0,0,1-.16,3.61l-1,1.65a7.69,7.69,0,0,1-.47-2.82A3.91,3.91,0,0,1,15.41,252.38Z"/><path class="cls-2" d="M23.54,244.15a4.29,4.29,0,0,1-.54,3.57l-1.18,1.55a7.81,7.81,0,0,1-.16-2.84A4,4,0,0,1,23.54,244.15Z"/><path class="cls-2" d="M20.06,247.59a3.24,3.24,0,0,1,.69,2.68l-.41,1.35a6.37,6.37,0,0,1-1-2A2.54,2.54,0,0,1,20.06,247.59Z"/><path class="cls-2" d="M11.24,256a2.81,2.81,0,0,0-.6,2.27l.3,1.21a5.08,5.08,0,0,0,.84-1.67A2.52,2.52,0,0,0,11.24,256Z"/><path class="cls-2" d="M17.78,251.32a2.85,2.85,0,0,0-.61,2.28l.31,1.2a5.15,5.15,0,0,0,.83-1.67A2.48,2.48,0,0,0,17.78,251.32Z"/><path class="cls-2" d="M19.79,255.89a3.8,3.8,0,0,0-2.95.15l-1.34.77a7,7,0,0,0,2.3.33A3.26,3.26,0,0,0,19.79,255.89Z"/><path class="cls-2" d="M23,252a3.73,3.73,0,0,0-2.88.49l-1.23.92a7.1,7.1,0,0,0,2.32.05A3.16,3.16,0,0,0,23,252Z"/><path class="cls-2" d="M16,238.5a62.22,62.22,0,0,0-3.76-9.79A10,10,0,0,1,16,238.5Z"/><path class="cls-2" d="M15.6,238.59v0s-2.28-.2-3.95-4.15c-.88-2.09.12-5.73.12-5.73l.08,0A62.88,62.88,0,0,1,15.6,238.59Z"/><path class="cls-2" d="M17.89,218.39a54.53,54.53,0,0,0-5.52-7.09A8.68,8.68,0,0,1,17.89,218.39Z"/><path class="cls-2" d="M17.62,218.54v0s-1.91.37-4.26-2.46c-1.24-1.5-1.35-4.69-1.35-4.69l.08,0A54.53,54.53,0,0,1,17.62,218.54Z"/><path class="cls-2" d="M18,199.16a40,40,0,0,0-4.63-4.38A6.21,6.21,0,0,1,18,199.16Z"/><path class="cls-2" d="M17.78,199.3h0s-1.28.45-3.23-1.28a6.87,6.87,0,0,1-1.46-3.13h.06A39.52,39.52,0,0,1,17.78,199.3Z"/><path class="cls-2" d="M17.66,213.84A42.07,42.07,0,0,0,22,206.78,6.94,6.94,0,0,1,17.66,213.84Z"/><path class="cls-2" d="M17.41,213.59h0s-1.13-1.87.53-4.83c.88-1.57,3.8-2.32,3.8-2.32a.62.62,0,0,0,0,.09A41.73,41.73,0,0,1,17.41,213.59Z"/><path class="cls-2" d="M19.77,187a33.87,33.87,0,0,0-4.9-4.41C15.42,182.67,19.15,183.35,19.77,187Z"/><path class="cls-2" d="M19.53,187.14v0s-1.69.5-3.77-1.24c-1.11-.92-1.19-3.2-1.19-3.2h.06A33.87,33.87,0,0,1,19.53,187.14Z"/><path class="cls-2" d="M18.52,169.86a28.27,28.27,0,0,0-3.18-4.65C15.78,165.38,18.78,166.67,18.52,169.86Z"/><path class="cls-2" d="M18.29,169.93v0a3.71,3.71,0,0,1-2.91-1.77c-.73-1-.33-2.92-.33-2.92l.06,0A28.76,28.76,0,0,1,18.29,169.93Z"/></g></g></svg>